<svg xmlns="http://www.w3.org/2000/svg" version="1.1" xmlns:xlink="http://www.w3.org/1999/xlink"
    xmlns:svgjs="http://svgjs.dev/svgjs" width="2000" height="979" viewBox="0 0 2000 979">
    <g transform="matrix(1,0,0,1,-1.2112696095522324,0.08536690392537594)">
        <svg viewBox="0 0 396 194" data-background-color="#636365"
            preserveAspectRatio="xMidYMid meet" height="979" width="2000"
            xmlns="http://www.w3.org/2000/svg" xmlns:xlink="http://www.w3.org/1999/xlink">
            <g id="tight-bounds"
                transform="matrix(1,0,0,1,0.24008861730862918,-0.016916424271215647)">
                <svg viewBox="0 0 395.52 194.03383284854243" height="194.03383284854243"
                    width="395.52">
                    <g>
                        <svg viewBox="0 0 395.52 194.03383284854243" height="194.03383284854243"
                            width="395.52">
                            <g>
                                <svg viewBox="0 0 395.52 194.03383284854243"
                                    height="194.03383284854243" width="395.52">
                                    <g id="textblocktransform">
                                        <svg viewBox="0 0 395.52 194.03383284854243"
                                            height="194.03383284854243" width="395.52"
                                            id="textblock">
                                            <g>
                                                <svg viewBox="0 0 395.52 134.1357807868398"
                                                    height="134.1357807868398" width="395.52">
                                                    <path
                                                        d="M394.594 28.77C392.735 14.846 387.435 10.976 387.435 10.976 371.165-3.365 350.86-0.274 332.619 1.786 300.414 1.87 268.339 4.933 236.208 6.576 168.767 6.827 100.749 2.705 33.643 12.869 27.339 15.988-6.54 13.482 1.121 30.552 3.129 37.653 10.456 45.533 10.232 52.049 11.236 53.191 12.631 50.573 13.226 52.216 15.309 56.644 18.711 54.555 21.501 57.173 17.614 64.162 20.403 69.982 23.062 76.081 18.377 77.668 12.371 76.916 9.675 82.179 9.396 85.994 7.89 85.27 6.235 85.103 5.026 84.992 2.59 85.409 2.999 86.607 4.394 90.7-1.594 93.067 2.162 97.077-0.422 101.421 3.948 105.18 3.353 109.886 3.278 110.833 3.687 111.641 4.338 111.863 7.22 113.061 3.018 115.4 3.464 117.934 33.029 135.255 65.104 123.281 95.394 131.245 103.259 125.675 97.346 133.222 100.489 132.052 102.943 130.688 104.728 136.341 107.499 133.138 107.927 132.219 107.276 130.047 108.8 130.465 109.6 130.688 110.307 130.632 110.418 129.351 110.586 127.43 109.117 128.627 108.726 127.625 112.947 122.557 111.906 134.614 115.866 134.113 115.68 132.637 114.528 130.521 116.889 130.799 119.232 128.683 119.306 126.928 121.389 131.69 121.463 132.721 121.835 133.445 122.43 133.946 128.938 128.766 135.409 135.784 142.233 133.445 146.417 130.883 150.433 134.837 154.672 133.862 156.16 133.083 157.666 131.69 159.098 134.029 176.632 134.531 195.319 132.442 211.943 134.113 256.364 130.994 303.836 135.394 350.674 131.273 361.719 129.685 373.192 127.43 383.958 125.62 383.958 125.62 392.679 120.663 392.679 98.386S394.538 78.893 394.817 61.155C395.096 43.417 396.398 42.693 394.538 28.77Z"
                                                        opacity="1" fill="#ffffff"
                                                        data-fill-palette-color="tertiary"></path>
                                                    <g
                                                        transform="matrix(1,0,0,1,55.76832,26.068561146666667)">
                                                        <svg width="283.98335999999995"
                                                            viewBox="4.22 -33.27 116.78 33.730000000000004"
                                                            height="81.99865849350647"
                                                            data-palette-color="#636365">
                                                            <path
                                                                d="M25.81-11.6L25.81-33.27 29.68-33.27 29.68-11.73Q29.68-6.04 26.24-2.79 22.8 0.46 16.81 0.46 10.82 0.46 7.51-2.81L7.51-2.81Q4.22-6.09 4.22-11.83L4.22-11.83 4.22-33.27 8.09-33.27 8.09-11.55Q8.09-7.36 10.38-5.14 12.66-2.93 16.96-2.93 21.26-2.93 23.53-5.18 25.81-7.43 25.81-11.6L25.81-11.6ZM42.36-33.27L42.36 0 38.5 0 38.5-33.27 42.36-33.27ZM86.17-11.6L86.17-33.27 90.03-33.27 90.03-11.73Q90.03-6.04 86.6-2.79 83.16 0.46 77.17 0.46 71.18 0.46 67.86-2.81L67.86-2.81Q64.58-6.09 64.58-11.83L64.58-11.83 64.58-33.27 68.45-33.27 68.45-11.55Q68.45-7.36 70.73-5.14 73.02-2.93 77.32-2.93 81.62-2.93 83.89-5.18 86.17-7.43 86.17-11.6L86.17-11.6ZM120.19-33.27L109.87-17.52 121 0 116.6 0 107.65-14.64 98.55 0 94.45 0 105.53-17.39 95.21-33.27 99.48-33.27 107.75-20.1 116.07-33.27 120.19-33.27Z"
                                                                opacity="1"
                                                                transform="matrix(1,0,0,1,0,0)"
                                                                fill="#636365"
                                                                class="wordmark-text-0"
                                                                data-fill-palette-color="quaternary"
                                                                id="text-0"></path>
                                                        </svg>
                                                    </g>
                                                </svg>
                                            </g>
                                            <g
                                                transform="matrix(1,0,0,1,83.00826851036018,153.49369608935285)">
                                                <svg
                                                    viewBox="0 0 229.50346297927962 40.5401367591896"
                                                    height="40.5401367591896"
                                                    width="229.50346297927962">
                                                    <g transform="matrix(1,0,0,1,0,0)">
                                                        <svg width="229.50346297927962"
                                                            viewBox="5.76 -41.94 300.17 53.019999999999996"
                                                            height="40.5401367591896"
                                                            data-palette-color="#ffffff">
                                                            <path
                                                                d="M28.56-27.78L28.56-27.78Q28.56-20.26 22.88-19.51L22.88-19.51 22.88-19.43Q26.39-19.17 28.13-17.43L28.13-17.43Q30.13-15.38 30.13-11.49 30.13-7.59 29.24-5.44 28.34-3.3 26.76-2.1L26.76-2.1Q24.05 0 18.24 0L18.24 0 5.76 0 5.76-37.23Q12.52-37.87 16.92-37.87 21.31-37.87 23.36-37.19 25.42-36.52 26.56-35.25L26.56-35.25Q28.56-33.03 28.56-27.78ZM9.91-20.68L15.41-20.68Q20.31-20.68 22.22-22.07L22.22-22.07Q24.39-23.63 24.39-27.88L24.39-27.88 24.39-28.39Q24.39-31.67 22.95-33.06L22.95-33.06Q21.51-34.42 18.04-34.42L18.04-34.42Q15.14-34.42 13.11-34.3L13.11-34.3 9.91-34.11 9.91-20.68ZM9.91-3.47L18.75-3.47Q22.34-3.47 23.88-4.83L23.88-4.83Q25.81-6.57 25.81-11.04L25.81-11.04Q25.81-16.21 22.02-17.09L22.02-17.09Q20.87-17.36 19.53-17.36L19.53-17.36 9.91-17.36 9.91-3.47ZM60.72-29.05L60.72-12.79Q60.72-4.74 61.18-0.2L61.18-0.2 57.54 0.1 56.96-3.34Q54.1-0.98 50.29 0.07L50.29 0.07Q48.78 0.49 46.69 0.49 44.6 0.49 42.95-0.01 41.31-0.51 40.33-1.61L40.33-1.61Q38.55-3.59 38.55-8.81L38.55-8.81 38.55-29.05 42.65-29.05 42.65-9.47Q42.65-5.96 43.33-4.94 44.02-3.93 44.96-3.58 45.9-3.22 47.19-3.22 48.48-3.22 49.69-3.43 50.9-3.64 52.12-4.03L52.12-4.03Q54.69-4.86 56.76-6.3L56.76-6.3 56.76-6.32Q56.66-8.18 56.66-13.55L56.66-13.55 56.66-29.05 60.72-29.05ZM74.95-36.01L74.95-36.01Q73.31-36.01 72.85-36.47L72.85-36.47Q72.11-37.23 72.11-38.56 72.11-39.89 72.27-40.47 72.43-41.04 72.75-41.36L72.75-41.36Q73.33-41.94 74.54-41.94 75.75-41.94 76.28-41.82 76.8-41.7 77.14-41.36L77.14-41.36Q77.73-40.77 77.73-39.44 77.73-38.11 77.6-37.54 77.46-36.96 77.14-36.62L77.14-36.62Q76.53-36.01 74.95-36.01ZM73.02 0L72.97-29.05 76.97-29.05 76.97 0 73.02 0ZM89.64 0L89.59-41.5 93.62-41.85 93.62 0 89.64 0ZM124.84 0.1L124.26-3.25Q119.11 0.49 113.78 0.49L113.78 0.49Q107.9 0.49 105.95-3.83L105.95-3.83Q104.82-6.27 104.69-9 104.56-11.72 104.56-13.78 104.56-15.84 104.59-17.94 104.63-20.04 104.9-21.83 105.17-23.61 105.74-25.04 106.31-26.46 107.39-27.47L107.39-27.47Q109.61-29.54 114.72-29.54 119.84-29.54 123.96-27.76L123.96-27.76 123.96-41.55 128.02-41.94 128.02-13.35Q128.02-4.93 128.48-0.2L128.48-0.2 124.84 0.1ZM123.94-13.55L123.96-24.41Q119.57-25.88 115.47-25.88L115.47-25.88Q112.49-25.88 111.54-25.39 110.59-24.9 110.09-24.12 109.58-23.34 109.27-21.97L109.27-21.97Q108.71-19.41 108.71-13.53L108.71-13.53 108.71-12.99Q108.71-7.5 109.9-5.4L109.9-5.4Q111.2-3.17 114.71-3.17L114.71-3.17 115.08-3.17Q118.45-3.17 122.26-5.32L122.26-5.32Q123.31-5.91 124.06-6.49L124.06-6.49 124.06-6.54Q123.94-8.81 123.94-13.55L123.94-13.55ZM174.28-27.78L174.28-27.78Q174.28-20.26 168.59-19.51L168.59-19.51 168.59-19.43Q172.1-19.17 173.84-17.43L173.84-17.43Q175.84-15.38 175.84-11.49 175.84-7.59 174.95-5.44 174.06-3.3 172.47-2.1L172.47-2.1Q169.76 0 163.95 0L163.95 0 151.47 0 151.47-37.23Q158.24-37.87 162.63-37.87 167.03-37.87 169.08-37.19 171.13-36.52 172.28-35.25L172.28-35.25Q174.28-33.03 174.28-27.78ZM155.62-20.68L161.12-20.68Q166.03-20.68 167.93-22.07L167.93-22.07Q170.1-23.63 170.1-27.88L170.1-27.88 170.1-28.39Q170.1-31.67 168.66-33.06L168.66-33.06Q167.22-34.42 163.75-34.42L163.75-34.42Q160.85-34.42 158.82-34.3L158.82-34.3 155.62-34.11 155.62-20.68ZM155.62-3.47L164.46-3.47Q168.05-3.47 169.59-4.83L169.59-4.83Q171.52-6.57 171.52-11.04L171.52-11.04Q171.52-16.21 167.73-17.09L167.73-17.09Q166.59-17.36 165.24-17.36L165.24-17.36 155.62-17.36 155.62-3.47ZM183.6-14.45L183.6-14.45Q183.6-20 184.16-22.19 184.72-24.39 185.54-25.67 186.36-26.95 187.75-27.81L187.75-27.81Q190.53-29.54 195.98-29.54L195.98-29.54Q203.84-29.54 206.09-25.66L206.09-25.66Q207.43-23.32 207.62-19.04L207.62-19.04Q207.7-17.02 207.7-14.58 207.7-12.13 207.54-10.02 207.38-7.91 206.92-6.23 206.45-4.54 205.62-3.28 204.79-2.03 203.42-1.17L203.42-1.17Q200.74 0.49 195.59 0.49L195.59 0.49Q187.87 0.49 185.46-3.32L185.46-3.32Q183.97-5.69 183.72-9.96L183.72-9.96Q183.6-12.01 183.6-14.45ZM190.24-4.27Q191.12-3.61 192.45-3.28 193.78-2.95 196.09-2.95 198.4-2.95 199.97-3.61 201.55-4.27 202.34-5.73 203.13-7.18 203.34-9.5 203.55-11.82 203.55-14.89 203.55-17.97 203.36-20.02 203.18-22.07 202.45-23.41L202.45-23.41Q200.98-26.05 195.93-26.05L195.93-26.05Q190.58-26.05 188.97-23.41L188.97-23.41Q188.17-22.07 187.95-20 187.73-17.92 187.73-15.48 187.73-13.04 187.79-11.34 187.85-9.64 188.11-8.29 188.36-6.93 188.86-5.93 189.36-4.93 190.24-4.27ZM218.66 0L218.61-41.5 222.64-41.85 222.64 0 218.66 0ZM253.86 0.1L253.27-3.25Q248.12 0.49 242.8 0.49L242.8 0.49Q236.92 0.49 234.96-3.83L234.96-3.83Q233.84-6.27 233.71-9 233.57-11.72 233.57-13.78 233.57-15.84 233.61-17.94 233.64-20.04 233.91-21.83 234.18-23.61 234.76-25.04 235.33-26.46 236.4-27.47L236.4-27.47Q238.62-29.54 243.74-29.54 248.85-29.54 252.98-27.76L252.98-27.76 252.98-41.55 257.03-41.94 257.03-13.35Q257.03-4.93 257.5-0.2L257.5-0.2 253.86 0.1ZM252.96-13.55L252.98-24.41Q248.59-25.88 244.48-25.88L244.48-25.88Q241.51-25.88 240.55-25.39 239.6-24.9 239.1-24.12 238.6-23.34 238.28-21.97L238.28-21.97Q237.72-19.41 237.72-13.53L237.72-13.53 237.72-12.99Q237.72-7.5 238.92-5.4L238.92-5.4Q240.21-3.17 243.73-3.17L243.73-3.17 244.09-3.17Q247.46-3.17 251.27-5.32L251.27-5.32Q252.32-5.91 253.08-6.49L253.08-6.49 253.08-6.54Q252.96-8.81 252.96-13.55L252.96-13.55ZM268.63 0L268.58-41.5 272.61-41.85 272.61 0 268.63 0ZM282.64 10.21L283.74 7.03Q285.52 7.67 286.65 7.67 287.79 7.67 288.14 7.6 288.5 7.54 288.86 7.35L288.86 7.35Q289.72 6.88 290.13 5.83L290.13 5.83Q291.16 3.34 291.92 0.37L291.92 0.37 280.71-29.05 285.23-29.05 292.79-7.64 293.94-3.88 294.99-7.67 301.68-29.05 305.93-29.05 293.67 6.88Q292.33 11.08 287.47 11.08L287.47 11.08Q284.4 11.08 282.64 10.21L282.64 10.21Z"
                                                                opacity="1"
                                                                transform="matrix(1,0,0,1,0,0)"
                                                                fill="#ffffff" class="slogan-text-1"
                                                                data-fill-palette-color="secondary"
                                                                id="text-1"></path>
                                                        </svg>
                                                    </g>
                                                </svg>
                                            </g>
                                        </svg>
                                    </g>
                                </svg>
                            </g>
                        </svg>
                    </g>
                    <defs></defs>
                </svg>
                <rect width="395.52" height="194.03383284854243" fill="none" stroke="none" visibility="hidden"></rect>
            </g>
        </svg>
    </g>
</svg>