<svg xmlns="http://www.w3.org/2000/svg" viewBox="0 0 110.43 88.29"><defs><style>.cls-1{fill:#00529f;}.cls-2{fill:#0c296d;}</style></defs><title>Schenken</title><g id="Ebene_2" data-name="Ebene 2"><g id="Layer_1" data-name="Layer 1"><rect class="cls-1" x="1.5" y="16.65" width="28.23" height="3"/><rect class="cls-1" x="38.25" y="16.65" width="7.02" height="3"/><rect class="cls-1" x="51.68" y="16.65" width="57.25" height="3"/><path class="cls-2" d="M55.22,61.72A12.14,12.14,0,0,1,43.09,49.59V28.83a1.5,1.5,0,0,1,1.5-1.5H65.84a1.5,1.5,0,0,1,1.5,1.5V49.59A12.14,12.14,0,0,1,55.22,61.72ZM46.09,30.33V49.59a9.13,9.13,0,1,0,18.25,0V30.33Z"/><path class="cls-2" d="M108.93,88.29H1.5A1.5,1.5,0,0,1,0,86.79v-52a1.5,1.5,0,0,1,1.5-1.5H44.59a1.5,1.5,0,0,1,1.5,1.5v14.8a9.13,9.13,0,1,0,18.25,0V34.79a1.5,1.5,0,0,1,1.5-1.5h43.09a1.5,1.5,0,0,1,1.5,1.5v52A1.5,1.5,0,0,1,108.93,88.29ZM3,85.29H107.43v-49H67.34v13.3a12.13,12.13,0,1,1-24.25,0V36.29H3Z"/><path class="cls-2" d="M108.93,36.29H65.84a1.5,1.5,0,0,1-1.5-1.5V30.33H46.09v4.46a1.5,1.5,0,0,1-1.5,1.5H1.5A1.5,1.5,0,0,1,0,34.79V22.94C0,8.15,10.66,0,30,0H80.43c19.35,0,30,8.15,30,22.94V34.79A1.5,1.5,0,0,1,108.93,36.29Zm-41.59-3h40.09V22.94c0-9.1-4.68-19.94-27-19.94H30C7.68,3,3,13.84,3,22.94V33.29H43.09V28.83a1.5,1.5,0,0,1,1.5-1.5H65.84a1.5,1.5,0,0,1,1.5,1.5Z"/><path class="cls-1" d="M99,78.39H11.39a1.5,1.5,0,0,1-1.5-1.5V44.69a1.5,1.5,0,0,1,1.5-1.5H39.27v3H12.89v29.2H97.54V46.19H71.61v-3H99a1.5,1.5,0,0,1,1.5,1.5v32.2A1.5,1.5,0,0,1,99,78.39Z"/><rect class="cls-2" x="53.72" y="43.38" width="3" height="4.84"/></g></g></svg>