<svg width="1200" height="600" viewBox="0 0 1200 600" xmlns="http://www.w3.org/2000/svg">
            <rect width="1200" height="600" fill="#0f172a"/><rect x="150" y="239.51334634057275" width="60" height="110.48665365942725" fill="#38bdf8" opacity="0.6"/>
                    <rect x="170" y="219.51334634057275" width="60" height="110.48665365942725" fill="#818cf8" opacity="0.4" transform="skewY(-20)"/><rect x="270" y="207.1395430893972" width="60" height="142.8604569106028" fill="#38bdf8" opacity="0.6"/>
                    <rect x="290" y="187.1395430893972" width="60" height="142.8604569106028" fill="#818cf8" opacity="0.4" transform="skewY(-20)"/><rect x="390" y="243.06919276314147" width="60" height="106.93080723685853" fill="#38bdf8" opacity="0.6"/>
                    <rect x="410" y="223.06919276314147" width="60" height="106.93080723685853" fill="#818cf8" opacity="0.4" transform="skewY(-20)"/><rect x="510" y="204.01329522937885" width="60" height="145.98670477062115" fill="#38bdf8" opacity="0.6"/>
                    <rect x="530" y="184.01329522937885" width="60" height="145.98670477062115" fill="#818cf8" opacity="0.4" transform="skewY(-20)"/><rect x="630" y="137.40312915069808" width="60" height="212.59687084930192" fill="#38bdf8" opacity="0.6"/>
                    <rect x="650" y="117.40312915069808" width="60" height="212.59687084930192" fill="#818cf8" opacity="0.4" transform="skewY(-20)"/><rect x="750" y="101.24357431268436" width="60" height="248.75642568731564" fill="#38bdf8" opacity="0.6"/>
                    <rect x="770" y="81.24357431268436" width="60" height="248.75642568731564" fill="#818cf8" opacity="0.4" transform="skewY(-20)"/><rect x="870" y="219.52646436282066" width="60" height="130.47353563717934" fill="#38bdf8" opacity="0.6"/>
                    <rect x="890" y="199.52646436282066" width="60" height="130.47353563717934" fill="#818cf8" opacity="0.4" transform="skewY(-20)"/><rect x="990" y="285.64604029124894" width="60" height="64.35395970875106" fill="#38bdf8" opacity="0.6"/>
                    <rect x="1010" y="265.64604029124894" width="60" height="64.35395970875106" fill="#818cf8" opacity="0.4" transform="skewY(-20)"/>
            <text x="600" y="520" font-family="Segoe UI, Arial, sans-serif" font-size="38" font-weight="800" fill="#ffffff" text-anchor="middle">Can AI Replace Web Designers? The Truth About AI-Generate...</text>
            <text x="600" y="560" font-family="Segoe UI, Arial, sans-serif" font-size="16" font-weight="600" fill="#38bdf8" text-anchor="middle" style="letter-spacing: 4px; text-transform: uppercase;">UI UX Powerhouse • Specialized Series</text>
        </svg>