<svg width="1200" height="600" viewBox="0 0 1200 600" xmlns="http://www.w3.org/2000/svg">
            <rect width="1200" height="600" fill="#0f172a"/><path d="M 513.1501088493678 105.27075160971435 L 465.0729715312991 155.27075160971435 L 476.6214816343563 205.27075160971435" stroke="#38bdf8" fill="none" opacity="0.4"/>
                    <circle cx="513.1501088493678" cy="105.27075160971435" r="3" fill="#f472b6"/><path d="M 929.9787957676017 361.5704288808047 L 891.0254348193121 411.5704288808047 L 894.0019920398299 461.5704288808047" stroke="#38bdf8" fill="none" opacity="0.4"/>
                    <circle cx="929.9787957676017" cy="361.5704288808047" r="3" fill="#f472b6"/><path d="M 7.758623299741885 357.6168698600668 L 12.970761196993408 407.6168698600668 L -11.211777992411953 457.6168698600668" stroke="#38bdf8" fill="none" opacity="0.4"/>
                    <circle cx="7.758623299741885" cy="357.6168698600668" r="3" fill="#f472b6"/><path d="M 1108.257519960307 70.65521229014848 L 1076.0817112955465 120.65521229014848 L 1118.4294212212535 170.65521229014848" stroke="#38bdf8" fill="none" opacity="0.4"/>
                    <circle cx="1108.257519960307" cy="70.65521229014848" r="3" fill="#f472b6"/><path d="M 715.0725916006195 234.49177005259116 L 752.8848789197582 284.49177005259116 L 711.0467758543564 334.49177005259116" stroke="#38bdf8" fill="none" opacity="0.4"/>
                    <circle cx="715.0725916006195" cy="234.49177005259116" r="3" fill="#f472b6"/><path d="M 932.3818074284645 258.4415877938227 L 974.7345957512152 308.4415877938227 L 956.0771732381454 358.4415877938227" stroke="#38bdf8" fill="none" opacity="0.4"/>
                    <circle cx="932.3818074284645" cy="258.4415877938227" r="3" fill="#f472b6"/><path d="M 349.0046745439031 279.81636834442725 L 315.16176992390683 329.81636834442725 L 314.9172219524189 379.81636834442725" stroke="#38bdf8" fill="none" opacity="0.4"/>
                    <circle cx="349.0046745439031" cy="279.81636834442725" r="3" fill="#f472b6"/><path d="M 244.5800739380502 122.20792938096565 L 250.80747984125082 172.20792938096565 L 229.18127421344252 222.20792938096565" stroke="#38bdf8" fill="none" opacity="0.4"/>
                    <circle cx="244.5800739380502" cy="122.20792938096565" r="3" fill="#f472b6"/><path d="M 269.4861742158537 140.0164392242914 L 222.17899230054172 190.0164392242914 L 261.2237122476472 240.0164392242914" stroke="#38bdf8" fill="none" opacity="0.4"/>
                    <circle cx="269.4861742158537" cy="140.0164392242914" r="3" fill="#f472b6"/><path d="M 1154.9748656198062 214.2681293316855 L 1134.309542507026 264.2681293316855 L 1129.5918002410872 314.2681293316855" stroke="#38bdf8" fill="none" opacity="0.4"/>
                    <circle cx="1154.9748656198062" cy="214.2681293316855" r="3" fill="#f472b6"/>
            <text x="600" y="520" font-family="Segoe UI, Arial, sans-serif" font-size="38" font-weight="800" fill="#ffffff" text-anchor="middle">Augmented Feedback: Integrating AI-Driven Microinteractio...</text>
            <text x="600" y="560" font-family="Segoe UI, Arial, sans-serif" font-size="16" font-weight="600" fill="#38bdf8" text-anchor="middle" style="letter-spacing: 4px; text-transform: uppercase;">UI UX Powerhouse • Specialized Series</text>
        </svg>