<svg width="1200" height="600" viewBox="0 0 1200 600" xmlns="http://www.w3.org/2000/svg">
            <rect width="1200" height="600" fill="#1e1b4b"/><path d="M 760.3641491943563 79.73412346873374 L 722.0003501860447 129.73412346873374 L 761.402226750397 179.73412346873374" stroke="#f43f5e" fill="none" opacity="0.4"/>
                    <circle cx="760.3641491943563" cy="79.73412346873374" r="3" fill="#22d3ee"/><path d="M 950.7112807739759 244.64502554146748 L 909.2873278296793 294.6450255414675 L 923.3138724084711 344.6450255414675" stroke="#f43f5e" fill="none" opacity="0.4"/>
                    <circle cx="950.7112807739759" cy="244.64502554146748" r="3" fill="#22d3ee"/><path d="M 753.4858476308727 363.58364911793615 L 781.466077479854 413.58364911793615 L 795.2559143624967 463.58364911793615" stroke="#f43f5e" fill="none" opacity="0.4"/>
                    <circle cx="753.4858476308727" cy="363.58364911793615" r="3" fill="#22d3ee"/><path d="M 223.98254970030393 357.70330339901193 L 207.45909806707914 407.70330339901193 L 272.3424521018387 457.70330339901193" stroke="#f43f5e" fill="none" opacity="0.4"/>
                    <circle cx="223.98254970030393" cy="357.70330339901193" r="3" fill="#22d3ee"/><path d="M 464.24296113546006 42.76491849923332 L 457.0013685279264 92.76491849923332 L 502.6655236167244 142.76491849923332" stroke="#f43f5e" fill="none" opacity="0.4"/>
                    <circle cx="464.24296113546006" cy="42.76491849923332" r="3" fill="#22d3ee"/><path d="M 122.90402232247288 220.26002935162978 L 153.34182024489564 270.2600293516298 L 108.37379680851882 320.2600293516298" stroke="#f43f5e" fill="none" opacity="0.4"/>
                    <circle cx="122.90402232247288" cy="220.26002935162978" r="3" fill="#22d3ee"/><path d="M 498.70182128288434 298.93181466759415 L 534.2771286145307 348.93181466759415 L 510.12492245799876 398.93181466759415" stroke="#f43f5e" fill="none" opacity="0.4"/>
                    <circle cx="498.70182128288434" cy="298.93181466759415" r="3" fill="#22d3ee"/><path d="M 763.670073193498 197.4535045891571 L 752.9520809393944 247.4535045891571 L 738.2654518866275 297.4535045891571" stroke="#f43f5e" fill="none" opacity="0.4"/>
                    <circle cx="763.670073193498" cy="197.4535045891571" r="3" fill="#22d3ee"/><path d="M 532.230887725018 314.0832148015761 L 522.334815468821 364.0832148015761 L 580.0247926696727 414.0832148015761" stroke="#f43f5e" fill="none" opacity="0.4"/>
                    <circle cx="532.230887725018" cy="314.0832148015761" r="3" fill="#22d3ee"/><path d="M 1040.0108966074185 107.34791084832978 L 1034.9478018024001 157.34791084832978 L 1066.3541086202429 207.34791084832978" stroke="#f43f5e" fill="none" opacity="0.4"/>
                    <circle cx="1040.0108966074185" cy="107.34791084832978" r="3" fill="#22d3ee"/>
            <text x="600" y="520" font-family="Segoe UI, Arial, sans-serif" font-size="38" font-weight="800" fill="#ffffff" text-anchor="middle">Augmented Empathy: Harnessing AI to Create Emotionally Ad...</text>
            <text x="600" y="560" font-family="Segoe UI, Arial, sans-serif" font-size="16" font-weight="600" fill="#f43f5e" text-anchor="middle" style="letter-spacing: 4px; text-transform: uppercase;">UI UX Powerhouse • Specialized Series</text>
        </svg>