<svg width="1200" height="600" viewBox="0 0 1200 600" xmlns="http://www.w3.org/2000/svg">
            <rect width="1200" height="600" fill="#111827"/><rect x="150" y="263.46194941779686" width="60" height="86.53805058220314" fill="#10b981" opacity="0.6"/>
                    <rect x="170" y="243.46194941779686" width="60" height="86.53805058220314" fill="#34d399" opacity="0.4" transform="skewY(-20)"/><rect x="270" y="111.56432950192539" width="60" height="238.43567049807461" fill="#10b981" opacity="0.6"/>
                    <rect x="290" y="91.56432950192539" width="60" height="238.43567049807461" fill="#34d399" opacity="0.4" transform="skewY(-20)"/><rect x="390" y="161.06673538433824" width="60" height="188.93326461566176" fill="#10b981" opacity="0.6"/>
                    <rect x="410" y="141.06673538433824" width="60" height="188.93326461566176" fill="#34d399" opacity="0.4" transform="skewY(-20)"/><rect x="510" y="107.2169866258264" width="60" height="242.7830133741736" fill="#10b981" opacity="0.6"/>
                    <rect x="530" y="87.2169866258264" width="60" height="242.7830133741736" fill="#34d399" opacity="0.4" transform="skewY(-20)"/><rect x="630" y="244.93043169395605" width="60" height="105.06956830604395" fill="#10b981" opacity="0.6"/>
                    <rect x="650" y="224.93043169395605" width="60" height="105.06956830604395" fill="#34d399" opacity="0.4" transform="skewY(-20)"/><rect x="750" y="257.58736064460663" width="60" height="92.41263935539337" fill="#10b981" opacity="0.6"/>
                    <rect x="770" y="237.58736064460663" width="60" height="92.41263935539337" fill="#34d399" opacity="0.4" transform="skewY(-20)"/><rect x="870" y="283.5112049477175" width="60" height="66.48879505228251" fill="#10b981" opacity="0.6"/>
                    <rect x="890" y="263.5112049477175" width="60" height="66.48879505228251" fill="#34d399" opacity="0.4" transform="skewY(-20)"/><rect x="990" y="186.22317774461408" width="60" height="163.77682225538592" fill="#10b981" opacity="0.6"/>
                    <rect x="1010" y="166.22317774461408" width="60" height="163.77682225538592" fill="#34d399" opacity="0.4" transform="skewY(-20)"/>
            <text x="600" y="520" font-family="Segoe UI, Arial, sans-serif" font-size="38" font-weight="800" fill="#ffffff" text-anchor="middle">Beyond Aesthetics: How AI-Powered Personalization is Revo...</text>
            <text x="600" y="560" font-family="Segoe UI, Arial, sans-serif" font-size="16" font-weight="600" fill="#10b981" text-anchor="middle" style="letter-spacing: 4px; text-transform: uppercase;">UI UX Powerhouse • Specialized Series</text>
        </svg>