<svg width="1200" height="600" viewBox="0 0 1200 600" xmlns="http://www.w3.org/2000/svg">
            <rect width="1200" height="600" fill="#0c4a6e"/><rect x="150" y="296.4857139188098" width="60" height="53.51428608119022" fill="#7dd3fc" opacity="0.6"/>
                    <rect x="170" y="276.4857139188098" width="60" height="53.51428608119022" fill="#38bdf8" opacity="0.4" transform="skewY(-20)"/><rect x="270" y="147.4813669683499" width="60" height="202.5186330316501" fill="#7dd3fc" opacity="0.6"/>
                    <rect x="290" y="127.4813669683499" width="60" height="202.5186330316501" fill="#38bdf8" opacity="0.4" transform="skewY(-20)"/><rect x="390" y="188.52958379939082" width="60" height="161.47041620060918" fill="#7dd3fc" opacity="0.6"/>
                    <rect x="410" y="168.52958379939082" width="60" height="161.47041620060918" fill="#38bdf8" opacity="0.4" transform="skewY(-20)"/><rect x="510" y="123.32749853921996" width="60" height="226.67250146078004" fill="#7dd3fc" opacity="0.6"/>
                    <rect x="530" y="103.32749853921996" width="60" height="226.67250146078004" fill="#38bdf8" opacity="0.4" transform="skewY(-20)"/><rect x="630" y="129.39735146828752" width="60" height="220.60264853171248" fill="#7dd3fc" opacity="0.6"/>
                    <rect x="650" y="109.39735146828752" width="60" height="220.60264853171248" fill="#38bdf8" opacity="0.4" transform="skewY(-20)"/><rect x="750" y="236.18593069227245" width="60" height="113.81406930772755" fill="#7dd3fc" opacity="0.6"/>
                    <rect x="770" y="216.18593069227245" width="60" height="113.81406930772755" fill="#38bdf8" opacity="0.4" transform="skewY(-20)"/><rect x="870" y="193.28585468392703" width="60" height="156.71414531607297" fill="#7dd3fc" opacity="0.6"/>
                    <rect x="890" y="173.28585468392703" width="60" height="156.71414531607297" fill="#38bdf8" opacity="0.4" transform="skewY(-20)"/><rect x="990" y="158.75478669968288" width="60" height="191.24521330031712" fill="#7dd3fc" opacity="0.6"/>
                    <rect x="1010" y="138.75478669968288" width="60" height="191.24521330031712" fill="#38bdf8" opacity="0.4" transform="skewY(-20)"/>
            <text x="600" y="520" font-family="Segoe UI, Arial, sans-serif" font-size="38" font-weight="800" fill="#ffffff" text-anchor="middle">The Role of AI in Cybersecurity: Protecting Data and Syst...</text>
            <text x="600" y="560" font-family="Segoe UI, Arial, sans-serif" font-size="16" font-weight="600" fill="#7dd3fc" text-anchor="middle" style="letter-spacing: 4px; text-transform: uppercase;">UI UX Powerhouse • Specialized Series</text>
        </svg>