<svg width="1200" height="600" viewBox="0 0 1200 600" xmlns="http://www.w3.org/2000/svg">
            <rect width="1200" height="600" fill="#111827"/><circle cx="333.0947055852448" cy="116.03862829688296" r="21.04537410134526" fill="#10b981" opacity="0.1"/><circle cx="804.703450051602" cy="289.40512627523276" r="35.4128000162018" fill="#10b981" opacity="0.1"/><circle cx="794.8638363624013" cy="57.70606559308362" r="28.16154347592601" fill="#10b981" opacity="0.1"/><circle cx="836.2185258571117" cy="140.41152585959935" r="39.97391782959312" fill="#10b981" opacity="0.1"/><circle cx="779.8469329536601" cy="363.6386988553568" r="16.060406441356463" fill="#10b981" opacity="0.1"/><circle cx="326.10989637362877" cy="87.05819959141081" r="27.415924635242845" fill="#10b981" opacity="0.1"/><circle cx="275.60231665593165" cy="354.90039322176017" r="36.692309220197785" fill="#10b981" opacity="0.1"/><circle cx="465.90055151173146" cy="140.05047219179687" r="44.141040797767346" fill="#10b981" opacity="0.1"/><circle cx="447.7842261603655" cy="275.0212352395465" r="15.014021823244548" fill="#10b981" opacity="0.1"/><circle cx="136.86463259509765" cy="87.41233201885734" r="18.359279255928413" fill="#10b981" opacity="0.1"/><circle cx="1048.6735414364375" cy="392.21894889124087" r="32.45274333608904" fill="#10b981" opacity="0.1"/><circle cx="533.3337991756252" cy="208.34354584658286" r="32.49704528338043" fill="#10b981" opacity="0.1"/><circle cx="971.6144887388509" cy="85.36124295678746" r="35.050454082957" fill="#10b981" opacity="0.1"/><circle cx="421.9107566521416" cy="325.5848244931258" r="30.551318335783435" fill="#10b981" opacity="0.1"/><circle cx="241.57127384387422" cy="160.38199661998078" r="10.748033644922543" fill="#10b981" opacity="0.1"/><circle cx="371.42743717267876" cy="210.83801365966792" r="37.55684854775609" fill="#10b981" opacity="0.1"/><circle cx="119.50533088529482" cy="188.19304526477936" r="45.9143329219296" fill="#10b981" opacity="0.1"/><circle cx="645.1129614601086" cy="315.99687990201346" r="10.266952151305304" fill="#10b981" opacity="0.1"/><circle cx="767.6612756382383" cy="136.59639734578377" r="33.724599954730365" fill="#10b981" opacity="0.1"/><circle cx="644.0690905055817" cy="319.4842781438638" r="27.071171398783918" fill="#10b981" opacity="0.1"/><circle cx="1082.348331277717" cy="309.71940132658347" r="26.52895702776732" fill="#10b981" opacity="0.1"/><circle cx="221.28651448947494" cy="152.06733467493905" r="49.79631219954172" fill="#10b981" opacity="0.1"/><circle cx="134.34336536574847" cy="211.49806829853333" r="32.99958355870331" fill="#10b981" opacity="0.1"/><circle cx="505.176528346783" cy="42.51078475645045" r="12.54290356693673" fill="#10b981" opacity="0.1"/><circle cx="48.82753952661005" cy="281.71092631546344" r="35.40849442605577" fill="#10b981" opacity="0.1"/><circle cx="630.8273613212805" cy="301.3693171869818" r="38.668876663145966" fill="#10b981" opacity="0.1"/><circle cx="34.95500328572234" cy="97.56123938568635" r="15.411299793049693" fill="#10b981" opacity="0.1"/><circle cx="291.0750917661062" cy="321.3529914530227" r="19.80822163488483" fill="#10b981" opacity="0.1"/><circle cx="967.9344377713278" cy="209.42151048075175" r="30.343988873064518" fill="#10b981" opacity="0.1"/><circle cx="782.5184500696196" cy="188.81279908091528" r="47.41916675680841" fill="#10b981" opacity="0.1"/>
            <text x="600" y="520" font-family="Segoe UI, Arial, sans-serif" font-size="38" font-weight="800" fill="#ffffff" text-anchor="middle">Building Adaptive Data Visualization Dashboards: Implemen...</text>
            <text x="600" y="560" font-family="Segoe UI, Arial, sans-serif" font-size="16" font-weight="600" fill="#10b981" text-anchor="middle" style="letter-spacing: 4px; text-transform: uppercase;">UI UX Powerhouse • Specialized Series</text>
        </svg>