<svg width="1200" height="600" viewBox="0 0 1200 600" xmlns="http://www.w3.org/2000/svg">
        <rect width="1200" height="600" fill="#171717"/><circle cx="1122.8470783993544" cy="27.079440777470154" r="10.235794811596861" fill="#f59e0b" opacity="0.1"/><circle cx="194.25992124379263" cy="347.4342538458586" r="49.795211422024295" fill="#f59e0b" opacity="0.1"/><circle cx="470.2309293037615" cy="83.61226197957876" r="12.854665092818323" fill="#f59e0b" opacity="0.1"/><circle cx="1170.9366761202546" cy="281.14583134738496" r="12.87469090995728" fill="#f59e0b" opacity="0.1"/><circle cx="758.0566720374918" cy="270.3219809838629" r="17.765806875504495" fill="#f59e0b" opacity="0.1"/><circle cx="977.1779792019515" cy="169.8543521873944" r="19.56762849840743" fill="#f59e0b" opacity="0.1"/><circle cx="36.99740130978171" cy="8.602091683354729" r="10.687207556329668" fill="#f59e0b" opacity="0.1"/><circle cx="99.71204752509948" cy="284.154445555032" r="30.536451266343647" fill="#f59e0b" opacity="0.1"/><circle cx="794.185010795627" cy="330.1070034309305" r="25.330051229757373" fill="#f59e0b" opacity="0.1"/><circle cx="860.4457547754464" cy="14.17127548593271" r="37.893988907235325" fill="#f59e0b" opacity="0.1"/><circle cx="1039.2110863296693" cy="282.9168043528625" r="11.97833045029256" fill="#f59e0b" opacity="0.1"/><circle cx="1170.8770332159474" cy="71.52180912089534" r="47.36431236149656" fill="#f59e0b" opacity="0.1"/><circle cx="1156.0338075429172" cy="100.50766607382684" r="13.894475997403788" fill="#f59e0b" opacity="0.1"/><circle cx="490.2429650479462" cy="106.11546437066863" r="27.842887680380954" fill="#f59e0b" opacity="0.1"/><circle cx="128.19397920548" cy="386.6585483017843" r="11.444047997065354" fill="#f59e0b" opacity="0.1"/><circle cx="287.92507144262345" cy="6.194507852342213" r="26.10787231758877" fill="#f59e0b" opacity="0.1"/><circle cx="820.8386314072413" cy="350.74834393935816" r="32.82231477358437" fill="#f59e0b" opacity="0.1"/><circle cx="336.7631829496531" cy="275.48089482961586" r="15.279544941868153" fill="#f59e0b" opacity="0.1"/><circle cx="165.66717462264933" cy="150.42659239129534" r="35.249617384215526" fill="#f59e0b" opacity="0.1"/><circle cx="902.483288052008" cy="164.38278336318035" r="45.01061613613274" fill="#f59e0b" opacity="0.1"/><circle cx="677.7999898637063" cy="14.91661181426025" r="13.482863903545876" fill="#f59e0b" opacity="0.1"/><circle cx="1104.714140813303" cy="3.6266650658944855" r="28.681174120247306" fill="#f59e0b" opacity="0.1"/><circle cx="1080.7590961179812" cy="360.3598862893705" r="42.47983322755317" fill="#f59e0b" opacity="0.1"/><circle cx="104.37533996173443" cy="45.93901949119754" r="36.04081185738323" fill="#f59e0b" opacity="0.1"/><circle cx="553.5121987548337" cy="169.16715491252035" r="39.37575416499385" fill="#f59e0b" opacity="0.1"/><circle cx="666.5208497472122" cy="235.72786900858773" r="39.770457216345676" fill="#f59e0b" opacity="0.1"/><circle cx="790.882624133701" cy="145.94705050767516" r="38.70617453845625" fill="#f59e0b" opacity="0.1"/><circle cx="564.2076735661249" cy="25.94042462806101" r="10.765692401328124" fill="#f59e0b" opacity="0.1"/><circle cx="396.6911133245958" cy="325.59334562320146" r="10.344018100659014" fill="#f59e0b" opacity="0.1"/><circle cx="1180.650568013516" cy="143.21814680515672" r="17.622541429082048" fill="#f59e0b" opacity="0.1"/>
        <text x="600" y="520" font-family="Segoe UI, Arial, sans-serif" font-size="38" font-weight="800" fill="#ffffff" text-anchor="middle">Building Accessible Data Visualizations: Implementing ARI...</text>
        <text x="600" y="560" font-family="Segoe UI, Arial, sans-serif" font-size="16" font-weight="600" fill="#f59e0b" text-anchor="middle" style="letter-spacing: 4px; text-transform: uppercase;">UI UX Powerhouse • Specialized Series</text>
    </svg>