<svg width="1200" height="600" viewBox="0 0 1200 600" xmlns="http://www.w3.org/2000/svg">
        <rect width="1200" height="600" fill="#1e1b4b"/><path d="M 931.7483792427083 266.10401301732054 L 912.0088326407313 316.10401301732054 L 959.1097677373909 366.10401301732054" stroke="#f43f5e" fill="none" opacity="0.4"/>
                    <circle cx="931.7483792427083" cy="266.10401301732054" r="3" fill="#22d3ee"/><path d="M 566.5834606764292 251.94386397815833 L 521.0884501695546 301.94386397815833 L 586.109864536138 351.94386397815833" stroke="#f43f5e" fill="none" opacity="0.4"/>
                    <circle cx="566.5834606764292" cy="251.94386397815833" r="3" fill="#22d3ee"/><path d="M 992.5338559958618 345.23868667529314 L 1025.0210282891203 395.23868667529314 L 994.6255721495618 445.23868667529314" stroke="#f43f5e" fill="none" opacity="0.4"/>
                    <circle cx="992.5338559958618" cy="345.23868667529314" r="3" fill="#22d3ee"/><path d="M 1077.3041774843875 281.6447661134589 L 1113.2709245837248 331.6447661134589 L 1029.8293951996527 381.6447661134589" stroke="#f43f5e" fill="none" opacity="0.4"/>
                    <circle cx="1077.3041774843875" cy="281.6447661134589" r="3" fill="#22d3ee"/><path d="M 552.1695481824281 213.5857144545298 L 525.3464065952812 263.5857144545298 L 588.2780208390614 313.5857144545298" stroke="#f43f5e" fill="none" opacity="0.4"/>
                    <circle cx="552.1695481824281" cy="213.5857144545298" r="3" fill="#22d3ee"/><path d="M 653.4687166691583 188.48161197893205 L 617.5954739317831 238.48161197893205 L 699.4644864515976 288.48161197893205" stroke="#f43f5e" fill="none" opacity="0.4"/>
                    <circle cx="653.4687166691583" cy="188.48161197893205" r="3" fill="#22d3ee"/><path d="M 698.5208837293612 351.9321654417581 L 667.8955399886036 401.9321654417581 L 736.7119654454655 451.9321654417581" stroke="#f43f5e" fill="none" opacity="0.4"/>
                    <circle cx="698.5208837293612" cy="351.9321654417581" r="3" fill="#22d3ee"/><path d="M 388.2682489218496 382.76727835982456 L 397.44962335098535 432.76727835982456 L 355.4210722944845 482.76727835982456" stroke="#f43f5e" fill="none" opacity="0.4"/>
                    <circle cx="388.2682489218496" cy="382.76727835982456" r="3" fill="#22d3ee"/><path d="M 458.7627129145403 293.4575865016086 L 469.2287186665908 343.4575865016086 L 497.43264802255 393.4575865016086" stroke="#f43f5e" fill="none" opacity="0.4"/>
                    <circle cx="458.7627129145403" cy="293.4575865016086" r="3" fill="#22d3ee"/><path d="M 378.7044858763693 99.04013462473813 L 332.2713126521194 149.04013462473813 L 341.2838170002942 199.04013462473813" stroke="#f43f5e" fill="none" opacity="0.4"/>
                    <circle cx="378.7044858763693" cy="99.04013462473813" r="3" fill="#22d3ee"/>
        <text x="600" y="520" font-family="Segoe UI, Arial, sans-serif" font-size="38" font-weight="800" fill="#ffffff" text-anchor="middle">Building Seamless Multi-User Collaborative Features in Re...</text>
        <text x="600" y="560" font-family="Segoe UI, Arial, sans-serif" font-size="16" font-weight="600" fill="#f43f5e" text-anchor="middle" style="letter-spacing: 4px; text-transform: uppercase;">UI UX Powerhouse • Specialized Series</text>
    </svg>