<svg width="1200" height="600" viewBox="0 0 1200 600" xmlns="http://www.w3.org/2000/svg">
            <rect width="1200" height="600" fill="#0c4a6e"/><path d="M 496.04731779327267 235.0074322304863 L 497.9132759781123 285.0074322304863 L 519.1752947716168 335.0074322304863" stroke="#7dd3fc" fill="none" opacity="0.4"/>
                    <circle cx="496.04731779327267" cy="235.0074322304863" r="3" fill="#f43f5e"/><path d="M 144.4090387005417 166.47179960273206 L 97.28241352404439 216.47179960273206 L 101.61145763659079 266.47179960273206" stroke="#7dd3fc" fill="none" opacity="0.4"/>
                    <circle cx="144.4090387005417" cy="166.47179960273206" r="3" fill="#f43f5e"/><path d="M 1014.0835340855119 21.644138503870636 L 1005.2630977051194 71.64413850387064 L 1000.2766341662209 121.64413850387064" stroke="#7dd3fc" fill="none" opacity="0.4"/>
                    <circle cx="1014.0835340855119" cy="21.644138503870636" r="3" fill="#f43f5e"/><path d="M 400.7259283313033 15.648354803124676 L 366.05200821795734 65.64835480312468 L 405.5649622137935 115.64835480312468" stroke="#7dd3fc" fill="none" opacity="0.4"/>
                    <circle cx="400.7259283313033" cy="15.648354803124676" r="3" fill="#f43f5e"/><path d="M 711.0594805395522 332.5519586032897 L 661.2224643785339 382.5519586032897 L 697.8435516852187 432.5519586032897" stroke="#7dd3fc" fill="none" opacity="0.4"/>
                    <circle cx="711.0594805395522" cy="332.5519586032897" r="3" fill="#f43f5e"/><path d="M 309.90073337816284 394.0153409639606 L 293.44907609684014 444.0153409639606 L 355.3492981483032 494.0153409639606" stroke="#7dd3fc" fill="none" opacity="0.4"/>
                    <circle cx="309.90073337816284" cy="394.0153409639606" r="3" fill="#f43f5e"/><path d="M 903.880511177158 311.8561143295665 L 892.8047118690301 361.8561143295665 L 908.5288356747697 411.8561143295665" stroke="#7dd3fc" fill="none" opacity="0.4"/>
                    <circle cx="903.880511177158" cy="311.8561143295665" r="3" fill="#f43f5e"/><path d="M 1066.7455450900889 132.26050513767404 L 1018.7131453772963 182.26050513767404 L 1101.62462414919 232.26050513767404" stroke="#7dd3fc" fill="none" opacity="0.4"/>
                    <circle cx="1066.7455450900889" cy="132.26050513767404" r="3" fill="#f43f5e"/><path d="M 378.99059284463874 383.54420373607354 L 411.3674745742628 433.54420373607354 L 373.7142533282167 483.54420373607354" stroke="#7dd3fc" fill="none" opacity="0.4"/>
                    <circle cx="378.99059284463874" cy="383.54420373607354" r="3" fill="#f43f5e"/><path d="M 609.0971604836568 75.72999452340525 L 639.2790758857018 125.72999452340525 L 569.7193551395003 175.72999452340525" stroke="#7dd3fc" fill="none" opacity="0.4"/>
                    <circle cx="609.0971604836568" cy="75.72999452340525" r="3" fill="#f43f5e"/>
            <text x="600" y="520" font-family="Segoe UI, Arial, sans-serif" font-size="38" font-weight="800" fill="#ffffff" text-anchor="middle">Building Accessible Data Visualization Dashboards: Advanc...</text>
            <text x="600" y="560" font-family="Segoe UI, Arial, sans-serif" font-size="16" font-weight="600" fill="#7dd3fc" text-anchor="middle" style="letter-spacing: 4px; text-transform: uppercase;">UI UX Powerhouse • Specialized Series</text>
        </svg>