<svg width="1200" height="600" viewBox="0 0 1200 600" xmlns="http://www.w3.org/2000/svg">
        <rect width="1200" height="600" fill="#2e1065"/><path d="M 958.92058017198 175.32684099351172 L 974.2825887384242 225.32684099351172 L 966.7055463452925 275.3268409935117" stroke="#d8b4fe" fill="none" opacity="0.4"/>
                    <circle cx="958.92058017198" cy="175.32684099351172" r="3" fill="#4ade80"/><path d="M 203.57429687865078 104.74125927430578 L 173.48384530778276 154.74125927430578 L 178.34179041510652 204.74125927430578" stroke="#d8b4fe" fill="none" opacity="0.4"/>
                    <circle cx="203.57429687865078" cy="104.74125927430578" r="3" fill="#4ade80"/><path d="M 326.5223233043798 303.4374607444988 L 314.00699063087814 353.4374607444988 L 310.289390638809 403.4374607444988" stroke="#d8b4fe" fill="none" opacity="0.4"/>
                    <circle cx="326.5223233043798" cy="303.4374607444988" r="3" fill="#4ade80"/><path d="M 885.1132298314042 99.09930201392854 L 839.2742751724256 149.09930201392854 L 854.3493128995578 199.09930201392854" stroke="#d8b4fe" fill="none" opacity="0.4"/>
                    <circle cx="885.1132298314042" cy="99.09930201392854" r="3" fill="#4ade80"/><path d="M 995.7174019145896 311.86326309143624 L 997.6453614381171 361.86326309143624 L 1032.88254818126 411.86326309143624" stroke="#d8b4fe" fill="none" opacity="0.4"/>
                    <circle cx="995.7174019145896" cy="311.86326309143624" r="3" fill="#4ade80"/><path d="M 618.5605035909248 118.38430514908396 L 578.5516014129826 168.38430514908396 L 657.2825362621188 218.38430514908396" stroke="#d8b4fe" fill="none" opacity="0.4"/>
                    <circle cx="618.5605035909248" cy="118.38430514908396" r="3" fill="#4ade80"/><path d="M 72.22908156363701 249.19057883744244 L 47.29264387281091 299.19057883744244 L 67.75139737164864 349.19057883744244" stroke="#d8b4fe" fill="none" opacity="0.4"/>
                    <circle cx="72.22908156363701" cy="249.19057883744244" r="3" fill="#4ade80"/><path d="M 125.18806891457643 98.55092313570708 L 136.66033402278117 148.55092313570708 L 165.51639772558246 198.55092313570708" stroke="#d8b4fe" fill="none" opacity="0.4"/>
                    <circle cx="125.18806891457643" cy="98.55092313570708" r="3" fill="#4ade80"/><path d="M 922.6782222824113 355.3115653085115 L 918.265217830708 405.3115653085115 L 934.0994197450527 455.3115653085115" stroke="#d8b4fe" fill="none" opacity="0.4"/>
                    <circle cx="922.6782222824113" cy="355.3115653085115" r="3" fill="#4ade80"/><path d="M 794.6817944952272 336.4325645608915 L 755.1716031998694 386.4325645608915 L 805.7340201870375 436.4325645608915" stroke="#d8b4fe" fill="none" opacity="0.4"/>
                    <circle cx="794.6817944952272" cy="336.4325645608915" r="3" fill="#4ade80"/>
        <text x="600" y="520" font-family="Segoe UI, Arial, sans-serif" font-size="38" font-weight="800" fill="#ffffff" text-anchor="middle">Building Adaptive Carousels: Leveraging Intersection Obse...</text>
        <text x="600" y="560" font-family="Segoe UI, Arial, sans-serif" font-size="16" font-weight="600" fill="#d8b4fe" text-anchor="middle" style="letter-spacing: 4px; text-transform: uppercase;">UI UX Powerhouse • Specialized Series</text>
    </svg>