<svg width="1200" height="600" viewBox="0 0 1200 600" xmlns="http://www.w3.org/2000/svg">
        
            <rect width="1200" height="600" fill="#f8fafc"/>
            <rect x="100" y="100" width="1000" height="350" rx="10" fill="#ffffff" stroke="#e2e8f0"/>
            <rect x="150" y="207.39287378783047" width="37.5" height="192.60712621216953" fill="#34d399" rx="4"/><rect x="203.125" y="237.1046476497213" width="37.5" height="162.8953523502787" fill="#34d399" rx="4"/><rect x="256.25" y="298.7076902305489" width="37.5" height="101.2923097694511" fill="#34d399" rx="4"/><rect x="309.375" y="291.55733265997696" width="37.5" height="108.44266734002304" fill="#34d399" rx="4"/><rect x="362.5" y="308.34632238565973" width="37.5" height="91.65367761434027" fill="#34d399" rx="4"/><rect x="415.625" y="181.88100519455475" width="37.5" height="218.11899480544525" fill="#34d399" rx="4"/><rect x="468.75" y="268.2024501817068" width="37.5" height="131.7975498182932" fill="#34d399" rx="4"/><rect x="521.875" y="343.2795903441729" width="37.5" height="56.7204096558271" fill="#34d399" rx="4"/><rect x="575" y="330.5136828585091" width="37.5" height="69.48631714149087" fill="#34d399" rx="4"/><rect x="628.125" y="280.97114541960764" width="37.5" height="119.02885458039236" fill="#34d399" rx="4"/><rect x="681.25" y="324.96223100552015" width="37.5" height="75.03776899447985" fill="#34d399" rx="4"/><rect x="734.375" y="223.58111224139066" width="37.5" height="176.41888775860934" fill="#34d399" rx="4"/><rect x="787.5" y="198.9685056349117" width="37.5" height="201.0314943650883" fill="#34d399" rx="4"/><rect x="840.625" y="298.7729327350735" width="37.5" height="101.22706726492652" fill="#34d399" rx="4"/><rect x="893.75" y="160.4629981875405" width="37.5" height="239.5370018124595" fill="#34d399" rx="4"/><rect x="946.875" y="162.9263478134817" width="37.5" height="237.0736521865183" fill="#34d399" rx="4"/>
        
        <text x="600" y="520" font-family="Segoe UI, Arial" font-size="38" font-weight="800" fill="#f8fafc" text-anchor="middle">Building Adaptive User Interfaces: Implementing Context-A...</text>
    </svg>