<svg width="1200" height="600" viewBox="0 0 1200 600" xmlns="http://www.w3.org/2000/svg">
        <rect width="1200" height="600" fill="#0f172a"/><path d="M 868.9295472795493 190.81045455604908 L 904.4011092557412 240.81045455604908 L 839.4679896953676 290.8104545560491" stroke="#38bdf8" fill="none" opacity="0.4"/>
                    <circle cx="868.9295472795493" cy="190.81045455604908" r="3" fill="#f472b6"/><path d="M 117.6956485491246 127.77090611834865 L 112.0578981075596 177.77090611834865 L 157.69120168679365 227.77090611834865" stroke="#38bdf8" fill="none" opacity="0.4"/>
                    <circle cx="117.6956485491246" cy="127.77090611834865" r="3" fill="#f472b6"/><path d="M 88.29445058909187 224.09775175983668 L 92.1143304076395 274.0977517598367 L 47.07243424190892 324.0977517598367" stroke="#38bdf8" fill="none" opacity="0.4"/>
                    <circle cx="88.29445058909187" cy="224.09775175983668" r="3" fill="#f472b6"/><path d="M 1112.2638011944218 223.9432810612925 L 1094.7798298913767 273.9432810612925 L 1125.121656437841 323.9432810612925" stroke="#38bdf8" fill="none" opacity="0.4"/>
                    <circle cx="1112.2638011944218" cy="223.9432810612925" r="3" fill="#f472b6"/><path d="M 433.4889489547095 28.920544324500952 L 475.47836160529187 78.92054432450095 L 447.14206167900556 128.92054432450095" stroke="#38bdf8" fill="none" opacity="0.4"/>
                    <circle cx="433.4889489547095" cy="28.920544324500952" r="3" fill="#f472b6"/><path d="M 799.8968917854654 98.56308970483951 L 769.2004964285843 148.5630897048395 L 813.6800872794993 198.5630897048395" stroke="#38bdf8" fill="none" opacity="0.4"/>
                    <circle cx="799.8968917854654" cy="98.56308970483951" r="3" fill="#f472b6"/><path d="M 1095.7184873605229 366.9137606280856 L 1129.4678346086812 416.9137606280856 L 1117.5810551238328 466.9137606280856" stroke="#38bdf8" fill="none" opacity="0.4"/>
                    <circle cx="1095.7184873605229" cy="366.9137606280856" r="3" fill="#f472b6"/><path d="M 89.83589117160591 194.80289847888344 L 63.52038355253171 244.80289847888344 L 115.93671165228443 294.80289847888344" stroke="#38bdf8" fill="none" opacity="0.4"/>
                    <circle cx="89.83589117160591" cy="194.80289847888344" r="3" fill="#f472b6"/><path d="M 153.34720232604013 303.98439417585905 L 146.35449160432472 353.98439417585905 L 106.85792070571551 403.98439417585905" stroke="#38bdf8" fill="none" opacity="0.4"/>
                    <circle cx="153.34720232604013" cy="303.98439417585905" r="3" fill="#f472b6"/><path d="M 3.7933387528028106 367.7316674053145 L -23.88814764581184 417.7316674053145 L -3.842244308998488 467.7316674053145" stroke="#38bdf8" fill="none" opacity="0.4"/>
                    <circle cx="3.7933387528028106" cy="367.7316674053145" r="3" fill="#f472b6"/>
        <text x="600" y="520" font-family="Segoe UI, Arial, sans-serif" font-size="38" font-weight="800" fill="#ffffff" text-anchor="middle">Building Adaptive Card Interfaces for Enhanced User Engag...</text>
        <text x="600" y="560" font-family="Segoe UI, Arial, sans-serif" font-size="16" font-weight="600" fill="#38bdf8" text-anchor="middle" style="letter-spacing: 4px; text-transform: uppercase;">UI UX Powerhouse • Specialized Series</text>
    </svg>