<svg width="1200" height="600" viewBox="0 0 1200 600" xmlns="http://www.w3.org/2000/svg">
            <rect width="1200" height="600" fill="#1e1b4b"/><rect x="150" y="187.84385627586744" width="60" height="162.15614372413256" fill="#f43f5e" opacity="0.6"/>
                    <rect x="170" y="167.84385627586744" width="60" height="162.15614372413256" fill="#fb7185" opacity="0.4" transform="skewY(-20)"/><rect x="270" y="289.67930864037044" width="60" height="60.32069135962956" fill="#f43f5e" opacity="0.6"/>
                    <rect x="290" y="269.67930864037044" width="60" height="60.32069135962956" fill="#fb7185" opacity="0.4" transform="skewY(-20)"/><rect x="390" y="260.48158942758164" width="60" height="89.51841057241836" fill="#f43f5e" opacity="0.6"/>
                    <rect x="410" y="240.48158942758164" width="60" height="89.51841057241836" fill="#fb7185" opacity="0.4" transform="skewY(-20)"/><rect x="510" y="151.1842507576148" width="60" height="198.8157492423852" fill="#f43f5e" opacity="0.6"/>
                    <rect x="530" y="131.1842507576148" width="60" height="198.8157492423852" fill="#fb7185" opacity="0.4" transform="skewY(-20)"/><rect x="630" y="277.6072699017277" width="60" height="72.3927300982723" fill="#f43f5e" opacity="0.6"/>
                    <rect x="650" y="257.6072699017277" width="60" height="72.3927300982723" fill="#fb7185" opacity="0.4" transform="skewY(-20)"/><rect x="750" y="158.26920429244637" width="60" height="191.73079570755363" fill="#f43f5e" opacity="0.6"/>
                    <rect x="770" y="138.26920429244637" width="60" height="191.73079570755363" fill="#fb7185" opacity="0.4" transform="skewY(-20)"/><rect x="870" y="117.83667520903691" width="60" height="232.1633247909631" fill="#f43f5e" opacity="0.6"/>
                    <rect x="890" y="97.83667520903691" width="60" height="232.1633247909631" fill="#fb7185" opacity="0.4" transform="skewY(-20)"/><rect x="990" y="263.4017737254908" width="60" height="86.59822627450922" fill="#f43f5e" opacity="0.6"/>
                    <rect x="1010" y="243.40177372549078" width="60" height="86.59822627450922" fill="#fb7185" opacity="0.4" transform="skewY(-20)"/>
            <text x="600" y="520" font-family="Segoe UI, Arial, sans-serif" font-size="38" font-weight="800" fill="#ffffff" text-anchor="middle">Building Accessible Data Visualizations: Advanced Techniq...</text>
            <text x="600" y="560" font-family="Segoe UI, Arial, sans-serif" font-size="16" font-weight="600" fill="#f43f5e" text-anchor="middle" style="letter-spacing: 4px; text-transform: uppercase;">UI UX Powerhouse • Specialized Series</text>
        </svg>