<svg width="1200" height="600" viewBox="0 0 1200 600" xmlns="http://www.w3.org/2000/svg">
        <rect width="1200" height="600" fill="#2e1065"/><rect x="150" y="222.67438506733015" width="60" height="127.32561493266985" fill="#d8b4fe" opacity="0.6"/>
                    <rect x="170" y="202.67438506733015" width="60" height="127.32561493266985" fill="#a855f7" opacity="0.4" transform="skewY(-20)"/><rect x="270" y="273.2521424683" width="60" height="76.74785753169999" fill="#d8b4fe" opacity="0.6"/>
                    <rect x="290" y="253.2521424683" width="60" height="76.74785753169999" fill="#a855f7" opacity="0.4" transform="skewY(-20)"/><rect x="390" y="222.79766529773042" width="60" height="127.20233470226958" fill="#d8b4fe" opacity="0.6"/>
                    <rect x="410" y="202.79766529773042" width="60" height="127.20233470226958" fill="#a855f7" opacity="0.4" transform="skewY(-20)"/><rect x="510" y="116.48645878085517" width="60" height="233.51354121914483" fill="#d8b4fe" opacity="0.6"/>
                    <rect x="530" y="96.48645878085517" width="60" height="233.51354121914483" fill="#a855f7" opacity="0.4" transform="skewY(-20)"/><rect x="630" y="217.43126766095884" width="60" height="132.56873233904116" fill="#d8b4fe" opacity="0.6"/>
                    <rect x="650" y="197.43126766095884" width="60" height="132.56873233904116" fill="#a855f7" opacity="0.4" transform="skewY(-20)"/><rect x="750" y="113.69529115690966" width="60" height="236.30470884309034" fill="#d8b4fe" opacity="0.6"/>
                    <rect x="770" y="93.69529115690966" width="60" height="236.30470884309034" fill="#a855f7" opacity="0.4" transform="skewY(-20)"/><rect x="870" y="257.37215578155883" width="60" height="92.62784421844117" fill="#d8b4fe" opacity="0.6"/>
                    <rect x="890" y="237.37215578155883" width="60" height="92.62784421844117" fill="#a855f7" opacity="0.4" transform="skewY(-20)"/><rect x="990" y="251.3688743882085" width="60" height="98.6311256117915" fill="#d8b4fe" opacity="0.6"/>
                    <rect x="1010" y="231.3688743882085" width="60" height="98.6311256117915" fill="#a855f7" opacity="0.4" transform="skewY(-20)"/>
        <text x="600" y="520" font-family="Segoe UI, Arial, sans-serif" font-size="38" font-weight="800" fill="#ffffff" text-anchor="middle">Building Adaptive User Interfaces: Implementing Fluid Typ...</text>
        <text x="600" y="560" font-family="Segoe UI, Arial, sans-serif" font-size="16" font-weight="600" fill="#d8b4fe" text-anchor="middle" style="letter-spacing: 4px; text-transform: uppercase;">UI UX Powerhouse • Specialized Series</text>
    </svg>