<svg width="1200" height="600" viewBox="0 0 1200 600" xmlns="http://www.w3.org/2000/svg">
        <rect width="1200" height="600" fill="#0c4a6e"/><circle cx="160.38897567668755" cy="28.967662255308824" r="32.61034360410122" fill="#7dd3fc" opacity="0.1"/><circle cx="106.97023607353913" cy="119.30735413952789" r="14.412180372200964" fill="#7dd3fc" opacity="0.1"/><circle cx="498.6064153483312" cy="282.7117914896007" r="20.780827332055196" fill="#7dd3fc" opacity="0.1"/><circle cx="1106.9066663672857" cy="19.985364356944046" r="23.67265270779626" fill="#7dd3fc" opacity="0.1"/><circle cx="975.1441519139917" cy="312.9506049772317" r="21.594048410406685" fill="#7dd3fc" opacity="0.1"/><circle cx="425.69814201033296" cy="390.6089398664335" r="18.477987380006198" fill="#7dd3fc" opacity="0.1"/><circle cx="1125.2020203966822" cy="393.2149523141561" r="22.873535861363052" fill="#7dd3fc" opacity="0.1"/><circle cx="284.777661159751" cy="13.473357837619915" r="17.1084068475011" fill="#7dd3fc" opacity="0.1"/><circle cx="4.028446322627133" cy="164.7484835339128" r="44.205551508148346" fill="#7dd3fc" opacity="0.1"/><circle cx="475.861030347005" cy="235.33470338443294" r="11.845036651429837" fill="#7dd3fc" opacity="0.1"/><circle cx="329.3807299276523" cy="167.89834481023718" r="33.43786451026972" fill="#7dd3fc" opacity="0.1"/><circle cx="245.54272738532745" cy="238.6141058692374" r="24.989747118233936" fill="#7dd3fc" opacity="0.1"/><circle cx="372.62040506911944" cy="158.28874007202103" r="39.58479270228054" fill="#7dd3fc" opacity="0.1"/><circle cx="796.6636986569938" cy="376.08593854893115" r="47.065593144725426" fill="#7dd3fc" opacity="0.1"/><circle cx="132.77884460330824" cy="66.14132517020153" r="41.82173815468559" fill="#7dd3fc" opacity="0.1"/><circle cx="984.5942399559135" cy="201.97942408631206" r="49.35168884236191" fill="#7dd3fc" opacity="0.1"/><circle cx="34.67705204238882" cy="125.53033316326037" r="45.74421749006433" fill="#7dd3fc" opacity="0.1"/><circle cx="345.85948694912076" cy="327.9718010497163" r="11.317411629497656" fill="#7dd3fc" opacity="0.1"/><circle cx="159.94213920303082" cy="202.27403620365294" r="30.16293270564347" fill="#7dd3fc" opacity="0.1"/><circle cx="628.8266221417871" cy="149.26476961591106" r="47.61567009540158" fill="#7dd3fc" opacity="0.1"/><circle cx="756.1294485443796" cy="239.0892264960712" r="13.948528017790522" fill="#7dd3fc" opacity="0.1"/><circle cx="15.201562658330658" cy="328.38293857930694" r="33.72109620608171" fill="#7dd3fc" opacity="0.1"/><circle cx="914.3684601411223" cy="205.87641495567368" r="14.099303321891057" fill="#7dd3fc" opacity="0.1"/><circle cx="847.0339364903339" cy="177.76101863832992" r="14.747721224212" fill="#7dd3fc" opacity="0.1"/><circle cx="899.0829262409534" cy="75.34333736002736" r="39.14131476158218" fill="#7dd3fc" opacity="0.1"/><circle cx="27.142205110067152" cy="66.17054463858949" r="22.628465916131972" fill="#7dd3fc" opacity="0.1"/><circle cx="626.3591289582109" cy="248.7462359114943" r="41.29897762228211" fill="#7dd3fc" opacity="0.1"/><circle cx="972.0349621748028" cy="347.78884796396596" r="35.34519112541602" fill="#7dd3fc" opacity="0.1"/><circle cx="1158.5125215999142" cy="94.6640595468125" r="23.71089493877662" fill="#7dd3fc" opacity="0.1"/><circle cx="1017.6044828403974" cy="267.25014251860557" r="44.553114634982194" fill="#7dd3fc" opacity="0.1"/>
        <text x="600" y="520" font-family="Segoe UI, Arial, sans-serif" font-size="38" font-weight="800" fill="#ffffff" text-anchor="middle">Building Dynamic Data Tables with ARIA Live Regions for E...</text>
        <text x="600" y="560" font-family="Segoe UI, Arial, sans-serif" font-size="16" font-weight="600" fill="#7dd3fc" text-anchor="middle" style="letter-spacing: 4px; text-transform: uppercase;">UI UX Powerhouse • Specialized Series</text>
    </svg>