<svg width="1200" height="600" viewBox="0 0 1200 600" xmlns="http://www.w3.org/2000/svg">
            <rect width="1200" height="600" fill="#2e1065"/><circle cx="429.2391869974381" cy="343.5722050615368" r="28.167831602258957" fill="#d8b4fe" opacity="0.1"/><circle cx="579.3047200233559" cy="200.03835000752588" r="38.91086453557364" fill="#d8b4fe" opacity="0.1"/><circle cx="61.88405437387701" cy="218.8523486332997" r="28.393675693878322" fill="#d8b4fe" opacity="0.1"/><circle cx="427.7957169084402" cy="55.659619340804056" r="41.74284981392702" fill="#d8b4fe" opacity="0.1"/><circle cx="212.9334826120612" cy="248.18177406777977" r="47.020032770888065" fill="#d8b4fe" opacity="0.1"/><circle cx="359.95718999183737" cy="301.3825085639837" r="15.150352345299325" fill="#d8b4fe" opacity="0.1"/><circle cx="1138.3888655982446" cy="126.82335058525496" r="12.625725658654119" fill="#d8b4fe" opacity="0.1"/><circle cx="827.9298550480235" cy="269.3227096206101" r="36.13619833737175" fill="#d8b4fe" opacity="0.1"/><circle cx="405.6465369547368" cy="169.73279155718046" r="35.5760598838242" fill="#d8b4fe" opacity="0.1"/><circle cx="25.798469921573997" cy="391.53090785839595" r="27.784108271371224" fill="#d8b4fe" opacity="0.1"/><circle cx="453.3353191856804" cy="239.23510137210542" r="17.08135983419197" fill="#d8b4fe" opacity="0.1"/><circle cx="542.6130814827047" cy="91.416344676054" r="45.10631473891408" fill="#d8b4fe" opacity="0.1"/><circle cx="218.7913018533436" cy="22.957632704492426" r="24.63092913257242" fill="#d8b4fe" opacity="0.1"/><circle cx="327.7644279442029" cy="241.41384608810768" r="29.87640071369242" fill="#d8b4fe" opacity="0.1"/><circle cx="1167.7889604517986" cy="194.03878553093818" r="11.578635939513333" fill="#d8b4fe" opacity="0.1"/><circle cx="345.04746231323224" cy="329.592295747716" r="38.768435233032505" fill="#d8b4fe" opacity="0.1"/><circle cx="1073.9826136588817" cy="131.62403926471598" r="39.64525778181269" fill="#d8b4fe" opacity="0.1"/><circle cx="1043.15977627557" cy="173.14857078163186" r="39.29069784062449" fill="#d8b4fe" opacity="0.1"/><circle cx="826.6812997222587" cy="259.0491598162771" r="18.710435693647014" fill="#d8b4fe" opacity="0.1"/><circle cx="74.19499819898192" cy="54.80935377854621" r="40.77422797156032" fill="#d8b4fe" opacity="0.1"/><circle cx="497.1901294760755" cy="359.30702393447973" r="14.82177657635475" fill="#d8b4fe" opacity="0.1"/><circle cx="616.4738815183227" cy="84.65553446367267" r="49.917214619833885" fill="#d8b4fe" opacity="0.1"/><circle cx="976.6038371340983" cy="25.876069250193723" r="35.1311123315827" fill="#d8b4fe" opacity="0.1"/><circle cx="494.94331534915545" cy="259.6862497222901" r="10.3812077697512" fill="#d8b4fe" opacity="0.1"/><circle cx="136.37961274871486" cy="208.53891450096853" r="23.49786183276592" fill="#d8b4fe" opacity="0.1"/><circle cx="168.18269610157586" cy="352.2425940624089" r="35.20463045380893" fill="#d8b4fe" opacity="0.1"/><circle cx="1160.0640481210576" cy="373.2883633354504" r="16.910549693866415" fill="#d8b4fe" opacity="0.1"/><circle cx="54.0768274506263" cy="121.15676818284555" r="14.078460663877195" fill="#d8b4fe" opacity="0.1"/><circle cx="473.0231031699077" cy="47.75815347747994" r="30.525476317943685" fill="#d8b4fe" opacity="0.1"/><circle cx="351.275569981226" cy="184.04992163123097" r="24.720149130116624" fill="#d8b4fe" opacity="0.1"/>
            <text x="600" y="520" font-family="Segoe UI, Arial, sans-serif" font-size="38" font-weight="800" fill="#ffffff" text-anchor="middle">Cognitive Load Reduction Through Predictive Personalizati...</text>
            <text x="600" y="560" font-family="Segoe UI, Arial, sans-serif" font-size="16" font-weight="600" fill="#d8b4fe" text-anchor="middle" style="letter-spacing: 4px; text-transform: uppercase;">UI UX Powerhouse • Specialized Series</text>
        </svg>