<svg width="1200" height="600" viewBox="0 0 1200 600" xmlns="http://www.w3.org/2000/svg">
            <rect width="1200" height="600" fill="#0c4a6e"/><circle cx="1034.9568880381412" cy="259.8791296577474" r="49.123555574497004" fill="#7dd3fc" opacity="0.1"/><circle cx="992.6365326671657" cy="182.8060025877562" r="31.739945877852733" fill="#7dd3fc" opacity="0.1"/><circle cx="654.5232282162033" cy="375.1025547622703" r="44.874842197750695" fill="#7dd3fc" opacity="0.1"/><circle cx="986.4995216750685" cy="203.40070192687563" r="49.13559420853744" fill="#7dd3fc" opacity="0.1"/><circle cx="353.22219063127704" cy="397.3410852231609" r="23.332393508853784" fill="#7dd3fc" opacity="0.1"/><circle cx="194.65412136223676" cy="198.4892753240274" r="12.201279945220449" fill="#7dd3fc" opacity="0.1"/><circle cx="789.093381654493" cy="141.32439241293469" r="17.541906601509254" fill="#7dd3fc" opacity="0.1"/><circle cx="805.1090627421218" cy="228.63522918596573" r="32.553658120450564" fill="#7dd3fc" opacity="0.1"/><circle cx="409.37043566536886" cy="71.33198257215554" r="35.16178873076569" fill="#7dd3fc" opacity="0.1"/><circle cx="293.532724623401" cy="174.837843907153" r="31.878229141730117" fill="#7dd3fc" opacity="0.1"/><circle cx="860.1554830045643" cy="262.4393259779026" r="47.14087096712319" fill="#7dd3fc" opacity="0.1"/><circle cx="1193.3573201815307" cy="193.63309717155062" r="48.77129811415216" fill="#7dd3fc" opacity="0.1"/><circle cx="108.43893775818287" cy="68.6534549622138" r="29.80883851963881" fill="#7dd3fc" opacity="0.1"/><circle cx="350.31040607209434" cy="129.1893642199284" r="37.94674937533273" fill="#7dd3fc" opacity="0.1"/><circle cx="390.9613191468452" cy="252.33759014299721" r="45.78564296418335" fill="#7dd3fc" opacity="0.1"/><circle cx="818.3787160698557" cy="29.611923976335675" r="14.27227559426683" fill="#7dd3fc" opacity="0.1"/><circle cx="742.0138506240619" cy="12.41651568789166" r="38.03234379745845" fill="#7dd3fc" opacity="0.1"/><circle cx="1011.1672026963788" cy="303.52109839313925" r="15.789356836685329" fill="#7dd3fc" opacity="0.1"/><circle cx="1054.5819978633517" cy="209.0318314050819" r="40.198567104307585" fill="#7dd3fc" opacity="0.1"/><circle cx="683.162694501516" cy="179.17954055519658" r="39.60089722873818" fill="#7dd3fc" opacity="0.1"/><circle cx="1004.3704956653528" cy="210.91994088419597" r="32.908149482882436" fill="#7dd3fc" opacity="0.1"/><circle cx="157.32284120385884" cy="356.1133832568885" r="49.45442263449877" fill="#7dd3fc" opacity="0.1"/><circle cx="1117.1412732557656" cy="380.9586061281152" r="37.24651910004468" fill="#7dd3fc" opacity="0.1"/><circle cx="342.3457680277352" cy="163.96198451193413" r="19.17515493980318" fill="#7dd3fc" opacity="0.1"/><circle cx="313.94985229962913" cy="145.6024560514379" r="26.959527658927982" fill="#7dd3fc" opacity="0.1"/><circle cx="704.0662319210242" cy="356.69497463168227" r="41.699157866314636" fill="#7dd3fc" opacity="0.1"/><circle cx="25.606168877493474" cy="10.571319622977171" r="26.924581892253627" fill="#7dd3fc" opacity="0.1"/><circle cx="397.3834548335617" cy="336.6514993159399" r="40.940115181947476" fill="#7dd3fc" opacity="0.1"/><circle cx="1061.5154231287306" cy="103.11315511353314" r="21.57722131385526" fill="#7dd3fc" opacity="0.1"/><circle cx="1175.1582173994393" cy="298.4535720446729" r="22.469854652954382" fill="#7dd3fc" opacity="0.1"/>
            <text x="600" y="520" font-family="Segoe UI, Arial, sans-serif" font-size="38" font-weight="800" fill="#ffffff" text-anchor="middle">Cognitive Biases in UX: How Users Think and How to Design...</text>
            <text x="600" y="560" font-family="Segoe UI, Arial, sans-serif" font-size="16" font-weight="600" fill="#7dd3fc" text-anchor="middle" style="letter-spacing: 4px; text-transform: uppercase;">UI UX Powerhouse • Specialized Series</text>
        </svg>