<svg width="1200" height="600" viewBox="0 0 1200 600" xmlns="http://www.w3.org/2000/svg">
            <rect width="1200" height="600" fill="#0f172a"/><path d="M 619.9433309520828 239.358137722229 L 584.0415543307245 289.358137722229 L 645.7157286044094 339.358137722229" stroke="#38bdf8" fill="none" opacity="0.4"/>
                    <circle cx="619.9433309520828" cy="239.358137722229" r="3" fill="#f472b6"/><path d="M 312.46613685616467 90.18028631908237 L 276.0718883210757 140.18028631908237 L 271.0659883052699 190.18028631908237" stroke="#38bdf8" fill="none" opacity="0.4"/>
                    <circle cx="312.46613685616467" cy="90.18028631908237" r="3" fill="#f472b6"/><path d="M 511.8462789730984 189.7682128175802 L 473.0234930832012 239.7682128175802 L 556.3261677103583 289.7682128175802" stroke="#38bdf8" fill="none" opacity="0.4"/>
                    <circle cx="511.8462789730984" cy="189.7682128175802" r="3" fill="#f472b6"/><path d="M 326.64396920044965 250.60648890357697 L 324.2711725708432 300.606488903577 L 319.3722781996257 350.606488903577" stroke="#38bdf8" fill="none" opacity="0.4"/>
                    <circle cx="326.64396920044965" cy="250.60648890357697" r="3" fill="#f472b6"/><path d="M 1098.8537476259808 344.55994247800845 L 1075.2894277728046 394.55994247800845 L 1062.4402138297228 444.55994247800845" stroke="#38bdf8" fill="none" opacity="0.4"/>
                    <circle cx="1098.8537476259808" cy="344.55994247800845" r="3" fill="#f472b6"/><path d="M 363.30211086096824 272.87084895024236 L 398.96359435733757 322.87084895024236 L 402.0611719099179 372.87084895024236" stroke="#38bdf8" fill="none" opacity="0.4"/>
                    <circle cx="363.30211086096824" cy="272.87084895024236" r="3" fill="#f472b6"/><path d="M 77.70881016549538 314.91785061698465 L 38.37404170617447 364.91785061698465 L 58.42393303855715 414.91785061698465" stroke="#38bdf8" fill="none" opacity="0.4"/>
                    <circle cx="77.70881016549538" cy="314.91785061698465" r="3" fill="#f472b6"/><path d="M 965.7994886496454 248.3348397683585 L 926.0220070001196 298.3348397683585 L 918.5169748393491 348.3348397683585" stroke="#38bdf8" fill="none" opacity="0.4"/>
                    <circle cx="965.7994886496454" cy="248.3348397683585" r="3" fill="#f472b6"/><path d="M 13.983395406012278 369.3189897760021 L 18.55519193791224 419.3189897760021 L 30.26128742212677 469.3189897760021" stroke="#38bdf8" fill="none" opacity="0.4"/>
                    <circle cx="13.983395406012278" cy="369.3189897760021" r="3" fill="#f472b6"/><path d="M 146.51039646123536 189.82073669703823 L 184.8795627756317 239.82073669703823 L 112.07563152074727 289.8207366970382" stroke="#38bdf8" fill="none" opacity="0.4"/>
                    <circle cx="146.51039646123536" cy="189.82073669703823" r="3" fill="#f472b6"/>
            <text x="600" y="520" font-family="Segoe UI, Arial, sans-serif" font-size="38" font-weight="800" fill="#ffffff" text-anchor="middle">The Psychology of Colors in UI/UX Design: How It Affects ...</text>
            <text x="600" y="560" font-family="Segoe UI, Arial, sans-serif" font-size="16" font-weight="600" fill="#38bdf8" text-anchor="middle" style="letter-spacing: 4px; text-transform: uppercase;">UI UX Powerhouse • Specialized Series</text>
        </svg>