<svg width="1200" height="600" viewBox="0 0 1200 600" xmlns="http://www.w3.org/2000/svg">
        <rect width="1200" height="600" fill="#0c4a6e"/><rect x="150" y="118.07999519874102" width="60" height="231.92000480125898" fill="#7dd3fc" opacity="0.6"/>
                    <rect x="170" y="98.07999519874102" width="60" height="231.92000480125898" fill="#38bdf8" opacity="0.4" transform="skewY(-20)"/><rect x="270" y="196.37043778084262" width="60" height="153.62956221915738" fill="#7dd3fc" opacity="0.6"/>
                    <rect x="290" y="176.37043778084262" width="60" height="153.62956221915738" fill="#38bdf8" opacity="0.4" transform="skewY(-20)"/><rect x="390" y="145.35621312497824" width="60" height="204.64378687502176" fill="#7dd3fc" opacity="0.6"/>
                    <rect x="410" y="125.35621312497824" width="60" height="204.64378687502176" fill="#38bdf8" opacity="0.4" transform="skewY(-20)"/><rect x="510" y="130.147004032915" width="60" height="219.852995967085" fill="#7dd3fc" opacity="0.6"/>
                    <rect x="530" y="110.14700403291499" width="60" height="219.852995967085" fill="#38bdf8" opacity="0.4" transform="skewY(-20)"/><rect x="630" y="148.1412457447732" width="60" height="201.8587542552268" fill="#7dd3fc" opacity="0.6"/>
                    <rect x="650" y="128.1412457447732" width="60" height="201.8587542552268" fill="#38bdf8" opacity="0.4" transform="skewY(-20)"/><rect x="750" y="100.5242190186209" width="60" height="249.4757809813791" fill="#7dd3fc" opacity="0.6"/>
                    <rect x="770" y="80.5242190186209" width="60" height="249.4757809813791" fill="#38bdf8" opacity="0.4" transform="skewY(-20)"/><rect x="870" y="206.86534632150142" width="60" height="143.13465367849858" fill="#7dd3fc" opacity="0.6"/>
                    <rect x="890" y="186.86534632150142" width="60" height="143.13465367849858" fill="#38bdf8" opacity="0.4" transform="skewY(-20)"/><rect x="990" y="284.0808547796769" width="60" height="65.91914522032312" fill="#7dd3fc" opacity="0.6"/>
                    <rect x="1010" y="264.0808547796769" width="60" height="65.91914522032312" fill="#38bdf8" opacity="0.4" transform="skewY(-20)"/>
        <text x="600" y="520" font-family="Segoe UI, Arial, sans-serif" font-size="38" font-weight="800" fill="#ffffff" text-anchor="middle">Crafting Contextual Onboarding Experiences: Utilizing Cus...</text>
        <text x="600" y="560" font-family="Segoe UI, Arial, sans-serif" font-size="16" font-weight="600" fill="#7dd3fc" text-anchor="middle" style="letter-spacing: 4px; text-transform: uppercase;">UI UX Powerhouse • Specialized Series</text>
    </svg>