<svg width="1200" height="600" viewBox="0 0 1200 600" xmlns="http://www.w3.org/2000/svg">
            <rect width="1200" height="600" fill="#2e1065"/><path d="M 1105.1569430264863 216.46710722343414 L 1131.7702171576457 266.46710722343414 L 1067.6318860724678 316.46710722343414" stroke="#d8b4fe" fill="none" opacity="0.4"/>
                    <circle cx="1105.1569430264863" cy="216.46710722343414" r="3" fill="#4ade80"/><path d="M 205.02765237579297 268.81385514825524 L 239.97512901707978 318.81385514825524 L 222.27056296378578 368.81385514825524" stroke="#d8b4fe" fill="none" opacity="0.4"/>
                    <circle cx="205.02765237579297" cy="268.81385514825524" r="3" fill="#4ade80"/><path d="M 942.7189290439856 323.63668240031984 L 912.8794691708429 373.63668240031984 L 897.9585239781045 423.63668240031984" stroke="#d8b4fe" fill="none" opacity="0.4"/>
                    <circle cx="942.7189290439856" cy="323.63668240031984" r="3" fill="#4ade80"/><path d="M 1093.9032051537652 210.8306155045284 L 1051.5909615312921 260.8306155045284 L 1119.6385751194612 310.8306155045284" stroke="#d8b4fe" fill="none" opacity="0.4"/>
                    <circle cx="1093.9032051537652" cy="210.8306155045284" r="3" fill="#4ade80"/><path d="M 1131.589324747256 397.6088746167079 L 1136.6450049612467 447.6088746167079 L 1153.7023773494866 497.6088746167079" stroke="#d8b4fe" fill="none" opacity="0.4"/>
                    <circle cx="1131.589324747256" cy="397.6088746167079" r="3" fill="#4ade80"/><path d="M 945.2611994405743 148.93329312726564 L 973.3635148559188 198.93329312726564 L 923.2802109832846 248.93329312726564" stroke="#d8b4fe" fill="none" opacity="0.4"/>
                    <circle cx="945.2611994405743" cy="148.93329312726564" r="3" fill="#4ade80"/><path d="M 710.0389383672336 53.777021815039916 L 753.2758340544206 103.77702181503992 L 757.0613081324154 153.77702181503992" stroke="#d8b4fe" fill="none" opacity="0.4"/>
                    <circle cx="710.0389383672336" cy="53.777021815039916" r="3" fill="#4ade80"/><path d="M 106.63684006212861 11.523559640772874 L 149.36533392501588 61.52355964077287 L 150.2304184326931 111.52355964077287" stroke="#d8b4fe" fill="none" opacity="0.4"/>
                    <circle cx="106.63684006212861" cy="11.523559640772874" r="3" fill="#4ade80"/><path d="M 498.8004542719864 378.54091909030103 L 499.6898387994406 428.54091909030103 L 487.96719981446586 478.54091909030103" stroke="#d8b4fe" fill="none" opacity="0.4"/>
                    <circle cx="498.8004542719864" cy="378.54091909030103" r="3" fill="#4ade80"/><path d="M 896.4523363156331 241.87761963771663 L 899.7219623577621 291.87761963771663 L 911.2530894513839 341.87761963771663" stroke="#d8b4fe" fill="none" opacity="0.4"/>
                    <circle cx="896.4523363156331" cy="241.87761963771663" r="3" fill="#4ade80"/>
            <text x="600" y="520" font-family="Segoe UI, Arial, sans-serif" font-size="38" font-weight="800" fill="#ffffff" text-anchor="middle">Crafting Intuitive User Experiences with AI-Driven Emotio...</text>
            <text x="600" y="560" font-family="Segoe UI, Arial, sans-serif" font-size="16" font-weight="600" fill="#d8b4fe" text-anchor="middle" style="letter-spacing: 4px; text-transform: uppercase;">UI UX Powerhouse • Specialized Series</text>
        </svg>