<svg width="1200" height="600" viewBox="0 0 1200 600" xmlns="http://www.w3.org/2000/svg">
        <rect width="1200" height="600" fill="#0c4a6e"/><circle cx="355.7710594306627" cy="389.6784292788652" r="45.790410714253085" fill="#7dd3fc" opacity="0.1"/><circle cx="308.18725545104826" cy="314.0607678482411" r="10.609293819652521" fill="#7dd3fc" opacity="0.1"/><circle cx="163.85384980058006" cy="290.22373904372216" r="20.669483194797067" fill="#7dd3fc" opacity="0.1"/><circle cx="68.2892205164535" cy="146.90108545764815" r="36.04985491820116" fill="#7dd3fc" opacity="0.1"/><circle cx="279.1609166088165" cy="101.18189789918688" r="44.441006879169436" fill="#7dd3fc" opacity="0.1"/><circle cx="229.58095509457053" cy="183.26843323302455" r="37.717863107900484" fill="#7dd3fc" opacity="0.1"/><circle cx="851.5558552084258" cy="43.71391262757243" r="30.449260879977373" fill="#7dd3fc" opacity="0.1"/><circle cx="69.19515156987472" cy="320.0739329426142" r="35.8998938822333" fill="#7dd3fc" opacity="0.1"/><circle cx="21.448954780498752" cy="311.41998198190777" r="20.589448791797622" fill="#7dd3fc" opacity="0.1"/><circle cx="1100.5447246483527" cy="233.56704223606357" r="39.22628098480345" fill="#7dd3fc" opacity="0.1"/><circle cx="1074.6351591420535" cy="216.49806300411" r="32.04817273617664" fill="#7dd3fc" opacity="0.1"/><circle cx="40.01515749914688" cy="399.33932885014656" r="16.137052757003403" fill="#7dd3fc" opacity="0.1"/><circle cx="696.8897684084368" cy="82.16658178935177" r="23.288707074752892" fill="#7dd3fc" opacity="0.1"/><circle cx="311.6120213878503" cy="72.09918703883886" r="28.08158001062111" fill="#7dd3fc" opacity="0.1"/><circle cx="1127.5849260718132" cy="288.1888073461596" r="47.19572346239147" fill="#7dd3fc" opacity="0.1"/><circle cx="316.4970401383471" cy="129.12657823762856" r="14.350557902434957" fill="#7dd3fc" opacity="0.1"/><circle cx="645.5960435927409" cy="199.3933397755427" r="33.2464572590834" fill="#7dd3fc" opacity="0.1"/><circle cx="17.69058917871007" cy="355.6703899783315" r="17.021969470588374" fill="#7dd3fc" opacity="0.1"/><circle cx="925.1458256936075" cy="69.26203276671004" r="28.078600076332805" fill="#7dd3fc" opacity="0.1"/><circle cx="856.3162014601403" cy="338.63543614788796" r="42.95841696706702" fill="#7dd3fc" opacity="0.1"/><circle cx="1132.453339624044" cy="69.79377696497977" r="49.86954942738521" fill="#7dd3fc" opacity="0.1"/><circle cx="910.0619222601381" cy="315.30859876365867" r="49.804572119610384" fill="#7dd3fc" opacity="0.1"/><circle cx="267.52208152793173" cy="355.09034620263265" r="10.2984957996523" fill="#7dd3fc" opacity="0.1"/><circle cx="597.5764583898126" cy="227.7668295726471" r="30.523405319891026" fill="#7dd3fc" opacity="0.1"/><circle cx="1074.1215835660114" cy="249.14644641785344" r="15.500117807205243" fill="#7dd3fc" opacity="0.1"/><circle cx="61.81834777162294" cy="73.20607112706057" r="46.60275883896247" fill="#7dd3fc" opacity="0.1"/><circle cx="1021.0280541246902" cy="121.57445621596707" r="15.73361691655009" fill="#7dd3fc" opacity="0.1"/><circle cx="406.2452361042233" cy="22.12784104194725" r="25.402041697889217" fill="#7dd3fc" opacity="0.1"/><circle cx="538.8413171549473" cy="6.470900785836875" r="45.32820141512275" fill="#7dd3fc" opacity="0.1"/><circle cx="1059.2949002457317" cy="226.28673428480397" r="37.94685145170661" fill="#7dd3fc" opacity="0.1"/>
        <text x="600" y="520" font-family="Segoe UI, Arial, sans-serif" font-size="38" font-weight="800" fill="#ffffff" text-anchor="middle">Crafting Highly Accessible Data Tables: Advanced Techniqu...</text>
        <text x="600" y="560" font-family="Segoe UI, Arial, sans-serif" font-size="16" font-weight="600" fill="#7dd3fc" text-anchor="middle" style="letter-spacing: 4px; text-transform: uppercase;">UI UX Powerhouse • Specialized Series</text>
    </svg>