<svg width="1200" height="600" viewBox="0 0 1200 600" xmlns="http://www.w3.org/2000/svg">
            <rect width="1200" height="600" fill="#1e1b4b"/><circle cx="411.87377799506066" cy="355.93099952384364" r="23.603801205244963" fill="#f43f5e" opacity="0.1"/><circle cx="236.1597251277999" cy="291.7530617931334" r="21.475064218320767" fill="#f43f5e" opacity="0.1"/><circle cx="994.6802546979598" cy="156.43365041360084" r="16.836968739298754" fill="#f43f5e" opacity="0.1"/><circle cx="859.7574903709756" cy="156.51064811572724" r="35.092537439995795" fill="#f43f5e" opacity="0.1"/><circle cx="223.92141791788163" cy="193.8881655347359" r="46.21786562463967" fill="#f43f5e" opacity="0.1"/><circle cx="755.7326242160343" cy="347.66087001626147" r="16.401884447332122" fill="#f43f5e" opacity="0.1"/><circle cx="935.5435750105244" cy="297.59016073112434" r="49.504027040475194" fill="#f43f5e" opacity="0.1"/><circle cx="297.2295217739884" cy="153.99044349400128" r="29.582768271066016" fill="#f43f5e" opacity="0.1"/><circle cx="1111.8307842396916" cy="113.4427160708583" r="15.865971713319595" fill="#f43f5e" opacity="0.1"/><circle cx="217.64430044390792" cy="328.4995388086827" r="30.557437980496616" fill="#f43f5e" opacity="0.1"/><circle cx="294.57918817861355" cy="399.194579284449" r="12.93104237426519" fill="#f43f5e" opacity="0.1"/><circle cx="351.80948679480935" cy="281.9569533574395" r="11.51998518524124" fill="#f43f5e" opacity="0.1"/><circle cx="822.583171648148" cy="149.03590213798452" r="40.9214032177988" fill="#f43f5e" opacity="0.1"/><circle cx="1091.1684757076728" cy="78.39600362422061" r="29.53503818331228" fill="#f43f5e" opacity="0.1"/><circle cx="85.16023371485062" cy="8.891452792613563" r="33.680529038465465" fill="#f43f5e" opacity="0.1"/><circle cx="509.24260491810855" cy="332.58353903947864" r="17.360988387008547" fill="#f43f5e" opacity="0.1"/><circle cx="1108.4788066371402" cy="330.70986059428833" r="43.50681861015801" fill="#f43f5e" opacity="0.1"/><circle cx="538.9287672631326" cy="171.60745356814004" r="46.73301435610483" fill="#f43f5e" opacity="0.1"/><circle cx="424.9334133222874" cy="112.78393914653861" r="44.736443349502224" fill="#f43f5e" opacity="0.1"/><circle cx="1055.0855186955232" cy="118.3497290696323" r="13.26841945265187" fill="#f43f5e" opacity="0.1"/><circle cx="911.2459798499913" cy="136.22833338631608" r="24.418684844458767" fill="#f43f5e" opacity="0.1"/><circle cx="843.4299627166183" cy="28.17832752389222" r="36.01378191162439" fill="#f43f5e" opacity="0.1"/><circle cx="779.7558062393364" cy="394.8566309205489" r="17.733123010984855" fill="#f43f5e" opacity="0.1"/><circle cx="600.982047152138" cy="82.77531981366337" r="27.22606608989736" fill="#f43f5e" opacity="0.1"/><circle cx="388.374632083287" cy="265.7107456456288" r="40.26827570316755" fill="#f43f5e" opacity="0.1"/><circle cx="1104.8696846843086" cy="292.89928343787324" r="37.796447223227005" fill="#f43f5e" opacity="0.1"/><circle cx="534.5005928338651" cy="343.6844259635109" r="20.673133770396817" fill="#f43f5e" opacity="0.1"/><circle cx="358.42987113903746" cy="256.72837266974966" r="48.99289128858072" fill="#f43f5e" opacity="0.1"/><circle cx="948.221671252395" cy="192.8311419833335" r="35.24341296630155" fill="#f43f5e" opacity="0.1"/><circle cx="264.4422374898568" cy="398.2769290363649" r="28.481636687502032" fill="#f43f5e" opacity="0.1"/>
            <text x="600" y="520" font-family="Segoe UI, Arial, sans-serif" font-size="38" font-weight="800" fill="#ffffff" text-anchor="middle">Creating Dynamic, Accessible Data Visualizations with D3....</text>
            <text x="600" y="560" font-family="Segoe UI, Arial, sans-serif" font-size="16" font-weight="600" fill="#f43f5e" text-anchor="middle" style="letter-spacing: 4px; text-transform: uppercase;">UI UX Powerhouse • Specialized Series</text>
        </svg>