<svg width="1200" height="600" viewBox="0 0 1200 600" xmlns="http://www.w3.org/2000/svg">
            <rect width="1200" height="600" fill="#1e1b4b"/><rect x="150" y="289.1718926623071" width="60" height="60.82810733769293" fill="#f43f5e" opacity="0.6"/>
                    <rect x="170" y="269.1718926623071" width="60" height="60.82810733769293" fill="#fb7185" opacity="0.4" transform="skewY(-20)"/><rect x="270" y="104.55502639924816" width="60" height="245.44497360075184" fill="#f43f5e" opacity="0.6"/>
                    <rect x="290" y="84.55502639924816" width="60" height="245.44497360075184" fill="#fb7185" opacity="0.4" transform="skewY(-20)"/><rect x="390" y="251.22437290265225" width="60" height="98.77562709734775" fill="#f43f5e" opacity="0.6"/>
                    <rect x="410" y="231.22437290265225" width="60" height="98.77562709734775" fill="#fb7185" opacity="0.4" transform="skewY(-20)"/><rect x="510" y="247.86674686001788" width="60" height="102.13325313998212" fill="#f43f5e" opacity="0.6"/>
                    <rect x="530" y="227.86674686001788" width="60" height="102.13325313998212" fill="#fb7185" opacity="0.4" transform="skewY(-20)"/><rect x="630" y="146.5667837732326" width="60" height="203.4332162267674" fill="#f43f5e" opacity="0.6"/>
                    <rect x="650" y="126.5667837732326" width="60" height="203.4332162267674" fill="#fb7185" opacity="0.4" transform="skewY(-20)"/><rect x="750" y="140.13500213804946" width="60" height="209.86499786195054" fill="#f43f5e" opacity="0.6"/>
                    <rect x="770" y="120.13500213804946" width="60" height="209.86499786195054" fill="#fb7185" opacity="0.4" transform="skewY(-20)"/><rect x="870" y="209.63045799835527" width="60" height="140.36954200164473" fill="#f43f5e" opacity="0.6"/>
                    <rect x="890" y="189.63045799835527" width="60" height="140.36954200164473" fill="#fb7185" opacity="0.4" transform="skewY(-20)"/><rect x="990" y="233.05539324228448" width="60" height="116.94460675771552" fill="#f43f5e" opacity="0.6"/>
                    <rect x="1010" y="213.05539324228448" width="60" height="116.94460675771552" fill="#fb7185" opacity="0.4" transform="skewY(-20)"/>
            <text x="600" y="520" font-family="Segoe UI, Arial, sans-serif" font-size="38" font-weight="800" fill="#ffffff" text-anchor="middle">Creating Adaptive Color Contrast Schemes for Data-Driven ...</text>
            <text x="600" y="560" font-family="Segoe UI, Arial, sans-serif" font-size="16" font-weight="600" fill="#f43f5e" text-anchor="middle" style="letter-spacing: 4px; text-transform: uppercase;">UI UX Powerhouse • Specialized Series</text>
        </svg>