<svg width="1200" height="600" viewBox="0 0 1200 600" xmlns="http://www.w3.org/2000/svg">
        
            <rect width="1200" height="600" fill="#4c1d95"/>
            <g opacity="0.3">
                <line x1="498.5231113158079" y1="298.6428325923953" x2="523.695265878996" y2="371.39745631698133" stroke="#c084fc" stroke-width="1"/><line x1="498.5231113158079" y1="298.6428325923953" x2="789.5207131216011" y2="274.0821253612012" stroke="#c084fc" stroke-width="1"/><line x1="498.5231113158079" y1="298.6428325923953" x2="758.006227075748" y2="171.50687119428767" stroke="#c084fc" stroke-width="1"/><line x1="498.5231113158079" y1="298.6428325923953" x2="571.7105397070554" y2="388.8551065549109" stroke="#c084fc" stroke-width="1"/><line x1="498.5231113158079" y1="298.6428325923953" x2="666.3147603186644" y2="131.7672678582312" stroke="#c084fc" stroke-width="1"/><line x1="498.5231113158079" y1="298.6428325923953" x2="873.5581827094393" y2="335.17433740328215" stroke="#c084fc" stroke-width="1"/><line x1="498.5231113158079" y1="298.6428325923953" x2="811.2030015545315" y2="222.78437848544854" stroke="#c084fc" stroke-width="1"/><line x1="523.695265878996" y1="371.39745631698133" x2="789.5207131216011" y2="274.0821253612012" stroke="#c084fc" stroke-width="1"/><line x1="523.695265878996" y1="371.39745631698133" x2="758.006227075748" y2="171.50687119428767" stroke="#c084fc" stroke-width="1"/><line x1="523.695265878996" y1="371.39745631698133" x2="571.7105397070554" y2="388.8551065549109" stroke="#c084fc" stroke-width="1"/><line x1="523.695265878996" y1="371.39745631698133" x2="666.3147603186644" y2="131.7672678582312" stroke="#c084fc" stroke-width="1"/><line x1="523.695265878996" y1="371.39745631698133" x2="873.5581827094393" y2="335.17433740328215" stroke="#c084fc" stroke-width="1"/><line x1="523.695265878996" y1="371.39745631698133" x2="811.2030015545315" y2="222.78437848544854" stroke="#c084fc" stroke-width="1"/><line x1="789.5207131216011" y1="274.0821253612012" x2="758.006227075748" y2="171.50687119428767" stroke="#c084fc" stroke-width="1"/><line x1="789.5207131216011" y1="274.0821253612012" x2="571.7105397070554" y2="388.8551065549109" stroke="#c084fc" stroke-width="1"/><line x1="789.5207131216011" y1="274.0821253612012" x2="666.3147603186644" y2="131.7672678582312" stroke="#c084fc" stroke-width="1"/><line x1="789.5207131216011" y1="274.0821253612012" x2="873.5581827094393" y2="335.17433740328215" stroke="#c084fc" stroke-width="1"/><line x1="789.5207131216011" y1="274.0821253612012" x2="811.2030015545315" y2="222.78437848544854" stroke="#c084fc" stroke-width="1"/><line x1="758.006227075748" y1="171.50687119428767" x2="571.7105397070554" y2="388.8551065549109" stroke="#c084fc" stroke-width="1"/><line x1="758.006227075748" y1="171.50687119428767" x2="666.3147603186644" y2="131.7672678582312" stroke="#c084fc" stroke-width="1"/><line x1="758.006227075748" y1="171.50687119428767" x2="873.5581827094393" y2="335.17433740328215" stroke="#c084fc" stroke-width="1"/><line x1="758.006227075748" y1="171.50687119428767" x2="811.2030015545315" y2="222.78437848544854" stroke="#c084fc" stroke-width="1"/><line x1="571.7105397070554" y1="388.8551065549109" x2="666.3147603186644" y2="131.7672678582312" stroke="#c084fc" stroke-width="1"/><line x1="571.7105397070554" y1="388.8551065549109" x2="873.5581827094393" y2="335.17433740328215" stroke="#c084fc" stroke-width="1"/><line x1="571.7105397070554" y1="388.8551065549109" x2="811.2030015545315" y2="222.78437848544854" stroke="#c084fc" stroke-width="1"/><line x1="666.3147603186644" y1="131.7672678582312" x2="873.5581827094393" y2="335.17433740328215" stroke="#c084fc" stroke-width="1"/><line x1="666.3147603186644" y1="131.7672678582312" x2="811.2030015545315" y2="222.78437848544854" stroke="#c084fc" stroke-width="1"/><line x1="873.5581827094393" y1="335.17433740328215" x2="811.2030015545315" y2="222.78437848544854" stroke="#c084fc" stroke-width="1"/>
            </g>
            <circle cx="498.5231113158079" cy="298.6428325923953" r="4.457295345971943" fill="#c084fc"/><circle cx="523.695265878996" cy="371.39745631698133" r="4.792727941239718" fill="#c084fc"/><circle cx="789.5207131216011" cy="274.0821253612012" r="5.918330962758773" fill="#c084fc"/><circle cx="758.006227075748" cy="171.50687119428767" r="9.534900219841802" fill="#c084fc"/><circle cx="571.7105397070554" cy="388.8551065549109" r="11.658777164411731" fill="#c084fc"/><circle cx="666.3147603186644" cy="131.7672678582312" r="4.295982989628101" fill="#c084fc"/><circle cx="873.5581827094393" cy="335.17433740328215" r="7.633434067374765" fill="#c084fc"/><circle cx="811.2030015545315" cy="222.78437848544854" r="11.741363003689912" fill="#c084fc"/>
        
        <text x="600" y="520" font-family="Segoe UI, Arial" font-size="38" font-weight="800" fill="#f8fafc" text-anchor="middle">Creating Adaptive UI Components that Respond to User Beha...</text>
    </svg>