<svg width="1200" height="600" viewBox="0 0 1200 600" xmlns="http://www.w3.org/2000/svg">
        <rect width="1200" height="600" fill="#111827"/><path d="M 92.00190181500147 312.26647026226146 L 53.513685575398995 362.26647026226146 L 120.46512135875673 412.26647026226146" stroke="#10b981" fill="none" opacity="0.4"/>
                    <circle cx="92.00190181500147" cy="312.26647026226146" r="3" fill="#fbbf24"/><path d="M 73.67012156046258 209.46050173770345 L 119.02072654356743 259.46050173770345 L 86.60026817397011 309.46050173770345" stroke="#10b981" fill="none" opacity="0.4"/>
                    <circle cx="73.67012156046258" cy="209.46050173770345" r="3" fill="#fbbf24"/><path d="M 139.0855992496654 255.90843485915684 L 173.0588082988561 305.90843485915684 L 163.3147619651936 355.90843485915684" stroke="#10b981" fill="none" opacity="0.4"/>
                    <circle cx="139.0855992496654" cy="255.90843485915684" r="3" fill="#fbbf24"/><path d="M 1083.5082318968489 368.7034206392127 L 1086.262627114229 418.7034206392127 L 1100.561159712015 468.7034206392127" stroke="#10b981" fill="none" opacity="0.4"/>
                    <circle cx="1083.5082318968489" cy="368.7034206392127" r="3" fill="#fbbf24"/><path d="M 628.4639145724213 82.26294954147306 L 614.9432161675577 132.26294954147306 L 625.158269993517 182.26294954147306" stroke="#10b981" fill="none" opacity="0.4"/>
                    <circle cx="628.4639145724213" cy="82.26294954147306" r="3" fill="#fbbf24"/><path d="M 126.86100474656996 61.83443308673304 L 148.533874273744 111.83443308673304 L 147.39352363576472 161.83443308673304" stroke="#10b981" fill="none" opacity="0.4"/>
                    <circle cx="126.86100474656996" cy="61.83443308673304" r="3" fill="#fbbf24"/><path d="M 589.8923091313918 325.1790355410776 L 551.8696838931646 375.1790355410776 L 565.2328660064995 425.1790355410776" stroke="#10b981" fill="none" opacity="0.4"/>
                    <circle cx="589.8923091313918" cy="325.1790355410776" r="3" fill="#fbbf24"/><path d="M 152.46656319941394 135.18605383505928 L 159.04740270507318 185.18605383505928 L 187.5894474262168 235.18605383505928" stroke="#10b981" fill="none" opacity="0.4"/>
                    <circle cx="152.46656319941394" cy="135.18605383505928" r="3" fill="#fbbf24"/><path d="M 1192.5101875523978 254.91196442089858 L 1152.8638323856285 304.9119644208986 L 1233.515877587888 354.9119644208986" stroke="#10b981" fill="none" opacity="0.4"/>
                    <circle cx="1192.5101875523978" cy="254.91196442089858" r="3" fill="#fbbf24"/><path d="M 326.36849935406644 320.97139546058315 L 349.67357046643883 370.97139546058315 L 352.23131356106023 420.97139546058315" stroke="#10b981" fill="none" opacity="0.4"/>
                    <circle cx="326.36849935406644" cy="320.97139546058315" r="3" fill="#fbbf24"/>
        <text x="600" y="520" font-family="Segoe UI, Arial, sans-serif" font-size="38" font-weight="800" fill="#ffffff" text-anchor="middle">Creating Seamless Multi-Device Experiences: Designing for...</text>
        <text x="600" y="560" font-family="Segoe UI, Arial, sans-serif" font-size="16" font-weight="600" fill="#10b981" text-anchor="middle" style="letter-spacing: 4px; text-transform: uppercase;">UI UX Powerhouse • Specialized Series</text>
    </svg>