<svg width="1200" height="600" viewBox="0 0 1200 600" xmlns="http://www.w3.org/2000/svg">
            <rect width="1200" height="600" fill="#171717"/><rect x="150" y="101.14356436206435" width="60" height="248.85643563793565" fill="#f59e0b" opacity="0.6"/>
                    <rect x="170" y="81.14356436206435" width="60" height="248.85643563793565" fill="#fbbf24" opacity="0.4" transform="skewY(-20)"/><rect x="270" y="220.00730105439743" width="60" height="129.99269894560257" fill="#f59e0b" opacity="0.6"/>
                    <rect x="290" y="200.00730105439743" width="60" height="129.99269894560257" fill="#fbbf24" opacity="0.4" transform="skewY(-20)"/><rect x="390" y="158.14266622401192" width="60" height="191.85733377598808" fill="#f59e0b" opacity="0.6"/>
                    <rect x="410" y="138.14266622401192" width="60" height="191.85733377598808" fill="#fbbf24" opacity="0.4" transform="skewY(-20)"/><rect x="510" y="162.76745485465653" width="60" height="187.23254514534347" fill="#f59e0b" opacity="0.6"/>
                    <rect x="530" y="142.76745485465653" width="60" height="187.23254514534347" fill="#fbbf24" opacity="0.4" transform="skewY(-20)"/><rect x="630" y="299.2845920759464" width="60" height="50.71540792405358" fill="#f59e0b" opacity="0.6"/>
                    <rect x="650" y="279.2845920759464" width="60" height="50.71540792405358" fill="#fbbf24" opacity="0.4" transform="skewY(-20)"/><rect x="750" y="128.05458811171775" width="60" height="221.94541188828225" fill="#f59e0b" opacity="0.6"/>
                    <rect x="770" y="108.05458811171775" width="60" height="221.94541188828225" fill="#fbbf24" opacity="0.4" transform="skewY(-20)"/><rect x="870" y="290.6099860880204" width="60" height="59.39001391197962" fill="#f59e0b" opacity="0.6"/>
                    <rect x="890" y="270.6099860880204" width="60" height="59.39001391197962" fill="#fbbf24" opacity="0.4" transform="skewY(-20)"/><rect x="990" y="281.1123773422878" width="60" height="68.8876226577122" fill="#f59e0b" opacity="0.6"/>
                    <rect x="1010" y="261.1123773422878" width="60" height="68.8876226577122" fill="#fbbf24" opacity="0.4" transform="skewY(-20)"/>
            <text x="600" y="520" font-family="Segoe UI, Arial, sans-serif" font-size="38" font-weight="800" fill="#ffffff" text-anchor="middle">Creating Emotionally Responsive Web Interfaces: Leveragin...</text>
            <text x="600" y="560" font-family="Segoe UI, Arial, sans-serif" font-size="16" font-weight="600" fill="#f59e0b" text-anchor="middle" style="letter-spacing: 4px; text-transform: uppercase;">UI UX Powerhouse • Specialized Series</text>
        </svg>