<svg width="1200" height="600" viewBox="0 0 1200 600" xmlns="http://www.w3.org/2000/svg">
        <rect width="1200" height="600" fill="#0c4a6e"/>
                <line x1="0" y1="0" x2="0" y2="400" stroke="#7dd3fc" opacity="0.1"/><line x1="100" y1="0" x2="100" y2="400" stroke="#7dd3fc" opacity="0.1"/><line x1="200" y1="0" x2="200" y2="400" stroke="#7dd3fc" opacity="0.1"/><line x1="300" y1="0" x2="300" y2="400" stroke="#7dd3fc" opacity="0.1"/><line x1="400" y1="0" x2="400" y2="400" stroke="#7dd3fc" opacity="0.1"/><line x1="500" y1="0" x2="500" y2="400" stroke="#7dd3fc" opacity="0.1"/><line x1="600" y1="0" x2="600" y2="400" stroke="#7dd3fc" opacity="0.1"/><line x1="700" y1="0" x2="700" y2="400" stroke="#7dd3fc" opacity="0.1"/><line x1="800" y1="0" x2="800" y2="400" stroke="#7dd3fc" opacity="0.1"/><line x1="900" y1="0" x2="900" y2="400" stroke="#7dd3fc" opacity="0.1"/><line x1="1000" y1="0" x2="1000" y2="400" stroke="#7dd3fc" opacity="0.1"/><line x1="1100" y1="0" x2="1100" y2="400" stroke="#7dd3fc" opacity="0.1"/>
                <rect x="300" y="100" width="600" height="200" fill="none" stroke="#f43f5e" stroke-width="2"/>
                <text x="310" y="120" font-family="monospace" font-size="12" fill="#f43f5e">W: 600px</text>
                <text x="910" y="200" font-family="monospace" font-size="12" fill="#f43f5e" transform="rotate(90 910 200)">H: 200px</text>
        <text x="600" y="520" font-family="Segoe UI, Arial, sans-serif" font-size="38" font-weight="800" fill="#ffffff" text-anchor="middle">Creating Adaptive Data Visualizations for Real-Time Analy...</text>
        <text x="600" y="560" font-family="Segoe UI, Arial, sans-serif" font-size="16" font-weight="600" fill="#7dd3fc" text-anchor="middle" style="letter-spacing: 4px; text-transform: uppercase;">UI UX Powerhouse • Specialized Series</text>
    </svg>