<svg width="1200" height="600" viewBox="0 0 1200 600" xmlns="http://www.w3.org/2000/svg">
            <rect width="1200" height="600" fill="#0f172a"/><circle cx="200.69161423598416" cy="155.31065375234903" r="13.958153672792832" fill="#38bdf8" opacity="0.1"/><circle cx="232.6347096819518" cy="312.15983059373684" r="48.47042772686109" fill="#38bdf8" opacity="0.1"/><circle cx="856.4953860117271" cy="125.82892069985974" r="13.224326886193012" fill="#38bdf8" opacity="0.1"/><circle cx="853.8456092861452" cy="56.823362026898394" r="24.516594645248233" fill="#38bdf8" opacity="0.1"/><circle cx="461.3150695400691" cy="80.8837970609602" r="35.51629481720738" fill="#38bdf8" opacity="0.1"/><circle cx="616.3465098557936" cy="195.95646689995192" r="14.449131661604042" fill="#38bdf8" opacity="0.1"/><circle cx="386.1664223099069" cy="41.653136115928646" r="36.29148819789407" fill="#38bdf8" opacity="0.1"/><circle cx="78.38601709154318" cy="284.15119766286807" r="23.94709864493052" fill="#38bdf8" opacity="0.1"/><circle cx="57.14464716511429" cy="303.6374021685333" r="39.10081717534922" fill="#38bdf8" opacity="0.1"/><circle cx="16.845957895020547" cy="295.37593008062686" r="43.37600803035457" fill="#38bdf8" opacity="0.1"/><circle cx="1050.3113503400527" cy="51.05094330065185" r="31.8527205317514" fill="#38bdf8" opacity="0.1"/><circle cx="53.97117092461485" cy="302.05976740908227" r="32.693810566779575" fill="#38bdf8" opacity="0.1"/><circle cx="400.2641701106768" cy="38.119373580411775" r="21.38756140055193" fill="#38bdf8" opacity="0.1"/><circle cx="157.85963422604254" cy="331.6201720797835" r="37.0990264377906" fill="#38bdf8" opacity="0.1"/><circle cx="1091.8636034170504" cy="169.72844020092452" r="20.80367955379188" fill="#38bdf8" opacity="0.1"/><circle cx="1074.703732656144" cy="22.82009768878197" r="28.172768761214684" fill="#38bdf8" opacity="0.1"/><circle cx="433.26753692599596" cy="91.99139364427538" r="11.327051271873643" fill="#38bdf8" opacity="0.1"/><circle cx="365.61379388126625" cy="309.01218974686344" r="15.522539436533407" fill="#38bdf8" opacity="0.1"/><circle cx="761.3253373182488" cy="40.950566175888525" r="32.3061990129645" fill="#38bdf8" opacity="0.1"/><circle cx="867.3451609765834" cy="71.39043813003809" r="39.332290207385086" fill="#38bdf8" opacity="0.1"/><circle cx="767.3008025532909" cy="121.67512512023677" r="17.10902474114846" fill="#38bdf8" opacity="0.1"/><circle cx="926.0384222980065" cy="38.140296987694455" r="36.82245016665547" fill="#38bdf8" opacity="0.1"/><circle cx="990.1425314288645" cy="32.009093685337575" r="12.776103259457159" fill="#38bdf8" opacity="0.1"/><circle cx="762.652259778406" cy="230.69217972733895" r="14.950390347075881" fill="#38bdf8" opacity="0.1"/><circle cx="372.3762303387048" cy="192.6092374313157" r="40.97529183383813" fill="#38bdf8" opacity="0.1"/><circle cx="873.6781868052731" cy="31.781373716464145" r="41.23281720276282" fill="#38bdf8" opacity="0.1"/><circle cx="472.88861620254465" cy="357.2445265039278" r="42.95418547480949" fill="#38bdf8" opacity="0.1"/><circle cx="497.15336569570354" cy="281.79117868894537" r="33.92743639618857" fill="#38bdf8" opacity="0.1"/><circle cx="213.82239844133437" cy="198.5385037791275" r="20.399364365694055" fill="#38bdf8" opacity="0.1"/><circle cx="382.94314952290733" cy="192.7272117951361" r="34.09475100510463" fill="#38bdf8" opacity="0.1"/>
            <text x="600" y="520" font-family="Segoe UI, Arial, sans-serif" font-size="38" font-weight="800" fill="#ffffff" text-anchor="middle">Creating Adaptive Accessibility Features for Gesture-Base...</text>
            <text x="600" y="560" font-family="Segoe UI, Arial, sans-serif" font-size="16" font-weight="600" fill="#38bdf8" text-anchor="middle" style="letter-spacing: 4px; text-transform: uppercase;">UI UX Powerhouse • Specialized Series</text>
        </svg>