<svg width="1200" height="600" viewBox="0 0 1200 600" xmlns="http://www.w3.org/2000/svg">
        <rect width="1200" height="600" fill="#0f172a"/><circle cx="687.8192883039446" cy="125.32180808307203" r="31.57041997081251" fill="#38bdf8" opacity="0.1"/><circle cx="422.9263768025703" cy="314.81330174356117" r="25.23234745089667" fill="#38bdf8" opacity="0.1"/><circle cx="165.69410361807968" cy="254.4613143292736" r="38.39761856223049" fill="#38bdf8" opacity="0.1"/><circle cx="562.7220083959401" cy="83.37338177407219" r="26.404997811805515" fill="#38bdf8" opacity="0.1"/><circle cx="787.4797112639499" cy="95.64110865758266" r="47.98788237923873" fill="#38bdf8" opacity="0.1"/><circle cx="727.9112452451955" cy="232.21167872252408" r="40.480191110182204" fill="#38bdf8" opacity="0.1"/><circle cx="480.4950461549197" cy="190.958871699695" r="10.028678085000138" fill="#38bdf8" opacity="0.1"/><circle cx="445.0201123199804" cy="191.2313879305657" r="25.141288288741634" fill="#38bdf8" opacity="0.1"/><circle cx="986.7245587593061" cy="277.5048337862245" r="23.582496801354864" fill="#38bdf8" opacity="0.1"/><circle cx="675.5133321756148" cy="229.92705433607625" r="16.628090029480518" fill="#38bdf8" opacity="0.1"/><circle cx="416.20732344526914" cy="187.17295194001053" r="16.473531003430253" fill="#38bdf8" opacity="0.1"/><circle cx="410.3124545150422" cy="165.1221876622003" r="10.781837941685808" fill="#38bdf8" opacity="0.1"/><circle cx="532.5559709654044" cy="272.1297168531237" r="31.022212262105313" fill="#38bdf8" opacity="0.1"/><circle cx="424.72206187339907" cy="121.906077087624" r="41.75188230568892" fill="#38bdf8" opacity="0.1"/><circle cx="689.1633586332318" cy="14.69615102323587" r="28.534701260068687" fill="#38bdf8" opacity="0.1"/><circle cx="1079.6824618013488" cy="114.61862833184568" r="17.854354328610498" fill="#38bdf8" opacity="0.1"/><circle cx="331.22070358986093" cy="180.92879240357433" r="13.966008725910797" fill="#38bdf8" opacity="0.1"/><circle cx="985.9781934050261" cy="363.1460310636612" r="12.547473069826083" fill="#38bdf8" opacity="0.1"/><circle cx="898.3654198840668" cy="1.8576181370008271" r="45.70258741863654" fill="#38bdf8" opacity="0.1"/><circle cx="933.2646663373453" cy="131.99543458131302" r="26.679690800301614" fill="#38bdf8" opacity="0.1"/><circle cx="290.37740204330476" cy="54.1203932971257" r="45.37511501668632" fill="#38bdf8" opacity="0.1"/><circle cx="250.36336538905744" cy="54.09651012159884" r="37.67845776161266" fill="#38bdf8" opacity="0.1"/><circle cx="10.295803616463672" cy="192.15194610696926" r="30.429644734613248" fill="#38bdf8" opacity="0.1"/><circle cx="974.7403608838795" cy="49.151254119351506" r="24.093339425890008" fill="#38bdf8" opacity="0.1"/><circle cx="736.6093139713485" cy="261.9561033665377" r="37.36390326783294" fill="#38bdf8" opacity="0.1"/><circle cx="465.5198446669601" cy="212.1643254369701" r="15.930885726884298" fill="#38bdf8" opacity="0.1"/><circle cx="939.5146374690739" cy="165.1042219134979" r="26.31710124849633" fill="#38bdf8" opacity="0.1"/><circle cx="508.55131178141164" cy="305.49037682430935" r="45.23577125852171" fill="#38bdf8" opacity="0.1"/><circle cx="822.787302312554" cy="208.09136608586414" r="43.00919465975312" fill="#38bdf8" opacity="0.1"/><circle cx="1033.498936934484" cy="184.44141392901656" r="15.635591285172268" fill="#38bdf8" opacity="0.1"/>
        <text x="600" y="520" font-family="Segoe UI, Arial, sans-serif" font-size="38" font-weight="800" fill="#ffffff" text-anchor="middle">Creating Adaptive Layouts for Data-Heavy Dashboards Using...</text>
        <text x="600" y="560" font-family="Segoe UI, Arial, sans-serif" font-size="16" font-weight="600" fill="#38bdf8" text-anchor="middle" style="letter-spacing: 4px; text-transform: uppercase;">UI UX Powerhouse • Specialized Series</text>
    </svg>