<svg width="1200" height="600" viewBox="0 0 1200 600" xmlns="http://www.w3.org/2000/svg">
        <rect width="1200" height="600" fill="#0c4a6e"/><rect x="150" y="101.08134299248235" width="60" height="248.91865700751765" fill="#7dd3fc" opacity="0.6"/>
                    <rect x="170" y="81.08134299248235" width="60" height="248.91865700751765" fill="#38bdf8" opacity="0.4" transform="skewY(-20)"/><rect x="270" y="292.6865846808141" width="60" height="57.31341531918588" fill="#7dd3fc" opacity="0.6"/>
                    <rect x="290" y="272.6865846808141" width="60" height="57.31341531918588" fill="#38bdf8" opacity="0.4" transform="skewY(-20)"/><rect x="390" y="243.0427188945032" width="60" height="106.9572811054968" fill="#7dd3fc" opacity="0.6"/>
                    <rect x="410" y="223.0427188945032" width="60" height="106.9572811054968" fill="#38bdf8" opacity="0.4" transform="skewY(-20)"/><rect x="510" y="149.31261112060383" width="60" height="200.68738887939617" fill="#7dd3fc" opacity="0.6"/>
                    <rect x="530" y="129.31261112060383" width="60" height="200.68738887939617" fill="#38bdf8" opacity="0.4" transform="skewY(-20)"/><rect x="630" y="132.86373161681695" width="60" height="217.13626838318305" fill="#7dd3fc" opacity="0.6"/>
                    <rect x="650" y="112.86373161681695" width="60" height="217.13626838318305" fill="#38bdf8" opacity="0.4" transform="skewY(-20)"/><rect x="750" y="188.00941747367688" width="60" height="161.99058252632312" fill="#7dd3fc" opacity="0.6"/>
                    <rect x="770" y="168.00941747367688" width="60" height="161.99058252632312" fill="#38bdf8" opacity="0.4" transform="skewY(-20)"/><rect x="870" y="179.85344700728092" width="60" height="170.14655299271908" fill="#7dd3fc" opacity="0.6"/>
                    <rect x="890" y="159.85344700728092" width="60" height="170.14655299271908" fill="#38bdf8" opacity="0.4" transform="skewY(-20)"/><rect x="990" y="168.92227281364285" width="60" height="181.07772718635715" fill="#7dd3fc" opacity="0.6"/>
                    <rect x="1010" y="148.92227281364285" width="60" height="181.07772718635715" fill="#38bdf8" opacity="0.4" transform="skewY(-20)"/>
        <text x="600" y="520" font-family="Segoe UI, Arial, sans-serif" font-size="38" font-weight="800" fill="#ffffff" text-anchor="middle">Creating Adaptive User Onboarding Experiences for Progres...</text>
        <text x="600" y="560" font-family="Segoe UI, Arial, sans-serif" font-size="16" font-weight="600" fill="#7dd3fc" text-anchor="middle" style="letter-spacing: 4px; text-transform: uppercase;">UI UX Powerhouse • Specialized Series</text>
    </svg>