<svg width="1200" height="600" viewBox="0 0 1200 600" xmlns="http://www.w3.org/2000/svg">
            <rect width="1200" height="600" fill="#0f172a"/><circle cx="895.1948025391175" cy="230.39474718848396" r="23.70212529458513" fill="#38bdf8" opacity="0.1"/><circle cx="529.2132357877563" cy="182.5264870076353" r="25.440956839593127" fill="#38bdf8" opacity="0.1"/><circle cx="702.9255404951982" cy="62.26207994077413" r="13.996690655003476" fill="#38bdf8" opacity="0.1"/><circle cx="899.1035820159595" cy="149.40336187512457" r="21.922972264474083" fill="#38bdf8" opacity="0.1"/><circle cx="351.78275528214726" cy="39.71578175696777" r="42.38040740710858" fill="#38bdf8" opacity="0.1"/><circle cx="828.709703462664" cy="188.1281746982495" r="13.378596387519792" fill="#38bdf8" opacity="0.1"/><circle cx="1131.0442021444032" cy="122.75179924545228" r="15.534157189188136" fill="#38bdf8" opacity="0.1"/><circle cx="771.8298942896581" cy="128.2204630180786" r="11.924986023514066" fill="#38bdf8" opacity="0.1"/><circle cx="529.40645781473" cy="105.90620359871536" r="13.462526846778928" fill="#38bdf8" opacity="0.1"/><circle cx="285.72765480857925" cy="379.4403037678421" r="24.99437330632645" fill="#38bdf8" opacity="0.1"/><circle cx="4.10102571945572" cy="141.11531618964364" r="10.208497107687435" fill="#38bdf8" opacity="0.1"/><circle cx="928.0855577584589" cy="391.1655829037045" r="14.579646731399407" fill="#38bdf8" opacity="0.1"/><circle cx="542.2525522881187" cy="132.20116246575344" r="20.055588675531908" fill="#38bdf8" opacity="0.1"/><circle cx="84.12995184335159" cy="227.81829274899792" r="13.19963070578524" fill="#38bdf8" opacity="0.1"/><circle cx="1182.1885892335558" cy="137.69413038171479" r="38.28882803019951" fill="#38bdf8" opacity="0.1"/><circle cx="83.20689068241336" cy="287.25455960466206" r="40.595181355984096" fill="#38bdf8" opacity="0.1"/><circle cx="359.17223517171806" cy="356.2590357127192" r="30.20628289115848" fill="#38bdf8" opacity="0.1"/><circle cx="711.3134633313166" cy="343.0950282556296" r="27.789814885993565" fill="#38bdf8" opacity="0.1"/><circle cx="1023.6822587339702" cy="225.22318718638417" r="22.624511659778364" fill="#38bdf8" opacity="0.1"/><circle cx="179.8514618541958" cy="265.8321508610243" r="41.79264415448415" fill="#38bdf8" opacity="0.1"/><circle cx="152.31770460886764" cy="270.7051895442419" r="49.75706641947909" fill="#38bdf8" opacity="0.1"/><circle cx="1178.4509867322413" cy="120.62838305864716" r="15.90717471386597" fill="#38bdf8" opacity="0.1"/><circle cx="339.96573540025565" cy="69.56011904148909" r="46.48550455829536" fill="#38bdf8" opacity="0.1"/><circle cx="66.10275658404134" cy="6.754686014755862" r="21.466143874567933" fill="#38bdf8" opacity="0.1"/><circle cx="428.4413986661093" cy="359.3672976037851" r="21.80575742488145" fill="#38bdf8" opacity="0.1"/><circle cx="509.1648332112527" cy="223.14408157435537" r="41.37070725966623" fill="#38bdf8" opacity="0.1"/><circle cx="367.2955584486772" cy="248.51664092202554" r="40.083252149197506" fill="#38bdf8" opacity="0.1"/><circle cx="797.3621134646237" cy="107.973237733313" r="22.599793311728718" fill="#38bdf8" opacity="0.1"/><circle cx="43.7419371206488" cy="124.94988987327815" r="45.94512312585721" fill="#38bdf8" opacity="0.1"/><circle cx="1167.9245351500867" cy="250.86061508955027" r="42.37112848510151" fill="#38bdf8" opacity="0.1"/>
            <text x="600" y="520" font-family="Segoe UI, Arial, sans-serif" font-size="38" font-weight="800" fill="#ffffff" text-anchor="middle">Creating Emergent Microinteractions: How AI Can Tailor Dy...</text>
            <text x="600" y="560" font-family="Segoe UI, Arial, sans-serif" font-size="16" font-weight="600" fill="#38bdf8" text-anchor="middle" style="letter-spacing: 4px; text-transform: uppercase;">UI UX Powerhouse • Specialized Series</text>
        </svg>