<svg width="1200" height="600" viewBox="0 0 1200 600" xmlns="http://www.w3.org/2000/svg">
        <rect width="1200" height="600" fill="#0c4a6e"/><path d="M 96.4023008105869 143.93564191232144 L 103.33167823428084 193.93564191232144 L 58.653700704144285 243.93564191232144" stroke="#7dd3fc" fill="none" opacity="0.4"/>
                    <circle cx="96.4023008105869" cy="143.93564191232144" r="3" fill="#f43f5e"/><path d="M 345.05343090058886 167.72165979782585 L 328.43321175996607 217.72165979782585 L 387.78919989290443 267.72165979782585" stroke="#7dd3fc" fill="none" opacity="0.4"/>
                    <circle cx="345.05343090058886" cy="167.72165979782585" r="3" fill="#f43f5e"/><path d="M 269.86578155629104 143.87441468134057 L 284.6317650781202 193.87441468134057 L 273.3585991500149 243.87441468134057" stroke="#7dd3fc" fill="none" opacity="0.4"/>
                    <circle cx="269.86578155629104" cy="143.87441468134057" r="3" fill="#f43f5e"/><path d="M 286.29141063211136 138.8394422865531 L 299.4327201120541 188.8394422865531 L 257.1678323240121 238.8394422865531" stroke="#7dd3fc" fill="none" opacity="0.4"/>
                    <circle cx="286.29141063211136" cy="138.8394422865531" r="3" fill="#f43f5e"/><path d="M 200.3435026126681 176.3039778743405 L 169.76960523898015 226.3039778743405 L 214.8971333407644 276.3039778743405" stroke="#7dd3fc" fill="none" opacity="0.4"/>
                    <circle cx="200.3435026126681" cy="176.3039778743405" r="3" fill="#f43f5e"/><path d="M 442.56619181251153 235.38284152309643 L 481.6585883515472 285.38284152309643 L 414.79944358789 335.38284152309643" stroke="#7dd3fc" fill="none" opacity="0.4"/>
                    <circle cx="442.56619181251153" cy="235.38284152309643" r="3" fill="#f43f5e"/><path d="M 1179.1794035882049 70.34066260421241 L 1174.3862154345948 120.34066260421241 L 1131.689785706567 170.3406626042124" stroke="#7dd3fc" fill="none" opacity="0.4"/>
                    <circle cx="1179.1794035882049" cy="70.34066260421241" r="3" fill="#f43f5e"/><path d="M 839.5420439970621 26.018418440617097 L 824.3930844250826 76.0184184406171 L 832.3133918698659 126.0184184406171" stroke="#7dd3fc" fill="none" opacity="0.4"/>
                    <circle cx="839.5420439970621" cy="26.018418440617097" r="3" fill="#f43f5e"/><path d="M 1058.9881135376345 395.7653509471129 L 1016.6280307539637 445.7653509471129 L 1083.9345995720578 495.7653509471129" stroke="#7dd3fc" fill="none" opacity="0.4"/>
                    <circle cx="1058.9881135376345" cy="395.7653509471129" r="3" fill="#f43f5e"/><path d="M 1043.6521443989477 310.54231136213275 L 1042.5173867973626 360.54231136213275 L 1080.8645806157074 410.54231136213275" stroke="#7dd3fc" fill="none" opacity="0.4"/>
                    <circle cx="1043.6521443989477" cy="310.54231136213275" r="3" fill="#f43f5e"/>
        <text x="600" y="520" font-family="Segoe UI, Arial, sans-serif" font-size="38" font-weight="800" fill="#ffffff" text-anchor="middle">Creating Adaptive Data Visualizations for Real-Time Analy...</text>
        <text x="600" y="560" font-family="Segoe UI, Arial, sans-serif" font-size="16" font-weight="600" fill="#7dd3fc" text-anchor="middle" style="letter-spacing: 4px; text-transform: uppercase;">UI UX Powerhouse • Specialized Series</text>
    </svg>