<svg width="1200" height="600" viewBox="0 0 1200 600" xmlns="http://www.w3.org/2000/svg">
            <rect width="1200" height="600" fill="#0c4a6e"/><path d="M 928.8271782395896 341.80344642009004 L 900.253953689662 391.80344642009004 L 894.74363572117 441.80344642009004" stroke="#7dd3fc" fill="none" opacity="0.4"/>
                    <circle cx="928.8271782395896" cy="341.80344642009004" r="3" fill="#f43f5e"/><path d="M 1142.4255797941441 66.04324887703115 L 1104.5551490146863 116.04324887703115 L 1185.2595695630953 166.04324887703115" stroke="#7dd3fc" fill="none" opacity="0.4"/>
                    <circle cx="1142.4255797941441" cy="66.04324887703115" r="3" fill="#f43f5e"/><path d="M 550.9976268724131 251.6293377504553 L 501.9068200221227 301.6293377504553 L 507.3186752253605 351.6293377504553" stroke="#7dd3fc" fill="none" opacity="0.4"/>
                    <circle cx="550.9976268724131" cy="251.6293377504553" r="3" fill="#f43f5e"/><path d="M 1086.7889915149135 141.58277849128353 L 1077.1350221581088 191.58277849128353 L 1130.8298738302256 241.58277849128353" stroke="#7dd3fc" fill="none" opacity="0.4"/>
                    <circle cx="1086.7889915149135" cy="141.58277849128353" r="3" fill="#f43f5e"/><path d="M 220.51111875625793 208.8584817611263 L 196.4464977406351 258.8584817611263 L 204.24031139700674 308.8584817611263" stroke="#7dd3fc" fill="none" opacity="0.4"/>
                    <circle cx="220.51111875625793" cy="208.8584817611263" r="3" fill="#f43f5e"/><path d="M 192.86372912029037 307.4172619621095 L 235.92048360187619 357.4172619621095 L 201.41190138456295 407.4172619621095" stroke="#7dd3fc" fill="none" opacity="0.4"/>
                    <circle cx="192.86372912029037" cy="307.4172619621095" r="3" fill="#f43f5e"/><path d="M 998.8254333347868 119.08825654154498 L 967.2147081860203 169.08825654154498 L 958.1766390027042 219.08825654154498" stroke="#7dd3fc" fill="none" opacity="0.4"/>
                    <circle cx="998.8254333347868" cy="119.08825654154498" r="3" fill="#f43f5e"/><path d="M 125.59198757444392 62.240239113452844 L 134.6637956228733 112.24023911345284 L 156.79023293569117 162.24023911345284" stroke="#7dd3fc" fill="none" opacity="0.4"/>
                    <circle cx="125.59198757444392" cy="62.240239113452844" r="3" fill="#f43f5e"/><path d="M 1159.7600057888485 312.4522578095821 L 1159.1803634753887 362.4522578095821 L 1122.3527578024004 412.4522578095821" stroke="#7dd3fc" fill="none" opacity="0.4"/>
                    <circle cx="1159.7600057888485" cy="312.4522578095821" r="3" fill="#f43f5e"/><path d="M 873.0129982897779 91.00434692227282 L 913.2731880080883 141.00434692227282 L 913.559375362388 191.00434692227282" stroke="#7dd3fc" fill="none" opacity="0.4"/>
                    <circle cx="873.0129982897779" cy="91.00434692227282" r="3" fill="#f43f5e"/>
            <text x="600" y="520" font-family="Segoe UI, Arial, sans-serif" font-size="38" font-weight="800" fill="#ffffff" text-anchor="middle">Designing for the Unseen: Leveraging AI for Anticipatory ...</text>
            <text x="600" y="560" font-family="Segoe UI, Arial, sans-serif" font-size="16" font-weight="600" fill="#7dd3fc" text-anchor="middle" style="letter-spacing: 4px; text-transform: uppercase;">UI UX Powerhouse • Specialized Series</text>
        </svg>