<svg width="1200" height="600" viewBox="0 0 1200 600" xmlns="http://www.w3.org/2000/svg">
            <rect width="1200" height="600" fill="#2e1065"/><rect x="150" y="275.6073180720705" width="60" height="74.39268192792952" fill="#d8b4fe" opacity="0.6"/>
                    <rect x="170" y="255.60731807207048" width="60" height="74.39268192792952" fill="#a855f7" opacity="0.4" transform="skewY(-20)"/><rect x="270" y="297.4575056035974" width="60" height="52.54249439640262" fill="#d8b4fe" opacity="0.6"/>
                    <rect x="290" y="277.4575056035974" width="60" height="52.54249439640262" fill="#a855f7" opacity="0.4" transform="skewY(-20)"/><rect x="390" y="219.16951323692047" width="60" height="130.83048676307953" fill="#d8b4fe" opacity="0.6"/>
                    <rect x="410" y="199.16951323692047" width="60" height="130.83048676307953" fill="#a855f7" opacity="0.4" transform="skewY(-20)"/><rect x="510" y="270.92978388027404" width="60" height="79.07021611972596" fill="#d8b4fe" opacity="0.6"/>
                    <rect x="530" y="250.92978388027404" width="60" height="79.07021611972596" fill="#a855f7" opacity="0.4" transform="skewY(-20)"/><rect x="630" y="218.5643469554634" width="60" height="131.4356530445366" fill="#d8b4fe" opacity="0.6"/>
                    <rect x="650" y="198.5643469554634" width="60" height="131.4356530445366" fill="#a855f7" opacity="0.4" transform="skewY(-20)"/><rect x="750" y="118.11646449468753" width="60" height="231.88353550531247" fill="#d8b4fe" opacity="0.6"/>
                    <rect x="770" y="98.11646449468753" width="60" height="231.88353550531247" fill="#a855f7" opacity="0.4" transform="skewY(-20)"/><rect x="870" y="251.4464224826952" width="60" height="98.5535775173048" fill="#d8b4fe" opacity="0.6"/>
                    <rect x="890" y="231.4464224826952" width="60" height="98.5535775173048" fill="#a855f7" opacity="0.4" transform="skewY(-20)"/><rect x="990" y="240.03480401133857" width="60" height="109.96519598866143" fill="#d8b4fe" opacity="0.6"/>
                    <rect x="1010" y="220.03480401133857" width="60" height="109.96519598866143" fill="#a855f7" opacity="0.4" transform="skewY(-20)"/>
            <text x="600" y="520" font-family="Segoe UI, Arial, sans-serif" font-size="38" font-weight="800" fill="#ffffff" text-anchor="middle">Designing Adaptive Navigation for Progressive Web Apps: U...</text>
            <text x="600" y="560" font-family="Segoe UI, Arial, sans-serif" font-size="16" font-weight="600" fill="#d8b4fe" text-anchor="middle" style="letter-spacing: 4px; text-transform: uppercase;">UI UX Powerhouse • Specialized Series</text>
        </svg>