<svg width="1200" height="600" viewBox="0 0 1200 600" xmlns="http://www.w3.org/2000/svg">
        <rect width="1200" height="600" fill="#1e1b4b"/><rect x="150" y="177.9987217814778" width="60" height="172.0012782185222" fill="#f43f5e" opacity="0.6"/>
                    <rect x="170" y="157.9987217814778" width="60" height="172.0012782185222" fill="#fb7185" opacity="0.4" transform="skewY(-20)"/><rect x="270" y="297.55960725899513" width="60" height="52.44039274100487" fill="#f43f5e" opacity="0.6"/>
                    <rect x="290" y="277.55960725899513" width="60" height="52.44039274100487" fill="#fb7185" opacity="0.4" transform="skewY(-20)"/><rect x="390" y="208.4122742481668" width="60" height="141.5877257518332" fill="#f43f5e" opacity="0.6"/>
                    <rect x="410" y="188.4122742481668" width="60" height="141.5877257518332" fill="#fb7185" opacity="0.4" transform="skewY(-20)"/><rect x="510" y="216.0028228747251" width="60" height="133.9971771252749" fill="#f43f5e" opacity="0.6"/>
                    <rect x="530" y="196.0028228747251" width="60" height="133.9971771252749" fill="#fb7185" opacity="0.4" transform="skewY(-20)"/><rect x="630" y="108.38981594206416" width="60" height="241.61018405793584" fill="#f43f5e" opacity="0.6"/>
                    <rect x="650" y="88.38981594206416" width="60" height="241.61018405793584" fill="#fb7185" opacity="0.4" transform="skewY(-20)"/><rect x="750" y="106.0187476394276" width="60" height="243.9812523605724" fill="#f43f5e" opacity="0.6"/>
                    <rect x="770" y="86.0187476394276" width="60" height="243.9812523605724" fill="#fb7185" opacity="0.4" transform="skewY(-20)"/><rect x="870" y="251.86996122065466" width="60" height="98.13003877934534" fill="#f43f5e" opacity="0.6"/>
                    <rect x="890" y="231.86996122065466" width="60" height="98.13003877934534" fill="#fb7185" opacity="0.4" transform="skewY(-20)"/><rect x="990" y="290.82567163895874" width="60" height="59.17432836104126" fill="#f43f5e" opacity="0.6"/>
                    <rect x="1010" y="270.82567163895874" width="60" height="59.17432836104126" fill="#fb7185" opacity="0.4" transform="skewY(-20)"/>
        <text x="600" y="520" font-family="Segoe UI, Arial, sans-serif" font-size="38" font-weight="800" fill="#ffffff" text-anchor="middle">Designing Context-Aware Navigation Menus Using CSS Variab...</text>
        <text x="600" y="560" font-family="Segoe UI, Arial, sans-serif" font-size="16" font-weight="600" fill="#f43f5e" text-anchor="middle" style="letter-spacing: 4px; text-transform: uppercase;">UI UX Powerhouse • Specialized Series</text>
    </svg>