<?xml version="1.0" encoding="UTF-8"?>
<svg width="1200" height="600" xmlns="http://www.w3.org/2000/svg">
  <defs>
    <linearGradient id="bg" x1="0%" y1="0%" x2="100%" y2="100%">
      <stop offset="0%" style="stop-color:#ff9a9e;stop-opacity:1" />
      <stop offset="100%" style="stop-color:#fecfef;stop-opacity:1" />
    </linearGradient>
  </defs>
  
  <!-- Background -->
  <rect width="1200" height="600" fill="url(#bg)"/>
  
  <!-- Desktop device -->
  <rect x="100" y="150" width="420" height="260" rx="8" fill="#2c3e50"/>
  <rect x="110" y="160" width="400" height="220" fill="#ffffff"/>
  <rect x="110" y="160" width="400" height="30" fill="#f5f5f5"/>
  <rect x="290" y="390" width="60" height="8" rx="4" fill="#34495e"/>
  <rect x="250" y="398" width="140" height="20" rx="10" fill="#2c3e50"/>
  
  <!-- Desktop content -->
  <rect x="130" y="200" width="100" height="60" fill="#ff6b81"/>
  <rect x="130" y="270" width="360" height="8" fill="#e8e8e8"/>
  <rect x="130" y="290" width="360" height="8" fill="#e8e8e8"/>
  <rect x="130" y="310" width="280" height="8" fill="#e8e8e8"/>
  <rect x="250" y="200" width="100" height="60" fill="#74b9ff"/>
  <rect x="370" y="200" width="100" height="60" fill="#55efc4"/>
  
  <!-- Tablet device -->
  <rect x="600" y="180" width="260" height="340" rx="12" fill="#2c3e50"/>
  <rect x="615" y="210" width="230" height="280" fill="#ffffff"/>
  <circle cx="730" cy="505" r="15" fill="#34495e"/>
  
  <!-- Tablet content -->
  <rect x="635" y="230" width="80" height="50" fill="#ff6b81"/>
  <rect x="635" y="290" width="190" height="6" fill="#e8e8e8"/>
  <rect x="635" y="305" width="190" height="6" fill="#e8e8e8"/>
  <rect x="635" y="320" width="150" height="6" fill="#e8e8e8"/>
  <rect x="735" y="230" width="80" height="50" fill="#74b9ff"/>
  
  <!-- Mobile device -->
  <rect x="940" y="220" width="160" height="300" rx="16" fill="#2c3e50"/>
  <rect x="955" y="250" width="130" height="240" fill="#ffffff"/>
  <circle cx="1020" cy="510" r="12" fill="#34495e"/>
  
  <!-- Mobile content -->
  <rect x="970" y="265" width="100" height="40" fill="#ff6b81"/>
  <rect x="970" y="315" width="100" height="5" fill="#e8e8e8"/>
  <rect x="970" y="328" width="100" height="5" fill="#e8e8e8"/>
  <rect x="970" y="341" width="80" height="5" fill="#e8e8e8"/>
  
  <!-- Connecting lines showing responsiveness -->
  <path d="M 520 280 Q 560 280 600 300" fill="none" stroke="#ffffff" stroke-width="3" opacity="0.5"/>
  <path d="M 860 360 Q 900 360 940 380" fill="none" stroke="#ffffff" stroke-width="3" opacity="0.5"/>
  
  <!-- Title -->
  <text x="600" y="100" font-family="Arial" font-size="32" font-weight="bold" 
        fill="#ffffff" text-anchor="middle">Designing Adaptive Navigation Patterns for Multi-Dev...</text>
</svg>