<svg width="1200" height="600" viewBox="0 0 1200 600" xmlns="http://www.w3.org/2000/svg">
        <rect width="1200" height="600" fill="#171717"/><circle cx="848.4297254197372" cy="393.26495079367305" r="45.34297769991099" fill="#f59e0b" opacity="0.1"/><circle cx="163.8994278492646" cy="48.232510128218564" r="23.77351141811232" fill="#f59e0b" opacity="0.1"/><circle cx="491.0361017406103" cy="323.130063181452" r="23.96694367620512" fill="#f59e0b" opacity="0.1"/><circle cx="643.4494944529433" cy="266.9098360813223" r="28.702145096904133" fill="#f59e0b" opacity="0.1"/><circle cx="333.87710612937553" cy="197.58998550423712" r="30.163987918494968" fill="#f59e0b" opacity="0.1"/><circle cx="626.6716033082048" cy="48.61828241046169" r="15.615515059698737" fill="#f59e0b" opacity="0.1"/><circle cx="1023.7650832648796" cy="113.98743967001792" r="36.543314309674315" fill="#f59e0b" opacity="0.1"/><circle cx="251.52146407308464" cy="92.9677545093" r="23.845955450160545" fill="#f59e0b" opacity="0.1"/><circle cx="961.5558549579873" cy="349.07792259850794" r="28.02159042439598" fill="#f59e0b" opacity="0.1"/><circle cx="371.66883441022946" cy="340.94877230400016" r="29.492700371483807" fill="#f59e0b" opacity="0.1"/><circle cx="731.9499066409662" cy="64.805868010626" r="21.374323456366255" fill="#f59e0b" opacity="0.1"/><circle cx="413.3600354733062" cy="81.76276161575515" r="16.91324181134405" fill="#f59e0b" opacity="0.1"/><circle cx="31.942622766655404" cy="265.48240198608255" r="28.90025630582386" fill="#f59e0b" opacity="0.1"/><circle cx="887.8850715038425" cy="270.2152136427685" r="39.038906264631805" fill="#f59e0b" opacity="0.1"/><circle cx="1110.6089361492195" cy="127.20156503919497" r="12.273346319489065" fill="#f59e0b" opacity="0.1"/><circle cx="839.2827835334174" cy="232.81901035625197" r="11.310649163933704" fill="#f59e0b" opacity="0.1"/><circle cx="988.1967745372094" cy="246.71875657877536" r="10.515631342350389" fill="#f59e0b" opacity="0.1"/><circle cx="400.7156287196267" cy="205.73257398646092" r="16.184693487484765" fill="#f59e0b" opacity="0.1"/><circle cx="924.8605636712455" cy="30.5221254893695" r="22.267874947210657" fill="#f59e0b" opacity="0.1"/><circle cx="686.550863609591" cy="111.49367307225475" r="46.47097348479292" fill="#f59e0b" opacity="0.1"/><circle cx="504.70894603686247" cy="48.992782113055" r="40.19083724873781" fill="#f59e0b" opacity="0.1"/><circle cx="848.2695919257822" cy="329.74005060059426" r="43.16721623988997" fill="#f59e0b" opacity="0.1"/><circle cx="994.36952994065" cy="95.63387044736373" r="44.93638203915907" fill="#f59e0b" opacity="0.1"/><circle cx="645.3772550208669" cy="191.29776990903338" r="31.675763004022883" fill="#f59e0b" opacity="0.1"/><circle cx="975.4639759014026" cy="97.48510723438812" r="43.5150725112544" fill="#f59e0b" opacity="0.1"/><circle cx="802.2997045976808" cy="57.36341353112948" r="49.9296847597725" fill="#f59e0b" opacity="0.1"/><circle cx="470.5462313902899" cy="202.44155565032997" r="44.71269837747968" fill="#f59e0b" opacity="0.1"/><circle cx="38.028333071270026" cy="206.07684638071078" r="47.722914813275565" fill="#f59e0b" opacity="0.1"/><circle cx="37.22468631458469" cy="292.12939993353757" r="11.898904612812657" fill="#f59e0b" opacity="0.1"/><circle cx="179.08479985017038" cy="20.28943616824108" r="22.482428535004146" fill="#f59e0b" opacity="0.1"/>
        <text x="600" y="520" font-family="Segoe UI, Arial, sans-serif" font-size="38" font-weight="800" fill="#ffffff" text-anchor="middle">Designing for Microinteractions: Implementing Context-Awa...</text>
        <text x="600" y="560" font-family="Segoe UI, Arial, sans-serif" font-size="16" font-weight="600" fill="#f59e0b" text-anchor="middle" style="letter-spacing: 4px; text-transform: uppercase;">UI UX Powerhouse • Specialized Series</text>
    </svg>