<svg width="1200" height="600" viewBox="0 0 1200 600" xmlns="http://www.w3.org/2000/svg">
            <rect width="1200" height="600" fill="#0c4a6e"/><path d="M 101.93438588726167 256.1575744424772 L 103.9932898265306 306.1575744424772 L 148.68682181072472 356.1575744424772" stroke="#7dd3fc" fill="none" opacity="0.4"/>
                    <circle cx="101.93438588726167" cy="256.1575744424772" r="3" fill="#f43f5e"/><path d="M 152.72477470280137 213.6528231720149 L 116.18158616411165 263.6528231720149 L 178.10846611673696 313.6528231720149" stroke="#7dd3fc" fill="none" opacity="0.4"/>
                    <circle cx="152.72477470280137" cy="213.6528231720149" r="3" fill="#f43f5e"/><path d="M 746.6864628699113 345.8349185964835 L 766.9977413716765 395.8349185964835 L 769.1740951492648 445.8349185964835" stroke="#7dd3fc" fill="none" opacity="0.4"/>
                    <circle cx="746.6864628699113" cy="345.8349185964835" r="3" fill="#f43f5e"/><path d="M 272.1823275907809 327.60342026667786 L 235.3881686324712 377.60342026667786 L 227.91583970438296 427.60342026667786" stroke="#7dd3fc" fill="none" opacity="0.4"/>
                    <circle cx="272.1823275907809" cy="327.60342026667786" r="3" fill="#f43f5e"/><path d="M 539.1161361738341 370.77397822158673 L 555.1378470066993 420.77397822158673 L 534.2903228895011 470.77397822158673" stroke="#7dd3fc" fill="none" opacity="0.4"/>
                    <circle cx="539.1161361738341" cy="370.77397822158673" r="3" fill="#f43f5e"/><path d="M 368.15865349562955 105.66699324263027 L 362.32096501644264 155.66699324263027 L 417.2812096589041 205.66699324263027" stroke="#7dd3fc" fill="none" opacity="0.4"/>
                    <circle cx="368.15865349562955" cy="105.66699324263027" r="3" fill="#f43f5e"/><path d="M 299.54640133073553 179.10510178480763 L 334.0599766680498 229.10510178480763 L 261.3813291583938 279.10510178480763" stroke="#7dd3fc" fill="none" opacity="0.4"/>
                    <circle cx="299.54640133073553" cy="179.10510178480763" r="3" fill="#f43f5e"/><path d="M 829.4664514465694 97.57755869250104 L 804.17660229582 147.57755869250104 L 878.5413120818703 197.57755869250104" stroke="#7dd3fc" fill="none" opacity="0.4"/>
                    <circle cx="829.4664514465694" cy="97.57755869250104" r="3" fill="#f43f5e"/><path d="M 1041.5219483009423 169.99246993873385 L 1083.1203048118368 219.99246993873385 L 1081.0722645979695 269.99246993873385" stroke="#7dd3fc" fill="none" opacity="0.4"/>
                    <circle cx="1041.5219483009423" cy="169.99246993873385" r="3" fill="#f43f5e"/><path d="M 143.56889766240784 313.03658681608795 L 100.21121314516677 363.03658681608795 L 120.804097758446 413.03658681608795" stroke="#7dd3fc" fill="none" opacity="0.4"/>
                    <circle cx="143.56889766240784" cy="313.03658681608795" r="3" fill="#f43f5e"/>
            <text x="600" y="520" font-family="Segoe UI, Arial, sans-serif" font-size="38" font-weight="800" fill="#ffffff" text-anchor="middle">Designing Adaptive User Interfaces for Data-Heavy Dashboa...</text>
            <text x="600" y="560" font-family="Segoe UI, Arial, sans-serif" font-size="16" font-weight="600" fill="#7dd3fc" text-anchor="middle" style="letter-spacing: 4px; text-transform: uppercase;">UI UX Powerhouse • Specialized Series</text>
        </svg>