<svg width="1200" height="600" viewBox="0 0 1200 600" xmlns="http://www.w3.org/2000/svg">
            <rect width="1200" height="600" fill="#0f172a"/><circle cx="522.1855269628577" cy="321.7230095073319" r="43.06621745183293" fill="#38bdf8" opacity="0.1"/><circle cx="428.4680423734244" cy="319.05582183972" r="26.801786244177492" fill="#38bdf8" opacity="0.1"/><circle cx="1166.891381055757" cy="388.5099942315719" r="14.074304840833065" fill="#38bdf8" opacity="0.1"/><circle cx="619.090504583437" cy="192.85752997566306" r="14.347324949740141" fill="#38bdf8" opacity="0.1"/><circle cx="599.556609607771" cy="254.5639379262866" r="47.25012969045565" fill="#38bdf8" opacity="0.1"/><circle cx="478.9275406379602" cy="144.22481142173638" r="38.4781421857042" fill="#38bdf8" opacity="0.1"/><circle cx="890.8510897148517" cy="17.37692402493849" r="34.2713413083402" fill="#38bdf8" opacity="0.1"/><circle cx="1022.0931677467888" cy="112.46489356417442" r="44.90709288555081" fill="#38bdf8" opacity="0.1"/><circle cx="476.98433983387076" cy="166.8841249171237" r="31.47377433422662" fill="#38bdf8" opacity="0.1"/><circle cx="1197.1221179199347" cy="343.1107038170012" r="35.5113155519939" fill="#38bdf8" opacity="0.1"/><circle cx="983.4987934780656" cy="327.8450143196096" r="21.287132209515676" fill="#38bdf8" opacity="0.1"/><circle cx="135.52152287338686" cy="120.04682215974753" r="23.438146664248052" fill="#38bdf8" opacity="0.1"/><circle cx="242.16788481571712" cy="106.71376959362533" r="20.85750951031514" fill="#38bdf8" opacity="0.1"/><circle cx="728.9687722220151" cy="144.7458448994439" r="31.042687548433605" fill="#38bdf8" opacity="0.1"/><circle cx="176.66355502224178" cy="6.668970947794151" r="20.125079860172264" fill="#38bdf8" opacity="0.1"/><circle cx="179.67237774646492" cy="113.34883494419046" r="18.363194199409918" fill="#38bdf8" opacity="0.1"/><circle cx="77.03569523000624" cy="372.78386394682457" r="21.044386276698788" fill="#38bdf8" opacity="0.1"/><circle cx="570.9942081863119" cy="182.33726597754867" r="31.2240165201365" fill="#38bdf8" opacity="0.1"/><circle cx="561.5897854557261" cy="256.81102755406755" r="37.11761507220217" fill="#38bdf8" opacity="0.1"/><circle cx="1161.8405855471792" cy="12.488319769181544" r="43.86501592147397" fill="#38bdf8" opacity="0.1"/><circle cx="29.642924265863257" cy="96.87140785099473" r="21.038426803825132" fill="#38bdf8" opacity="0.1"/><circle cx="957.8310765486094" cy="302.01697700395016" r="12.511256491488894" fill="#38bdf8" opacity="0.1"/><circle cx="608.1905927887419" cy="77.68811018104316" r="17.813740822275577" fill="#38bdf8" opacity="0.1"/><circle cx="766.9672525058559" cy="361.93595165495935" r="46.14341082069586" fill="#38bdf8" opacity="0.1"/><circle cx="490.1594795057463" cy="391.186266465229" r="31.301778282650048" fill="#38bdf8" opacity="0.1"/><circle cx="351.66636266912974" cy="346.53743059134285" r="43.80528426030651" fill="#38bdf8" opacity="0.1"/><circle cx="386.97816042767954" cy="63.979736975511514" r="17.963843095712946" fill="#38bdf8" opacity="0.1"/><circle cx="490.3889900422655" cy="97.84811343197362" r="10.767818461481511" fill="#38bdf8" opacity="0.1"/><circle cx="3.563316566578578" cy="109.77715869084932" r="38.66612186895509" fill="#38bdf8" opacity="0.1"/><circle cx="669.1192877004141" cy="125.54037961599533" r="18.81504904882604" fill="#38bdf8" opacity="0.1"/>
            <text x="600" y="520" font-family="Segoe UI, Arial, sans-serif" font-size="38" font-weight="800" fill="#ffffff" text-anchor="middle">Designing Interactive Data Visualizations: Best Practices...</text>
            <text x="600" y="560" font-family="Segoe UI, Arial, sans-serif" font-size="16" font-weight="600" fill="#38bdf8" text-anchor="middle" style="letter-spacing: 4px; text-transform: uppercase;">UI UX Powerhouse • Specialized Series</text>
        </svg>