<svg width="1200" height="600" viewBox="0 0 1200 600" xmlns="http://www.w3.org/2000/svg">
        <rect width="1200" height="600" fill="#1e1b4b"/><path d="M 825.0439794617705 257.64260490759625 L 793.8837215706371 307.64260490759625 L 863.3719362350348 357.64260490759625" stroke="#f43f5e" fill="none" opacity="0.4"/>
                    <circle cx="825.0439794617705" cy="257.64260490759625" r="3" fill="#22d3ee"/><path d="M 1.4372558005561586 55.66014082796755 L 27.901713247047155 105.66014082796755 L 8.707167507964186 155.66014082796755" stroke="#f43f5e" fill="none" opacity="0.4"/>
                    <circle cx="1.4372558005561586" cy="55.66014082796755" r="3" fill="#22d3ee"/><path d="M 919.5077608888823 267.9221493250225 L 873.8774601682962 317.9221493250225 L 921.1554679074652 367.9221493250225" stroke="#f43f5e" fill="none" opacity="0.4"/>
                    <circle cx="919.5077608888823" cy="267.9221493250225" r="3" fill="#22d3ee"/><path d="M 651.4305634067568 147.6041790610907 L 626.616329945864 197.6041790610907 L 679.0104191907631 247.6041790610907" stroke="#f43f5e" fill="none" opacity="0.4"/>
                    <circle cx="651.4305634067568" cy="147.6041790610907" r="3" fill="#22d3ee"/><path d="M 681.1157113188528 265.3621556550206 L 646.6680768986407 315.3621556550206 L 721.6681298672029 365.3621556550206" stroke="#f43f5e" fill="none" opacity="0.4"/>
                    <circle cx="681.1157113188528" cy="265.3621556550206" r="3" fill="#22d3ee"/><path d="M 1145.4323866586492 384.98610050955904 L 1193.2574138088967 434.98610050955904 L 1160.8142393534308 484.98610050955904" stroke="#f43f5e" fill="none" opacity="0.4"/>
                    <circle cx="1145.4323866586492" cy="384.98610050955904" r="3" fill="#22d3ee"/><path d="M 222.76608925749315 223.40424052181334 L 218.12382939788222 273.40424052181334 L 228.16734949265083 323.40424052181334" stroke="#f43f5e" fill="none" opacity="0.4"/>
                    <circle cx="222.76608925749315" cy="223.40424052181334" r="3" fill="#22d3ee"/><path d="M 962.2875167668099 274.78574477281654 L 1001.7630959551752 324.78574477281654 L 995.3549866281719 374.78574477281654" stroke="#f43f5e" fill="none" opacity="0.4"/>
                    <circle cx="962.2875167668099" cy="274.78574477281654" r="3" fill="#22d3ee"/><path d="M 983.8520382367278 87.04424479510635 L 950.2748110262473 137.04424479510635 L 963.2481678741897 187.04424479510635" stroke="#f43f5e" fill="none" opacity="0.4"/>
                    <circle cx="983.8520382367278" cy="87.04424479510635" r="3" fill="#22d3ee"/><path d="M 78.80550606860197 178.67186759613105 L 34.13671155594784 228.67186759613105 L 49.22073319435185 278.67186759613105" stroke="#f43f5e" fill="none" opacity="0.4"/>
                    <circle cx="78.80550606860197" cy="178.67186759613105" r="3" fill="#22d3ee"/>
        <text x="600" y="520" font-family="Segoe UI, Arial, sans-serif" font-size="38" font-weight="800" fill="#ffffff" text-anchor="middle">Designing Multi-Device Gesture Interactions: Optimizing S...</text>
        <text x="600" y="560" font-family="Segoe UI, Arial, sans-serif" font-size="16" font-weight="600" fill="#f43f5e" text-anchor="middle" style="letter-spacing: 4px; text-transform: uppercase;">UI UX Powerhouse • Specialized Series</text>
    </svg>