<svg width="1200" height="600" viewBox="0 0 1200 600" xmlns="http://www.w3.org/2000/svg">
        <rect width="1200" height="600" fill="#111827"/><circle cx="775.0049487854994" cy="195.84569431717682" r="41.967417550513346" fill="#10b981" opacity="0.1"/><circle cx="895.9092504748696" cy="293.7579404171629" r="17.24007890181383" fill="#10b981" opacity="0.1"/><circle cx="776.773569746365" cy="363.81977062924307" r="39.026779528276165" fill="#10b981" opacity="0.1"/><circle cx="728.8214534626604" cy="67.54348809918156" r="48.89471644797595" fill="#10b981" opacity="0.1"/><circle cx="902.2876907838508" cy="53.473024397317204" r="24.27823893187451" fill="#10b981" opacity="0.1"/><circle cx="951.3285341196024" cy="140.12203834026877" r="16.473474679223727" fill="#10b981" opacity="0.1"/><circle cx="759.617246180278" cy="172.4575232838106" r="39.34990966663463" fill="#10b981" opacity="0.1"/><circle cx="106.77673974496429" cy="217.00311048734875" r="48.41116667003007" fill="#10b981" opacity="0.1"/><circle cx="588.8585733002401" cy="347.78539169346914" r="14.318800606888544" fill="#10b981" opacity="0.1"/><circle cx="715.4758802098513" cy="350.8443885566521" r="36.01358772488311" fill="#10b981" opacity="0.1"/><circle cx="421.90090140575194" cy="139.53022206478636" r="17.46938001782837" fill="#10b981" opacity="0.1"/><circle cx="1007.8676838988031" cy="276.2036160718708" r="48.55437904334394" fill="#10b981" opacity="0.1"/><circle cx="432.4531277783535" cy="162.14842698555003" r="24.837104057805846" fill="#10b981" opacity="0.1"/><circle cx="555.8855340523223" cy="322.29556115544256" r="48.9697491980769" fill="#10b981" opacity="0.1"/><circle cx="106.90707650355762" cy="140.33990070529399" r="17.43947898260558" fill="#10b981" opacity="0.1"/><circle cx="830.2994838166342" cy="287.0401376647351" r="34.243556437431835" fill="#10b981" opacity="0.1"/><circle cx="589.5724905349198" cy="65.3406562640157" r="30.76252852417383" fill="#10b981" opacity="0.1"/><circle cx="171.06601280902396" cy="286.36451902730187" r="16.37805380240934" fill="#10b981" opacity="0.1"/><circle cx="182.61014343333954" cy="56.42136825917987" r="41.209816489590594" fill="#10b981" opacity="0.1"/><circle cx="1036.8052534233357" cy="274.59990757233754" r="45.06455396192905" fill="#10b981" opacity="0.1"/><circle cx="590.972099017381" cy="100.3804273364949" r="47.102268071175786" fill="#10b981" opacity="0.1"/><circle cx="540.6428441405296" cy="216.46956498188956" r="25.14108517076238" fill="#10b981" opacity="0.1"/><circle cx="1056.2544601227273" cy="239.66579240805004" r="33.400407637027456" fill="#10b981" opacity="0.1"/><circle cx="319.00109070775216" cy="73.6497488214809" r="38.07035566025661" fill="#10b981" opacity="0.1"/><circle cx="185.5446733366989" cy="59.624410649894344" r="44.94000250087993" fill="#10b981" opacity="0.1"/><circle cx="830.4351576625777" cy="371.3344943085758" r="13.709318064975378" fill="#10b981" opacity="0.1"/><circle cx="662.2221892623202" cy="189.67610975305433" r="20.15641288660845" fill="#10b981" opacity="0.1"/><circle cx="326.91200045067035" cy="2.1711613298975863" r="21.134526351524983" fill="#10b981" opacity="0.1"/><circle cx="967.7315092914796" cy="209.30540021436173" r="10.691890961425088" fill="#10b981" opacity="0.1"/><circle cx="1133.377718551401" cy="365.8084378213971" r="18.721229773655068" fill="#10b981" opacity="0.1"/>
        <text x="600" y="520" font-family="Segoe UI, Arial, sans-serif" font-size="38" font-weight="800" fill="#ffffff" text-anchor="middle">Designing Adaptive Microinteractions for Data-Intensive W...</text>
        <text x="600" y="560" font-family="Segoe UI, Arial, sans-serif" font-size="16" font-weight="600" fill="#10b981" text-anchor="middle" style="letter-spacing: 4px; text-transform: uppercase;">UI UX Powerhouse • Specialized Series</text>
    </svg>