<svg width="1200" height="600" viewBox="0 0 1200 600" xmlns="http://www.w3.org/2000/svg">
            <rect width="1200" height="600" fill="#2e1065"/><circle cx="759.1674452127336" cy="298.7207720230799" r="39.1820348600595" fill="#d8b4fe" opacity="0.1"/><circle cx="612.2070939629339" cy="179.1094714225892" r="11.105850524018024" fill="#d8b4fe" opacity="0.1"/><circle cx="780.0253960453119" cy="72.97306526816101" r="46.18580911530444" fill="#d8b4fe" opacity="0.1"/><circle cx="839.8286844560062" cy="213.0765335873548" r="48.61078435445961" fill="#d8b4fe" opacity="0.1"/><circle cx="1189.966877140614" cy="314.1335295091267" r="47.98238681167277" fill="#d8b4fe" opacity="0.1"/><circle cx="255.07099899550667" cy="35.7137783806138" r="21.893189719230577" fill="#d8b4fe" opacity="0.1"/><circle cx="635.5264672913108" cy="293.80784084678453" r="30.242387479593162" fill="#d8b4fe" opacity="0.1"/><circle cx="515.3532763361" cy="196.53187082476506" r="33.76939093439432" fill="#d8b4fe" opacity="0.1"/><circle cx="1084.544743414881" cy="141.5803185189361" r="24.32357385632713" fill="#d8b4fe" opacity="0.1"/><circle cx="578.425916643755" cy="83.3203355439764" r="33.69018964101997" fill="#d8b4fe" opacity="0.1"/><circle cx="317.8325209440118" cy="313.77806277305353" r="46.08897804035223" fill="#d8b4fe" opacity="0.1"/><circle cx="661.0590499723912" cy="218.1099503148289" r="38.60430816312146" fill="#d8b4fe" opacity="0.1"/><circle cx="383.3002005943854" cy="276.42251103461604" r="35.372288875005324" fill="#d8b4fe" opacity="0.1"/><circle cx="1072.8889214708033" cy="15.496625632658834" r="32.70582759723766" fill="#d8b4fe" opacity="0.1"/><circle cx="319.8252340727777" cy="278.3462460982264" r="33.79785872204593" fill="#d8b4fe" opacity="0.1"/><circle cx="70.03514774132782" cy="63.233092729205964" r="43.12933018655713" fill="#d8b4fe" opacity="0.1"/><circle cx="381.6543835680932" cy="100.85699557275802" r="11.555224604599061" fill="#d8b4fe" opacity="0.1"/><circle cx="815.9420985837642" cy="71.93734982502065" r="30.410983444780868" fill="#d8b4fe" opacity="0.1"/><circle cx="840.169223632256" cy="366.7443852355518" r="31.73307377488527" fill="#d8b4fe" opacity="0.1"/><circle cx="1031.3257593232265" cy="130.15720411131042" r="40.723571191156225" fill="#d8b4fe" opacity="0.1"/><circle cx="1191.3727614082745" cy="103.0997097670479" r="33.748086494124436" fill="#d8b4fe" opacity="0.1"/><circle cx="435.5730446684902" cy="98.91126250149682" r="13.33854167471145" fill="#d8b4fe" opacity="0.1"/><circle cx="1148.0309897997358" cy="338.85271861436195" r="32.45790350727475" fill="#d8b4fe" opacity="0.1"/><circle cx="1022.404528271727" cy="311.50010378232764" r="12.037149176758248" fill="#d8b4fe" opacity="0.1"/><circle cx="1096.4867297945602" cy="290.51976286718855" r="46.86610679826117" fill="#d8b4fe" opacity="0.1"/><circle cx="1054.0415634903184" cy="315.9512135778641" r="30.84685459456523" fill="#d8b4fe" opacity="0.1"/><circle cx="214.9896107697714" cy="267.12647117055894" r="47.86976487041102" fill="#d8b4fe" opacity="0.1"/><circle cx="674.4843608834344" cy="309.61410807285574" r="19.764546567530488" fill="#d8b4fe" opacity="0.1"/><circle cx="432.0609253481962" cy="2.8439447518394445" r="18.037883042479734" fill="#d8b4fe" opacity="0.1"/><circle cx="60.378731764376425" cy="41.74234040765441" r="15.996043249542709" fill="#d8b4fe" opacity="0.1"/>
            <text x="600" y="520" font-family="Segoe UI, Arial, sans-serif" font-size="38" font-weight="800" fill="#ffffff" text-anchor="middle">Designing Contextual Help Systems for Complex Web Applica...</text>
            <text x="600" y="560" font-family="Segoe UI, Arial, sans-serif" font-size="16" font-weight="600" fill="#d8b4fe" text-anchor="middle" style="letter-spacing: 4px; text-transform: uppercase;">UI UX Powerhouse • Specialized Series</text>
        </svg>