<svg width="1200" height="600" viewBox="0 0 1200 600" xmlns="http://www.w3.org/2000/svg">
        <rect width="1200" height="600" fill="#111827"/><rect x="150" y="199.1001514925756" width="60" height="150.8998485074244" fill="#10b981" opacity="0.6"/>
                    <rect x="170" y="179.1001514925756" width="60" height="150.8998485074244" fill="#34d399" opacity="0.4" transform="skewY(-20)"/><rect x="270" y="258.3127153739042" width="60" height="91.68728462609579" fill="#10b981" opacity="0.6"/>
                    <rect x="290" y="238.3127153739042" width="60" height="91.68728462609579" fill="#34d399" opacity="0.4" transform="skewY(-20)"/><rect x="390" y="209.0550969249307" width="60" height="140.9449030750693" fill="#10b981" opacity="0.6"/>
                    <rect x="410" y="189.0550969249307" width="60" height="140.9449030750693" fill="#34d399" opacity="0.4" transform="skewY(-20)"/><rect x="510" y="172.2390046568762" width="60" height="177.7609953431238" fill="#10b981" opacity="0.6"/>
                    <rect x="530" y="152.2390046568762" width="60" height="177.7609953431238" fill="#34d399" opacity="0.4" transform="skewY(-20)"/><rect x="630" y="293.670589388239" width="60" height="56.32941061176098" fill="#10b981" opacity="0.6"/>
                    <rect x="650" y="273.670589388239" width="60" height="56.32941061176098" fill="#34d399" opacity="0.4" transform="skewY(-20)"/><rect x="750" y="277.3079777987732" width="60" height="72.69202220122679" fill="#10b981" opacity="0.6"/>
                    <rect x="770" y="257.3079777987732" width="60" height="72.69202220122679" fill="#34d399" opacity="0.4" transform="skewY(-20)"/><rect x="870" y="188.7686549398495" width="60" height="161.2313450601505" fill="#10b981" opacity="0.6"/>
                    <rect x="890" y="168.7686549398495" width="60" height="161.2313450601505" fill="#34d399" opacity="0.4" transform="skewY(-20)"/><rect x="990" y="168.38586584472068" width="60" height="181.61413415527932" fill="#10b981" opacity="0.6"/>
                    <rect x="1010" y="148.38586584472068" width="60" height="181.61413415527932" fill="#34d399" opacity="0.4" transform="skewY(-20)"/>
        <text x="600" y="520" font-family="Segoe UI, Arial, sans-serif" font-size="38" font-weight="800" fill="#ffffff" text-anchor="middle">Designing Accessible Data Visualizations: Implementing AR...</text>
        <text x="600" y="560" font-family="Segoe UI, Arial, sans-serif" font-size="16" font-weight="600" fill="#10b981" text-anchor="middle" style="letter-spacing: 4px; text-transform: uppercase;">UI UX Powerhouse • Specialized Series</text>
    </svg>