<svg width="1200" height="600" viewBox="0 0 1200 600" xmlns="http://www.w3.org/2000/svg">
            <rect width="1200" height="600" fill="#2e1065"/><circle cx="840.1462033681355" cy="167.47948406919022" r="22.698084451112663" fill="#d8b4fe" opacity="0.1"/><circle cx="383.46944208969944" cy="47.028785089059966" r="35.42466527022043" fill="#d8b4fe" opacity="0.1"/><circle cx="137.2659247244883" cy="94.72792624346766" r="26.002982563659316" fill="#d8b4fe" opacity="0.1"/><circle cx="767.1417812511208" cy="254.97666276569362" r="18.480992420172697" fill="#d8b4fe" opacity="0.1"/><circle cx="852.9146482644137" cy="197.80901968460967" r="48.2655599075224" fill="#d8b4fe" opacity="0.1"/><circle cx="80.11380329844542" cy="72.459214461378" r="26.206655181103997" fill="#d8b4fe" opacity="0.1"/><circle cx="704.0652690084244" cy="114.70852064230712" r="12.204225143650547" fill="#d8b4fe" opacity="0.1"/><circle cx="206.7846076701244" cy="86.082649065429" r="41.69362800896124" fill="#d8b4fe" opacity="0.1"/><circle cx="1064.8376608543913" cy="318.6083664972102" r="21.089249091637612" fill="#d8b4fe" opacity="0.1"/><circle cx="1009.6621329586924" cy="56.8476148224363" r="40.42591088829795" fill="#d8b4fe" opacity="0.1"/><circle cx="575.2895611312852" cy="298.0661496083485" r="32.89026428388752" fill="#d8b4fe" opacity="0.1"/><circle cx="64.41831769006967" cy="130.02366147193243" r="39.42865850396629" fill="#d8b4fe" opacity="0.1"/><circle cx="795.7892573354911" cy="277.8032655376592" r="31.822902620660898" fill="#d8b4fe" opacity="0.1"/><circle cx="689.8110120445381" cy="243.68135058812186" r="19.268511293266783" fill="#d8b4fe" opacity="0.1"/><circle cx="774.8391329871083" cy="249.63945696508745" r="36.865113197709434" fill="#d8b4fe" opacity="0.1"/><circle cx="972.1006518517243" cy="61.798284542055626" r="27.306832141257473" fill="#d8b4fe" opacity="0.1"/><circle cx="26.539245003186807" cy="237.901739517838" r="14.91767188126687" fill="#d8b4fe" opacity="0.1"/><circle cx="367.53327989754325" cy="112.40021767225699" r="11.89228761344566" fill="#d8b4fe" opacity="0.1"/><circle cx="1139.0722660195024" cy="142.491200326549" r="46.65683764997084" fill="#d8b4fe" opacity="0.1"/><circle cx="1045.110939101869" cy="189.24344810220646" r="36.7774403839212" fill="#d8b4fe" opacity="0.1"/><circle cx="500.4824777475733" cy="304.35834537420305" r="49.05734951564227" fill="#d8b4fe" opacity="0.1"/><circle cx="2.1145791215531062" cy="144.30151687720354" r="32.43095298974367" fill="#d8b4fe" opacity="0.1"/><circle cx="37.53661735681817" cy="122.31508345539623" r="33.95193283482513" fill="#d8b4fe" opacity="0.1"/><circle cx="1115.4122852138244" cy="344.67392736914917" r="13.573963609451312" fill="#d8b4fe" opacity="0.1"/><circle cx="748.7621652937378" cy="158.8650151868933" r="45.307035327350604" fill="#d8b4fe" opacity="0.1"/><circle cx="349.6716035310328" cy="198.883405383458" r="10.001961861198652" fill="#d8b4fe" opacity="0.1"/><circle cx="731.060888862703" cy="4.502959079400171" r="18.317694852703426" fill="#d8b4fe" opacity="0.1"/><circle cx="588.19214981595" cy="84.26338209901587" r="18.03026308414701" fill="#d8b4fe" opacity="0.1"/><circle cx="1163.5351041790273" cy="395.99305453484703" r="40.236230338414316" fill="#d8b4fe" opacity="0.1"/><circle cx="57.527174050119356" cy="136.8132292820519" r="23.40793408198806" fill="#d8b4fe" opacity="0.1"/>
            <text x="600" y="520" font-family="Segoe UI, Arial, sans-serif" font-size="38" font-weight="800" fill="#ffffff" text-anchor="middle">Designing Adaptive Data Tables: Implementing Dynamic Row ...</text>
            <text x="600" y="560" font-family="Segoe UI, Arial, sans-serif" font-size="16" font-weight="600" fill="#d8b4fe" text-anchor="middle" style="letter-spacing: 4px; text-transform: uppercase;">UI UX Powerhouse • Specialized Series</text>
        </svg>