<svg width="1200" height="600" viewBox="0 0 1200 600" xmlns="http://www.w3.org/2000/svg">
        <rect width="1200" height="600" fill="#171717"/><circle cx="446.0800790205212" cy="230.630554464733" r="34.94445277901832" fill="#f59e0b" opacity="0.1"/><circle cx="452.62784631013346" cy="132.63463412295096" r="21.092355640867027" fill="#f59e0b" opacity="0.1"/><circle cx="309.85751010921376" cy="269.09630948866834" r="37.59069052510313" fill="#f59e0b" opacity="0.1"/><circle cx="413.4064418169146" cy="362.30149347311453" r="15.34055484487908" fill="#f59e0b" opacity="0.1"/><circle cx="554.2470453256101" cy="1.399964999200165" r="14.654523951539886" fill="#f59e0b" opacity="0.1"/><circle cx="613.7775567553035" cy="259.02221003698287" r="19.611785023698758" fill="#f59e0b" opacity="0.1"/><circle cx="856.7841978216165" cy="292.02853001770563" r="30.742427318691625" fill="#f59e0b" opacity="0.1"/><circle cx="1076.0570207523415" cy="35.41739461688849" r="47.50534716833499" fill="#f59e0b" opacity="0.1"/><circle cx="1003.8859800220962" cy="217.40507203321613" r="30.089312935269845" fill="#f59e0b" opacity="0.1"/><circle cx="404.8609547513479" cy="18.305689250701107" r="43.37508423868712" fill="#f59e0b" opacity="0.1"/><circle cx="21.56521667566267" cy="157.97931554334355" r="15.805306027577899" fill="#f59e0b" opacity="0.1"/><circle cx="263.90368413158285" cy="289.7888612733368" r="40.74979258766689" fill="#f59e0b" opacity="0.1"/><circle cx="266.15062505879905" cy="104.00996632706665" r="28.563981901875195" fill="#f59e0b" opacity="0.1"/><circle cx="868.6803988126485" cy="195.2760079431755" r="17.489295426930767" fill="#f59e0b" opacity="0.1"/><circle cx="115.8277248730883" cy="69.75558370204453" r="39.84508126548462" fill="#f59e0b" opacity="0.1"/><circle cx="53.38985441121622" cy="69.2857198038837" r="47.288886626120075" fill="#f59e0b" opacity="0.1"/><circle cx="22.924524520203704" cy="188.20795318424643" r="36.00676161608135" fill="#f59e0b" opacity="0.1"/><circle cx="811.1292767549457" cy="138.66185045890234" r="48.199950116395485" fill="#f59e0b" opacity="0.1"/><circle cx="1061.5497597834064" cy="218.59104565446614" r="16.584157586778474" fill="#f59e0b" opacity="0.1"/><circle cx="599.010269138671" cy="310.2048878194182" r="40.08592956894063" fill="#f59e0b" opacity="0.1"/><circle cx="649.7863811746356" cy="266.4409911057078" r="16.422779226959392" fill="#f59e0b" opacity="0.1"/><circle cx="149.92344001293532" cy="113.9882175692037" r="12.884595047071343" fill="#f59e0b" opacity="0.1"/><circle cx="317.99014132702723" cy="34.29089002820547" r="21.58017034038494" fill="#f59e0b" opacity="0.1"/><circle cx="115.19088477907644" cy="66.11537575354305" r="42.494100511903525" fill="#f59e0b" opacity="0.1"/><circle cx="7.003638699097792" cy="291.25956192638114" r="24.653237445111245" fill="#f59e0b" opacity="0.1"/><circle cx="577.3115944582969" cy="384.47633378746104" r="44.656986820482416" fill="#f59e0b" opacity="0.1"/><circle cx="1054.734859470227" cy="169.17551067090244" r="24.000817603318865" fill="#f59e0b" opacity="0.1"/><circle cx="896.9323410707148" cy="336.6250248007418" r="20.475617433439766" fill="#f59e0b" opacity="0.1"/><circle cx="1190.9879079939856" cy="179.68875517435663" r="30.707500284399885" fill="#f59e0b" opacity="0.1"/><circle cx="250.6481465694378" cy="237.86922071667504" r="29.399675982385816" fill="#f59e0b" opacity="0.1"/>
        <text x="600" y="520" font-family="Segoe UI, Arial, sans-serif" font-size="38" font-weight="800" fill="#ffffff" text-anchor="middle">Designing for Complexity: User-Centric Techniques for Nav...</text>
        <text x="600" y="560" font-family="Segoe UI, Arial, sans-serif" font-size="16" font-weight="600" fill="#f59e0b" text-anchor="middle" style="letter-spacing: 4px; text-transform: uppercase;">UI UX Powerhouse • Specialized Series</text>
    </svg>