<svg width="1200" height="600" viewBox="0 0 1200 600" xmlns="http://www.w3.org/2000/svg">
        <rect width="1200" height="600" fill="#2e1065"/><rect x="150" y="268.6358305266822" width="60" height="81.36416947331782" fill="#d8b4fe" opacity="0.6"/>
                    <rect x="170" y="248.63583052668218" width="60" height="81.36416947331782" fill="#a855f7" opacity="0.4" transform="skewY(-20)"/><rect x="270" y="165.154775546398" width="60" height="184.845224453602" fill="#d8b4fe" opacity="0.6"/>
                    <rect x="290" y="145.154775546398" width="60" height="184.845224453602" fill="#a855f7" opacity="0.4" transform="skewY(-20)"/><rect x="390" y="183.57874491048278" width="60" height="166.42125508951722" fill="#d8b4fe" opacity="0.6"/>
                    <rect x="410" y="163.57874491048278" width="60" height="166.42125508951722" fill="#a855f7" opacity="0.4" transform="skewY(-20)"/><rect x="510" y="179.38989127160312" width="60" height="170.61010872839688" fill="#d8b4fe" opacity="0.6"/>
                    <rect x="530" y="159.38989127160312" width="60" height="170.61010872839688" fill="#a855f7" opacity="0.4" transform="skewY(-20)"/><rect x="630" y="176.15709449191854" width="60" height="173.84290550808146" fill="#d8b4fe" opacity="0.6"/>
                    <rect x="650" y="156.15709449191854" width="60" height="173.84290550808146" fill="#a855f7" opacity="0.4" transform="skewY(-20)"/><rect x="750" y="274.0841634124081" width="60" height="75.91583658759191" fill="#d8b4fe" opacity="0.6"/>
                    <rect x="770" y="254.0841634124081" width="60" height="75.91583658759191" fill="#a855f7" opacity="0.4" transform="skewY(-20)"/><rect x="870" y="154.00217058486305" width="60" height="195.99782941513695" fill="#d8b4fe" opacity="0.6"/>
                    <rect x="890" y="134.00217058486305" width="60" height="195.99782941513695" fill="#a855f7" opacity="0.4" transform="skewY(-20)"/><rect x="990" y="199.33769313902303" width="60" height="150.66230686097697" fill="#d8b4fe" opacity="0.6"/>
                    <rect x="1010" y="179.33769313902303" width="60" height="150.66230686097697" fill="#a855f7" opacity="0.4" transform="skewY(-20)"/>
        <text x="600" y="520" font-family="Segoe UI, Arial, sans-serif" font-size="38" font-weight="800" fill="#ffffff" text-anchor="middle">Designing Multi-Layered Contextual Navigation for Complex...</text>
        <text x="600" y="560" font-family="Segoe UI, Arial, sans-serif" font-size="16" font-weight="600" fill="#d8b4fe" text-anchor="middle" style="letter-spacing: 4px; text-transform: uppercase;">UI UX Powerhouse • Specialized Series</text>
    </svg>