<svg width="1200" height="600" viewBox="0 0 1200 600" xmlns="http://www.w3.org/2000/svg">
            <rect width="1200" height="600" fill="#2e1065"/><circle cx="549.3589475561748" cy="255.07411024846078" r="27.083292340612388" fill="#d8b4fe" opacity="0.1"/><circle cx="1193.530804920374" cy="29.343575840903213" r="48.417665485867474" fill="#d8b4fe" opacity="0.1"/><circle cx="548.6699826175027" cy="225.18178243949478" r="49.84948309167521" fill="#d8b4fe" opacity="0.1"/><circle cx="174.38076694070332" cy="118.06155926096835" r="44.38193067869179" fill="#d8b4fe" opacity="0.1"/><circle cx="704.2198596769595" cy="278.1158293815679" r="46.75875829621873" fill="#d8b4fe" opacity="0.1"/><circle cx="340.2190255300411" cy="250.13315076357685" r="38.30463841899473" fill="#d8b4fe" opacity="0.1"/><circle cx="966.8929431521065" cy="394.4468913912715" r="32.53550965760951" fill="#d8b4fe" opacity="0.1"/><circle cx="252.15274575548392" cy="232.41992083421792" r="36.863066923979204" fill="#d8b4fe" opacity="0.1"/><circle cx="286.03155019009137" cy="359.8275192936853" r="11.639046806740225" fill="#d8b4fe" opacity="0.1"/><circle cx="1044.9122962541878" cy="329.06146603727393" r="12.735416208852257" fill="#d8b4fe" opacity="0.1"/><circle cx="1033.173310111306" cy="181.4682374424592" r="27.31886084588041" fill="#d8b4fe" opacity="0.1"/><circle cx="847.9918769997312" cy="291.59796305066266" r="40.09500209482212" fill="#d8b4fe" opacity="0.1"/><circle cx="1024.8342089558719" cy="144.13859157284605" r="34.287534037503065" fill="#d8b4fe" opacity="0.1"/><circle cx="391.0876134155842" cy="310.1251996371843" r="18.992941349642933" fill="#d8b4fe" opacity="0.1"/><circle cx="325.9534424676531" cy="394.6417255763663" r="35.283340512614814" fill="#d8b4fe" opacity="0.1"/><circle cx="17.51109222800551" cy="38.3184203376004" r="38.754681078280555" fill="#d8b4fe" opacity="0.1"/><circle cx="413.9999339906353" cy="291.11971829261165" r="10.384390715203153" fill="#d8b4fe" opacity="0.1"/><circle cx="785.0618512024084" cy="136.97064412699547" r="38.447620619263034" fill="#d8b4fe" opacity="0.1"/><circle cx="1189.7877709867316" cy="219.34535834079725" r="43.16969288222026" fill="#d8b4fe" opacity="0.1"/><circle cx="107.81297849971452" cy="63.910211032634834" r="31.464702213415876" fill="#d8b4fe" opacity="0.1"/><circle cx="647.6581512899429" cy="294.8281579741888" r="46.130767508002464" fill="#d8b4fe" opacity="0.1"/><circle cx="91.0280084797705" cy="371.2386325305488" r="40.82704492502671" fill="#d8b4fe" opacity="0.1"/><circle cx="336.9185180643399" cy="75.09306607098551" r="46.89537607759121" fill="#d8b4fe" opacity="0.1"/><circle cx="181.96775709566282" cy="0.6118165421867161" r="16.26445832924219" fill="#d8b4fe" opacity="0.1"/><circle cx="1007.5335448022088" cy="399.77382031247544" r="17.39155754017702" fill="#d8b4fe" opacity="0.1"/><circle cx="225.28673599954345" cy="123.21254984562984" r="38.777530229745025" fill="#d8b4fe" opacity="0.1"/><circle cx="439.5659610934672" cy="264.8445347920642" r="13.922045020262885" fill="#d8b4fe" opacity="0.1"/><circle cx="114.25852239699452" cy="199.11478592403" r="43.419715786549204" fill="#d8b4fe" opacity="0.1"/><circle cx="572.316230810975" cy="228.32936545346456" r="20.967627768259263" fill="#d8b4fe" opacity="0.1"/><circle cx="700.6142899561382" cy="225.89105667575495" r="26.0718346133217" fill="#d8b4fe" opacity="0.1"/>
            <text x="600" y="520" font-family="Segoe UI, Arial, sans-serif" font-size="38" font-weight="800" fill="#ffffff" text-anchor="middle">Designing for Data Density: Effective Techniques for Usab...</text>
            <text x="600" y="560" font-family="Segoe UI, Arial, sans-serif" font-size="16" font-weight="600" fill="#d8b4fe" text-anchor="middle" style="letter-spacing: 4px; text-transform: uppercase;">UI UX Powerhouse • Specialized Series</text>
        </svg>