<svg width="1200" height="600" viewBox="0 0 1200 600" xmlns="http://www.w3.org/2000/svg">
        
            <rect width="1200" height="600" fill="#78350f"/>
            <rect x="112.80741393993594" y="274.33272494927223" width="165.85355385914227" height="165.85355385914227" fill="#f59e0b" opacity="0.1" transform="rotate(15.528844756445324 112.80741393993594 274.33272494927223)"/><rect x="1072.9376453298755" y="293.10330774205795" width="175.699404356601" height="175.699404356601" fill="#f59e0b" opacity="0.1" transform="rotate(69.70596261205628 1072.9376453298755 293.10330774205795)"/><rect x="655.5198356563778" y="246.27402294208878" width="125.08682303036949" height="125.08682303036949" fill="#f59e0b" opacity="0.1" transform="rotate(318.4381254681034 655.5198356563778 246.27402294208878)"/><rect x="1130.579338678649" y="191.25166524208908" width="162.9787896156813" height="162.9787896156813" fill="#f59e0b" opacity="0.1" transform="rotate(344.65520044795994 1130.579338678649 191.25166524208908)"/><rect x="1011.511822497414" y="3.6972873051126953" width="162.33976222747515" height="162.33976222747515" fill="#f59e0b" opacity="0.1" transform="rotate(1.7244445010146592 1011.511822497414 3.6972873051126953)"/><rect x="591.2347184354076" y="126.10995451905183" width="113.67099433391559" height="113.67099433391559" fill="#f59e0b" opacity="0.1" transform="rotate(164.83426310238428 591.2347184354076 126.10995451905183)"/><rect x="1127.703695940727" y="331.8656289789942" width="81.60930722342528" height="81.60930722342528" fill="#f59e0b" opacity="0.1" transform="rotate(302.96920370528824 1127.703695940727 331.8656289789942)"/><rect x="682.9391600840609" y="322.7437360228578" width="180.5394898351551" height="180.5394898351551" fill="#f59e0b" opacity="0.1" transform="rotate(81.92901563452324 682.9391600840609 322.7437360228578)"/><rect x="679.7418132700841" y="319.3621492246166" width="161.65856790908038" height="161.65856790908038" fill="#f59e0b" opacity="0.1" transform="rotate(125.13995897032146 679.7418132700841 319.3621492246166)"/><rect x="364.002224469732" y="399.472270208571" width="59.90932893146237" height="59.90932893146237" fill="#f59e0b" opacity="0.1" transform="rotate(185.45586762134917 364.002224469732 399.472270208571)"/><rect x="1112.8490830898954" y="310.2522907382081" width="142.13365586842883" height="142.13365586842883" fill="#f59e0b" opacity="0.1" transform="rotate(200.50375582573906 1112.8490830898954 310.2522907382081)"/><rect x="966.7984591862478" y="161.25714806439646" width="148.55769970222354" height="148.55769970222354" fill="#f59e0b" opacity="0.1" transform="rotate(346.11756684931606 966.7984591862478 161.25714806439646)"/><rect x="263.48816805984825" y="392.6174304784581" width="182.30938151805276" height="182.30938151805276" fill="#f59e0b" opacity="0.1" transform="rotate(281.326960440565 263.48816805984825 392.6174304784581)"/><rect x="219.82177881800453" y="46.57293295604177" width="154.6233090255555" height="154.6233090255555" fill="#f59e0b" opacity="0.1" transform="rotate(117.23355948604876 219.82177881800453 46.57293295604177)"/><rect x="351.9206884826417" y="387.99626640757197" width="185.43469284732055" height="185.43469284732055" fill="#f59e0b" opacity="0.1" transform="rotate(150.204146058677 351.9206884826417 387.99626640757197)"/>
        
        <text x="600" y="520" font-family="Segoe UI, Arial" font-size="38" font-weight="800" fill="#f8fafc" text-anchor="middle">Designing Context-Aware Tooltips for Enhanced Usability i...</text>
    </svg>