<svg width="1200" height="600" viewBox="0 0 1200 600" xmlns="http://www.w3.org/2000/svg">
        <rect width="1200" height="600" fill="#0f172a"/><circle cx="1090.0376190220413" cy="77.75769385843887" r="28.996634603390703" fill="#38bdf8" opacity="0.1"/><circle cx="424.0778558087186" cy="73.29759993226617" r="20.753444470483373" fill="#38bdf8" opacity="0.1"/><circle cx="1019.8743231813069" cy="3.0668710262034438" r="34.81615673241322" fill="#38bdf8" opacity="0.1"/><circle cx="1134.27564574622" cy="254.63818132921006" r="11.644699644202774" fill="#38bdf8" opacity="0.1"/><circle cx="829.091268274351" cy="36.29076787256054" r="19.750304268163745" fill="#38bdf8" opacity="0.1"/><circle cx="424.2344611102453" cy="194.3404053006816" r="27.637194666385767" fill="#38bdf8" opacity="0.1"/><circle cx="771.0637268402934" cy="125.49582468818699" r="36.2817401735083" fill="#38bdf8" opacity="0.1"/><circle cx="38.02174496850057" cy="252.47993529119412" r="42.884280517027946" fill="#38bdf8" opacity="0.1"/><circle cx="860.1063204509501" cy="190.904383149973" r="42.511925695771424" fill="#38bdf8" opacity="0.1"/><circle cx="586.8315125753725" cy="106.17111090133449" r="20.78153245114663" fill="#38bdf8" opacity="0.1"/><circle cx="329.01609397922584" cy="171.07595205452526" r="26.91071959299734" fill="#38bdf8" opacity="0.1"/><circle cx="277.6473551617528" cy="292.2260884199204" r="45.63203603567672" fill="#38bdf8" opacity="0.1"/><circle cx="900.1682221729425" cy="318.7110330189171" r="44.75229862796823" fill="#38bdf8" opacity="0.1"/><circle cx="718.1646359778824" cy="153.3061106927562" r="17.697713225497864" fill="#38bdf8" opacity="0.1"/><circle cx="720.9018856756302" cy="376.5932982241793" r="12.766783852130175" fill="#38bdf8" opacity="0.1"/><circle cx="743.4802191852214" cy="334.4682524435484" r="49.42630773955898" fill="#38bdf8" opacity="0.1"/><circle cx="288.92923934145074" cy="88.28274798652274" r="18.904001433911617" fill="#38bdf8" opacity="0.1"/><circle cx="284.90821297091316" cy="253.87227143655764" r="12.749230695662845" fill="#38bdf8" opacity="0.1"/><circle cx="631.9330245860328" cy="395.6517820929548" r="29.624769838846987" fill="#38bdf8" opacity="0.1"/><circle cx="329.880831133778" cy="55.81862665276276" r="28.719210808267235" fill="#38bdf8" opacity="0.1"/><circle cx="826.4689757210363" cy="149.45368445442" r="12.799427337085945" fill="#38bdf8" opacity="0.1"/><circle cx="859.7243971351418" cy="100.89440254669171" r="33.19260992000636" fill="#38bdf8" opacity="0.1"/><circle cx="1179.8219304575468" cy="379.65997937390057" r="14.586228922844384" fill="#38bdf8" opacity="0.1"/><circle cx="884.3797213474318" cy="291.2868385839829" r="23.463539161821245" fill="#38bdf8" opacity="0.1"/><circle cx="517.2681310132248" cy="366.9696624368953" r="47.013479354682204" fill="#38bdf8" opacity="0.1"/><circle cx="855.3423463141371" cy="257.67604127304367" r="29.557296757539007" fill="#38bdf8" opacity="0.1"/><circle cx="973.0260008793266" cy="291.52619328015135" r="43.58457930931763" fill="#38bdf8" opacity="0.1"/><circle cx="408.5134280820057" cy="304.2536949600617" r="21.647810139256762" fill="#38bdf8" opacity="0.1"/><circle cx="300.0673191723763" cy="84.06717477191705" r="27.750040209066356" fill="#38bdf8" opacity="0.1"/><circle cx="1168.9979137625414" cy="307.2041836941935" r="36.87804177436192" fill="#38bdf8" opacity="0.1"/>
        <text x="600" y="520" font-family="Segoe UI, Arial, sans-serif" font-size="38" font-weight="800" fill="#ffffff" text-anchor="middle">Designing Adaptive Navigation Menus for Progressive Web A...</text>
        <text x="600" y="560" font-family="Segoe UI, Arial, sans-serif" font-size="16" font-weight="600" fill="#38bdf8" text-anchor="middle" style="letter-spacing: 4px; text-transform: uppercase;">UI UX Powerhouse • Specialized Series</text>
    </svg>