<svg width="1200" height="600" viewBox="0 0 1200 600" xmlns="http://www.w3.org/2000/svg">
            <rect width="1200" height="600" fill="#0c4a6e"/><path d="M 951.4166698249028 209.21976414301753 L 943.2447921280982 259.2197641430175 L 941.1827804559834 309.2197641430175" stroke="#7dd3fc" fill="none" opacity="0.4"/>
                    <circle cx="951.4166698249028" cy="209.21976414301753" r="3" fill="#f43f5e"/><path d="M 73.11688321424299 302.11902940282016 L 49.41078148012821 352.11902940282016 L 103.2007181111112 402.11902940282016" stroke="#7dd3fc" fill="none" opacity="0.4"/>
                    <circle cx="73.11688321424299" cy="302.11902940282016" r="3" fill="#f43f5e"/><path d="M 1068.5359567711203 83.86067756582634 L 1025.1751425374096 133.86067756582634 L 1053.7291500444553 183.86067756582634" stroke="#7dd3fc" fill="none" opacity="0.4"/>
                    <circle cx="1068.5359567711203" cy="83.86067756582634" r="3" fill="#f43f5e"/><path d="M 494.64745167206274 182.62993818425457 L 534.1050244179996 232.62993818425457 L 501.1445310959971 282.62993818425457" stroke="#7dd3fc" fill="none" opacity="0.4"/>
                    <circle cx="494.64745167206274" cy="182.62993818425457" r="3" fill="#f43f5e"/><path d="M 1168.5771791140724 23.658874641932925 L 1129.6972339376225 73.65887464193293 L 1191.052805747313 123.65887464193293" stroke="#7dd3fc" fill="none" opacity="0.4"/>
                    <circle cx="1168.5771791140724" cy="23.658874641932925" r="3" fill="#f43f5e"/><path d="M 809.5867720945989 341.63113258910016 L 855.9466528667144 391.63113258910016 L 816.1698885156056 441.63113258910016" stroke="#7dd3fc" fill="none" opacity="0.4"/>
                    <circle cx="809.5867720945989" cy="341.63113258910016" r="3" fill="#f43f5e"/><path d="M 695.5588856995746 31.827141141184256 L 712.1255585596373 81.82714114118426 L 704.0500939849153 131.82714114118426" stroke="#7dd3fc" fill="none" opacity="0.4"/>
                    <circle cx="695.5588856995746" cy="31.827141141184256" r="3" fill="#f43f5e"/><path d="M 195.5502094799158 196.17479107910185 L 226.02243979708874 246.17479107910185 L 227.19386701355688 296.17479107910185" stroke="#7dd3fc" fill="none" opacity="0.4"/>
                    <circle cx="195.5502094799158" cy="196.17479107910185" r="3" fill="#f43f5e"/><path d="M 98.9511924184626 94.97031015635002 L 109.77107508329027 144.97031015635002 L 90.86496968020583 194.97031015635002" stroke="#7dd3fc" fill="none" opacity="0.4"/>
                    <circle cx="98.9511924184626" cy="94.97031015635002" r="3" fill="#f43f5e"/><path d="M 673.9824874581245 33.23437659996671 L 636.3571551060886 83.23437659996671 L 716.1721237226175 133.2343765999667" stroke="#7dd3fc" fill="none" opacity="0.4"/>
                    <circle cx="673.9824874581245" cy="33.23437659996671" r="3" fill="#f43f5e"/>
            <text x="600" y="520" font-family="Segoe UI, Arial, sans-serif" font-size="38" font-weight="800" fill="#ffffff" text-anchor="middle">Designing Adaptive Learning Interfaces: Implementing Cont...</text>
            <text x="600" y="560" font-family="Segoe UI, Arial, sans-serif" font-size="16" font-weight="600" fill="#7dd3fc" text-anchor="middle" style="letter-spacing: 4px; text-transform: uppercase;">UI UX Powerhouse • Specialized Series</text>
        </svg>