<svg width="1200" height="600" viewBox="0 0 1200 600" xmlns="http://www.w3.org/2000/svg">
        
            <rect width="1200" height="600" fill="#312e81"/>
            <line x1="951.7261828004848" y1="381.2973516956845" x2="63.39497360277164" y2="23.601218921976397" stroke="#818cf8" stroke-width="0.5" opacity="0.4"/><line x1="951.7261828004848" y1="381.2973516956845" x2="155.96965144632122" y2="27.996804665599484" stroke="#818cf8" stroke-width="0.5" opacity="0.4"/><line x1="1182.68280311313" y1="184.13309887691867" x2="66.64150550641352" y2="191.5129895645805" stroke="#818cf8" stroke-width="0.5" opacity="0.4"/><line x1="1156.0056383161282" y1="138.91582521700911" x2="912.5103027923615" y2="246.02626501255145" stroke="#818cf8" stroke-width="0.5" opacity="0.4"/><line x1="1156.0056383161282" y1="138.91582521700911" x2="260.771991249203" y2="299.494263483939" stroke="#818cf8" stroke-width="0.5" opacity="0.4"/><line x1="1156.0056383161282" y1="138.91582521700911" x2="66.64150550641352" y2="191.5129895645805" stroke="#818cf8" stroke-width="0.5" opacity="0.4"/><line x1="839.6599377876555" y1="66.69506266171084" x2="260.771991249203" y2="299.494263483939" stroke="#818cf8" stroke-width="0.5" opacity="0.4"/><line x1="839.6599377876555" y1="66.69506266171084" x2="155.96965144632122" y2="27.996804665599484" stroke="#818cf8" stroke-width="0.5" opacity="0.4"/><line x1="912.5103027923615" y1="246.02626501255145" x2="63.39497360277164" y2="23.601218921976397" stroke="#818cf8" stroke-width="0.5" opacity="0.4"/><line x1="912.5103027923615" y1="246.02626501255145" x2="155.96965144632122" y2="27.996804665599484" stroke="#818cf8" stroke-width="0.5" opacity="0.4"/><line x1="912.5103027923615" y1="246.02626501255145" x2="405.44428834764403" y2="287.142243483504" stroke="#818cf8" stroke-width="0.5" opacity="0.4"/><line x1="16.622225558239734" y1="385.49468267283373" x2="66.64150550641352" y2="191.5129895645805" stroke="#818cf8" stroke-width="0.5" opacity="0.4"/><line x1="16.622225558239734" y1="385.49468267283373" x2="155.96965144632122" y2="27.996804665599484" stroke="#818cf8" stroke-width="0.5" opacity="0.4"/><line x1="16.622225558239734" y1="385.49468267283373" x2="405.44428834764403" y2="287.142243483504" stroke="#818cf8" stroke-width="0.5" opacity="0.4"/><line x1="63.39497360277164" y1="23.601218921976397" x2="405.44428834764403" y2="287.142243483504" stroke="#818cf8" stroke-width="0.5" opacity="0.4"/><line x1="66.64150550641352" y1="191.5129895645805" x2="278.56682326601003" y2="22.6195917930454" stroke="#818cf8" stroke-width="0.5" opacity="0.4"/><line x1="278.56682326601003" y1="22.6195917930454" x2="155.96965144632122" y2="27.996804665599484" stroke="#818cf8" stroke-width="0.5" opacity="0.4"/>
            <circle cx="951.7261828004848" cy="381.2973516956845" r="5.814235528399877" fill="#fcd34d" opacity="0.6"/><circle cx="1182.68280311313" cy="184.13309887691867" r="4.2931595490263135" fill="#fcd34d" opacity="0.6"/><circle cx="1156.0056383161282" cy="138.91582521700911" r="4.487470978448982" fill="#fcd34d" opacity="0.6"/><circle cx="839.6599377876555" cy="66.69506266171084" r="4.241829133146894" fill="#fcd34d" opacity="0.6"/><circle cx="912.5103027923615" cy="246.02626501255145" r="2.50713916530367" fill="#fcd34d" opacity="0.6"/><circle cx="260.771991249203" cy="299.494263483939" r="5.050207768297696" fill="#fcd34d" opacity="0.6"/><circle cx="16.622225558239734" cy="385.49468267283373" r="2.0746845206631406" fill="#fcd34d" opacity="0.6"/><circle cx="63.39497360277164" cy="23.601218921976397" r="4.160927574637753" fill="#fcd34d" opacity="0.6"/><circle cx="66.64150550641352" cy="191.5129895645805" r="2.335413856660125" fill="#fcd34d" opacity="0.6"/><circle cx="278.56682326601003" cy="22.6195917930454" r="2.4962912290138775" fill="#fcd34d" opacity="0.6"/><circle cx="155.96965144632122" cy="27.996804665599484" r="2.9882666955309105" fill="#fcd34d" opacity="0.6"/><circle cx="405.44428834764403" cy="287.142243483504" r="5.267998484840064" fill="#fcd34d" opacity="0.6"/>
        
        <text x="600" y="520" font-family="Segoe UI, Arial, sans-serif" font-size="38" font-weight="800" fill="#ffffff" text-anchor="middle">Designing Adaptive UI Patterns for Real-Time Collaboratio...</text>
        <text x="600" y="560" font-family="Segoe UI, Arial, sans-serif" font-size="16" font-weight="600" fill="#818cf8" text-anchor="middle" style="letter-spacing: 4px; text-transform: uppercase;">UI UX Powerhouse • Intelligence in Design</text>
    </svg>