<svg width="1200" height="600" viewBox="0 0 1200 600" xmlns="http://www.w3.org/2000/svg">
            <rect width="1200" height="600" fill="#0c4a6e"/><rect x="150" y="180.32887933804886" width="60" height="169.67112066195114" fill="#7dd3fc" opacity="0.6"/>
                    <rect x="170" y="160.32887933804886" width="60" height="169.67112066195114" fill="#38bdf8" opacity="0.4" transform="skewY(-20)"/><rect x="270" y="279.5407673675072" width="60" height="70.45923263249279" fill="#7dd3fc" opacity="0.6"/>
                    <rect x="290" y="259.5407673675072" width="60" height="70.45923263249279" fill="#38bdf8" opacity="0.4" transform="skewY(-20)"/><rect x="390" y="118.31179547807551" width="60" height="231.6882045219245" fill="#7dd3fc" opacity="0.6"/>
                    <rect x="410" y="98.31179547807551" width="60" height="231.6882045219245" fill="#38bdf8" opacity="0.4" transform="skewY(-20)"/><rect x="510" y="178.8679073446474" width="60" height="171.1320926553526" fill="#7dd3fc" opacity="0.6"/>
                    <rect x="530" y="158.8679073446474" width="60" height="171.1320926553526" fill="#38bdf8" opacity="0.4" transform="skewY(-20)"/><rect x="630" y="227.214248996097" width="60" height="122.78575100390299" fill="#7dd3fc" opacity="0.6"/>
                    <rect x="650" y="207.214248996097" width="60" height="122.78575100390299" fill="#38bdf8" opacity="0.4" transform="skewY(-20)"/><rect x="750" y="151.1388051771064" width="60" height="198.8611948228936" fill="#7dd3fc" opacity="0.6"/>
                    <rect x="770" y="131.1388051771064" width="60" height="198.8611948228936" fill="#38bdf8" opacity="0.4" transform="skewY(-20)"/><rect x="870" y="198.4813973758719" width="60" height="151.5186026241281" fill="#7dd3fc" opacity="0.6"/>
                    <rect x="890" y="178.4813973758719" width="60" height="151.5186026241281" fill="#38bdf8" opacity="0.4" transform="skewY(-20)"/><rect x="990" y="278.1555928639136" width="60" height="71.84440713608637" fill="#7dd3fc" opacity="0.6"/>
                    <rect x="1010" y="258.1555928639136" width="60" height="71.84440713608637" fill="#38bdf8" opacity="0.4" transform="skewY(-20)"/>
            <text x="600" y="520" font-family="Segoe UI, Arial, sans-serif" font-size="38" font-weight="800" fill="#ffffff" text-anchor="middle">Designing Adaptive Interfaces: Implementing Contextual Us...</text>
            <text x="600" y="560" font-family="Segoe UI, Arial, sans-serif" font-size="16" font-weight="600" fill="#7dd3fc" text-anchor="middle" style="letter-spacing: 4px; text-transform: uppercase;">UI UX Powerhouse • Specialized Series</text>
        </svg>