<svg width="1200" height="600" viewBox="0 0 1200 600" xmlns="http://www.w3.org/2000/svg">
            <rect width="1200" height="600" fill="#111827"/><circle cx="243.2713836504263" cy="240.83018400197034" r="29.360954327785294" fill="#10b981" opacity="0.1"/><circle cx="728.8785561122495" cy="331.89067319653986" r="44.837676317984005" fill="#10b981" opacity="0.1"/><circle cx="87.00117413245607" cy="22.433766693939106" r="44.92912303721823" fill="#10b981" opacity="0.1"/><circle cx="331.0515179487993" cy="274.4839374368894" r="49.53767000231892" fill="#10b981" opacity="0.1"/><circle cx="1118.814384030111" cy="102.34960594743825" r="41.64722514913592" fill="#10b981" opacity="0.1"/><circle cx="1105.909125555263" cy="255.0147421650763" r="14.110208595393487" fill="#10b981" opacity="0.1"/><circle cx="218.31961083735223" cy="315.4081207096169" r="24.707752068861737" fill="#10b981" opacity="0.1"/><circle cx="957.1003929711878" cy="89.76125870740361" r="41.36777182757214" fill="#10b981" opacity="0.1"/><circle cx="225.71852789260447" cy="41.20548333939951" r="19.410968761803815" fill="#10b981" opacity="0.1"/><circle cx="166.89408099809953" cy="258.9642431361426" r="16.353846946003614" fill="#10b981" opacity="0.1"/><circle cx="123.20099676871905" cy="103.78846468011034" r="34.42917978263722" fill="#10b981" opacity="0.1"/><circle cx="1046.3795104587916" cy="137.55667078658007" r="43.7862047906674" fill="#10b981" opacity="0.1"/><circle cx="1122.0318676425904" cy="13.498341992453788" r="22.402236341386015" fill="#10b981" opacity="0.1"/><circle cx="178.26462362900202" cy="118.36981793385348" r="46.08331134226319" fill="#10b981" opacity="0.1"/><circle cx="626.6341502363503" cy="209.41604618450356" r="34.22553279735439" fill="#10b981" opacity="0.1"/><circle cx="842.104569422554" cy="101.84972921706503" r="39.52608489358681" fill="#10b981" opacity="0.1"/><circle cx="1109.6264305047953" cy="193.6849771773268" r="48.72784007633527" fill="#10b981" opacity="0.1"/><circle cx="957.1299168668702" cy="305.08314932885696" r="11.383105493150651" fill="#10b981" opacity="0.1"/><circle cx="858.4238087089034" cy="396.51818810561963" r="40.255018432362704" fill="#10b981" opacity="0.1"/><circle cx="959.9314465642237" cy="333.86586100796194" r="33.96507550782189" fill="#10b981" opacity="0.1"/><circle cx="81.22571079238696" cy="328.6750885385118" r="25.29363436558924" fill="#10b981" opacity="0.1"/><circle cx="1161.4382558084344" cy="128.4725859777609" r="23.296462108773994" fill="#10b981" opacity="0.1"/><circle cx="1067.662523904437" cy="175.73214529311372" r="25.96552357335895" fill="#10b981" opacity="0.1"/><circle cx="1198.6059634171397" cy="22.764333596569486" r="23.61342965377844" fill="#10b981" opacity="0.1"/><circle cx="37.756901422835654" cy="115.73124659862515" r="26.184740967437392" fill="#10b981" opacity="0.1"/><circle cx="442.98961346939905" cy="217.1945774825872" r="36.69000545058225" fill="#10b981" opacity="0.1"/><circle cx="866.3421205270197" cy="199.67325511897798" r="34.04067104389469" fill="#10b981" opacity="0.1"/><circle cx="1015.3169631652418" cy="189.94437038054457" r="19.695452943706186" fill="#10b981" opacity="0.1"/><circle cx="1050.1589610962583" cy="249.68484836790594" r="22.953291749035998" fill="#10b981" opacity="0.1"/><circle cx="1076.0753533933894" cy="261.47339545132127" r="15.986168368581275" fill="#10b981" opacity="0.1"/>
            <text x="600" y="520" font-family="Segoe UI, Arial, sans-serif" font-size="38" font-weight="800" fill="#ffffff" text-anchor="middle">Designing Interactive Multi-Level Dropdown Menus with Eff...</text>
            <text x="600" y="560" font-family="Segoe UI, Arial, sans-serif" font-size="16" font-weight="600" fill="#10b981" text-anchor="middle" style="letter-spacing: 4px; text-transform: uppercase;">UI UX Powerhouse • Specialized Series</text>
        </svg>