<svg width="1200" height="600" viewBox="0 0 1200 600" xmlns="http://www.w3.org/2000/svg">
        <rect width="1200" height="600" fill="#171717"/><circle cx="34.848577880256926" cy="259.9046053714119" r="38.967042450240115" fill="#f59e0b" opacity="0.1"/><circle cx="647.31648365414" cy="143.3525645534246" r="25.74965618094211" fill="#f59e0b" opacity="0.1"/><circle cx="879.2335109690612" cy="289.5912374235195" r="20.4451946802601" fill="#f59e0b" opacity="0.1"/><circle cx="1199.380737170577" cy="119.36183933030406" r="45.70863255576114" fill="#f59e0b" opacity="0.1"/><circle cx="493.76391076766595" cy="273.0822749872459" r="18.387754069335642" fill="#f59e0b" opacity="0.1"/><circle cx="870.8007280387392" cy="228.16856639767593" r="48.84714088962937" fill="#f59e0b" opacity="0.1"/><circle cx="314.95208182277565" cy="391.1749101240275" r="37.48502454134723" fill="#f59e0b" opacity="0.1"/><circle cx="497.8975397258182" cy="308.781628809993" r="16.092124745955516" fill="#f59e0b" opacity="0.1"/><circle cx="446.3756465268034" cy="169.97329719197296" r="35.247662754845805" fill="#f59e0b" opacity="0.1"/><circle cx="589.7698102293361" cy="284.11529310014885" r="29.37502842491085" fill="#f59e0b" opacity="0.1"/><circle cx="684.2654208685417" cy="105.56346064440731" r="48.95825967472774" fill="#f59e0b" opacity="0.1"/><circle cx="599.5292761639575" cy="218.49941327236593" r="46.16208229737822" fill="#f59e0b" opacity="0.1"/><circle cx="648.6954400177638" cy="353.12866201784345" r="27.052511097936076" fill="#f59e0b" opacity="0.1"/><circle cx="753.7014381552581" cy="140.87655685689242" r="14.451782145988545" fill="#f59e0b" opacity="0.1"/><circle cx="26.886584722524276" cy="390.4139156191377" r="13.298049383774924" fill="#f59e0b" opacity="0.1"/><circle cx="1169.4371888937894" cy="7.572194615204353" r="33.843919851860846" fill="#f59e0b" opacity="0.1"/><circle cx="334.736214786426" cy="298.17425734490826" r="26.07061286107637" fill="#f59e0b" opacity="0.1"/><circle cx="1185.470884996903" cy="83.50544153654482" r="24.79382852117851" fill="#f59e0b" opacity="0.1"/><circle cx="905.4428335781267" cy="242.4871562518092" r="44.73650453837763" fill="#f59e0b" opacity="0.1"/><circle cx="347.0684416954555" cy="101.72622780664824" r="28.70320784233627" fill="#f59e0b" opacity="0.1"/><circle cx="798.5187448735815" cy="161.3183235982433" r="42.605166267712775" fill="#f59e0b" opacity="0.1"/><circle cx="616.0791004327621" cy="241.7326830283855" r="18.124020918330643" fill="#f59e0b" opacity="0.1"/><circle cx="70.45434655010467" cy="279.6927469440561" r="36.374656274783774" fill="#f59e0b" opacity="0.1"/><circle cx="772.8230852993875" cy="363.763505496172" r="18.764655791055702" fill="#f59e0b" opacity="0.1"/><circle cx="330.90461414685706" cy="59.16856654575895" r="32.37447276325838" fill="#f59e0b" opacity="0.1"/><circle cx="564.4772981084316" cy="218.6435556912329" r="28.560913959154277" fill="#f59e0b" opacity="0.1"/><circle cx="101.19245533205685" cy="179.01744583123218" r="47.97209317029228" fill="#f59e0b" opacity="0.1"/><circle cx="1048.6073698688415" cy="252.75234724194888" r="26.629757697301102" fill="#f59e0b" opacity="0.1"/><circle cx="272.8081121629657" cy="87.67365281964885" r="40.09450985970034" fill="#f59e0b" opacity="0.1"/><circle cx="551.31654329507" cy="103.46599631193385" r="10.792624642708688" fill="#f59e0b" opacity="0.1"/>
        <text x="600" y="520" font-family="Segoe UI, Arial, sans-serif" font-size="38" font-weight="800" fill="#ffffff" text-anchor="middle">Designing Gesture-Based Interactions for Complex Data Vis...</text>
        <text x="600" y="560" font-family="Segoe UI, Arial, sans-serif" font-size="16" font-weight="600" fill="#f59e0b" text-anchor="middle" style="letter-spacing: 4px; text-transform: uppercase;">UI UX Powerhouse • Specialized Series</text>
    </svg>