<svg width="1200" height="600" viewBox="0 0 1200 600" xmlns="http://www.w3.org/2000/svg">
            <rect width="1200" height="600" fill="#2e1065"/><rect x="150" y="236.51699105575972" width="60" height="113.48300894424028" fill="#d8b4fe" opacity="0.6"/>
                    <rect x="170" y="216.51699105575972" width="60" height="113.48300894424028" fill="#a855f7" opacity="0.4" transform="skewY(-20)"/><rect x="270" y="296.55275300101493" width="60" height="53.447246998985065" fill="#d8b4fe" opacity="0.6"/>
                    <rect x="290" y="276.55275300101493" width="60" height="53.447246998985065" fill="#a855f7" opacity="0.4" transform="skewY(-20)"/><rect x="390" y="105.47771743440535" width="60" height="244.52228256559465" fill="#d8b4fe" opacity="0.6"/>
                    <rect x="410" y="85.47771743440535" width="60" height="244.52228256559465" fill="#a855f7" opacity="0.4" transform="skewY(-20)"/><rect x="510" y="293.4194213095907" width="60" height="56.58057869040931" fill="#d8b4fe" opacity="0.6"/>
                    <rect x="530" y="273.4194213095907" width="60" height="56.58057869040931" fill="#a855f7" opacity="0.4" transform="skewY(-20)"/><rect x="630" y="258.41181228433925" width="60" height="91.58818771566075" fill="#d8b4fe" opacity="0.6"/>
                    <rect x="650" y="238.41181228433925" width="60" height="91.58818771566075" fill="#a855f7" opacity="0.4" transform="skewY(-20)"/><rect x="750" y="294.8191899155063" width="60" height="55.180810084493714" fill="#d8b4fe" opacity="0.6"/>
                    <rect x="770" y="274.8191899155063" width="60" height="55.180810084493714" fill="#a855f7" opacity="0.4" transform="skewY(-20)"/><rect x="870" y="234.554933508025" width="60" height="115.44506649197501" fill="#d8b4fe" opacity="0.6"/>
                    <rect x="890" y="214.554933508025" width="60" height="115.44506649197501" fill="#a855f7" opacity="0.4" transform="skewY(-20)"/><rect x="990" y="190.4172661357279" width="60" height="159.5827338642721" fill="#d8b4fe" opacity="0.6"/>
                    <rect x="1010" y="170.4172661357279" width="60" height="159.5827338642721" fill="#a855f7" opacity="0.4" transform="skewY(-20)"/>
            <text x="600" y="520" font-family="Segoe UI, Arial, sans-serif" font-size="38" font-weight="800" fill="#ffffff" text-anchor="middle">Designing Adaptive Color Schemes for Data Visualization: ...</text>
            <text x="600" y="560" font-family="Segoe UI, Arial, sans-serif" font-size="16" font-weight="600" fill="#d8b4fe" text-anchor="middle" style="letter-spacing: 4px; text-transform: uppercase;">UI UX Powerhouse • Specialized Series</text>
        </svg>