<svg width="1200" height="600" viewBox="0 0 1200 600" xmlns="http://www.w3.org/2000/svg">
        <rect width="1200" height="600" fill="#2e1065"/><path d="M 882.1010021074471 360.68993810968095 L 910.5051627358989 410.68993810968095 L 924.0831707839334 460.68993810968095" stroke="#d8b4fe" fill="none" opacity="0.4"/>
                    <circle cx="882.1010021074471" cy="360.68993810968095" r="3" fill="#4ade80"/><path d="M 144.21657353705086 222.75730090186698 L 117.67869894338219 272.757300901867 L 181.20830468715212 322.757300901867" stroke="#d8b4fe" fill="none" opacity="0.4"/>
                    <circle cx="144.21657353705086" cy="222.75730090186698" r="3" fill="#4ade80"/><path d="M 108.8822473804612 263.3150678469974 L 131.7546115093137 313.3150678469974 L 69.27682962750623 363.3150678469974" stroke="#d8b4fe" fill="none" opacity="0.4"/>
                    <circle cx="108.8822473804612" cy="263.3150678469974" r="3" fill="#4ade80"/><path d="M 339.99814019371115 256.25327993584506 L 353.89368655150975 306.25327993584506 L 380.8371649653054 356.25327993584506" stroke="#d8b4fe" fill="none" opacity="0.4"/>
                    <circle cx="339.99814019371115" cy="256.25327993584506" r="3" fill="#4ade80"/><path d="M 781.5220662811043 204.1857199394144 L 762.5326280898662 254.1857199394144 L 811.3788227987698 304.1857199394144" stroke="#d8b4fe" fill="none" opacity="0.4"/>
                    <circle cx="781.5220662811043" cy="204.1857199394144" r="3" fill="#4ade80"/><path d="M 544.2239293464809 144.8254721282865 L 508.84962613486096 194.8254721282865 L 538.7308298982134 244.8254721282865" stroke="#d8b4fe" fill="none" opacity="0.4"/>
                    <circle cx="544.2239293464809" cy="144.8254721282865" r="3" fill="#4ade80"/><path d="M 952.796351748367 361.7356435221154 L 924.4467033250032 411.7356435221154 L 951.4640917269219 461.7356435221154" stroke="#d8b4fe" fill="none" opacity="0.4"/>
                    <circle cx="952.796351748367" cy="361.7356435221154" r="3" fill="#4ade80"/><path d="M 1106.6371431597872 104.4228273036424 L 1147.6063940524 154.4228273036424 L 1107.276229988429 204.4228273036424" stroke="#d8b4fe" fill="none" opacity="0.4"/>
                    <circle cx="1106.6371431597872" cy="104.4228273036424" r="3" fill="#4ade80"/><path d="M 223.63333390749176 326.83048136950674 L 263.1940856655092 376.83048136950674 L 203.25165979702433 426.83048136950674" stroke="#d8b4fe" fill="none" opacity="0.4"/>
                    <circle cx="223.63333390749176" cy="326.83048136950674" r="3" fill="#4ade80"/><path d="M 774.324633415381 173.12008281805902 L 790.3102194594794 223.12008281805902 L 806.8968339439834 273.120082818059" stroke="#d8b4fe" fill="none" opacity="0.4"/>
                    <circle cx="774.324633415381" cy="173.12008281805902" r="3" fill="#4ade80"/>
        <text x="600" y="520" font-family="Segoe UI, Arial, sans-serif" font-size="38" font-weight="800" fill="#ffffff" text-anchor="middle">Designing Adaptive Interface Patterns for Navigating Comp...</text>
        <text x="600" y="560" font-family="Segoe UI, Arial, sans-serif" font-size="16" font-weight="600" fill="#d8b4fe" text-anchor="middle" style="letter-spacing: 4px; text-transform: uppercase;">UI UX Powerhouse • Specialized Series</text>
    </svg>