<svg width="1200" height="600" viewBox="0 0 1200 600" xmlns="http://www.w3.org/2000/svg">
            <rect width="1200" height="600" fill="#0c4a6e"/><circle cx="1070.839514801628" cy="273.8343164404796" r="38.80389979883148" fill="#7dd3fc" opacity="0.1"/><circle cx="526.93693609599" cy="371.45894655332086" r="33.75925346733766" fill="#7dd3fc" opacity="0.1"/><circle cx="723.9117643013742" cy="249.2998883833934" r="34.48931680446549" fill="#7dd3fc" opacity="0.1"/><circle cx="640.3524548924906" cy="271.89519351049967" r="23.482261608569388" fill="#7dd3fc" opacity="0.1"/><circle cx="915.2236386136792" cy="122.22274107116391" r="47.95065599406371" fill="#7dd3fc" opacity="0.1"/><circle cx="410.32881296850974" cy="42.53595797417802" r="10.2064814951882" fill="#7dd3fc" opacity="0.1"/><circle cx="886.097515502297" cy="354.0715363124946" r="45.2305579952008" fill="#7dd3fc" opacity="0.1"/><circle cx="56.11678945351741" cy="283.64993660343316" r="27.689801866799826" fill="#7dd3fc" opacity="0.1"/><circle cx="872.8030338887038" cy="188.50075005561848" r="14.396182412674534" fill="#7dd3fc" opacity="0.1"/><circle cx="878.7315076362574" cy="38.12334918839042" r="20.54650445228617" fill="#7dd3fc" opacity="0.1"/><circle cx="246.7070832331956" cy="34.90038365489454" r="34.453820863272995" fill="#7dd3fc" opacity="0.1"/><circle cx="1039.0763589566632" cy="266.7947850190103" r="27.897684033523547" fill="#7dd3fc" opacity="0.1"/><circle cx="192.57455824772478" cy="289.39302701601264" r="41.812501908570994" fill="#7dd3fc" opacity="0.1"/><circle cx="19.65098774389844" cy="169.46535333117936" r="49.36885535295005" fill="#7dd3fc" opacity="0.1"/><circle cx="835.855974072183" cy="1.6683367030054796" r="19.830055433267262" fill="#7dd3fc" opacity="0.1"/><circle cx="914.1557480070333" cy="284.9963171996933" r="45.35807117528748" fill="#7dd3fc" opacity="0.1"/><circle cx="395.9982258184027" cy="128.5538008349249" r="14.63227749649377" fill="#7dd3fc" opacity="0.1"/><circle cx="962.9725726728793" cy="139.43387037652428" r="34.458575413154904" fill="#7dd3fc" opacity="0.1"/><circle cx="944.8396113446506" cy="394.24514497004566" r="21.047988543759857" fill="#7dd3fc" opacity="0.1"/><circle cx="468.5608691104562" cy="173.97350532773999" r="28.10355130197422" fill="#7dd3fc" opacity="0.1"/><circle cx="952.2264843155426" cy="126.64669044897892" r="43.02338630943268" fill="#7dd3fc" opacity="0.1"/><circle cx="864.787200461069" cy="336.0954995256179" r="40.63886914998875" fill="#7dd3fc" opacity="0.1"/><circle cx="434.19605826056795" cy="119.60976352056605" r="13.817897789122071" fill="#7dd3fc" opacity="0.1"/><circle cx="59.63531437373604" cy="42.85531804453058" r="13.868095922516659" fill="#7dd3fc" opacity="0.1"/><circle cx="289.23468430002686" cy="24.336240382035612" r="23.906190296220302" fill="#7dd3fc" opacity="0.1"/><circle cx="311.73535058296693" cy="54.690930937249504" r="15.885024160015746" fill="#7dd3fc" opacity="0.1"/><circle cx="1093.4185640689975" cy="50.60662343457807" r="10.876851526409155" fill="#7dd3fc" opacity="0.1"/><circle cx="322.75783406585106" cy="57.7716774030705" r="37.81734551263071" fill="#7dd3fc" opacity="0.1"/><circle cx="867.8136903894483" cy="178.8580545156492" r="34.66867446695687" fill="#7dd3fc" opacity="0.1"/><circle cx="431.45962730286556" cy="284.5054340570641" r="15.059945136745228" fill="#7dd3fc" opacity="0.1"/>
            <text x="600" y="520" font-family="Segoe UI, Arial, sans-serif" font-size="38" font-weight="800" fill="#ffffff" text-anchor="middle">Designing Responsive Micro-Interactions with CSS Animatio...</text>
            <text x="600" y="560" font-family="Segoe UI, Arial, sans-serif" font-size="16" font-weight="600" fill="#7dd3fc" text-anchor="middle" style="letter-spacing: 4px; text-transform: uppercase;">UI UX Powerhouse • Specialized Series</text>
        </svg>