<svg width="1200" height="600" viewBox="0 0 1200 600" xmlns="http://www.w3.org/2000/svg">
            <rect width="1200" height="600" fill="#111827"/><circle cx="159.22161212474748" cy="378.43315901918686" r="18.243335806073446" fill="#10b981" opacity="0.1"/><circle cx="475.8380098035559" cy="5.91746916907141" r="49.587879199534655" fill="#10b981" opacity="0.1"/><circle cx="256.8552418440959" cy="22.930944096515304" r="14.293281917125569" fill="#10b981" opacity="0.1"/><circle cx="796.0462163839111" cy="68.42502757135662" r="38.27961144212168" fill="#10b981" opacity="0.1"/><circle cx="435.0956891241367" cy="178.6766662648006" r="22.689091334468685" fill="#10b981" opacity="0.1"/><circle cx="491.5142030615243" cy="31.948087840464723" r="46.19162491042516" fill="#10b981" opacity="0.1"/><circle cx="553.6818111351749" cy="276.69342764311295" r="13.264202463105903" fill="#10b981" opacity="0.1"/><circle cx="437.57906808568805" cy="77.45614976302022" r="40.03465549321845" fill="#10b981" opacity="0.1"/><circle cx="950.9356259790366" cy="208.8193670657347" r="17.241207036713604" fill="#10b981" opacity="0.1"/><circle cx="857.1167384390719" cy="378.2941490277153" r="38.36919128159934" fill="#10b981" opacity="0.1"/><circle cx="952.0181171505101" cy="257.3972106416477" r="44.67191150412418" fill="#10b981" opacity="0.1"/><circle cx="380.9350984993216" cy="21.804687647818355" r="27.559749168067356" fill="#10b981" opacity="0.1"/><circle cx="481.42503312119516" cy="104.88544066101895" r="28.732527799402305" fill="#10b981" opacity="0.1"/><circle cx="1076.0393888165709" cy="259.6407066863321" r="14.488340853968111" fill="#10b981" opacity="0.1"/><circle cx="954.2514438533544" cy="266.24095318366017" r="49.54862415441312" fill="#10b981" opacity="0.1"/><circle cx="80.6396555948595" cy="48.7933291689842" r="38.42319538190168" fill="#10b981" opacity="0.1"/><circle cx="994.7522561280493" cy="340.61353415527265" r="48.47338335086533" fill="#10b981" opacity="0.1"/><circle cx="696.7025624995586" cy="207.8757303810562" r="19.152959723614913" fill="#10b981" opacity="0.1"/><circle cx="345.78464390979207" cy="20.016389076045016" r="11.88339117259602" fill="#10b981" opacity="0.1"/><circle cx="714.6399272878625" cy="63.03405909566209" r="12.86705812252194" fill="#10b981" opacity="0.1"/><circle cx="289.670212306919" cy="149.06271998188458" r="45.65371439639421" fill="#10b981" opacity="0.1"/><circle cx="865.8944518749195" cy="330.3892705705948" r="25.90810489098658" fill="#10b981" opacity="0.1"/><circle cx="545.9050465309701" cy="54.76231059292331" r="26.284081541889464" fill="#10b981" opacity="0.1"/><circle cx="485.6775989174366" cy="134.35019954449672" r="45.024047371334746" fill="#10b981" opacity="0.1"/><circle cx="40.23195858972031" cy="291.07252524481737" r="13.307767911339354" fill="#10b981" opacity="0.1"/><circle cx="286.2319580062831" cy="152.7349825249985" r="38.65043903038895" fill="#10b981" opacity="0.1"/><circle cx="66.0860380045051" cy="69.36899316206109" r="16.616897436178988" fill="#10b981" opacity="0.1"/><circle cx="718.6520518884208" cy="387.08522995293606" r="29.069119137202506" fill="#10b981" opacity="0.1"/><circle cx="333.2538196340465" cy="104.40497316567416" r="32.085056120522495" fill="#10b981" opacity="0.1"/><circle cx="10.823160254949471" cy="241.9150088529932" r="39.33829462554968" fill="#10b981" opacity="0.1"/>
            <text x="600" y="520" font-family="Segoe UI, Arial, sans-serif" font-size="38" font-weight="800" fill="#ffffff" text-anchor="middle">Designing Adaptive Navigation Patterns for Immersive Web ...</text>
            <text x="600" y="560" font-family="Segoe UI, Arial, sans-serif" font-size="16" font-weight="600" fill="#10b981" text-anchor="middle" style="letter-spacing: 4px; text-transform: uppercase;">UI UX Powerhouse • Specialized Series</text>
        </svg>