<svg width="1200" height="600" viewBox="0 0 1200 600" xmlns="http://www.w3.org/2000/svg">
        <rect width="1200" height="600" fill="#171717"/><path d="M 1095.8817619495676 346.3456837904232 L 1138.4895733384838 396.3456837904232 L 1087.1548508019714 446.3456837904232" stroke="#f59e0b" fill="none" opacity="0.4"/>
                    <circle cx="1095.8817619495676" cy="346.3456837904232" r="3" fill="#ec4899"/><path d="M 1157.8492670054402 177.9954579736568 L 1174.0216338221217 227.9954579736568 L 1142.529826129794 277.9954579736568" stroke="#f59e0b" fill="none" opacity="0.4"/>
                    <circle cx="1157.8492670054402" cy="177.9954579736568" r="3" fill="#ec4899"/><path d="M 457.5259860317601 60.65429849750217 L 446.439388872534 110.65429849750217 L 452.1934999882433 160.65429849750217" stroke="#f59e0b" fill="none" opacity="0.4"/>
                    <circle cx="457.5259860317601" cy="60.65429849750217" r="3" fill="#ec4899"/><path d="M 796.8307980707323 201.25686651626893 L 758.1244653307294 251.25686651626893 L 818.6881787784841 301.25686651626893" stroke="#f59e0b" fill="none" opacity="0.4"/>
                    <circle cx="796.8307980707323" cy="201.25686651626893" r="3" fill="#ec4899"/><path d="M 1056.6567792327987 60.903637277078815 L 1069.771671397757 110.90363727707881 L 1024.1723686318437 160.90363727707881" stroke="#f59e0b" fill="none" opacity="0.4"/>
                    <circle cx="1056.6567792327987" cy="60.903637277078815" r="3" fill="#ec4899"/><path d="M 242.49821415724 166.92741179303994 L 192.7777801832235 216.92741179303994 L 208.26459180261736 266.92741179303994" stroke="#f59e0b" fill="none" opacity="0.4"/>
                    <circle cx="242.49821415724" cy="166.92741179303994" r="3" fill="#ec4899"/><path d="M 1100.769401541038 21.7721014705603 L 1092.7449489350693 71.7721014705603 L 1090.9627205455763 121.7721014705603" stroke="#f59e0b" fill="none" opacity="0.4"/>
                    <circle cx="1100.769401541038" cy="21.7721014705603" r="3" fill="#ec4899"/><path d="M 929.1450877218722 276.1933451954974 L 955.0195970879486 326.1933451954974 L 961.0448166077049 376.1933451954974" stroke="#f59e0b" fill="none" opacity="0.4"/>
                    <circle cx="929.1450877218722" cy="276.1933451954974" r="3" fill="#ec4899"/><path d="M 736.8688462629507 6.777948077797191 L 780.5534461656862 56.77794807779719 L 786.8397451294186 106.77794807779719" stroke="#f59e0b" fill="none" opacity="0.4"/>
                    <circle cx="736.8688462629507" cy="6.777948077797191" r="3" fill="#ec4899"/><path d="M 124.4870300484763 398.4102427504695 L 93.47601601648421 448.4102427504695 L 155.21872157987673 498.4102427504695" stroke="#f59e0b" fill="none" opacity="0.4"/>
                    <circle cx="124.4870300484763" cy="398.4102427504695" r="3" fill="#ec4899"/>
        <text x="600" y="520" font-family="Segoe UI, Arial, sans-serif" font-size="38" font-weight="800" fill="#ffffff" text-anchor="middle">Designing for Performance: Implementing Progressive Web A...</text>
        <text x="600" y="560" font-family="Segoe UI, Arial, sans-serif" font-size="16" font-weight="600" fill="#f59e0b" text-anchor="middle" style="letter-spacing: 4px; text-transform: uppercase;">UI UX Powerhouse • Specialized Series</text>
    </svg>