<svg width="1200" height="600" viewBox="0 0 1200 600" xmlns="http://www.w3.org/2000/svg">
        <rect width="1200" height="600" fill="#111827"/><path d="M 382.06642978839227 373.89115299956757 L 363.62040925369 423.89115299956757 L 384.75057906325674 473.89115299956757" stroke="#10b981" fill="none" opacity="0.4"/>
                    <circle cx="382.06642978839227" cy="373.89115299956757" r="3" fill="#fbbf24"/><path d="M 1145.6838056761626 289.4854789400597 L 1161.0747667596115 339.4854789400597 L 1171.1422477769702 389.4854789400597" stroke="#10b981" fill="none" opacity="0.4"/>
                    <circle cx="1145.6838056761626" cy="289.4854789400597" r="3" fill="#fbbf24"/><path d="M 563.0870799082459 313.8823285622493 L 538.6399835018437 363.8823285622493 L 516.4056318080952 413.8823285622493" stroke="#10b981" fill="none" opacity="0.4"/>
                    <circle cx="563.0870799082459" cy="313.8823285622493" r="3" fill="#fbbf24"/><path d="M 1114.1776417935944 177.3504530399805 L 1099.6223337741867 227.3504530399805 L 1124.2220334446984 277.3504530399805" stroke="#10b981" fill="none" opacity="0.4"/>
                    <circle cx="1114.1776417935944" cy="177.3504530399805" r="3" fill="#fbbf24"/><path d="M 657.686932462093 104.72037857261967 L 623.3509039737328 154.72037857261967 L 660.1334592663989 204.72037857261967" stroke="#10b981" fill="none" opacity="0.4"/>
                    <circle cx="657.686932462093" cy="104.72037857261967" r="3" fill="#fbbf24"/><path d="M 986.8186569729005 179.94952821318293 L 941.5520606631617 229.94952821318293 L 1005.4081364635749 279.94952821318293" stroke="#10b981" fill="none" opacity="0.4"/>
                    <circle cx="986.8186569729005" cy="179.94952821318293" r="3" fill="#fbbf24"/><path d="M 646.9413190607156 213.83736268953726 L 686.2349336446641 263.83736268953726 L 694.961457260797 313.83736268953726" stroke="#10b981" fill="none" opacity="0.4"/>
                    <circle cx="646.9413190607156" cy="213.83736268953726" r="3" fill="#fbbf24"/><path d="M 566.3370228785425 176.67930780589813 L 554.8002513585743 226.67930780589813 L 528.2062053821392 276.67930780589813" stroke="#10b981" fill="none" opacity="0.4"/>
                    <circle cx="566.3370228785425" cy="176.67930780589813" r="3" fill="#fbbf24"/><path d="M 878.4813581965864 104.02850955942995 L 903.9950151885478 154.02850955942995 L 870.7533658910506 204.02850955942995" stroke="#10b981" fill="none" opacity="0.4"/>
                    <circle cx="878.4813581965864" cy="104.02850955942995" r="3" fill="#fbbf24"/><path d="M 766.4557355443321 341.65291795507073 L 794.3121994091598 391.65291795507073 L 728.6859011428533 441.65291795507073" stroke="#10b981" fill="none" opacity="0.4"/>
                    <circle cx="766.4557355443321" cy="341.65291795507073" r="3" fill="#fbbf24"/>
        <text x="600" y="520" font-family="Segoe UI, Arial, sans-serif" font-size="38" font-weight="800" fill="#ffffff" text-anchor="middle">Designing Contextual User Onboarding Experiences for Comp...</text>
        <text x="600" y="560" font-family="Segoe UI, Arial, sans-serif" font-size="16" font-weight="600" fill="#10b981" text-anchor="middle" style="letter-spacing: 4px; text-transform: uppercase;">UI UX Powerhouse • Specialized Series</text>
    </svg>