<svg width="1200" height="600" viewBox="0 0 1200 600" xmlns="http://www.w3.org/2000/svg">
        
            <rect width="1200" height="600" fill="#0f172a"/>
            <line x1="991.1631660954299" y1="293.9572014100122" x2="44.41389832973073" y2="217.31318379165714" stroke="#38bdf8" stroke-width="0.5" opacity="0.4"/><line x1="1012.6517756107205" y1="23.872638800094137" x2="174.94086619990412" y2="115.58154947315415" stroke="#38bdf8" stroke-width="0.5" opacity="0.4"/><line x1="338.92483536328655" y1="267.44867455572603" x2="174.94086619990412" y2="115.58154947315415" stroke="#38bdf8" stroke-width="0.5" opacity="0.4"/><line x1="338.92483536328655" y1="267.44867455572603" x2="44.41389832973073" y2="217.31318379165714" stroke="#38bdf8" stroke-width="0.5" opacity="0.4"/><line x1="338.92483536328655" y1="267.44867455572603" x2="1080.6718667305176" y2="73.89640042247265" stroke="#38bdf8" stroke-width="0.5" opacity="0.4"/><line x1="857.1420176882384" y1="193.81210112151166" x2="44.41389832973073" y2="217.31318379165714" stroke="#38bdf8" stroke-width="0.5" opacity="0.4"/><line x1="174.94086619990412" y1="115.58154947315415" x2="1057.101644462091" y2="188.6297169206955" stroke="#38bdf8" stroke-width="0.5" opacity="0.4"/><line x1="174.94086619990412" y1="115.58154947315415" x2="1186.5307828758318" y2="148.73607929548598" stroke="#38bdf8" stroke-width="0.5" opacity="0.4"/><line x1="1057.101644462091" y1="188.6297169206955" x2="315.7387854975241" y2="304.9779873204898" stroke="#38bdf8" stroke-width="0.5" opacity="0.4"/><line x1="1186.5307828758318" y1="148.73607929548598" x2="315.7387854975241" y2="304.9779873204898" stroke="#38bdf8" stroke-width="0.5" opacity="0.4"/>
            <circle cx="991.1631660954299" cy="293.9572014100122" r="5.739504820750881" fill="#f472b6" opacity="0.6"/><circle cx="1012.6517756107205" cy="23.872638800094137" r="4.998713879017259" fill="#f472b6" opacity="0.6"/><circle cx="338.92483536328655" cy="267.44867455572603" r="4.478335826848706" fill="#f472b6" opacity="0.6"/><circle cx="857.1420176882384" cy="193.81210112151166" r="4.848871934686031" fill="#f472b6" opacity="0.6"/><circle cx="174.94086619990412" cy="115.58154947315415" r="4.827113660729083" fill="#f472b6" opacity="0.6"/><circle cx="1057.101644462091" cy="188.6297169206955" r="3.9780338044511154" fill="#f472b6" opacity="0.6"/><circle cx="141.62820039855433" cy="96.20522341210744" r="5.609026170037396" fill="#f472b6" opacity="0.6"/><circle cx="1186.5307828758318" cy="148.73607929548598" r="4.500054599484429" fill="#f472b6" opacity="0.6"/><circle cx="9.829862183323712" cy="136.00338182150153" r="4.994467308773892" fill="#f472b6" opacity="0.6"/><circle cx="44.41389832973073" cy="217.31318379165714" r="5.652464698781841" fill="#f472b6" opacity="0.6"/><circle cx="315.7387854975241" cy="304.9779873204898" r="5.2759152934850135" fill="#f472b6" opacity="0.6"/><circle cx="1080.6718667305176" cy="73.89640042247265" r="2.933042445634783" fill="#f472b6" opacity="0.6"/>
        
        <text x="600" y="520" font-family="Segoe UI, Arial, sans-serif" font-size="38" font-weight="800" fill="#ffffff" text-anchor="middle">Designing Adaptive Navigation Menus for Dynamic Content: ...</text>
        <text x="600" y="560" font-family="Segoe UI, Arial, sans-serif" font-size="16" font-weight="600" fill="#38bdf8" text-anchor="middle" style="letter-spacing: 4px; text-transform: uppercase;">UI UX Powerhouse • Intelligence in Design</text>
    </svg>