<svg width="1200" height="600" viewBox="0 0 1200 600" xmlns="http://www.w3.org/2000/svg">
            <rect width="1200" height="600" fill="#171717"/><circle cx="327.99662794532196" cy="12.060738613581634" r="37.85332320148882" fill="#f59e0b" opacity="0.1"/><circle cx="402.52788520047034" cy="322.5578559480482" r="37.58992064795166" fill="#f59e0b" opacity="0.1"/><circle cx="245.95968728572188" cy="25.699787543999264" r="30.168771721710073" fill="#f59e0b" opacity="0.1"/><circle cx="1038.3338944309799" cy="198.12582370982454" r="15.33028224366717" fill="#f59e0b" opacity="0.1"/><circle cx="998.7241705246561" cy="191.78446502119186" r="23.682794663413915" fill="#f59e0b" opacity="0.1"/><circle cx="323.20399162199465" cy="296.9570106593892" r="19.94083537356346" fill="#f59e0b" opacity="0.1"/><circle cx="472.5994308362715" cy="397.48554645666445" r="25.97148829656362" fill="#f59e0b" opacity="0.1"/><circle cx="608.0896819752979" cy="148.68201095850964" r="19.506403643172234" fill="#f59e0b" opacity="0.1"/><circle cx="1105.469668792648" cy="66.88544387980073" r="48.82404452006085" fill="#f59e0b" opacity="0.1"/><circle cx="769.4598571761162" cy="222.11424917550175" r="13.667468061248655" fill="#f59e0b" opacity="0.1"/><circle cx="848.3854399786651" cy="41.31080414626922" r="39.360955055453815" fill="#f59e0b" opacity="0.1"/><circle cx="323.4123858601379" cy="343.071821369449" r="38.894758531896514" fill="#f59e0b" opacity="0.1"/><circle cx="335.70930815985776" cy="394.72751971472917" r="32.708442341463524" fill="#f59e0b" opacity="0.1"/><circle cx="833.7364482329576" cy="180.11008707871952" r="34.68767526726879" fill="#f59e0b" opacity="0.1"/><circle cx="732.907564659763" cy="319.42669768905034" r="31.253976020088885" fill="#f59e0b" opacity="0.1"/><circle cx="1194.058209729701" cy="364.8422743543051" r="48.431398512693704" fill="#f59e0b" opacity="0.1"/><circle cx="250.07703094379394" cy="272.2461300707437" r="39.59003355827008" fill="#f59e0b" opacity="0.1"/><circle cx="222.1414121813723" cy="228.75732066459022" r="47.36413254162471" fill="#f59e0b" opacity="0.1"/><circle cx="967.5739952486765" cy="131.92083195135638" r="19.030766796859098" fill="#f59e0b" opacity="0.1"/><circle cx="629.8579252215859" cy="207.36663798379595" r="22.606270262076578" fill="#f59e0b" opacity="0.1"/><circle cx="1195.336090130877" cy="271.21151558312704" r="29.829461948538665" fill="#f59e0b" opacity="0.1"/><circle cx="342.4348793570971" cy="136.66061253279622" r="12.706624094644212" fill="#f59e0b" opacity="0.1"/><circle cx="938.4399432470673" cy="227.11051882288302" r="44.754413390910486" fill="#f59e0b" opacity="0.1"/><circle cx="260.025503108227" cy="51.55969244760854" r="29.849208367522806" fill="#f59e0b" opacity="0.1"/><circle cx="768.9774596122334" cy="398.8699219546106" r="49.72498721879674" fill="#f59e0b" opacity="0.1"/><circle cx="477.8605287865503" cy="132.97059805845493" r="38.21650701755061" fill="#f59e0b" opacity="0.1"/><circle cx="46.85263619394391" cy="0.465364137198776" r="13.028842437570347" fill="#f59e0b" opacity="0.1"/><circle cx="106.43170625335188" cy="269.949998573793" r="45.309765217116365" fill="#f59e0b" opacity="0.1"/><circle cx="994.8177894213586" cy="84.2133877354172" r="44.708883364655776" fill="#f59e0b" opacity="0.1"/><circle cx="539.1489601710418" cy="122.9580511142558" r="11.091527239332208" fill="#f59e0b" opacity="0.1"/>
            <text x="600" y="520" font-family="Segoe UI, Arial, sans-serif" font-size="38" font-weight="800" fill="#ffffff" text-anchor="middle">Designing Adaptive Content Strategies for Multi-Device Us...</text>
            <text x="600" y="560" font-family="Segoe UI, Arial, sans-serif" font-size="16" font-weight="600" fill="#f59e0b" text-anchor="middle" style="letter-spacing: 4px; text-transform: uppercase;">UI UX Powerhouse • Specialized Series</text>
        </svg>