<svg width="1200" height="600" viewBox="0 0 1200 600" xmlns="http://www.w3.org/2000/svg">
        
            <rect width="1200" height="600" fill="#1e1b4b"/>
            <line x1="1022.4143804611231" y1="235.82108919690654" x2="658.0927217619319" y2="261.0867387287726" stroke="#f43f5e" stroke-width="0.5" opacity="0.4"/><line x1="1022.4143804611231" y1="235.82108919690654" x2="303.45382086452446" y2="142.2021498256072" stroke="#f43f5e" stroke-width="0.5" opacity="0.4"/><line x1="1022.4143804611231" y1="235.82108919690654" x2="297.67927303837496" y2="108.4652565412398" stroke="#f43f5e" stroke-width="0.5" opacity="0.4"/><line x1="1022.4143804611231" y1="235.82108919690654" x2="122.84998194227228" y2="243.499681702815" stroke="#f43f5e" stroke-width="0.5" opacity="0.4"/><line x1="1022.4143804611231" y1="235.82108919690654" x2="945.967167832714" y2="268.6726126150461" stroke="#f43f5e" stroke-width="0.5" opacity="0.4"/><line x1="1022.4143804611231" y1="235.82108919690654" x2="921.418743031245" y2="242.64517710034852" stroke="#f43f5e" stroke-width="0.5" opacity="0.4"/><line x1="1022.4143804611231" y1="235.82108919690654" x2="1147.9928984340859" y2="370.77195549281896" stroke="#f43f5e" stroke-width="0.5" opacity="0.4"/><line x1="658.0927217619319" y1="261.0867387287726" x2="303.45382086452446" y2="142.2021498256072" stroke="#f43f5e" stroke-width="0.5" opacity="0.4"/><line x1="658.0927217619319" y1="261.0867387287726" x2="1168.741666207825" y2="77.17216369637754" stroke="#f43f5e" stroke-width="0.5" opacity="0.4"/><line x1="658.0927217619319" y1="261.0867387287726" x2="945.967167832714" y2="268.6726126150461" stroke="#f43f5e" stroke-width="0.5" opacity="0.4"/><line x1="658.0927217619319" y1="261.0867387287726" x2="921.418743031245" y2="242.64517710034852" stroke="#f43f5e" stroke-width="0.5" opacity="0.4"/><line x1="658.0927217619319" y1="261.0867387287726" x2="1147.9928984340859" y2="370.77195549281896" stroke="#f43f5e" stroke-width="0.5" opacity="0.4"/><line x1="303.45382086452446" y1="142.2021498256072" x2="297.67927303837496" y2="108.4652565412398" stroke="#f43f5e" stroke-width="0.5" opacity="0.4"/><line x1="303.45382086452446" y1="142.2021498256072" x2="1168.741666207825" y2="77.17216369637754" stroke="#f43f5e" stroke-width="0.5" opacity="0.4"/><line x1="303.45382086452446" y1="142.2021498256072" x2="635.6857085076626" y2="162.95289426343516" stroke="#f43f5e" stroke-width="0.5" opacity="0.4"/><line x1="303.45382086452446" y1="142.2021498256072" x2="921.418743031245" y2="242.64517710034852" stroke="#f43f5e" stroke-width="0.5" opacity="0.4"/><line x1="303.45382086452446" y1="142.2021498256072" x2="665.9447147852916" y2="79.2204594341456" stroke="#f43f5e" stroke-width="0.5" opacity="0.4"/><line x1="303.45382086452446" y1="142.2021498256072" x2="1001.7790954876546" y2="90.68253745426773" stroke="#f43f5e" stroke-width="0.5" opacity="0.4"/><line x1="297.67927303837496" y1="108.4652565412398" x2="635.6857085076626" y2="162.95289426343516" stroke="#f43f5e" stroke-width="0.5" opacity="0.4"/><line x1="297.67927303837496" y1="108.4652565412398" x2="122.84998194227228" y2="243.499681702815" stroke="#f43f5e" stroke-width="0.5" opacity="0.4"/><line x1="1168.741666207825" y1="77.17216369637754" x2="635.6857085076626" y2="162.95289426343516" stroke="#f43f5e" stroke-width="0.5" opacity="0.4"/><line x1="635.6857085076626" y1="162.95289426343516" x2="921.418743031245" y2="242.64517710034852" stroke="#f43f5e" stroke-width="0.5" opacity="0.4"/><line x1="122.84998194227228" y1="243.499681702815" x2="1147.9928984340859" y2="370.77195549281896" stroke="#f43f5e" stroke-width="0.5" opacity="0.4"/><line x1="122.84998194227228" y1="243.499681702815" x2="665.9447147852916" y2="79.2204594341456" stroke="#f43f5e" stroke-width="0.5" opacity="0.4"/><line x1="122.84998194227228" y1="243.499681702815" x2="1001.7790954876546" y2="90.68253745426773" stroke="#f43f5e" stroke-width="0.5" opacity="0.4"/><line x1="945.967167832714" y1="268.6726126150461" x2="921.418743031245" y2="242.64517710034852" stroke="#f43f5e" stroke-width="0.5" opacity="0.4"/><line x1="945.967167832714" y1="268.6726126150461" x2="1147.9928984340859" y2="370.77195549281896" stroke="#f43f5e" stroke-width="0.5" opacity="0.4"/><line x1="945.967167832714" y1="268.6726126150461" x2="1001.7790954876546" y2="90.68253745426773" stroke="#f43f5e" stroke-width="0.5" opacity="0.4"/><line x1="921.418743031245" y1="242.64517710034852" x2="1001.7790954876546" y2="90.68253745426773" stroke="#f43f5e" stroke-width="0.5" opacity="0.4"/><line x1="665.9447147852916" y1="79.2204594341456" x2="1001.7790954876546" y2="90.68253745426773" stroke="#f43f5e" stroke-width="0.5" opacity="0.4"/>
            <circle cx="1022.4143804611231" cy="235.82108919690654" r="4.398432831641912" fill="#22d3ee" opacity="0.6"/><circle cx="658.0927217619319" cy="261.0867387287726" r="5.770991760751713" fill="#22d3ee" opacity="0.6"/><circle cx="303.45382086452446" cy="142.2021498256072" r="4.427004106449203" fill="#22d3ee" opacity="0.6"/><circle cx="297.67927303837496" cy="108.4652565412398" r="5.157017321726016" fill="#22d3ee" opacity="0.6"/><circle cx="1168.741666207825" cy="77.17216369637754" r="4.082992017181823" fill="#22d3ee" opacity="0.6"/><circle cx="635.6857085076626" cy="162.95289426343516" r="2.090056523313251" fill="#22d3ee" opacity="0.6"/><circle cx="122.84998194227228" cy="243.499681702815" r="5.636325247309287" fill="#22d3ee" opacity="0.6"/><circle cx="945.967167832714" cy="268.6726126150461" r="5.761314547851271" fill="#22d3ee" opacity="0.6"/><circle cx="921.418743031245" cy="242.64517710034852" r="2.308756883488968" fill="#22d3ee" opacity="0.6"/><circle cx="1147.9928984340859" cy="370.77195549281896" r="3.365251319934032" fill="#22d3ee" opacity="0.6"/><circle cx="665.9447147852916" cy="79.2204594341456" r="2.733872006065212" fill="#22d3ee" opacity="0.6"/><circle cx="1001.7790954876546" cy="90.68253745426773" r="5.792886588929832" fill="#22d3ee" opacity="0.6"/>
        
        <text x="600" y="520" font-family="Segoe UI, Arial, sans-serif" font-size="38" font-weight="800" fill="#ffffff" text-anchor="middle">Designing Context-Aware Navigation Menus for Complex Web ...</text>
        <text x="600" y="560" font-family="Segoe UI, Arial, sans-serif" font-size="16" font-weight="600" fill="#f43f5e" text-anchor="middle" style="letter-spacing: 4px; text-transform: uppercase;">UI UX Powerhouse • Intelligence in Design</text>
    </svg>