<svg width="1200" height="600" viewBox="0 0 1200 600" xmlns="http://www.w3.org/2000/svg">
        
            <rect width="1200" height="600" fill="#0f172a"/>
            <line x1="1049.1758588865196" y1="345.20787429992197" x2="312.6649853627896" y2="158.2857851011795" stroke="#38bdf8" stroke-width="0.5" opacity="0.4"/><line x1="680.9569927332632" y1="259.5186801728232" x2="455.56694976621657" y2="85.17244370814296" stroke="#38bdf8" stroke-width="0.5" opacity="0.4"/><line x1="680.9569927332632" y1="259.5186801728232" x2="842.9473430926009" y2="166.49899105577788" stroke="#38bdf8" stroke-width="0.5" opacity="0.4"/><line x1="680.9569927332632" y1="259.5186801728232" x2="966.7915914662444" y2="380.96656051311584" stroke="#38bdf8" stroke-width="0.5" opacity="0.4"/><line x1="680.9569927332632" y1="259.5186801728232" x2="312.6649853627896" y2="158.2857851011795" stroke="#38bdf8" stroke-width="0.5" opacity="0.4"/><line x1="964.1996253441903" y1="132.87175542573095" x2="102.65328406749177" y2="64.4725606420252" stroke="#38bdf8" stroke-width="0.5" opacity="0.4"/><line x1="964.1996253441903" y1="132.87175542573095" x2="312.6649853627896" y2="158.2857851011795" stroke="#38bdf8" stroke-width="0.5" opacity="0.4"/><line x1="964.1996253441903" y1="132.87175542573095" x2="1197.1340561445686" y2="1.2187599924800452" stroke="#38bdf8" stroke-width="0.5" opacity="0.4"/><line x1="455.56694976621657" y1="85.17244370814296" x2="842.9473430926009" y2="166.49899105577788" stroke="#38bdf8" stroke-width="0.5" opacity="0.4"/><line x1="455.56694976621657" y1="85.17244370814296" x2="1042.0429049481754" y2="267.18809627104747" stroke="#38bdf8" stroke-width="0.5" opacity="0.4"/><line x1="455.56694976621657" y1="85.17244370814296" x2="966.7915914662444" y2="380.96656051311584" stroke="#38bdf8" stroke-width="0.5" opacity="0.4"/><line x1="455.56694976621657" y1="85.17244370814296" x2="312.6649853627896" y2="158.2857851011795" stroke="#38bdf8" stroke-width="0.5" opacity="0.4"/><line x1="290.05128014541697" y1="82.95226871377963" x2="966.7915914662444" y2="380.96656051311584" stroke="#38bdf8" stroke-width="0.5" opacity="0.4"/><line x1="290.05128014541697" y1="82.95226871377963" x2="312.6649853627896" y2="158.2857851011795" stroke="#38bdf8" stroke-width="0.5" opacity="0.4"/><line x1="842.9473430926009" y1="166.49899105577788" x2="1038.9813075831626" y2="325.50204039143864" stroke="#38bdf8" stroke-width="0.5" opacity="0.4"/><line x1="1042.0429049481754" y1="267.18809627104747" x2="1038.9813075831626" y2="325.50204039143864" stroke="#38bdf8" stroke-width="0.5" opacity="0.4"/><line x1="1042.0429049481754" y1="267.18809627104747" x2="966.7915914662444" y2="380.96656051311584" stroke="#38bdf8" stroke-width="0.5" opacity="0.4"/><line x1="1038.9813075831626" y1="325.50204039143864" x2="966.7915914662444" y2="380.96656051311584" stroke="#38bdf8" stroke-width="0.5" opacity="0.4"/><line x1="1038.9813075831626" y1="325.50204039143864" x2="1197.1340561445686" y2="1.2187599924800452" stroke="#38bdf8" stroke-width="0.5" opacity="0.4"/><line x1="102.65328406749177" y1="64.4725606420252" x2="1197.1340561445686" y2="1.2187599924800452" stroke="#38bdf8" stroke-width="0.5" opacity="0.4"/>
            <circle cx="1049.1758588865196" cy="345.20787429992197" r="3.4929903861084313" fill="#f472b6" opacity="0.6"/><circle cx="680.9569927332632" cy="259.5186801728232" r="3.191827996943175" fill="#f472b6" opacity="0.6"/><circle cx="964.1996253441903" cy="132.87175542573095" r="2.9344214828961412" fill="#f472b6" opacity="0.6"/><circle cx="455.56694976621657" cy="85.17244370814296" r="3.985324011487137" fill="#f472b6" opacity="0.6"/><circle cx="290.05128014541697" cy="82.95226871377963" r="4.190977679376374" fill="#f472b6" opacity="0.6"/><circle cx="842.9473430926009" cy="166.49899105577788" r="5.502476894827851" fill="#f472b6" opacity="0.6"/><circle cx="1042.0429049481754" cy="267.18809627104747" r="2.8618231136133545" fill="#f472b6" opacity="0.6"/><circle cx="1038.9813075831626" cy="325.50204039143864" r="5.106894075339369" fill="#f472b6" opacity="0.6"/><circle cx="102.65328406749177" cy="64.4725606420252" r="3.3219648927333765" fill="#f472b6" opacity="0.6"/><circle cx="966.7915914662444" cy="380.96656051311584" r="2.144658478864585" fill="#f472b6" opacity="0.6"/><circle cx="312.6649853627896" cy="158.2857851011795" r="3.960600868835172" fill="#f472b6" opacity="0.6"/><circle cx="1197.1340561445686" cy="1.2187599924800452" r="4.644809605786577" fill="#f472b6" opacity="0.6"/>
        
        <text x="600" y="520" font-family="Segoe UI, Arial, sans-serif" font-size="38" font-weight="800" fill="#ffffff" text-anchor="middle">Designing Adaptive Information Hierarchies for Real-time ...</text>
        <text x="600" y="560" font-family="Segoe UI, Arial, sans-serif" font-size="16" font-weight="600" fill="#38bdf8" text-anchor="middle" style="letter-spacing: 4px; text-transform: uppercase;">UI UX Powerhouse • Intelligence in Design</text>
    </svg>