<svg width="1200" height="600" viewBox="0 0 1200 600" xmlns="http://www.w3.org/2000/svg">
            <rect width="1200" height="600" fill="#1e1b4b"/><rect x="150" y="208.47554643041804" width="60" height="141.52445356958196" fill="#f43f5e" opacity="0.6"/>
                    <rect x="170" y="188.47554643041804" width="60" height="141.52445356958196" fill="#fb7185" opacity="0.4" transform="skewY(-20)"/><rect x="270" y="131.09585293150303" width="60" height="218.90414706849697" fill="#f43f5e" opacity="0.6"/>
                    <rect x="290" y="111.09585293150303" width="60" height="218.90414706849697" fill="#fb7185" opacity="0.4" transform="skewY(-20)"/><rect x="390" y="211.73863401363633" width="60" height="138.26136598636367" fill="#f43f5e" opacity="0.6"/>
                    <rect x="410" y="191.73863401363633" width="60" height="138.26136598636367" fill="#fb7185" opacity="0.4" transform="skewY(-20)"/><rect x="510" y="133.44775025998388" width="60" height="216.55224974001612" fill="#f43f5e" opacity="0.6"/>
                    <rect x="530" y="113.44775025998388" width="60" height="216.55224974001612" fill="#fb7185" opacity="0.4" transform="skewY(-20)"/><rect x="630" y="183.09197064418186" width="60" height="166.90802935581814" fill="#f43f5e" opacity="0.6"/>
                    <rect x="650" y="163.09197064418186" width="60" height="166.90802935581814" fill="#fb7185" opacity="0.4" transform="skewY(-20)"/><rect x="750" y="142.17986585872495" width="60" height="207.82013414127505" fill="#f43f5e" opacity="0.6"/>
                    <rect x="770" y="122.17986585872495" width="60" height="207.82013414127505" fill="#fb7185" opacity="0.4" transform="skewY(-20)"/><rect x="870" y="205.6441548285875" width="60" height="144.3558451714125" fill="#f43f5e" opacity="0.6"/>
                    <rect x="890" y="185.6441548285875" width="60" height="144.3558451714125" fill="#fb7185" opacity="0.4" transform="skewY(-20)"/><rect x="990" y="173.4978847522143" width="60" height="176.5021152477857" fill="#f43f5e" opacity="0.6"/>
                    <rect x="1010" y="153.4978847522143" width="60" height="176.5021152477857" fill="#fb7185" opacity="0.4" transform="skewY(-20)"/>
            <text x="600" y="520" font-family="Segoe UI, Arial, sans-serif" font-size="38" font-weight="800" fill="#ffffff" text-anchor="middle">Designing for Empathy: How AI-Enhanced Emotion Recognitio...</text>
            <text x="600" y="560" font-family="Segoe UI, Arial, sans-serif" font-size="16" font-weight="600" fill="#f43f5e" text-anchor="middle" style="letter-spacing: 4px; text-transform: uppercase;">UI UX Powerhouse • Specialized Series</text>
        </svg>