<svg width="1200" height="600" viewBox="0 0 1200 600" xmlns="http://www.w3.org/2000/svg">
            <rect width="1200" height="600" fill="#0c4a6e"/><circle cx="865.6176729607978" cy="362.1537652485131" r="47.50567715855141" fill="#7dd3fc" opacity="0.1"/><circle cx="959.743114853336" cy="234.21023355831494" r="23.931097884451447" fill="#7dd3fc" opacity="0.1"/><circle cx="174.36563174851472" cy="48.79378117402666" r="21.91779319626221" fill="#7dd3fc" opacity="0.1"/><circle cx="691.4221870745678" cy="319.95555530702404" r="24.6879283447106" fill="#7dd3fc" opacity="0.1"/><circle cx="908.6996600228304" cy="318.4527113524382" r="39.37594614129921" fill="#7dd3fc" opacity="0.1"/><circle cx="790.4740341289653" cy="231.39905131902196" r="26.339461484967615" fill="#7dd3fc" opacity="0.1"/><circle cx="573.6523958301404" cy="381.7297230125405" r="38.0675325379616" fill="#7dd3fc" opacity="0.1"/><circle cx="171.85897648523678" cy="160.48952013152302" r="31.337079962540884" fill="#7dd3fc" opacity="0.1"/><circle cx="822.0498891711031" cy="242.34577881361474" r="21.994533190845686" fill="#7dd3fc" opacity="0.1"/><circle cx="770.0142305482586" cy="286.95671948335075" r="49.79576248268131" fill="#7dd3fc" opacity="0.1"/><circle cx="1034.0916057226423" cy="351.75487876986153" r="29.496465143820387" fill="#7dd3fc" opacity="0.1"/><circle cx="560.8816102503624" cy="212.1885142831161" r="33.729190982558066" fill="#7dd3fc" opacity="0.1"/><circle cx="498.0394058064121" cy="372.2103679279826" r="49.16258241518108" fill="#7dd3fc" opacity="0.1"/><circle cx="778.9707851421554" cy="387.2981112153866" r="17.202197104052175" fill="#7dd3fc" opacity="0.1"/><circle cx="323.8090786810062" cy="185.21003830937843" r="39.14858888165327" fill="#7dd3fc" opacity="0.1"/><circle cx="178.0954744475821" cy="67.57000512225204" r="13.498094213755394" fill="#7dd3fc" opacity="0.1"/><circle cx="537.4895258399192" cy="295.4928522238333" r="34.585458135115914" fill="#7dd3fc" opacity="0.1"/><circle cx="325.6720406938257" cy="75.43817160330946" r="27.531173698880593" fill="#7dd3fc" opacity="0.1"/><circle cx="1184.7713779931837" cy="225.2657847437149" r="25.658894581683853" fill="#7dd3fc" opacity="0.1"/><circle cx="1076.551220518013" cy="35.68430583291047" r="12.25687293410374" fill="#7dd3fc" opacity="0.1"/><circle cx="1052.0591749751475" cy="169.4789360757568" r="40.9325226771216" fill="#7dd3fc" opacity="0.1"/><circle cx="1000.2382703242802" cy="253.36393988400232" r="19.83599959341518" fill="#7dd3fc" opacity="0.1"/><circle cx="461.1313043445989" cy="294.0411637104262" r="23.17518401556299" fill="#7dd3fc" opacity="0.1"/><circle cx="171.85654147360765" cy="206.63336196084856" r="39.53517649657442" fill="#7dd3fc" opacity="0.1"/><circle cx="222.1971000159101" cy="75.04487917140068" r="13.595130640023854" fill="#7dd3fc" opacity="0.1"/><circle cx="587.852088935324" cy="319.17972900992027" r="35.585055310111784" fill="#7dd3fc" opacity="0.1"/><circle cx="501.1994015032542" cy="112.87689146483899" r="20.264875360080623" fill="#7dd3fc" opacity="0.1"/><circle cx="902.4275521538584" cy="178.74410198710393" r="26.178782687784405" fill="#7dd3fc" opacity="0.1"/><circle cx="892.9486332730448" cy="93.54896864278999" r="38.73840849526459" fill="#7dd3fc" opacity="0.1"/><circle cx="459.97324535346706" cy="352.9019561698078" r="44.06047681930431" fill="#7dd3fc" opacity="0.1"/>
            <text x="600" y="520" font-family="Segoe UI, Arial, sans-serif" font-size="38" font-weight="800" fill="#ffffff" text-anchor="middle">Designing Adaptive Interfaces for Real-Time Collaborative...</text>
            <text x="600" y="560" font-family="Segoe UI, Arial, sans-serif" font-size="16" font-weight="600" fill="#7dd3fc" text-anchor="middle" style="letter-spacing: 4px; text-transform: uppercase;">UI UX Powerhouse • Specialized Series</text>
        </svg>