<svg width="1200" height="600" viewBox="0 0 1200 600" xmlns="http://www.w3.org/2000/svg">
        <rect width="1200" height="600" fill="#1e1b4b"/><path d="M 707.5876752523982 153.90393484558444 L 661.3680099786507 203.90393484558444 L 714.7991596566499 253.90393484558444" stroke="#f43f5e" fill="none" opacity="0.4"/>
                    <circle cx="707.5876752523982" cy="153.90393484558444" r="3" fill="#22d3ee"/><path d="M 523.0353379949747 258.81463539381 L 478.04709018148515 308.81463539381 L 492.9769195790186 358.81463539381" stroke="#f43f5e" fill="none" opacity="0.4"/>
                    <circle cx="523.0353379949747" cy="258.81463539381" r="3" fill="#22d3ee"/><path d="M 1120.4156250759752 396.899868176115 L 1130.6383269661183 446.899868176115 L 1125.5353230515084 496.899868176115" stroke="#f43f5e" fill="none" opacity="0.4"/>
                    <circle cx="1120.4156250759752" cy="396.899868176115" r="3" fill="#22d3ee"/><path d="M 171.0740888283908 260.835240184133 L 202.78921317840286 310.835240184133 L 191.39777555956243 360.835240184133" stroke="#f43f5e" fill="none" opacity="0.4"/>
                    <circle cx="171.0740888283908" cy="260.835240184133" r="3" fill="#22d3ee"/><path d="M 135.3258532417385 104.14618458416953 L 133.99646100042446 154.14618458416953 L 131.04588214373507 204.14618458416953" stroke="#f43f5e" fill="none" opacity="0.4"/>
                    <circle cx="135.3258532417385" cy="104.14618458416953" r="3" fill="#22d3ee"/><path d="M 585.1106361420534 19.561323447487666 L 578.9325167575043 69.56132344748767 L 579.1778051391475 119.56132344748767" stroke="#f43f5e" fill="none" opacity="0.4"/>
                    <circle cx="585.1106361420534" cy="19.561323447487666" r="3" fill="#22d3ee"/><path d="M 118.43003292015055 293.3088919846341 L 114.8732742707125 343.3088919846341 L 75.32736938064772 393.3088919846341" stroke="#f43f5e" fill="none" opacity="0.4"/>
                    <circle cx="118.43003292015055" cy="293.3088919846341" r="3" fill="#22d3ee"/><path d="M 1035.5512637534048 375.7764224677885 L 1069.9494691129075 425.7764224677885 L 1044.9126850073299 475.7764224677885" stroke="#f43f5e" fill="none" opacity="0.4"/>
                    <circle cx="1035.5512637534048" cy="375.7764224677885" r="3" fill="#22d3ee"/><path d="M 908.5028183094437 259.3646789791819 L 928.7906245352588 309.3646789791819 L 936.0390812543301 359.3646789791819" stroke="#f43f5e" fill="none" opacity="0.4"/>
                    <circle cx="908.5028183094437" cy="259.3646789791819" r="3" fill="#22d3ee"/><path d="M 374.7556872505811 24.967549068605877 L 336.5904834034154 74.96754906860588 L 342.93881900141514 124.96754906860588" stroke="#f43f5e" fill="none" opacity="0.4"/>
                    <circle cx="374.7556872505811" cy="24.967549068605877" r="3" fill="#22d3ee"/>
        <text x="600" y="520" font-family="Segoe UI, Arial, sans-serif" font-size="38" font-weight="800" fill="#ffffff" text-anchor="middle">Designing for the Multiple Modalities of Interaction: Imp...</text>
        <text x="600" y="560" font-family="Segoe UI, Arial, sans-serif" font-size="16" font-weight="600" fill="#f43f5e" text-anchor="middle" style="letter-spacing: 4px; text-transform: uppercase;">UI UX Powerhouse • Specialized Series</text>
    </svg>