<svg width="1200" height="600" viewBox="0 0 1200 600" xmlns="http://www.w3.org/2000/svg">
            <rect width="1200" height="600" fill="#0c4a6e"/><circle cx="1088.8558267700319" cy="382.21532877360005" r="40.23188254206616" fill="#7dd3fc" opacity="0.1"/><circle cx="367.1479505057505" cy="155.6740891861864" r="22.963770422284142" fill="#7dd3fc" opacity="0.1"/><circle cx="534.180688681954" cy="221.83914512315823" r="11.600095870380756" fill="#7dd3fc" opacity="0.1"/><circle cx="1007.4978734010074" cy="254.10549316147808" r="11.57683741148503" fill="#7dd3fc" opacity="0.1"/><circle cx="1112.8961490418078" cy="58.036874773097225" r="45.72049837475788" fill="#7dd3fc" opacity="0.1"/><circle cx="840.8914469728188" cy="169.28197903907858" r="34.80672381760087" fill="#7dd3fc" opacity="0.1"/><circle cx="119.93617575863027" cy="174.42862109937778" r="20.456956867637928" fill="#7dd3fc" opacity="0.1"/><circle cx="1112.3166687706544" cy="223.21987518589594" r="20.422887635068037" fill="#7dd3fc" opacity="0.1"/><circle cx="26.78732791027869" cy="391.9959325850414" r="29.354608651337912" fill="#7dd3fc" opacity="0.1"/><circle cx="553.8665199463139" cy="389.4169632207195" r="42.54791987244971" fill="#7dd3fc" opacity="0.1"/><circle cx="844.4831854314543" cy="33.187217180238804" r="28.51049439788767" fill="#7dd3fc" opacity="0.1"/><circle cx="1155.694959165703" cy="394.9758475660474" r="15.913521031034179" fill="#7dd3fc" opacity="0.1"/><circle cx="23.220585501621827" cy="362.44704316486605" r="18.594129534576496" fill="#7dd3fc" opacity="0.1"/><circle cx="309.0311618136184" cy="143.65913042602187" r="32.5913158300682" fill="#7dd3fc" opacity="0.1"/><circle cx="1126.7187140823808" cy="122.04871764515701" r="34.20848736735934" fill="#7dd3fc" opacity="0.1"/><circle cx="1173.6170862728613" cy="92.48881399835227" r="14.260684620749089" fill="#7dd3fc" opacity="0.1"/><circle cx="685.2923630198347" cy="325.46831588988425" r="13.185303224872769" fill="#7dd3fc" opacity="0.1"/><circle cx="862.8367794965015" cy="18.586350214172853" r="34.922612034351914" fill="#7dd3fc" opacity="0.1"/><circle cx="200.36687315514428" cy="80.4320147690305" r="27.677529489592416" fill="#7dd3fc" opacity="0.1"/><circle cx="90.85333314724267" cy="336.99827860946243" r="17.122392419187236" fill="#7dd3fc" opacity="0.1"/><circle cx="961.5126976234023" cy="338.2204387082311" r="21.530861849096254" fill="#7dd3fc" opacity="0.1"/><circle cx="66.72003075236717" cy="318.34160623984644" r="24.783837301656604" fill="#7dd3fc" opacity="0.1"/><circle cx="1120.0393063358206" cy="28.39974642120069" r="41.64011275708617" fill="#7dd3fc" opacity="0.1"/><circle cx="1081.0409702393372" cy="29.07208415635978" r="26.700513750547543" fill="#7dd3fc" opacity="0.1"/><circle cx="319.6929587273189" cy="129.86517346143955" r="40.45533469885413" fill="#7dd3fc" opacity="0.1"/><circle cx="570.5829352227738" cy="239.53041099812253" r="14.133434757895884" fill="#7dd3fc" opacity="0.1"/><circle cx="1028.1848938330086" cy="356.0360240531736" r="20.19231742422562" fill="#7dd3fc" opacity="0.1"/><circle cx="909.077270601847" cy="68.3367849302158" r="37.26695605342684" fill="#7dd3fc" opacity="0.1"/><circle cx="272.516776946577" cy="193.2424844135312" r="16.39443382669924" fill="#7dd3fc" opacity="0.1"/><circle cx="738.097084556648" cy="169.5848326511623" r="43.662183304695645" fill="#7dd3fc" opacity="0.1"/>
            <text x="600" y="520" font-family="Segoe UI, Arial, sans-serif" font-size="38" font-weight="800" fill="#ffffff" text-anchor="middle">Designing Contextual Navigation Patterns for Data-Heavy D...</text>
            <text x="600" y="560" font-family="Segoe UI, Arial, sans-serif" font-size="16" font-weight="600" fill="#7dd3fc" text-anchor="middle" style="letter-spacing: 4px; text-transform: uppercase;">UI UX Powerhouse • Specialized Series</text>
        </svg>