<svg width="1200" height="600" viewBox="0 0 1200 600" xmlns="http://www.w3.org/2000/svg">
        <rect width="1200" height="600" fill="#171717"/><rect x="150" y="100.35156443955202" width="60" height="249.64843556044798" fill="#f59e0b" opacity="0.6"/>
                    <rect x="170" y="80.35156443955202" width="60" height="249.64843556044798" fill="#fbbf24" opacity="0.4" transform="skewY(-20)"/><rect x="270" y="271.7372119621359" width="60" height="78.26278803786408" fill="#f59e0b" opacity="0.6"/>
                    <rect x="290" y="251.73721196213592" width="60" height="78.26278803786408" fill="#fbbf24" opacity="0.4" transform="skewY(-20)"/><rect x="390" y="132.72348700838847" width="60" height="217.27651299161153" fill="#f59e0b" opacity="0.6"/>
                    <rect x="410" y="112.72348700838847" width="60" height="217.27651299161153" fill="#fbbf24" opacity="0.4" transform="skewY(-20)"/><rect x="510" y="245.35851917426044" width="60" height="104.64148082573956" fill="#f59e0b" opacity="0.6"/>
                    <rect x="530" y="225.35851917426044" width="60" height="104.64148082573956" fill="#fbbf24" opacity="0.4" transform="skewY(-20)"/><rect x="630" y="275.3868728123052" width="60" height="74.61312718769477" fill="#f59e0b" opacity="0.6"/>
                    <rect x="650" y="255.38687281230523" width="60" height="74.61312718769477" fill="#fbbf24" opacity="0.4" transform="skewY(-20)"/><rect x="750" y="126.46681159967557" width="60" height="223.53318840032443" fill="#f59e0b" opacity="0.6"/>
                    <rect x="770" y="106.46681159967557" width="60" height="223.53318840032443" fill="#fbbf24" opacity="0.4" transform="skewY(-20)"/><rect x="870" y="262.13025810106956" width="60" height="87.86974189893044" fill="#f59e0b" opacity="0.6"/>
                    <rect x="890" y="242.13025810106956" width="60" height="87.86974189893044" fill="#fbbf24" opacity="0.4" transform="skewY(-20)"/><rect x="990" y="167.3979120725562" width="60" height="182.6020879274438" fill="#f59e0b" opacity="0.6"/>
                    <rect x="1010" y="147.3979120725562" width="60" height="182.6020879274438" fill="#fbbf24" opacity="0.4" transform="skewY(-20)"/>
        <text x="600" y="520" font-family="Segoe UI, Arial, sans-serif" font-size="38" font-weight="800" fill="#ffffff" text-anchor="middle">Designing Accessible Data Visualizations: Implementing WC...</text>
        <text x="600" y="560" font-family="Segoe UI, Arial, sans-serif" font-size="16" font-weight="600" fill="#f59e0b" text-anchor="middle" style="letter-spacing: 4px; text-transform: uppercase;">UI UX Powerhouse • Specialized Series</text>
    </svg>