<svg width="1200" height="600" viewBox="0 0 1200 600" xmlns="http://www.w3.org/2000/svg">
            <rect width="1200" height="600" fill="#171717"/><path d="M 643.0407535488484 123.76669831865001 L 623.7929161137799 173.76669831865001 L 599.3835678172218 223.76669831865001" stroke="#f59e0b" fill="none" opacity="0.4"/>
                    <circle cx="643.0407535488484" cy="123.76669831865001" r="3" fill="#ec4899"/><path d="M 148.27402968221577 295.62677882349817 L 157.9529328218996 345.62677882349817 L 121.14802469886854 395.62677882349817" stroke="#f59e0b" fill="none" opacity="0.4"/>
                    <circle cx="148.27402968221577" cy="295.62677882349817" r="3" fill="#ec4899"/><path d="M 1173.0497703636502 386.6476416051228 L 1204.037109779074 436.6476416051228 L 1138.449556086107 486.6476416051228" stroke="#f59e0b" fill="none" opacity="0.4"/>
                    <circle cx="1173.0497703636502" cy="386.6476416051228" r="3" fill="#ec4899"/><path d="M 55.55203734038514 14.349527547165053 L 20.042160619050264 64.34952754716505 L 7.844223304255138 114.34952754716505" stroke="#f59e0b" fill="none" opacity="0.4"/>
                    <circle cx="55.55203734038514" cy="14.349527547165053" r="3" fill="#ec4899"/><path d="M 111.06180114747985 124.58182490809122 L 108.62312010413007 174.58182490809122 L 120.88151161838141 224.58182490809122" stroke="#f59e0b" fill="none" opacity="0.4"/>
                    <circle cx="111.06180114747985" cy="124.58182490809122" r="3" fill="#ec4899"/><path d="M 189.53224995784694 105.10054190599476 L 204.36733100032143 155.10054190599476 L 221.52446727724282 205.10054190599476" stroke="#f59e0b" fill="none" opacity="0.4"/>
                    <circle cx="189.53224995784694" cy="105.10054190599476" r="3" fill="#ec4899"/><path d="M 982.7996482148592 322.5400608331256 L 951.5516892315645 372.5400608331256 L 961.8298915505875 422.5400608331256" stroke="#f59e0b" fill="none" opacity="0.4"/>
                    <circle cx="982.7996482148592" cy="322.5400608331256" r="3" fill="#ec4899"/><path d="M 445.3858025110094 315.2003032129869 L 480.16489207675477 365.2003032129869 L 445.24649894301547 415.2003032129869" stroke="#f59e0b" fill="none" opacity="0.4"/>
                    <circle cx="445.3858025110094" cy="315.2003032129869" r="3" fill="#ec4899"/><path d="M 754.9453287603683 29.4157512140373 L 803.3965174575883 79.4157512140373 L 752.7134023470808 129.4157512140373" stroke="#f59e0b" fill="none" opacity="0.4"/>
                    <circle cx="754.9453287603683" cy="29.4157512140373" r="3" fill="#ec4899"/><path d="M 794.605067043085 72.74367516292841 L 807.5615770805598 122.74367516292841 L 799.1790615104492 172.7436751629284" stroke="#f59e0b" fill="none" opacity="0.4"/>
                    <circle cx="794.605067043085" cy="72.74367516292841" r="3" fill="#ec4899"/>
            <text x="600" y="520" font-family="Segoe UI, Arial, sans-serif" font-size="38" font-weight="800" fill="#ffffff" text-anchor="middle">Designing Adaptive Data Visualizations: Implementing User...</text>
            <text x="600" y="560" font-family="Segoe UI, Arial, sans-serif" font-size="16" font-weight="600" fill="#f59e0b" text-anchor="middle" style="letter-spacing: 4px; text-transform: uppercase;">UI UX Powerhouse • Specialized Series</text>
        </svg>