<svg width="1200" height="600" viewBox="0 0 1200 600" xmlns="http://www.w3.org/2000/svg">
        <rect width="1200" height="600" fill="#0c4a6e"/><path d="M 389.1987088623864 338.9544302073773 L 400.7700151676545 388.9544302073773 L 374.8916063454999 438.9544302073773" stroke="#7dd3fc" fill="none" opacity="0.4"/>
                    <circle cx="389.1987088623864" cy="338.9544302073773" r="3" fill="#f43f5e"/><path d="M 1010.8806457683386 391.94396677194163 L 1046.59161951231 441.94396677194163 L 1034.70401837385 491.94396677194163" stroke="#7dd3fc" fill="none" opacity="0.4"/>
                    <circle cx="1010.8806457683386" cy="391.94396677194163" r="3" fill="#f43f5e"/><path d="M 135.14599452146285 94.5467567187734 L 106.14331315764503 144.5467567187734 L 132.0154345777155 194.5467567187734" stroke="#7dd3fc" fill="none" opacity="0.4"/>
                    <circle cx="135.14599452146285" cy="94.5467567187734" r="3" fill="#f43f5e"/><path d="M 550.5060215524281 266.05803783313604 L 587.783933272658 316.05803783313604 L 539.5259904431441 366.05803783313604" stroke="#7dd3fc" fill="none" opacity="0.4"/>
                    <circle cx="550.5060215524281" cy="266.05803783313604" r="3" fill="#f43f5e"/><path d="M 938.7342204781817 69.54161449684761 L 902.240917475865 119.54161449684761 L 979.237584609109 169.54161449684761" stroke="#7dd3fc" fill="none" opacity="0.4"/>
                    <circle cx="938.7342204781817" cy="69.54161449684761" r="3" fill="#f43f5e"/><path d="M 468.6391229450237 379.4395544202416 L 493.61283463731525 429.4395544202416 L 459.3946044317818 479.4395544202416" stroke="#7dd3fc" fill="none" opacity="0.4"/>
                    <circle cx="468.6391229450237" cy="379.4395544202416" r="3" fill="#f43f5e"/><path d="M 809.3405590472685 306.63400711418944 L 799.9910306909442 356.63400711418944 L 766.2034971767298 406.63400711418944" stroke="#7dd3fc" fill="none" opacity="0.4"/>
                    <circle cx="809.3405590472685" cy="306.63400711418944" r="3" fill="#f43f5e"/><path d="M 662.6920800987136 178.08566863750457 L 693.5045072004868 228.08566863750457 L 694.0990492188575 278.08566863750457" stroke="#7dd3fc" fill="none" opacity="0.4"/>
                    <circle cx="662.6920800987136" cy="178.08566863750457" r="3" fill="#f43f5e"/><path d="M 591.4321615277004 289.27680298729683 L 609.7593168437015 339.27680298729683 L 578.7275209552718 389.27680298729683" stroke="#7dd3fc" fill="none" opacity="0.4"/>
                    <circle cx="591.4321615277004" cy="289.27680298729683" r="3" fill="#f43f5e"/><path d="M 660.5624848947627 390.8912626433448 L 699.0614601452762 440.8912626433448 L 699.3178112899841 490.8912626433448" stroke="#7dd3fc" fill="none" opacity="0.4"/>
                    <circle cx="660.5624848947627" cy="390.8912626433448" r="3" fill="#f43f5e"/>
        <text x="600" y="520" font-family="Segoe UI, Arial, sans-serif" font-size="38" font-weight="800" fill="#ffffff" text-anchor="middle">Designing Adaptive Navigation Patterns for Multi-Device E...</text>
        <text x="600" y="560" font-family="Segoe UI, Arial, sans-serif" font-size="16" font-weight="600" fill="#7dd3fc" text-anchor="middle" style="letter-spacing: 4px; text-transform: uppercase;">UI UX Powerhouse • Specialized Series</text>
    </svg>