<svg width="1200" height="600" viewBox="0 0 1200 600" xmlns="http://www.w3.org/2000/svg">
            <rect width="1200" height="600" fill="#171717"/><path d="M 409.7075645971927 273.5046274283377 L 370.5968890897566 323.5046274283377 L 391.79010334300983 373.5046274283377" stroke="#f59e0b" fill="none" opacity="0.4"/>
                    <circle cx="409.7075645971927" cy="273.5046274283377" r="3" fill="#ec4899"/><path d="M 1042.9383083213907 82.22217069105682 L 1041.7551708337214 132.22217069105682 L 1012.2993963007502 182.22217069105682" stroke="#f59e0b" fill="none" opacity="0.4"/>
                    <circle cx="1042.9383083213907" cy="82.22217069105682" r="3" fill="#ec4899"/><path d="M 1167.8337425334576 246.22917903761845 L 1179.2019665103908 296.22917903761845 L 1206.8960423928502 346.22917903761845" stroke="#f59e0b" fill="none" opacity="0.4"/>
                    <circle cx="1167.8337425334576" cy="246.22917903761845" r="3" fill="#ec4899"/><path d="M 317.41376764621236 197.44597881217487 L 351.9777518220508 247.44597881217487 L 303.7990155439729 297.44597881217487" stroke="#f59e0b" fill="none" opacity="0.4"/>
                    <circle cx="317.41376764621236" cy="197.44597881217487" r="3" fill="#ec4899"/><path d="M 490.49808640993433 270.1482274700538 L 523.0607638900892 320.1482274700538 L 517.5681327915299 370.1482274700538" stroke="#f59e0b" fill="none" opacity="0.4"/>
                    <circle cx="490.49808640993433" cy="270.1482274700538" r="3" fill="#ec4899"/><path d="M 192.43600590561982 264.14384835370583 L 229.28584057117405 314.14384835370583 L 199.10828610791214 364.14384835370583" stroke="#f59e0b" fill="none" opacity="0.4"/>
                    <circle cx="192.43600590561982" cy="264.14384835370583" r="3" fill="#ec4899"/><path d="M 188.51101573636697 258.67390886523935 L 141.7274585324776 308.67390886523935 L 168.65833094598202 358.67390886523935" stroke="#f59e0b" fill="none" opacity="0.4"/>
                    <circle cx="188.51101573636697" cy="258.67390886523935" r="3" fill="#ec4899"/><path d="M 232.60666942733224 370.9328083372384 L 270.30042331862205 420.9328083372384 L 275.42472692027786 470.9328083372384" stroke="#f59e0b" fill="none" opacity="0.4"/>
                    <circle cx="232.60666942733224" cy="370.9328083372384" r="3" fill="#ec4899"/><path d="M 778.8664125138894 372.59934016769876 L 744.2963256838993 422.59934016769876 L 741.2462696939542 472.59934016769876" stroke="#f59e0b" fill="none" opacity="0.4"/>
                    <circle cx="778.8664125138894" cy="372.59934016769876" r="3" fill="#ec4899"/><path d="M 1028.8065084054324 245.58943747942976 L 1047.3306225087072 295.58943747942976 L 1033.7375237035303 345.58943747942976" stroke="#f59e0b" fill="none" opacity="0.4"/>
                    <circle cx="1028.8065084054324" cy="245.58943747942976" r="3" fill="#ec4899"/>
            <text x="600" y="520" font-family="Segoe UI, Arial, sans-serif" font-size="38" font-weight="800" fill="#ffffff" text-anchor="middle">Designing Flexible Data Tables: Implementing Responsive V...</text>
            <text x="600" y="560" font-family="Segoe UI, Arial, sans-serif" font-size="16" font-weight="600" fill="#f59e0b" text-anchor="middle" style="letter-spacing: 4px; text-transform: uppercase;">UI UX Powerhouse • Specialized Series</text>
        </svg>