<svg width="1200" height="600" viewBox="0 0 1200 600" xmlns="http://www.w3.org/2000/svg">
            <rect width="1200" height="600" fill="#0c4a6e"/><line x1="600" y1="50" x2="600" y2="50" stroke="#7dd3fc" opacity="0.3"/>
                    <circle cx="600" cy="50" r="4" fill="#f43f5e"/>
                    <circle cx="600" cy="50" r="4" fill="#38bdf8"/><line x1="647.9425538604203" y1="65" x2="552.0574461395797" y2="65" stroke="#7dd3fc" opacity="0.3"/>
                    <circle cx="647.9425538604203" cy="65" r="4" fill="#f43f5e"/>
                    <circle cx="552.0574461395797" cy="65" r="4" fill="#38bdf8"/><line x1="684.1470984807896" y1="80" x2="515.8529015192104" y2="80" stroke="#7dd3fc" opacity="0.3"/>
                    <circle cx="684.1470984807896" cy="80" r="4" fill="#f43f5e"/>
                    <circle cx="515.8529015192104" cy="80" r="4" fill="#38bdf8"/><line x1="699.7494986604055" y1="95" x2="500.25050133959456" y2="95" stroke="#7dd3fc" opacity="0.3"/>
                    <circle cx="699.7494986604055" cy="95" r="4" fill="#f43f5e"/>
                    <circle cx="500.25050133959456" cy="95" r="4" fill="#38bdf8"/><line x1="690.9297426825682" y1="110" x2="509.0702573174318" y2="110" stroke="#7dd3fc" opacity="0.3"/>
                    <circle cx="690.9297426825682" cy="110" r="4" fill="#f43f5e"/>
                    <circle cx="509.0702573174318" cy="110" r="4" fill="#38bdf8"/><line x1="659.8472144103956" y1="125" x2="540.1527855896044" y2="125" stroke="#7dd3fc" opacity="0.3"/>
                    <circle cx="659.8472144103956" cy="125" r="4" fill="#f43f5e"/>
                    <circle cx="540.1527855896044" cy="125" r="4" fill="#38bdf8"/><line x1="614.1120008059867" y1="140" x2="585.8879991940133" y2="140" stroke="#7dd3fc" opacity="0.3"/>
                    <circle cx="614.1120008059867" cy="140" r="4" fill="#f43f5e"/>
                    <circle cx="585.8879991940133" cy="140" r="4" fill="#38bdf8"/><line x1="564.9216772310381" y1="155" x2="635.0783227689619" y2="155" stroke="#7dd3fc" opacity="0.3"/>
                    <circle cx="564.9216772310381" cy="155" r="4" fill="#f43f5e"/>
                    <circle cx="635.0783227689619" cy="155" r="4" fill="#38bdf8"/><line x1="524.3197504692072" y1="170" x2="675.6802495307928" y2="170" stroke="#7dd3fc" opacity="0.3"/>
                    <circle cx="524.3197504692072" cy="170" r="4" fill="#f43f5e"/>
                    <circle cx="675.6802495307928" cy="170" r="4" fill="#38bdf8"/><line x1="502.2469882334903" y1="185" x2="697.7530117665096" y2="185" stroke="#7dd3fc" opacity="0.3"/>
                    <circle cx="502.2469882334903" cy="185" r="4" fill="#f43f5e"/>
                    <circle cx="697.7530117665096" cy="185" r="4" fill="#38bdf8"/><line x1="504.10757253368615" y1="200" x2="695.8924274663138" y2="200" stroke="#7dd3fc" opacity="0.3"/>
                    <circle cx="504.10757253368615" cy="200" r="4" fill="#f43f5e"/>
                    <circle cx="695.8924274663138" cy="200" r="4" fill="#38bdf8"/><line x1="529.4459674429609" y1="215" x2="670.5540325570391" y2="215" stroke="#7dd3fc" opacity="0.3"/>
                    <circle cx="529.4459674429609" cy="215" r="4" fill="#f43f5e"/>
                    <circle cx="670.5540325570391" cy="215" r="4" fill="#38bdf8"/><line x1="572.0584501801075" y1="230" x2="627.9415498198925" y2="230" stroke="#7dd3fc" opacity="0.3"/>
                    <circle cx="572.0584501801075" cy="230" r="4" fill="#f43f5e"/>
                    <circle cx="627.9415498198925" cy="230" r="4" fill="#38bdf8"/><line x1="621.5119988087815" y1="245" x2="578.4880011912185" y2="245" stroke="#7dd3fc" opacity="0.3"/>
                    <circle cx="621.5119988087815" cy="245" r="4" fill="#f43f5e"/>
                    <circle cx="578.4880011912185" cy="245" r="4" fill="#38bdf8"/><line x1="665.6986598718789" y1="260" x2="534.3013401281211" y2="260" stroke="#7dd3fc" opacity="0.3"/>
                    <circle cx="665.6986598718789" cy="260" r="4" fill="#f43f5e"/>
                    <circle cx="534.3013401281211" cy="260" r="4" fill="#38bdf8"/><line x1="693.7999976774739" y1="275" x2="506.2000023225261" y2="275" stroke="#7dd3fc" opacity="0.3"/>
                    <circle cx="693.7999976774739" cy="275" r="4" fill="#f43f5e"/>
                    <circle cx="506.2000023225261" cy="275" r="4" fill="#38bdf8"/><line x1="698.9358246623382" y1="290" x2="501.0641753376618" y2="290" stroke="#7dd3fc" opacity="0.3"/>
                    <circle cx="698.9358246623382" cy="290" r="4" fill="#f43f5e"/>
                    <circle cx="501.0641753376618" cy="290" r="4" fill="#38bdf8"/><line x1="679.8487112623491" y1="305" x2="520.1512887376509" y2="305" stroke="#7dd3fc" opacity="0.3"/>
                    <circle cx="679.8487112623491" cy="305" r="4" fill="#f43f5e"/>
                    <circle cx="520.1512887376509" cy="305" r="4" fill="#38bdf8"/><line x1="641.2118485241757" y1="320" x2="558.7881514758243" y2="320" stroke="#7dd3fc" opacity="0.3"/>
                    <circle cx="641.2118485241757" cy="320" r="4" fill="#f43f5e"/>
                    <circle cx="558.7881514758243" cy="320" r="4" fill="#38bdf8"/><line x1="592.4848879538191" y1="335" x2="607.5151120461809" y2="335" stroke="#7dd3fc" opacity="0.3"/>
                    <circle cx="592.4848879538191" cy="335" r="4" fill="#f43f5e"/>
                    <circle cx="607.5151120461809" cy="335" r="4" fill="#38bdf8"/>
            <text x="600" y="520" font-family="Segoe UI, Arial, sans-serif" font-size="38" font-weight="800" fill="#ffffff" text-anchor="middle">Designing Adaptive Web Interfaces: Implementing Context-A...</text>
            <text x="600" y="560" font-family="Segoe UI, Arial, sans-serif" font-size="16" font-weight="600" fill="#7dd3fc" text-anchor="middle" style="letter-spacing: 4px; text-transform: uppercase;">UI UX Powerhouse • Specialized Series</text>
        </svg>