<svg width="1200" height="600" viewBox="0 0 1200 600" xmlns="http://www.w3.org/2000/svg">
            <rect width="1200" height="600" fill="#171717"/><circle cx="420.70688426611014" cy="27.38917463229882" r="14.76453043454967" fill="#f59e0b" opacity="0.1"/><circle cx="742.9300019961374" cy="132.67537918472954" r="12.756961787818" fill="#f59e0b" opacity="0.1"/><circle cx="347.52055387634755" cy="117.04446720978012" r="14.731159848815878" fill="#f59e0b" opacity="0.1"/><circle cx="994.8458436567307" cy="73.7619678565352" r="49.85105193947675" fill="#f59e0b" opacity="0.1"/><circle cx="817.2168696977678" cy="68.22422855257173" r="39.95885924787217" fill="#f59e0b" opacity="0.1"/><circle cx="430.61009202792775" cy="298.6921677249484" r="41.24091934208991" fill="#f59e0b" opacity="0.1"/><circle cx="72.95772350480547" cy="11.55351983543369" r="24.940759777236963" fill="#f59e0b" opacity="0.1"/><circle cx="72.92887539406365" cy="266.50697478871734" r="19.554237339216343" fill="#f59e0b" opacity="0.1"/><circle cx="415.95645377419714" cy="35.59452238114318" r="35.057696687727" fill="#f59e0b" opacity="0.1"/><circle cx="711.6991439859703" cy="2.9269931812450523" r="27.951429077002103" fill="#f59e0b" opacity="0.1"/><circle cx="324.80165535234846" cy="30.546616150968475" r="44.24461596398032" fill="#f59e0b" opacity="0.1"/><circle cx="407.8245089229313" cy="49.38008889803314" r="43.68560271701426" fill="#f59e0b" opacity="0.1"/><circle cx="831.811995935368" cy="339.36967511290277" r="38.95390256817336" fill="#f59e0b" opacity="0.1"/><circle cx="568.0487622008513" cy="352.83268169878284" r="11.201035848935135" fill="#f59e0b" opacity="0.1"/><circle cx="126.51533587886661" cy="15.440476788353408" r="49.39340893870394" fill="#f59e0b" opacity="0.1"/><circle cx="44.155529805902916" cy="24.259343187441118" r="11.344214130585897" fill="#f59e0b" opacity="0.1"/><circle cx="942.0445073476913" cy="105.01416479710315" r="46.05134094614186" fill="#f59e0b" opacity="0.1"/><circle cx="958.0072253839717" cy="172.6834758055702" r="27.391922313909163" fill="#f59e0b" opacity="0.1"/><circle cx="123.99605367791082" cy="238.38413241974195" r="48.15085748967249" fill="#f59e0b" opacity="0.1"/><circle cx="798.0756384840788" cy="136.80108809057856" r="12.657252913704724" fill="#f59e0b" opacity="0.1"/><circle cx="403.3340353042149" cy="121.91995873799897" r="30.591076898672327" fill="#f59e0b" opacity="0.1"/><circle cx="747.2168081434347" cy="82.22523931617616" r="10.928811108042282" fill="#f59e0b" opacity="0.1"/><circle cx="13.267642037681071" cy="281.8218296459236" r="33.72451453698886" fill="#f59e0b" opacity="0.1"/><circle cx="1013.8347895532206" cy="350.63708206616866" r="49.84304810852336" fill="#f59e0b" opacity="0.1"/><circle cx="298.6074968481262" cy="358.38301657022384" r="36.31772133980121" fill="#f59e0b" opacity="0.1"/><circle cx="68.45554665487725" cy="5.170759263273794" r="33.97522951992869" fill="#f59e0b" opacity="0.1"/><circle cx="21.124710065487307" cy="361.72245795387425" r="24.923708010610426" fill="#f59e0b" opacity="0.1"/><circle cx="334.7162198733258" cy="98.91983108536806" r="14.685274735784333" fill="#f59e0b" opacity="0.1"/><circle cx="386.5600788638403" cy="187.07612310136028" r="38.825629476777976" fill="#f59e0b" opacity="0.1"/><circle cx="1142.7613683379604" cy="243.98207130543597" r="30.489821504870633" fill="#f59e0b" opacity="0.1"/>
            <text x="600" y="520" font-family="Segoe UI, Arial, sans-serif" font-size="38" font-weight="800" fill="#ffffff" text-anchor="middle">Designing Adaptive Navigation for Complex Web Application...</text>
            <text x="600" y="560" font-family="Segoe UI, Arial, sans-serif" font-size="16" font-weight="600" fill="#f59e0b" text-anchor="middle" style="letter-spacing: 4px; text-transform: uppercase;">UI UX Powerhouse • Specialized Series</text>
        </svg>