<svg width="1200" height="600" viewBox="0 0 1200 600" xmlns="http://www.w3.org/2000/svg">
            <rect width="1200" height="600" fill="#171717"/><rect x="150" y="100.78160466255213" width="60" height="249.21839533744787" fill="#f59e0b" opacity="0.6"/>
                    <rect x="170" y="80.78160466255213" width="60" height="249.21839533744787" fill="#fbbf24" opacity="0.4" transform="skewY(-20)"/><rect x="270" y="288.06173621633206" width="60" height="61.938263783667935" fill="#f59e0b" opacity="0.6"/>
                    <rect x="290" y="268.06173621633206" width="60" height="61.938263783667935" fill="#fbbf24" opacity="0.4" transform="skewY(-20)"/><rect x="390" y="226.74810212047305" width="60" height="123.25189787952695" fill="#f59e0b" opacity="0.6"/>
                    <rect x="410" y="206.74810212047305" width="60" height="123.25189787952695" fill="#fbbf24" opacity="0.4" transform="skewY(-20)"/><rect x="510" y="176.51399523419968" width="60" height="173.48600476580032" fill="#f59e0b" opacity="0.6"/>
                    <rect x="530" y="156.51399523419968" width="60" height="173.48600476580032" fill="#fbbf24" opacity="0.4" transform="skewY(-20)"/><rect x="630" y="189.72461705761816" width="60" height="160.27538294238184" fill="#f59e0b" opacity="0.6"/>
                    <rect x="650" y="169.72461705761816" width="60" height="160.27538294238184" fill="#fbbf24" opacity="0.4" transform="skewY(-20)"/><rect x="750" y="260.7377394222567" width="60" height="89.26226057774329" fill="#f59e0b" opacity="0.6"/>
                    <rect x="770" y="240.7377394222567" width="60" height="89.26226057774329" fill="#fbbf24" opacity="0.4" transform="skewY(-20)"/><rect x="870" y="169.1132039484728" width="60" height="180.8867960515272" fill="#f59e0b" opacity="0.6"/>
                    <rect x="890" y="149.1132039484728" width="60" height="180.8867960515272" fill="#fbbf24" opacity="0.4" transform="skewY(-20)"/><rect x="990" y="280.2058782770473" width="60" height="69.7941217229527" fill="#f59e0b" opacity="0.6"/>
                    <rect x="1010" y="260.2058782770473" width="60" height="69.7941217229527" fill="#fbbf24" opacity="0.4" transform="skewY(-20)"/>
            <text x="600" y="520" font-family="Segoe UI, Arial, sans-serif" font-size="38" font-weight="800" fill="#ffffff" text-anchor="middle">Designing Adaptive Interfaces: Implementing Context-Aware...</text>
            <text x="600" y="560" font-family="Segoe UI, Arial, sans-serif" font-size="16" font-weight="600" fill="#f59e0b" text-anchor="middle" style="letter-spacing: 4px; text-transform: uppercase;">UI UX Powerhouse • Specialized Series</text>
        </svg>