<svg width="1200" height="600" viewBox="0 0 1200 600" xmlns="http://www.w3.org/2000/svg">
        
            <rect width="1200" height="600" fill="#064e3b"/>
            <rect x="318.7006046380702" y="367.7416259088204" width="57.794034959079" height="57.794034959079" fill="#10b981" opacity="0.1" transform="rotate(342.9121318793477 318.7006046380702 367.7416259088204)"/><rect x="596.3357453532808" y="201.0331931140172" width="60.13884427966332" height="60.13884427966332" fill="#10b981" opacity="0.1" transform="rotate(214.80568282448075 596.3357453532808 201.0331931140172)"/><rect x="731.1067746601111" y="84.34942913845589" width="83.71787503617725" height="83.71787503617725" fill="#10b981" opacity="0.1" transform="rotate(190.66283475636737 731.1067746601111 84.34942913845589)"/><rect x="680.5131715169409" y="125.48089762203745" width="79.17611406551259" height="79.17611406551259" fill="#10b981" opacity="0.1" transform="rotate(261.8569335274151 680.5131715169409 125.48089762203745)"/><rect x="795.7767481310839" y="383.14655399553885" width="118.82147162841648" height="118.82147162841648" fill="#10b981" opacity="0.1" transform="rotate(186.33927496382967 795.7767481310839 383.14655399553885)"/><rect x="1138.0211850446358" y="341.74050367146265" width="148.06606964102684" height="148.06606964102684" fill="#10b981" opacity="0.1" transform="rotate(130.8422212798905 1138.0211850446358 341.74050367146265)"/><rect x="1.9986953506304417" y="220.85346872154332" width="57.81614034631275" height="57.81614034631275" fill="#10b981" opacity="0.1" transform="rotate(279.8038600244763 1.9986953506304417 220.85346872154332)"/><rect x="395.11527961470847" y="45.978254620422376" width="88.11762535274283" height="88.11762535274283" fill="#10b981" opacity="0.1" transform="rotate(156.42555814847583 395.11527961470847 45.978254620422376)"/><rect x="114.6991766836436" y="134.62579238439503" width="186.53848051154682" height="186.53848051154682" fill="#10b981" opacity="0.1" transform="rotate(99.59101805765386 114.6991766836436 134.62579238439503)"/><rect x="802.3198170725664" y="278.51411013980396" width="103.96393664586867" height="103.96393664586867" fill="#10b981" opacity="0.1" transform="rotate(353.61739292772427 802.3198170725664 278.51411013980396)"/><rect x="1181.7741027588454" y="153.12253145129944" width="80.04352954303613" height="80.04352954303613" fill="#10b981" opacity="0.1" transform="rotate(108.34977895581687 1181.7741027588454 153.12253145129944)"/><rect x="349.72203734760114" y="279.91301644724444" width="132.9606710717144" height="132.9606710717144" fill="#10b981" opacity="0.1" transform="rotate(138.1542541800991 349.72203734760114 279.91301644724444)"/><rect x="1192.658585998288" y="84.25647122867304" width="183.04388926471802" height="183.04388926471802" fill="#10b981" opacity="0.1" transform="rotate(202.56931433535556 1192.658585998288 84.25647122867304)"/><rect x="103.60213323074277" y="394.16389595407963" width="97.26168408933518" height="97.26168408933518" fill="#10b981" opacity="0.1" transform="rotate(183.26058044178353 103.60213323074277 394.16389595407963)"/><rect x="1131.6761342750397" y="257.90072740783216" width="130.93129765984486" height="130.93129765984486" fill="#10b981" opacity="0.1" transform="rotate(196.04890254235215 1131.6761342750397 257.90072740783216)"/>
        
        <text x="600" y="520" font-family="Segoe UI, Arial" font-size="38" font-weight="800" fill="#f8fafc" text-anchor="middle">Designing Multi-Device User Journeys: Techniques for Seam...</text>
    </svg>