<svg width="1200" height="600" viewBox="0 0 1200 600" xmlns="http://www.w3.org/2000/svg">
            <rect width="1200" height="600" fill="#111827"/><rect x="150" y="109.76047072490474" width="60" height="240.23952927509526" fill="#10b981" opacity="0.6"/>
                    <rect x="170" y="89.76047072490474" width="60" height="240.23952927509526" fill="#34d399" opacity="0.4" transform="skewY(-20)"/><rect x="270" y="266.59535699254775" width="60" height="83.40464300745225" fill="#10b981" opacity="0.6"/>
                    <rect x="290" y="246.59535699254775" width="60" height="83.40464300745225" fill="#34d399" opacity="0.4" transform="skewY(-20)"/><rect x="390" y="223.9246817815001" width="60" height="126.07531821849989" fill="#10b981" opacity="0.6"/>
                    <rect x="410" y="203.9246817815001" width="60" height="126.07531821849989" fill="#34d399" opacity="0.4" transform="skewY(-20)"/><rect x="510" y="255.46595329960837" width="60" height="94.53404670039163" fill="#10b981" opacity="0.6"/>
                    <rect x="530" y="235.46595329960837" width="60" height="94.53404670039163" fill="#34d399" opacity="0.4" transform="skewY(-20)"/><rect x="630" y="100.92615034154733" width="60" height="249.07384965845267" fill="#10b981" opacity="0.6"/>
                    <rect x="650" y="80.92615034154733" width="60" height="249.07384965845267" fill="#34d399" opacity="0.4" transform="skewY(-20)"/><rect x="750" y="280.06672149876977" width="60" height="69.93327850123023" fill="#10b981" opacity="0.6"/>
                    <rect x="770" y="260.06672149876977" width="60" height="69.93327850123023" fill="#34d399" opacity="0.4" transform="skewY(-20)"/><rect x="870" y="286.8406163655891" width="60" height="63.159383634410915" fill="#10b981" opacity="0.6"/>
                    <rect x="890" y="266.8406163655891" width="60" height="63.159383634410915" fill="#34d399" opacity="0.4" transform="skewY(-20)"/><rect x="990" y="247.2539311809669" width="60" height="102.7460688190331" fill="#10b981" opacity="0.6"/>
                    <rect x="1010" y="227.2539311809669" width="60" height="102.7460688190331" fill="#34d399" opacity="0.4" transform="skewY(-20)"/>
            <text x="600" y="520" font-family="Segoe UI, Arial, sans-serif" font-size="38" font-weight="800" fill="#ffffff" text-anchor="middle">Designing Adaptive Microinteractions for Data Visualizati...</text>
            <text x="600" y="560" font-family="Segoe UI, Arial, sans-serif" font-size="16" font-weight="600" fill="#10b981" text-anchor="middle" style="letter-spacing: 4px; text-transform: uppercase;">UI UX Powerhouse • Specialized Series</text>
        </svg>