<svg width="1200" height="600" viewBox="0 0 1200 600" xmlns="http://www.w3.org/2000/svg">
        
            <rect width="1200" height="600" fill="#111827"/>
            <rect x="274.6595535407323" y="113.69726775010349" width="91.34142987504674" height="91.34142987504674" fill="#64748b" opacity="0.1" transform="rotate(254.25830998863603 274.6595535407323 113.69726775010349)"/><rect x="49.15074035307043" y="389.5106298587052" width="120.18901431615632" height="120.18901431615632" fill="#64748b" opacity="0.1" transform="rotate(5.497351926205738 49.15074035307043 389.5106298587052)"/><rect x="984.9429845395207" y="42.6958343714432" width="183.3449631493295" height="183.3449631493295" fill="#64748b" opacity="0.1" transform="rotate(84.61813619045643 984.9429845395207 42.6958343714432)"/><rect x="885.1188448170433" y="247.57838916993933" width="187.81414237073477" height="187.81414237073477" fill="#64748b" opacity="0.1" transform="rotate(322.75114589756413 885.1188448170433 247.57838916993933)"/><rect x="792.3663523104551" y="13.64312887963024" width="104.5267457702721" height="104.5267457702721" fill="#64748b" opacity="0.1" transform="rotate(50.750618758966084 792.3663523104551 13.64312887963024)"/><rect x="265.96148396492936" y="166.7097017487322" width="120.04423006137586" height="120.04423006137586" fill="#64748b" opacity="0.1" transform="rotate(351.0217845101579 265.96148396492936 166.7097017487322)"/><rect x="550.8781996557445" y="152.19794813601766" width="127.31267370081696" height="127.31267370081696" fill="#64748b" opacity="0.1" transform="rotate(151.0373718066694 550.8781996557445 152.19794813601766)"/><rect x="18.497585335717304" y="246.32696932603722" width="94.54728773516763" height="94.54728773516763" fill="#64748b" opacity="0.1" transform="rotate(80.18477783101844 18.497585335717304 246.32696932603722)"/><rect x="307.8988608911459" y="55.2055196026231" width="85.27575273851653" height="85.27575273851653" fill="#64748b" opacity="0.1" transform="rotate(38.76352844927169 307.8988608911459 55.2055196026231)"/><rect x="1088.3472045705275" y="252.88605865935097" width="158.12535990894503" height="158.12535990894503" fill="#64748b" opacity="0.1" transform="rotate(25.689208216717816 1088.3472045705275 252.88605865935097)"/><rect x="278.7103629889316" y="42.10210461678798" width="116.69781585005694" height="116.69781585005694" fill="#64748b" opacity="0.1" transform="rotate(242.4312651991204 278.7103629889316 42.10210461678798)"/><rect x="358.54773990649846" y="4.300732216142933" width="86.35800410911543" height="86.35800410911543" fill="#64748b" opacity="0.1" transform="rotate(337.73172811999757 358.54773990649846 4.300732216142933)"/><rect x="657.4043297590833" y="81.82457996517769" width="160.9127486250145" height="160.9127486250145" fill="#64748b" opacity="0.1" transform="rotate(357.2593641147614 657.4043297590833 81.82457996517769)"/><rect x="243.25451677286765" y="275.0005502566637" width="161.85940634677536" height="161.85940634677536" fill="#64748b" opacity="0.1" transform="rotate(295.6080781840137 243.25451677286765 275.0005502566637)"/><rect x="855.8456926330109" y="53.57449444109079" width="80.20498545929513" height="80.20498545929513" fill="#64748b" opacity="0.1" transform="rotate(128.05031738469552 855.8456926330109 53.57449444109079)"/>
        
        <text x="600" y="520" font-family="Segoe UI, Arial" font-size="38" font-weight="800" fill="#f8fafc" text-anchor="middle">Designing Adaptive Navigation for Multi-User Environments...</text>
    </svg>