<svg width="1200" height="600" viewBox="0 0 1200 600" xmlns="http://www.w3.org/2000/svg">
        <rect width="1200" height="600" fill="#0c4a6e"/><path d="M 200.74425993976774 240.56924881952 L 175.66449639549546 290.56924881952 L 163.24526369077148 340.56924881952" stroke="#7dd3fc" fill="none" opacity="0.4"/>
                    <circle cx="200.74425993976774" cy="240.56924881952" r="3" fill="#f43f5e"/><path d="M 336.51348118546593 80.16716441889002 L 342.26847409481707 130.16716441889002 L 331.3295582704086 180.16716441889002" stroke="#7dd3fc" fill="none" opacity="0.4"/>
                    <circle cx="336.51348118546593" cy="80.16716441889002" r="3" fill="#f43f5e"/><path d="M 931.237694160518 123.85679749277188 L 962.9750668584165 173.85679749277188 L 928.8602196918873 223.85679749277188" stroke="#7dd3fc" fill="none" opacity="0.4"/>
                    <circle cx="931.237694160518" cy="123.85679749277188" r="3" fill="#f43f5e"/><path d="M 529.6366758531803 202.88480429371702 L 546.7609158390587 252.88480429371702 L 567.8478599895243 302.884804293717" stroke="#7dd3fc" fill="none" opacity="0.4"/>
                    <circle cx="529.6366758531803" cy="202.88480429371702" r="3" fill="#f43f5e"/><path d="M 946.9022869758192 249.17998110540793 L 932.3046529994826 299.17998110540793 L 925.9979171147279 349.17998110540793" stroke="#7dd3fc" fill="none" opacity="0.4"/>
                    <circle cx="946.9022869758192" cy="249.17998110540793" r="3" fill="#f43f5e"/><path d="M 234.5418951867032 250.6843892420875 L 280.19715436867045 300.6843892420875 L 283.83128751786444 350.6843892420875" stroke="#7dd3fc" fill="none" opacity="0.4"/>
                    <circle cx="234.5418951867032" cy="250.6843892420875" r="3" fill="#f43f5e"/><path d="M 416.31827633464127 126.9308174316393 L 453.3196316577232 176.9308174316393 L 442.81129224054894 226.9308174316393" stroke="#7dd3fc" fill="none" opacity="0.4"/>
                    <circle cx="416.31827633464127" cy="126.9308174316393" r="3" fill="#f43f5e"/><path d="M 932.1566561189684 60.567154914315324 L 972.4503599148875 110.56715491431532 L 926.9162096307809 160.56715491431532" stroke="#7dd3fc" fill="none" opacity="0.4"/>
                    <circle cx="932.1566561189684" cy="60.567154914315324" r="3" fill="#f43f5e"/><path d="M 151.02899557896308 217.21298356787884 L 161.62221252284326 267.21298356787884 L 101.02899661906122 317.21298356787884" stroke="#7dd3fc" fill="none" opacity="0.4"/>
                    <circle cx="151.02899557896308" cy="217.21298356787884" r="3" fill="#f43f5e"/><path d="M 172.54781882220414 384.72699276353524 L 144.966097446013 434.72699276353524 L 143.88095093422635 484.72699276353524" stroke="#7dd3fc" fill="none" opacity="0.4"/>
                    <circle cx="172.54781882220414" cy="384.72699276353524" r="3" fill="#f43f5e"/>
        <text x="600" y="520" font-family="Segoe UI, Arial, sans-serif" font-size="38" font-weight="800" fill="#ffffff" text-anchor="middle">Designing Adaptive Tooltip Systems with ARIA Live Regions...</text>
        <text x="600" y="560" font-family="Segoe UI, Arial, sans-serif" font-size="16" font-weight="600" fill="#7dd3fc" text-anchor="middle" style="letter-spacing: 4px; text-transform: uppercase;">UI UX Powerhouse • Specialized Series</text>
    </svg>