<svg width="1200" height="600" viewBox="0 0 1200 600" xmlns="http://www.w3.org/2000/svg">
            <rect width="1200" height="600" fill="#1e1b4b"/><path d="M 1007.6806705816125 301.13841649872484 L 1051.1244598604208 351.13841649872484 L 977.7581335641116 401.13841649872484" stroke="#f43f5e" fill="none" opacity="0.4"/>
                    <circle cx="1007.6806705816125" cy="301.13841649872484" r="3" fill="#22d3ee"/><path d="M 444.1419894930732 229.6396817340792 L 474.13620081697445 279.6396817340792 L 394.9794834607019 329.6396817340792" stroke="#f43f5e" fill="none" opacity="0.4"/>
                    <circle cx="444.1419894930732" cy="229.6396817340792" r="3" fill="#22d3ee"/><path d="M 488.4041565583402 158.0097150283109 L 448.36073407225285 208.0097150283109 L 525.5298623162389 258.0097150283109" stroke="#f43f5e" fill="none" opacity="0.4"/>
                    <circle cx="488.4041565583402" cy="158.0097150283109" r="3" fill="#22d3ee"/><path d="M 1066.0804767107038 276.2748420907883 L 1112.584740408147 326.2748420907883 L 1111.9909098011703 376.2748420907883" stroke="#f43f5e" fill="none" opacity="0.4"/>
                    <circle cx="1066.0804767107038" cy="276.2748420907883" r="3" fill="#22d3ee"/><path d="M 846.2488019438752 301.51057473240144 L 878.9999648251978 351.51057473240144 L 869.932976994096 401.51057473240144" stroke="#f43f5e" fill="none" opacity="0.4"/>
                    <circle cx="846.2488019438752" cy="301.51057473240144" r="3" fill="#22d3ee"/><path d="M 837.1080238073773 53.94205049269658 L 839.7756504149584 103.94205049269658 L 788.2033099704131 153.94205049269658" stroke="#f43f5e" fill="none" opacity="0.4"/>
                    <circle cx="837.1080238073773" cy="53.94205049269658" r="3" fill="#22d3ee"/><path d="M 553.0353742335137 203.97647970858088 L 575.5932339369792 253.97647970858088 L 560.4959799751668 303.9764797085809" stroke="#f43f5e" fill="none" opacity="0.4"/>
                    <circle cx="553.0353742335137" cy="203.97647970858088" r="3" fill="#22d3ee"/><path d="M 332.8640627027198 113.1061962354579 L 358.4028403922275 163.1061962354579 L 335.1727765695614 213.1061962354579" stroke="#f43f5e" fill="none" opacity="0.4"/>
                    <circle cx="332.8640627027198" cy="113.1061962354579" r="3" fill="#22d3ee"/><path d="M 702.8179668344819 264.4165437464835 L 738.0323043935277 314.4165437464835 L 749.2206016000637 364.4165437464835" stroke="#f43f5e" fill="none" opacity="0.4"/>
                    <circle cx="702.8179668344819" cy="264.4165437464835" r="3" fill="#22d3ee"/><path d="M 341.48513926738815 83.29397295128729 L 296.01246679339965 133.2939729512873 L 333.73283400420917 183.2939729512873" stroke="#f43f5e" fill="none" opacity="0.4"/>
                    <circle cx="341.48513926738815" cy="83.29397295128729" r="3" fill="#22d3ee"/>
            <text x="600" y="520" font-family="Segoe UI, Arial, sans-serif" font-size="38" font-weight="800" fill="#ffffff" text-anchor="middle">Designing Progressive Disclosure Patterns for Complex Web...</text>
            <text x="600" y="560" font-family="Segoe UI, Arial, sans-serif" font-size="16" font-weight="600" fill="#f43f5e" text-anchor="middle" style="letter-spacing: 4px; text-transform: uppercase;">UI UX Powerhouse • Specialized Series</text>
        </svg>