<svg width="1200" height="600" viewBox="0 0 1200 600" xmlns="http://www.w3.org/2000/svg">
            <rect width="1200" height="600" fill="#0f172a"/><path d="M 1022.5740863890678 386.1706484112801 L 977.9016174095887 436.1706484112801 L 1003.8586079504228 486.1706484112801" stroke="#38bdf8" fill="none" opacity="0.4"/>
                    <circle cx="1022.5740863890678" cy="386.1706484112801" r="3" fill="#f472b6"/><path d="M 624.4362963807362 221.25767258385167 L 645.958984398203 271.2576725838517 L 594.9825525935012 321.2576725838517" stroke="#38bdf8" fill="none" opacity="0.4"/>
                    <circle cx="624.4362963807362" cy="221.25767258385167" r="3" fill="#f472b6"/><path d="M 103.73501590402157 229.15837766995537 L 72.24930818101711 279.15837766995537 L 141.59326415342548 329.15837766995537" stroke="#38bdf8" fill="none" opacity="0.4"/>
                    <circle cx="103.73501590402157" cy="229.15837766995537" r="3" fill="#f472b6"/><path d="M 795.3645276204043 339.2260509732296 L 780.8859949156613 389.2260509732296 L 799.3843467589159 439.2260509732296" stroke="#38bdf8" fill="none" opacity="0.4"/>
                    <circle cx="795.3645276204043" cy="339.2260509732296" r="3" fill="#f472b6"/><path d="M 357.4682532293082 100.28346576527838 L 349.9878458170315 150.28346576527838 L 368.99230304843513 200.28346576527838" stroke="#38bdf8" fill="none" opacity="0.4"/>
                    <circle cx="357.4682532293082" cy="100.28346576527838" r="3" fill="#f472b6"/><path d="M 1075.2567085764895 88.13811406907917 L 1099.4313666548805 138.13811406907917 L 1053.5613804588138 188.13811406907917" stroke="#38bdf8" fill="none" opacity="0.4"/>
                    <circle cx="1075.2567085764895" cy="88.13811406907917" r="3" fill="#f472b6"/><path d="M 1006.5008594494429 304.8030755300715 L 976.5882575488981 354.8030755300715 L 993.5533439422215 404.8030755300715" stroke="#38bdf8" fill="none" opacity="0.4"/>
                    <circle cx="1006.5008594494429" cy="304.8030755300715" r="3" fill="#f472b6"/><path d="M 1107.7357109312288 9.752509698773792 L 1081.5818696230053 59.75250969877379 L 1095.0212114544684 109.75250969877379" stroke="#38bdf8" fill="none" opacity="0.4"/>
                    <circle cx="1107.7357109312288" cy="9.752509698773792" r="3" fill="#f472b6"/><path d="M 591.9415673994081 184.82734065692057 L 549.5281166546647 234.82734065692057 L 630.806669040112 284.82734065692057" stroke="#38bdf8" fill="none" opacity="0.4"/>
                    <circle cx="591.9415673994081" cy="184.82734065692057" r="3" fill="#f472b6"/><path d="M 902.7071774880824 23.892515445163554 L 886.2589025708075 73.89251544516355 L 892.2742968281455 123.89251544516355" stroke="#38bdf8" fill="none" opacity="0.4"/>
                    <circle cx="902.7071774880824" cy="23.892515445163554" r="3" fill="#f472b6"/>
            <text x="600" y="520" font-family="Segoe UI, Arial, sans-serif" font-size="38" font-weight="800" fill="#ffffff" text-anchor="middle">The Future of Design Handoff: AI Bridging the Gap Between...</text>
            <text x="600" y="560" font-family="Segoe UI, Arial, sans-serif" font-size="16" font-weight="600" fill="#38bdf8" text-anchor="middle" style="letter-spacing: 4px; text-transform: uppercase;">UI UX Powerhouse • Specialized Series</text>
        </svg>