<svg width="1200" height="600" viewBox="0 0 1200 600" xmlns="http://www.w3.org/2000/svg">
            <rect width="1200" height="600" fill="#2e1065"/><path d="M 196.00901563841262 226.42858796898508 L 180.1234090539424 276.4285879689851 L 156.51860959438864 326.4285879689851" stroke="#d8b4fe" fill="none" opacity="0.4"/>
                    <circle cx="196.00901563841262" cy="226.42858796898508" r="3" fill="#4ade80"/><path d="M 113.21762991076412 213.46997199652833 L 161.76679127941043 263.46997199652833 L 126.48639169522085 313.46997199652833" stroke="#d8b4fe" fill="none" opacity="0.4"/>
                    <circle cx="113.21762991076412" cy="213.46997199652833" r="3" fill="#4ade80"/><path d="M 1117.9619242037006 245.71673736863886 L 1122.6454502968068 295.71673736863886 L 1167.9128126552314 345.71673736863886" stroke="#d8b4fe" fill="none" opacity="0.4"/>
                    <circle cx="1117.9619242037006" cy="245.71673736863886" r="3" fill="#4ade80"/><path d="M 496.4304954097315 263.5608999436954 L 521.0071626202989 313.5608999436954 L 471.22131754949805 363.5608999436954" stroke="#d8b4fe" fill="none" opacity="0.4"/>
                    <circle cx="496.4304954097315" cy="263.5608999436954" r="3" fill="#4ade80"/><path d="M 508.2919188127562 172.55628837465338 L 476.0299158623184 222.55628837465338 L 527.3885674384019 272.5562883746534" stroke="#d8b4fe" fill="none" opacity="0.4"/>
                    <circle cx="508.2919188127562" cy="172.55628837465338" r="3" fill="#4ade80"/><path d="M 1067.0949402119732 254.64805810988764 L 1038.7185962870717 304.64805810988764 L 1076.8937746728625 354.64805810988764" stroke="#d8b4fe" fill="none" opacity="0.4"/>
                    <circle cx="1067.0949402119732" cy="254.64805810988764" r="3" fill="#4ade80"/><path d="M 110.14941288703994 152.44735354954173 L 149.2386754214749 202.44735354954173 L 81.27790838407236 252.44735354954173" stroke="#d8b4fe" fill="none" opacity="0.4"/>
                    <circle cx="110.14941288703994" cy="152.44735354954173" r="3" fill="#4ade80"/><path d="M 1197.0193103894417 39.947669061803026 L 1193.6468928746763 89.94766906180303 L 1190.6961384553142 139.94766906180303" stroke="#d8b4fe" fill="none" opacity="0.4"/>
                    <circle cx="1197.0193103894417" cy="39.947669061803026" r="3" fill="#4ade80"/><path d="M 923.015971127461 41.26215329451952 L 914.5889426832582 91.26215329451952 L 903.8359805344044 141.26215329451952" stroke="#d8b4fe" fill="none" opacity="0.4"/>
                    <circle cx="923.015971127461" cy="41.26215329451952" r="3" fill="#4ade80"/><path d="M 750.1415936174453 55.8803592572076 L 758.2606082443363 105.8803592572076 L 711.4129305994538 155.8803592572076" stroke="#d8b4fe" fill="none" opacity="0.4"/>
                    <circle cx="750.1415936174453" cy="55.8803592572076" r="3" fill="#4ade80"/>
            <text x="600" y="520" font-family="Segoe UI, Arial, sans-serif" font-size="38" font-weight="800" fill="#ffffff" text-anchor="middle">Designing Emotionally Intelligent Web Interfaces: Leverag...</text>
            <text x="600" y="560" font-family="Segoe UI, Arial, sans-serif" font-size="16" font-weight="600" fill="#d8b4fe" text-anchor="middle" style="letter-spacing: 4px; text-transform: uppercase;">UI UX Powerhouse • Specialized Series</text>
        </svg>