<svg width="1200" height="600" viewBox="0 0 1200 600" xmlns="http://www.w3.org/2000/svg">
            <rect width="1200" height="600" fill="#0f172a"/><circle cx="223.31424144904304" cy="368.2176120204531" r="39.091505592587055" fill="#38bdf8" opacity="0.1"/><circle cx="85.2821619293536" cy="293.63658904112526" r="37.09871508575816" fill="#38bdf8" opacity="0.1"/><circle cx="974.5571215840755" cy="267.6173482723243" r="32.871248073279276" fill="#38bdf8" opacity="0.1"/><circle cx="209.00014726612426" cy="8.815405167115387" r="15.90813278366113" fill="#38bdf8" opacity="0.1"/><circle cx="1006.1598972779393" cy="311.1402404254477" r="15.259952228298062" fill="#38bdf8" opacity="0.1"/><circle cx="571.5452892931353" cy="162.58061839762377" r="13.929668972195941" fill="#38bdf8" opacity="0.1"/><circle cx="308.43281833622314" cy="237.18091517148423" r="18.040268838158227" fill="#38bdf8" opacity="0.1"/><circle cx="459.7590465491521" cy="59.422772781181266" r="48.2593169908796" fill="#38bdf8" opacity="0.1"/><circle cx="616.2406635688967" cy="14.484531489051733" r="20.230706051006564" fill="#38bdf8" opacity="0.1"/><circle cx="396.4708837993385" cy="370.3301576715603" r="42.72515951104424" fill="#38bdf8" opacity="0.1"/><circle cx="34.94151816339581" cy="257.4894502336974" r="16.69729933484632" fill="#38bdf8" opacity="0.1"/><circle cx="602.6454249695234" cy="187.79125736036804" r="22.007793929697073" fill="#38bdf8" opacity="0.1"/><circle cx="581.3256350280881" cy="300.78076007048367" r="17.283769372625102" fill="#38bdf8" opacity="0.1"/><circle cx="182.95078489827574" cy="121.08433506509755" r="46.493797365474165" fill="#38bdf8" opacity="0.1"/><circle cx="13.810250060305407" cy="212.8368196586962" r="10.68665792760612" fill="#38bdf8" opacity="0.1"/><circle cx="294.1936374011675" cy="84.27239803722841" r="31.19731698923715" fill="#38bdf8" opacity="0.1"/><circle cx="864.8666274399147" cy="39.311110176277" r="35.914208966714796" fill="#38bdf8" opacity="0.1"/><circle cx="368.89688767914777" cy="11.34806842099465" r="30.64270961447619" fill="#38bdf8" opacity="0.1"/><circle cx="234.77048219901917" cy="260.9770804258005" r="32.68900594164734" fill="#38bdf8" opacity="0.1"/><circle cx="42.42296871743747" cy="45.17760880626156" r="30.985103821258235" fill="#38bdf8" opacity="0.1"/><circle cx="728.706222584151" cy="189.6371523020207" r="18.052599739166908" fill="#38bdf8" opacity="0.1"/><circle cx="952.5604695441871" cy="22.84808233525837" r="19.878213889023755" fill="#38bdf8" opacity="0.1"/><circle cx="810.8879034756683" cy="390.82897901171236" r="13.261986710604106" fill="#38bdf8" opacity="0.1"/><circle cx="195.83875811185862" cy="370.422271370262" r="45.55481297655206" fill="#38bdf8" opacity="0.1"/><circle cx="757.6537068202015" cy="141.20193726521393" r="13.859226258573472" fill="#38bdf8" opacity="0.1"/><circle cx="311.647950689121" cy="353.84697919434984" r="45.39946259428689" fill="#38bdf8" opacity="0.1"/><circle cx="1040.1127602746983" cy="155.3351235728769" r="13.186569973222504" fill="#38bdf8" opacity="0.1"/><circle cx="628.7298321258277" cy="61.70004761770542" r="15.784340251666436" fill="#38bdf8" opacity="0.1"/><circle cx="541.9066810135519" cy="119.05380156094907" r="42.13103497334487" fill="#38bdf8" opacity="0.1"/><circle cx="208.62237610626835" cy="230.4844625188707" r="14.762697657189392" fill="#38bdf8" opacity="0.1"/>
            <text x="600" y="520" font-family="Segoe UI, Arial, sans-serif" font-size="38" font-weight="800" fill="#ffffff" text-anchor="middle">Designing for the Unseen: Exploring the Role of AI in Pre...</text>
            <text x="600" y="560" font-family="Segoe UI, Arial, sans-serif" font-size="16" font-weight="600" fill="#38bdf8" text-anchor="middle" style="letter-spacing: 4px; text-transform: uppercase;">UI UX Powerhouse • Specialized Series</text>
        </svg>