<svg width="1200" height="600" viewBox="0 0 1200 600" xmlns="http://www.w3.org/2000/svg">
        <rect width="1200" height="600" fill="#0c4a6e"/><path d="M 889.6579059153737 299.9387557973023 L 879.5488103111893 349.9387557973023 L 933.6100290262948 399.9387557973023" stroke="#7dd3fc" fill="none" opacity="0.4"/>
                    <circle cx="889.6579059153737" cy="299.9387557973023" r="3" fill="#f43f5e"/><path d="M 645.2743449173795 391.3907269612764 L 602.9102967840345 441.3907269612764 L 603.74909866905 491.3907269612764" stroke="#7dd3fc" fill="none" opacity="0.4"/>
                    <circle cx="645.2743449173795" cy="391.3907269612764" r="3" fill="#f43f5e"/><path d="M 784.2882539320271 68.84615840754122 L 821.8896709789988 118.84615840754122 L 741.9454286863584 168.84615840754122" stroke="#7dd3fc" fill="none" opacity="0.4"/>
                    <circle cx="784.2882539320271" cy="68.84615840754122" r="3" fill="#f43f5e"/><path d="M 561.3564677529212 396.62100232890225 L 599.33319277593 446.62100232890225 L 524.3414321750606 496.62100232890225" stroke="#7dd3fc" fill="none" opacity="0.4"/>
                    <circle cx="561.3564677529212" cy="396.62100232890225" r="3" fill="#f43f5e"/><path d="M 1198.7292471567343 68.52714107953943 L 1166.515288269693 118.52714107953943 L 1214.4293676879897 168.52714107953943" stroke="#7dd3fc" fill="none" opacity="0.4"/>
                    <circle cx="1198.7292471567343" cy="68.52714107953943" r="3" fill="#f43f5e"/><path d="M 494.7874945679814 16.80329586561129 L 481.7698252307764 66.80329586561129 L 495.9441053320461 116.80329586561129" stroke="#7dd3fc" fill="none" opacity="0.4"/>
                    <circle cx="494.7874945679814" cy="16.80329586561129" r="3" fill="#f43f5e"/><path d="M 438.5065680995467 294.60431409825105 L 394.46720924270267 344.60431409825105 L 458.6948370497339 394.60431409825105" stroke="#7dd3fc" fill="none" opacity="0.4"/>
                    <circle cx="438.5065680995467" cy="294.60431409825105" r="3" fill="#f43f5e"/><path d="M 842.3554249202425 123.52528145383985 L 816.1183765672831 173.52528145383985 L 798.6229117377661 223.52528145383985" stroke="#7dd3fc" fill="none" opacity="0.4"/>
                    <circle cx="842.3554249202425" cy="123.52528145383985" r="3" fill="#f43f5e"/><path d="M 325.9496818001935 122.82906522159465 L 318.02233742191675 172.82906522159465 L 361.2161008483781 222.82906522159465" stroke="#7dd3fc" fill="none" opacity="0.4"/>
                    <circle cx="325.9496818001935" cy="122.82906522159465" r="3" fill="#f43f5e"/><path d="M 118.05588638526388 306.58249213352065 L 82.84696397404332 356.58249213352065 L 168.01891507693654 406.58249213352065" stroke="#7dd3fc" fill="none" opacity="0.4"/>
                    <circle cx="118.05588638526388" cy="306.58249213352065" r="3" fill="#f43f5e"/>
        <text x="600" y="520" font-family="Segoe UI, Arial, sans-serif" font-size="38" font-weight="800" fill="#ffffff" text-anchor="middle">Designing Intuitive Data-Driven Filters for Complex Dashb...</text>
        <text x="600" y="560" font-family="Segoe UI, Arial, sans-serif" font-size="16" font-weight="600" fill="#7dd3fc" text-anchor="middle" style="letter-spacing: 4px; text-transform: uppercase;">UI UX Powerhouse • Specialized Series</text>
    </svg>