<svg width="1200" height="600" viewBox="0 0 1200 600" xmlns="http://www.w3.org/2000/svg">
        
            <rect width="1200" height="600" fill="#111827"/>
            <line x1="700.7658034484848" y1="372.15417761253775" x2="656.9433193553778" y2="325.5533663550523" stroke="#10b981" stroke-width="0.5" opacity="0.4"/><line x1="700.7658034484848" y1="372.15417761253775" x2="282.32461086296325" y2="363.44606036363984" stroke="#10b981" stroke-width="0.5" opacity="0.4"/><line x1="700.7658034484848" y1="372.15417761253775" x2="239.68435601127567" y2="360.75920184812276" stroke="#10b981" stroke-width="0.5" opacity="0.4"/><line x1="700.7658034484848" y1="372.15417761253775" x2="1058.3454612245987" y2="312.1911969850771" stroke="#10b981" stroke-width="0.5" opacity="0.4"/><line x1="700.7658034484848" y1="372.15417761253775" x2="1120.762724809174" y2="140.32403496676125" stroke="#10b981" stroke-width="0.5" opacity="0.4"/><line x1="656.9433193553778" y1="325.5533663550523" x2="790.9346162174188" y2="271.14055675156123" stroke="#10b981" stroke-width="0.5" opacity="0.4"/><line x1="656.9433193553778" y1="325.5533663550523" x2="1120.762724809174" y2="140.32403496676125" stroke="#10b981" stroke-width="0.5" opacity="0.4"/><line x1="656.9433193553778" y1="325.5533663550523" x2="386.61858295454294" y2="248.31387906633609" stroke="#10b981" stroke-width="0.5" opacity="0.4"/><line x1="790.9346162174188" y1="271.14055675156123" x2="239.68435601127567" y2="360.75920184812276" stroke="#10b981" stroke-width="0.5" opacity="0.4"/><line x1="790.9346162174188" y1="271.14055675156123" x2="181.38341515150387" y2="175.8389378694119" stroke="#10b981" stroke-width="0.5" opacity="0.4"/><line x1="790.9346162174188" y1="271.14055675156123" x2="1058.3454612245987" y2="312.1911969850771" stroke="#10b981" stroke-width="0.5" opacity="0.4"/><line x1="721.8936538578419" y1="37.75182357239828" x2="1018.1543307940956" y2="124.68665732376394" stroke="#10b981" stroke-width="0.5" opacity="0.4"/><line x1="282.32461086296325" y1="363.44606036363984" x2="239.68435601127567" y2="360.75920184812276" stroke="#10b981" stroke-width="0.5" opacity="0.4"/><line x1="282.32461086296325" y1="363.44606036363984" x2="1058.3454612245987" y2="312.1911969850771" stroke="#10b981" stroke-width="0.5" opacity="0.4"/><line x1="239.68435601127567" y1="360.75920184812276" x2="86.91324750761851" y2="112.39738516305806" stroke="#10b981" stroke-width="0.5" opacity="0.4"/><line x1="239.68435601127567" y1="360.75920184812276" x2="1120.762724809174" y2="140.32403496676125" stroke="#10b981" stroke-width="0.5" opacity="0.4"/><line x1="181.38341515150387" y1="175.8389378694119" x2="1018.1543307940956" y2="124.68665732376394" stroke="#10b981" stroke-width="0.5" opacity="0.4"/><line x1="181.38341515150387" y1="175.8389378694119" x2="86.91324750761851" y2="112.39738516305806" stroke="#10b981" stroke-width="0.5" opacity="0.4"/><line x1="181.38341515150387" y1="175.8389378694119" x2="1120.762724809174" y2="140.32403496676125" stroke="#10b981" stroke-width="0.5" opacity="0.4"/><line x1="1018.1543307940956" y1="124.68665732376394" x2="1058.3454612245987" y2="312.1911969850771" stroke="#10b981" stroke-width="0.5" opacity="0.4"/><line x1="86.91324750761851" y1="112.39738516305806" x2="1058.3454612245987" y2="312.1911969850771" stroke="#10b981" stroke-width="0.5" opacity="0.4"/><line x1="1058.3454612245987" y1="312.1911969850771" x2="386.61858295454294" y2="248.31387906633609" stroke="#10b981" stroke-width="0.5" opacity="0.4"/>
            <circle cx="700.7658034484848" cy="372.15417761253775" r="5.663375027375878" fill="#fbbf24" opacity="0.6"/><circle cx="656.9433193553778" cy="325.5533663550523" r="4.574645817268902" fill="#fbbf24" opacity="0.6"/><circle cx="790.9346162174188" cy="271.14055675156123" r="2.739843898181789" fill="#fbbf24" opacity="0.6"/><circle cx="721.8936538578419" cy="37.75182357239828" r="3.145232603759723" fill="#fbbf24" opacity="0.6"/><circle cx="282.32461086296325" cy="363.44606036363984" r="2.1320733854227" fill="#fbbf24" opacity="0.6"/><circle cx="239.68435601127567" cy="360.75920184812276" r="2.336208596848792" fill="#fbbf24" opacity="0.6"/><circle cx="181.38341515150387" cy="175.8389378694119" r="3.7085624145565816" fill="#fbbf24" opacity="0.6"/><circle cx="1018.1543307940956" cy="124.68665732376394" r="3.5293125764655997" fill="#fbbf24" opacity="0.6"/><circle cx="86.91324750761851" cy="112.39738516305806" r="3.236439580043225" fill="#fbbf24" opacity="0.6"/><circle cx="1058.3454612245987" cy="312.1911969850771" r="2.7904542436735937" fill="#fbbf24" opacity="0.6"/><circle cx="1120.762724809174" cy="140.32403496676125" r="5.934324253026716" fill="#fbbf24" opacity="0.6"/><circle cx="386.61858295454294" cy="248.31387906633609" r="2.689841238524423" fill="#fbbf24" opacity="0.6"/>
        
        <text x="600" y="520" font-family="Segoe UI, Arial, sans-serif" font-size="38" font-weight="800" fill="#ffffff" text-anchor="middle">Designing Dynamic Data Visualization Dashboards: Implemen...</text>
        <text x="600" y="560" font-family="Segoe UI, Arial, sans-serif" font-size="16" font-weight="600" fill="#10b981" text-anchor="middle" style="letter-spacing: 4px; text-transform: uppercase;">UI UX Powerhouse • Intelligence in Design</text>
    </svg>