<svg width="1200" height="600" viewBox="0 0 1200 600" xmlns="http://www.w3.org/2000/svg">
            <rect width="1200" height="600" fill="#0f172a"/><path d="M 173.3818663717102 119.75282004641485 L 167.76059347739647 169.75282004641485 L 196.89516190669565 219.75282004641485" stroke="#38bdf8" fill="none" opacity="0.4"/>
                    <circle cx="173.3818663717102" cy="119.75282004641485" r="3" fill="#f472b6"/><path d="M 1087.048376936582 161.35625300812535 L 1065.2506443006644 211.35625300812535 L 1109.262354179009 261.35625300812535" stroke="#38bdf8" fill="none" opacity="0.4"/>
                    <circle cx="1087.048376936582" cy="161.35625300812535" r="3" fill="#f472b6"/><path d="M 205.45401816962112 151.48381921644614 L 161.30377727399718 201.48381921644614 L 215.78872598304315 251.48381921644614" stroke="#38bdf8" fill="none" opacity="0.4"/>
                    <circle cx="205.45401816962112" cy="151.48381921644614" r="3" fill="#f472b6"/><path d="M 491.4447279457818 141.7876153270754 L 449.57888682088196 191.7876153270754 L 505.8895447847135 241.7876153270754" stroke="#38bdf8" fill="none" opacity="0.4"/>
                    <circle cx="491.4447279457818" cy="141.7876153270754" r="3" fill="#f472b6"/><path d="M 492.36038471135544 311.78842440858716 L 499.8186256416375 361.78842440858716 L 472.14740328881817 411.78842440858716" stroke="#38bdf8" fill="none" opacity="0.4"/>
                    <circle cx="492.36038471135544" cy="311.78842440858716" r="3" fill="#f472b6"/><path d="M 854.1932531905331 207.3685075803155 L 830.6701444464125 257.3685075803155 L 872.7926777182802 307.3685075803155" stroke="#38bdf8" fill="none" opacity="0.4"/>
                    <circle cx="854.1932531905331" cy="207.3685075803155" r="3" fill="#f472b6"/><path d="M 585.7895189041301 291.84154687827686 L 616.7849836212554 341.84154687827686 L 622.1756785997059 391.84154687827686" stroke="#38bdf8" fill="none" opacity="0.4"/>
                    <circle cx="585.7895189041301" cy="291.84154687827686" r="3" fill="#f472b6"/><path d="M 424.19757171571746 188.657428008446 L 378.81596924855785 238.657428008446 L 443.8722558219297 288.657428008446" stroke="#38bdf8" fill="none" opacity="0.4"/>
                    <circle cx="424.19757171571746" cy="188.657428008446" r="3" fill="#f472b6"/><path d="M 1029.3287253378367 129.33904553356115 L 1075.455148009496 179.33904553356115 L 997.4795031936083 229.33904553356115" stroke="#38bdf8" fill="none" opacity="0.4"/>
                    <circle cx="1029.3287253378367" cy="129.33904553356115" r="3" fill="#f472b6"/><path d="M 669.7181380412076 23.767290871182922 L 637.3499188772257 73.76729087118292 L 636.6754392357052 123.76729087118292" stroke="#38bdf8" fill="none" opacity="0.4"/>
                    <circle cx="669.7181380412076" cy="23.767290871182922" r="3" fill="#f472b6"/>
            <text x="600" y="520" font-family="Segoe UI, Arial, sans-serif" font-size="38" font-weight="800" fill="#ffffff" text-anchor="middle">Designing Multi-Modal Data Visualization Interfaces: Inte...</text>
            <text x="600" y="560" font-family="Segoe UI, Arial, sans-serif" font-size="16" font-weight="600" fill="#38bdf8" text-anchor="middle" style="letter-spacing: 4px; text-transform: uppercase;">UI UX Powerhouse • Specialized Series</text>
        </svg>