<svg width="1200" height="600" viewBox="0 0 1200 600" xmlns="http://www.w3.org/2000/svg">
        <rect width="1200" height="600" fill="#0c4a6e"/><path d="M 798.1783067669312 1.535274518028018 L 825.9158284612568 51.53527451802802 L 778.458240476084 101.53527451802802" stroke="#7dd3fc" fill="none" opacity="0.4"/>
                    <circle cx="798.1783067669312" cy="1.535274518028018" r="3" fill="#f43f5e"/><path d="M 735.3550689840631 61.095884809765266 L 747.4229002753418 111.09588480976527 L 782.6577682568768 161.09588480976527" stroke="#7dd3fc" fill="none" opacity="0.4"/>
                    <circle cx="735.3550689840631" cy="61.095884809765266" r="3" fill="#f43f5e"/><path d="M 835.0911593304772 370.60644903904176 L 801.0278202229529 420.60644903904176 L 841.5569312738967 470.60644903904176" stroke="#7dd3fc" fill="none" opacity="0.4"/>
                    <circle cx="835.0911593304772" cy="370.60644903904176" r="3" fill="#f43f5e"/><path d="M 684.7766444225272 295.03373636653123 L 669.8503205317138 345.03373636653123 L 643.1737862605587 395.03373636653123" stroke="#7dd3fc" fill="none" opacity="0.4"/>
                    <circle cx="684.7766444225272" cy="295.03373636653123" r="3" fill="#f43f5e"/><path d="M 995.1154940994456 54.17053530836711 L 952.8370059526424 104.1705353083671 L 977.3280229963802 154.1705353083671" stroke="#7dd3fc" fill="none" opacity="0.4"/>
                    <circle cx="995.1154940994456" cy="54.17053530836711" r="3" fill="#f43f5e"/><path d="M 608.6616185893945 320.692511769812 L 582.3714694935916 370.692511769812 L 572.5038032976954 420.692511769812" stroke="#7dd3fc" fill="none" opacity="0.4"/>
                    <circle cx="608.6616185893945" cy="320.692511769812" r="3" fill="#f43f5e"/><path d="M 555.6811179816577 26.016785437241197 L 590.7983625956149 76.0167854372412 L 534.1104446453755 126.0167854372412" stroke="#7dd3fc" fill="none" opacity="0.4"/>
                    <circle cx="555.6811179816577" cy="26.016785437241197" r="3" fill="#f43f5e"/><path d="M 584.5234107211581 165.38163536097272 L 565.6460593099837 215.38163536097272 L 616.9979233368394 265.3816353609727" stroke="#7dd3fc" fill="none" opacity="0.4"/>
                    <circle cx="584.5234107211581" cy="165.38163536097272" r="3" fill="#f43f5e"/><path d="M 43.939249418144755 378.33249561008415 L 13.705201829623093 428.33249561008415 L 19.688888338896504 478.33249561008415" stroke="#7dd3fc" fill="none" opacity="0.4"/>
                    <circle cx="43.939249418144755" cy="378.33249561008415" r="3" fill="#f43f5e"/><path d="M 972.5511742457456 317.5962332301424 L 935.9913406256283 367.5962332301424 L 946.1483751456399 417.5962332301424" stroke="#7dd3fc" fill="none" opacity="0.4"/>
                    <circle cx="972.5511742457456" cy="317.5962332301424" r="3" fill="#f43f5e"/>
        <text x="600" y="520" font-family="Segoe UI, Arial, sans-serif" font-size="38" font-weight="800" fill="#ffffff" text-anchor="middle">Designing Adaptive Data Visualization Interfaces for Dyna...</text>
        <text x="600" y="560" font-family="Segoe UI, Arial, sans-serif" font-size="16" font-weight="600" fill="#7dd3fc" text-anchor="middle" style="letter-spacing: 4px; text-transform: uppercase;">UI UX Powerhouse • Specialized Series</text>
    </svg>