<svg width="1200" height="600" viewBox="0 0 1200 600" xmlns="http://www.w3.org/2000/svg">
            <rect width="1200" height="600" fill="#2e1065"/><rect x="150" y="164.1948131051322" width="60" height="185.8051868948678" fill="#d8b4fe" opacity="0.6"/>
                    <rect x="170" y="144.1948131051322" width="60" height="185.8051868948678" fill="#a855f7" opacity="0.4" transform="skewY(-20)"/><rect x="270" y="104.78695792471626" width="60" height="245.21304207528374" fill="#d8b4fe" opacity="0.6"/>
                    <rect x="290" y="84.78695792471626" width="60" height="245.21304207528374" fill="#a855f7" opacity="0.4" transform="skewY(-20)"/><rect x="390" y="269.68095859338064" width="60" height="80.31904140661936" fill="#d8b4fe" opacity="0.6"/>
                    <rect x="410" y="249.68095859338064" width="60" height="80.31904140661936" fill="#a855f7" opacity="0.4" transform="skewY(-20)"/><rect x="510" y="259.0514216017482" width="60" height="90.94857839825181" fill="#d8b4fe" opacity="0.6"/>
                    <rect x="530" y="239.0514216017482" width="60" height="90.94857839825181" fill="#a855f7" opacity="0.4" transform="skewY(-20)"/><rect x="630" y="223.87201540786918" width="60" height="126.12798459213082" fill="#d8b4fe" opacity="0.6"/>
                    <rect x="650" y="203.87201540786918" width="60" height="126.12798459213082" fill="#a855f7" opacity="0.4" transform="skewY(-20)"/><rect x="750" y="208.570002029046" width="60" height="141.429997970954" fill="#d8b4fe" opacity="0.6"/>
                    <rect x="770" y="188.570002029046" width="60" height="141.429997970954" fill="#a855f7" opacity="0.4" transform="skewY(-20)"/><rect x="870" y="175.2836423132976" width="60" height="174.7163576867024" fill="#d8b4fe" opacity="0.6"/>
                    <rect x="890" y="155.2836423132976" width="60" height="174.7163576867024" fill="#a855f7" opacity="0.4" transform="skewY(-20)"/><rect x="990" y="141.09378139728506" width="60" height="208.90621860271494" fill="#d8b4fe" opacity="0.6"/>
                    <rect x="1010" y="121.09378139728506" width="60" height="208.90621860271494" fill="#a855f7" opacity="0.4" transform="skewY(-20)"/>
            <text x="600" y="520" font-family="Segoe UI, Arial, sans-serif" font-size="38" font-weight="800" fill="#ffffff" text-anchor="middle">Designing Empathetic Interfaces: Leveraging AI to Enhance...</text>
            <text x="600" y="560" font-family="Segoe UI, Arial, sans-serif" font-size="16" font-weight="600" fill="#d8b4fe" text-anchor="middle" style="letter-spacing: 4px; text-transform: uppercase;">UI UX Powerhouse • Specialized Series</text>
        </svg>