<svg width="1200" height="600" viewBox="0 0 1200 600" xmlns="http://www.w3.org/2000/svg">
        <rect width="1200" height="600" fill="#111827"/><circle cx="332.2217354503664" cy="79.37837545923685" r="42.97995855253248" fill="#10b981" opacity="0.1"/><circle cx="113.05718834482832" cy="45.2390322854626" r="10.950224049702229" fill="#10b981" opacity="0.1"/><circle cx="508.4639237167721" cy="165.5699668928719" r="17.2966569408527" fill="#10b981" opacity="0.1"/><circle cx="641.6652395237179" cy="64.15238909467007" r="12.127042728970991" fill="#10b981" opacity="0.1"/><circle cx="531.6346762032481" cy="16.52731464491808" r="36.596969318634365" fill="#10b981" opacity="0.1"/><circle cx="261.8498816191277" cy="147.19962641720485" r="49.058665882912464" fill="#10b981" opacity="0.1"/><circle cx="580.3746967940242" cy="213.2191689030151" r="18.02000352538016" fill="#10b981" opacity="0.1"/><circle cx="141.49641736003105" cy="171.64160245956737" r="16.976957874362597" fill="#10b981" opacity="0.1"/><circle cx="17.852682279499277" cy="386.56725092314446" r="16.02755399148009" fill="#10b981" opacity="0.1"/><circle cx="1142.8796474854607" cy="227.1555895844358" r="10.518955630323035" fill="#10b981" opacity="0.1"/><circle cx="804.373902151201" cy="351.1762979069317" r="11.532430055922305" fill="#10b981" opacity="0.1"/><circle cx="1002.7740042194637" cy="181.11199435443268" r="36.9110247252047" fill="#10b981" opacity="0.1"/><circle cx="466.7819097145184" cy="71.15667056714301" r="20.725007545515837" fill="#10b981" opacity="0.1"/><circle cx="346.0801541139517" cy="185.0800492844428" r="49.89959848090393" fill="#10b981" opacity="0.1"/><circle cx="330.48211382429145" cy="315.19379036690225" r="23.1908722177468" fill="#10b981" opacity="0.1"/><circle cx="298.342577441872" cy="15.061849063567934" r="30.298093183628225" fill="#10b981" opacity="0.1"/><circle cx="120.50297697751375" cy="342.30032733030384" r="48.55322529285331" fill="#10b981" opacity="0.1"/><circle cx="693.8645889000327" cy="304.2200233816402" r="27.10059132969036" fill="#10b981" opacity="0.1"/><circle cx="566.5427339914459" cy="45.73018917544687" r="49.19579226101632" fill="#10b981" opacity="0.1"/><circle cx="930.991834764427" cy="282.5480291430722" r="46.87905807477364" fill="#10b981" opacity="0.1"/><circle cx="186.08332690782845" cy="320.9854458422342" r="38.846628852625145" fill="#10b981" opacity="0.1"/><circle cx="1002.5973485106078" cy="397.48207766497217" r="36.16656531128683" fill="#10b981" opacity="0.1"/><circle cx="1093.2717574381968" cy="6.128865166101605" r="18.8978379258333" fill="#10b981" opacity="0.1"/><circle cx="836.1885266458557" cy="396.49540403916035" r="25.81359872901885" fill="#10b981" opacity="0.1"/><circle cx="679.8545440484304" cy="100.32584477448836" r="12.498871892967145" fill="#10b981" opacity="0.1"/><circle cx="593.298497593787" cy="89.2011641379213" r="15.306401152083708" fill="#10b981" opacity="0.1"/><circle cx="981.886596100594" cy="216.11640716000693" r="35.88603110903932" fill="#10b981" opacity="0.1"/><circle cx="573.813599424102" cy="72.15801205602475" r="10.073428782634437" fill="#10b981" opacity="0.1"/><circle cx="550.1806432270314" cy="251.1326043997542" r="14.279370125732385" fill="#10b981" opacity="0.1"/><circle cx="420.83600115547597" cy="37.55757996132161" r="18.558947205929144" fill="#10b981" opacity="0.1"/>
        <text x="600" y="520" font-family="Segoe UI, Arial, sans-serif" font-size="38" font-weight="800" fill="#ffffff" text-anchor="middle">Designing Adaptive Navigation Menus for Voice-Activated I...</text>
        <text x="600" y="560" font-family="Segoe UI, Arial, sans-serif" font-size="16" font-weight="600" fill="#10b981" text-anchor="middle" style="letter-spacing: 4px; text-transform: uppercase;">UI UX Powerhouse • Specialized Series</text>
    </svg>