<svg width="1200" height="600" viewBox="0 0 1200 600" xmlns="http://www.w3.org/2000/svg">
            <rect width="1200" height="600" fill="#2e1065"/><path d="M 961.3861448684474 274.85824748218874 L 937.5947042268308 324.85824748218874 L 915.0523061527565 374.85824748218874" stroke="#d8b4fe" fill="none" opacity="0.4"/>
                    <circle cx="961.3861448684474" cy="274.85824748218874" r="3" fill="#4ade80"/><path d="M 1144.4370950102893 31.568112391505565 L 1167.8775115915414 81.56811239150557 L 1160.5496463914592 131.56811239150557" stroke="#d8b4fe" fill="none" opacity="0.4"/>
                    <circle cx="1144.4370950102893" cy="31.568112391505565" r="3" fill="#4ade80"/><path d="M 308.7810439435998 354.6317167896632 L 304.49070714221307 404.6317167896632 L 281.4375503872725 454.6317167896632" stroke="#d8b4fe" fill="none" opacity="0.4"/>
                    <circle cx="308.7810439435998" cy="354.6317167896632" r="3" fill="#4ade80"/><path d="M 813.5708715613873 231.5019771209336 L 815.5758090098971 281.5019771209336 L 807.1907931873284 331.5019771209336" stroke="#d8b4fe" fill="none" opacity="0.4"/>
                    <circle cx="813.5708715613873" cy="231.5019771209336" r="3" fill="#4ade80"/><path d="M 1014.0459463138541 155.591800937691 L 977.3976741616025 205.591800937691 L 1024.8947641615814 255.591800937691" stroke="#d8b4fe" fill="none" opacity="0.4"/>
                    <circle cx="1014.0459463138541" cy="155.591800937691" r="3" fill="#4ade80"/><path d="M 348.6897685634176 307.0936138626166 L 392.4626416543106 357.0936138626166 L 308.2273862510192 407.0936138626166" stroke="#d8b4fe" fill="none" opacity="0.4"/>
                    <circle cx="348.6897685634176" cy="307.0936138626166" r="3" fill="#4ade80"/><path d="M 960.0742070506385 250.8116503362544 L 935.3891383708287 300.8116503362544 L 954.0589470940176 350.8116503362544" stroke="#d8b4fe" fill="none" opacity="0.4"/>
                    <circle cx="960.0742070506385" cy="250.8116503362544" r="3" fill="#4ade80"/><path d="M 26.070863240602193 176.6855056190252 L 26.579213879813324 226.6855056190252 L 17.903837488483987 276.6855056190252" stroke="#d8b4fe" fill="none" opacity="0.4"/>
                    <circle cx="26.070863240602193" cy="176.6855056190252" r="3" fill="#4ade80"/><path d="M 358.876026654616 328.0213350913982 L 310.63518519479203 378.0213350913982 L 398.0296407442438 428.0213350913982" stroke="#d8b4fe" fill="none" opacity="0.4"/>
                    <circle cx="358.876026654616" cy="328.0213350913982" r="3" fill="#4ade80"/><path d="M 643.2802695724604 111.6008384381189 L 666.3950826593464 161.6008384381189 L 682.6450179076346 211.6008384381189" stroke="#d8b4fe" fill="none" opacity="0.4"/>
                    <circle cx="643.2802695724604" cy="111.6008384381189" r="3" fill="#4ade80"/>
            <text x="600" y="520" font-family="Segoe UI, Arial, sans-serif" font-size="38" font-weight="800" fill="#ffffff" text-anchor="middle">Designing Inclusive Data Visualization for Cognitive Load...</text>
            <text x="600" y="560" font-family="Segoe UI, Arial, sans-serif" font-size="16" font-weight="600" fill="#d8b4fe" text-anchor="middle" style="letter-spacing: 4px; text-transform: uppercase;">UI UX Powerhouse • Specialized Series</text>
        </svg>