<svg width="1200" height="600" viewBox="0 0 1200 600" xmlns="http://www.w3.org/2000/svg">
            <rect width="1200" height="600" fill="#1e1b4b"/><circle cx="751.3123874239682" cy="3.5518351702194195" r="15.378202283245628" fill="#f43f5e" opacity="0.1"/><circle cx="67.17664229290676" cy="280.386064652248" r="30.277987428880806" fill="#f43f5e" opacity="0.1"/><circle cx="67.72785437569837" cy="361.6426817563479" r="18.461997028753103" fill="#f43f5e" opacity="0.1"/><circle cx="904.8654721183993" cy="331.23395271322806" r="12.204881181314704" fill="#f43f5e" opacity="0.1"/><circle cx="694.7768260979501" cy="269.59952825855" r="29.25673588497375" fill="#f43f5e" opacity="0.1"/><circle cx="1051.0306316609785" cy="281.21437670415617" r="43.71098345483915" fill="#f43f5e" opacity="0.1"/><circle cx="303.10465865259175" cy="61.67234102213115" r="47.47094578906399" fill="#f43f5e" opacity="0.1"/><circle cx="319.1301020948231" cy="379.1955904700444" r="23.993133470030443" fill="#f43f5e" opacity="0.1"/><circle cx="487.3958183088689" cy="369.0094850058813" r="40.70980619369948" fill="#f43f5e" opacity="0.1"/><circle cx="712.8791440110945" cy="298.9399270998547" r="40.72068259250955" fill="#f43f5e" opacity="0.1"/><circle cx="656.0906210121175" cy="19.4783095830644" r="10.605968433374073" fill="#f43f5e" opacity="0.1"/><circle cx="481.7014436948739" cy="308.23500932820025" r="36.22570158171584" fill="#f43f5e" opacity="0.1"/><circle cx="175.41313367910334" cy="11.720433530717855" r="37.33066598881123" fill="#f43f5e" opacity="0.1"/><circle cx="1053.5167715101124" cy="193.03649019348086" r="35.86527077939536" fill="#f43f5e" opacity="0.1"/><circle cx="850.6629717354372" cy="387.54680803758674" r="11.17436492611887" fill="#f43f5e" opacity="0.1"/><circle cx="1082.7832288618083" cy="304.6115083277982" r="22.99331654809066" fill="#f43f5e" opacity="0.1"/><circle cx="717.8588286831655" cy="44.17970100221282" r="37.763762869362836" fill="#f43f5e" opacity="0.1"/><circle cx="964.9127208271238" cy="36.02345149338362" r="23.433926200596034" fill="#f43f5e" opacity="0.1"/><circle cx="885.780363340109" cy="297.5657049999427" r="45.75206300020909" fill="#f43f5e" opacity="0.1"/><circle cx="47.632569117922685" cy="132.6363763021618" r="26.53548744692671" fill="#f43f5e" opacity="0.1"/><circle cx="354.1716091833223" cy="5.390948935018969" r="23.19949557961081" fill="#f43f5e" opacity="0.1"/><circle cx="47.19594758316816" cy="48.65771640324965" r="15.439910486602457" fill="#f43f5e" opacity="0.1"/><circle cx="217.77124415420985" cy="181.95153926935745" r="26.94906015338347" fill="#f43f5e" opacity="0.1"/><circle cx="19.482643323135562" cy="128.53173337789485" r="25.58434230275452" fill="#f43f5e" opacity="0.1"/><circle cx="419.6126483457192" cy="151.90015031112125" r="25.920261620776728" fill="#f43f5e" opacity="0.1"/><circle cx="362.53898132817994" cy="317.090546972031" r="11.641128951850988" fill="#f43f5e" opacity="0.1"/><circle cx="324.69005993552855" cy="254.2408657471242" r="49.86506430337613" fill="#f43f5e" opacity="0.1"/><circle cx="1118.3221076993505" cy="300.9469298944168" r="28.80838669152581" fill="#f43f5e" opacity="0.1"/><circle cx="149.14265535553568" cy="233.7202213515411" r="18.39194057843997" fill="#f43f5e" opacity="0.1"/><circle cx="901.1807823340405" cy="235.25681959035865" r="38.96054061864561" fill="#f43f5e" opacity="0.1"/>
            <text x="600" y="520" font-family="Segoe UI, Arial, sans-serif" font-size="38" font-weight="800" fill="#ffffff" text-anchor="middle">Designing Context-Aware Tooltips: Implementing Intersecti...</text>
            <text x="600" y="560" font-family="Segoe UI, Arial, sans-serif" font-size="16" font-weight="600" fill="#f43f5e" text-anchor="middle" style="letter-spacing: 4px; text-transform: uppercase;">UI UX Powerhouse • Specialized Series</text>
        </svg>