<svg width="1200" height="600" viewBox="0 0 1200 600" xmlns="http://www.w3.org/2000/svg">
        <rect width="1200" height="600" fill="#111827"/><circle cx="769.3653521761007" cy="250.81994107022183" r="49.96772149423123" fill="#10b981" opacity="0.1"/><circle cx="448.7984814335505" cy="355.30044072038436" r="21.196963188485825" fill="#10b981" opacity="0.1"/><circle cx="900.0889447521331" cy="210.09243593084648" r="24.759521366831905" fill="#10b981" opacity="0.1"/><circle cx="1040.2362254964828" cy="397.43354690799606" r="46.28805668318819" fill="#10b981" opacity="0.1"/><circle cx="772.0692783332197" cy="19.62224772978516" r="19.134762338289875" fill="#10b981" opacity="0.1"/><circle cx="861.9312678536517" cy="204.01916300834273" r="32.112362854732055" fill="#10b981" opacity="0.1"/><circle cx="234.41999068859332" cy="14.945407596133009" r="21.00662790442584" fill="#10b981" opacity="0.1"/><circle cx="136.0502969178924" cy="303.92867876980745" r="13.993179758581391" fill="#10b981" opacity="0.1"/><circle cx="1194.453743500344" cy="162.99349713590345" r="29.338141478474427" fill="#10b981" opacity="0.1"/><circle cx="450.94278022552317" cy="37.73333516655839" r="29.62797577805759" fill="#10b981" opacity="0.1"/><circle cx="572.0669634334627" cy="31.983253327780403" r="46.45344091883089" fill="#10b981" opacity="0.1"/><circle cx="682.6084468088084" cy="141.49142733908775" r="11.021501204450033" fill="#10b981" opacity="0.1"/><circle cx="669.0678217972163" cy="370.01354691537927" r="19.721660022592005" fill="#10b981" opacity="0.1"/><circle cx="304.94291243026055" cy="322.83069240256737" r="19.774837471341016" fill="#10b981" opacity="0.1"/><circle cx="743.6384206324874" cy="100.4891396207313" r="46.52783977842773" fill="#10b981" opacity="0.1"/><circle cx="974.0083777163818" cy="354.3984910698782" r="33.899057491871645" fill="#10b981" opacity="0.1"/><circle cx="853.7520129073528" cy="314.18849970905285" r="32.17416583749582" fill="#10b981" opacity="0.1"/><circle cx="379.94512595105334" cy="96.75084879745555" r="36.204395987388125" fill="#10b981" opacity="0.1"/><circle cx="1180.5916338137195" cy="103.38000938572804" r="18.95965399198758" fill="#10b981" opacity="0.1"/><circle cx="775.5494053883012" cy="204.11775325192139" r="47.3071838375472" fill="#10b981" opacity="0.1"/><circle cx="720.4997818385891" cy="230.26013113340014" r="36.2385404973611" fill="#10b981" opacity="0.1"/><circle cx="619.9100309146161" cy="299.9302208355857" r="48.954484476998914" fill="#10b981" opacity="0.1"/><circle cx="916.2885017009103" cy="272.77920475598876" r="47.69334814620379" fill="#10b981" opacity="0.1"/><circle cx="181.56100967389648" cy="216.03355136030586" r="14.929863052475412" fill="#10b981" opacity="0.1"/><circle cx="66.83308794636105" cy="218.7658689210366" r="39.43837006954709" fill="#10b981" opacity="0.1"/><circle cx="275.2713427034905" cy="27.949703306512674" r="23.790094452779158" fill="#10b981" opacity="0.1"/><circle cx="870.6585345389612" cy="132.07839875354352" r="21.793535961151065" fill="#10b981" opacity="0.1"/><circle cx="388.8933613505287" cy="207.182820874732" r="33.69038156404713" fill="#10b981" opacity="0.1"/><circle cx="707.3767827236225" cy="212.28628962089715" r="45.96630681451643" fill="#10b981" opacity="0.1"/><circle cx="536.619675149268" cy="53.61710142569791" r="20.761563842934265" fill="#10b981" opacity="0.1"/>
        <text x="600" y="520" font-family="Segoe UI, Arial, sans-serif" font-size="38" font-weight="800" fill="#ffffff" text-anchor="middle">Designing for the Metaverse: Best Practices for Creating ...</text>
        <text x="600" y="560" font-family="Segoe UI, Arial, sans-serif" font-size="16" font-weight="600" fill="#10b981" text-anchor="middle" style="letter-spacing: 4px; text-transform: uppercase;">UI UX Powerhouse • Specialized Series</text>
    </svg>