<svg width="1200" height="600" viewBox="0 0 1200 600" xmlns="http://www.w3.org/2000/svg">
        <rect width="1200" height="600" fill="#2e1065"/><rect x="150" y="185.03856374882162" width="60" height="164.96143625117838" fill="#d8b4fe" opacity="0.6"/>
                    <rect x="170" y="165.03856374882162" width="60" height="164.96143625117838" fill="#a855f7" opacity="0.4" transform="skewY(-20)"/><rect x="270" y="231.2233168795501" width="60" height="118.77668312044989" fill="#d8b4fe" opacity="0.6"/>
                    <rect x="290" y="211.2233168795501" width="60" height="118.77668312044989" fill="#a855f7" opacity="0.4" transform="skewY(-20)"/><rect x="390" y="285.93595316160645" width="60" height="64.06404683839355" fill="#d8b4fe" opacity="0.6"/>
                    <rect x="410" y="265.93595316160645" width="60" height="64.06404683839355" fill="#a855f7" opacity="0.4" transform="skewY(-20)"/><rect x="510" y="126.4723048441283" width="60" height="223.5276951558717" fill="#d8b4fe" opacity="0.6"/>
                    <rect x="530" y="106.4723048441283" width="60" height="223.5276951558717" fill="#a855f7" opacity="0.4" transform="skewY(-20)"/><rect x="630" y="262.5634274298136" width="60" height="87.4365725701864" fill="#d8b4fe" opacity="0.6"/>
                    <rect x="650" y="242.5634274298136" width="60" height="87.4365725701864" fill="#a855f7" opacity="0.4" transform="skewY(-20)"/><rect x="750" y="119.73349558757036" width="60" height="230.26650441242964" fill="#d8b4fe" opacity="0.6"/>
                    <rect x="770" y="99.73349558757036" width="60" height="230.26650441242964" fill="#a855f7" opacity="0.4" transform="skewY(-20)"/><rect x="870" y="150.41451686811342" width="60" height="199.58548313188658" fill="#d8b4fe" opacity="0.6"/>
                    <rect x="890" y="130.41451686811342" width="60" height="199.58548313188658" fill="#a855f7" opacity="0.4" transform="skewY(-20)"/><rect x="990" y="108.2987900266744" width="60" height="241.7012099733256" fill="#d8b4fe" opacity="0.6"/>
                    <rect x="1010" y="88.2987900266744" width="60" height="241.7012099733256" fill="#a855f7" opacity="0.4" transform="skewY(-20)"/>
        <text x="600" y="520" font-family="Segoe UI, Arial, sans-serif" font-size="38" font-weight="800" fill="#ffffff" text-anchor="middle">Designing Adaptive UI Patterns for Data-Heavy Application...</text>
        <text x="600" y="560" font-family="Segoe UI, Arial, sans-serif" font-size="16" font-weight="600" fill="#d8b4fe" text-anchor="middle" style="letter-spacing: 4px; text-transform: uppercase;">UI UX Powerhouse • Specialized Series</text>
    </svg>