<svg width="1200" height="600" viewBox="0 0 1200 600" xmlns="http://www.w3.org/2000/svg">
        <rect width="1200" height="600" fill="#171717"/><path d="M 326.6199982146645 119.58441830211086 L 339.76212033558113 169.58441830211086 L 357.5323359008962 219.58441830211086" stroke="#f59e0b" fill="none" opacity="0.4"/>
                    <circle cx="326.6199982146645" cy="119.58441830211086" r="3" fill="#ec4899"/><path d="M 962.1598225538037 85.98023367958376 L 960.6940077140735 135.98023367958376 L 951.957021000635 185.98023367958376" stroke="#f59e0b" fill="none" opacity="0.4"/>
                    <circle cx="962.1598225538037" cy="85.98023367958376" r="3" fill="#ec4899"/><path d="M 696.1917452943453 264.2577953981345 L 669.1680161260592 314.2577953981345 L 664.7054632309846 364.2577953981345" stroke="#f59e0b" fill="none" opacity="0.4"/>
                    <circle cx="696.1917452943453" cy="264.2577953981345" r="3" fill="#ec4899"/><path d="M 774.0103215241106 210.76869824537425 L 752.689952251967 260.76869824537425 L 772.1976500085475 310.76869824537425" stroke="#f59e0b" fill="none" opacity="0.4"/>
                    <circle cx="774.0103215241106" cy="210.76869824537425" r="3" fill="#ec4899"/><path d="M 895.8289776332094 174.12371617419922 L 905.505686840479 224.12371617419922 L 918.5654113560304 274.1237161741992" stroke="#f59e0b" fill="none" opacity="0.4"/>
                    <circle cx="895.8289776332094" cy="174.12371617419922" r="3" fill="#ec4899"/><path d="M 1002.2507711324579 299.29571293068875 L 1042.2992194550716 349.29571293068875 L 982.5302582738004 399.29571293068875" stroke="#f59e0b" fill="none" opacity="0.4"/>
                    <circle cx="1002.2507711324579" cy="299.29571293068875" r="3" fill="#ec4899"/><path d="M 36.82951175433118 355.5550238372234 L 33.69490100282064 405.5550238372234 L -1.1406400018813656 455.5550238372234" stroke="#f59e0b" fill="none" opacity="0.4"/>
                    <circle cx="36.82951175433118" cy="355.5550238372234" r="3" fill="#ec4899"/><path d="M 961.3967585264277 251.77893267537002 L 944.1653843820973 301.77893267537 L 940.4546266488637 351.77893267537" stroke="#f59e0b" fill="none" opacity="0.4"/>
                    <circle cx="961.3967585264277" cy="251.77893267537002" r="3" fill="#ec4899"/><path d="M 733.0065559932336 54.81808489203104 L 754.3699545857635 104.81808489203104 L 723.8978975140526 154.81808489203104" stroke="#f59e0b" fill="none" opacity="0.4"/>
                    <circle cx="733.0065559932336" cy="54.81808489203104" r="3" fill="#ec4899"/><path d="M 436.7506711929309 288.4484579473792 L 464.2138155198154 338.4484579473792 L 452.23356281858287 388.4484579473792" stroke="#f59e0b" fill="none" opacity="0.4"/>
                    <circle cx="436.7506711929309" cy="288.4484579473792" r="3" fill="#ec4899"/>
        <text x="600" y="520" font-family="Segoe UI, Arial, sans-serif" font-size="38" font-weight="800" fill="#ffffff" text-anchor="middle">Designing Adaptive Navigation Menus for Progressive Web A...</text>
        <text x="600" y="560" font-family="Segoe UI, Arial, sans-serif" font-size="16" font-weight="600" fill="#f59e0b" text-anchor="middle" style="letter-spacing: 4px; text-transform: uppercase;">UI UX Powerhouse • Specialized Series</text>
    </svg>