<svg width="1200" height="600" viewBox="0 0 1200 600" xmlns="http://www.w3.org/2000/svg">
            <rect width="1200" height="600" fill="#1e1b4b"/><circle cx="826.1221081484109" cy="228.33631599914952" r="17.04670469116536" fill="#f43f5e" opacity="0.1"/><circle cx="141.55570029543014" cy="354.5835366268875" r="11.560120848016595" fill="#f43f5e" opacity="0.1"/><circle cx="654.530987038379" cy="391.7052738615894" r="17.911378971184604" fill="#f43f5e" opacity="0.1"/><circle cx="152.82128397248016" cy="220.11878950688697" r="15.71754624816549" fill="#f43f5e" opacity="0.1"/><circle cx="591.3110207657155" cy="350.4965737716702" r="26.30823783132655" fill="#f43f5e" opacity="0.1"/><circle cx="204.0883500201744" cy="383.0851325117692" r="32.65247458295562" fill="#f43f5e" opacity="0.1"/><circle cx="2.877358733348956" cy="349.44482405080635" r="22.242500913162075" fill="#f43f5e" opacity="0.1"/><circle cx="822.1311521425378" cy="281.7960459011374" r="29.007951754174428" fill="#f43f5e" opacity="0.1"/><circle cx="626.7679493397736" cy="284.7562153929175" r="36.71598321841884" fill="#f43f5e" opacity="0.1"/><circle cx="733.4952085919554" cy="298.38618588692043" r="44.621472639219064" fill="#f43f5e" opacity="0.1"/><circle cx="938.8948304320365" cy="224.51551938684133" r="32.83495390234748" fill="#f43f5e" opacity="0.1"/><circle cx="330.38025270288927" cy="285.2430172089953" r="14.842420499699074" fill="#f43f5e" opacity="0.1"/><circle cx="325.55132971610874" cy="393.01561023785325" r="18.431401056477625" fill="#f43f5e" opacity="0.1"/><circle cx="932.9881749538799" cy="293.38860188986473" r="21.346842737602856" fill="#f43f5e" opacity="0.1"/><circle cx="317.40489314361184" cy="206.94753902380398" r="48.9635245765794" fill="#f43f5e" opacity="0.1"/><circle cx="525.5077127098048" cy="1.9842904264805838" r="46.41817019000882" fill="#f43f5e" opacity="0.1"/><circle cx="947.8979294995952" cy="122.5864183561498" r="46.99782642984246" fill="#f43f5e" opacity="0.1"/><circle cx="621.3652577753237" cy="79.90689124271739" r="47.664454534206016" fill="#f43f5e" opacity="0.1"/><circle cx="522.3738884919157" cy="200.46724877844326" r="49.73398358521081" fill="#f43f5e" opacity="0.1"/><circle cx="118.65593864349648" cy="349.5835853173048" r="49.93069627278601" fill="#f43f5e" opacity="0.1"/><circle cx="176.59192589271697" cy="239.51802893643617" r="35.39540230725834" fill="#f43f5e" opacity="0.1"/><circle cx="1026.2379735512695" cy="320.6668484817783" r="40.98680509516271" fill="#f43f5e" opacity="0.1"/><circle cx="156.00216058628575" cy="150.76612205812125" r="10.322883578173787" fill="#f43f5e" opacity="0.1"/><circle cx="7.66893944273761" cy="348.9099164660729" r="41.57356438665374" fill="#f43f5e" opacity="0.1"/><circle cx="1065.8877934578413" cy="117.07244376375456" r="43.92326165160739" fill="#f43f5e" opacity="0.1"/><circle cx="849.8107351450017" cy="110.31452807801543" r="42.062807068869006" fill="#f43f5e" opacity="0.1"/><circle cx="248.21791908179875" cy="199.20187189691205" r="19.72925380927336" fill="#f43f5e" opacity="0.1"/><circle cx="919.3567586800782" cy="45.68638328200905" r="27.406685536370787" fill="#f43f5e" opacity="0.1"/><circle cx="964.1955410108537" cy="375.441376650997" r="17.673864922435314" fill="#f43f5e" opacity="0.1"/><circle cx="321.5987386141933" cy="51.4898080695275" r="15.110609234980075" fill="#f43f5e" opacity="0.1"/>
            <text x="600" y="520" font-family="Segoe UI, Arial, sans-serif" font-size="38" font-weight="800" fill="#ffffff" text-anchor="middle">Designing Inclusive Data Visualization: Techniques for En...</text>
            <text x="600" y="560" font-family="Segoe UI, Arial, sans-serif" font-size="16" font-weight="600" fill="#f43f5e" text-anchor="middle" style="letter-spacing: 4px; text-transform: uppercase;">UI UX Powerhouse • Specialized Series</text>
        </svg>