<svg width="1200" height="600" viewBox="0 0 1200 600" xmlns="http://www.w3.org/2000/svg">
        <rect width="1200" height="600" fill="#1e1b4b"/><path d="M 1197.4303741830226 34.335272159660235 L 1167.46448408594 84.33527215966024 L 1218.3100551535517 134.33527215966024" stroke="#f43f5e" fill="none" opacity="0.4"/>
                    <circle cx="1197.4303741830226" cy="34.335272159660235" r="3" fill="#22d3ee"/><path d="M 157.87753970871563 373.9405942917074 L 127.30820725410013 423.9405942917074 L 202.6633829817456 473.9405942917074" stroke="#f43f5e" fill="none" opacity="0.4"/>
                    <circle cx="157.87753970871563" cy="373.9405942917074" r="3" fill="#22d3ee"/><path d="M 755.1503112670616 46.22057598498941 L 716.612820932005 96.22057598498941 L 749.4013471711198 146.2205759849894" stroke="#f43f5e" fill="none" opacity="0.4"/>
                    <circle cx="755.1503112670616" cy="46.22057598498941" r="3" fill="#22d3ee"/><path d="M 1056.0200519365026 242.76086392565048 L 1029.4455713928073 292.7608639256505 L 1049.9272588199347 342.7608639256505" stroke="#f43f5e" fill="none" opacity="0.4"/>
                    <circle cx="1056.0200519365026" cy="242.76086392565048" r="3" fill="#22d3ee"/><path d="M 41.7311504648751 261.57538200568524 L 87.73168814296355 311.57538200568524 L 36.44335130466061 361.57538200568524" stroke="#f43f5e" fill="none" opacity="0.4"/>
                    <circle cx="41.7311504648751" cy="261.57538200568524" r="3" fill="#22d3ee"/><path d="M 722.7282313346223 340.46653869336296 L 683.3628480477273 390.46653869336296 L 743.5537528020177 440.46653869336296" stroke="#f43f5e" fill="none" opacity="0.4"/>
                    <circle cx="722.7282313346223" cy="340.46653869336296" r="3" fill="#22d3ee"/><path d="M 686.5628392793951 83.51997683785157 L 679.6020873769521 133.51997683785157 L 680.9327725926778 183.51997683785157" stroke="#f43f5e" fill="none" opacity="0.4"/>
                    <circle cx="686.5628392793951" cy="83.51997683785157" r="3" fill="#22d3ee"/><path d="M 818.0261512679863 167.5834403700719 L 824.758645213484 217.5834403700719 L 850.4014462534542 267.5834403700719" stroke="#f43f5e" fill="none" opacity="0.4"/>
                    <circle cx="818.0261512679863" cy="167.5834403700719" r="3" fill="#22d3ee"/><path d="M 1047.0101136113954 65.0570794918167 L 1037.288082780833 115.0570794918167 L 1051.8323545662383 165.0570794918167" stroke="#f43f5e" fill="none" opacity="0.4"/>
                    <circle cx="1047.0101136113954" cy="65.0570794918167" r="3" fill="#22d3ee"/><path d="M 328.3692571793381 9.277984499385639 L 278.5866739981884 59.27798449938564 L 372.9801518080876 109.27798449938564" stroke="#f43f5e" fill="none" opacity="0.4"/>
                    <circle cx="328.3692571793381" cy="9.277984499385639" r="3" fill="#22d3ee"/>
        <text x="600" y="520" font-family="Segoe UI, Arial, sans-serif" font-size="38" font-weight="800" fill="#ffffff" text-anchor="middle">Designing Accessible Data Visualizations: Implementing AR...</text>
        <text x="600" y="560" font-family="Segoe UI, Arial, sans-serif" font-size="16" font-weight="600" fill="#f43f5e" text-anchor="middle" style="letter-spacing: 4px; text-transform: uppercase;">UI UX Powerhouse • Specialized Series</text>
    </svg>