<svg width="1200" height="600" viewBox="0 0 1200 600" xmlns="http://www.w3.org/2000/svg">
            <rect width="1200" height="600" fill="#0c4a6e"/><path d="M 1005.6916838471352 156.5129992472066 L 999.656198052935 206.5129992472066 L 1001.087461440693 256.5129992472066" stroke="#7dd3fc" fill="none" opacity="0.4"/>
                    <circle cx="1005.6916838471352" cy="156.5129992472066" r="3" fill="#f43f5e"/><path d="M 1079.6933969577367 146.86292810401937 L 1107.3873370371757 196.86292810401937 L 1072.0356174100516 246.86292810401937" stroke="#7dd3fc" fill="none" opacity="0.4"/>
                    <circle cx="1079.6933969577367" cy="146.86292810401937" r="3" fill="#f43f5e"/><path d="M 1167.8769866281073 261.35058733125334 L 1190.994094882808 311.35058733125334 L 1214.549727152371 361.35058733125334" stroke="#7dd3fc" fill="none" opacity="0.4"/>
                    <circle cx="1167.8769866281073" cy="261.35058733125334" r="3" fill="#f43f5e"/><path d="M 710.0741816570007 316.61291844502557 L 672.5118672677127 366.61291844502557 L 722.6850506478513 416.61291844502557" stroke="#7dd3fc" fill="none" opacity="0.4"/>
                    <circle cx="710.0741816570007" cy="316.61291844502557" r="3" fill="#f43f5e"/><path d="M 870.7176357695971 149.92478678559564 L 862.954668758448 199.92478678559564 L 909.5682217075591 249.92478678559564" stroke="#7dd3fc" fill="none" opacity="0.4"/>
                    <circle cx="870.7176357695971" cy="149.92478678559564" r="3" fill="#f43f5e"/><path d="M 490.569342955132 159.85963747734786 L 469.71162537483906 209.85963747734786 L 523.9292640893837 259.85963747734786" stroke="#7dd3fc" fill="none" opacity="0.4"/>
                    <circle cx="490.569342955132" cy="159.85963747734786" r="3" fill="#f43f5e"/><path d="M 544.6975046022999 131.37829578081437 L 558.8923325003179 181.37829578081437 L 583.2406697028915 231.37829578081437" stroke="#7dd3fc" fill="none" opacity="0.4"/>
                    <circle cx="544.6975046022999" cy="131.37829578081437" r="3" fill="#f43f5e"/><path d="M 487.8259675246227 180.473330355926 L 524.916686884535 230.473330355926 L 479.95075272774557 280.473330355926" stroke="#7dd3fc" fill="none" opacity="0.4"/>
                    <circle cx="487.8259675246227" cy="180.473330355926" r="3" fill="#f43f5e"/><path d="M 679.4737757576513 147.2259198242682 L 699.5926180058632 197.2259198242682 L 724.0133341673754 247.2259198242682" stroke="#7dd3fc" fill="none" opacity="0.4"/>
                    <circle cx="679.4737757576513" cy="147.2259198242682" r="3" fill="#f43f5e"/><path d="M 1091.8033983900386 397.57400608141324 L 1088.7885774509414 447.57400608141324 L 1079.7206557715526 497.57400608141324" stroke="#7dd3fc" fill="none" opacity="0.4"/>
                    <circle cx="1091.8033983900386" cy="397.57400608141324" r="3" fill="#f43f5e"/>
            <text x="600" y="520" font-family="Segoe UI, Arial, sans-serif" font-size="38" font-weight="800" fill="#ffffff" text-anchor="middle">Designing Adaptive User Interfaces for Multimodal Input: ...</text>
            <text x="600" y="560" font-family="Segoe UI, Arial, sans-serif" font-size="16" font-weight="600" fill="#7dd3fc" text-anchor="middle" style="letter-spacing: 4px; text-transform: uppercase;">UI UX Powerhouse • Specialized Series</text>
        </svg>