<svg width="1200" height="600" viewBox="0 0 1200 600" xmlns="http://www.w3.org/2000/svg">
            <rect width="1200" height="600" fill="#111827"/><path d="M 264.88248911773553 36.46860009575903 L 286.1305022444867 86.46860009575903 L 260.36460453098016 136.46860009575903" stroke="#10b981" fill="none" opacity="0.4"/>
                    <circle cx="264.88248911773553" cy="36.46860009575903" r="3" fill="#fbbf24"/><path d="M 211.10564275004435 44.69688086101087 L 219.3177977031155 94.69688086101087 L 168.34414989752986 144.69688086101087" stroke="#10b981" fill="none" opacity="0.4"/>
                    <circle cx="211.10564275004435" cy="44.69688086101087" r="3" fill="#fbbf24"/><path d="M 352.32798573433683 53.011506422535604 L 400.4851586616496 103.0115064225356 L 389.740197955507 153.0115064225356" stroke="#10b981" fill="none" opacity="0.4"/>
                    <circle cx="352.32798573433683" cy="53.011506422535604" r="3" fill="#fbbf24"/><path d="M 880.7700837613083 70.67371175071457 L 846.1862947959162 120.67371175071457 L 837.7617161775561 170.67371175071457" stroke="#10b981" fill="none" opacity="0.4"/>
                    <circle cx="880.7700837613083" cy="70.67371175071457" r="3" fill="#fbbf24"/><path d="M 1054.6379381034058 363.25107592492714 L 1083.767941271799 413.25107592492714 L 1022.1582941730048 463.25107592492714" stroke="#10b981" fill="none" opacity="0.4"/>
                    <circle cx="1054.6379381034058" cy="363.25107592492714" r="3" fill="#fbbf24"/><path d="M 1152.9736718825006 398.1834090373013 L 1179.6881144620784 448.1834090373013 L 1200.5142433619767 498.1834090373013" stroke="#10b981" fill="none" opacity="0.4"/>
                    <circle cx="1152.9736718825006" cy="398.1834090373013" r="3" fill="#fbbf24"/><path d="M 168.61855624683812 217.37336053411127 L 152.29619000911043 267.37336053411127 L 142.3578732265014 317.37336053411127" stroke="#10b981" fill="none" opacity="0.4"/>
                    <circle cx="168.61855624683812" cy="217.37336053411127" r="3" fill="#fbbf24"/><path d="M 1130.505094149703 107.24255526383786 L 1156.823497326127 157.24255526383786 L 1097.4164930076768 207.24255526383786" stroke="#10b981" fill="none" opacity="0.4"/>
                    <circle cx="1130.505094149703" cy="107.24255526383786" r="3" fill="#fbbf24"/><path d="M 1065.0324053705845 257.3279691117932 L 1039.1420918809217 307.3279691117932 L 1056.403435262473 357.3279691117932" stroke="#10b981" fill="none" opacity="0.4"/>
                    <circle cx="1065.0324053705845" cy="257.3279691117932" r="3" fill="#fbbf24"/><path d="M 871.1297588859452 363.4126248762186 L 868.4927371361482 413.4126248762186 L 857.5916153444268 463.4126248762186" stroke="#10b981" fill="none" opacity="0.4"/>
                    <circle cx="871.1297588859452" cy="363.4126248762186" r="3" fill="#fbbf24"/>
            <text x="600" y="520" font-family="Segoe UI, Arial, sans-serif" font-size="38" font-weight="800" fill="#ffffff" text-anchor="middle">Designing Intuitive Data Visualizations for Complex Finan...</text>
            <text x="600" y="560" font-family="Segoe UI, Arial, sans-serif" font-size="16" font-weight="600" fill="#10b981" text-anchor="middle" style="letter-spacing: 4px; text-transform: uppercase;">UI UX Powerhouse • Specialized Series</text>
        </svg>