<svg width="1200" height="600" viewBox="0 0 1200 600" xmlns="http://www.w3.org/2000/svg">
            <rect width="1200" height="600" fill="#111827"/><path d="M 20.976118929684162 327.4519093872186 L 70.96960636536096 377.4519093872186 L 18.597609557127726 427.4519093872186" stroke="#10b981" fill="none" opacity="0.4"/>
                    <circle cx="20.976118929684162" cy="327.4519093872186" r="3" fill="#fbbf24"/><path d="M 321.0904355531966 302.9268529280671 L 324.86393875410613 352.9268529280671 L 299.5208422682481 402.9268529280671" stroke="#10b981" fill="none" opacity="0.4"/>
                    <circle cx="321.0904355531966" cy="302.9268529280671" r="3" fill="#fbbf24"/><path d="M 1182.540383658852 283.30117456280277 L 1228.9551061666316 333.30117456280277 L 1162.8462250414032 383.30117456280277" stroke="#10b981" fill="none" opacity="0.4"/>
                    <circle cx="1182.540383658852" cy="283.30117456280277" r="3" fill="#fbbf24"/><path d="M 1186.993366247043 85.34652385351365 L 1214.2862505541416 135.34652385351365 L 1145.9102733103464 185.34652385351365" stroke="#10b981" fill="none" opacity="0.4"/>
                    <circle cx="1186.993366247043" cy="85.34652385351365" r="3" fill="#fbbf24"/><path d="M 80.90008689905517 389.67217049139435 L 129.96192113696452 439.67217049139435 L 63.07534757434041 489.67217049139435" stroke="#10b981" fill="none" opacity="0.4"/>
                    <circle cx="80.90008689905517" cy="389.67217049139435" r="3" fill="#fbbf24"/><path d="M 101.52554582637094 256.5419698614278 L 63.542935461737216 306.5419698614278 L 140.18983007827046 356.5419698614278" stroke="#10b981" fill="none" opacity="0.4"/>
                    <circle cx="101.52554582637094" cy="256.5419698614278" r="3" fill="#fbbf24"/><path d="M 508.5444324904529 2.386342769023031 L 542.51753986739 52.38634276902303 L 460.40669769781744 102.38634276902303" stroke="#10b981" fill="none" opacity="0.4"/>
                    <circle cx="508.5444324904529" cy="2.386342769023031" r="3" fill="#fbbf24"/><path d="M 854.4928977673408 376.54488168409443 L 827.6758855097796 426.54488168409443 L 883.2590632478968 476.54488168409443" stroke="#10b981" fill="none" opacity="0.4"/>
                    <circle cx="854.4928977673408" cy="376.54488168409443" r="3" fill="#fbbf24"/><path d="M 1032.4812771112192 391.6758400380786 L 1047.5704440573281 441.6758400380786 L 992.0493436884499 491.6758400380786" stroke="#10b981" fill="none" opacity="0.4"/>
                    <circle cx="1032.4812771112192" cy="391.6758400380786" r="3" fill="#fbbf24"/><path d="M 206.85763825385948 197.88631394767435 L 253.666297246491 247.88631394767435 L 254.44032473886864 297.88631394767435" stroke="#10b981" fill="none" opacity="0.4"/>
                    <circle cx="206.85763825385948" cy="197.88631394767435" r="3" fill="#fbbf24"/>
            <text x="600" y="520" font-family="Segoe UI, Arial, sans-serif" font-size="38" font-weight="800" fill="#ffffff" text-anchor="middle">Designing for the AI Experience: How to Create User Inter...</text>
            <text x="600" y="560" font-family="Segoe UI, Arial, sans-serif" font-size="16" font-weight="600" fill="#10b981" text-anchor="middle" style="letter-spacing: 4px; text-transform: uppercase;">UI UX Powerhouse • Specialized Series</text>
        </svg>