<svg width="1200" height="600" viewBox="0 0 1200 600" xmlns="http://www.w3.org/2000/svg">
        
            <rect width="1200" height="600" fill="#1a1a1a"/>
            <line x1="825.8689986963873" y1="194.80274595625815" x2="510.39268650329177" y2="140.78875252816943" stroke="#f97316" stroke-width="0.5" opacity="0.4"/><line x1="825.8689986963873" y1="194.80274595625815" x2="929.842683258903" y2="212.95878456348873" stroke="#f97316" stroke-width="0.5" opacity="0.4"/><line x1="825.8689986963873" y1="194.80274595625815" x2="637.9992568634862" y2="148.8911214277323" stroke="#f97316" stroke-width="0.5" opacity="0.4"/><line x1="825.8689986963873" y1="194.80274595625815" x2="796.3354579493171" y2="298.7287421956353" stroke="#f97316" stroke-width="0.5" opacity="0.4"/><line x1="825.8689986963873" y1="194.80274595625815" x2="203.76711461467494" y2="33.767737683228916" stroke="#f97316" stroke-width="0.5" opacity="0.4"/><line x1="726.1616837706242" y1="209.0604551245633" x2="1189.6310271011316" y2="160.80825491299038" stroke="#f97316" stroke-width="0.5" opacity="0.4"/><line x1="726.1616837706242" y1="209.0604551245633" x2="203.76711461467494" y2="33.767737683228916" stroke="#f97316" stroke-width="0.5" opacity="0.4"/><line x1="1152.6040578464745" y1="45.254924146138364" x2="1189.6310271011316" y2="160.80825491299038" stroke="#f97316" stroke-width="0.5" opacity="0.4"/><line x1="1152.6040578464745" y1="45.254924146138364" x2="637.9992568634862" y2="148.8911214277323" stroke="#f97316" stroke-width="0.5" opacity="0.4"/><line x1="510.39268650329177" y1="140.78875252816943" x2="1189.6310271011316" y2="160.80825491299038" stroke="#f97316" stroke-width="0.5" opacity="0.4"/><line x1="510.39268650329177" y1="140.78875252816943" x2="637.9992568634862" y2="148.8911214277323" stroke="#f97316" stroke-width="0.5" opacity="0.4"/><line x1="510.39268650329177" y1="140.78875252816943" x2="203.76711461467494" y2="33.767737683228916" stroke="#f97316" stroke-width="0.5" opacity="0.4"/><line x1="1189.6310271011316" y1="160.80825491299038" x2="540.7926436237176" y2="128.29248302004999" stroke="#f97316" stroke-width="0.5" opacity="0.4"/><line x1="1189.6310271011316" y1="160.80825491299038" x2="637.9992568634862" y2="148.8911214277323" stroke="#f97316" stroke-width="0.5" opacity="0.4"/><line x1="1189.6310271011316" y1="160.80825491299038" x2="796.3354579493171" y2="298.7287421956353" stroke="#f97316" stroke-width="0.5" opacity="0.4"/><line x1="1189.6310271011316" y1="160.80825491299038" x2="586.9705345430702" y2="69.90068361337762" stroke="#f97316" stroke-width="0.5" opacity="0.4"/><line x1="1189.6310271011316" y1="160.80825491299038" x2="203.76711461467494" y2="33.767737683228916" stroke="#f97316" stroke-width="0.5" opacity="0.4"/><line x1="929.842683258903" y1="212.95878456348873" x2="540.7926436237176" y2="128.29248302004999" stroke="#f97316" stroke-width="0.5" opacity="0.4"/><line x1="929.842683258903" y1="212.95878456348873" x2="796.3354579493171" y2="298.7287421956353" stroke="#f97316" stroke-width="0.5" opacity="0.4"/><line x1="929.842683258903" y1="212.95878456348873" x2="586.9705345430702" y2="69.90068361337762" stroke="#f97316" stroke-width="0.5" opacity="0.4"/><line x1="929.842683258903" y1="212.95878456348873" x2="203.76711461467494" y2="33.767737683228916" stroke="#f97316" stroke-width="0.5" opacity="0.4"/><line x1="540.7926436237176" y1="128.29248302004999" x2="203.76711461467494" y2="33.767737683228916" stroke="#f97316" stroke-width="0.5" opacity="0.4"/><line x1="796.3354579493171" y1="298.7287421956353" x2="203.76711461467494" y2="33.767737683228916" stroke="#f97316" stroke-width="0.5" opacity="0.4"/><line x1="796.3354579493171" y1="298.7287421956353" x2="714.0563501564884" y2="339.3558433323051" stroke="#f97316" stroke-width="0.5" opacity="0.4"/><line x1="586.9705345430702" y1="69.90068361337762" x2="203.76711461467494" y2="33.767737683228916" stroke="#f97316" stroke-width="0.5" opacity="0.4"/>
            <circle cx="825.8689986963873" cy="194.80274595625815" r="5.135271396415192" fill="#8b5cf6" opacity="0.6"/><circle cx="726.1616837706242" cy="209.0604551245633" r="2.7817078521838994" fill="#8b5cf6" opacity="0.6"/><circle cx="1152.6040578464745" cy="45.254924146138364" r="2.8971648284277762" fill="#8b5cf6" opacity="0.6"/><circle cx="510.39268650329177" cy="140.78875252816943" r="5.515349888850324" fill="#8b5cf6" opacity="0.6"/><circle cx="1189.6310271011316" cy="160.80825491299038" r="4.340040035753191" fill="#8b5cf6" opacity="0.6"/><circle cx="929.842683258903" cy="212.95878456348873" r="4.601747385047929" fill="#8b5cf6" opacity="0.6"/><circle cx="540.7926436237176" cy="128.29248302004999" r="4.338297943686484" fill="#8b5cf6" opacity="0.6"/><circle cx="637.9992568634862" cy="148.8911214277323" r="3.6052359601035278" fill="#8b5cf6" opacity="0.6"/><circle cx="796.3354579493171" cy="298.7287421956353" r="2.3269820873665594" fill="#8b5cf6" opacity="0.6"/><circle cx="586.9705345430702" cy="69.90068361337762" r="3.654019588655501" fill="#8b5cf6" opacity="0.6"/><circle cx="203.76711461467494" cy="33.767737683228916" r="2.162235139279801" fill="#8b5cf6" opacity="0.6"/><circle cx="714.0563501564884" cy="339.3558433323051" r="4.21502339154722" fill="#8b5cf6" opacity="0.6"/>
        
        <text x="600" y="520" font-family="Segoe UI, Arial, sans-serif" font-size="38" font-weight="800" fill="#ffffff" text-anchor="middle">Designing and Implementing Adaptive Color Schemes Using C...</text>
        <text x="600" y="560" font-family="Segoe UI, Arial, sans-serif" font-size="16" font-weight="600" fill="#f97316" text-anchor="middle" style="letter-spacing: 4px; text-transform: uppercase;">UI UX Powerhouse • Intelligence in Design</text>
    </svg>