<svg width="1200" height="600" viewBox="0 0 1200 600" xmlns="http://www.w3.org/2000/svg">
        <rect width="1200" height="600" fill="#111827"/><path d="M 684.9428498091584 222.55983344139167 L 664.8593588492986 272.5598334413917 L 687.1290939415303 322.5598334413917" stroke="#10b981" fill="none" opacity="0.4"/>
                    <circle cx="684.9428498091584" cy="222.55983344139167" r="3" fill="#fbbf24"/><path d="M 827.7537005982595 28.576747280021664 L 840.6704562714367 78.57674728002166 L 814.169618269716 128.57674728002166" stroke="#10b981" fill="none" opacity="0.4"/>
                    <circle cx="827.7537005982595" cy="28.576747280021664" r="3" fill="#fbbf24"/><path d="M 1096.8464393175964 184.4883686673711 L 1144.6936725266823 234.4883686673711 L 1087.0052261849196 284.4883686673711" stroke="#10b981" fill="none" opacity="0.4"/>
                    <circle cx="1096.8464393175964" cy="184.4883686673711" r="3" fill="#fbbf24"/><path d="M 857.7236049772182 185.84978844592115 L 877.6518926651079 235.84978844592115 L 885.6148496392052 285.84978844592115" stroke="#10b981" fill="none" opacity="0.4"/>
                    <circle cx="857.7236049772182" cy="185.84978844592115" r="3" fill="#fbbf24"/><path d="M 282.02647551715927 149.2982597930677 L 293.9469926959646 199.2982597930677 L 238.15752279497246 249.2982597930677" stroke="#10b981" fill="none" opacity="0.4"/>
                    <circle cx="282.02647551715927" cy="149.2982597930677" r="3" fill="#fbbf24"/><path d="M 1187.6307692404225 72.70214635282173 L 1228.6413257366803 122.70214635282173 L 1150.6550680699206 172.70214635282173" stroke="#10b981" fill="none" opacity="0.4"/>
                    <circle cx="1187.6307692404225" cy="72.70214635282173" r="3" fill="#fbbf24"/><path d="M 1032.1763753516734 260.9258581080212 L 997.5071053723241 310.9258581080212 L 1053.7296011063972 360.9258581080212" stroke="#10b981" fill="none" opacity="0.4"/>
                    <circle cx="1032.1763753516734" cy="260.9258581080212" r="3" fill="#fbbf24"/><path d="M 342.11313061459805 346.6985770923202 L 295.7593116600947 396.6985770923202 L 355.0349528210063 446.6985770923202" stroke="#10b981" fill="none" opacity="0.4"/>
                    <circle cx="342.11313061459805" cy="346.6985770923202" r="3" fill="#fbbf24"/><path d="M 89.12441161428433 287.0517460796691 L 116.36273036729108 337.0517460796691 L 104.62173938640262 387.0517460796691" stroke="#10b981" fill="none" opacity="0.4"/>
                    <circle cx="89.12441161428433" cy="287.0517460796691" r="3" fill="#fbbf24"/><path d="M 489.70502582451445 396.3821395969717 L 501.92221331163864 446.3821395969717 L 463.73589634481505 496.3821395969717" stroke="#10b981" fill="none" opacity="0.4"/>
                    <circle cx="489.70502582451445" cy="396.3821395969717" r="3" fill="#fbbf24"/>
        <text x="600" y="520" font-family="Segoe UI, Arial, sans-serif" font-size="38" font-weight="800" fill="#ffffff" text-anchor="middle">Designing Adaptive Data Visualizations for Complex Financ...</text>
        <text x="600" y="560" font-family="Segoe UI, Arial, sans-serif" font-size="16" font-weight="600" fill="#10b981" text-anchor="middle" style="letter-spacing: 4px; text-transform: uppercase;">UI UX Powerhouse • Specialized Series</text>
    </svg>