<svg width="1200" height="600" viewBox="0 0 1200 600" xmlns="http://www.w3.org/2000/svg">
            <rect width="1200" height="600" fill="#0c4a6e"/><circle cx="521.4441010619339" cy="175.90834209895547" r="31.78181861723715" fill="#7dd3fc" opacity="0.1"/><circle cx="113.03311555166147" cy="250.92779382939625" r="26.949353612289997" fill="#7dd3fc" opacity="0.1"/><circle cx="1113.6647260253085" cy="39.52640000188694" r="46.31906039918249" fill="#7dd3fc" opacity="0.1"/><circle cx="632.6546666809008" cy="342.61345136496857" r="14.389403985533136" fill="#7dd3fc" opacity="0.1"/><circle cx="490.5834650093311" cy="158.78673795923532" r="27.655470393729047" fill="#7dd3fc" opacity="0.1"/><circle cx="229.7252554064471" cy="217.60691800045606" r="43.692572429572465" fill="#7dd3fc" opacity="0.1"/><circle cx="154.87200615134498" cy="5.595399290177738" r="28.839222056521976" fill="#7dd3fc" opacity="0.1"/><circle cx="218.6024266491586" cy="248.72486218773702" r="10.508307037089253" fill="#7dd3fc" opacity="0.1"/><circle cx="354.8867751076614" cy="9.794654944562353" r="13.338944778006407" fill="#7dd3fc" opacity="0.1"/><circle cx="339.24346425992553" cy="207.64855629458907" r="22.08702342973993" fill="#7dd3fc" opacity="0.1"/><circle cx="971.045461531503" cy="109.51113209976029" r="30.7293693038082" fill="#7dd3fc" opacity="0.1"/><circle cx="344.4868129627139" cy="0.670678530150326" r="18.442220811120933" fill="#7dd3fc" opacity="0.1"/><circle cx="2.5627958493714686" cy="75.00141232812894" r="36.085457891385886" fill="#7dd3fc" opacity="0.1"/><circle cx="1113.8409435928224" cy="55.72894152428489" r="46.61803837843763" fill="#7dd3fc" opacity="0.1"/><circle cx="1028.7376991080237" cy="134.42659950642337" r="10.674436240369687" fill="#7dd3fc" opacity="0.1"/><circle cx="493.4416447438707" cy="23.562629967273097" r="14.192657574913028" fill="#7dd3fc" opacity="0.1"/><circle cx="1111.918539074668" cy="77.71025300535257" r="46.599434978561476" fill="#7dd3fc" opacity="0.1"/><circle cx="907.2285225833184" cy="125.80017955910989" r="15.328072236370645" fill="#7dd3fc" opacity="0.1"/><circle cx="342.04407674842514" cy="114.5969831788534" r="10.139915842682967" fill="#7dd3fc" opacity="0.1"/><circle cx="613.3704035692062" cy="289.81892190458893" r="12.08547081470897" fill="#7dd3fc" opacity="0.1"/><circle cx="259.68816918890525" cy="244.64021980093094" r="14.840290862557595" fill="#7dd3fc" opacity="0.1"/><circle cx="553.808473933168" cy="157.44814999125083" r="26.65874209629692" fill="#7dd3fc" opacity="0.1"/><circle cx="709.8593997772696" cy="264.68566478542925" r="20.475171273319575" fill="#7dd3fc" opacity="0.1"/><circle cx="1197.1641847012506" cy="65.39473593729781" r="27.42563754146431" fill="#7dd3fc" opacity="0.1"/><circle cx="136.53382213233272" cy="128.07961552025517" r="31.964186174755014" fill="#7dd3fc" opacity="0.1"/><circle cx="68.46051752945641" cy="348.11417564196745" r="45.374899658236245" fill="#7dd3fc" opacity="0.1"/><circle cx="1062.4096928615472" cy="128.08879141921352" r="49.07282195476" fill="#7dd3fc" opacity="0.1"/><circle cx="1.7909877333295299" cy="208.9445442703436" r="11.940590804533713" fill="#7dd3fc" opacity="0.1"/><circle cx="41.694500481389696" cy="90.8591422587051" r="43.374305737320356" fill="#7dd3fc" opacity="0.1"/><circle cx="844.5590852563328" cy="38.8158232155547" r="42.42527644470101" fill="#7dd3fc" opacity="0.1"/>
            <text x="600" y="520" font-family="Segoe UI, Arial, sans-serif" font-size="38" font-weight="800" fill="#ffffff" text-anchor="middle">Designing Multi-Dimensional Data Visualizations for Compl...</text>
            <text x="600" y="560" font-family="Segoe UI, Arial, sans-serif" font-size="16" font-weight="600" fill="#7dd3fc" text-anchor="middle" style="letter-spacing: 4px; text-transform: uppercase;">UI UX Powerhouse • Specialized Series</text>
        </svg>