<svg width="1200" height="600" viewBox="0 0 1200 600" xmlns="http://www.w3.org/2000/svg">
            <rect width="1200" height="600" fill="#2e1065"/><circle cx="389.0937057954943" cy="98.61691343030543" r="42.387503709833254" fill="#d8b4fe" opacity="0.1"/><circle cx="119.06130711695369" cy="57.416568067492335" r="20.009449581993977" fill="#d8b4fe" opacity="0.1"/><circle cx="316.2084716354002" cy="255.9370231731009" r="44.799492719794216" fill="#d8b4fe" opacity="0.1"/><circle cx="490.136917054042" cy="295.0344206270529" r="13.145763851134689" fill="#d8b4fe" opacity="0.1"/><circle cx="1145.9788902750006" cy="65.90463381689915" r="27.576051841861045" fill="#d8b4fe" opacity="0.1"/><circle cx="629.0787166086375" cy="1.2937894272909034" r="24.724245548277395" fill="#d8b4fe" opacity="0.1"/><circle cx="130.6244595332828" cy="298.140929267538" r="41.30857190773895" fill="#d8b4fe" opacity="0.1"/><circle cx="603.3331961778458" cy="27.250970794193563" r="35.17656518523381" fill="#d8b4fe" opacity="0.1"/><circle cx="1075.8543301461032" cy="223.2034734894114" r="33.40062666029553" fill="#d8b4fe" opacity="0.1"/><circle cx="471.12349988783535" cy="45.780937498784624" r="15.582078325132898" fill="#d8b4fe" opacity="0.1"/><circle cx="474.09666633866436" cy="308.49370611940685" r="25.451341928637703" fill="#d8b4fe" opacity="0.1"/><circle cx="1166.2629144142556" cy="224.94955412475974" r="41.362215476565325" fill="#d8b4fe" opacity="0.1"/><circle cx="1168.115164579649" cy="234.2803922270832" r="17.207787271063353" fill="#d8b4fe" opacity="0.1"/><circle cx="485.4499124256108" cy="42.77546721168619" r="24.21883294453437" fill="#d8b4fe" opacity="0.1"/><circle cx="138.3421016432976" cy="364.1542827113881" r="18.35421482435777" fill="#d8b4fe" opacity="0.1"/><circle cx="408.74069942910864" cy="373.18680538228364" r="11.196960445086006" fill="#d8b4fe" opacity="0.1"/><circle cx="801.2409409449901" cy="136.39249562729674" r="28.668597212526947" fill="#d8b4fe" opacity="0.1"/><circle cx="636.1208019274727" cy="55.51798448068439" r="29.175439002174244" fill="#d8b4fe" opacity="0.1"/><circle cx="655.9334476063668" cy="310.5178019068262" r="27.689178453529166" fill="#d8b4fe" opacity="0.1"/><circle cx="459.9973839434824" cy="349.72333752157283" r="39.91915207834609" fill="#d8b4fe" opacity="0.1"/><circle cx="795.7128938876849" cy="159.657883493054" r="11.807208234458813" fill="#d8b4fe" opacity="0.1"/><circle cx="65.53330905153416" cy="32.42213427729439" r="15.73947040240455" fill="#d8b4fe" opacity="0.1"/><circle cx="956.236481131782" cy="118.26529922909685" r="25.536116216535447" fill="#d8b4fe" opacity="0.1"/><circle cx="604.5157065709645" cy="223.86513392921188" r="22.443358642321982" fill="#d8b4fe" opacity="0.1"/><circle cx="178.47329911601264" cy="376.01539578899974" r="47.32619642129066" fill="#d8b4fe" opacity="0.1"/><circle cx="914.3900234208559" cy="48.70164543202691" r="31.14447975627627" fill="#d8b4fe" opacity="0.1"/><circle cx="699.5137672471174" cy="50.00777728510002" r="16.93119176205073" fill="#d8b4fe" opacity="0.1"/><circle cx="873.835970925029" cy="380.6508101064537" r="44.796971397263405" fill="#d8b4fe" opacity="0.1"/><circle cx="1074.5842462654764" cy="65.21917137361015" r="21.922703434283903" fill="#d8b4fe" opacity="0.1"/><circle cx="504.1449346943409" cy="363.29047390900087" r="34.89149920500495" fill="#d8b4fe" opacity="0.1"/>
            <text x="600" y="520" font-family="Segoe UI, Arial, sans-serif" font-size="38" font-weight="800" fill="#ffffff" text-anchor="middle">Designing for Data Overload: Implementing Progressive Dis...</text>
            <text x="600" y="560" font-family="Segoe UI, Arial, sans-serif" font-size="16" font-weight="600" fill="#d8b4fe" text-anchor="middle" style="letter-spacing: 4px; text-transform: uppercase;">UI UX Powerhouse • Specialized Series</text>
        </svg>