<svg width="1200" height="600" viewBox="0 0 1200 600" xmlns="http://www.w3.org/2000/svg">
        <rect width="1200" height="600" fill="#1e1b4b"/><circle cx="333.6256245162076" cy="204.17156612274994" r="17.405810339441814" fill="#f43f5e" opacity="0.1"/><circle cx="188.716513482359" cy="62.139375876449776" r="35.36586173373507" fill="#f43f5e" opacity="0.1"/><circle cx="747.0217145331844" cy="6.408823173114797" r="13.664126096391556" fill="#f43f5e" opacity="0.1"/><circle cx="249.80568593673524" cy="264.634336513609" r="26.985172160348156" fill="#f43f5e" opacity="0.1"/><circle cx="630.7326388130605" cy="304.6572522187489" r="48.972449394714204" fill="#f43f5e" opacity="0.1"/><circle cx="1085.9332399406412" cy="113.59348556743498" r="25.991562125564087" fill="#f43f5e" opacity="0.1"/><circle cx="1106.5981036195808" cy="213.01190257654525" r="29.82377923466629" fill="#f43f5e" opacity="0.1"/><circle cx="324.63486981032474" cy="84.9139144331275" r="21.569119307496294" fill="#f43f5e" opacity="0.1"/><circle cx="374.4674703171768" cy="384.2932410254434" r="49.90898526109959" fill="#f43f5e" opacity="0.1"/><circle cx="957.0586470006674" cy="175.08611904668214" r="40.46314699706272" fill="#f43f5e" opacity="0.1"/><circle cx="385.9653464620351" cy="255.2325962966279" r="10.7016363574985" fill="#f43f5e" opacity="0.1"/><circle cx="381.6474069521064" cy="328.27019901101266" r="29.76010603386385" fill="#f43f5e" opacity="0.1"/><circle cx="882.2109462751541" cy="349.11599110419047" r="46.450521822935116" fill="#f43f5e" opacity="0.1"/><circle cx="1047.2852594568394" cy="369.7654102528759" r="19.827595554033906" fill="#f43f5e" opacity="0.1"/><circle cx="519.030325460335" cy="287.042399271013" r="18.15191441020943" fill="#f43f5e" opacity="0.1"/><circle cx="623.3517980828765" cy="32.44284929096466" r="34.446310837920464" fill="#f43f5e" opacity="0.1"/><circle cx="852.422781831774" cy="311.3868333330174" r="42.95548334335763" fill="#f43f5e" opacity="0.1"/><circle cx="129.86495946825016" cy="100.66564665248734" r="43.7061227735137" fill="#f43f5e" opacity="0.1"/><circle cx="726.6111402954266" cy="243.65625445207115" r="31.504375065633212" fill="#f43f5e" opacity="0.1"/><circle cx="858.8046220327669" cy="186.6388183163508" r="32.93994682870107" fill="#f43f5e" opacity="0.1"/><circle cx="640.0520144779875" cy="45.31478927601711" r="36.28686020033456" fill="#f43f5e" opacity="0.1"/><circle cx="231.12334329052828" cy="265.27781600452727" r="29.73775661441323" fill="#f43f5e" opacity="0.1"/><circle cx="548.3513557061087" cy="152.58476145281747" r="43.100754997240074" fill="#f43f5e" opacity="0.1"/><circle cx="568.2258729029854" cy="153.02114713958872" r="16.197707739047473" fill="#f43f5e" opacity="0.1"/><circle cx="248.46040522897965" cy="314.44068979035364" r="20.39547088003019" fill="#f43f5e" opacity="0.1"/><circle cx="1013.7429312190761" cy="366.8556994811297" r="35.86385532049462" fill="#f43f5e" opacity="0.1"/><circle cx="305.79799687475315" cy="210.33235390859772" r="29.24874111678946" fill="#f43f5e" opacity="0.1"/><circle cx="955.2024304335646" cy="202.16199817004963" r="46.54421406368783" fill="#f43f5e" opacity="0.1"/><circle cx="1002.2701573394443" cy="79.34761713840999" r="13.070279610728903" fill="#f43f5e" opacity="0.1"/><circle cx="816.3093435021437" cy="242.2047370200744" r="41.09536267427757" fill="#f43f5e" opacity="0.1"/>
        <text x="600" y="520" font-family="Segoe UI, Arial, sans-serif" font-size="38" font-weight="800" fill="#ffffff" text-anchor="middle">Designing Accessible Keyboard Navigation for Complex Data...</text>
        <text x="600" y="560" font-family="Segoe UI, Arial, sans-serif" font-size="16" font-weight="600" fill="#f43f5e" text-anchor="middle" style="letter-spacing: 4px; text-transform: uppercase;">UI UX Powerhouse • Specialized Series</text>
    </svg>