<svg width="1200" height="600" viewBox="0 0 1200 600" xmlns="http://www.w3.org/2000/svg">
            <rect width="1200" height="600" fill="#0c4a6e"/><path d="M 730.8302624318458 11.04108522667957 L 707.4576228374099 61.04108522667957 L 730.5047687801789 111.04108522667957" stroke="#7dd3fc" fill="none" opacity="0.4"/>
                    <circle cx="730.8302624318458" cy="11.04108522667957" r="3" fill="#f43f5e"/><path d="M 682.627639347993 128.57842849953158 L 719.2182124195824 178.57842849953158 L 729.6131712833812 228.57842849953158" stroke="#7dd3fc" fill="none" opacity="0.4"/>
                    <circle cx="682.627639347993" cy="128.57842849953158" r="3" fill="#f43f5e"/><path d="M 727.2082573857915 184.91662854794413 L 706.2628431358462 234.91662854794413 L 728.4372138657318 284.91662854794413" stroke="#7dd3fc" fill="none" opacity="0.4"/>
                    <circle cx="727.2082573857915" cy="184.91662854794413" r="3" fill="#f43f5e"/><path d="M 1171.2535968210432 248.96205288823694 L 1148.8955068008106 298.96205288823694 L 1134.8077317041316 348.96205288823694" stroke="#7dd3fc" fill="none" opacity="0.4"/>
                    <circle cx="1171.2535968210432" cy="248.96205288823694" r="3" fill="#f43f5e"/><path d="M 457.40104154028813 301.27406358515145 L 458.4377607005081 351.27406358515145 L 426.1188138169018 401.27406358515145" stroke="#7dd3fc" fill="none" opacity="0.4"/>
                    <circle cx="457.40104154028813" cy="301.27406358515145" r="3" fill="#f43f5e"/><path d="M 502.9268612175656 77.05573007096973 L 499.1413600026135 127.05573007096973 L 533.0871662820755 177.05573007096973" stroke="#7dd3fc" fill="none" opacity="0.4"/>
                    <circle cx="502.9268612175656" cy="77.05573007096973" r="3" fill="#f43f5e"/><path d="M 1143.8926964423445 279.97709379542357 L 1114.137474301242 329.97709379542357 L 1117.6327765926544 379.97709379542357" stroke="#7dd3fc" fill="none" opacity="0.4"/>
                    <circle cx="1143.8926964423445" cy="279.97709379542357" r="3" fill="#f43f5e"/><path d="M 1180.1306632001797 6.176306476118043 L 1201.7665063443928 56.17630647611804 L 1191.33483904248 106.17630647611804" stroke="#7dd3fc" fill="none" opacity="0.4"/>
                    <circle cx="1180.1306632001797" cy="6.176306476118043" r="3" fill="#f43f5e"/><path d="M 673.1329508085764 77.26893950966769 L 623.7464242529313 127.26893950966769 L 639.9322532429323 177.2689395096677" stroke="#7dd3fc" fill="none" opacity="0.4"/>
                    <circle cx="673.1329508085764" cy="77.26893950966769" r="3" fill="#f43f5e"/><path d="M 177.4060004441708 369.20129729837754 L 226.2781646768417 419.20129729837754 L 188.06949423214974 469.20129729837754" stroke="#7dd3fc" fill="none" opacity="0.4"/>
                    <circle cx="177.4060004441708" cy="369.20129729837754" r="3" fill="#f43f5e"/>
            <text x="600" y="520" font-family="Segoe UI, Arial, sans-serif" font-size="38" font-weight="800" fill="#ffffff" text-anchor="middle">Designing Data-Driven Experiences: Implementing Real-time...</text>
            <text x="600" y="560" font-family="Segoe UI, Arial, sans-serif" font-size="16" font-weight="600" fill="#7dd3fc" text-anchor="middle" style="letter-spacing: 4px; text-transform: uppercase;">UI UX Powerhouse • Specialized Series</text>
        </svg>