<svg width="1200" height="600" viewBox="0 0 1200 600" xmlns="http://www.w3.org/2000/svg">
        
            <rect width="1200" height="600" fill="#f8fafc"/>
            <rect x="100" y="100" width="1000" height="350" rx="10" fill="#ffffff" stroke="#e2e8f0"/>
            <rect x="150" y="158.85639927746524" width="40" height="241.14360072253476" fill="#38bdf8" rx="4"/><rect x="206.66666666666666" y="251.88611334451707" width="40" height="148.11388665548293" fill="#38bdf8" rx="4"/><rect x="263.3333333333333" y="290.06182646699017" width="40" height="109.93817353300983" fill="#38bdf8" rx="4"/><rect x="320" y="291.0260241616925" width="40" height="108.97397583830752" fill="#38bdf8" rx="4"/><rect x="376.66666666666663" y="158.36463822161022" width="40" height="241.63536177838978" fill="#38bdf8" rx="4"/><rect x="433.3333333333333" y="286.9886663123907" width="40" height="113.0113336876093" fill="#38bdf8" rx="4"/><rect x="490" y="266.5682274309006" width="40" height="133.4317725690994" fill="#38bdf8" rx="4"/><rect x="546.6666666666666" y="264.4253270878835" width="40" height="135.5746729121165" fill="#38bdf8" rx="4"/><rect x="603.3333333333333" y="187.17206311193877" width="40" height="212.82793688806123" fill="#38bdf8" rx="4"/><rect x="660" y="307.257845579079" width="40" height="92.742154420921" fill="#38bdf8" rx="4"/><rect x="716.6666666666666" y="329.14166030750494" width="40" height="70.85833969249506" fill="#38bdf8" rx="4"/><rect x="773.3333333333333" y="153.96461689701937" width="40" height="246.03538310298063" fill="#38bdf8" rx="4"/><rect x="830" y="273.19963735426427" width="40" height="126.80036264573573" fill="#38bdf8" rx="4"/><rect x="886.6666666666666" y="329.2784971263245" width="40" height="70.72150287367549" fill="#38bdf8" rx="4"/><rect x="943.3333333333333" y="277.02147966738266" width="40" height="122.97852033261734" fill="#38bdf8" rx="4"/>
        
        <text x="600" y="520" font-family="Segoe UI, Arial" font-size="38" font-weight="800" fill="#f8fafc" text-anchor="middle">Designing Adaptive Data Visualization Interfaces for Real...</text>
    </svg>