<svg width="1200" height="600" viewBox="0 0 1200 600" xmlns="http://www.w3.org/2000/svg">
        <rect width="1200" height="600" fill="#171717"/><path d="M 1091.2549049317022 138.2501023588702 L 1051.5092824134626 188.2501023588702 L 1080.3187021885606 238.2501023588702" stroke="#f59e0b" fill="none" opacity="0.4"/>
                    <circle cx="1091.2549049317022" cy="138.2501023588702" r="3" fill="#ec4899"/><path d="M 309.80756878634566 291.6138214626699 L 295.46331313576957 341.6138214626699 L 340.103898966845 391.6138214626699" stroke="#f59e0b" fill="none" opacity="0.4"/>
                    <circle cx="309.80756878634566" cy="291.6138214626699" r="3" fill="#ec4899"/><path d="M 807.7234612610482 316.0793536982965 L 796.4006386198889 366.0793536982965 L 780.3783494944582 416.0793536982965" stroke="#f59e0b" fill="none" opacity="0.4"/>
                    <circle cx="807.7234612610482" cy="316.0793536982965" r="3" fill="#ec4899"/><path d="M 869.2074367478199 327.96470471221255 L 892.8966530373145 377.96470471221255 L 893.9986028207386 427.96470471221255" stroke="#f59e0b" fill="none" opacity="0.4"/>
                    <circle cx="869.2074367478199" cy="327.96470471221255" r="3" fill="#ec4899"/><path d="M 657.1919828653336 382.9342772893142 L 674.4539091330807 432.9342772893142 L 614.0408943580042 482.9342772893142" stroke="#f59e0b" fill="none" opacity="0.4"/>
                    <circle cx="657.1919828653336" cy="382.9342772893142" r="3" fill="#ec4899"/><path d="M 534.248834670143 31.533023131487425 L 582.2367799119093 81.53302313148743 L 516.7301387654334 131.53302313148743" stroke="#f59e0b" fill="none" opacity="0.4"/>
                    <circle cx="534.248834670143" cy="31.533023131487425" r="3" fill="#ec4899"/><path d="M 563.1425330171624 186.4279010318569 L 571.5464575937858 236.4279010318569 L 570.5829521707528 286.4279010318569" stroke="#f59e0b" fill="none" opacity="0.4"/>
                    <circle cx="563.1425330171624" cy="186.4279010318569" r="3" fill="#ec4899"/><path d="M 362.1200165594928 147.0057210586674 L 400.3713064533713 197.0057210586674 L 405.42740446599055 247.0057210586674" stroke="#f59e0b" fill="none" opacity="0.4"/>
                    <circle cx="362.1200165594928" cy="147.0057210586674" r="3" fill="#ec4899"/><path d="M 245.3601178851386 168.4686835096727 L 244.3049098445954 218.4686835096727 L 261.3737930343632 268.4686835096727" stroke="#f59e0b" fill="none" opacity="0.4"/>
                    <circle cx="245.3601178851386" cy="168.4686835096727" r="3" fill="#ec4899"/><path d="M 1030.8508492198598 197.8931209683651 L 1058.1762586617515 247.8931209683651 L 1001.3872613170861 297.8931209683651" stroke="#f59e0b" fill="none" opacity="0.4"/>
                    <circle cx="1030.8508492198598" cy="197.8931209683651" r="3" fill="#ec4899"/>
        <text x="600" y="520" font-family="Segoe UI, Arial, sans-serif" font-size="38" font-weight="800" fill="#ffffff" text-anchor="middle">Designing Complex Data Table Interfaces for Enhanced Usab...</text>
        <text x="600" y="560" font-family="Segoe UI, Arial, sans-serif" font-size="16" font-weight="600" fill="#f59e0b" text-anchor="middle" style="letter-spacing: 4px; text-transform: uppercase;">UI UX Powerhouse • Specialized Series</text>
    </svg>