<svg width="1200" height="600" viewBox="0 0 1200 600" xmlns="http://www.w3.org/2000/svg">
            <rect width="1200" height="600" fill="#171717"/><path d="M 177.9233945904707 325.51888382420344 L 224.35467362702184 375.51888382420344 L 130.2981007865128 425.51888382420344" stroke="#f59e0b" fill="none" opacity="0.4"/>
                    <circle cx="177.9233945904707" cy="325.51888382420344" r="3" fill="#ec4899"/><path d="M 809.0851375542115 70.4506079764542 L 806.5685078804563 120.4506079764542 L 814.1358708306598 170.4506079764542" stroke="#f59e0b" fill="none" opacity="0.4"/>
                    <circle cx="809.0851375542115" cy="70.4506079764542" r="3" fill="#ec4899"/><path d="M 139.5372569951178 348.07253254111856 L 140.76800503808045 398.07253254111856 L 163.4750040736435 448.07253254111856" stroke="#f59e0b" fill="none" opacity="0.4"/>
                    <circle cx="139.5372569951178" cy="348.07253254111856" r="3" fill="#ec4899"/><path d="M 570.1153689697094 225.45420436372297 L 612.3211540632838 275.45420436372297 L 589.9982351164908 325.45420436372297" stroke="#f59e0b" fill="none" opacity="0.4"/>
                    <circle cx="570.1153689697094" cy="225.45420436372297" r="3" fill="#ec4899"/><path d="M 903.4260374999576 305.23987180968106 L 928.560070682579 355.23987180968106 L 871.9791882505888 405.23987180968106" stroke="#f59e0b" fill="none" opacity="0.4"/>
                    <circle cx="903.4260374999576" cy="305.23987180968106" r="3" fill="#ec4899"/><path d="M 996.0345222629257 22.324282737463363 L 977.643445902504 72.32428273746336 L 1017.5780763305283 122.32428273746336" stroke="#f59e0b" fill="none" opacity="0.4"/>
                    <circle cx="996.0345222629257" cy="22.324282737463363" r="3" fill="#ec4899"/><path d="M 1178.774681460709 202.11464266685653 L 1226.4275315307714 252.11464266685653 L 1166.0321748247952 302.1146426668565" stroke="#f59e0b" fill="none" opacity="0.4"/>
                    <circle cx="1178.774681460709" cy="202.11464266685653" r="3" fill="#ec4899"/><path d="M 1199.8015958717588 263.66890425997553 L 1159.8770796455938 313.66890425997553 L 1170.3771899953153 363.66890425997553" stroke="#f59e0b" fill="none" opacity="0.4"/>
                    <circle cx="1199.8015958717588" cy="263.66890425997553" r="3" fill="#ec4899"/><path d="M 299.26462191601786 79.5146793283493 L 259.30629699273595 129.5146793283493 L 276.62003803184234 179.5146793283493" stroke="#f59e0b" fill="none" opacity="0.4"/>
                    <circle cx="299.26462191601786" cy="79.5146793283493" r="3" fill="#ec4899"/><path d="M 900.0506827644131 300.1337691990557 L 927.9323578605727 350.1337691990557 L 902.5820627329267 400.1337691990557" stroke="#f59e0b" fill="none" opacity="0.4"/>
                    <circle cx="900.0506827644131" cy="300.1337691990557" r="3" fill="#ec4899"/>
            <text x="600" y="520" font-family="Segoe UI, Arial, sans-serif" font-size="38" font-weight="800" fill="#ffffff" text-anchor="middle">Designing Multi-Dimensional Dashboards: Best Practices fo...</text>
            <text x="600" y="560" font-family="Segoe UI, Arial, sans-serif" font-size="16" font-weight="600" fill="#f59e0b" text-anchor="middle" style="letter-spacing: 4px; text-transform: uppercase;">UI UX Powerhouse • Specialized Series</text>
        </svg>