<svg width="1200" height="600" viewBox="0 0 1200 600" xmlns="http://www.w3.org/2000/svg">
        <rect width="1200" height="600" fill="#0c4a6e"/><path d="M 530.3909690133878 349.9952869293338 L 503.8450762026514 399.9952869293338 L 534.6802250041947 449.9952869293338" stroke="#7dd3fc" fill="none" opacity="0.4"/>
                    <circle cx="530.3909690133878" cy="349.9952869293338" r="3" fill="#f43f5e"/><path d="M 700.0516635569511 156.2670273189724 L 695.477325439424 206.2670273189724 L 687.7753536931777 256.2670273189724" stroke="#7dd3fc" fill="none" opacity="0.4"/>
                    <circle cx="700.0516635569511" cy="156.2670273189724" r="3" fill="#f43f5e"/><path d="M 327.80980459501734 346.88705829830724 L 346.5663936733108 396.88705829830724 L 359.610438942218 446.88705829830724" stroke="#7dd3fc" fill="none" opacity="0.4"/>
                    <circle cx="327.80980459501734" cy="346.88705829830724" r="3" fill="#f43f5e"/><path d="M 194.90613748857868 358.4135710098053 L 181.78075352539054 408.4135710098053 L 168.86226049102788 458.4135710098053" stroke="#7dd3fc" fill="none" opacity="0.4"/>
                    <circle cx="194.90613748857868" cy="358.4135710098053" r="3" fill="#f43f5e"/><path d="M 141.1001852748086 92.52928874830104 L 174.9921255497611 142.52928874830104 L 139.1162763513421 192.52928874830104" stroke="#7dd3fc" fill="none" opacity="0.4"/>
                    <circle cx="141.1001852748086" cy="92.52928874830104" r="3" fill="#f43f5e"/><path d="M 225.06712087924825 155.70691938046366 L 179.65336201264108 205.70691938046366 L 221.88018896163157 255.70691938046366" stroke="#7dd3fc" fill="none" opacity="0.4"/>
                    <circle cx="225.06712087924825" cy="155.70691938046366" r="3" fill="#f43f5e"/><path d="M 132.7323923300355 155.06536976536154 L 179.57366302298396 205.06536976536154 L 121.41299605482345 255.06536976536154" stroke="#7dd3fc" fill="none" opacity="0.4"/>
                    <circle cx="132.7323923300355" cy="155.06536976536154" r="3" fill="#f43f5e"/><path d="M 272.05654886311095 214.9028972697124 L 242.8372016569483 264.9028972697124 L 298.7740962931639 314.9028972697124" stroke="#7dd3fc" fill="none" opacity="0.4"/>
                    <circle cx="272.05654886311095" cy="214.9028972697124" r="3" fill="#f43f5e"/><path d="M 29.765787578799063 167.98689574497985 L 42.43352515222796 217.98689574497985 L 40.67659737679605 267.98689574497985" stroke="#7dd3fc" fill="none" opacity="0.4"/>
                    <circle cx="29.765787578799063" cy="167.98689574497985" r="3" fill="#f43f5e"/><path d="M 807.9310204932881 373.185309332257 L 816.4476128580645 423.185309332257 L 833.4108932106574 473.185309332257" stroke="#7dd3fc" fill="none" opacity="0.4"/>
                    <circle cx="807.9310204932881" cy="373.185309332257" r="3" fill="#f43f5e"/>
        <text x="600" y="520" font-family="Segoe UI, Arial, sans-serif" font-size="38" font-weight="800" fill="#ffffff" text-anchor="middle">Designing Adaptive Navigation Patterns for Multi-Device U...</text>
        <text x="600" y="560" font-family="Segoe UI, Arial, sans-serif" font-size="16" font-weight="600" fill="#7dd3fc" text-anchor="middle" style="letter-spacing: 4px; text-transform: uppercase;">UI UX Powerhouse • Specialized Series</text>
    </svg>