<svg width="1200" height="600" viewBox="0 0 1200 600" xmlns="http://www.w3.org/2000/svg">
        <rect width="1200" height="600" fill="#111827"/><circle cx="1074.462212178696" cy="60.733476569294" r="34.45867217134946" fill="#10b981" opacity="0.1"/><circle cx="1143.1373220477326" cy="360.76338112616213" r="16.62592145614326" fill="#10b981" opacity="0.1"/><circle cx="565.5506727765896" cy="266.1871123014862" r="48.042681629085564" fill="#10b981" opacity="0.1"/><circle cx="516.3205780823773" cy="4.281314040053985" r="33.2259213708312" fill="#10b981" opacity="0.1"/><circle cx="911.7779776541283" cy="344.5280506508425" r="11.84241746288535" fill="#10b981" opacity="0.1"/><circle cx="582.597129727219" cy="166.1957580348826" r="45.3929133645579" fill="#10b981" opacity="0.1"/><circle cx="157.12080511402746" cy="154.90771063159627" r="18.118069976226252" fill="#10b981" opacity="0.1"/><circle cx="208.23356580585823" cy="244.2909900462837" r="47.51143253975897" fill="#10b981" opacity="0.1"/><circle cx="296.7946299671894" cy="108.8840701522713" r="10.52462086729065" fill="#10b981" opacity="0.1"/><circle cx="235.70031495546573" cy="237.71748790386482" r="21.729617960390897" fill="#10b981" opacity="0.1"/><circle cx="295.1904379784537" cy="339.20171591671533" r="20.83868581445131" fill="#10b981" opacity="0.1"/><circle cx="1064.266413506266" cy="94.3704781594306" r="24.16205754270777" fill="#10b981" opacity="0.1"/><circle cx="210.8906426030444" cy="110.22607201666688" r="19.148263668976142" fill="#10b981" opacity="0.1"/><circle cx="818.0320215207757" cy="101.87913368081354" r="30.103454066920676" fill="#10b981" opacity="0.1"/><circle cx="251.32051313739794" cy="339.7983863578702" r="26.71433680166956" fill="#10b981" opacity="0.1"/><circle cx="820.1226084616792" cy="53.732271333865356" r="11.19971312720736" fill="#10b981" opacity="0.1"/><circle cx="5.663988884043647" cy="380.4801308637252" r="43.15077426363132" fill="#10b981" opacity="0.1"/><circle cx="49.41378965304466" cy="296.8940541933989" r="20.671165467256287" fill="#10b981" opacity="0.1"/><circle cx="895.7846339973912" cy="310.9615026591655" r="38.66819742434018" fill="#10b981" opacity="0.1"/><circle cx="622.4002618342638" cy="297.78480222521466" r="22.170014702314802" fill="#10b981" opacity="0.1"/><circle cx="13.451228052508668" cy="217.30701968954236" r="14.782178777750232" fill="#10b981" opacity="0.1"/><circle cx="1152.2300643236122" cy="179.49346088862512" r="30.828473140245478" fill="#10b981" opacity="0.1"/><circle cx="178.361608448904" cy="119.6229716304515" r="25.223897064165612" fill="#10b981" opacity="0.1"/><circle cx="693.4296512503352" cy="269.3104122648947" r="18.984142373428767" fill="#10b981" opacity="0.1"/><circle cx="943.4798504014907" cy="64.62575131590711" r="48.53251004838967" fill="#10b981" opacity="0.1"/><circle cx="407.6082469546236" cy="365.26028902299004" r="48.662792781033204" fill="#10b981" opacity="0.1"/><circle cx="904.8122971184057" cy="242.1697778334419" r="47.94261738188652" fill="#10b981" opacity="0.1"/><circle cx="782.8033872188826" cy="244.8512300641596" r="15.915071517847537" fill="#10b981" opacity="0.1"/><circle cx="356.12328741917736" cy="197.53179849572007" r="37.708876337492256" fill="#10b981" opacity="0.1"/><circle cx="1077.1315378100553" cy="210.90416274164454" r="35.510569842736004" fill="#10b981" opacity="0.1"/>
        <text x="600" y="520" font-family="Segoe UI, Arial, sans-serif" font-size="38" font-weight="800" fill="#ffffff" text-anchor="middle">Designing Adaptive User Interfaces for Smart Wearables: B...</text>
        <text x="600" y="560" font-family="Segoe UI, Arial, sans-serif" font-size="16" font-weight="600" fill="#10b981" text-anchor="middle" style="letter-spacing: 4px; text-transform: uppercase;">UI UX Powerhouse • Specialized Series</text>
    </svg>