<svg width="1200" height="600" viewBox="0 0 1200 600" xmlns="http://www.w3.org/2000/svg">
            <rect width="1200" height="600" fill="#0c4a6e"/><circle cx="883.5521654771583" cy="160.21184227211052" r="33.47244638200209" fill="#7dd3fc" opacity="0.1"/><circle cx="800.8549842845241" cy="121.30448138705106" r="34.5156659179338" fill="#7dd3fc" opacity="0.1"/><circle cx="332.28781708166935" cy="294.5597342972178" r="38.771993448790454" fill="#7dd3fc" opacity="0.1"/><circle cx="53.14786548333359" cy="384.88253366886056" r="33.71337621760176" fill="#7dd3fc" opacity="0.1"/><circle cx="101.09737878119631" cy="112.59061282744369" r="33.18788761469477" fill="#7dd3fc" opacity="0.1"/><circle cx="162.64070218385314" cy="47.03579598553915" r="37.92990520654712" fill="#7dd3fc" opacity="0.1"/><circle cx="437.40764834983565" cy="322.2776520487969" r="43.918205556801695" fill="#7dd3fc" opacity="0.1"/><circle cx="830.292951359661" cy="392.33630102244206" r="11.44536221974704" fill="#7dd3fc" opacity="0.1"/><circle cx="412.84172602208855" cy="93.20250019518426" r="46.04800348413846" fill="#7dd3fc" opacity="0.1"/><circle cx="547.8537268623768" cy="106.17945467529353" r="21.111637535359478" fill="#7dd3fc" opacity="0.1"/><circle cx="564.2790108286135" cy="190.03344769516843" r="12.54226546117934" fill="#7dd3fc" opacity="0.1"/><circle cx="1152.5579277171346" cy="213.08339654424344" r="45.531352528014395" fill="#7dd3fc" opacity="0.1"/><circle cx="1170.2764971276338" cy="350.39695882551314" r="46.259687355523056" fill="#7dd3fc" opacity="0.1"/><circle cx="100.40887844443205" cy="234.27899758025887" r="16.18319353343395" fill="#7dd3fc" opacity="0.1"/><circle cx="1133.117898182354" cy="303.61007024670243" r="40.52145866622595" fill="#7dd3fc" opacity="0.1"/><circle cx="819.9335294026241" cy="359.6402279163158" r="17.211447586887516" fill="#7dd3fc" opacity="0.1"/><circle cx="968.3496584300883" cy="49.34617586359309" r="20.63910718447005" fill="#7dd3fc" opacity="0.1"/><circle cx="1065.6638029794522" cy="123.50428679637844" r="46.26349557314825" fill="#7dd3fc" opacity="0.1"/><circle cx="305.3045948556246" cy="121.19542072468903" r="23.919408670226403" fill="#7dd3fc" opacity="0.1"/><circle cx="463.9421216419578" cy="27.868883977862424" r="46.772276213851" fill="#7dd3fc" opacity="0.1"/><circle cx="16.9018057797075" cy="284.3691950394714" r="44.53807386158587" fill="#7dd3fc" opacity="0.1"/><circle cx="128.16735432879796" cy="39.19898382300744" r="10.335482140362728" fill="#7dd3fc" opacity="0.1"/><circle cx="310.2710488932644" cy="359.69640478506335" r="47.27134162233597" fill="#7dd3fc" opacity="0.1"/><circle cx="504.41422011608665" cy="229.21514046465745" r="48.056729832387646" fill="#7dd3fc" opacity="0.1"/><circle cx="792.0606261744979" cy="390.39199625403853" r="41.158937680920644" fill="#7dd3fc" opacity="0.1"/><circle cx="880.4127343704749" cy="55.609666869349894" r="39.00383380088897" fill="#7dd3fc" opacity="0.1"/><circle cx="101.21167521938332" cy="359.2673459388607" r="20.038784665021012" fill="#7dd3fc" opacity="0.1"/><circle cx="1192.2948362102034" cy="140.79931713204132" r="32.981796828439656" fill="#7dd3fc" opacity="0.1"/><circle cx="914.8656676239625" cy="381.6811310876801" r="33.58102482736285" fill="#7dd3fc" opacity="0.1"/><circle cx="432.3663765528181" cy="64.62898320860404" r="25.76433803726104" fill="#7dd3fc" opacity="0.1"/>
            <text x="600" y="520" font-family="Segoe UI, Arial, sans-serif" font-size="38" font-weight="800" fill="#ffffff" text-anchor="middle">Designing for High-Dimensional Data: UX Strategies for In...</text>
            <text x="600" y="560" font-family="Segoe UI, Arial, sans-serif" font-size="16" font-weight="600" fill="#7dd3fc" text-anchor="middle" style="letter-spacing: 4px; text-transform: uppercase;">UI UX Powerhouse • Specialized Series</text>
        </svg>