<svg width="1200" height="600" viewBox="0 0 1200 600" xmlns="http://www.w3.org/2000/svg">
            <rect width="1200" height="600" fill="#111827"/><path d="M 211.38815613012412 83.26876584578713 L 255.89509107912818 133.26876584578713 L 236.2106736356509 183.26876584578713" stroke="#10b981" fill="none" opacity="0.4"/>
                    <circle cx="211.38815613012412" cy="83.26876584578713" r="3" fill="#fbbf24"/><path d="M 666.6816408767772 187.31004088731424 L 695.6536143747854 237.31004088731424 L 678.8059676771809 287.31004088731424" stroke="#10b981" fill="none" opacity="0.4"/>
                    <circle cx="666.6816408767772" cy="187.31004088731424" r="3" fill="#fbbf24"/><path d="M 758.2682284575753 106.71954568097135 L 711.9230226129844 156.71954568097135 L 736.8606622340963 206.71954568097135" stroke="#10b981" fill="none" opacity="0.4"/>
                    <circle cx="758.2682284575753" cy="106.71954568097135" r="3" fill="#fbbf24"/><path d="M 781.2634015885124 75.7330637628911 L 801.4088363956034 125.7330637628911 L 742.8985411589565 175.7330637628911" stroke="#10b981" fill="none" opacity="0.4"/>
                    <circle cx="781.2634015885124" cy="75.7330637628911" r="3" fill="#fbbf24"/><path d="M 505.1535654381951 33.321262186655076 L 530.7239632501478 83.32126218665508 L 478.36798093321704 133.32126218665508" stroke="#10b981" fill="none" opacity="0.4"/>
                    <circle cx="505.1535654381951" cy="33.321262186655076" r="3" fill="#fbbf24"/><path d="M 453.36948122821923 69.02325638293405 L 455.9086769953865 119.02325638293405 L 409.57228742463485 169.02325638293405" stroke="#10b981" fill="none" opacity="0.4"/>
                    <circle cx="453.36948122821923" cy="69.02325638293405" r="3" fill="#fbbf24"/><path d="M 970.833230757944 115.02648764180776 L 946.2315766772008 165.02648764180776 L 995.8753313213037 215.02648764180776" stroke="#10b981" fill="none" opacity="0.4"/>
                    <circle cx="970.833230757944" cy="115.02648764180776" r="3" fill="#fbbf24"/><path d="M 1011.9871409566258 254.33044005621923 L 1029.5245406424328 304.33044005621923 L 1015.5804317286311 354.33044005621923" stroke="#10b981" fill="none" opacity="0.4"/>
                    <circle cx="1011.9871409566258" cy="254.33044005621923" r="3" fill="#fbbf24"/><path d="M 997.6111580748693 46.1044203635538 L 1045.602814587437 96.1044203635538 L 1001.9765274775636 146.1044203635538" stroke="#10b981" fill="none" opacity="0.4"/>
                    <circle cx="997.6111580748693" cy="46.1044203635538" r="3" fill="#fbbf24"/><path d="M 158.5819681880821 206.8118185401545 L 129.63185371063446 256.8118185401545 L 152.76858001598157 306.8118185401545" stroke="#10b981" fill="none" opacity="0.4"/>
                    <circle cx="158.5819681880821" cy="206.8118185401545" r="3" fill="#fbbf24"/>
            <text x="600" y="520" font-family="Segoe UI, Arial, sans-serif" font-size="38" font-weight="800" fill="#ffffff" text-anchor="middle">Designing Adaptive Navigation Menus for Progressive Web A...</text>
            <text x="600" y="560" font-family="Segoe UI, Arial, sans-serif" font-size="16" font-weight="600" fill="#10b981" text-anchor="middle" style="letter-spacing: 4px; text-transform: uppercase;">UI UX Powerhouse • Specialized Series</text>
        </svg>