<svg width="1200" height="600" viewBox="0 0 1200 600" xmlns="http://www.w3.org/2000/svg">
        
            <rect width="1200" height="600" fill="#f8fafc"/>
            <rect x="100" y="100" width="1000" height="350" rx="10" fill="#ffffff" stroke="#e2e8f0"/>
            <rect x="150" y="212.82926430085354" width="35.294117647058826" height="187.17073569914646" fill="#38bdf8" rx="4"/><rect x="200" y="165.21834785726242" width="35.294117647058826" height="234.78165214273758" fill="#38bdf8" rx="4"/><rect x="250" y="230.81691383486032" width="35.294117647058826" height="169.18308616513968" fill="#38bdf8" rx="4"/><rect x="300" y="268.7726383435802" width="35.294117647058826" height="131.22736165641982" fill="#38bdf8" rx="4"/><rect x="350" y="167.02326770682703" width="35.294117647058826" height="232.97673229317297" fill="#38bdf8" rx="4"/><rect x="400" y="177.07450322541263" width="35.294117647058826" height="222.92549677458737" fill="#38bdf8" rx="4"/><rect x="450" y="163.55462823353264" width="35.294117647058826" height="236.44537176646736" fill="#38bdf8" rx="4"/><rect x="500" y="191.9318440981442" width="35.294117647058826" height="208.0681559018558" fill="#38bdf8" rx="4"/><rect x="550" y="292.6019331180214" width="35.294117647058826" height="107.3980668819786" fill="#38bdf8" rx="4"/><rect x="600" y="195.24388323534367" width="35.294117647058826" height="204.75611676465633" fill="#38bdf8" rx="4"/><rect x="650" y="316.3053455595218" width="35.294117647058826" height="83.69465444047819" fill="#38bdf8" rx="4"/><rect x="700" y="340.5165781814503" width="35.294117647058826" height="59.48342181854969" fill="#38bdf8" rx="4"/><rect x="750" y="254.9580154776777" width="35.294117647058826" height="145.0419845223223" fill="#38bdf8" rx="4"/><rect x="800" y="342.2870767994027" width="35.294117647058826" height="57.71292320059729" fill="#38bdf8" rx="4"/><rect x="850" y="335.43962219919194" width="35.294117647058826" height="64.56037780080806" fill="#38bdf8" rx="4"/><rect x="900" y="174.61488248954993" width="35.294117647058826" height="225.38511751045007" fill="#38bdf8" rx="4"/><rect x="950" y="209.06867551639152" width="35.294117647058826" height="190.93132448360848" fill="#38bdf8" rx="4"/>
        
        <text x="600" y="520" font-family="Segoe UI, Arial" font-size="38" font-weight="800" fill="#f8fafc" text-anchor="middle">Designing Contextual Tooltips in React: Best Practices fo...</text>
    </svg>