<svg width="1200" height="600" viewBox="0 0 1200 600" xmlns="http://www.w3.org/2000/svg">
            <rect width="1200" height="600" fill="#111827"/><rect x="150" y="228.62392404931597" width="60" height="121.37607595068403" fill="#10b981" opacity="0.6"/>
                    <rect x="170" y="208.62392404931597" width="60" height="121.37607595068403" fill="#34d399" opacity="0.4" transform="skewY(-20)"/><rect x="270" y="174.26905877546233" width="60" height="175.73094122453767" fill="#10b981" opacity="0.6"/>
                    <rect x="290" y="154.26905877546233" width="60" height="175.73094122453767" fill="#34d399" opacity="0.4" transform="skewY(-20)"/><rect x="390" y="295.7327137086395" width="60" height="54.267286291360506" fill="#10b981" opacity="0.6"/>
                    <rect x="410" y="275.7327137086395" width="60" height="54.267286291360506" fill="#34d399" opacity="0.4" transform="skewY(-20)"/><rect x="510" y="235.46648997180455" width="60" height="114.53351002819545" fill="#10b981" opacity="0.6"/>
                    <rect x="530" y="215.46648997180455" width="60" height="114.53351002819545" fill="#34d399" opacity="0.4" transform="skewY(-20)"/><rect x="630" y="206.57695399731892" width="60" height="143.42304600268108" fill="#10b981" opacity="0.6"/>
                    <rect x="650" y="186.57695399731892" width="60" height="143.42304600268108" fill="#34d399" opacity="0.4" transform="skewY(-20)"/><rect x="750" y="185.67749530425317" width="60" height="164.32250469574683" fill="#10b981" opacity="0.6"/>
                    <rect x="770" y="165.67749530425317" width="60" height="164.32250469574683" fill="#34d399" opacity="0.4" transform="skewY(-20)"/><rect x="870" y="174.19157855583762" width="60" height="175.80842144416238" fill="#10b981" opacity="0.6"/>
                    <rect x="890" y="154.19157855583762" width="60" height="175.80842144416238" fill="#34d399" opacity="0.4" transform="skewY(-20)"/><rect x="990" y="188.29991632801466" width="60" height="161.70008367198534" fill="#10b981" opacity="0.6"/>
                    <rect x="1010" y="168.29991632801466" width="60" height="161.70008367198534" fill="#34d399" opacity="0.4" transform="skewY(-20)"/>
            <text x="600" y="520" font-family="Segoe UI, Arial, sans-serif" font-size="38" font-weight="800" fill="#ffffff" text-anchor="middle">Designing Adaptive Feedback Mechanisms for Real-time Data...</text>
            <text x="600" y="560" font-family="Segoe UI, Arial, sans-serif" font-size="16" font-weight="600" fill="#10b981" text-anchor="middle" style="letter-spacing: 4px; text-transform: uppercase;">UI UX Powerhouse • Specialized Series</text>
        </svg>