<svg width="1200" height="600" viewBox="0 0 1200 600" xmlns="http://www.w3.org/2000/svg">
        <rect width="1200" height="600" fill="#2e1065"/><circle cx="1058.4346259493032" cy="246.13469666728633" r="38.13821957064647" fill="#d8b4fe" opacity="0.1"/><circle cx="228.09164211957977" cy="174.1976620240166" r="20.51805183174565" fill="#d8b4fe" opacity="0.1"/><circle cx="585.5526161946955" cy="136.87430346981273" r="20.762046991221723" fill="#d8b4fe" opacity="0.1"/><circle cx="113.33644821606867" cy="37.683949239726644" r="40.06012019239279" fill="#d8b4fe" opacity="0.1"/><circle cx="325.9570561369401" cy="57.42459931134363" r="20.733188609665376" fill="#d8b4fe" opacity="0.1"/><circle cx="1054.775012825121" cy="67.5711055321699" r="24.98752805264303" fill="#d8b4fe" opacity="0.1"/><circle cx="131.15447777090594" cy="261.33647444830785" r="11.02485421964957" fill="#d8b4fe" opacity="0.1"/><circle cx="1074.9581150401355" cy="277.7421894665167" r="15.211933054470137" fill="#d8b4fe" opacity="0.1"/><circle cx="1145.672772000762" cy="66.04499908321486" r="32.1872903341864" fill="#d8b4fe" opacity="0.1"/><circle cx="715.1285999141692" cy="93.814319480407" r="13.2671283669697" fill="#d8b4fe" opacity="0.1"/><circle cx="355.13452438062814" cy="6.463138763865572" r="43.070931956754066" fill="#d8b4fe" opacity="0.1"/><circle cx="1149.5937001709535" cy="209.85356719793344" r="44.00416506694455" fill="#d8b4fe" opacity="0.1"/><circle cx="106.29873686557403" cy="329.16091259430686" r="47.23116005123302" fill="#d8b4fe" opacity="0.1"/><circle cx="300.51578534366854" cy="73.62391221631697" r="48.8072181291318" fill="#d8b4fe" opacity="0.1"/><circle cx="268.8883029626595" cy="83.59267189807724" r="13.615010666617309" fill="#d8b4fe" opacity="0.1"/><circle cx="945.539058948998" cy="351.7203138835612" r="49.43847902439302" fill="#d8b4fe" opacity="0.1"/><circle cx="83.16422086791135" cy="191.4441052787879" r="21.347836108034244" fill="#d8b4fe" opacity="0.1"/><circle cx="511.7933832520066" cy="255.6090409969329" r="33.73835606020293" fill="#d8b4fe" opacity="0.1"/><circle cx="157.98897228523856" cy="225.99519137729658" r="22.1348353192343" fill="#d8b4fe" opacity="0.1"/><circle cx="127.6897966490651" cy="309.6335626752989" r="26.90907955379771" fill="#d8b4fe" opacity="0.1"/><circle cx="444.1678089930065" cy="226.29028592418763" r="29.990466286781157" fill="#d8b4fe" opacity="0.1"/><circle cx="10.553126188460737" cy="46.37272166655748" r="42.61659898336802" fill="#d8b4fe" opacity="0.1"/><circle cx="1121.7536601554457" cy="158.3256104742759" r="42.15657659093267" fill="#d8b4fe" opacity="0.1"/><circle cx="874.8992194399762" cy="18.409665552098886" r="24.833045951163513" fill="#d8b4fe" opacity="0.1"/><circle cx="452.13918263543746" cy="127.84998353527044" r="15.679408670112025" fill="#d8b4fe" opacity="0.1"/><circle cx="852.1261890213282" cy="152.4709749053727" r="44.19793823839882" fill="#d8b4fe" opacity="0.1"/><circle cx="635.3555725709157" cy="19.926199528345023" r="31.834801059230813" fill="#d8b4fe" opacity="0.1"/><circle cx="565.2390478921006" cy="129.13789762133092" r="46.72064277467143" fill="#d8b4fe" opacity="0.1"/><circle cx="1021.6994315735064" cy="272.5633862068207" r="11.628908676939318" fill="#d8b4fe" opacity="0.1"/><circle cx="881.741040556517" cy="266.091071000119" r="35.635788509766826" fill="#d8b4fe" opacity="0.1"/>
        <text x="600" y="520" font-family="Segoe UI, Arial, sans-serif" font-size="38" font-weight="800" fill="#ffffff" text-anchor="middle">Designing Adaptive Navigation Menus for Data-Intensive We...</text>
        <text x="600" y="560" font-family="Segoe UI, Arial, sans-serif" font-size="16" font-weight="600" fill="#d8b4fe" text-anchor="middle" style="letter-spacing: 4px; text-transform: uppercase;">UI UX Powerhouse • Specialized Series</text>
    </svg>