<svg width="1200" height="600" viewBox="0 0 1200 600" xmlns="http://www.w3.org/2000/svg">
        <rect width="1200" height="600" fill="#0f172a"/><circle cx="820.4434281935391" cy="150.2936780343589" r="23.975772421545116" fill="#38bdf8" opacity="0.1"/><circle cx="347.39219020848395" cy="31.51660925213946" r="26.000485580070745" fill="#38bdf8" opacity="0.1"/><circle cx="522.2331838078389" cy="308.2246255475184" r="29.76374064302945" fill="#38bdf8" opacity="0.1"/><circle cx="275.9234670877049" cy="50.857838617957896" r="38.93800491678121" fill="#38bdf8" opacity="0.1"/><circle cx="1020.7565680211701" cy="119.09444956181687" r="12.073404276234214" fill="#38bdf8" opacity="0.1"/><circle cx="238.34944426998845" cy="150.61644110755879" r="33.31729124973208" fill="#38bdf8" opacity="0.1"/><circle cx="7.649271351692732" cy="238.27701092668576" r="43.70885230771819" fill="#38bdf8" opacity="0.1"/><circle cx="851.4665907523067" cy="53.95298561270465" r="21.12051984986465" fill="#38bdf8" opacity="0.1"/><circle cx="1020.0708816562837" cy="154.56032649963163" r="37.2107893825887" fill="#38bdf8" opacity="0.1"/><circle cx="1160.670684825891" cy="46.396934014046565" r="21.64243871360668" fill="#38bdf8" opacity="0.1"/><circle cx="312.13150389303337" cy="386.1981628710055" r="19.59112288124743" fill="#38bdf8" opacity="0.1"/><circle cx="1166.2965067618643" cy="149.58041974477965" r="44.5373760064831" fill="#38bdf8" opacity="0.1"/><circle cx="1109.955222512508" cy="62.45811915187005" r="31.388487762815203" fill="#38bdf8" opacity="0.1"/><circle cx="414.01220816806017" cy="322.9128231247614" r="46.56125420129683" fill="#38bdf8" opacity="0.1"/><circle cx="672.1005629697174" cy="219.67977751628496" r="16.80804370655096" fill="#38bdf8" opacity="0.1"/><circle cx="180.43682912721124" cy="361.97328815281935" r="10.118735256401123" fill="#38bdf8" opacity="0.1"/><circle cx="1147.1584514038113" cy="259.5202100190363" r="36.385219637304544" fill="#38bdf8" opacity="0.1"/><circle cx="459.3006042880006" cy="382.9814430537226" r="47.67233862730791" fill="#38bdf8" opacity="0.1"/><circle cx="1037.4691884346248" cy="382.0199882680754" r="13.247622291564767" fill="#38bdf8" opacity="0.1"/><circle cx="1079.3629506782963" cy="64.10488985711709" r="42.48640999139752" fill="#38bdf8" opacity="0.1"/><circle cx="1191.539393660787" cy="125.53674319788115" r="25.56668573317438" fill="#38bdf8" opacity="0.1"/><circle cx="792.207432867508" cy="379.2385943572299" r="23.784000566520263" fill="#38bdf8" opacity="0.1"/><circle cx="1126.3047462736722" cy="360.5682900510146" r="23.078689473768463" fill="#38bdf8" opacity="0.1"/><circle cx="1199.2152491209708" cy="285.66588320936717" r="21.35143351046281" fill="#38bdf8" opacity="0.1"/><circle cx="539.5527095524812" cy="30.97550956408668" r="19.607680199842434" fill="#38bdf8" opacity="0.1"/><circle cx="1065.6508327992924" cy="284.3633218746618" r="14.562649376748595" fill="#38bdf8" opacity="0.1"/><circle cx="393.1819402590918" cy="335.40232823215774" r="39.376528734283056" fill="#38bdf8" opacity="0.1"/><circle cx="341.40196930165985" cy="225.49524834612384" r="10.924669047199131" fill="#38bdf8" opacity="0.1"/><circle cx="173.58242272166535" cy="394.869228259941" r="31.89669916228013" fill="#38bdf8" opacity="0.1"/><circle cx="187.7250039795399" cy="52.415744314930635" r="39.14753257715347" fill="#38bdf8" opacity="0.1"/>
        <text x="600" y="520" font-family="Segoe UI, Arial, sans-serif" font-size="38" font-weight="800" fill="#ffffff" text-anchor="middle">Designing Adaptive Microinteractions for Data-Heavy Dashb...</text>
        <text x="600" y="560" font-family="Segoe UI, Arial, sans-serif" font-size="16" font-weight="600" fill="#38bdf8" text-anchor="middle" style="letter-spacing: 4px; text-transform: uppercase;">UI UX Powerhouse • Specialized Series</text>
    </svg>