<svg width="1200" height="600" viewBox="0 0 1200 600" xmlns="http://www.w3.org/2000/svg">
            <rect width="1200" height="600" fill="#0f172a"/><rect x="150" y="136.88131473936664" width="60" height="213.11868526063336" fill="#38bdf8" opacity="0.6"/>
                    <rect x="170" y="116.88131473936664" width="60" height="213.11868526063336" fill="#818cf8" opacity="0.4" transform="skewY(-20)"/><rect x="270" y="253.03267833678547" width="60" height="96.96732166321453" fill="#38bdf8" opacity="0.6"/>
                    <rect x="290" y="233.03267833678547" width="60" height="96.96732166321453" fill="#818cf8" opacity="0.4" transform="skewY(-20)"/><rect x="390" y="122.89195353059768" width="60" height="227.10804646940232" fill="#38bdf8" opacity="0.6"/>
                    <rect x="410" y="102.89195353059768" width="60" height="227.10804646940232" fill="#818cf8" opacity="0.4" transform="skewY(-20)"/><rect x="510" y="299.08067500564357" width="60" height="50.91932499435643" fill="#38bdf8" opacity="0.6"/>
                    <rect x="530" y="279.08067500564357" width="60" height="50.91932499435643" fill="#818cf8" opacity="0.4" transform="skewY(-20)"/><rect x="630" y="276.4424218417844" width="60" height="73.55757815821562" fill="#38bdf8" opacity="0.6"/>
                    <rect x="650" y="256.4424218417844" width="60" height="73.55757815821562" fill="#818cf8" opacity="0.4" transform="skewY(-20)"/><rect x="750" y="198.22525035352783" width="60" height="151.77474964647217" fill="#38bdf8" opacity="0.6"/>
                    <rect x="770" y="178.22525035352783" width="60" height="151.77474964647217" fill="#818cf8" opacity="0.4" transform="skewY(-20)"/><rect x="870" y="221.14394183954573" width="60" height="128.85605816045427" fill="#38bdf8" opacity="0.6"/>
                    <rect x="890" y="201.14394183954573" width="60" height="128.85605816045427" fill="#818cf8" opacity="0.4" transform="skewY(-20)"/><rect x="990" y="166.74452536080935" width="60" height="183.25547463919065" fill="#38bdf8" opacity="0.6"/>
                    <rect x="1010" y="146.74452536080935" width="60" height="183.25547463919065" fill="#818cf8" opacity="0.4" transform="skewY(-20)"/>
            <text x="600" y="520" font-family="Segoe UI, Arial, sans-serif" font-size="38" font-weight="800" fill="#ffffff" text-anchor="middle">Designing Adaptive Navigation Patterns for Complex Web Ap...</text>
            <text x="600" y="560" font-family="Segoe UI, Arial, sans-serif" font-size="16" font-weight="600" fill="#38bdf8" text-anchor="middle" style="letter-spacing: 4px; text-transform: uppercase;">UI UX Powerhouse • Specialized Series</text>
        </svg>