<svg width="1200" height="600" viewBox="0 0 1200 600" xmlns="http://www.w3.org/2000/svg">
        
            <rect width="1200" height="600" fill="#111827"/>
            <g opacity="0.3">
                <line x1="831.8917372882424" y1="317.1867645880411" x2="845.1001832725524" y2="332.5576185119644" stroke="#94a3b8" stroke-width="1"/><line x1="831.8917372882424" y1="317.1867645880411" x2="337.9920924071257" y2="378.4069929906764" stroke="#94a3b8" stroke-width="1"/><line x1="831.8917372882424" y1="317.1867645880411" x2="456.53414178486855" y2="179.73627336004938" stroke="#94a3b8" stroke-width="1"/><line x1="831.8917372882424" y1="317.1867645880411" x2="432.82181218082025" y2="354.61769667454064" stroke="#94a3b8" stroke-width="1"/><line x1="831.8917372882424" y1="317.1867645880411" x2="644.8111354864523" y2="246.34768098503628" stroke="#94a3b8" stroke-width="1"/><line x1="831.8917372882424" y1="317.1867645880411" x2="723.6311094347911" y2="314.1059691346527" stroke="#94a3b8" stroke-width="1"/><line x1="831.8917372882424" y1="317.1867645880411" x2="381.384252899079" y2="282.0504902657376" stroke="#94a3b8" stroke-width="1"/><line x1="831.8917372882424" y1="317.1867645880411" x2="430.7375210453756" y2="329.3764952939455" stroke="#94a3b8" stroke-width="1"/><line x1="845.1001832725524" y1="332.5576185119644" x2="337.9920924071257" y2="378.4069929906764" stroke="#94a3b8" stroke-width="1"/><line x1="845.1001832725524" y1="332.5576185119644" x2="456.53414178486855" y2="179.73627336004938" stroke="#94a3b8" stroke-width="1"/><line x1="845.1001832725524" y1="332.5576185119644" x2="432.82181218082025" y2="354.61769667454064" stroke="#94a3b8" stroke-width="1"/><line x1="845.1001832725524" y1="332.5576185119644" x2="644.8111354864523" y2="246.34768098503628" stroke="#94a3b8" stroke-width="1"/><line x1="845.1001832725524" y1="332.5576185119644" x2="723.6311094347911" y2="314.1059691346527" stroke="#94a3b8" stroke-width="1"/><line x1="845.1001832725524" y1="332.5576185119644" x2="381.384252899079" y2="282.0504902657376" stroke="#94a3b8" stroke-width="1"/><line x1="845.1001832725524" y1="332.5576185119644" x2="430.7375210453756" y2="329.3764952939455" stroke="#94a3b8" stroke-width="1"/><line x1="337.9920924071257" y1="378.4069929906764" x2="456.53414178486855" y2="179.73627336004938" stroke="#94a3b8" stroke-width="1"/><line x1="337.9920924071257" y1="378.4069929906764" x2="432.82181218082025" y2="354.61769667454064" stroke="#94a3b8" stroke-width="1"/><line x1="337.9920924071257" y1="378.4069929906764" x2="644.8111354864523" y2="246.34768098503628" stroke="#94a3b8" stroke-width="1"/><line x1="337.9920924071257" y1="378.4069929906764" x2="723.6311094347911" y2="314.1059691346527" stroke="#94a3b8" stroke-width="1"/><line x1="337.9920924071257" y1="378.4069929906764" x2="381.384252899079" y2="282.0504902657376" stroke="#94a3b8" stroke-width="1"/><line x1="337.9920924071257" y1="378.4069929906764" x2="430.7375210453756" y2="329.3764952939455" stroke="#94a3b8" stroke-width="1"/><line x1="456.53414178486855" y1="179.73627336004938" x2="432.82181218082025" y2="354.61769667454064" stroke="#94a3b8" stroke-width="1"/><line x1="456.53414178486855" y1="179.73627336004938" x2="644.8111354864523" y2="246.34768098503628" stroke="#94a3b8" stroke-width="1"/><line x1="456.53414178486855" y1="179.73627336004938" x2="723.6311094347911" y2="314.1059691346527" stroke="#94a3b8" stroke-width="1"/><line x1="456.53414178486855" y1="179.73627336004938" x2="381.384252899079" y2="282.0504902657376" stroke="#94a3b8" stroke-width="1"/><line x1="456.53414178486855" y1="179.73627336004938" x2="430.7375210453756" y2="329.3764952939455" stroke="#94a3b8" stroke-width="1"/><line x1="432.82181218082025" y1="354.61769667454064" x2="644.8111354864523" y2="246.34768098503628" stroke="#94a3b8" stroke-width="1"/><line x1="432.82181218082025" y1="354.61769667454064" x2="723.6311094347911" y2="314.1059691346527" stroke="#94a3b8" stroke-width="1"/><line x1="432.82181218082025" y1="354.61769667454064" x2="381.384252899079" y2="282.0504902657376" stroke="#94a3b8" stroke-width="1"/><line x1="432.82181218082025" y1="354.61769667454064" x2="430.7375210453756" y2="329.3764952939455" stroke="#94a3b8" stroke-width="1"/><line x1="644.8111354864523" y1="246.34768098503628" x2="723.6311094347911" y2="314.1059691346527" stroke="#94a3b8" stroke-width="1"/><line x1="644.8111354864523" y1="246.34768098503628" x2="381.384252899079" y2="282.0504902657376" stroke="#94a3b8" stroke-width="1"/><line x1="644.8111354864523" y1="246.34768098503628" x2="430.7375210453756" y2="329.3764952939455" stroke="#94a3b8" stroke-width="1"/><line x1="723.6311094347911" y1="314.1059691346527" x2="381.384252899079" y2="282.0504902657376" stroke="#94a3b8" stroke-width="1"/><line x1="723.6311094347911" y1="314.1059691346527" x2="430.7375210453756" y2="329.3764952939455" stroke="#94a3b8" stroke-width="1"/><line x1="381.384252899079" y1="282.0504902657376" x2="430.7375210453756" y2="329.3764952939455" stroke="#94a3b8" stroke-width="1"/>
            </g>
            <circle cx="831.8917372882424" cy="317.1867645880411" r="5.300240771422978" fill="#94a3b8"/><circle cx="845.1001832725524" cy="332.5576185119644" r="4.931339722659686" fill="#94a3b8"/><circle cx="337.9920924071257" cy="378.4069929906764" r="11.517077995697036" fill="#94a3b8"/><circle cx="456.53414178486855" cy="179.73627336004938" r="6.03000076279568" fill="#94a3b8"/><circle cx="432.82181218082025" cy="354.61769667454064" r="4.238804444728885" fill="#94a3b8"/><circle cx="644.8111354864523" cy="246.34768098503628" r="9.006006110197632" fill="#94a3b8"/><circle cx="723.6311094347911" cy="314.1059691346527" r="4.5827925563644385" fill="#94a3b8"/><circle cx="381.384252899079" cy="282.0504902657376" r="7.820665223247488" fill="#94a3b8"/><circle cx="430.7375210453756" cy="329.3764952939455" r="9.516268519000732" fill="#94a3b8"/>
        
        <text x="600" y="520" font-family="Segoe UI, Arial" font-size="38" font-weight="800" fill="#f8fafc" text-anchor="middle">Designing Data-Driven Dashboards: Implementing Real-Time ...</text>
    </svg>