<svg width="1200" height="600" viewBox="0 0 1200 600" xmlns="http://www.w3.org/2000/svg">
            <rect width="1200" height="600" fill="#0c4a6e"/><path d="M 702.5942669355572 3.3976531638472807 L 719.4716134319606 53.39765316384728 L 680.2291825531029 103.39765316384728" stroke="#7dd3fc" fill="none" opacity="0.4"/>
                    <circle cx="702.5942669355572" cy="3.3976531638472807" r="3" fill="#f43f5e"/><path d="M 1108.8395438109728 361.20757416283595 L 1075.0329436057655 411.20757416283595 L 1155.7470591375022 461.20757416283595" stroke="#7dd3fc" fill="none" opacity="0.4"/>
                    <circle cx="1108.8395438109728" cy="361.20757416283595" r="3" fill="#f43f5e"/><path d="M 17.579211949487217 260.4515807379357 L 47.058978955828934 310.4515807379357 L -7.6702332218701486 360.4515807379357" stroke="#7dd3fc" fill="none" opacity="0.4"/>
                    <circle cx="17.579211949487217" cy="260.4515807379357" r="3" fill="#f43f5e"/><path d="M 1019.1098598021199 123.37419127652538 L 1026.9692624653544 173.37419127652538 L 1068.708850654184 223.37419127652538" stroke="#7dd3fc" fill="none" opacity="0.4"/>
                    <circle cx="1019.1098598021199" cy="123.37419127652538" r="3" fill="#f43f5e"/><path d="M 476.16898717096774 48.49527676888101 L 466.52196737641134 98.49527676888101 L 474.2407416481001 148.495276768881" stroke="#7dd3fc" fill="none" opacity="0.4"/>
                    <circle cx="476.16898717096774" cy="48.49527676888101" r="3" fill="#f43f5e"/><path d="M 952.3512883915828 211.13720653011114 L 907.6838823020807 261.13720653011114 L 954.2359467166534 311.13720653011114" stroke="#7dd3fc" fill="none" opacity="0.4"/>
                    <circle cx="952.3512883915828" cy="211.13720653011114" r="3" fill="#f43f5e"/><path d="M 889.2991683613218 72.55190019277507 L 907.6691348378517 122.55190019277507 L 897.5305675426853 172.55190019277507" stroke="#7dd3fc" fill="none" opacity="0.4"/>
                    <circle cx="889.2991683613218" cy="72.55190019277507" r="3" fill="#f43f5e"/><path d="M 104.89540144844796 195.62254949923954 L 102.50869997380505 245.62254949923954 L 102.451080382707 295.62254949923954" stroke="#7dd3fc" fill="none" opacity="0.4"/>
                    <circle cx="104.89540144844796" cy="195.62254949923954" r="3" fill="#f43f5e"/><path d="M 335.05632174928905 33.927951392979594 L 323.383303873743 83.9279513929796 L 341.04474702489824 133.9279513929796" stroke="#7dd3fc" fill="none" opacity="0.4"/>
                    <circle cx="335.05632174928905" cy="33.927951392979594" r="3" fill="#f43f5e"/><path d="M 1149.5644093058218 101.607954452993 L 1187.4220629832053 151.607954452993 L 1111.0100216186765 201.607954452993" stroke="#7dd3fc" fill="none" opacity="0.4"/>
                    <circle cx="1149.5644093058218" cy="101.607954452993" r="3" fill="#f43f5e"/>
            <text x="600" y="520" font-family="Segoe UI, Arial, sans-serif" font-size="38" font-weight="800" fill="#ffffff" text-anchor="middle">Designing Accessible Data Visualization Dashboards: Imple...</text>
            <text x="600" y="560" font-family="Segoe UI, Arial, sans-serif" font-size="16" font-weight="600" fill="#7dd3fc" text-anchor="middle" style="letter-spacing: 4px; text-transform: uppercase;">UI UX Powerhouse • Specialized Series</text>
        </svg>