<svg width="1200" height="600" viewBox="0 0 1200 600" xmlns="http://www.w3.org/2000/svg">
            <rect width="1200" height="600" fill="#111827"/><circle cx="211.4991143127554" cy="123.3814726019773" r="35.355372119665844" fill="#10b981" opacity="0.1"/><circle cx="716.6360449620697" cy="356.728802240832" r="25.86820875021658" fill="#10b981" opacity="0.1"/><circle cx="379.25821416897634" cy="391.75064909868524" r="14.558376932504302" fill="#10b981" opacity="0.1"/><circle cx="437.67698907031445" cy="394.18946923542535" r="42.94853541367047" fill="#10b981" opacity="0.1"/><circle cx="896.8644850115197" cy="343.8282689308835" r="36.46922747753706" fill="#10b981" opacity="0.1"/><circle cx="1158.8961375459803" cy="189.68148099447717" r="45.82468930504547" fill="#10b981" opacity="0.1"/><circle cx="832.7014254326059" cy="392.30817019379174" r="43.71942978610605" fill="#10b981" opacity="0.1"/><circle cx="770.2299468262936" cy="74.62065865183831" r="38.60892551023426" fill="#10b981" opacity="0.1"/><circle cx="158.44660014408873" cy="301.15461007826525" r="11.966740256593766" fill="#10b981" opacity="0.1"/><circle cx="79.16612013486883" cy="114.2600611798116" r="36.61870346535579" fill="#10b981" opacity="0.1"/><circle cx="538.2300879486138" cy="1.602357292722445" r="49.08568912915143" fill="#10b981" opacity="0.1"/><circle cx="1119.1082083867514" cy="349.7689482766873" r="15.46259370388725" fill="#10b981" opacity="0.1"/><circle cx="716.1937851316907" cy="338.9423812033783" r="19.57282505420153" fill="#10b981" opacity="0.1"/><circle cx="29.26203942624852" cy="220.2435296450858" r="25.490704058192932" fill="#10b981" opacity="0.1"/><circle cx="1078.7314589462767" cy="328.7781694007208" r="32.0578811703308" fill="#10b981" opacity="0.1"/><circle cx="392.47359553232855" cy="201.7793169716242" r="31.88705743796163" fill="#10b981" opacity="0.1"/><circle cx="1117.6453187694278" cy="50.67689719292048" r="38.16032807135343" fill="#10b981" opacity="0.1"/><circle cx="242.793528752145" cy="349.06720344097266" r="13.138154148546164" fill="#10b981" opacity="0.1"/><circle cx="589.0423751850903" cy="277.07916021026904" r="48.50898725730076" fill="#10b981" opacity="0.1"/><circle cx="51.84144332888536" cy="246.7970426150714" r="39.59153164840245" fill="#10b981" opacity="0.1"/><circle cx="157.13359420115012" cy="70.97580404952168" r="31.69665458770396" fill="#10b981" opacity="0.1"/><circle cx="379.44083740258066" cy="68.55823566911567" r="45.91941826358379" fill="#10b981" opacity="0.1"/><circle cx="638.0030152686231" cy="249.75350777276617" r="43.1624524056042" fill="#10b981" opacity="0.1"/><circle cx="507.93552349750826" cy="383.9432340086205" r="24.18270856160234" fill="#10b981" opacity="0.1"/><circle cx="1158.9904047817981" cy="39.16233261770685" r="27.470784820543486" fill="#10b981" opacity="0.1"/><circle cx="812.3704925348648" cy="112.53761470143218" r="20.589494066589396" fill="#10b981" opacity="0.1"/><circle cx="826.0292288436176" cy="60.679424952104455" r="30.27356235696061" fill="#10b981" opacity="0.1"/><circle cx="139.99126960707144" cy="115.65508912481164" r="25.001421979359293" fill="#10b981" opacity="0.1"/><circle cx="134.61132057345822" cy="43.87042660860061" r="26.473966749035753" fill="#10b981" opacity="0.1"/><circle cx="382.6079986880359" cy="47.85261948200059" r="30.3010378194449" fill="#10b981" opacity="0.1"/>
            <text x="600" y="520" font-family="Segoe UI, Arial, sans-serif" font-size="38" font-weight="800" fill="#ffffff" text-anchor="middle">Designing Multi-Device Experiences: Implementing Responsi...</text>
            <text x="600" y="560" font-family="Segoe UI, Arial, sans-serif" font-size="16" font-weight="600" fill="#10b981" text-anchor="middle" style="letter-spacing: 4px; text-transform: uppercase;">UI UX Powerhouse • Specialized Series</text>
        </svg>