<svg width="1200" height="600" viewBox="0 0 1200 600" xmlns="http://www.w3.org/2000/svg">
            <rect width="1200" height="600" fill="#2e1065"/><path d="M 1135.9797771023295 345.205447452463 L 1167.9186164014027 395.205447452463 L 1108.8199930054998 445.205447452463" stroke="#d8b4fe" fill="none" opacity="0.4"/>
                    <circle cx="1135.9797771023295" cy="345.205447452463" r="3" fill="#4ade80"/><path d="M 357.961797203825 65.00667176733259 L 380.406166368266 115.00667176733259 L 404.17254357416823 165.0066717673326" stroke="#d8b4fe" fill="none" opacity="0.4"/>
                    <circle cx="357.961797203825" cy="65.00667176733259" r="3" fill="#4ade80"/><path d="M 748.0784123697958 21.514314556407044 L 735.4921263497772 71.51431455640704 L 728.6631246398201 121.51431455640704" stroke="#d8b4fe" fill="none" opacity="0.4"/>
                    <circle cx="748.0784123697958" cy="21.514314556407044" r="3" fill="#4ade80"/><path d="M 331.07603383468813 390.02871464217606 L 350.42919511543005 440.02871464217606 L 315.00437363292804 490.02871464217606" stroke="#d8b4fe" fill="none" opacity="0.4"/>
                    <circle cx="331.07603383468813" cy="390.02871464217606" r="3" fill="#4ade80"/><path d="M 787.4835605252883 227.42817467678833 L 793.9412097695822 277.42817467678833 L 795.9895011512344 327.42817467678833" stroke="#d8b4fe" fill="none" opacity="0.4"/>
                    <circle cx="787.4835605252883" cy="227.42817467678833" r="3" fill="#4ade80"/><path d="M 794.27499661615 346.91630129818805 L 808.8688168361841 396.91630129818805 L 756.0609259866396 446.91630129818805" stroke="#d8b4fe" fill="none" opacity="0.4"/>
                    <circle cx="794.27499661615" cy="346.91630129818805" r="3" fill="#4ade80"/><path d="M 616.9410910166334 132.59089019265957 L 587.2677417524756 182.59089019265957 L 641.9346007074637 232.59089019265957" stroke="#d8b4fe" fill="none" opacity="0.4"/>
                    <circle cx="616.9410910166334" cy="132.59089019265957" r="3" fill="#4ade80"/><path d="M 859.7276404847435 180.13901900740166 L 849.9828404787877 230.13901900740166 L 810.1349819752159 280.13901900740166" stroke="#d8b4fe" fill="none" opacity="0.4"/>
                    <circle cx="859.7276404847435" cy="180.13901900740166" r="3" fill="#4ade80"/><path d="M 220.97647644332028 214.3500181788113 L 268.45254944264525 264.3500181788113 L 220.09126854268288 314.3500181788113" stroke="#d8b4fe" fill="none" opacity="0.4"/>
                    <circle cx="220.97647644332028" cy="214.3500181788113" r="3" fill="#4ade80"/><path d="M 1058.6907007812897 251.90806499849714 L 1074.9402140321308 301.90806499849714 L 1008.9829481968536 351.90806499849714" stroke="#d8b4fe" fill="none" opacity="0.4"/>
                    <circle cx="1058.6907007812897" cy="251.90806499849714" r="3" fill="#4ade80"/>
            <text x="600" y="520" font-family="Segoe UI, Arial, sans-serif" font-size="38" font-weight="800" fill="#ffffff" text-anchor="middle">Designing Responsive Data Visualizations for Multi-Device...</text>
            <text x="600" y="560" font-family="Segoe UI, Arial, sans-serif" font-size="16" font-weight="600" fill="#d8b4fe" text-anchor="middle" style="letter-spacing: 4px; text-transform: uppercase;">UI UX Powerhouse • Specialized Series</text>
        </svg>