<svg width="1200" height="600" viewBox="0 0 1200 600" xmlns="http://www.w3.org/2000/svg">
        <rect width="1200" height="600" fill="#0c4a6e"/><path d="M 461.50033321928277 28.609528064043843 L 432.81731103661514 78.60952806404384 L 449.9164610480875 128.60952806404384" stroke="#7dd3fc" fill="none" opacity="0.4"/>
                    <circle cx="461.50033321928277" cy="28.609528064043843" r="3" fill="#f43f5e"/><path d="M 363.873418080766 4.95222487297724 L 316.922975472653 54.95222487297724 L 324.55475271763135 104.95222487297724" stroke="#7dd3fc" fill="none" opacity="0.4"/>
                    <circle cx="363.873418080766" cy="4.95222487297724" r="3" fill="#f43f5e"/><path d="M 420.0096346095961 49.87794264998229 L 432.5407132928376 99.87794264998229 L 469.97876943187293 149.8779426499823" stroke="#7dd3fc" fill="none" opacity="0.4"/>
                    <circle cx="420.0096346095961" cy="49.87794264998229" r="3" fill="#f43f5e"/><path d="M 881.654569640159 51.76641791549628 L 870.0552424605121 101.76641791549628 L 891.2773343239223 151.76641791549628" stroke="#7dd3fc" fill="none" opacity="0.4"/>
                    <circle cx="881.654569640159" cy="51.76641791549628" r="3" fill="#f43f5e"/><path d="M 1110.2848280057515 322.7555650912109 L 1060.3042297917455 372.7555650912109 L 1089.338647407567 422.7555650912109" stroke="#7dd3fc" fill="none" opacity="0.4"/>
                    <circle cx="1110.2848280057515" cy="322.7555650912109" r="3" fill="#f43f5e"/><path d="M 1045.159940476151 249.52227936355484 L 1033.6639741221006 299.52227936355484 L 1073.5131243545766 349.52227936355484" stroke="#7dd3fc" fill="none" opacity="0.4"/>
                    <circle cx="1045.159940476151" cy="249.52227936355484" r="3" fill="#f43f5e"/><path d="M 598.4791150505771 119.1860283332062 L 566.6971019278748 169.1860283332062 L 603.5081671561784 219.1860283332062" stroke="#7dd3fc" fill="none" opacity="0.4"/>
                    <circle cx="598.4791150505771" cy="119.1860283332062" r="3" fill="#f43f5e"/><path d="M 185.43279504374368 202.93121581999003 L 157.81241268010717 252.93121581999003 L 231.90511386928847 302.93121581999003" stroke="#7dd3fc" fill="none" opacity="0.4"/>
                    <circle cx="185.43279504374368" cy="202.93121581999003" r="3" fill="#f43f5e"/><path d="M 329.206823367349 136.88209244373866 L 369.35134774421385 186.88209244373866 L 326.24941853700875 236.88209244373866" stroke="#7dd3fc" fill="none" opacity="0.4"/>
                    <circle cx="329.206823367349" cy="136.88209244373866" r="3" fill="#f43f5e"/><path d="M 228.9319544666796 26.898746988081257 L 257.32952069674866 76.89874698808126 L 218.05285933241976 126.89874698808126" stroke="#7dd3fc" fill="none" opacity="0.4"/>
                    <circle cx="228.9319544666796" cy="26.898746988081257" r="3" fill="#f43f5e"/>
        <text x="600" y="520" font-family="Segoe UI, Arial, sans-serif" font-size="38" font-weight="800" fill="#ffffff" text-anchor="middle">Designing User-Centric Data Visualization for Real-Time F...</text>
        <text x="600" y="560" font-family="Segoe UI, Arial, sans-serif" font-size="16" font-weight="600" fill="#7dd3fc" text-anchor="middle" style="letter-spacing: 4px; text-transform: uppercase;">UI UX Powerhouse • Specialized Series</text>
    </svg>