<svg width="1200" height="600" viewBox="0 0 1200 600" xmlns="http://www.w3.org/2000/svg">
        
            <rect width="1200" height="600" fill="#4c1d95"/>
            <g opacity="0.3">
                <line x1="559.0028988985068" y1="181.92419113083815" x2="879.2853081517023" y2="165.16415652866954" stroke="#c084fc" stroke-width="1"/><line x1="559.0028988985068" y1="181.92419113083815" x2="538.0155813695183" y2="275.0685676543071" stroke="#c084fc" stroke-width="1"/><line x1="559.0028988985068" y1="181.92419113083815" x2="367.92077136306034" y2="109.51033588478367" stroke="#c084fc" stroke-width="1"/><line x1="559.0028988985068" y1="181.92419113083815" x2="583.6220851928374" y2="283.4987581241876" stroke="#c084fc" stroke-width="1"/><line x1="559.0028988985068" y1="181.92419113083815" x2="602.1326235244487" y2="235.1783058466026" stroke="#c084fc" stroke-width="1"/><line x1="559.0028988985068" y1="181.92419113083815" x2="754.3729605062254" y2="223.18150374621837" stroke="#c084fc" stroke-width="1"/><line x1="559.0028988985068" y1="181.92419113083815" x2="404.5988474086698" y2="318.50737146614847" stroke="#c084fc" stroke-width="1"/><line x1="559.0028988985068" y1="181.92419113083815" x2="320.9925472721807" y2="128.44107165246896" stroke="#c084fc" stroke-width="1"/><line x1="879.2853081517023" y1="165.16415652866954" x2="538.0155813695183" y2="275.0685676543071" stroke="#c084fc" stroke-width="1"/><line x1="879.2853081517023" y1="165.16415652866954" x2="367.92077136306034" y2="109.51033588478367" stroke="#c084fc" stroke-width="1"/><line x1="879.2853081517023" y1="165.16415652866954" x2="583.6220851928374" y2="283.4987581241876" stroke="#c084fc" stroke-width="1"/><line x1="879.2853081517023" y1="165.16415652866954" x2="602.1326235244487" y2="235.1783058466026" stroke="#c084fc" stroke-width="1"/><line x1="879.2853081517023" y1="165.16415652866954" x2="754.3729605062254" y2="223.18150374621837" stroke="#c084fc" stroke-width="1"/><line x1="879.2853081517023" y1="165.16415652866954" x2="404.5988474086698" y2="318.50737146614847" stroke="#c084fc" stroke-width="1"/><line x1="879.2853081517023" y1="165.16415652866954" x2="320.9925472721807" y2="128.44107165246896" stroke="#c084fc" stroke-width="1"/><line x1="538.0155813695183" y1="275.0685676543071" x2="367.92077136306034" y2="109.51033588478367" stroke="#c084fc" stroke-width="1"/><line x1="538.0155813695183" y1="275.0685676543071" x2="583.6220851928374" y2="283.4987581241876" stroke="#c084fc" stroke-width="1"/><line x1="538.0155813695183" y1="275.0685676543071" x2="602.1326235244487" y2="235.1783058466026" stroke="#c084fc" stroke-width="1"/><line x1="538.0155813695183" y1="275.0685676543071" x2="754.3729605062254" y2="223.18150374621837" stroke="#c084fc" stroke-width="1"/><line x1="538.0155813695183" y1="275.0685676543071" x2="404.5988474086698" y2="318.50737146614847" stroke="#c084fc" stroke-width="1"/><line x1="538.0155813695183" y1="275.0685676543071" x2="320.9925472721807" y2="128.44107165246896" stroke="#c084fc" stroke-width="1"/><line x1="367.92077136306034" y1="109.51033588478367" x2="583.6220851928374" y2="283.4987581241876" stroke="#c084fc" stroke-width="1"/><line x1="367.92077136306034" y1="109.51033588478367" x2="602.1326235244487" y2="235.1783058466026" stroke="#c084fc" stroke-width="1"/><line x1="367.92077136306034" y1="109.51033588478367" x2="754.3729605062254" y2="223.18150374621837" stroke="#c084fc" stroke-width="1"/><line x1="367.92077136306034" y1="109.51033588478367" x2="404.5988474086698" y2="318.50737146614847" stroke="#c084fc" stroke-width="1"/><line x1="367.92077136306034" y1="109.51033588478367" x2="320.9925472721807" y2="128.44107165246896" stroke="#c084fc" stroke-width="1"/><line x1="583.6220851928374" y1="283.4987581241876" x2="602.1326235244487" y2="235.1783058466026" stroke="#c084fc" stroke-width="1"/><line x1="583.6220851928374" y1="283.4987581241876" x2="754.3729605062254" y2="223.18150374621837" stroke="#c084fc" stroke-width="1"/><line x1="583.6220851928374" y1="283.4987581241876" x2="404.5988474086698" y2="318.50737146614847" stroke="#c084fc" stroke-width="1"/><line x1="583.6220851928374" y1="283.4987581241876" x2="320.9925472721807" y2="128.44107165246896" stroke="#c084fc" stroke-width="1"/><line x1="602.1326235244487" y1="235.1783058466026" x2="754.3729605062254" y2="223.18150374621837" stroke="#c084fc" stroke-width="1"/><line x1="602.1326235244487" y1="235.1783058466026" x2="404.5988474086698" y2="318.50737146614847" stroke="#c084fc" stroke-width="1"/><line x1="602.1326235244487" y1="235.1783058466026" x2="320.9925472721807" y2="128.44107165246896" stroke="#c084fc" stroke-width="1"/><line x1="754.3729605062254" y1="223.18150374621837" x2="404.5988474086698" y2="318.50737146614847" stroke="#c084fc" stroke-width="1"/><line x1="754.3729605062254" y1="223.18150374621837" x2="320.9925472721807" y2="128.44107165246896" stroke="#c084fc" stroke-width="1"/><line x1="404.5988474086698" y1="318.50737146614847" x2="320.9925472721807" y2="128.44107165246896" stroke="#c084fc" stroke-width="1"/>
            </g>
            <circle cx="559.0028988985068" cy="181.92419113083815" r="8.773209821549244" fill="#c084fc"/><circle cx="879.2853081517023" cy="165.16415652866954" r="6.900995902877185" fill="#c084fc"/><circle cx="538.0155813695183" cy="275.0685676543071" r="7.906353463218693" fill="#c084fc"/><circle cx="367.92077136306034" cy="109.51033588478367" r="9.461180948615947" fill="#c084fc"/><circle cx="583.6220851928374" cy="283.4987581241876" r="9.481929669433157" fill="#c084fc"/><circle cx="602.1326235244487" cy="235.1783058466026" r="6.0125702359800925" fill="#c084fc"/><circle cx="754.3729605062254" cy="223.18150374621837" r="11.085936280724127" fill="#c084fc"/><circle cx="404.5988474086698" cy="318.50737146614847" r="7.638581291623268" fill="#c084fc"/><circle cx="320.9925472721807" cy="128.44107165246896" r="10.48666911739565" fill="#c084fc"/>
        
        <text x="600" y="520" font-family="Segoe UI, Arial" font-size="38" font-weight="800" fill="#f8fafc" text-anchor="middle">Designing Adaptive Tooltip Interfaces: Leveraging Interse...</text>
    </svg>