<svg width="1200" height="600" viewBox="0 0 1200 600" xmlns="http://www.w3.org/2000/svg">
        <rect width="1200" height="600" fill="#111827"/><path d="M 1002.1352727053454 162.97282913255913 L 952.882191907338 212.97282913255913 L 965.2734327527057 262.9728291325591" stroke="#10b981" fill="none" opacity="0.4"/>
                    <circle cx="1002.1352727053454" cy="162.97282913255913" r="3" fill="#fbbf24"/><path d="M 116.27699429373024 369.8661518179506 L 77.34747391032215 419.8661518179506 L 140.25077464621063 469.8661518179506" stroke="#10b981" fill="none" opacity="0.4"/>
                    <circle cx="116.27699429373024" cy="369.8661518179506" r="3" fill="#fbbf24"/><path d="M 455.08407035722485 357.29199427032654 L 497.1570959143719 407.29199427032654 L 416.02473536813704 457.29199427032654" stroke="#10b981" fill="none" opacity="0.4"/>
                    <circle cx="455.08407035722485" cy="357.29199427032654" r="3" fill="#fbbf24"/><path d="M 312.55066747326055 200.92607748629234 L 297.86004254597174 250.92607748629234 L 296.7981338408208 300.92607748629234" stroke="#10b981" fill="none" opacity="0.4"/>
                    <circle cx="312.55066747326055" cy="200.92607748629234" r="3" fill="#fbbf24"/><path d="M 108.31443782299175 245.84773014903476 L 141.20542733307957 295.84773014903476 L 112.48021157546191 345.84773014903476" stroke="#10b981" fill="none" opacity="0.4"/>
                    <circle cx="108.31443782299175" cy="245.84773014903476" r="3" fill="#fbbf24"/><path d="M 1000.6780045521737 313.61636368965264 L 1050.464096524047 363.61636368965264 L 1020.7337470274069 413.61636368965264" stroke="#10b981" fill="none" opacity="0.4"/>
                    <circle cx="1000.6780045521737" cy="313.61636368965264" r="3" fill="#fbbf24"/><path d="M 332.6149753287609 229.00811418548983 L 352.24281369642085 279.00811418548983 L 367.58320409926455 329.00811418548983" stroke="#10b981" fill="none" opacity="0.4"/>
                    <circle cx="332.6149753287609" cy="229.00811418548983" r="3" fill="#fbbf24"/><path d="M 108.95004077483463 379.67159388645086 L 84.12848721304726 429.67159388645086 L 102.00845388917514 479.67159388645086" stroke="#10b981" fill="none" opacity="0.4"/>
                    <circle cx="108.95004077483463" cy="379.67159388645086" r="3" fill="#fbbf24"/><path d="M 522.009934700327 263.6803251996753 L 505.23120608667114 313.6803251996753 L 498.6758193737842 363.6803251996753" stroke="#10b981" fill="none" opacity="0.4"/>
                    <circle cx="522.009934700327" cy="263.6803251996753" r="3" fill="#fbbf24"/><path d="M 323.99723963681026 50.16090015669761 L 334.51542640796106 100.16090015669761 L 360.582330903344 150.1609001566976" stroke="#10b981" fill="none" opacity="0.4"/>
                    <circle cx="323.99723963681026" cy="50.16090015669761" r="3" fill="#fbbf24"/>
        <text x="600" y="520" font-family="Segoe UI, Arial, sans-serif" font-size="38" font-weight="800" fill="#ffffff" text-anchor="middle">Designing and Implementing Augmented Reality Overlays for...</text>
        <text x="600" y="560" font-family="Segoe UI, Arial, sans-serif" font-size="16" font-weight="600" fill="#10b981" text-anchor="middle" style="letter-spacing: 4px; text-transform: uppercase;">UI UX Powerhouse • Specialized Series</text>
    </svg>