<svg width="1200" height="600" viewBox="0 0 1200 600" xmlns="http://www.w3.org/2000/svg">
        <rect width="1200" height="600" fill="#171717"/><circle cx="540.1945314513796" cy="323.8514899785514" r="31.910402530920692" fill="#f59e0b" opacity="0.1"/><circle cx="1186.0180982243037" cy="128.39719674666412" r="47.05907418452625" fill="#f59e0b" opacity="0.1"/><circle cx="813.443576235295" cy="334.99066404292535" r="44.4500344570406" fill="#f59e0b" opacity="0.1"/><circle cx="281.18037384192576" cy="280.48189650899076" r="36.4533853309058" fill="#f59e0b" opacity="0.1"/><circle cx="1000.0446265639766" cy="269.03903868151247" r="11.194367535536003" fill="#f59e0b" opacity="0.1"/><circle cx="1039.1665089326125" cy="203.32912344856595" r="32.084328596938576" fill="#f59e0b" opacity="0.1"/><circle cx="253.74925415399048" cy="373.1234130944358" r="40.07520903782279" fill="#f59e0b" opacity="0.1"/><circle cx="549.1553151929111" cy="111.43645015035872" r="34.22399990122358" fill="#f59e0b" opacity="0.1"/><circle cx="886.7828513764834" cy="299.37852803795977" r="49.85335363948252" fill="#f59e0b" opacity="0.1"/><circle cx="557.965347780555" cy="168.63564994600893" r="41.95826393421157" fill="#f59e0b" opacity="0.1"/><circle cx="903.7307844970201" cy="327.77721088496037" r="37.7634994120308" fill="#f59e0b" opacity="0.1"/><circle cx="516.6482978809654" cy="43.25284688602551" r="48.45660347942612" fill="#f59e0b" opacity="0.1"/><circle cx="144.21777881489106" cy="255.39466023183195" r="25.560594577618758" fill="#f59e0b" opacity="0.1"/><circle cx="253.91477564498928" cy="333.32852820640255" r="48.9845749939559" fill="#f59e0b" opacity="0.1"/><circle cx="132.13671783014433" cy="210.5330556485569" r="12.20540112182789" fill="#f59e0b" opacity="0.1"/><circle cx="657.1173531934619" cy="321.39589834259823" r="25.780628606007667" fill="#f59e0b" opacity="0.1"/><circle cx="267.73932303403853" cy="372.9387352243066" r="30.8869311100716" fill="#f59e0b" opacity="0.1"/><circle cx="929.2832795083086" cy="336.8141905619268" r="14.30531829035317" fill="#f59e0b" opacity="0.1"/><circle cx="793.6886497824162" cy="18.361261165046017" r="33.32661393498711" fill="#f59e0b" opacity="0.1"/><circle cx="147.02559598954394" cy="333.79890155847534" r="11.672806532806135" fill="#f59e0b" opacity="0.1"/><circle cx="364.9585603696323" cy="69.42701690350077" r="19.530271452022134" fill="#f59e0b" opacity="0.1"/><circle cx="970.5771507455211" cy="178.9731652206683" r="16.513943095706054" fill="#f59e0b" opacity="0.1"/><circle cx="1154.978965689952" cy="74.77784928851179" r="11.248876968529657" fill="#f59e0b" opacity="0.1"/><circle cx="875.8763195197389" cy="381.8298076563224" r="10.185844831839859" fill="#f59e0b" opacity="0.1"/><circle cx="536.4434585615527" cy="175.67701138104894" r="17.90442076074214" fill="#f59e0b" opacity="0.1"/><circle cx="1006.4937718594592" cy="330.67132922660676" r="34.12491018396395" fill="#f59e0b" opacity="0.1"/><circle cx="914.4528527143848" cy="166.75357384447125" r="36.97041535091557" fill="#f59e0b" opacity="0.1"/><circle cx="1122.324915358604" cy="80.80331112796557" r="13.55105819916389" fill="#f59e0b" opacity="0.1"/><circle cx="290.2176286715985" cy="175.89705532300286" r="40.17188468766108" fill="#f59e0b" opacity="0.1"/><circle cx="650.3872447487083" cy="365.3121396600909" r="18.4520074973625" fill="#f59e0b" opacity="0.1"/>
        <text x="600" y="520" font-family="Segoe UI, Arial, sans-serif" font-size="38" font-weight="800" fill="#ffffff" text-anchor="middle">Designing Adaptive Information Architecture for Progressi...</text>
        <text x="600" y="560" font-family="Segoe UI, Arial, sans-serif" font-size="16" font-weight="600" fill="#f59e0b" text-anchor="middle" style="letter-spacing: 4px; text-transform: uppercase;">UI UX Powerhouse • Specialized Series</text>
    </svg>