<svg width="1200" height="600" viewBox="0 0 1200 600" xmlns="http://www.w3.org/2000/svg">
            <rect width="1200" height="600" fill="#0c4a6e"/><path d="M 502.10258325969335 13.832764122264507 L 489.14920904135215 63.83276412226451 L 520.4696699121087 113.8327641222645" stroke="#7dd3fc" fill="none" opacity="0.4"/>
                    <circle cx="502.10258325969335" cy="13.832764122264507" r="3" fill="#f43f5e"/><path d="M 1120.3409002639091 307.39033903882955 L 1110.9533269898748 357.39033903882955 L 1125.3330153050001 407.39033903882955" stroke="#7dd3fc" fill="none" opacity="0.4"/>
                    <circle cx="1120.3409002639091" cy="307.39033903882955" r="3" fill="#f43f5e"/><path d="M 311.57815876540553 25.653523220898933 L 300.9126882662713 75.65352322089893 L 314.4643324289973 125.65352322089893" stroke="#7dd3fc" fill="none" opacity="0.4"/>
                    <circle cx="311.57815876540553" cy="25.653523220898933" r="3" fill="#f43f5e"/><path d="M 358.91627031960525 23.70493353682832 L 323.8708401300755 73.70493353682832 L 334.24373578059203 123.70493353682832" stroke="#7dd3fc" fill="none" opacity="0.4"/>
                    <circle cx="358.91627031960525" cy="23.70493353682832" r="3" fill="#f43f5e"/><path d="M 1144.4141309860242 208.35666257771663 L 1133.0798814197806 258.35666257771663 L 1096.7169859301976 308.35666257771663" stroke="#7dd3fc" fill="none" opacity="0.4"/>
                    <circle cx="1144.4141309860242" cy="208.35666257771663" r="3" fill="#f43f5e"/><path d="M 1182.5941353752569 197.85256210598163 L 1215.9631221193195 247.85256210598163 L 1146.6572179297145 297.85256210598163" stroke="#7dd3fc" fill="none" opacity="0.4"/>
                    <circle cx="1182.5941353752569" cy="197.85256210598163" r="3" fill="#f43f5e"/><path d="M 808.7091022011009 229.22812367505685 L 824.099891624428 279.22812367505685 L 808.6278780124303 329.22812367505685" stroke="#7dd3fc" fill="none" opacity="0.4"/>
                    <circle cx="808.7091022011009" cy="229.22812367505685" r="3" fill="#f43f5e"/><path d="M 504.5598546239489 33.25447309898664 L 521.1103787230968 83.25447309898664 L 518.4479431814225 133.25447309898664" stroke="#7dd3fc" fill="none" opacity="0.4"/>
                    <circle cx="504.5598546239489" cy="33.25447309898664" r="3" fill="#f43f5e"/><path d="M 366.8658002933171 323.40871207998134 L 325.9475930345161 373.40871207998134 L 403.0789790460858 423.40871207998134" stroke="#7dd3fc" fill="none" opacity="0.4"/>
                    <circle cx="366.8658002933171" cy="323.40871207998134" r="3" fill="#f43f5e"/><path d="M 551.7444278564653 340.9141975827879 L 591.1727849174895 390.9141975827879 L 572.5185122872062 440.9141975827879" stroke="#7dd3fc" fill="none" opacity="0.4"/>
                    <circle cx="551.7444278564653" cy="340.9141975827879" r="3" fill="#f43f5e"/>
            <text x="600" y="520" font-family="Segoe UI, Arial, sans-serif" font-size="38" font-weight="800" fill="#ffffff" text-anchor="middle">Emotional AI in UI/UX: Designing Adaptive Interfaces That...</text>
            <text x="600" y="560" font-family="Segoe UI, Arial, sans-serif" font-size="16" font-weight="600" fill="#7dd3fc" text-anchor="middle" style="letter-spacing: 4px; text-transform: uppercase;">UI UX Powerhouse • Specialized Series</text>
        </svg>