<svg width="1200" height="600" viewBox="0 0 1200 600" xmlns="http://www.w3.org/2000/svg">
            <rect width="1200" height="600" fill="#111827"/><path d="M 1146.4230713936558 208.81882914800372 L 1183.4804838073069 258.8188291480037 L 1106.6359196187477 308.8188291480037" stroke="#10b981" fill="none" opacity="0.4"/>
                    <circle cx="1146.4230713936558" cy="208.81882914800372" r="3" fill="#fbbf24"/><path d="M 546.8191466265125 207.425844403042 L 579.7782691991728 257.425844403042 L 583.6317478358069 307.425844403042" stroke="#10b981" fill="none" opacity="0.4"/>
                    <circle cx="546.8191466265125" cy="207.425844403042" r="3" fill="#fbbf24"/><path d="M 477.42966411751695 148.329499918691 L 456.63870825410413 198.329499918691 L 442.4980385198978 248.329499918691" stroke="#10b981" fill="none" opacity="0.4"/>
                    <circle cx="477.42966411751695" cy="148.329499918691" r="3" fill="#fbbf24"/><path d="M 1116.591582365072 107.22756867835415 L 1115.0692632183564 157.22756867835415 L 1153.0028658710762 207.22756867835415" stroke="#10b981" fill="none" opacity="0.4"/>
                    <circle cx="1116.591582365072" cy="107.22756867835415" r="3" fill="#fbbf24"/><path d="M 101.07898574569845 206.52876810054295 L 127.30050359714369 256.52876810054295 L 94.66332739730206 306.52876810054295" stroke="#10b981" fill="none" opacity="0.4"/>
                    <circle cx="101.07898574569845" cy="206.52876810054295" r="3" fill="#fbbf24"/><path d="M 197.87367400167568 205.31041874564835 L 229.77560567342152 255.31041874564835 L 180.1155872988602 305.31041874564835" stroke="#10b981" fill="none" opacity="0.4"/>
                    <circle cx="197.87367400167568" cy="205.31041874564835" r="3" fill="#fbbf24"/><path d="M 178.28789416598738 365.39369460624584 L 199.08868885904667 415.39369460624584 L 210.49911694226466 465.39369460624584" stroke="#10b981" fill="none" opacity="0.4"/>
                    <circle cx="178.28789416598738" cy="365.39369460624584" r="3" fill="#fbbf24"/><path d="M 750.5198970251513 242.5752094051859 L 772.5639945680086 292.5752094051859 L 752.2827512502772 342.5752094051859" stroke="#10b981" fill="none" opacity="0.4"/>
                    <circle cx="750.5198970251513" cy="242.5752094051859" r="3" fill="#fbbf24"/><path d="M 360.9646217475529 117.54259938352334 L 361.99065155378776 167.54259938352334 L 360.9760034804367 217.54259938352334" stroke="#10b981" fill="none" opacity="0.4"/>
                    <circle cx="360.9646217475529" cy="117.54259938352334" r="3" fill="#fbbf24"/><path d="M 438.3050926728174 329.67537214753975 L 417.69497043470665 379.67537214753975 L 438.5173415790632 429.67537214753975" stroke="#10b981" fill="none" opacity="0.4"/>
                    <circle cx="438.3050926728174" cy="329.67537214753975" r="3" fill="#fbbf24"/>
            <text x="600" y="520" font-family="Segoe UI, Arial, sans-serif" font-size="38" font-weight="800" fill="#ffffff" text-anchor="middle">Emotionally Intelligent Interfaces: Leveraging AI-Driven ...</text>
            <text x="600" y="560" font-family="Segoe UI, Arial, sans-serif" font-size="16" font-weight="600" fill="#10b981" text-anchor="middle" style="letter-spacing: 4px; text-transform: uppercase;">UI UX Powerhouse • Specialized Series</text>
        </svg>