<svg width="1200" height="600" viewBox="0 0 1200 600" xmlns="http://www.w3.org/2000/svg">
            <rect width="1200" height="600" fill="#1e1b4b"/><rect x="150" y="294.33307805902587" width="60" height="55.666921940974134" fill="#f43f5e" opacity="0.6"/>
                    <rect x="170" y="274.33307805902587" width="60" height="55.666921940974134" fill="#fb7185" opacity="0.4" transform="skewY(-20)"/><rect x="270" y="237.55464449386636" width="60" height="112.44535550613364" fill="#f43f5e" opacity="0.6"/>
                    <rect x="290" y="217.55464449386636" width="60" height="112.44535550613364" fill="#fb7185" opacity="0.4" transform="skewY(-20)"/><rect x="390" y="118.72451030012598" width="60" height="231.27548969987402" fill="#f43f5e" opacity="0.6"/>
                    <rect x="410" y="98.72451030012598" width="60" height="231.27548969987402" fill="#fb7185" opacity="0.4" transform="skewY(-20)"/><rect x="510" y="247.49465517488716" width="60" height="102.50534482511284" fill="#f43f5e" opacity="0.6"/>
                    <rect x="530" y="227.49465517488716" width="60" height="102.50534482511284" fill="#fb7185" opacity="0.4" transform="skewY(-20)"/><rect x="630" y="145.65879391557246" width="60" height="204.34120608442754" fill="#f43f5e" opacity="0.6"/>
                    <rect x="650" y="125.65879391557246" width="60" height="204.34120608442754" fill="#fb7185" opacity="0.4" transform="skewY(-20)"/><rect x="750" y="189.15535566648032" width="60" height="160.84464433351968" fill="#f43f5e" opacity="0.6"/>
                    <rect x="770" y="169.15535566648032" width="60" height="160.84464433351968" fill="#fb7185" opacity="0.4" transform="skewY(-20)"/><rect x="870" y="219.45268890922307" width="60" height="130.54731109077693" fill="#f43f5e" opacity="0.6"/>
                    <rect x="890" y="199.45268890922307" width="60" height="130.54731109077693" fill="#fb7185" opacity="0.4" transform="skewY(-20)"/><rect x="990" y="268.06625793569765" width="60" height="81.93374206430235" fill="#f43f5e" opacity="0.6"/>
                    <rect x="1010" y="248.06625793569765" width="60" height="81.93374206430235" fill="#fb7185" opacity="0.4" transform="skewY(-20)"/>
            <text x="600" y="520" font-family="Segoe UI, Arial, sans-serif" font-size="38" font-weight="800" fill="#ffffff" text-anchor="middle">Emotionally-Aware Interfaces: Harnessing AI for Empatheti...</text>
            <text x="600" y="560" font-family="Segoe UI, Arial, sans-serif" font-size="16" font-weight="600" fill="#f43f5e" text-anchor="middle" style="letter-spacing: 4px; text-transform: uppercase;">UI UX Powerhouse • Specialized Series</text>
        </svg>