<svg width="1200" height="600" viewBox="0 0 1200 600" xmlns="http://www.w3.org/2000/svg">
            <rect width="1200" height="600" fill="#0c4a6e"/><circle cx="896.2242738030909" cy="337.23862316837767" r="17.158453517840826" fill="#7dd3fc" opacity="0.1"/><circle cx="240.66821747546783" cy="364.5815161929022" r="19.29394734717789" fill="#7dd3fc" opacity="0.1"/><circle cx="232.9002429578395" cy="239.08609977861488" r="27.77286978362099" fill="#7dd3fc" opacity="0.1"/><circle cx="1004.6294874267915" cy="135.2301793449442" r="16.478267602724372" fill="#7dd3fc" opacity="0.1"/><circle cx="994.4920964870107" cy="279.4534780694903" r="14.89329968673701" fill="#7dd3fc" opacity="0.1"/><circle cx="310.5045933180918" cy="311.76990622043377" r="32.225490779856045" fill="#7dd3fc" opacity="0.1"/><circle cx="77.85606397519587" cy="191.25940869148508" r="23.454444803974184" fill="#7dd3fc" opacity="0.1"/><circle cx="168.1151471188059" cy="377.6779362997331" r="25.31725764274597" fill="#7dd3fc" opacity="0.1"/><circle cx="26.53604014594748" cy="212.45901296570082" r="27.072161121977842" fill="#7dd3fc" opacity="0.1"/><circle cx="716.8031610490289" cy="179.04108739676303" r="26.849975423956494" fill="#7dd3fc" opacity="0.1"/><circle cx="562.4771843411509" cy="107.14729926694417" r="24.554196435474296" fill="#7dd3fc" opacity="0.1"/><circle cx="193.758461397465" cy="47.487426728912396" r="20.872650503055468" fill="#7dd3fc" opacity="0.1"/><circle cx="19.40973686578218" cy="129.6198886269167" r="15.456756050116383" fill="#7dd3fc" opacity="0.1"/><circle cx="836.051274138299" cy="149.3610260047717" r="10.823678944070707" fill="#7dd3fc" opacity="0.1"/><circle cx="530.6860950611735" cy="352.0716304650705" r="11.552110376651399" fill="#7dd3fc" opacity="0.1"/><circle cx="455.91726636539534" cy="346.5758658847335" r="18.807622825406725" fill="#7dd3fc" opacity="0.1"/><circle cx="51.97866931994213" cy="132.42507010763802" r="40.661754242973984" fill="#7dd3fc" opacity="0.1"/><circle cx="202.9545101666372" cy="236.5328511689995" r="45.87775381824031" fill="#7dd3fc" opacity="0.1"/><circle cx="287.6182004734801" cy="370.7614953404118" r="24.304695676364645" fill="#7dd3fc" opacity="0.1"/><circle cx="759.8706738870533" cy="360.9633611762547" r="37.851750942718354" fill="#7dd3fc" opacity="0.1"/><circle cx="685.8130463580892" cy="236.24138236336876" r="43.585009709277074" fill="#7dd3fc" opacity="0.1"/><circle cx="90.22792427640525" cy="291.8111250211041" r="12.352055403971463" fill="#7dd3fc" opacity="0.1"/><circle cx="286.8941017142788" cy="390.35027448117035" r="34.470852390440996" fill="#7dd3fc" opacity="0.1"/><circle cx="582.7792296971893" cy="279.3716974238123" r="31.95559992469498" fill="#7dd3fc" opacity="0.1"/><circle cx="527.712604647877" cy="229.77353827955085" r="23.071607336969464" fill="#7dd3fc" opacity="0.1"/><circle cx="1069.9973707232857" cy="78.10016341463779" r="38.905976927035226" fill="#7dd3fc" opacity="0.1"/><circle cx="188.03202113704174" cy="6.894275403828942" r="31.668870536486793" fill="#7dd3fc" opacity="0.1"/><circle cx="162.02736369123159" cy="297.8875829408935" r="47.45388569241186" fill="#7dd3fc" opacity="0.1"/><circle cx="1142.482780942555" cy="16.426815315935528" r="44.80900512862718" fill="#7dd3fc" opacity="0.1"/><circle cx="370.2382492621837" cy="348.44536659620644" r="25.500891997980943" fill="#7dd3fc" opacity="0.1"/>
            <text x="600" y="520" font-family="Segoe UI, Arial, sans-serif" font-size="38" font-weight="800" fill="#ffffff" text-anchor="middle">Emotional AI in UI/UX Design: Crafting Adaptive Experienc...</text>
            <text x="600" y="560" font-family="Segoe UI, Arial, sans-serif" font-size="16" font-weight="600" fill="#7dd3fc" text-anchor="middle" style="letter-spacing: 4px; text-transform: uppercase;">UI UX Powerhouse • Specialized Series</text>
        </svg>