<svg width="1200" height="600" viewBox="0 0 1200 600" xmlns="http://www.w3.org/2000/svg">
            <rect width="1200" height="600" fill="#171717"/><rect x="150" y="237.51292913439102" width="60" height="112.48707086560898" fill="#f59e0b" opacity="0.6"/>
                    <rect x="170" y="217.51292913439102" width="60" height="112.48707086560898" fill="#fbbf24" opacity="0.4" transform="skewY(-20)"/><rect x="270" y="219.57396941097613" width="60" height="130.42603058902387" fill="#f59e0b" opacity="0.6"/>
                    <rect x="290" y="199.57396941097613" width="60" height="130.42603058902387" fill="#fbbf24" opacity="0.4" transform="skewY(-20)"/><rect x="390" y="268.859460476142" width="60" height="81.14053952385802" fill="#f59e0b" opacity="0.6"/>
                    <rect x="410" y="248.85946047614198" width="60" height="81.14053952385802" fill="#fbbf24" opacity="0.4" transform="skewY(-20)"/><rect x="510" y="226.4997156584286" width="60" height="123.50028434157139" fill="#f59e0b" opacity="0.6"/>
                    <rect x="530" y="206.4997156584286" width="60" height="123.50028434157139" fill="#fbbf24" opacity="0.4" transform="skewY(-20)"/><rect x="630" y="171.34734191358802" width="60" height="178.65265808641198" fill="#f59e0b" opacity="0.6"/>
                    <rect x="650" y="151.34734191358802" width="60" height="178.65265808641198" fill="#fbbf24" opacity="0.4" transform="skewY(-20)"/><rect x="750" y="299.90402340299624" width="60" height="50.095976597003755" fill="#f59e0b" opacity="0.6"/>
                    <rect x="770" y="279.90402340299624" width="60" height="50.095976597003755" fill="#fbbf24" opacity="0.4" transform="skewY(-20)"/><rect x="870" y="257.25335526585695" width="60" height="92.74664473414305" fill="#f59e0b" opacity="0.6"/>
                    <rect x="890" y="237.25335526585695" width="60" height="92.74664473414305" fill="#fbbf24" opacity="0.4" transform="skewY(-20)"/><rect x="990" y="164.2397960604285" width="60" height="185.7602039395715" fill="#f59e0b" opacity="0.6"/>
                    <rect x="1010" y="144.2397960604285" width="60" height="185.7602039395715" fill="#fbbf24" opacity="0.4" transform="skewY(-20)"/>
            <text x="600" y="520" font-family="Segoe UI, Arial, sans-serif" font-size="38" font-weight="800" fill="#ffffff" text-anchor="middle">Emotional Intelligence in AI-Driven UI/UX: Designing Inte...</text>
            <text x="600" y="560" font-family="Segoe UI, Arial, sans-serif" font-size="16" font-weight="600" fill="#f59e0b" text-anchor="middle" style="letter-spacing: 4px; text-transform: uppercase;">UI UX Powerhouse • Specialized Series</text>
        </svg>