<svg width="1200" height="600" viewBox="0 0 1200 600" xmlns="http://www.w3.org/2000/svg">
            <rect width="1200" height="600" fill="#111827"/><circle cx="283.06725596412434" cy="71.65961363807583" r="32.63068345546344" fill="#10b981" opacity="0.1"/><circle cx="148.63326325939852" cy="381.58742833547876" r="28.09186357062572" fill="#10b981" opacity="0.1"/><circle cx="442.0394507353194" cy="184.32438445306616" r="15.429368421837353" fill="#10b981" opacity="0.1"/><circle cx="322.60008617340645" cy="399.3180234640022" r="47.82201813193751" fill="#10b981" opacity="0.1"/><circle cx="1058.6164483151151" cy="367.03656287063495" r="39.55704034747214" fill="#10b981" opacity="0.1"/><circle cx="838.007413084415" cy="170.21211518731434" r="20.22353371520694" fill="#10b981" opacity="0.1"/><circle cx="350.7541059515347" cy="198.65268789690163" r="12.200781441497384" fill="#10b981" opacity="0.1"/><circle cx="478.1471952337597" cy="330.0171981616586" r="29.97291896313982" fill="#10b981" opacity="0.1"/><circle cx="681.4421435403347" cy="64.30350037189783" r="39.126126671562815" fill="#10b981" opacity="0.1"/><circle cx="812.6304341574723" cy="279.7068203042727" r="46.12687244756671" fill="#10b981" opacity="0.1"/><circle cx="369.7639894504391" cy="260.27789149666205" r="44.248089622487896" fill="#10b981" opacity="0.1"/><circle cx="523.2103582365426" cy="13.508596910105553" r="31.077102738254325" fill="#10b981" opacity="0.1"/><circle cx="831.0116921144072" cy="213.6015469324775" r="23.541124199127808" fill="#10b981" opacity="0.1"/><circle cx="505.34029790105706" cy="52.220852207392454" r="38.71437568741385" fill="#10b981" opacity="0.1"/><circle cx="1025.363009574994" cy="339.26482506467437" r="10.654570162460004" fill="#10b981" opacity="0.1"/><circle cx="47.09256377473139" cy="82.27199770026346" r="41.03488996341184" fill="#10b981" opacity="0.1"/><circle cx="714.5139201347774" cy="197.2371333744377" r="35.13421834111796" fill="#10b981" opacity="0.1"/><circle cx="439.0453588872333" cy="330.1812120636896" r="43.252191027786466" fill="#10b981" opacity="0.1"/><circle cx="67.05232860185788" cy="170.86740662313105" r="43.20618640995235" fill="#10b981" opacity="0.1"/><circle cx="613.0153166133823" cy="9.061861306327046" r="40.14465211919742" fill="#10b981" opacity="0.1"/><circle cx="520.3647211743373" cy="134.95949173011468" r="16.47211145660549" fill="#10b981" opacity="0.1"/><circle cx="190.19111841153062" cy="397.85322745992744" r="42.60349433236115" fill="#10b981" opacity="0.1"/><circle cx="1190.5094952810032" cy="376.1220953485463" r="33.61112757151204" fill="#10b981" opacity="0.1"/><circle cx="617.597152588678" cy="314.0713662447524" r="20.75157284467423" fill="#10b981" opacity="0.1"/><circle cx="467.5738353122142" cy="166.1256146053347" r="28.40318773414765" fill="#10b981" opacity="0.1"/><circle cx="1059.191227901465" cy="29.393887864716817" r="38.88771266778349" fill="#10b981" opacity="0.1"/><circle cx="907.3239688601461" cy="107.80653978799819" r="35.02635645396367" fill="#10b981" opacity="0.1"/><circle cx="461.3056258429424" cy="103.07484920558636" r="43.58862687669898" fill="#10b981" opacity="0.1"/><circle cx="57.13171650213553" cy="209.68951611212105" r="40.50774216524587" fill="#10b981" opacity="0.1"/><circle cx="982.5147191604628" cy="241.16595795076137" r="15.55463119657361" fill="#10b981" opacity="0.1"/>
            <text x="600" y="520" font-family="Segoe UI, Arial, sans-serif" font-size="38" font-weight="800" fill="#ffffff" text-anchor="middle">Emotional AI in UX Design: Crafting Adaptive User Journey...</text>
            <text x="600" y="560" font-family="Segoe UI, Arial, sans-serif" font-size="16" font-weight="600" fill="#10b981" text-anchor="middle" style="letter-spacing: 4px; text-transform: uppercase;">UI UX Powerhouse • Specialized Series</text>
        </svg>