<svg width="1200" height="600" viewBox="0 0 1200 600" xmlns="http://www.w3.org/2000/svg">
            <rect width="1200" height="600" fill="#0c4a6e"/><circle cx="428.9366596684431" cy="343.4457928076881" r="46.448940701016" fill="#7dd3fc" opacity="0.1"/><circle cx="325.09897079798975" cy="282.6805074487311" r="26.567195396473835" fill="#7dd3fc" opacity="0.1"/><circle cx="559.6190105585265" cy="89.67857327006641" r="17.29906701551954" fill="#7dd3fc" opacity="0.1"/><circle cx="996.5109964894509" cy="7.668033302252297" r="40.28681746320217" fill="#7dd3fc" opacity="0.1"/><circle cx="466.9464956372394" cy="44.376764552725945" r="45.722681423785616" fill="#7dd3fc" opacity="0.1"/><circle cx="520.5284106377803" cy="392.16270029573934" r="35.253047939695534" fill="#7dd3fc" opacity="0.1"/><circle cx="19.024998643726576" cy="276.3650988548761" r="20.200882358840317" fill="#7dd3fc" opacity="0.1"/><circle cx="126.5670872933697" cy="395.22941501636524" r="26.934793158361572" fill="#7dd3fc" opacity="0.1"/><circle cx="884.5088304093224" cy="363.1160123171867" r="34.062596221701824" fill="#7dd3fc" opacity="0.1"/><circle cx="548.7510893210128" cy="252.22734384296928" r="29.17145062046984" fill="#7dd3fc" opacity="0.1"/><circle cx="750.0676942254358" cy="263.19146851674304" r="27.48582070151315" fill="#7dd3fc" opacity="0.1"/><circle cx="721.42960838828" cy="129.216313942743" r="25.211712084856117" fill="#7dd3fc" opacity="0.1"/><circle cx="178.1830965205245" cy="344.5473462694281" r="30.298512719236896" fill="#7dd3fc" opacity="0.1"/><circle cx="1107.8410397676635" cy="9.140293154632673" r="19.251521975456853" fill="#7dd3fc" opacity="0.1"/><circle cx="895.1002658352081" cy="59.91609976008476" r="42.100804214860545" fill="#7dd3fc" opacity="0.1"/><circle cx="1046.2124675814266" cy="195.62850000875187" r="39.49968150816858" fill="#7dd3fc" opacity="0.1"/><circle cx="909.5296336544379" cy="205.30741939583095" r="36.074259189008444" fill="#7dd3fc" opacity="0.1"/><circle cx="767.06251200103" cy="171.7542787651837" r="25.376589218108165" fill="#7dd3fc" opacity="0.1"/><circle cx="848.7020929038408" cy="8.077033430890879" r="37.675640014203964" fill="#7dd3fc" opacity="0.1"/><circle cx="356.37263836142665" cy="108.18272738833912" r="48.35868616741209" fill="#7dd3fc" opacity="0.1"/><circle cx="285.3593890911725" cy="79.54844284081446" r="43.83159141041688" fill="#7dd3fc" opacity="0.1"/><circle cx="36.21074921102263" cy="173.39090913555992" r="33.63534762793279" fill="#7dd3fc" opacity="0.1"/><circle cx="819.3130816624034" cy="107.11295893961505" r="37.29706309190078" fill="#7dd3fc" opacity="0.1"/><circle cx="885.2337236676249" cy="395.5994601792554" r="20.030692228283442" fill="#7dd3fc" opacity="0.1"/><circle cx="956.9622446931589" cy="378.8628680878901" r="40.95124753046548" fill="#7dd3fc" opacity="0.1"/><circle cx="345.5882577858574" cy="359.6294231912907" r="15.489453004629468" fill="#7dd3fc" opacity="0.1"/><circle cx="746.2440325632997" cy="19.854454287997214" r="34.068329425033426" fill="#7dd3fc" opacity="0.1"/><circle cx="236.41484476866026" cy="363.1311931602795" r="21.855369488330325" fill="#7dd3fc" opacity="0.1"/><circle cx="1184.012765793932" cy="263.3086815374554" r="38.35691825970571" fill="#7dd3fc" opacity="0.1"/><circle cx="97.7694065994001" cy="79.64461793671944" r="26.686327498027822" fill="#7dd3fc" opacity="0.1"/>
            <text x="600" y="520" font-family="Segoe UI, Arial, sans-serif" font-size="38" font-weight="800" fill="#ffffff" text-anchor="middle">Emotional AI in UI/UX Design: Crafting Adaptive Interface...</text>
            <text x="600" y="560" font-family="Segoe UI, Arial, sans-serif" font-size="16" font-weight="600" fill="#7dd3fc" text-anchor="middle" style="letter-spacing: 4px; text-transform: uppercase;">UI UX Powerhouse • Specialized Series</text>
        </svg>