<svg width="1200" height="600" viewBox="0 0 1200 600" xmlns="http://www.w3.org/2000/svg">
            <rect width="1200" height="600" fill="#0f172a"/><circle cx="895.9598092198576" cy="49.246200311608845" r="26.706624606449623" fill="#38bdf8" opacity="0.1"/><circle cx="839.9384836920945" cy="255.23765883226588" r="42.956799369894725" fill="#38bdf8" opacity="0.1"/><circle cx="837.7657250826815" cy="205.99532300020655" r="35.32830226358783" fill="#38bdf8" opacity="0.1"/><circle cx="485.46718367106223" cy="140.49103498909972" r="41.60732101419853" fill="#38bdf8" opacity="0.1"/><circle cx="384.1788042713233" cy="346.89250422206896" r="48.35368832551467" fill="#38bdf8" opacity="0.1"/><circle cx="594.4390764603668" cy="269.43985515354143" r="42.04750883869565" fill="#38bdf8" opacity="0.1"/><circle cx="264.969519963779" cy="106.26579681775183" r="44.41233845029274" fill="#38bdf8" opacity="0.1"/><circle cx="161.54076339225867" cy="272.23381143194274" r="22.633512503014117" fill="#38bdf8" opacity="0.1"/><circle cx="700.5028909137764" cy="159.56144279043656" r="19.339043523432338" fill="#38bdf8" opacity="0.1"/><circle cx="771.3707199948431" cy="231.11503593827365" r="45.36737276779604" fill="#38bdf8" opacity="0.1"/><circle cx="709.136299140664" cy="372.4756159565004" r="47.8831407189864" fill="#38bdf8" opacity="0.1"/><circle cx="130.49787592462962" cy="164.5407846888702" r="10.929374411025492" fill="#38bdf8" opacity="0.1"/><circle cx="1119.111813935524" cy="301.9308980037749" r="28.035478585588862" fill="#38bdf8" opacity="0.1"/><circle cx="369.54679964255774" cy="91.90744728402933" r="42.780791251789196" fill="#38bdf8" opacity="0.1"/><circle cx="946.7502547571712" cy="0.8311806102938135" r="28.994791738255117" fill="#38bdf8" opacity="0.1"/><circle cx="13.357049314799951" cy="40.2463610531413" r="17.02413936436642" fill="#38bdf8" opacity="0.1"/><circle cx="625.8902748988476" cy="68.16817144208471" r="38.96672960607248" fill="#38bdf8" opacity="0.1"/><circle cx="173.78894631110597" cy="137.80502225708915" r="12.47340724177775" fill="#38bdf8" opacity="0.1"/><circle cx="545.5674612050643" cy="261.4159631593793" r="46.36425866818172" fill="#38bdf8" opacity="0.1"/><circle cx="471.3670100007221" cy="255.77299629803747" r="49.89433514925622" fill="#38bdf8" opacity="0.1"/><circle cx="854.2515366658336" cy="171.30365218945371" r="12.102402920609165" fill="#38bdf8" opacity="0.1"/><circle cx="667.2529324569041" cy="249.52339858282357" r="14.008148856737535" fill="#38bdf8" opacity="0.1"/><circle cx="1052.7577693475905" cy="101.5833351695619" r="27.86725262125401" fill="#38bdf8" opacity="0.1"/><circle cx="1009.9097580103262" cy="51.61229137374903" r="23.520593226021447" fill="#38bdf8" opacity="0.1"/><circle cx="1056.6875688777145" cy="338.0957198343822" r="32.206473418846144" fill="#38bdf8" opacity="0.1"/><circle cx="150.70311914532795" cy="217.71955853546388" r="10.974397988047713" fill="#38bdf8" opacity="0.1"/><circle cx="379.4150140554848" cy="310.6757558241952" r="46.27305852314748" fill="#38bdf8" opacity="0.1"/><circle cx="37.91985647549154" cy="212.943466220986" r="23.629042780812597" fill="#38bdf8" opacity="0.1"/><circle cx="11.223474274083856" cy="44.83344347027014" r="17.654736033236986" fill="#38bdf8" opacity="0.1"/><circle cx="304.3267209613987" cy="14.99479914928088" r="32.44191593679716" fill="#38bdf8" opacity="0.1"/>
            <text x="600" y="520" font-family="Segoe UI, Arial, sans-serif" font-size="38" font-weight="800" fill="#ffffff" text-anchor="middle">Emotional AI: Designing Interfaces that Adapt to User Moo...</text>
            <text x="600" y="560" font-family="Segoe UI, Arial, sans-serif" font-size="16" font-weight="600" fill="#38bdf8" text-anchor="middle" style="letter-spacing: 4px; text-transform: uppercase;">UI UX Powerhouse • Specialized Series</text>
        </svg>