<svg width="1200" height="600" viewBox="0 0 1200 600" xmlns="http://www.w3.org/2000/svg">
        <rect width="1200" height="600" fill="#0c4a6e"/><path d="M 835.1127188187093 8.901622163830325 L 861.8381841647306 58.901622163830325 L 790.5087592824202 108.90162216383033" stroke="#7dd3fc" fill="none" opacity="0.4"/>
                    <circle cx="835.1127188187093" cy="8.901622163830325" r="3" fill="#f43f5e"/><path d="M 1186.128715216546 92.49692715529818 L 1175.6469036615272 142.49692715529818 L 1150.4431930394276 192.49692715529818" stroke="#7dd3fc" fill="none" opacity="0.4"/>
                    <circle cx="1186.128715216546" cy="92.49692715529818" r="3" fill="#f43f5e"/><path d="M 904.1908942766895 224.4336074736566 L 917.7186164579325 274.4336074736566 L 860.9569427202587 324.4336074736566" stroke="#7dd3fc" fill="none" opacity="0.4"/>
                    <circle cx="904.1908942766895" cy="224.4336074736566" r="3" fill="#f43f5e"/><path d="M 838.7437260058505 64.70479189229081 L 851.3212607803325 114.70479189229081 L 858.9595756129711 164.7047918922908" stroke="#7dd3fc" fill="none" opacity="0.4"/>
                    <circle cx="838.7437260058505" cy="64.70479189229081" r="3" fill="#f43f5e"/><path d="M 901.6235685532592 209.82542820620438 L 864.6552735714522 259.8254282062044 L 941.5348068778258 309.8254282062044" stroke="#7dd3fc" fill="none" opacity="0.4"/>
                    <circle cx="901.6235685532592" cy="209.82542820620438" r="3" fill="#f43f5e"/><path d="M 767.3748393932328 358.79057239853864 L 748.9743349973651 408.79057239853864 L 720.1284764541924 458.79057239853864" stroke="#7dd3fc" fill="none" opacity="0.4"/>
                    <circle cx="767.3748393932328" cy="358.79057239853864" r="3" fill="#f43f5e"/><path d="M 56.98801623220788 275.80318263753725 L 94.08540440072102 325.80318263753725 L 106.43619784896146 375.80318263753725" stroke="#7dd3fc" fill="none" opacity="0.4"/>
                    <circle cx="56.98801623220788" cy="275.80318263753725" r="3" fill="#f43f5e"/><path d="M 866.187459120556 71.92927866926766 L 822.8494025770487 121.92927866926766 L 822.0675402928464 171.92927866926766" stroke="#7dd3fc" fill="none" opacity="0.4"/>
                    <circle cx="866.187459120556" cy="71.92927866926766" r="3" fill="#f43f5e"/><path d="M 323.40641434821293 32.10159193477011 L 361.6566916527546 82.10159193477011 L 332.3792886198163 132.1015919347701" stroke="#7dd3fc" fill="none" opacity="0.4"/>
                    <circle cx="323.40641434821293" cy="32.10159193477011" r="3" fill="#f43f5e"/><path d="M 38.96810373844346 37.92719079137896 L 54.38884079317177 87.92719079137896 L 29.370188641860295 137.92719079137896" stroke="#7dd3fc" fill="none" opacity="0.4"/>
                    <circle cx="38.96810373844346" cy="37.92719079137896" r="3" fill="#f43f5e"/>
        <text x="600" y="520" font-family="Segoe UI, Arial, sans-serif" font-size="38" font-weight="800" fill="#ffffff" text-anchor="middle">Enhancing Data Visualization Accessibility: Implementing ...</text>
        <text x="600" y="560" font-family="Segoe UI, Arial, sans-serif" font-size="16" font-weight="600" fill="#7dd3fc" text-anchor="middle" style="letter-spacing: 4px; text-transform: uppercase;">UI UX Powerhouse • Specialized Series</text>
    </svg>