<svg width="1200" height="600" viewBox="0 0 1200 600" xmlns="http://www.w3.org/2000/svg">
        <rect width="1200" height="600" fill="#111827"/><circle cx="424.9454336175404" cy="339.0890484475676" r="13.114197427421459" fill="#10b981" opacity="0.1"/><circle cx="807.442411845841" cy="330.3673808433814" r="42.40561969047121" fill="#10b981" opacity="0.1"/><circle cx="570.194456349418" cy="157.12233609701798" r="11.129822599177714" fill="#10b981" opacity="0.1"/><circle cx="120.37201494858891" cy="8.192921910085715" r="29.724745884959702" fill="#10b981" opacity="0.1"/><circle cx="433.5851637661108" cy="182.33571049859165" r="35.52562372351531" fill="#10b981" opacity="0.1"/><circle cx="1192.1689001745108" cy="222.12527814263012" r="32.58275900176159" fill="#10b981" opacity="0.1"/><circle cx="139.54786384420004" cy="134.83873026707442" r="39.19757776595361" fill="#10b981" opacity="0.1"/><circle cx="895.0411260011606" cy="394.9015917226461" r="28.721223540924257" fill="#10b981" opacity="0.1"/><circle cx="414.8829490484786" cy="244.41799800042645" r="41.785186989363865" fill="#10b981" opacity="0.1"/><circle cx="933.7728009676539" cy="88.71646173429326" r="23.27384215692291" fill="#10b981" opacity="0.1"/><circle cx="306.36719079629984" cy="174.04634180420544" r="36.912117287138244" fill="#10b981" opacity="0.1"/><circle cx="1180.2178647762048" cy="1.3859246275387704" r="33.101633464048064" fill="#10b981" opacity="0.1"/><circle cx="126.32233514887048" cy="358.97288539781584" r="13.926392773828411" fill="#10b981" opacity="0.1"/><circle cx="1095.9175035895896" cy="346.30813163930725" r="42.348334134949255" fill="#10b981" opacity="0.1"/><circle cx="430.0720941115287" cy="261.3103923507879" r="39.14564655698996" fill="#10b981" opacity="0.1"/><circle cx="360.50971040458535" cy="237.5072172471846" r="17.81759076868184" fill="#10b981" opacity="0.1"/><circle cx="708.256520379291" cy="157.1519212324347" r="29.70785449637333" fill="#10b981" opacity="0.1"/><circle cx="30.89519257118809" cy="36.78039352744236" r="45.55721817265294" fill="#10b981" opacity="0.1"/><circle cx="129.68281006251345" cy="21.969012603585725" r="43.932495208937326" fill="#10b981" opacity="0.1"/><circle cx="116.33961895859102" cy="376.69183017369505" r="35.50802186484361" fill="#10b981" opacity="0.1"/><circle cx="658.6211231140624" cy="173.97767001020839" r="46.86803843895177" fill="#10b981" opacity="0.1"/><circle cx="1043.832944648966" cy="87.51939804496942" r="22.494723472373153" fill="#10b981" opacity="0.1"/><circle cx="921.9401228360255" cy="86.99195202934789" r="43.11807991871319" fill="#10b981" opacity="0.1"/><circle cx="645.3301704339538" cy="222.3285004387435" r="15.53319588805607" fill="#10b981" opacity="0.1"/><circle cx="611.2298449428636" cy="229.17148095802986" r="13.182606174286775" fill="#10b981" opacity="0.1"/><circle cx="196.42802813377784" cy="330.62619547345093" r="17.665551340105594" fill="#10b981" opacity="0.1"/><circle cx="270.21118491029483" cy="383.096976755769" r="15.29303633593372" fill="#10b981" opacity="0.1"/><circle cx="200.8322057703026" cy="344.39617768584867" r="36.593526904389364" fill="#10b981" opacity="0.1"/><circle cx="662.6126635601395" cy="33.73727684602272" r="40.159804134200385" fill="#10b981" opacity="0.1"/><circle cx="541.6756830319173" cy="361.66775580750254" r="25.012929703189002" fill="#10b981" opacity="0.1"/>
        <text x="600" y="520" font-family="Segoe UI, Arial, sans-serif" font-size="38" font-weight="800" fill="#ffffff" text-anchor="middle">Enhancing User Interaction with Multi-Touch Gesture Detec...</text>
        <text x="600" y="560" font-family="Segoe UI, Arial, sans-serif" font-size="16" font-weight="600" fill="#10b981" text-anchor="middle" style="letter-spacing: 4px; text-transform: uppercase;">UI UX Powerhouse • Specialized Series</text>
    </svg>