<svg width="1200" height="600" viewBox="0 0 1200 600" xmlns="http://www.w3.org/2000/svg">
        
            <rect width="1200" height="600" fill="#312e81"/>
            <line x1="824.7973105222627" y1="110.68497421929351" x2="260.4257062946999" y2="267.00860619093874" stroke="#818cf8" stroke-width="0.5" opacity="0.4"/><line x1="824.7973105222627" y1="110.68497421929351" x2="264.18237418292847" y2="192.8869361814577" stroke="#818cf8" stroke-width="0.5" opacity="0.4"/><line x1="824.7973105222627" y1="110.68497421929351" x2="68.69921830111707" y2="33.78300606202629" stroke="#818cf8" stroke-width="0.5" opacity="0.4"/><line x1="824.7973105222627" y1="110.68497421929351" x2="1054.5553848089185" y2="308.77484318716597" stroke="#818cf8" stroke-width="0.5" opacity="0.4"/><line x1="1120.5215087604302" y1="268.5003026959748" x2="673.642303183442" y2="48.09602054010611" stroke="#818cf8" stroke-width="0.5" opacity="0.4"/><line x1="1120.5215087604302" y1="268.5003026959748" x2="68.69921830111707" y2="33.78300606202629" stroke="#818cf8" stroke-width="0.5" opacity="0.4"/><line x1="1120.5215087604302" y1="268.5003026959748" x2="340.8356374769937" y2="34.047965762147214" stroke="#818cf8" stroke-width="0.5" opacity="0.4"/><line x1="1120.5215087604302" y1="268.5003026959748" x2="426.432089642185" y2="333.05980170734983" stroke="#818cf8" stroke-width="0.5" opacity="0.4"/><line x1="673.642303183442" y1="48.09602054010611" x2="39.6964744082652" y2="389.4438097227976" stroke="#818cf8" stroke-width="0.5" opacity="0.4"/><line x1="673.642303183442" y1="48.09602054010611" x2="933.4424625050815" y2="56.129010143558844" stroke="#818cf8" stroke-width="0.5" opacity="0.4"/><line x1="260.4257062946999" y1="267.00860619093874" x2="39.6964744082652" y2="389.4438097227976" stroke="#818cf8" stroke-width="0.5" opacity="0.4"/><line x1="260.4257062946999" y1="267.00860619093874" x2="264.18237418292847" y2="192.8869361814577" stroke="#818cf8" stroke-width="0.5" opacity="0.4"/><line x1="260.4257062946999" y1="267.00860619093874" x2="933.4424625050815" y2="56.129010143558844" stroke="#818cf8" stroke-width="0.5" opacity="0.4"/><line x1="260.4257062946999" y1="267.00860619093874" x2="226.1251460578933" y2="230.38116672832984" stroke="#818cf8" stroke-width="0.5" opacity="0.4"/><line x1="39.6964744082652" y1="389.4438097227976" x2="933.4424625050815" y2="56.129010143558844" stroke="#818cf8" stroke-width="0.5" opacity="0.4"/><line x1="39.6964744082652" y1="389.4438097227976" x2="226.1251460578933" y2="230.38116672832984" stroke="#818cf8" stroke-width="0.5" opacity="0.4"/><line x1="933.4424625050815" y1="56.129010143558844" x2="226.1251460578933" y2="230.38116672832984" stroke="#818cf8" stroke-width="0.5" opacity="0.4"/><line x1="68.69921830111707" y1="33.78300606202629" x2="340.8356374769937" y2="34.047965762147214" stroke="#818cf8" stroke-width="0.5" opacity="0.4"/><line x1="68.69921830111707" y1="33.78300606202629" x2="226.1251460578933" y2="230.38116672832984" stroke="#818cf8" stroke-width="0.5" opacity="0.4"/><line x1="68.69921830111707" y1="33.78300606202629" x2="426.432089642185" y2="333.05980170734983" stroke="#818cf8" stroke-width="0.5" opacity="0.4"/><line x1="68.69921830111707" y1="33.78300606202629" x2="1054.5553848089185" y2="308.77484318716597" stroke="#818cf8" stroke-width="0.5" opacity="0.4"/><line x1="426.432089642185" y1="333.05980170734983" x2="1054.5553848089185" y2="308.77484318716597" stroke="#818cf8" stroke-width="0.5" opacity="0.4"/>
            <circle cx="824.7973105222627" cy="110.68497421929351" r="5.332592918357477" fill="#fcd34d" opacity="0.6"/><circle cx="1120.5215087604302" cy="268.5003026959748" r="4.040792494386551" fill="#fcd34d" opacity="0.6"/><circle cx="673.642303183442" cy="48.09602054010611" r="3.541079210666794" fill="#fcd34d" opacity="0.6"/><circle cx="260.4257062946999" cy="267.00860619093874" r="5.678823891837965" fill="#fcd34d" opacity="0.6"/><circle cx="39.6964744082652" cy="389.4438097227976" r="2.8952435800274543" fill="#fcd34d" opacity="0.6"/><circle cx="264.18237418292847" cy="192.8869361814577" r="3.6704178095969837" fill="#fcd34d" opacity="0.6"/><circle cx="933.4424625050815" cy="56.129010143558844" r="4.016529682507098" fill="#fcd34d" opacity="0.6"/><circle cx="68.69921830111707" cy="33.78300606202629" r="5.634491489381617" fill="#fcd34d" opacity="0.6"/><circle cx="340.8356374769937" cy="34.047965762147214" r="2.6096067911730643" fill="#fcd34d" opacity="0.6"/><circle cx="226.1251460578933" cy="230.38116672832984" r="5.172579597186996" fill="#fcd34d" opacity="0.6"/><circle cx="426.432089642185" cy="333.05980170734983" r="3.1663091713780886" fill="#fcd34d" opacity="0.6"/><circle cx="1054.5553848089185" cy="308.77484318716597" r="3.836585058545097" fill="#fcd34d" opacity="0.6"/>
        
        <text x="600" y="520" font-family="Segoe UI, Arial, sans-serif" font-size="38" font-weight="800" fill="#ffffff" text-anchor="middle">Enhancing Data Table Usability: Advanced Interaction Patt...</text>
        <text x="600" y="560" font-family="Segoe UI, Arial, sans-serif" font-size="16" font-weight="600" fill="#818cf8" text-anchor="middle" style="letter-spacing: 4px; text-transform: uppercase;">UI UX Powerhouse • Intelligence in Design</text>
    </svg>