<svg width="1200" height="600" viewBox="0 0 1200 600" xmlns="http://www.w3.org/2000/svg">
            <rect width="1200" height="600" fill="#1e1b4b"/><rect x="150" y="295.30220554297557" width="60" height="54.69779445702443" fill="#f43f5e" opacity="0.6"/>
                    <rect x="170" y="275.30220554297557" width="60" height="54.69779445702443" fill="#fb7185" opacity="0.4" transform="skewY(-20)"/><rect x="270" y="289.158880881223" width="60" height="60.84111911877699" fill="#f43f5e" opacity="0.6"/>
                    <rect x="290" y="269.158880881223" width="60" height="60.84111911877699" fill="#fb7185" opacity="0.4" transform="skewY(-20)"/><rect x="390" y="177.17695637838915" width="60" height="172.82304362161085" fill="#f43f5e" opacity="0.6"/>
                    <rect x="410" y="157.17695637838915" width="60" height="172.82304362161085" fill="#fb7185" opacity="0.4" transform="skewY(-20)"/><rect x="510" y="209.94422959447547" width="60" height="140.05577040552453" fill="#f43f5e" opacity="0.6"/>
                    <rect x="530" y="189.94422959447547" width="60" height="140.05577040552453" fill="#fb7185" opacity="0.4" transform="skewY(-20)"/><rect x="630" y="247.6339078604724" width="60" height="102.36609213952761" fill="#f43f5e" opacity="0.6"/>
                    <rect x="650" y="227.6339078604724" width="60" height="102.36609213952761" fill="#fb7185" opacity="0.4" transform="skewY(-20)"/><rect x="750" y="237.28204745003723" width="60" height="112.71795254996277" fill="#f43f5e" opacity="0.6"/>
                    <rect x="770" y="217.28204745003723" width="60" height="112.71795254996277" fill="#fb7185" opacity="0.4" transform="skewY(-20)"/><rect x="870" y="128.05878715626022" width="60" height="221.94121284373978" fill="#f43f5e" opacity="0.6"/>
                    <rect x="890" y="108.05878715626022" width="60" height="221.94121284373978" fill="#fb7185" opacity="0.4" transform="skewY(-20)"/><rect x="990" y="269.6085930267145" width="60" height="80.39140697328548" fill="#f43f5e" opacity="0.6"/>
                    <rect x="1010" y="249.60859302671452" width="60" height="80.39140697328548" fill="#fb7185" opacity="0.4" transform="skewY(-20)"/>
            <text x="600" y="520" font-family="Segoe UI, Arial, sans-serif" font-size="38" font-weight="800" fill="#ffffff" text-anchor="middle">Enhancing Data Visualization in Web Applications: Impleme...</text>
            <text x="600" y="560" font-family="Segoe UI, Arial, sans-serif" font-size="16" font-weight="600" fill="#f43f5e" text-anchor="middle" style="letter-spacing: 4px; text-transform: uppercase;">UI UX Powerhouse • Specialized Series</text>
        </svg>