<svg width="1200" height="600" viewBox="0 0 1200 600" xmlns="http://www.w3.org/2000/svg">
            <rect width="1200" height="600" fill="#0f172a"/><circle cx="417.5329711075463" cy="388.76241458856384" r="10.378467452064797" fill="#38bdf8" opacity="0.1"/><circle cx="1117.8936291824357" cy="1.7499405126727652" r="35.93816664368205" fill="#38bdf8" opacity="0.1"/><circle cx="476.2705651226497" cy="322.52790941493004" r="12.212387544859666" fill="#38bdf8" opacity="0.1"/><circle cx="6.845205376521335" cy="6.76137393747922" r="18.428527538926573" fill="#38bdf8" opacity="0.1"/><circle cx="682.177340763883" cy="291.7665260600188" r="13.307019354342629" fill="#38bdf8" opacity="0.1"/><circle cx="78.39042312625679" cy="148.97211297593458" r="31.032165033611818" fill="#38bdf8" opacity="0.1"/><circle cx="1080.071317672082" cy="396.89234525794745" r="36.89253022101184" fill="#38bdf8" opacity="0.1"/><circle cx="399.6998221744434" cy="92.46667458118907" r="28.681060556773446" fill="#38bdf8" opacity="0.1"/><circle cx="203.836510608744" cy="214.68563064518094" r="17.846794534088986" fill="#38bdf8" opacity="0.1"/><circle cx="1017.6521319212043" cy="332.4956379226933" r="45.803999386844225" fill="#38bdf8" opacity="0.1"/><circle cx="78.2440180388221" cy="342.68645421543624" r="12.969478534105292" fill="#38bdf8" opacity="0.1"/><circle cx="641.7583626785927" cy="74.03580353457073" r="31.67581958401115" fill="#38bdf8" opacity="0.1"/><circle cx="965.1911589891824" cy="383.64704938721843" r="47.758116768236505" fill="#38bdf8" opacity="0.1"/><circle cx="913.7576643010107" cy="307.5045110201245" r="42.09851161934239" fill="#38bdf8" opacity="0.1"/><circle cx="1068.4747598919785" cy="150.16983519890346" r="39.39054815318741" fill="#38bdf8" opacity="0.1"/><circle cx="1189.876992129939" cy="189.78751542872487" r="41.96582218763069" fill="#38bdf8" opacity="0.1"/><circle cx="200.160385795607" cy="206.80637168661633" r="25.06078054626414" fill="#38bdf8" opacity="0.1"/><circle cx="630.813729253714" cy="147.32646143256147" r="36.82943013336626" fill="#38bdf8" opacity="0.1"/><circle cx="38.228273236745736" cy="294.00493678658677" r="24.778709442070976" fill="#38bdf8" opacity="0.1"/><circle cx="705.1212169675637" cy="333.7720288851415" r="15.01809244051401" fill="#38bdf8" opacity="0.1"/><circle cx="160.03712632591487" cy="311.9613657064292" r="15.116141837415853" fill="#38bdf8" opacity="0.1"/><circle cx="800.2011297248828" cy="66.90456813448691" r="41.39219291617337" fill="#38bdf8" opacity="0.1"/><circle cx="790.8317197361612" cy="87.8582223864214" r="18.847320105924155" fill="#38bdf8" opacity="0.1"/><circle cx="871.7037217840698" cy="380.4245322091447" r="35.477037102250506" fill="#38bdf8" opacity="0.1"/><circle cx="686.2986499429098" cy="96.19518064864678" r="46.586170996015426" fill="#38bdf8" opacity="0.1"/><circle cx="531.0402195453207" cy="221.3276994847547" r="19.99457631718542" fill="#38bdf8" opacity="0.1"/><circle cx="427.46762212118483" cy="67.39190348662305" r="15.690065578719441" fill="#38bdf8" opacity="0.1"/><circle cx="1166.9756661813153" cy="22.83896636163263" r="24.87929349186743" fill="#38bdf8" opacity="0.1"/><circle cx="33.959518269693945" cy="216.79790945454442" r="36.614037367295396" fill="#38bdf8" opacity="0.1"/><circle cx="671.9873149471823" cy="17.420943626348162" r="38.04378024447942" fill="#38bdf8" opacity="0.1"/>
            <text x="600" y="520" font-family="Segoe UI, Arial, sans-serif" font-size="38" font-weight="800" fill="#ffffff" text-anchor="middle">Enhancing Data Visualization in Dashboards: Implementing ...</text>
            <text x="600" y="560" font-family="Segoe UI, Arial, sans-serif" font-size="16" font-weight="600" fill="#38bdf8" text-anchor="middle" style="letter-spacing: 4px; text-transform: uppercase;">UI UX Powerhouse • Specialized Series</text>
        </svg>