<svg width="1200" height="600" viewBox="0 0 1200 600" xmlns="http://www.w3.org/2000/svg">
            <rect width="1200" height="600" fill="#0c4a6e"/><path d="M 681.6902584629133 32.619857331883395 L 653.8756261435083 82.6198573318834 L 715.4121115282578 132.6198573318834" stroke="#7dd3fc" fill="none" opacity="0.4"/>
                    <circle cx="681.6902584629133" cy="32.619857331883395" r="3" fill="#f43f5e"/><path d="M 362.64510622440866 396.18067866467754 L 407.76396763521916 446.18067866467754 L 376.69940250107175 496.18067866467754" stroke="#7dd3fc" fill="none" opacity="0.4"/>
                    <circle cx="362.64510622440866" cy="396.18067866467754" r="3" fill="#f43f5e"/><path d="M 127.55596444367256 173.06862852929044 L 96.17825327859464 223.06862852929044 L 158.63280654702976 273.06862852929044" stroke="#7dd3fc" fill="none" opacity="0.4"/>
                    <circle cx="127.55596444367256" cy="173.06862852929044" r="3" fill="#f43f5e"/><path d="M 69.39641560456948 315.59642046049703 L 23.567397062379314 365.59642046049703 L 97.89056870213244 415.59642046049703" stroke="#7dd3fc" fill="none" opacity="0.4"/>
                    <circle cx="69.39641560456948" cy="315.59642046049703" r="3" fill="#f43f5e"/><path d="M 190.40670326830877 28.960132572683506 L 204.87996698639108 78.9601325726835 L 155.00785194471973 128.9601325726835" stroke="#7dd3fc" fill="none" opacity="0.4"/>
                    <circle cx="190.40670326830877" cy="28.960132572683506" r="3" fill="#f43f5e"/><path d="M 1037.3002642969368 235.51164762611734 L 1007.2499599275034 285.51164762611734 L 1070.3065397714795 335.51164762611734" stroke="#7dd3fc" fill="none" opacity="0.4"/>
                    <circle cx="1037.3002642969368" cy="235.51164762611734" r="3" fill="#f43f5e"/><path d="M 799.7115089691761 248.82234213800984 L 839.5154756850388 298.82234213800984 L 846.6305554125483 348.82234213800984" stroke="#7dd3fc" fill="none" opacity="0.4"/>
                    <circle cx="799.7115089691761" cy="248.82234213800984" r="3" fill="#f43f5e"/><path d="M 1132.3753970420512 84.77051487971039 L 1127.9770426529467 134.7705148797104 L 1120.7326005027426 184.7705148797104" stroke="#7dd3fc" fill="none" opacity="0.4"/>
                    <circle cx="1132.3753970420512" cy="84.77051487971039" r="3" fill="#f43f5e"/><path d="M 132.08196962004877 52.43025610598124 L 118.63221043549856 102.43025610598124 L 125.39627356236451 152.43025610598124" stroke="#7dd3fc" fill="none" opacity="0.4"/>
                    <circle cx="132.08196962004877" cy="52.43025610598124" r="3" fill="#f43f5e"/><path d="M 488.98277045018403 184.86086512966722 L 488.5254485189762 234.86086512966722 L 447.87224801793855 284.8608651296672" stroke="#7dd3fc" fill="none" opacity="0.4"/>
                    <circle cx="488.98277045018403" cy="184.86086512966722" r="3" fill="#f43f5e"/>
            <text x="600" y="520" font-family="Segoe UI, Arial, sans-serif" font-size="38" font-weight="800" fill="#ffffff" text-anchor="middle">Enhancing UX for Data-Heavy Applications: Techniques for ...</text>
            <text x="600" y="560" font-family="Segoe UI, Arial, sans-serif" font-size="16" font-weight="600" fill="#7dd3fc" text-anchor="middle" style="letter-spacing: 4px; text-transform: uppercase;">UI UX Powerhouse • Specialized Series</text>
        </svg>