<svg width="1200" height="600" viewBox="0 0 1200 600" xmlns="http://www.w3.org/2000/svg">
        <rect width="1200" height="600" fill="#111827"/><rect x="150" y="237.99848567150548" width="60" height="112.00151432849452" fill="#10b981" opacity="0.6"/>
                    <rect x="170" y="217.99848567150548" width="60" height="112.00151432849452" fill="#34d399" opacity="0.4" transform="skewY(-20)"/><rect x="270" y="180.9969216465106" width="60" height="169.0030783534894" fill="#10b981" opacity="0.6"/>
                    <rect x="290" y="160.9969216465106" width="60" height="169.0030783534894" fill="#34d399" opacity="0.4" transform="skewY(-20)"/><rect x="390" y="162.06120893730258" width="60" height="187.93879106269742" fill="#10b981" opacity="0.6"/>
                    <rect x="410" y="142.06120893730258" width="60" height="187.93879106269742" fill="#34d399" opacity="0.4" transform="skewY(-20)"/><rect x="510" y="167.36591291664809" width="60" height="182.63408708335191" fill="#10b981" opacity="0.6"/>
                    <rect x="530" y="147.36591291664809" width="60" height="182.63408708335191" fill="#34d399" opacity="0.4" transform="skewY(-20)"/><rect x="630" y="173.0902624223745" width="60" height="176.9097375776255" fill="#10b981" opacity="0.6"/>
                    <rect x="650" y="153.0902624223745" width="60" height="176.9097375776255" fill="#34d399" opacity="0.4" transform="skewY(-20)"/><rect x="750" y="151.9698010843058" width="60" height="198.0301989156942" fill="#10b981" opacity="0.6"/>
                    <rect x="770" y="131.9698010843058" width="60" height="198.0301989156942" fill="#34d399" opacity="0.4" transform="skewY(-20)"/><rect x="870" y="238.21690173863317" width="60" height="111.78309826136683" fill="#10b981" opacity="0.6"/>
                    <rect x="890" y="218.21690173863317" width="60" height="111.78309826136683" fill="#34d399" opacity="0.4" transform="skewY(-20)"/><rect x="990" y="270.9021357346501" width="60" height="79.09786426534993" fill="#10b981" opacity="0.6"/>
                    <rect x="1010" y="250.90213573465007" width="60" height="79.09786426534993" fill="#34d399" opacity="0.4" transform="skewY(-20)"/>
        <text x="600" y="520" font-family="Segoe UI, Arial, sans-serif" font-size="38" font-weight="800" fill="#ffffff" text-anchor="middle">Enhancing User Engagement with Context-Aware Microinterac...</text>
        <text x="600" y="560" font-family="Segoe UI, Arial, sans-serif" font-size="16" font-weight="600" fill="#10b981" text-anchor="middle" style="letter-spacing: 4px; text-transform: uppercase;">UI UX Powerhouse • Specialized Series</text>
    </svg>