<svg width="1200" height="600" viewBox="0 0 1200 600" xmlns="http://www.w3.org/2000/svg">
        <rect width="1200" height="600" fill="#0c4a6e"/><rect x="150" y="138.11624203335668" width="60" height="211.88375796664332" fill="#7dd3fc" opacity="0.6"/>
                    <rect x="170" y="118.11624203335668" width="60" height="211.88375796664332" fill="#38bdf8" opacity="0.4" transform="skewY(-20)"/><rect x="270" y="213.02706638125528" width="60" height="136.97293361874472" fill="#7dd3fc" opacity="0.6"/>
                    <rect x="290" y="193.02706638125528" width="60" height="136.97293361874472" fill="#38bdf8" opacity="0.4" transform="skewY(-20)"/><rect x="390" y="242.39810475010017" width="60" height="107.60189524989983" fill="#7dd3fc" opacity="0.6"/>
                    <rect x="410" y="222.39810475010017" width="60" height="107.60189524989983" fill="#38bdf8" opacity="0.4" transform="skewY(-20)"/><rect x="510" y="270.74548338096065" width="60" height="79.25451661903935" fill="#7dd3fc" opacity="0.6"/>
                    <rect x="530" y="250.74548338096065" width="60" height="79.25451661903935" fill="#38bdf8" opacity="0.4" transform="skewY(-20)"/><rect x="630" y="170.15183639850875" width="60" height="179.84816360149125" fill="#7dd3fc" opacity="0.6"/>
                    <rect x="650" y="150.15183639850875" width="60" height="179.84816360149125" fill="#38bdf8" opacity="0.4" transform="skewY(-20)"/><rect x="750" y="165.0267302960856" width="60" height="184.9732697039144" fill="#7dd3fc" opacity="0.6"/>
                    <rect x="770" y="145.0267302960856" width="60" height="184.9732697039144" fill="#38bdf8" opacity="0.4" transform="skewY(-20)"/><rect x="870" y="191.39589606221534" width="60" height="158.60410393778466" fill="#7dd3fc" opacity="0.6"/>
                    <rect x="890" y="171.39589606221534" width="60" height="158.60410393778466" fill="#38bdf8" opacity="0.4" transform="skewY(-20)"/><rect x="990" y="187.8486482819426" width="60" height="162.1513517180574" fill="#7dd3fc" opacity="0.6"/>
                    <rect x="1010" y="167.8486482819426" width="60" height="162.1513517180574" fill="#38bdf8" opacity="0.4" transform="skewY(-20)"/>
        <text x="600" y="520" font-family="Segoe UI, Arial, sans-serif" font-size="38" font-weight="800" fill="#ffffff" text-anchor="middle">Enhancing Data Visualization Usability: Advanced Techniqu...</text>
        <text x="600" y="560" font-family="Segoe UI, Arial, sans-serif" font-size="16" font-weight="600" fill="#7dd3fc" text-anchor="middle" style="letter-spacing: 4px; text-transform: uppercase;">UI UX Powerhouse • Specialized Series</text>
    </svg>