<svg width="1200" height="600" viewBox="0 0 1200 600" xmlns="http://www.w3.org/2000/svg">
            <rect width="1200" height="600" fill="#1e1b4b"/><path d="M 815.9556037047878 338.51161885895635 L 830.9948314477879 388.51161885895635 L 827.6241905728966 438.51161885895635" stroke="#f43f5e" fill="none" opacity="0.4"/>
                    <circle cx="815.9556037047878" cy="338.51161885895635" r="3" fill="#22d3ee"/><path d="M 1199.4622705001348 96.77965942064475 L 1216.390127684167 146.77965942064475 L 1189.6035214335825 196.77965942064475" stroke="#f43f5e" fill="none" opacity="0.4"/>
                    <circle cx="1199.4622705001348" cy="96.77965942064475" r="3" fill="#22d3ee"/><path d="M 34.27416192716919 220.0671693323784 L -10.055541345354868 270.0671693323784 L 62.63604325868073 320.0671693323784" stroke="#f43f5e" fill="none" opacity="0.4"/>
                    <circle cx="34.27416192716919" cy="220.0671693323784" r="3" fill="#22d3ee"/><path d="M 1111.6455598843459 257.6552526727028 L 1157.6795985938588 307.6552526727028 L 1077.7940931862759 357.6552526727028" stroke="#f43f5e" fill="none" opacity="0.4"/>
                    <circle cx="1111.6455598843459" cy="257.6552526727028" r="3" fill="#22d3ee"/><path d="M 867.1376621543459 286.02706247261267 L 835.2210077874588 336.02706247261267 L 840.7484285146438 386.02706247261267" stroke="#f43f5e" fill="none" opacity="0.4"/>
                    <circle cx="867.1376621543459" cy="286.02706247261267" r="3" fill="#22d3ee"/><path d="M 181.00407179490503 188.00259676281712 L 175.91175314055363 238.00259676281712 L 179.73029114864403 288.0025967628171" stroke="#f43f5e" fill="none" opacity="0.4"/>
                    <circle cx="181.00407179490503" cy="188.00259676281712" r="3" fill="#22d3ee"/><path d="M 903.3898442292411 135.3396662263549 L 874.5497800423436 185.3396662263549 L 864.0741308516226 235.3396662263549" stroke="#f43f5e" fill="none" opacity="0.4"/>
                    <circle cx="903.3898442292411" cy="135.3396662263549" r="3" fill="#22d3ee"/><path d="M 301.94032379222335 250.14363433947437 L 256.82245564494224 300.1436343394744 L 349.2613139340392 350.1436343394744" stroke="#f43f5e" fill="none" opacity="0.4"/>
                    <circle cx="301.94032379222335" cy="250.14363433947437" r="3" fill="#22d3ee"/><path d="M 48.938401866325876 170.9375828890188 L 36.29451582746697 220.9375828890188 L 1.807448432828096 270.9375828890188" stroke="#f43f5e" fill="none" opacity="0.4"/>
                    <circle cx="48.938401866325876" cy="170.9375828890188" r="3" fill="#22d3ee"/><path d="M 253.47461868786922 258.45067230147833 L 295.06909010651725 308.45067230147833 L 233.69600317619188 358.45067230147833" stroke="#f43f5e" fill="none" opacity="0.4"/>
                    <circle cx="253.47461868786922" cy="258.45067230147833" r="3" fill="#22d3ee"/>
            <text x="600" y="520" font-family="Segoe UI, Arial, sans-serif" font-size="38" font-weight="800" fill="#ffffff" text-anchor="middle">Enhancing User Engagement: Implementing Variable Interact...</text>
            <text x="600" y="560" font-family="Segoe UI, Arial, sans-serif" font-size="16" font-weight="600" fill="#f43f5e" text-anchor="middle" style="letter-spacing: 4px; text-transform: uppercase;">UI UX Powerhouse • Specialized Series</text>
        </svg>