<svg width="1200" height="600" viewBox="0 0 1200 600" xmlns="http://www.w3.org/2000/svg">
            <rect width="1200" height="600" fill="#111827"/><path d="M 1163.4661235781095 206.3972370367992 L 1205.687564919208 256.3972370367992 L 1161.866048497086 306.3972370367992" stroke="#10b981" fill="none" opacity="0.4"/>
                    <circle cx="1163.4661235781095" cy="206.3972370367992" r="3" fill="#fbbf24"/><path d="M 1042.5022693308165 47.49096110535902 L 1016.7285344880838 97.49096110535902 L 1018.6054163387466 147.49096110535902" stroke="#10b981" fill="none" opacity="0.4"/>
                    <circle cx="1042.5022693308165" cy="47.49096110535902" r="3" fill="#fbbf24"/><path d="M 745.0868909600104 387.1187315404313 L 697.2683716559004 437.1187315404313 L 785.8592806658635 487.1187315404313" stroke="#10b981" fill="none" opacity="0.4"/>
                    <circle cx="745.0868909600104" cy="387.1187315404313" r="3" fill="#fbbf24"/><path d="M 512.7661066195287 82.59710594502394 L 477.8907115048696 132.59710594502394 L 510.34818202761016 182.59710594502394" stroke="#10b981" fill="none" opacity="0.4"/>
                    <circle cx="512.7661066195287" cy="82.59710594502394" r="3" fill="#fbbf24"/><path d="M 1166.5428471656924 339.9649630395288 L 1207.07185051142 389.9649630395288 L 1197.0589376980115 439.9649630395288" stroke="#10b981" fill="none" opacity="0.4"/>
                    <circle cx="1166.5428471656924" cy="339.9649630395288" r="3" fill="#fbbf24"/><path d="M 1123.3761078021416 57.48752210932366 L 1075.6036310952823 107.48752210932366 L 1168.9729163821085 157.48752210932366" stroke="#10b981" fill="none" opacity="0.4"/>
                    <circle cx="1123.3761078021416" cy="57.48752210932366" r="3" fill="#fbbf24"/><path d="M 303.330282488605 70.07478828381863 L 289.5955435833457 120.07478828381863 L 350.83295273489057 170.07478828381863" stroke="#10b981" fill="none" opacity="0.4"/>
                    <circle cx="303.330282488605" cy="70.07478828381863" r="3" fill="#fbbf24"/><path d="M 236.870245240425 278.29872927625274 L 225.89779194850053 328.29872927625274 L 217.43102981690754 378.29872927625274" stroke="#10b981" fill="none" opacity="0.4"/>
                    <circle cx="236.870245240425" cy="278.29872927625274" r="3" fill="#fbbf24"/><path d="M 250.14650044759037 0.06976110671530478 L 288.7321721959097 50.069761106715305 L 283.0633894069251 100.0697611067153" stroke="#10b981" fill="none" opacity="0.4"/>
                    <circle cx="250.14650044759037" cy="0.06976110671530478" r="3" fill="#fbbf24"/><path d="M 359.95409231545636 124.49266504081606 L 359.4176647414315 174.49266504081606 L 409.7070954109199 224.49266504081606" stroke="#10b981" fill="none" opacity="0.4"/>
                    <circle cx="359.95409231545636" cy="124.49266504081606" r="3" fill="#fbbf24"/>
            <text x="600" y="520" font-family="Segoe UI, Arial, sans-serif" font-size="38" font-weight="800" fill="#ffffff" text-anchor="middle">Ethical Design in the Age of Data: Balancing Personalizat...</text>
            <text x="600" y="560" font-family="Segoe UI, Arial, sans-serif" font-size="16" font-weight="600" fill="#10b981" text-anchor="middle" style="letter-spacing: 4px; text-transform: uppercase;">UI UX Powerhouse • Specialized Series</text>
        </svg>