<svg width="1200" height="600" viewBox="0 0 1200 600" xmlns="http://www.w3.org/2000/svg">
            <rect width="1200" height="600" fill="#171717"/><circle cx="280.8310399461334" cy="171.13251209520968" r="27.354808589334425" fill="#f59e0b" opacity="0.1"/><circle cx="268.31565382635745" cy="301.7873412762128" r="48.28651212701516" fill="#f59e0b" opacity="0.1"/><circle cx="658.6099172287504" cy="70.61158449432696" r="39.634337933021015" fill="#f59e0b" opacity="0.1"/><circle cx="722.6126838417258" cy="311.32963677009684" r="22.06073551751615" fill="#f59e0b" opacity="0.1"/><circle cx="269.8101928213873" cy="130.7649750910059" r="17.635859605070436" fill="#f59e0b" opacity="0.1"/><circle cx="849.2662702978123" cy="309.83695431123124" r="49.5931604555517" fill="#f59e0b" opacity="0.1"/><circle cx="304.3364300598114" cy="148.80402237290582" r="45.23865005117841" fill="#f59e0b" opacity="0.1"/><circle cx="1007.9363851160451" cy="75.01031942701957" r="25.88781270380423" fill="#f59e0b" opacity="0.1"/><circle cx="167.7915878350177" cy="335.33656610525213" r="41.83660130875069" fill="#f59e0b" opacity="0.1"/><circle cx="492.16869085430517" cy="277.27365059545264" r="32.504218732356094" fill="#f59e0b" opacity="0.1"/><circle cx="302.57731454330496" cy="345.8858425104154" r="30.85394067146808" fill="#f59e0b" opacity="0.1"/><circle cx="927.6414252542963" cy="215.14564091776265" r="42.921813246939564" fill="#f59e0b" opacity="0.1"/><circle cx="585.3489793066501" cy="161.18964799752575" r="47.12727560341591" fill="#f59e0b" opacity="0.1"/><circle cx="652.0077138160559" cy="170.2727743795549" r="41.48662656512897" fill="#f59e0b" opacity="0.1"/><circle cx="323.61375337204663" cy="188.10277760203462" r="37.605616005275806" fill="#f59e0b" opacity="0.1"/><circle cx="1131.999149184776" cy="399.7996174501168" r="43.27012964264213" fill="#f59e0b" opacity="0.1"/><circle cx="2.4479821462591644" cy="385.6351497427454" r="26.578048186238448" fill="#f59e0b" opacity="0.1"/><circle cx="940.1090124716575" cy="382.59186006266646" r="37.683902274411594" fill="#f59e0b" opacity="0.1"/><circle cx="469.750671303882" cy="247.4636281538551" r="10.601593141182093" fill="#f59e0b" opacity="0.1"/><circle cx="557.0941869995295" cy="128.8572259574721" r="43.666943814678234" fill="#f59e0b" opacity="0.1"/><circle cx="609.0581254575227" cy="391.85797619938967" r="20.471750593351317" fill="#f59e0b" opacity="0.1"/><circle cx="249.6795030823705" cy="369.2675134512683" r="25.203675689044758" fill="#f59e0b" opacity="0.1"/><circle cx="799.5052709688025" cy="329.8927327647107" r="19.372924662966398" fill="#f59e0b" opacity="0.1"/><circle cx="142.5716991245281" cy="66.37034932173265" r="13.83804207747744" fill="#f59e0b" opacity="0.1"/><circle cx="383.48674796288833" cy="199.93779510459717" r="22.156813708425034" fill="#f59e0b" opacity="0.1"/><circle cx="172.61135714520606" cy="392.3929023476376" r="49.93447291675693" fill="#f59e0b" opacity="0.1"/><circle cx="184.91014241662924" cy="215.52173830132233" r="34.60135596389591" fill="#f59e0b" opacity="0.1"/><circle cx="1148.0576714318886" cy="309.1853579018789" r="22.76651052859961" fill="#f59e0b" opacity="0.1"/><circle cx="338.0969531226583" cy="7.09752911607211" r="38.118904081056826" fill="#f59e0b" opacity="0.1"/><circle cx="975.3545064359059" cy="51.85806185218098" r="46.37628473121367" fill="#f59e0b" opacity="0.1"/>
            <text x="600" y="520" font-family="Segoe UI, Arial, sans-serif" font-size="38" font-weight="800" fill="#ffffff" text-anchor="middle">Exploring the Use of Custom CSS Properties for Dynamic Th...</text>
            <text x="600" y="560" font-family="Segoe UI, Arial, sans-serif" font-size="16" font-weight="600" fill="#f59e0b" text-anchor="middle" style="letter-spacing: 4px; text-transform: uppercase;">UI UX Powerhouse • Specialized Series</text>
        </svg>