<svg width="1200" height="600" viewBox="0 0 1200 600" xmlns="http://www.w3.org/2000/svg">
            <rect width="1200" height="600" fill="#1e1b4b"/><path d="M 1165.3010643467496 256.3581967380742 L 1129.1351008596394 306.3581967380742 L 1139.0662959527617 356.3581967380742" stroke="#f43f5e" fill="none" opacity="0.4"/>
                    <circle cx="1165.3010643467496" cy="256.3581967380742" r="3" fill="#22d3ee"/><path d="M 800.0581472911563 142.13937769263794 L 841.6253800825416 192.13937769263794 L 788.3962314951077 242.13937769263794" stroke="#f43f5e" fill="none" opacity="0.4"/>
                    <circle cx="800.0581472911563" cy="142.13937769263794" r="3" fill="#22d3ee"/><path d="M 1177.7098791804747 94.79243867790501 L 1151.7924202524227 144.792438677905 L 1146.3314024122155 194.792438677905" stroke="#f43f5e" fill="none" opacity="0.4"/>
                    <circle cx="1177.7098791804747" cy="94.79243867790501" r="3" fill="#22d3ee"/><path d="M 735.7724611112644 60.06055260877474 L 753.5282996417209 110.06055260877474 L 736.4760771793044 160.06055260877474" stroke="#f43f5e" fill="none" opacity="0.4"/>
                    <circle cx="735.7724611112644" cy="60.06055260877474" r="3" fill="#22d3ee"/><path d="M 294.7653598163015 203.60909822829854 L 303.9722388269183 253.60909822829854 L 337.1685547977904 303.60909822829854" stroke="#f43f5e" fill="none" opacity="0.4"/>
                    <circle cx="294.7653598163015" cy="203.60909822829854" r="3" fill="#22d3ee"/><path d="M 1163.3903853253287 4.6979403821751475 L 1130.3708417062808 54.69794038217515 L 1182.5322227801735 104.69794038217515" stroke="#f43f5e" fill="none" opacity="0.4"/>
                    <circle cx="1163.3903853253287" cy="4.6979403821751475" r="3" fill="#22d3ee"/><path d="M 995.4798512549132 271.228468130721 L 950.6091940606893 321.228468130721 L 1018.9038739251373 371.228468130721" stroke="#f43f5e" fill="none" opacity="0.4"/>
                    <circle cx="995.4798512549132" cy="271.228468130721" r="3" fill="#22d3ee"/><path d="M 108.70109921161202 266.9725165096679 L 150.0220068321596 316.9725165096679 L 101.07623190287995 366.9725165096679" stroke="#f43f5e" fill="none" opacity="0.4"/>
                    <circle cx="108.70109921161202" cy="266.9725165096679" r="3" fill="#22d3ee"/><path d="M 286.0496775552747 2.1475613117218018 L 267.3510990307477 52.1475613117218 L 316.94349198128293 102.1475613117218" stroke="#f43f5e" fill="none" opacity="0.4"/>
                    <circle cx="286.0496775552747" cy="2.1475613117218018" r="3" fill="#22d3ee"/><path d="M 1082.3165767801129 171.41229457729423 L 1050.6637302816898 221.41229457729423 L 1109.9467039012325 271.41229457729423" stroke="#f43f5e" fill="none" opacity="0.4"/>
                    <circle cx="1082.3165767801129" cy="171.41229457729423" r="3" fill="#22d3ee"/>
            <text x="600" y="520" font-family="Segoe UI, Arial, sans-serif" font-size="38" font-weight="800" fill="#ffffff" text-anchor="middle">From Static to Sentient: How Generative AI Redefines Mode...</text>
            <text x="600" y="560" font-family="Segoe UI, Arial, sans-serif" font-size="16" font-weight="600" fill="#f43f5e" text-anchor="middle" style="letter-spacing: 4px; text-transform: uppercase;">UI UX Powerhouse • Specialized Series</text>
        </svg>