<svg width="1200" height="600" viewBox="0 0 1200 600" xmlns="http://www.w3.org/2000/svg">
            <rect width="1200" height="600" fill="#0c4a6e"/><path d="M 498.6116908330587 112.13065106676368 L 544.2663946711036 162.13065106676368 L 489.84362186547514 212.13065106676368" stroke="#7dd3fc" fill="none" opacity="0.4"/>
                    <circle cx="498.6116908330587" cy="112.13065106676368" r="3" fill="#f43f5e"/><path d="M 527.6173308513535 42.14351342427847 L 478.1391254355185 92.14351342427847 L 529.6749517555327 142.14351342427847" stroke="#7dd3fc" fill="none" opacity="0.4"/>
                    <circle cx="527.6173308513535" cy="42.14351342427847" r="3" fill="#f43f5e"/><path d="M 382.7947835558007 208.2783737732825 L 398.491099012972 258.2783737732825 L 415.07931836731586 308.2783737732825" stroke="#7dd3fc" fill="none" opacity="0.4"/>
                    <circle cx="382.7947835558007" cy="208.2783737732825" r="3" fill="#f43f5e"/><path d="M 373.3929273017566 155.53462178868358 L 338.8906457762914 205.53462178868358 L 394.47714924544925 255.53462178868358" stroke="#7dd3fc" fill="none" opacity="0.4"/>
                    <circle cx="373.3929273017566" cy="155.53462178868358" r="3" fill="#f43f5e"/><path d="M 745.9509744592651 193.69589470443316 L 776.8039758493614 243.69589470443316 L 725.9931110360412 293.69589470443316" stroke="#7dd3fc" fill="none" opacity="0.4"/>
                    <circle cx="745.9509744592651" cy="193.69589470443316" r="3" fill="#f43f5e"/><path d="M 618.2544398601749 79.81456716061075 L 620.7688394366869 129.81456716061075 L 649.5902230311913 179.81456716061075" stroke="#7dd3fc" fill="none" opacity="0.4"/>
                    <circle cx="618.2544398601749" cy="79.81456716061075" r="3" fill="#f43f5e"/><path d="M 526.844032545614 28.28300417254468 L 516.4299105405917 78.28300417254468 L 490.2594410837082 128.28300417254468" stroke="#7dd3fc" fill="none" opacity="0.4"/>
                    <circle cx="526.844032545614" cy="28.28300417254468" r="3" fill="#f43f5e"/><path d="M 168.09424004768516 154.8590211357805 L 136.03889350579266 204.8590211357805 L 136.58578880003915 254.8590211357805" stroke="#7dd3fc" fill="none" opacity="0.4"/>
                    <circle cx="168.09424004768516" cy="154.8590211357805" r="3" fill="#f43f5e"/><path d="M 836.5074108849512 40.687447846721625 L 808.2254827796519 90.68744784672162 L 836.4896254563064 140.68744784672162" stroke="#7dd3fc" fill="none" opacity="0.4"/>
                    <circle cx="836.5074108849512" cy="40.687447846721625" r="3" fill="#f43f5e"/><path d="M 216.99146269602352 253.5774420874077 L 241.58135602128823 303.5774420874077 L 253.79165750800894 353.5774420874077" stroke="#7dd3fc" fill="none" opacity="0.4"/>
                    <circle cx="216.99146269602352" cy="253.5774420874077" r="3" fill="#f43f5e"/>
            <text x="600" y="520" font-family="Segoe UI, Arial, sans-serif" font-size="38" font-weight="800" fill="#ffffff" text-anchor="middle">Gamification in Web Design: How to Make Your Site More Fun</text>
            <text x="600" y="560" font-family="Segoe UI, Arial, sans-serif" font-size="16" font-weight="600" fill="#7dd3fc" text-anchor="middle" style="letter-spacing: 4px; text-transform: uppercase;">UI UX Powerhouse • Specialized Series</text>
        </svg>