<svg width="1200" height="600" viewBox="0 0 1200 600" xmlns="http://www.w3.org/2000/svg">
            <rect width="1200" height="600" fill="#0c4a6e"/><circle cx="716.1557703249855" cy="352.0664620846219" r="33.360652190531255" fill="#7dd3fc" opacity="0.1"/><circle cx="52.24986541834369" cy="337.43281955175917" r="36.78277735783922" fill="#7dd3fc" opacity="0.1"/><circle cx="745.0013771282102" cy="151.01703023185564" r="10.239968421519734" fill="#7dd3fc" opacity="0.1"/><circle cx="384.86498234342434" cy="356.17945745470934" r="16.432701951634954" fill="#7dd3fc" opacity="0.1"/><circle cx="996.7104395829665" cy="338.2070147723425" r="19.43404656754865" fill="#7dd3fc" opacity="0.1"/><circle cx="708.7867413825734" cy="274.46739241968316" r="29.62405432193009" fill="#7dd3fc" opacity="0.1"/><circle cx="465.70433980778034" cy="141.49941656869487" r="24.08305509492493" fill="#7dd3fc" opacity="0.1"/><circle cx="263.29989756086434" cy="332.5799221987836" r="39.20399561492559" fill="#7dd3fc" opacity="0.1"/><circle cx="1026.102951377834" cy="153.57766065653777" r="36.413046975649195" fill="#7dd3fc" opacity="0.1"/><circle cx="217.94177366455187" cy="176.90712074472685" r="21.94257321094483" fill="#7dd3fc" opacity="0.1"/><circle cx="400.6738715219399" cy="191.49820375271247" r="39.51859372260515" fill="#7dd3fc" opacity="0.1"/><circle cx="178.92821378350163" cy="385.18999586358404" r="21.40196702668618" fill="#7dd3fc" opacity="0.1"/><circle cx="275.1350545164314" cy="20.422772045139936" r="12.993223087823935" fill="#7dd3fc" opacity="0.1"/><circle cx="684.8845047737996" cy="237.1979861152795" r="15.246372965193586" fill="#7dd3fc" opacity="0.1"/><circle cx="475.29641186629306" cy="108.80130562800332" r="25.102728150142184" fill="#7dd3fc" opacity="0.1"/><circle cx="1118.4975601172482" cy="16.3888003808097" r="11.49489895968145" fill="#7dd3fc" opacity="0.1"/><circle cx="211.46040233361418" cy="173.81271760086747" r="29.70016301587748" fill="#7dd3fc" opacity="0.1"/><circle cx="580.2422340835619" cy="130.73896418736695" r="11.63268725220405" fill="#7dd3fc" opacity="0.1"/><circle cx="646.8945711602828" cy="264.2227032369192" r="23.682940382095694" fill="#7dd3fc" opacity="0.1"/><circle cx="315.92450637108414" cy="382.2064514850581" r="44.73327365645673" fill="#7dd3fc" opacity="0.1"/><circle cx="1150.0949282213696" cy="63.48496089412947" r="32.353620992580545" fill="#7dd3fc" opacity="0.1"/><circle cx="149.2622974801634" cy="182.2539793640317" r="31.637632699166716" fill="#7dd3fc" opacity="0.1"/><circle cx="743.0209366404597" cy="352.5510320076137" r="30.235005314534646" fill="#7dd3fc" opacity="0.1"/><circle cx="764.5412474179011" cy="42.3634853126714" r="27.746065954634105" fill="#7dd3fc" opacity="0.1"/><circle cx="981.9870232262474" cy="192.5167001576483" r="47.54177468788839" fill="#7dd3fc" opacity="0.1"/><circle cx="329.514369804383" cy="140.90641968759883" r="43.96498000365682" fill="#7dd3fc" opacity="0.1"/><circle cx="839.3800339630616" cy="124.45975086011458" r="28.48587262978981" fill="#7dd3fc" opacity="0.1"/><circle cx="1000.3473750053672" cy="362.0081647637562" r="11.913753656117478" fill="#7dd3fc" opacity="0.1"/><circle cx="159.41303374006566" cy="370.5417497352755" r="15.041619231305958" fill="#7dd3fc" opacity="0.1"/><circle cx="494.961030991135" cy="284.2084515730676" r="28.02631896789535" fill="#7dd3fc" opacity="0.1"/>
            <text x="600" y="520" font-family="Segoe UI, Arial, sans-serif" font-size="38" font-weight="800" fill="#ffffff" text-anchor="middle">GCP’s AI Edge: Crafting Immersive AR Interfaces for Next-...</text>
            <text x="600" y="560" font-family="Segoe UI, Arial, sans-serif" font-size="16" font-weight="600" fill="#7dd3fc" text-anchor="middle" style="letter-spacing: 4px; text-transform: uppercase;">UI UX Powerhouse • Specialized Series</text>
        </svg>