<svg width="1200" height="600" viewBox="0 0 1200 600" xmlns="http://www.w3.org/2000/svg">
            <rect width="1200" height="600" fill="#1e1b4b"/><circle cx="501.68983812291117" cy="92.03228702499473" r="29.897027008773875" fill="#f43f5e" opacity="0.1"/><circle cx="1198.5273200501979" cy="135.3657140462019" r="17.320654063587426" fill="#f43f5e" opacity="0.1"/><circle cx="391.00078675292025" cy="211.8911613462842" r="37.162743970802694" fill="#f43f5e" opacity="0.1"/><circle cx="895.0698496188124" cy="272.6463338261965" r="12.759235786561476" fill="#f43f5e" opacity="0.1"/><circle cx="96.55632594949566" cy="332.4173832734232" r="18.928338469122536" fill="#f43f5e" opacity="0.1"/><circle cx="645.0756163183542" cy="315.65424012878793" r="18.587648016400635" fill="#f43f5e" opacity="0.1"/><circle cx="1090.4722248736107" cy="335.23666749633776" r="33.71977893533767" fill="#f43f5e" opacity="0.1"/><circle cx="937.6713197074423" cy="267.3452760471264" r="41.065082324239484" fill="#f43f5e" opacity="0.1"/><circle cx="390.0942227086489" cy="380.6072914863762" r="35.31544220946671" fill="#f43f5e" opacity="0.1"/><circle cx="968.0813355744249" cy="141.5007553074247" r="23.02926782249415" fill="#f43f5e" opacity="0.1"/><circle cx="1166.3154835272053" cy="116.31000404668157" r="40.94017482657364" fill="#f43f5e" opacity="0.1"/><circle cx="427.81784929102287" cy="331.7135780267563" r="37.65512206711719" fill="#f43f5e" opacity="0.1"/><circle cx="240.10377855520346" cy="193.84650749198045" r="13.288192977197468" fill="#f43f5e" opacity="0.1"/><circle cx="342.2255303170459" cy="165.46214752961532" r="46.29555442479614" fill="#f43f5e" opacity="0.1"/><circle cx="208.95960345014828" cy="37.832581687689526" r="18.890634110066458" fill="#f43f5e" opacity="0.1"/><circle cx="36.02617746855685" cy="69.05038380791666" r="36.27304330915649" fill="#f43f5e" opacity="0.1"/><circle cx="140.9358801523922" cy="138.2637869894097" r="22.157119582334417" fill="#f43f5e" opacity="0.1"/><circle cx="413.7587628030815" cy="343.72150401995896" r="15.482349931262434" fill="#f43f5e" opacity="0.1"/><circle cx="867.8183108022495" cy="348.9285777344776" r="49.382695294043515" fill="#f43f5e" opacity="0.1"/><circle cx="781.0826670611277" cy="167.21617377843359" r="22.798148492947803" fill="#f43f5e" opacity="0.1"/><circle cx="759.9376354899505" cy="121.41232980975474" r="27.940928892239754" fill="#f43f5e" opacity="0.1"/><circle cx="188.16437925270293" cy="348.51668738774606" r="26.366842711540812" fill="#f43f5e" opacity="0.1"/><circle cx="1173.4793551215262" cy="379.5003095023276" r="12.32006328398711" fill="#f43f5e" opacity="0.1"/><circle cx="588.1339965766529" cy="123.03675228067732" r="34.97484570740198" fill="#f43f5e" opacity="0.1"/><circle cx="147.17218756559305" cy="50.82674730438157" r="43.34670778403961" fill="#f43f5e" opacity="0.1"/><circle cx="614.4589714633184" cy="388.490633622132" r="12.038071145798313" fill="#f43f5e" opacity="0.1"/><circle cx="411.27410093831713" cy="136.08174632827286" r="12.171279668691568" fill="#f43f5e" opacity="0.1"/><circle cx="1038.8047109678155" cy="382.6884986832738" r="27.462519154987604" fill="#f43f5e" opacity="0.1"/><circle cx="523.5714079986792" cy="273.5520103029131" r="26.973841660437756" fill="#f43f5e" opacity="0.1"/><circle cx="138.9393537021533" cy="302.12175361739355" r="43.377870940712455" fill="#f43f5e" opacity="0.1"/>
            <text x="600" y="520" font-family="Segoe UI, Arial, sans-serif" font-size="38" font-weight="800" fill="#ffffff" text-anchor="middle">GCP vs. Azure: Which Cloud Platform Wins for AI-Powered U...</text>
            <text x="600" y="560" font-family="Segoe UI, Arial, sans-serif" font-size="16" font-weight="600" fill="#f43f5e" text-anchor="middle" style="letter-spacing: 4px; text-transform: uppercase;">UI UX Powerhouse • Specialized Series</text>
        </svg>