<svg width="1200" height="600" viewBox="0 0 1200 600" xmlns="http://www.w3.org/2000/svg">
            <rect width="1200" height="600" fill="#0c4a6e"/><circle cx="1039.8514766442531" cy="205.23765816542436" r="36.93473813596938" fill="#7dd3fc" opacity="0.1"/><circle cx="645.5935645106365" cy="21.56239516552887" r="28.857818899923586" fill="#7dd3fc" opacity="0.1"/><circle cx="736.5034525042574" cy="200.90489652175165" r="16.842991320227156" fill="#7dd3fc" opacity="0.1"/><circle cx="269.1444393414713" cy="84.60230296750524" r="32.52799159192364" fill="#7dd3fc" opacity="0.1"/><circle cx="795.7573665262316" cy="254.34877003572183" r="15.738858398071898" fill="#7dd3fc" opacity="0.1"/><circle cx="103.54336732889351" cy="99.40918855863856" r="20.29947759492643" fill="#7dd3fc" opacity="0.1"/><circle cx="693.4772970613267" cy="325.6573882768862" r="11.53752422942489" fill="#7dd3fc" opacity="0.1"/><circle cx="540.601280570263" cy="383.3158731998992" r="39.87569079399691" fill="#7dd3fc" opacity="0.1"/><circle cx="297.9471339174779" cy="395.07664902266697" r="48.65857810316811" fill="#7dd3fc" opacity="0.1"/><circle cx="45.50156630430138" cy="200.52725128407474" r="12.20224749908084" fill="#7dd3fc" opacity="0.1"/><circle cx="460.88485337386373" cy="53.968464837089414" r="22.447026461850328" fill="#7dd3fc" opacity="0.1"/><circle cx="720.5224782959704" cy="383.4294431652779" r="11.725428064819425" fill="#7dd3fc" opacity="0.1"/><circle cx="795.868778051954" cy="87.74744884140091" r="17.46761067875923" fill="#7dd3fc" opacity="0.1"/><circle cx="812.2706132206076" cy="215.96344865538413" r="25.915130824723747" fill="#7dd3fc" opacity="0.1"/><circle cx="69.82697383646155" cy="38.03883252294327" r="37.09599635352788" fill="#7dd3fc" opacity="0.1"/><circle cx="909.3860677159682" cy="318.72466075105876" r="13.044920477332198" fill="#7dd3fc" opacity="0.1"/><circle cx="520.4344979196321" cy="329.3807729751279" r="26.083346395389526" fill="#7dd3fc" opacity="0.1"/><circle cx="957.8932409443951" cy="222.82323735889804" r="15.4650978468635" fill="#7dd3fc" opacity="0.1"/><circle cx="339.5193836156068" cy="251.0727604794738" r="43.79610114712705" fill="#7dd3fc" opacity="0.1"/><circle cx="469.1205164526764" cy="298.4810161666246" r="26.51167963987973" fill="#7dd3fc" opacity="0.1"/><circle cx="524.9934898009769" cy="304.7755949875864" r="40.47672183940449" fill="#7dd3fc" opacity="0.1"/><circle cx="525.913268531076" cy="284.654399219653" r="22.197203420000733" fill="#7dd3fc" opacity="0.1"/><circle cx="824.6293769596377" cy="142.58777618815657" r="48.15960919993813" fill="#7dd3fc" opacity="0.1"/><circle cx="535.8132293367817" cy="232.13738082058626" r="40.2514933738712" fill="#7dd3fc" opacity="0.1"/><circle cx="350.6800536040828" cy="63.937708608136745" r="37.59814178707529" fill="#7dd3fc" opacity="0.1"/><circle cx="261.6072383134451" cy="179.97025575168664" r="39.085746210985235" fill="#7dd3fc" opacity="0.1"/><circle cx="642.955342616915" cy="189.92105950092082" r="39.69840571760869" fill="#7dd3fc" opacity="0.1"/><circle cx="420.6121330258611" cy="141.87272270937683" r="31.708011574301054" fill="#7dd3fc" opacity="0.1"/><circle cx="566.9833604159066" cy="166.8316850105839" r="15.060224187946005" fill="#7dd3fc" opacity="0.1"/><circle cx="613.422214232196" cy="354.49137883333606" r="30.47740454254381" fill="#7dd3fc" opacity="0.1"/>
            <text x="600" y="520" font-family="Segoe UI, Arial, sans-serif" font-size="38" font-weight="800" fill="#ffffff" text-anchor="middle">Generative AI Meets Privacy: Secure UX Design in a Data-D...</text>
            <text x="600" y="560" font-family="Segoe UI, Arial, sans-serif" font-size="16" font-weight="600" fill="#7dd3fc" text-anchor="middle" style="letter-spacing: 4px; text-transform: uppercase;">UI UX Powerhouse • Specialized Series</text>
        </svg>