<svg width="1200" height="600" viewBox="0 0 1200 600" xmlns="http://www.w3.org/2000/svg">
            <rect width="1200" height="600" fill="#111827"/><circle cx="144.55364962632302" cy="368.9533476546785" r="37.72287949286692" fill="#10b981" opacity="0.1"/><circle cx="494.4809753475056" cy="293.14421802228026" r="37.32950387391611" fill="#10b981" opacity="0.1"/><circle cx="500.9490739208559" cy="351.5237270075886" r="46.87867385264326" fill="#10b981" opacity="0.1"/><circle cx="1074.784569671101" cy="291.1086362255446" r="46.11258572882434" fill="#10b981" opacity="0.1"/><circle cx="1028.5875067143934" cy="121.56694430123025" r="47.137571025023135" fill="#10b981" opacity="0.1"/><circle cx="389.86146463867044" cy="97.27677634296015" r="13.435476595186628" fill="#10b981" opacity="0.1"/><circle cx="965.9965011527675" cy="233.0377779866467" r="20.270654100604588" fill="#10b981" opacity="0.1"/><circle cx="462.4540229477134" cy="177.348097704089" r="41.53758590025063" fill="#10b981" opacity="0.1"/><circle cx="646.0789187753107" cy="174.31287605249963" r="45.52271250882768" fill="#10b981" opacity="0.1"/><circle cx="1069.6375746931153" cy="357.02395324988174" r="11.868730129644973" fill="#10b981" opacity="0.1"/><circle cx="1154.8266611664076" cy="62.33232107915683" r="21.80434801870433" fill="#10b981" opacity="0.1"/><circle cx="1063.858539241437" cy="258.5948795778677" r="10.639169741098158" fill="#10b981" opacity="0.1"/><circle cx="574.6117263210181" cy="359.8459600674687" r="31.550916848354973" fill="#10b981" opacity="0.1"/><circle cx="588.1435733921535" cy="100.183734158054" r="35.04335892263043" fill="#10b981" opacity="0.1"/><circle cx="644.9111506404734" cy="284.9766589444542" r="39.329434962965024" fill="#10b981" opacity="0.1"/><circle cx="1113.2309124674066" cy="277.97920380107826" r="17.556444632245984" fill="#10b981" opacity="0.1"/><circle cx="946.449481329546" cy="275.6652550421677" r="47.67947437796465" fill="#10b981" opacity="0.1"/><circle cx="840.0618256324378" cy="166.16657869089977" r="39.42074868651616" fill="#10b981" opacity="0.1"/><circle cx="311.69585393872694" cy="260.6479849473544" r="13.19186197804811" fill="#10b981" opacity="0.1"/><circle cx="371.9747067983917" cy="75.21397851905931" r="41.04405383353878" fill="#10b981" opacity="0.1"/><circle cx="351.3817571747495" cy="157.66265971287794" r="30.794880204557558" fill="#10b981" opacity="0.1"/><circle cx="966.2990973381966" cy="315.0709384341553" r="15.075694907282013" fill="#10b981" opacity="0.1"/><circle cx="421.01803028199356" cy="394.1957553373868" r="13.366093982131133" fill="#10b981" opacity="0.1"/><circle cx="894.0578111620198" cy="321.826425283507" r="19.875156595517183" fill="#10b981" opacity="0.1"/><circle cx="992.4921494355658" cy="375.46966059162514" r="21.91681060481642" fill="#10b981" opacity="0.1"/><circle cx="464.13300398999127" cy="300.15687370687374" r="28.721168867668894" fill="#10b981" opacity="0.1"/><circle cx="322.6132266161585" cy="306.2440932757454" r="35.10540093435338" fill="#10b981" opacity="0.1"/><circle cx="812.9789122369402" cy="254.0706571418923" r="29.854269037568884" fill="#10b981" opacity="0.1"/><circle cx="716.5027314229519" cy="93.35177092943923" r="32.60175520426856" fill="#10b981" opacity="0.1"/><circle cx="22.750557419203687" cy="343.7300552621309" r="18.10734998791304" fill="#10b981" opacity="0.1"/>
            <text x="600" y="520" font-family="Segoe UI, Arial, sans-serif" font-size="38" font-weight="800" fill="#ffffff" text-anchor="middle">Generative AI for Graphic Designers: A Game-Changer or a ...</text>
            <text x="600" y="560" font-family="Segoe UI, Arial, sans-serif" font-size="16" font-weight="600" fill="#10b981" text-anchor="middle" style="letter-spacing: 4px; text-transform: uppercase;">UI UX Powerhouse • Specialized Series</text>
        </svg>