<svg width="1200" height="600" viewBox="0 0 1200 600" xmlns="http://www.w3.org/2000/svg">
            <rect width="1200" height="600" fill="#171717"/><path d="M 406.93236454826547 9.435467580988188 L 402.04658004859084 59.43546758098819 L 392.5629903596018 109.43546758098819" stroke="#f59e0b" fill="none" opacity="0.4"/>
                    <circle cx="406.93236454826547" cy="9.435467580988188" r="3" fill="#ec4899"/><path d="M 138.51411509313039 388.66352720579016 L 182.09971222031527 438.66352720579016 L 173.08597163155355 488.66352720579016" stroke="#f59e0b" fill="none" opacity="0.4"/>
                    <circle cx="138.51411509313039" cy="388.66352720579016" r="3" fill="#ec4899"/><path d="M 876.0002110619098 326.80062641811674 L 889.5706696302113 376.80062641811674 L 843.6542103556349 426.80062641811674" stroke="#f59e0b" fill="none" opacity="0.4"/>
                    <circle cx="876.0002110619098" cy="326.80062641811674" r="3" fill="#ec4899"/><path d="M 966.6015867602255 18.315439344587503 L 937.6899501517983 68.3154393445875 L 955.0575248322275 118.3154393445875" stroke="#f59e0b" fill="none" opacity="0.4"/>
                    <circle cx="966.6015867602255" cy="18.315439344587503" r="3" fill="#ec4899"/><path d="M 749.2947189381084 311.41819624426716 L 741.8382508385548 361.41819624426716 L 709.4181544824096 411.41819624426716" stroke="#f59e0b" fill="none" opacity="0.4"/>
                    <circle cx="749.2947189381084" cy="311.41819624426716" r="3" fill="#ec4899"/><path d="M 829.360721546982 379.6491495115333 L 842.7394718256437 429.6491495115333 L 855.6436983727508 479.6491495115333" stroke="#f59e0b" fill="none" opacity="0.4"/>
                    <circle cx="829.360721546982" cy="379.6491495115333" r="3" fill="#ec4899"/><path d="M 433.6449219532369 309.1427142968314 L 468.9305264948416 359.1427142968314 L 435.03875524911564 409.1427142968314" stroke="#f59e0b" fill="none" opacity="0.4"/>
                    <circle cx="433.6449219532369" cy="309.1427142968314" r="3" fill="#ec4899"/><path d="M 580.6893852133726 49.48385395546211 L 535.175723071211 99.48385395546211 L 629.5873409976593 149.4838539554621" stroke="#f59e0b" fill="none" opacity="0.4"/>
                    <circle cx="580.6893852133726" cy="49.48385395546211" r="3" fill="#ec4899"/><path d="M 93.88855916304237 16.275016690633493 L 75.17062688666556 66.27501669063349 L 61.746458368270396 116.27501669063349" stroke="#f59e0b" fill="none" opacity="0.4"/>
                    <circle cx="93.88855916304237" cy="16.275016690633493" r="3" fill="#ec4899"/><path d="M 554.2578321501423 69.84626191187999 L 557.219924167805 119.84626191187999 L 591.1189328497585 169.84626191188" stroke="#f59e0b" fill="none" opacity="0.4"/>
                    <circle cx="554.2578321501423" cy="69.84626191187999" r="3" fill="#ec4899"/>
            <text x="600" y="520" font-family="Segoe UI, Arial, sans-serif" font-size="38" font-weight="800" fill="#ffffff" text-anchor="middle">Harnessing AI-Powered Emotion Recognition to Enhance User...</text>
            <text x="600" y="560" font-family="Segoe UI, Arial, sans-serif" font-size="16" font-weight="600" fill="#f59e0b" text-anchor="middle" style="letter-spacing: 4px; text-transform: uppercase;">UI UX Powerhouse • Specialized Series</text>
        </svg>