<svg width="1200" height="600" viewBox="0 0 1200 600" xmlns="http://www.w3.org/2000/svg">
            <rect width="1200" height="600" fill="#2e1065"/><path d="M 268.8457151041803 311.00434167456115 L 243.7597668495073 361.00434167456115 L 259.92548449103197 411.00434167456115" stroke="#d8b4fe" fill="none" opacity="0.4"/>
                    <circle cx="268.8457151041803" cy="311.00434167456115" r="3" fill="#4ade80"/><path d="M 6.709228704858106 99.0814625081839 L -33.64036135353672 149.0814625081839 L -12.241069125957438 199.0814625081839" stroke="#d8b4fe" fill="none" opacity="0.4"/>
                    <circle cx="6.709228704858106" cy="99.0814625081839" r="3" fill="#4ade80"/><path d="M 411.6860221940442 256.54516061549657 L 401.11935203015037 306.54516061549657 L 372.88919282345887 356.54516061549657" stroke="#d8b4fe" fill="none" opacity="0.4"/>
                    <circle cx="411.6860221940442" cy="256.54516061549657" r="3" fill="#4ade80"/><path d="M 609.3784379052522 34.56569982627116 L 657.8007366114434 84.56569982627116 L 627.7821457435493 134.56569982627116" stroke="#d8b4fe" fill="none" opacity="0.4"/>
                    <circle cx="609.3784379052522" cy="34.56569982627116" r="3" fill="#4ade80"/><path d="M 620.551039320344 366.6143651193124 L 607.0180836808504 416.6143651193124 L 632.4679434605059 466.6143651193124" stroke="#d8b4fe" fill="none" opacity="0.4"/>
                    <circle cx="620.551039320344" cy="366.6143651193124" r="3" fill="#4ade80"/><path d="M 347.77458400239993 172.1545779339067 L 358.0228090466335 222.1545779339067 L 352.94204987603734 272.1545779339067" stroke="#d8b4fe" fill="none" opacity="0.4"/>
                    <circle cx="347.77458400239993" cy="172.1545779339067" r="3" fill="#4ade80"/><path d="M 1022.5495783486622 288.35267249669414 L 1047.3864127840898 338.35267249669414 L 1008.7824600453132 388.35267249669414" stroke="#d8b4fe" fill="none" opacity="0.4"/>
                    <circle cx="1022.5495783486622" cy="288.35267249669414" r="3" fill="#4ade80"/><path d="M 1074.7514086891897 218.48024990031263 L 1120.8766748113703 268.48024990031263 L 1119.341752525179 318.48024990031263" stroke="#d8b4fe" fill="none" opacity="0.4"/>
                    <circle cx="1074.7514086891897" cy="218.48024990031263" r="3" fill="#4ade80"/><path d="M 342.4725182725524 106.44520668647601 L 380.0560895277158 156.445206686476 L 316.9716516812059 206.445206686476" stroke="#d8b4fe" fill="none" opacity="0.4"/>
                    <circle cx="342.4725182725524" cy="106.44520668647601" r="3" fill="#4ade80"/><path d="M 124.55976267738151 35.03990651661297 L 136.80016745156536 85.03990651661297 L 99.4864359141502 135.03990651661297" stroke="#d8b4fe" fill="none" opacity="0.4"/>
                    <circle cx="124.55976267738151" cy="35.03990651661297" r="3" fill="#4ade80"/>
            <text x="600" y="520" font-family="Segoe UI, Arial, sans-serif" font-size="38" font-weight="800" fill="#ffffff" text-anchor="middle">Harnessing Emotion AI: Designing Responsive Web Interface...</text>
            <text x="600" y="560" font-family="Segoe UI, Arial, sans-serif" font-size="16" font-weight="600" fill="#d8b4fe" text-anchor="middle" style="letter-spacing: 4px; text-transform: uppercase;">UI UX Powerhouse • Specialized Series</text>
        </svg>