<svg width="1200" height="600" viewBox="0 0 1200 600" xmlns="http://www.w3.org/2000/svg">
            <rect width="1200" height="600" fill="#2e1065"/><circle cx="1168.498903447471" cy="355.0689502430032" r="22.961611245336826" fill="#d8b4fe" opacity="0.1"/><circle cx="671.0598111472791" cy="121.88991565053584" r="37.64286482888565" fill="#d8b4fe" opacity="0.1"/><circle cx="1175.129097552417" cy="29.012971650081454" r="29.19487970641967" fill="#d8b4fe" opacity="0.1"/><circle cx="76.65548581298935" cy="115.81014733819757" r="37.55175011749088" fill="#d8b4fe" opacity="0.1"/><circle cx="622.6141167469905" cy="267.2790100281418" r="27.78414224521839" fill="#d8b4fe" opacity="0.1"/><circle cx="446.10908870854473" cy="270.14952425342926" r="26.28910788851499" fill="#d8b4fe" opacity="0.1"/><circle cx="767.7999269184511" cy="73.3617241428874" r="18.445226261974312" fill="#d8b4fe" opacity="0.1"/><circle cx="593.9933641448079" cy="300.7051451427287" r="22.311437023599865" fill="#d8b4fe" opacity="0.1"/><circle cx="670.361233465519" cy="84.83405871374998" r="24.340804444800597" fill="#d8b4fe" opacity="0.1"/><circle cx="877.9371721087955" cy="120.8035785217362" r="33.22870225114457" fill="#d8b4fe" opacity="0.1"/><circle cx="125.26150651610806" cy="357.7037927123456" r="16.27459311410803" fill="#d8b4fe" opacity="0.1"/><circle cx="850.463905902734" cy="332.2091015337719" r="28.881766524887098" fill="#d8b4fe" opacity="0.1"/><circle cx="1122.0218706745072" cy="243.5627987782027" r="35.77251545350009" fill="#d8b4fe" opacity="0.1"/><circle cx="716.8948848331638" cy="222.03147670588805" r="48.962977768333076" fill="#d8b4fe" opacity="0.1"/><circle cx="212.31882478823536" cy="88.05771026673028" r="47.45266797093791" fill="#d8b4fe" opacity="0.1"/><circle cx="409.05109621744487" cy="294.24978899405687" r="45.236008666761336" fill="#d8b4fe" opacity="0.1"/><circle cx="718.491394497687" cy="228.88353678499698" r="45.11605176234298" fill="#d8b4fe" opacity="0.1"/><circle cx="780.8056620473508" cy="96.06636298703961" r="28.299891684000613" fill="#d8b4fe" opacity="0.1"/><circle cx="547.0179163716239" cy="200.24685303724254" r="35.734826320331194" fill="#d8b4fe" opacity="0.1"/><circle cx="846.4271652810567" cy="224.14913876627907" r="36.93915605308575" fill="#d8b4fe" opacity="0.1"/><circle cx="264.31464693305315" cy="7.934127701264515" r="10.663639731428702" fill="#d8b4fe" opacity="0.1"/><circle cx="579.4183631260239" cy="16.00498208681529" r="28.81077375892346" fill="#d8b4fe" opacity="0.1"/><circle cx="142.33734341905802" cy="232.65118461567909" r="14.419354094279697" fill="#d8b4fe" opacity="0.1"/><circle cx="1168.9442445855093" cy="349.42172344453866" r="36.89053898611746" fill="#d8b4fe" opacity="0.1"/><circle cx="318.1034043562249" cy="161.28370355872903" r="21.499289419371053" fill="#d8b4fe" opacity="0.1"/><circle cx="1122.0641128918942" cy="44.552575345551304" r="41.04087172730942" fill="#d8b4fe" opacity="0.1"/><circle cx="288.3160695924744" cy="115.08950670086051" r="44.92452366663201" fill="#d8b4fe" opacity="0.1"/><circle cx="809.3685780993837" cy="353.09222597716143" r="31.229546432550706" fill="#d8b4fe" opacity="0.1"/><circle cx="839.2588794107724" cy="202.2892288001458" r="25.307653367581224" fill="#d8b4fe" opacity="0.1"/><circle cx="836.1652853262626" cy="201.51489966301597" r="45.00563990994124" fill="#d8b4fe" opacity="0.1"/>
            <text x="600" y="520" font-family="Segoe UI, Arial, sans-serif" font-size="38" font-weight="800" fill="#ffffff" text-anchor="middle">Harnessing AI-Driven User Personas: Revolutionizing UX De...</text>
            <text x="600" y="560" font-family="Segoe UI, Arial, sans-serif" font-size="16" font-weight="600" fill="#d8b4fe" text-anchor="middle" style="letter-spacing: 4px; text-transform: uppercase;">UI UX Powerhouse • Specialized Series</text>
        </svg>