<svg width="1200" height="600" viewBox="0 0 1200 600" xmlns="http://www.w3.org/2000/svg">
            <rect width="1200" height="600" fill="#1e1b4b"/><path d="M 618.1438905266987 292.63356081428356 L 617.0625792874489 342.63356081428356 L 643.2172288408765 392.63356081428356" stroke="#f43f5e" fill="none" opacity="0.4"/>
                    <circle cx="618.1438905266987" cy="292.63356081428356" r="3" fill="#22d3ee"/><path d="M 234.3484144852482 13.5317998244318 L 197.2355099748711 63.5317998244318 L 239.13841439170938 113.5317998244318" stroke="#f43f5e" fill="none" opacity="0.4"/>
                    <circle cx="234.3484144852482" cy="13.5317998244318" r="3" fill="#22d3ee"/><path d="M 1092.43802143028 293.4171589644393 L 1052.96824611778 343.4171589644393 L 1106.0773525733566 393.4171589644393" stroke="#f43f5e" fill="none" opacity="0.4"/>
                    <circle cx="1092.43802143028" cy="293.4171589644393" r="3" fill="#22d3ee"/><path d="M 319.2075190207106 224.87363161417306 L 352.2706726933393 274.87363161417306 L 276.65824336240803 324.87363161417306" stroke="#f43f5e" fill="none" opacity="0.4"/>
                    <circle cx="319.2075190207106" cy="224.87363161417306" r="3" fill="#22d3ee"/><path d="M 205.27767627900175 93.81105946522439 L 235.5920562998108 143.8110594652244 L 218.13862246453937 193.8110594652244" stroke="#f43f5e" fill="none" opacity="0.4"/>
                    <circle cx="205.27767627900175" cy="93.81105946522439" r="3" fill="#22d3ee"/><path d="M 936.3245924436342 121.45160861873592 L 915.2646275195366 171.45160861873592 L 908.9140620823855 221.45160861873592" stroke="#f43f5e" fill="none" opacity="0.4"/>
                    <circle cx="936.3245924436342" cy="121.45160861873592" r="3" fill="#22d3ee"/><path d="M 246.48310556585784 222.7075825448992 L 227.3395234007694 272.7075825448992 L 294.5814298254845 322.7075825448992" stroke="#f43f5e" fill="none" opacity="0.4"/>
                    <circle cx="246.48310556585784" cy="222.7075825448992" r="3" fill="#22d3ee"/><path d="M 717.1792292116152 345.48223676938505 L 760.4599285774384 395.48223676938505 L 683.9466422121404 445.48223676938505" stroke="#f43f5e" fill="none" opacity="0.4"/>
                    <circle cx="717.1792292116152" cy="345.48223676938505" r="3" fill="#22d3ee"/><path d="M 387.485800491595 119.93483592505072 L 385.7059079971805 169.93483592505072 L 388.97431296318246 219.93483592505072" stroke="#f43f5e" fill="none" opacity="0.4"/>
                    <circle cx="387.485800491595" cy="119.93483592505072" r="3" fill="#22d3ee"/><path d="M 867.3968859668094 332.21864834195003 L 860.798127797625 382.21864834195003 L 913.4487880870438 432.21864834195003" stroke="#f43f5e" fill="none" opacity="0.4"/>
                    <circle cx="867.3968859668094" cy="332.21864834195003" r="3" fill="#22d3ee"/>
            <text x="600" y="520" font-family="Segoe UI, Arial, sans-serif" font-size="38" font-weight="800" fill="#ffffff" text-anchor="middle">Hyper-Personalization through AI-Driven Emotion Recogniti...</text>
            <text x="600" y="560" font-family="Segoe UI, Arial, sans-serif" font-size="16" font-weight="600" fill="#f43f5e" text-anchor="middle" style="letter-spacing: 4px; text-transform: uppercase;">UI UX Powerhouse • Specialized Series</text>
        </svg>