<svg width="1200" height="600" viewBox="0 0 1200 600" xmlns="http://www.w3.org/2000/svg">
            <rect width="1200" height="600" fill="#111827"/><path d="M 0.471080838542548 200.3885443558829 L -13.14244845034409 250.3885443558829 L 27.25832701496529 300.3885443558829" stroke="#10b981" fill="none" opacity="0.4"/>
                    <circle cx="0.471080838542548" cy="200.3885443558829" r="3" fill="#fbbf24"/><path d="M 172.61710541279172 300.72399508135277 L 180.58383411444083 350.72399508135277 L 186.9828719050929 400.72399508135277" stroke="#10b981" fill="none" opacity="0.4"/>
                    <circle cx="172.61710541279172" cy="300.72399508135277" r="3" fill="#fbbf24"/><path d="M 457.34211817980395 374.8598331626454 L 444.7003581066383 424.8598331626454 L 466.94675958542575 474.8598331626454" stroke="#10b981" fill="none" opacity="0.4"/>
                    <circle cx="457.34211817980395" cy="374.8598331626454" r="3" fill="#fbbf24"/><path d="M 927.4305944593834 384.36031399760395 L 954.8406058497676 434.36031399760395 L 904.5174073669841 484.36031399760395" stroke="#10b981" fill="none" opacity="0.4"/>
                    <circle cx="927.4305944593834" cy="384.36031399760395" r="3" fill="#fbbf24"/><path d="M 369.60979024952394 112.6458232269215 L 382.47051927824316 162.6458232269215 L 415.3828600156885 212.6458232269215" stroke="#10b981" fill="none" opacity="0.4"/>
                    <circle cx="369.60979024952394" cy="112.6458232269215" r="3" fill="#fbbf24"/><path d="M 106.94370641795103 239.05066129664192 L 82.09638937059935 289.0506612966419 L 141.34128737277933 339.0506612966419" stroke="#10b981" fill="none" opacity="0.4"/>
                    <circle cx="106.94370641795103" cy="239.05066129664192" r="3" fill="#fbbf24"/><path d="M 563.7991339182918 32.14598200902401 L 524.5135740743535 82.14598200902401 L 592.6146084944776 132.145982009024" stroke="#10b981" fill="none" opacity="0.4"/>
                    <circle cx="563.7991339182918" cy="32.14598200902401" r="3" fill="#fbbf24"/><path d="M 1147.3609521501203 57.18686319742119 L 1149.6796549047758 107.18686319742119 L 1157.636922888031 157.1868631974212" stroke="#10b981" fill="none" opacity="0.4"/>
                    <circle cx="1147.3609521501203" cy="57.18686319742119" r="3" fill="#fbbf24"/><path d="M 997.4155155927292 110.5337137949391 L 979.0350410017709 160.5337137949391 L 981.4219923047858 210.5337137949391" stroke="#10b981" fill="none" opacity="0.4"/>
                    <circle cx="997.4155155927292" cy="110.5337137949391" r="3" fill="#fbbf24"/><path d="M 610.0304390995007 144.9538267119351 L 627.4378656526096 194.9538267119351 L 604.9450736087238 244.9538267119351" stroke="#10b981" fill="none" opacity="0.4"/>
                    <circle cx="610.0304390995007" cy="144.9538267119351" r="3" fill="#fbbf24"/>
            <text x="600" y="520" font-family="Segoe UI, Arial, sans-serif" font-size="38" font-weight="800" fill="#ffffff" text-anchor="middle">Hyper-Personalization in UI/UX: Leveraging AI to Create E...</text>
            <text x="600" y="560" font-family="Segoe UI, Arial, sans-serif" font-size="16" font-weight="600" fill="#10b981" text-anchor="middle" style="letter-spacing: 4px; text-transform: uppercase;">UI UX Powerhouse • Specialized Series</text>
        </svg>