<svg width="1200" height="600" viewBox="0 0 1200 600" xmlns="http://www.w3.org/2000/svg">
            <rect width="1200" height="600" fill="#1e1b4b"/><circle cx="454.6305109961395" cy="104.58880634469097" r="25.12153585019405" fill="#f43f5e" opacity="0.1"/><circle cx="1093.1513429146435" cy="191.65003262387472" r="10.713906713790493" fill="#f43f5e" opacity="0.1"/><circle cx="825.2756479050731" cy="36.39398547484234" r="27.262999564045458" fill="#f43f5e" opacity="0.1"/><circle cx="717.6318190762686" cy="376.84361266874475" r="25.238339863826695" fill="#f43f5e" opacity="0.1"/><circle cx="521.5098778080574" cy="186.2621458400099" r="38.45185281845261" fill="#f43f5e" opacity="0.1"/><circle cx="852.1244009491056" cy="127.84120293144952" r="15.642210337464348" fill="#f43f5e" opacity="0.1"/><circle cx="832.146893155732" cy="7.794815398847277" r="41.434830886573764" fill="#f43f5e" opacity="0.1"/><circle cx="717.1428240173555" cy="265.33342000693665" r="29.26007890571782" fill="#f43f5e" opacity="0.1"/><circle cx="1090.6920428395097" cy="300.04554662409646" r="20.453525654729674" fill="#f43f5e" opacity="0.1"/><circle cx="917.3831690895895" cy="143.4292816415109" r="21.871753235682263" fill="#f43f5e" opacity="0.1"/><circle cx="828.2320203908057" cy="108.40349269710714" r="14.09054127172567" fill="#f43f5e" opacity="0.1"/><circle cx="435.00045258806495" cy="119.71542984611006" r="22.797735630992975" fill="#f43f5e" opacity="0.1"/><circle cx="283.10220958301215" cy="340.4048408847302" r="42.3763402782788" fill="#f43f5e" opacity="0.1"/><circle cx="1152.8173043307106" cy="260.29742505597824" r="20.950297682029486" fill="#f43f5e" opacity="0.1"/><circle cx="909.9182917109772" cy="178.82934426379506" r="10.325354105716542" fill="#f43f5e" opacity="0.1"/><circle cx="341.5800061527989" cy="84.19302126858383" r="23.287919842041447" fill="#f43f5e" opacity="0.1"/><circle cx="487.0624290902924" cy="160.66799933869333" r="18.101810984808253" fill="#f43f5e" opacity="0.1"/><circle cx="820.3028748846009" cy="253.19790018329513" r="28.50034324474109" fill="#f43f5e" opacity="0.1"/><circle cx="692.8342316568887" cy="124.54806425230345" r="27.482427247960004" fill="#f43f5e" opacity="0.1"/><circle cx="473.2978040105081" cy="251.3438387781207" r="13.751831262052292" fill="#f43f5e" opacity="0.1"/><circle cx="723.8874946895521" cy="377.73018926163786" r="44.93796227634448" fill="#f43f5e" opacity="0.1"/><circle cx="387.5015781926777" cy="50.506360417057294" r="34.57189939195814" fill="#f43f5e" opacity="0.1"/><circle cx="892.1128706322634" cy="6.391523792808584" r="39.19585090318833" fill="#f43f5e" opacity="0.1"/><circle cx="744.1746301497915" cy="61.862725832588694" r="38.80834417446749" fill="#f43f5e" opacity="0.1"/><circle cx="1094.8093524057185" cy="87.88729755760869" r="15.639969525873312" fill="#f43f5e" opacity="0.1"/><circle cx="503.4903879968624" cy="259.5680395301315" r="47.90737922268818" fill="#f43f5e" opacity="0.1"/><circle cx="611.7460775712971" cy="270.6992224483656" r="45.466900001774775" fill="#f43f5e" opacity="0.1"/><circle cx="1100.8076209916908" cy="254.15052180323983" r="23.296213065987104" fill="#f43f5e" opacity="0.1"/><circle cx="151.808113385232" cy="126.41580998752033" r="36.12432025067392" fill="#f43f5e" opacity="0.1"/><circle cx="108.92640067722823" cy="166.67425409395946" r="24.095417113530857" fill="#f43f5e" opacity="0.1"/>
            <text x="600" y="520" font-family="Segoe UI, Arial, sans-serif" font-size="38" font-weight="800" fill="#ffffff" text-anchor="middle">Implementing Advanced Data Grids: A Comprehensive Guide t...</text>
            <text x="600" y="560" font-family="Segoe UI, Arial, sans-serif" font-size="16" font-weight="600" fill="#f43f5e" text-anchor="middle" style="letter-spacing: 4px; text-transform: uppercase;">UI UX Powerhouse • Specialized Series</text>
        </svg>