<svg width="1200" height="600" viewBox="0 0 1200 600" xmlns="http://www.w3.org/2000/svg">
        
            <rect width="1200" height="600" fill="#1e1b4b"/>
            <g opacity="0.3">
                <line x1="346.4703466030187" y1="143.62140505891148" x2="404.99430749114254" y2="204.20148810098908" stroke="#fb7185" stroke-width="1"/><line x1="346.4703466030187" y1="143.62140505891148" x2="344.5987265655276" y2="358.32767222655093" stroke="#fb7185" stroke-width="1"/><line x1="346.4703466030187" y1="143.62140505891148" x2="587.6989301708818" y2="263.31101930118166" stroke="#fb7185" stroke-width="1"/><line x1="346.4703466030187" y1="143.62140505891148" x2="507.40873828326585" y2="118.40777888533012" stroke="#fb7185" stroke-width="1"/><line x1="346.4703466030187" y1="143.62140505891148" x2="837.6723919605865" y2="154.3573029518484" stroke="#fb7185" stroke-width="1"/><line x1="404.99430749114254" y1="204.20148810098908" x2="344.5987265655276" y2="358.32767222655093" stroke="#fb7185" stroke-width="1"/><line x1="404.99430749114254" y1="204.20148810098908" x2="587.6989301708818" y2="263.31101930118166" stroke="#fb7185" stroke-width="1"/><line x1="404.99430749114254" y1="204.20148810098908" x2="507.40873828326585" y2="118.40777888533012" stroke="#fb7185" stroke-width="1"/><line x1="404.99430749114254" y1="204.20148810098908" x2="837.6723919605865" y2="154.3573029518484" stroke="#fb7185" stroke-width="1"/><line x1="344.5987265655276" y1="358.32767222655093" x2="587.6989301708818" y2="263.31101930118166" stroke="#fb7185" stroke-width="1"/><line x1="344.5987265655276" y1="358.32767222655093" x2="507.40873828326585" y2="118.40777888533012" stroke="#fb7185" stroke-width="1"/><line x1="344.5987265655276" y1="358.32767222655093" x2="837.6723919605865" y2="154.3573029518484" stroke="#fb7185" stroke-width="1"/><line x1="587.6989301708818" y1="263.31101930118166" x2="507.40873828326585" y2="118.40777888533012" stroke="#fb7185" stroke-width="1"/><line x1="587.6989301708818" y1="263.31101930118166" x2="837.6723919605865" y2="154.3573029518484" stroke="#fb7185" stroke-width="1"/><line x1="507.40873828326585" y1="118.40777888533012" x2="837.6723919605865" y2="154.3573029518484" stroke="#fb7185" stroke-width="1"/>
            </g>
            <circle cx="346.4703466030187" cy="143.62140505891148" r="6.9161851712924545" fill="#fb7185"/><circle cx="404.99430749114254" cy="204.20148810098908" r="10.929421201188234" fill="#fb7185"/><circle cx="344.5987265655276" cy="358.32767222655093" r="7.561529804479505" fill="#fb7185"/><circle cx="587.6989301708818" cy="263.31101930118166" r="8.299439922680904" fill="#fb7185"/><circle cx="507.40873828326585" cy="118.40777888533012" r="9.941144081167295" fill="#fb7185"/><circle cx="837.6723919605865" cy="154.3573029518484" r="5.191228453390067" fill="#fb7185"/>
        
        <text x="600" y="520" font-family="Segoe UI, Arial" font-size="38" font-weight="800" fill="#f8fafc" text-anchor="middle">Implementing Advanced Gesture-Based Navigation Patterns f...</text>
    </svg>