<svg width="1200" height="600" viewBox="0 0 1200 600" xmlns="http://www.w3.org/2000/svg">
            <rect width="1200" height="600" fill="#2e1065"/><path d="M 338.97014867616235 312.2046629236138 L 340.657663914817 362.2046629236138 L 380.15695386538937 412.2046629236138" stroke="#d8b4fe" fill="none" opacity="0.4"/>
                    <circle cx="338.97014867616235" cy="312.2046629236138" r="3" fill="#4ade80"/><path d="M 547.61195026731 314.68637103134824 L 522.6319293136839 364.68637103134824 L 543.1928247179712 414.68637103134824" stroke="#d8b4fe" fill="none" opacity="0.4"/>
                    <circle cx="547.61195026731" cy="314.68637103134824" r="3" fill="#4ade80"/><path d="M 931.3254694941861 386.9671065309376 L 977.6866942558627 436.9671065309376 L 960.495966432245 486.9671065309376" stroke="#d8b4fe" fill="none" opacity="0.4"/>
                    <circle cx="931.3254694941861" cy="386.9671065309376" r="3" fill="#4ade80"/><path d="M 548.5171608088422 352.1450557363096 L 524.9645781426807 402.1450557363096 L 574.2757871268623 452.1450557363096" stroke="#d8b4fe" fill="none" opacity="0.4"/>
                    <circle cx="548.5171608088422" cy="352.1450557363096" r="3" fill="#4ade80"/><path d="M 700.6382774372469 97.23682205549267 L 678.9901367654238 147.23682205549267 L 716.9288066785157 197.23682205549267" stroke="#d8b4fe" fill="none" opacity="0.4"/>
                    <circle cx="700.6382774372469" cy="97.23682205549267" r="3" fill="#4ade80"/><path d="M 742.1420157428656 22.02395878266543 L 711.0660592337808 72.02395878266543 L 713.105364367766 122.02395878266543" stroke="#d8b4fe" fill="none" opacity="0.4"/>
                    <circle cx="742.1420157428656" cy="22.02395878266543" r="3" fill="#4ade80"/><path d="M 312.84660395394894 310.5465440035914 L 266.30747966091803 360.5465440035914 L 343.0035291283275 410.5465440035914" stroke="#d8b4fe" fill="none" opacity="0.4"/>
                    <circle cx="312.84660395394894" cy="310.5465440035914" r="3" fill="#4ade80"/><path d="M 126.20911401172634 203.04783043866337 L 165.0775625186725 253.04783043866337 L 136.64908886369176 303.04783043866337" stroke="#d8b4fe" fill="none" opacity="0.4"/>
                    <circle cx="126.20911401172634" cy="203.04783043866337" r="3" fill="#4ade80"/><path d="M 112.87465506429726 292.06578849843936 L 129.44639960041968 342.06578849843936 L 100.10343898275096 392.06578849843936" stroke="#d8b4fe" fill="none" opacity="0.4"/>
                    <circle cx="112.87465506429726" cy="292.06578849843936" r="3" fill="#4ade80"/><path d="M 482.33759466165793 133.77571643068222 L 463.649887529391 183.77571643068222 L 442.6756355082034 233.77571643068222" stroke="#d8b4fe" fill="none" opacity="0.4"/>
                    <circle cx="482.33759466165793" cy="133.77571643068222" r="3" fill="#4ade80"/>
            <text x="600" y="520" font-family="Segoe UI, Arial, sans-serif" font-size="38" font-weight="800" fill="#ffffff" text-anchor="middle">Implementing Advanced Accessibility Features for Multi-Us...</text>
            <text x="600" y="560" font-family="Segoe UI, Arial, sans-serif" font-size="16" font-weight="600" fill="#d8b4fe" text-anchor="middle" style="letter-spacing: 4px; text-transform: uppercase;">UI UX Powerhouse • Specialized Series</text>
        </svg>