<svg width="1200" height="600" viewBox="0 0 1200 600" xmlns="http://www.w3.org/2000/svg">
        <rect width="1200" height="600" fill="#2e1065"/><circle cx="0.9153238621365745" cy="331.061064815367" r="41.42969188369534" fill="#d8b4fe" opacity="0.1"/><circle cx="135.95619790867204" cy="329.5443453547705" r="10.761801329572336" fill="#d8b4fe" opacity="0.1"/><circle cx="753.8496435401612" cy="314.82075463227375" r="35.974333896811004" fill="#d8b4fe" opacity="0.1"/><circle cx="969.2093381145241" cy="372.66905589021917" r="10.979449428195949" fill="#d8b4fe" opacity="0.1"/><circle cx="124.83547362026002" cy="141.73731195551227" r="29.030344416642038" fill="#d8b4fe" opacity="0.1"/><circle cx="284.3002883342706" cy="187.5995917187538" r="16.13788480452058" fill="#d8b4fe" opacity="0.1"/><circle cx="217.96812023749226" cy="304.0741524695477" r="24.030803076020675" fill="#d8b4fe" opacity="0.1"/><circle cx="30.78561677284597" cy="16.715932328952476" r="16.103609376041277" fill="#d8b4fe" opacity="0.1"/><circle cx="539.7834056361489" cy="124.52202017775562" r="23.466377306249342" fill="#d8b4fe" opacity="0.1"/><circle cx="953.0908537206415" cy="383.4303154140798" r="17.36324302273715" fill="#d8b4fe" opacity="0.1"/><circle cx="533.3573422853078" cy="226.11342564086954" r="43.788080607919255" fill="#d8b4fe" opacity="0.1"/><circle cx="1.8145823356462643" cy="35.290965704916744" r="42.91093923115113" fill="#d8b4fe" opacity="0.1"/><circle cx="660.5928297689388" cy="95.06996898853686" r="48.45193388055122" fill="#d8b4fe" opacity="0.1"/><circle cx="223.94319145187183" cy="95.41475326295767" r="33.625709622356226" fill="#d8b4fe" opacity="0.1"/><circle cx="1112.1283149754163" cy="281.9158872938715" r="19.93885916268482" fill="#d8b4fe" opacity="0.1"/><circle cx="241.36066294267948" cy="262.5229581804888" r="14.550586475097589" fill="#d8b4fe" opacity="0.1"/><circle cx="364.69476040801965" cy="182.9029812986846" r="31.38877776749723" fill="#d8b4fe" opacity="0.1"/><circle cx="1053.6149321975245" cy="393.17343129368965" r="48.46606599559891" fill="#d8b4fe" opacity="0.1"/><circle cx="1160.1131117124169" cy="200.73087994460366" r="25.760604125207465" fill="#d8b4fe" opacity="0.1"/><circle cx="213.2532337353723" cy="34.39800584092154" r="45.918097516478156" fill="#d8b4fe" opacity="0.1"/><circle cx="1189.8278899665456" cy="228.2139703816938" r="39.252161225667805" fill="#d8b4fe" opacity="0.1"/><circle cx="144.51199823488423" cy="248.51533650653437" r="29.458354774760664" fill="#d8b4fe" opacity="0.1"/><circle cx="469.9647512756201" cy="388.15223825440626" r="15.18300608093341" fill="#d8b4fe" opacity="0.1"/><circle cx="120.89153436245397" cy="110.8019849008997" r="12.258258788574494" fill="#d8b4fe" opacity="0.1"/><circle cx="555.909819853332" cy="291.8000696165109" r="44.596648101942264" fill="#d8b4fe" opacity="0.1"/><circle cx="265.47850648494205" cy="212.9008737469121" r="39.76654343199243" fill="#d8b4fe" opacity="0.1"/><circle cx="1080.7168641476892" cy="397.582167127257" r="13.959443154053588" fill="#d8b4fe" opacity="0.1"/><circle cx="321.10684046838287" cy="208.3195271596196" r="29.162801491365826" fill="#d8b4fe" opacity="0.1"/><circle cx="494.47464341910745" cy="298.87891118960397" r="14.39344183592766" fill="#d8b4fe" opacity="0.1"/><circle cx="537.1468295350496" cy="193.81951303403184" r="11.741890710873122" fill="#d8b4fe" opacity="0.1"/>
        <text x="600" y="520" font-family="Segoe UI, Arial, sans-serif" font-size="38" font-weight="800" fill="#ffffff" text-anchor="middle">Implementing Adaptive Learning Paths in E-Learning Platfo...</text>
        <text x="600" y="560" font-family="Segoe UI, Arial, sans-serif" font-size="16" font-weight="600" fill="#d8b4fe" text-anchor="middle" style="letter-spacing: 4px; text-transform: uppercase;">UI UX Powerhouse • Specialized Series</text>
    </svg>