<svg width="1200" height="600" viewBox="0 0 1200 600" xmlns="http://www.w3.org/2000/svg">
            <rect width="1200" height="600" fill="#2e1065"/><circle cx="181.17977428628365" cy="221.62456400837982" r="43.10470127657027" fill="#d8b4fe" opacity="0.1"/><circle cx="558.2302877868642" cy="316.46744702666183" r="45.04958211626217" fill="#d8b4fe" opacity="0.1"/><circle cx="414.38847950994386" cy="160.24537313496694" r="38.52476264346478" fill="#d8b4fe" opacity="0.1"/><circle cx="688.8328024979273" cy="106.45770814080606" r="25.522360112372553" fill="#d8b4fe" opacity="0.1"/><circle cx="127.62582531577209" cy="247.6943628564186" r="15.533522410223668" fill="#d8b4fe" opacity="0.1"/><circle cx="723.6260424990178" cy="147.02471597411204" r="28.55502744205296" fill="#d8b4fe" opacity="0.1"/><circle cx="30.463233856426086" cy="310.20553925081913" r="16.24790790148836" fill="#d8b4fe" opacity="0.1"/><circle cx="813.3784489340087" cy="246.6947393542796" r="28.11094828746718" fill="#d8b4fe" opacity="0.1"/><circle cx="974.0601130386949" cy="245.83093725159415" r="11.601978148173657" fill="#d8b4fe" opacity="0.1"/><circle cx="1183.308106413324" cy="342.7536006664013" r="41.15530895835036" fill="#d8b4fe" opacity="0.1"/><circle cx="1055.4565743550484" cy="379.99472862836683" r="12.104181208487717" fill="#d8b4fe" opacity="0.1"/><circle cx="91.36844583445054" cy="129.18057700881036" r="23.78214464230041" fill="#d8b4fe" opacity="0.1"/><circle cx="548.7542447053784" cy="136.61037356687302" r="34.214558295716415" fill="#d8b4fe" opacity="0.1"/><circle cx="1170.811181791214" cy="358.52947732637404" r="14.678892687006737" fill="#d8b4fe" opacity="0.1"/><circle cx="965.9297510974284" cy="342.19370629361947" r="15.624291109270416" fill="#d8b4fe" opacity="0.1"/><circle cx="429.06879181828117" cy="378.7886533005917" r="20.341081244987436" fill="#d8b4fe" opacity="0.1"/><circle cx="359.00753612440894" cy="369.5995776077325" r="37.5610158588097" fill="#d8b4fe" opacity="0.1"/><circle cx="889.229416022863" cy="33.26430981978774" r="25.301220650871983" fill="#d8b4fe" opacity="0.1"/><circle cx="365.13037816184806" cy="16.74701789052051" r="28.017880915158457" fill="#d8b4fe" opacity="0.1"/><circle cx="454.3799685914564" cy="214.20055845883326" r="38.98541299524368" fill="#d8b4fe" opacity="0.1"/><circle cx="685.9059479158532" cy="39.421235140252975" r="17.240297175376327" fill="#d8b4fe" opacity="0.1"/><circle cx="916.2133164332772" cy="4.564741011017759" r="21.421129253085383" fill="#d8b4fe" opacity="0.1"/><circle cx="643.9169900098932" cy="67.21434753817448" r="10.578392814231847" fill="#d8b4fe" opacity="0.1"/><circle cx="313.7759946370352" cy="262.07156480923004" r="48.14550302646239" fill="#d8b4fe" opacity="0.1"/><circle cx="264.751707790856" cy="251.79823084145028" r="49.46874919871334" fill="#d8b4fe" opacity="0.1"/><circle cx="698.0351996739046" cy="273.76348953876004" r="27.1562101980453" fill="#d8b4fe" opacity="0.1"/><circle cx="893.0610317656829" cy="140.89189956102928" r="16.51452046375198" fill="#d8b4fe" opacity="0.1"/><circle cx="943.7417028180789" cy="86.77498431134154" r="12.763927485393651" fill="#d8b4fe" opacity="0.1"/><circle cx="50.84729483132833" cy="150.6912455908605" r="47.20302556084789" fill="#d8b4fe" opacity="0.1"/><circle cx="683.0087963266124" cy="56.19132238552993" r="40.88514120451691" fill="#d8b4fe" opacity="0.1"/>
            <text x="600" y="520" font-family="Segoe UI, Arial, sans-serif" font-size="38" font-weight="800" fill="#ffffff" text-anchor="middle">Implementing Complex State Management in React with the u...</text>
            <text x="600" y="560" font-family="Segoe UI, Arial, sans-serif" font-size="16" font-weight="600" fill="#d8b4fe" text-anchor="middle" style="letter-spacing: 4px; text-transform: uppercase;">UI UX Powerhouse • Specialized Series</text>
        </svg>