<svg width="1200" height="600" viewBox="0 0 1200 600" xmlns="http://www.w3.org/2000/svg">
            <rect width="1200" height="600" fill="#0f172a"/><path d="M 1036.7783308982325 384.66195771325147 L 1017.6519779150112 434.66195771325147 L 1057.8604107879073 484.66195771325147" stroke="#38bdf8" fill="none" opacity="0.4"/>
                    <circle cx="1036.7783308982325" cy="384.66195771325147" r="3" fill="#f472b6"/><path d="M 331.5514573623659 362.53559583683455 L 337.0862213533883 412.53559583683455 L 320.7004988959852 462.53559583683455" stroke="#38bdf8" fill="none" opacity="0.4"/>
                    <circle cx="331.5514573623659" cy="362.53559583683455" r="3" fill="#f472b6"/><path d="M 137.06502340137376 364.786882687622 L 97.38067233847687 414.786882687622 L 122.6560738261469 464.786882687622" stroke="#38bdf8" fill="none" opacity="0.4"/>
                    <circle cx="137.06502340137376" cy="364.786882687622" r="3" fill="#f472b6"/><path d="M 337.50994509318843 129.88498318663915 L 292.4038869882679 179.88498318663915 L 386.7503106076583 229.88498318663915" stroke="#38bdf8" fill="none" opacity="0.4"/>
                    <circle cx="337.50994509318843" cy="129.88498318663915" r="3" fill="#f472b6"/><path d="M 141.4386921653204 128.71010465132713 L 136.50173156229357 178.71010465132713 L 114.78182577884581 228.71010465132713" stroke="#38bdf8" fill="none" opacity="0.4"/>
                    <circle cx="141.4386921653204" cy="128.71010465132713" r="3" fill="#f472b6"/><path d="M 373.206391745407 218.2475786350551 L 393.36431841975354 268.2475786350551 L 409.53915819427493 318.2475786350551" stroke="#38bdf8" fill="none" opacity="0.4"/>
                    <circle cx="373.206391745407" cy="218.2475786350551" r="3" fill="#f472b6"/><path d="M 1016.2922353789327 213.917354241039 L 989.824331609725 263.917354241039 L 969.3011061077414 313.917354241039" stroke="#38bdf8" fill="none" opacity="0.4"/>
                    <circle cx="1016.2922353789327" cy="213.917354241039" r="3" fill="#f472b6"/><path d="M 999.5236390594982 48.53701497122529 L 956.6267043323251 98.53701497122529 L 1035.0911573282247 148.5370149712253" stroke="#38bdf8" fill="none" opacity="0.4"/>
                    <circle cx="999.5236390594982" cy="48.53701497122529" r="3" fill="#f472b6"/><path d="M 915.7524890715649 37.888961521093734 L 964.3562792274679 87.88896152109373 L 883.5286487832491 137.88896152109373" stroke="#38bdf8" fill="none" opacity="0.4"/>
                    <circle cx="915.7524890715649" cy="37.888961521093734" r="3" fill="#f472b6"/><path d="M 1180.9569295735855 88.57703962748928 L 1187.2798944684291 138.57703962748928 L 1229.9891940810994 188.57703962748928" stroke="#38bdf8" fill="none" opacity="0.4"/>
                    <circle cx="1180.9569295735855" cy="88.57703962748928" r="3" fill="#f472b6"/>
            <text x="600" y="520" font-family="Segoe UI, Arial, sans-serif" font-size="38" font-weight="800" fill="#ffffff" text-anchor="middle">Implementing Advanced Time Zone Handling for Dynamic Date...</text>
            <text x="600" y="560" font-family="Segoe UI, Arial, sans-serif" font-size="16" font-weight="600" fill="#38bdf8" text-anchor="middle" style="letter-spacing: 4px; text-transform: uppercase;">UI UX Powerhouse • Specialized Series</text>
        </svg>