<svg width="1200" height="600" viewBox="0 0 1200 600" xmlns="http://www.w3.org/2000/svg">
            <rect width="1200" height="600" fill="#171717"/><circle cx="164.53285059469636" cy="301.5869936607487" r="16.50351794967719" fill="#f59e0b" opacity="0.1"/><circle cx="394.2759586505417" cy="55.81436645975373" r="33.989642056913" fill="#f59e0b" opacity="0.1"/><circle cx="581.7250290085212" cy="314.357705139264" r="26.042893063495285" fill="#f59e0b" opacity="0.1"/><circle cx="76.43872154221754" cy="199.53350693685934" r="42.14410998827134" fill="#f59e0b" opacity="0.1"/><circle cx="782.1885347018906" cy="36.76198021930759" r="43.65924010897885" fill="#f59e0b" opacity="0.1"/><circle cx="839.1449408678454" cy="260.16996229300275" r="12.487458165014687" fill="#f59e0b" opacity="0.1"/><circle cx="284.9178007549199" cy="215.93665334039542" r="17.124040401831735" fill="#f59e0b" opacity="0.1"/><circle cx="563.4805781534851" cy="83.01854311284842" r="41.44254631165211" fill="#f59e0b" opacity="0.1"/><circle cx="1040.1101072166057" cy="275.37335358201744" r="26.707533828848682" fill="#f59e0b" opacity="0.1"/><circle cx="608.768591646367" cy="154.47797948145308" r="10.013183748715164" fill="#f59e0b" opacity="0.1"/><circle cx="345.9907564705645" cy="378.05588496485143" r="44.399533466639696" fill="#f59e0b" opacity="0.1"/><circle cx="644.3754226591409" cy="301.82986335785245" r="42.44791467719551" fill="#f59e0b" opacity="0.1"/><circle cx="187.32078559405636" cy="166.67679114398197" r="46.682663146330015" fill="#f59e0b" opacity="0.1"/><circle cx="1007.4676121657831" cy="333.5415282874237" r="24.03340185584966" fill="#f59e0b" opacity="0.1"/><circle cx="1038.9604184638301" cy="33.14058524883876" r="40.29521456450311" fill="#f59e0b" opacity="0.1"/><circle cx="960.8087772663566" cy="327.0156916230917" r="44.13646197812341" fill="#f59e0b" opacity="0.1"/><circle cx="298.5502816633016" cy="216.2269620646839" r="20.519682452331836" fill="#f59e0b" opacity="0.1"/><circle cx="44.76343984351843" cy="388.1928915841854" r="28.646221893832262" fill="#f59e0b" opacity="0.1"/><circle cx="1138.1090937138651" cy="68.5744340356905" r="28.64064628163419" fill="#f59e0b" opacity="0.1"/><circle cx="946.0470048126808" cy="97.91147157884552" r="17.08611347756232" fill="#f59e0b" opacity="0.1"/><circle cx="856.5263462653093" cy="221.66845900865155" r="12.997036587003095" fill="#f59e0b" opacity="0.1"/><circle cx="405.3976707287802" cy="397.5210325603257" r="13.2846045010956" fill="#f59e0b" opacity="0.1"/><circle cx="1032.4472020227404" cy="46.49052507120359" r="22.463666387629928" fill="#f59e0b" opacity="0.1"/><circle cx="291.38147858539014" cy="158.77371276001213" r="42.51071619273716" fill="#f59e0b" opacity="0.1"/><circle cx="980.0289317861825" cy="187.7754693512543" r="15.989207536713366" fill="#f59e0b" opacity="0.1"/><circle cx="330.8065527227882" cy="5.39981217298191" r="44.67883781850105" fill="#f59e0b" opacity="0.1"/><circle cx="900.7144680239435" cy="11.509008226676087" r="15.414712015190162" fill="#f59e0b" opacity="0.1"/><circle cx="1097.4042606467265" cy="196.9224749125715" r="32.69727172075363" fill="#f59e0b" opacity="0.1"/><circle cx="1064.9645000657983" cy="88.99699813810003" r="45.28248323229491" fill="#f59e0b" opacity="0.1"/><circle cx="1019.4277721737308" cy="357.4273509741033" r="22.54109970512218" fill="#f59e0b" opacity="0.1"/>
            <text x="600" y="520" font-family="Segoe UI, Arial, sans-serif" font-size="38" font-weight="800" fill="#ffffff" text-anchor="middle">Implementing Context-Aware Tooltip Enhancements for Data-...</text>
            <text x="600" y="560" font-family="Segoe UI, Arial, sans-serif" font-size="16" font-weight="600" fill="#f59e0b" text-anchor="middle" style="letter-spacing: 4px; text-transform: uppercase;">UI UX Powerhouse • Specialized Series</text>
        </svg>