<svg width="1200" height="600" viewBox="0 0 1200 600" xmlns="http://www.w3.org/2000/svg">
        <rect width="1200" height="600" fill="#111827"/><path d="M 731.6424156284484 236.97633840401977 L 722.7648196960217 286.97633840401977 L 753.2152397218397 336.97633840401977" stroke="#10b981" fill="none" opacity="0.4"/>
                    <circle cx="731.6424156284484" cy="236.97633840401977" r="3" fill="#fbbf24"/><path d="M 837.1860724826547 22.482300052797655 L 873.08814789194 72.48230005279765 L 822.5234384221949 122.48230005279765" stroke="#10b981" fill="none" opacity="0.4"/>
                    <circle cx="837.1860724826547" cy="22.482300052797655" r="3" fill="#fbbf24"/><path d="M 686.713364989555 363.3542401229988 L 663.8425341414404 413.3542401229988 L 730.5704195567159 463.3542401229988" stroke="#10b981" fill="none" opacity="0.4"/>
                    <circle cx="686.713364989555" cy="363.3542401229988" r="3" fill="#fbbf24"/><path d="M 753.0846817484417 79.70491075066093 L 733.2310211331787 129.70491075066093 L 727.6638460818504 179.70491075066093" stroke="#10b981" fill="none" opacity="0.4"/>
                    <circle cx="753.0846817484417" cy="79.70491075066093" r="3" fill="#fbbf24"/><path d="M 773.6504921987944 151.1908316573681 L 755.5134066611572 201.1908316573681 L 814.7864378785926 251.1908316573681" stroke="#10b981" fill="none" opacity="0.4"/>
                    <circle cx="773.6504921987944" cy="151.1908316573681" r="3" fill="#fbbf24"/><path d="M 302.51455003162846 165.16206457235967 L 298.98104447656806 215.16206457235967 L 319.52989147335416 265.16206457235967" stroke="#10b981" fill="none" opacity="0.4"/>
                    <circle cx="302.51455003162846" cy="165.16206457235967" r="3" fill="#fbbf24"/><path d="M 1014.1578484036245 380.26678579481086 L 1020.3379587371046 430.26678579481086 L 978.2253417431775 480.26678579481086" stroke="#10b981" fill="none" opacity="0.4"/>
                    <circle cx="1014.1578484036245" cy="380.26678579481086" r="3" fill="#fbbf24"/><path d="M 1102.1656922610418 189.20903411546988 L 1067.453844877673 239.20903411546988 L 1116.1078495593756 289.2090341154699" stroke="#10b981" fill="none" opacity="0.4"/>
                    <circle cx="1102.1656922610418" cy="189.20903411546988" r="3" fill="#fbbf24"/><path d="M 459.3082645420509 22.017175979999593 L 499.73693482315866 72.01717597999959 L 453.2365181658861 122.01717597999959" stroke="#10b981" fill="none" opacity="0.4"/>
                    <circle cx="459.3082645420509" cy="22.017175979999593" r="3" fill="#fbbf24"/><path d="M 771.441112501634 45.537128215437406 L 790.6181473907054 95.5371282154374 L 773.5086453902113 145.5371282154374" stroke="#10b981" fill="none" opacity="0.4"/>
                    <circle cx="771.441112501634" cy="45.537128215437406" r="3" fill="#fbbf24"/>
        <text x="600" y="520" font-family="Segoe UI, Arial, sans-serif" font-size="38" font-weight="800" fill="#ffffff" text-anchor="middle">Implementing Progressive Web App (PWA) Features for Enhan...</text>
        <text x="600" y="560" font-family="Segoe UI, Arial, sans-serif" font-size="16" font-weight="600" fill="#10b981" text-anchor="middle" style="letter-spacing: 4px; text-transform: uppercase;">UI UX Powerhouse • Specialized Series</text>
    </svg>