<svg width="1200" height="600" viewBox="0 0 1200 600" xmlns="http://www.w3.org/2000/svg">
            <rect width="1200" height="600" fill="#171717"/><path d="M 331.9103411915421 53.5228231072324 L 297.57205208770756 103.5228231072324 L 330.5423417469683 153.5228231072324" stroke="#f59e0b" fill="none" opacity="0.4"/>
                    <circle cx="331.9103411915421" cy="53.5228231072324" r="3" fill="#ec4899"/><path d="M 818.8276610846515 8.119426556368126 L 821.5068985752168 58.119426556368126 L 776.2237489145264 108.11942655636813" stroke="#f59e0b" fill="none" opacity="0.4"/>
                    <circle cx="818.8276610846515" cy="8.119426556368126" r="3" fill="#ec4899"/><path d="M 633.8358088985842 181.2097954676574 L 658.5031871709361 231.2097954676574 L 627.9677770529815 281.2097954676574" stroke="#f59e0b" fill="none" opacity="0.4"/>
                    <circle cx="633.8358088985842" cy="181.2097954676574" r="3" fill="#ec4899"/><path d="M 575.5322163528035 251.2202377878566 L 587.6486376096182 301.2202377878566 L 587.356985031829 351.2202377878566" stroke="#f59e0b" fill="none" opacity="0.4"/>
                    <circle cx="575.5322163528035" cy="251.2202377878566" r="3" fill="#ec4899"/><path d="M 84.76019797599292 51.75447567307856 L 98.95130611585046 101.75447567307856 L 80.19487670226226 151.75447567307856" stroke="#f59e0b" fill="none" opacity="0.4"/>
                    <circle cx="84.76019797599292" cy="51.75447567307856" r="3" fill="#ec4899"/><path d="M 528.6131607764219 152.98785597115057 L 574.894711128627 202.98785597115057 L 534.7418137281238 252.98785597115057" stroke="#f59e0b" fill="none" opacity="0.4"/>
                    <circle cx="528.6131607764219" cy="152.98785597115057" r="3" fill="#ec4899"/><path d="M 72.01131190595333 378.86438668356277 L 73.81052114506019 428.86438668356277 L 36.64114728871937 478.86438668356277" stroke="#f59e0b" fill="none" opacity="0.4"/>
                    <circle cx="72.01131190595333" cy="378.86438668356277" r="3" fill="#ec4899"/><path d="M 306.7513658243115 50.06931336101843 L 327.457650816541 100.06931336101843 L 307.8850313760995 150.06931336101843" stroke="#f59e0b" fill="none" opacity="0.4"/>
                    <circle cx="306.7513658243115" cy="50.06931336101843" r="3" fill="#ec4899"/><path d="M 409.8210294796445 212.93957625312032 L 427.6353443430253 262.9395762531203 L 366.44723684676137 312.9395762531203" stroke="#f59e0b" fill="none" opacity="0.4"/>
                    <circle cx="409.8210294796445" cy="212.93957625312032" r="3" fill="#ec4899"/><path d="M 234.54818113714282 392.3604670599161 L 192.03654253406057 442.3604670599161 L 282.9056141684305 492.3604670599161" stroke="#f59e0b" fill="none" opacity="0.4"/>
                    <circle cx="234.54818113714282" cy="392.3604670599161" r="3" fill="#ec4899"/>
            <text x="600" y="520" font-family="Segoe UI, Arial, sans-serif" font-size="38" font-weight="800" fill="#ffffff" text-anchor="middle">Implementing Advanced User Feedback Loops in Complex Web ...</text>
            <text x="600" y="560" font-family="Segoe UI, Arial, sans-serif" font-size="16" font-weight="600" fill="#f59e0b" text-anchor="middle" style="letter-spacing: 4px; text-transform: uppercase;">UI UX Powerhouse • Specialized Series</text>
        </svg>