<svg width="1200" height="600" viewBox="0 0 1200 600" xmlns="http://www.w3.org/2000/svg">
        <rect width="1200" height="600" fill="#0f172a"/><rect x="150" y="190.99538092887087" width="60" height="159.00461907112913" fill="#38bdf8" opacity="0.6"/>
                    <rect x="170" y="170.99538092887087" width="60" height="159.00461907112913" fill="#818cf8" opacity="0.4" transform="skewY(-20)"/><rect x="270" y="283.4500112403475" width="60" height="66.54998875965248" fill="#38bdf8" opacity="0.6"/>
                    <rect x="290" y="263.4500112403475" width="60" height="66.54998875965248" fill="#818cf8" opacity="0.4" transform="skewY(-20)"/><rect x="390" y="157.25564604254032" width="60" height="192.74435395745968" fill="#38bdf8" opacity="0.6"/>
                    <rect x="410" y="137.25564604254032" width="60" height="192.74435395745968" fill="#818cf8" opacity="0.4" transform="skewY(-20)"/><rect x="510" y="117.6430672807328" width="60" height="232.3569327192672" fill="#38bdf8" opacity="0.6"/>
                    <rect x="530" y="97.6430672807328" width="60" height="232.3569327192672" fill="#818cf8" opacity="0.4" transform="skewY(-20)"/><rect x="630" y="132.22145202998945" width="60" height="217.77854797001055" fill="#38bdf8" opacity="0.6"/>
                    <rect x="650" y="112.22145202998945" width="60" height="217.77854797001055" fill="#818cf8" opacity="0.4" transform="skewY(-20)"/><rect x="750" y="132.53201208244718" width="60" height="217.46798791755282" fill="#38bdf8" opacity="0.6"/>
                    <rect x="770" y="112.53201208244718" width="60" height="217.46798791755282" fill="#818cf8" opacity="0.4" transform="skewY(-20)"/><rect x="870" y="202.28619234549114" width="60" height="147.71380765450886" fill="#38bdf8" opacity="0.6"/>
                    <rect x="890" y="182.28619234549114" width="60" height="147.71380765450886" fill="#818cf8" opacity="0.4" transform="skewY(-20)"/><rect x="990" y="230.22891654218256" width="60" height="119.77108345781744" fill="#38bdf8" opacity="0.6"/>
                    <rect x="1010" y="210.22891654218256" width="60" height="119.77108345781744" fill="#818cf8" opacity="0.4" transform="skewY(-20)"/>
        <text x="600" y="520" font-family="Segoe UI, Arial, sans-serif" font-size="38" font-weight="800" fill="#ffffff" text-anchor="middle">Implementing Complex Data Filtering Interfaces in React U...</text>
        <text x="600" y="560" font-family="Segoe UI, Arial, sans-serif" font-size="16" font-weight="600" fill="#38bdf8" text-anchor="middle" style="letter-spacing: 4px; text-transform: uppercase;">UI UX Powerhouse • Specialized Series</text>
    </svg>