<svg width="1200" height="600" viewBox="0 0 1200 600" xmlns="http://www.w3.org/2000/svg">
        
            <rect width="1200" height="600" fill="#f8fafc"/>
            <rect x="100" y="100" width="1000" height="350" rx="10" fill="#ffffff" stroke="#e2e8f0"/>
            <rect x="150" y="327.04216728125175" width="46.15384615384615" height="72.95783271874825" fill="#38bdf8" rx="4"/><rect x="215.3846153846154" y="201.3177598157199" width="46.15384615384615" height="198.6822401842801" fill="#38bdf8" rx="4"/><rect x="280.7692307692308" y="200.36424114405236" width="46.15384615384615" height="199.63575885594764" fill="#38bdf8" rx="4"/><rect x="346.1538461538462" y="297.0133583265124" width="46.15384615384615" height="102.98664167348761" fill="#38bdf8" rx="4"/><rect x="411.53846153846155" y="179.6805293665784" width="46.15384615384615" height="220.3194706334216" fill="#38bdf8" rx="4"/><rect x="476.9230769230769" y="232.06279145924782" width="46.15384615384615" height="167.93720854075218" fill="#38bdf8" rx="4"/><rect x="542.3076923076924" y="314.98653854177974" width="46.15384615384615" height="85.01346145822026" fill="#38bdf8" rx="4"/><rect x="607.6923076923077" y="348.88145579425327" width="46.15384615384615" height="51.11854420574673" fill="#38bdf8" rx="4"/><rect x="673.0769230769231" y="348.7088858437346" width="46.15384615384615" height="51.291114156265394" fill="#38bdf8" rx="4"/><rect x="738.4615384615385" y="342.1149649489962" width="46.15384615384615" height="57.8850350510038" fill="#38bdf8" rx="4"/><rect x="803.8461538461538" y="346.85552423434274" width="46.15384615384615" height="53.14447576565726" fill="#38bdf8" rx="4"/><rect x="869.2307692307693" y="212.5847973911732" width="46.15384615384615" height="187.4152026088268" fill="#38bdf8" rx="4"/><rect x="934.6153846153846" y="313.9906296688423" width="46.15384615384615" height="86.0093703311577" fill="#38bdf8" rx="4"/>
        
        <text x="600" y="520" font-family="Segoe UI, Arial" font-size="38" font-weight="800" fill="#f8fafc" text-anchor="middle">Implementing Responsive Design Patterns for Complex Data ...</text>
    </svg>