<svg width="1200" height="600" viewBox="0 0 1200 600" xmlns="http://www.w3.org/2000/svg">
            <rect width="1200" height="600" fill="#0c4a6e"/><circle cx="1042.2321374233434" cy="35.13964166470487" r="25.345029894742765" fill="#7dd3fc" opacity="0.1"/><circle cx="840.0736434621649" cy="14.348297015749267" r="49.796017505868804" fill="#7dd3fc" opacity="0.1"/><circle cx="755.7846518458973" cy="196.44337272184202" r="48.57592443093381" fill="#7dd3fc" opacity="0.1"/><circle cx="71.6685420144131" cy="187.0237562136026" r="46.45210633323586" fill="#7dd3fc" opacity="0.1"/><circle cx="980.9625093352224" cy="245.77490158117143" r="17.95165058956627" fill="#7dd3fc" opacity="0.1"/><circle cx="237.24919582818984" cy="367.6885609943838" r="49.00327116090921" fill="#7dd3fc" opacity="0.1"/><circle cx="321.3086362076865" cy="214.04201473196736" r="28.78955002211569" fill="#7dd3fc" opacity="0.1"/><circle cx="800.1794084233552" cy="100.79483096997137" r="13.660359201894607" fill="#7dd3fc" opacity="0.1"/><circle cx="366.0580367224611" cy="398.6100880414597" r="26.158373376965756" fill="#7dd3fc" opacity="0.1"/><circle cx="719.0514656322193" cy="166.73868934376515" r="32.57515282154145" fill="#7dd3fc" opacity="0.1"/><circle cx="685.4001164178044" cy="150.31275171402285" r="24.754939916165313" fill="#7dd3fc" opacity="0.1"/><circle cx="669.1094150512072" cy="90.84804986487143" r="19.89491385731526" fill="#7dd3fc" opacity="0.1"/><circle cx="973.7201166994055" cy="174.2818696970062" r="21.349091659722035" fill="#7dd3fc" opacity="0.1"/><circle cx="1028.4867620139266" cy="262.6503747771494" r="19.044489250245533" fill="#7dd3fc" opacity="0.1"/><circle cx="1152.9957118807943" cy="282.2497500004829" r="43.77211459493992" fill="#7dd3fc" opacity="0.1"/><circle cx="962.7544404389482" cy="298.6715612059925" r="33.44779587531775" fill="#7dd3fc" opacity="0.1"/><circle cx="519.5355763429689" cy="180.01969317774638" r="48.203937463440525" fill="#7dd3fc" opacity="0.1"/><circle cx="844.0233204448305" cy="386.4644711051369" r="40.622028319303354" fill="#7dd3fc" opacity="0.1"/><circle cx="93.14352186811448" cy="330.9996883483109" r="33.13157744069031" fill="#7dd3fc" opacity="0.1"/><circle cx="428.8046377179853" cy="166.3057722766098" r="22.506140767218312" fill="#7dd3fc" opacity="0.1"/><circle cx="606.4795721758856" cy="163.686837759451" r="16.81106672869646" fill="#7dd3fc" opacity="0.1"/><circle cx="698.6076916233287" cy="0.14576667308574542" r="20.640566667862004" fill="#7dd3fc" opacity="0.1"/><circle cx="1015.1193652844086" cy="173.6022314922593" r="37.16367485183582" fill="#7dd3fc" opacity="0.1"/><circle cx="951.9321080328154" cy="131.3130183625617" r="49.909077808770235" fill="#7dd3fc" opacity="0.1"/><circle cx="714.0060283752973" cy="340.3364280689857" r="14.42386251183052" fill="#7dd3fc" opacity="0.1"/><circle cx="476.0027177653683" cy="165.99465293984395" r="26.810259887133725" fill="#7dd3fc" opacity="0.1"/><circle cx="1187.8287098832516" cy="194.51795418490292" r="18.184100894713993" fill="#7dd3fc" opacity="0.1"/><circle cx="1026.590306041544" cy="321.16339753138163" r="42.07169445260661" fill="#7dd3fc" opacity="0.1"/><circle cx="845.7670371964923" cy="186.3305340813895" r="47.23966663550527" fill="#7dd3fc" opacity="0.1"/><circle cx="744.3091383875981" cy="398.07934025957366" r="43.85820616098499" fill="#7dd3fc" opacity="0.1"/>
            <text x="600" y="520" font-family="Segoe UI, Arial, sans-serif" font-size="38" font-weight="800" fill="#ffffff" text-anchor="middle">Implementing Progressive Enhancement for Data-Heavy Appli...</text>
            <text x="600" y="560" font-family="Segoe UI, Arial, sans-serif" font-size="16" font-weight="600" fill="#7dd3fc" text-anchor="middle" style="letter-spacing: 4px; text-transform: uppercase;">UI UX Powerhouse • Specialized Series</text>
        </svg>