<svg width="1200" height="600" viewBox="0 0 1200 600" xmlns="http://www.w3.org/2000/svg">
        <rect width="1200" height="600" fill="#0c4a6e"/><circle cx="465.97710936621297" cy="193.37785426159826" r="19.054597058657237" fill="#7dd3fc" opacity="0.1"/><circle cx="54.86517836634448" cy="16.07148318653344" r="38.475582439641585" fill="#7dd3fc" opacity="0.1"/><circle cx="295.0904843812168" cy="340.36292605067615" r="21.373390941516845" fill="#7dd3fc" opacity="0.1"/><circle cx="971.1855783891224" cy="4.077121730733779" r="19.892601909036784" fill="#7dd3fc" opacity="0.1"/><circle cx="473.408337026558" cy="202.98352550325944" r="37.46366497129202" fill="#7dd3fc" opacity="0.1"/><circle cx="121.35222942160908" cy="233.81810476512328" r="23.189327226718888" fill="#7dd3fc" opacity="0.1"/><circle cx="386.1715884648902" cy="307.591299411979" r="21.744073853551527" fill="#7dd3fc" opacity="0.1"/><circle cx="536.6368584900556" cy="69.25099497293559" r="40.51091945533699" fill="#7dd3fc" opacity="0.1"/><circle cx="445.65896748026717" cy="128.26895164325833" r="43.10773423269893" fill="#7dd3fc" opacity="0.1"/><circle cx="624.4537420789129" cy="94.48023432087211" r="48.616663205830264" fill="#7dd3fc" opacity="0.1"/><circle cx="1199.7988272437397" cy="250.2782567506074" r="38.809036708044005" fill="#7dd3fc" opacity="0.1"/><circle cx="275.61490925290855" cy="41.275645747373346" r="23.004877308994764" fill="#7dd3fc" opacity="0.1"/><circle cx="1142.1201033106627" cy="11.586479194374988" r="34.00212523549271" fill="#7dd3fc" opacity="0.1"/><circle cx="749.3165037041763" cy="329.4448979173467" r="10.800422232514393" fill="#7dd3fc" opacity="0.1"/><circle cx="247.2901136643486" cy="211.92104537622072" r="31.019333944423124" fill="#7dd3fc" opacity="0.1"/><circle cx="128.4692732100666" cy="301.6853697494355" r="49.48225973037552" fill="#7dd3fc" opacity="0.1"/><circle cx="868.3601920107321" cy="158.45526622069883" r="27.5964325699897" fill="#7dd3fc" opacity="0.1"/><circle cx="364.20596418684" cy="283.61459020352413" r="38.23786603348708" fill="#7dd3fc" opacity="0.1"/><circle cx="902.3382799372484" cy="319.49202754549333" r="25.55325086468656" fill="#7dd3fc" opacity="0.1"/><circle cx="957.1361990492733" cy="133.70499264710816" r="41.49973148272693" fill="#7dd3fc" opacity="0.1"/><circle cx="681.8606755070505" cy="60.74867716888548" r="47.229997774993535" fill="#7dd3fc" opacity="0.1"/><circle cx="26.88024955787114" cy="23.392204910851433" r="18.614005746567273" fill="#7dd3fc" opacity="0.1"/><circle cx="476.1569566144317" cy="274.0459311804443" r="37.6200192754186" fill="#7dd3fc" opacity="0.1"/><circle cx="1175.7687380653806" cy="368.38579308459884" r="16.694162306157523" fill="#7dd3fc" opacity="0.1"/><circle cx="731.7511539687985" cy="188.01501919078873" r="37.4329111746556" fill="#7dd3fc" opacity="0.1"/><circle cx="556.4039788696391" cy="246.66322952252813" r="47.65008052984285" fill="#7dd3fc" opacity="0.1"/><circle cx="1165.3455971827498" cy="306.2559901358327" r="35.823463088836434" fill="#7dd3fc" opacity="0.1"/><circle cx="63.15497134855832" cy="325.09755771925484" r="21.37370149448543" fill="#7dd3fc" opacity="0.1"/><circle cx="187.9194193854346" cy="106.36029966335627" r="39.83118543721503" fill="#7dd3fc" opacity="0.1"/><circle cx="911.0655594857235" cy="305.8716676423501" r="40.03331646817969" fill="#7dd3fc" opacity="0.1"/>
        <text x="600" y="520" font-family="Segoe UI, Arial, sans-serif" font-size="38" font-weight="800" fill="#ffffff" text-anchor="middle">Implementing Contextual Onboarding Experiences for Comple...</text>
        <text x="600" y="560" font-family="Segoe UI, Arial, sans-serif" font-size="16" font-weight="600" fill="#7dd3fc" text-anchor="middle" style="letter-spacing: 4px; text-transform: uppercase;">UI UX Powerhouse • Specialized Series</text>
    </svg>