<svg width="1200" height="600" viewBox="0 0 1200 600" xmlns="http://www.w3.org/2000/svg">
        <rect width="1200" height="600" fill="#1e1b4b"/><path d="M 833.9040971497525 351.9003249883099 L 796.1308430216491 401.9003249883099 L 794.560436275151 451.9003249883099" stroke="#f43f5e" fill="none" opacity="0.4"/>
                    <circle cx="833.9040971497525" cy="351.9003249883099" r="3" fill="#22d3ee"/><path d="M 1147.6689429682665 292.2306885389844 L 1166.3612521397226 342.2306885389844 L 1193.3762517862533 392.2306885389844" stroke="#f43f5e" fill="none" opacity="0.4"/>
                    <circle cx="1147.6689429682665" cy="292.2306885389844" r="3" fill="#22d3ee"/><path d="M 612.4323240306694 343.6977834880963 L 650.889382724472 393.6977834880963 L 632.4878281788187 443.6977834880963" stroke="#f43f5e" fill="none" opacity="0.4"/>
                    <circle cx="612.4323240306694" cy="343.6977834880963" r="3" fill="#22d3ee"/><path d="M 843.7050261195509 275.10301799266017 L 860.183966661225 325.10301799266017 L 829.7197566096202 375.10301799266017" stroke="#f43f5e" fill="none" opacity="0.4"/>
                    <circle cx="843.7050261195509" cy="275.10301799266017" r="3" fill="#22d3ee"/><path d="M 596.2007554335287 3.4892356816271786 L 610.7431334165085 53.48923568162718 L 603.9497693669546 103.48923568162718" stroke="#f43f5e" fill="none" opacity="0.4"/>
                    <circle cx="596.2007554335287" cy="3.4892356816271786" r="3" fill="#22d3ee"/><path d="M 128.9904460143589 195.54466514118758 L 153.38368864559015 245.54466514118758 L 124.5499250228022 295.5446651411876" stroke="#f43f5e" fill="none" opacity="0.4"/>
                    <circle cx="128.9904460143589" cy="195.54466514118758" r="3" fill="#22d3ee"/><path d="M 449.4738539113314 5.472465965431184 L 459.0733662884759 55.472465965431184 L 445.70445835115606 105.47246596543118" stroke="#f43f5e" fill="none" opacity="0.4"/>
                    <circle cx="449.4738539113314" cy="5.472465965431184" r="3" fill="#22d3ee"/><path d="M 47.36390903308347 333.84996912936913 L 37.61534082586877 383.84996912936913 L 7.990743578375259 433.84996912936913" stroke="#f43f5e" fill="none" opacity="0.4"/>
                    <circle cx="47.36390903308347" cy="333.84996912936913" r="3" fill="#22d3ee"/><path d="M 22.222679181868443 288.0307245567706 L -9.605063821436488 338.0307245567706 L -12.928431608816027 388.0307245567706" stroke="#f43f5e" fill="none" opacity="0.4"/>
                    <circle cx="22.222679181868443" cy="288.0307245567706" r="3" fill="#22d3ee"/><path d="M 457.8116947232047 331.54303948540473 L 412.27227933723043 381.54303948540473 L 489.31789735379425 431.54303948540473" stroke="#f43f5e" fill="none" opacity="0.4"/>
                    <circle cx="457.8116947232047" cy="331.54303948540473" r="3" fill="#22d3ee"/>
        <text x="600" y="520" font-family="Segoe UI, Arial, sans-serif" font-size="38" font-weight="800" fill="#ffffff" text-anchor="middle">Implementing Contextual Tooltips to Enhance the User Expe...</text>
        <text x="600" y="560" font-family="Segoe UI, Arial, sans-serif" font-size="16" font-weight="600" fill="#f43f5e" text-anchor="middle" style="letter-spacing: 4px; text-transform: uppercase;">UI UX Powerhouse • Specialized Series</text>
    </svg>