<svg width="1200" height="600" viewBox="0 0 1200 600" xmlns="http://www.w3.org/2000/svg">
        <rect width="1200" height="600" fill="#0c4a6e"/><circle cx="365.69040347094415" cy="231.71380136664084" r="12.646210680868535" fill="#7dd3fc" opacity="0.1"/><circle cx="980.9829997444467" cy="356.300569052064" r="41.339093227652484" fill="#7dd3fc" opacity="0.1"/><circle cx="346.5355751912284" cy="24.932857830572175" r="36.11271523535038" fill="#7dd3fc" opacity="0.1"/><circle cx="279.020172010496" cy="384.67168499773834" r="38.30823071148188" fill="#7dd3fc" opacity="0.1"/><circle cx="636.4388250134652" cy="358.4408739428909" r="14.99101320077898" fill="#7dd3fc" opacity="0.1"/><circle cx="524.8762516956049" cy="117.33476660726865" r="31.67822331246498" fill="#7dd3fc" opacity="0.1"/><circle cx="840.4055948184578" cy="368.11773334484315" r="34.873908014487824" fill="#7dd3fc" opacity="0.1"/><circle cx="563.041594241804" cy="392.54966658263584" r="49.34608546333038" fill="#7dd3fc" opacity="0.1"/><circle cx="687.8728202813363" cy="30.716552646117634" r="35.17439301343984" fill="#7dd3fc" opacity="0.1"/><circle cx="1144.4451501141884" cy="373.97338978253174" r="13.52166864053288" fill="#7dd3fc" opacity="0.1"/><circle cx="370.0064349344757" cy="393.21835313785414" r="14.115996740874834" fill="#7dd3fc" opacity="0.1"/><circle cx="535.0529382874811" cy="35.50078882167327" r="40.32076063551358" fill="#7dd3fc" opacity="0.1"/><circle cx="831.7974700977175" cy="61.60427742070169" r="26.284672158285503" fill="#7dd3fc" opacity="0.1"/><circle cx="810.3554515153519" cy="156.4735662243038" r="26.34873285103822" fill="#7dd3fc" opacity="0.1"/><circle cx="899.8303588909039" cy="74.90178151674627" r="19.677798538541538" fill="#7dd3fc" opacity="0.1"/><circle cx="763.0470182898534" cy="36.875912604591576" r="44.784694189875154" fill="#7dd3fc" opacity="0.1"/><circle cx="973.2092590760658" cy="70.1861910012667" r="36.583301319842576" fill="#7dd3fc" opacity="0.1"/><circle cx="145.69437957834452" cy="383.9077514297969" r="13.61078532947431" fill="#7dd3fc" opacity="0.1"/><circle cx="497.33965032864944" cy="34.26158045003831" r="19.752598749255412" fill="#7dd3fc" opacity="0.1"/><circle cx="577.9354320846323" cy="108.79352396696049" r="20.37744096964161" fill="#7dd3fc" opacity="0.1"/><circle cx="730.1323460669664" cy="242.43237618102285" r="21.745164425447" fill="#7dd3fc" opacity="0.1"/><circle cx="741.0245216302428" cy="251.56645632523578" r="43.818237196464906" fill="#7dd3fc" opacity="0.1"/><circle cx="910.3215404247749" cy="0.41327669205202255" r="30.09566325963533" fill="#7dd3fc" opacity="0.1"/><circle cx="950.8006363637833" cy="162.97082202181628" r="39.171981204490294" fill="#7dd3fc" opacity="0.1"/><circle cx="502.17471372634463" cy="280.37441656852025" r="46.55891617916495" fill="#7dd3fc" opacity="0.1"/><circle cx="765.7787791940791" cy="213.55947555566672" r="10.74147277904558" fill="#7dd3fc" opacity="0.1"/><circle cx="202.43603025965058" cy="78.76690031412181" r="47.604478696648584" fill="#7dd3fc" opacity="0.1"/><circle cx="1009.6107241108257" cy="120.66999287253566" r="12.800472891467507" fill="#7dd3fc" opacity="0.1"/><circle cx="436.09732619079296" cy="177.97357173658384" r="12.06171236539376" fill="#7dd3fc" opacity="0.1"/><circle cx="330.92834422932356" cy="113.21857651491882" r="34.80914120616944" fill="#7dd3fc" opacity="0.1"/>
        <text x="600" y="520" font-family="Segoe UI, Arial, sans-serif" font-size="38" font-weight="800" fill="#ffffff" text-anchor="middle">Implementing Contextual Autocomplete in Data-Intensive We...</text>
        <text x="600" y="560" font-family="Segoe UI, Arial, sans-serif" font-size="16" font-weight="600" fill="#7dd3fc" text-anchor="middle" style="letter-spacing: 4px; text-transform: uppercase;">UI UX Powerhouse • Specialized Series</text>
    </svg>