<svg width="1200" height="600" viewBox="0 0 1200 600" xmlns="http://www.w3.org/2000/svg">
        <rect width="1200" height="600" fill="#0c4a6e"/><rect x="150" y="259.5497718084516" width="60" height="90.45022819154838" fill="#7dd3fc" opacity="0.6"/>
                    <rect x="170" y="239.54977180845162" width="60" height="90.45022819154838" fill="#38bdf8" opacity="0.4" transform="skewY(-20)"/><rect x="270" y="126.97666700387344" width="60" height="223.02333299612656" fill="#7dd3fc" opacity="0.6"/>
                    <rect x="290" y="106.97666700387344" width="60" height="223.02333299612656" fill="#38bdf8" opacity="0.4" transform="skewY(-20)"/><rect x="390" y="238.00477413342378" width="60" height="111.99522586657622" fill="#7dd3fc" opacity="0.6"/>
                    <rect x="410" y="218.00477413342378" width="60" height="111.99522586657622" fill="#38bdf8" opacity="0.4" transform="skewY(-20)"/><rect x="510" y="171.8083463720177" width="60" height="178.1916536279823" fill="#7dd3fc" opacity="0.6"/>
                    <rect x="530" y="151.8083463720177" width="60" height="178.1916536279823" fill="#38bdf8" opacity="0.4" transform="skewY(-20)"/><rect x="630" y="196.5198587095074" width="60" height="153.4801412904926" fill="#7dd3fc" opacity="0.6"/>
                    <rect x="650" y="176.5198587095074" width="60" height="153.4801412904926" fill="#38bdf8" opacity="0.4" transform="skewY(-20)"/><rect x="750" y="269.8358011992241" width="60" height="80.16419880077592" fill="#7dd3fc" opacity="0.6"/>
                    <rect x="770" y="249.83580119922408" width="60" height="80.16419880077592" fill="#38bdf8" opacity="0.4" transform="skewY(-20)"/><rect x="870" y="198.93181454790465" width="60" height="151.06818545209535" fill="#7dd3fc" opacity="0.6"/>
                    <rect x="890" y="178.93181454790465" width="60" height="151.06818545209535" fill="#38bdf8" opacity="0.4" transform="skewY(-20)"/><rect x="990" y="137.0045966014004" width="60" height="212.9954033985996" fill="#7dd3fc" opacity="0.6"/>
                    <rect x="1010" y="117.00459660140041" width="60" height="212.9954033985996" fill="#38bdf8" opacity="0.4" transform="skewY(-20)"/>
        <text x="600" y="520" font-family="Segoe UI, Arial, sans-serif" font-size="38" font-weight="800" fill="#ffffff" text-anchor="middle">Implementing Custom Scrollbars for Enhanced Usability in ...</text>
        <text x="600" y="560" font-family="Segoe UI, Arial, sans-serif" font-size="16" font-weight="600" fill="#7dd3fc" text-anchor="middle" style="letter-spacing: 4px; text-transform: uppercase;">UI UX Powerhouse • Specialized Series</text>
    </svg>