<svg width="1200" height="600" viewBox="0 0 1200 600" xmlns="http://www.w3.org/2000/svg">
        <rect width="1200" height="600" fill="#1e1b4b"/><circle cx="960.5861428502976" cy="0.06018929598212708" r="38.041117329298686" fill="#f43f5e" opacity="0.1"/><circle cx="437.2152297536559" cy="113.50683349701285" r="44.75984742013679" fill="#f43f5e" opacity="0.1"/><circle cx="344.41238670642633" cy="82.43607861659257" r="15.974660296924412" fill="#f43f5e" opacity="0.1"/><circle cx="593.7537579303353" cy="288.0366093821067" r="25.33709552358573" fill="#f43f5e" opacity="0.1"/><circle cx="880.0757036362484" cy="136.53307188012604" r="36.36956159059082" fill="#f43f5e" opacity="0.1"/><circle cx="429.3175954473554" cy="156.11499205951986" r="37.3474044411887" fill="#f43f5e" opacity="0.1"/><circle cx="897.060647696344" cy="226.5704582168837" r="13.91522909172636" fill="#f43f5e" opacity="0.1"/><circle cx="770.0991044206603" cy="389.709640880028" r="44.35169809443323" fill="#f43f5e" opacity="0.1"/><circle cx="822.5997222372371" cy="173.82262654937222" r="15.673077964256663" fill="#f43f5e" opacity="0.1"/><circle cx="858.3192438294645" cy="60.522138983424156" r="24.49926400960976" fill="#f43f5e" opacity="0.1"/><circle cx="964.2121721009971" cy="315.3575748212461" r="49.80856243939343" fill="#f43f5e" opacity="0.1"/><circle cx="1053.2321769460395" cy="54.87587923962565" r="49.229759746885975" fill="#f43f5e" opacity="0.1"/><circle cx="858.2518109655211" cy="167.33492436178494" r="33.14141727430979" fill="#f43f5e" opacity="0.1"/><circle cx="648.2449351722607" cy="321.6010735148302" r="15.2512697691418" fill="#f43f5e" opacity="0.1"/><circle cx="723.0666451041543" cy="367.84588043155964" r="49.363631909000105" fill="#f43f5e" opacity="0.1"/><circle cx="132.74087092358968" cy="122.23495251928398" r="21.840883156801283" fill="#f43f5e" opacity="0.1"/><circle cx="743.3771956013516" cy="253.4546893712104" r="10.236071618201095" fill="#f43f5e" opacity="0.1"/><circle cx="335.4642700047407" cy="378.01412703993265" r="43.80279371813231" fill="#f43f5e" opacity="0.1"/><circle cx="1091.1650898509833" cy="217.4891571252374" r="23.30916979830363" fill="#f43f5e" opacity="0.1"/><circle cx="81.6094068431994" cy="86.81444749199727" r="39.91429543959384" fill="#f43f5e" opacity="0.1"/><circle cx="1153.6090031357162" cy="117.77426801927504" r="27.295798709092196" fill="#f43f5e" opacity="0.1"/><circle cx="325.0406270025394" cy="225.3573308014893" r="48.67937739381887" fill="#f43f5e" opacity="0.1"/><circle cx="763.2536491782957" cy="385.15411359257996" r="34.909482791117625" fill="#f43f5e" opacity="0.1"/><circle cx="648.5776921988872" cy="69.11754802858923" r="48.51823572163994" fill="#f43f5e" opacity="0.1"/><circle cx="214.18560608290136" cy="264.8785441786458" r="20.278005452855723" fill="#f43f5e" opacity="0.1"/><circle cx="138.5747933840321" cy="179.79311989592475" r="28.669752713103662" fill="#f43f5e" opacity="0.1"/><circle cx="955.6944695083075" cy="40.27242606898653" r="44.155933585316234" fill="#f43f5e" opacity="0.1"/><circle cx="390.7218961918261" cy="205.38741380660213" r="15.729765557334758" fill="#f43f5e" opacity="0.1"/><circle cx="318.18098509647825" cy="261.6680223647563" r="35.24755041496974" fill="#f43f5e" opacity="0.1"/><circle cx="32.360240144339514" cy="380.7820962385449" r="40.51075826580927" fill="#f43f5e" opacity="0.1"/>
        <text x="600" y="520" font-family="Segoe UI, Arial, sans-serif" font-size="38" font-weight="800" fill="#ffffff" text-anchor="middle">Implementing Advanced AR Navigation Interfaces: Best Prac...</text>
        <text x="600" y="560" font-family="Segoe UI, Arial, sans-serif" font-size="16" font-weight="600" fill="#f43f5e" text-anchor="middle" style="letter-spacing: 4px; text-transform: uppercase;">UI UX Powerhouse • Specialized Series</text>
    </svg>