<svg width="1200" height="600" viewBox="0 0 1200 600" xmlns="http://www.w3.org/2000/svg">
        <rect width="1200" height="600" fill="#171717"/><circle cx="1053.9401534836543" cy="145.17736448042342" r="42.815802636723674" fill="#f59e0b" opacity="0.1"/><circle cx="316.7577919084579" cy="332.87223506431474" r="27.26196804225765" fill="#f59e0b" opacity="0.1"/><circle cx="564.799631069036" cy="143.53873772415682" r="28.083646575323655" fill="#f59e0b" opacity="0.1"/><circle cx="609.9906068118798" cy="2.0320592982898233" r="29.28786870885233" fill="#f59e0b" opacity="0.1"/><circle cx="1143.461808142456" cy="352.8028789336531" r="25.189747694857942" fill="#f59e0b" opacity="0.1"/><circle cx="1027.831860606966" cy="203.6315986108093" r="21.9180745916492" fill="#f59e0b" opacity="0.1"/><circle cx="419.95309769699816" cy="80.79609465567046" r="11.66418311855523" fill="#f59e0b" opacity="0.1"/><circle cx="83.17884960051742" cy="289.7391109188902" r="14.400165682218358" fill="#f59e0b" opacity="0.1"/><circle cx="321.7355967084586" cy="279.19798463635743" r="36.80833235033788" fill="#f59e0b" opacity="0.1"/><circle cx="1152.2873677648022" cy="125.25794927569223" r="39.17284272531106" fill="#f59e0b" opacity="0.1"/><circle cx="100.43981662856822" cy="326.4322903873108" r="32.86573178083927" fill="#f59e0b" opacity="0.1"/><circle cx="83.7770342861404" cy="214.0775269900587" r="49.16787916998146" fill="#f59e0b" opacity="0.1"/><circle cx="481.960475253436" cy="195.54516571588465" r="11.524177749961382" fill="#f59e0b" opacity="0.1"/><circle cx="900.85949516033" cy="179.6463757615129" r="38.87808306673833" fill="#f59e0b" opacity="0.1"/><circle cx="1017.9484671579758" cy="120.6923190595262" r="11.130633017019136" fill="#f59e0b" opacity="0.1"/><circle cx="399.4975755253108" cy="229.5684226155572" r="29.04783945652639" fill="#f59e0b" opacity="0.1"/><circle cx="293.29737563675735" cy="296.36143559546326" r="23.926888311107177" fill="#f59e0b" opacity="0.1"/><circle cx="662.3775168889551" cy="319.63369813493046" r="21.81392699072603" fill="#f59e0b" opacity="0.1"/><circle cx="440.9539223255706" cy="346.4607786340821" r="24.954344843281433" fill="#f59e0b" opacity="0.1"/><circle cx="301.62175901168666" cy="183.1068996212707" r="39.384343484198325" fill="#f59e0b" opacity="0.1"/><circle cx="960.1210917935532" cy="384.23802883771714" r="12.868463796548895" fill="#f59e0b" opacity="0.1"/><circle cx="89.6346140303649" cy="142.2735743006342" r="15.369644315978803" fill="#f59e0b" opacity="0.1"/><circle cx="265.4906702351582" cy="188.4651473177655" r="23.899783486103843" fill="#f59e0b" opacity="0.1"/><circle cx="1041.475106817461" cy="100.05747026370955" r="21.14455966213427" fill="#f59e0b" opacity="0.1"/><circle cx="859.7346354617912" cy="208.35773852268176" r="47.61124735792691" fill="#f59e0b" opacity="0.1"/><circle cx="1137.9721035276816" cy="168.02551613618562" r="32.88568406127979" fill="#f59e0b" opacity="0.1"/><circle cx="691.5730053464358" cy="16.807987801439594" r="42.849942159009515" fill="#f59e0b" opacity="0.1"/><circle cx="907.2525164316176" cy="185.2366223178251" r="43.55152440286474" fill="#f59e0b" opacity="0.1"/><circle cx="13.176937083699158" cy="119.67528176978703" r="13.657631341102388" fill="#f59e0b" opacity="0.1"/><circle cx="670.955671385309" cy="360.57487184516503" r="41.29928937449222" fill="#f59e0b" opacity="0.1"/>
        <text x="600" y="520" font-family="Segoe UI, Arial, sans-serif" font-size="38" font-weight="800" fill="#ffffff" text-anchor="middle">Implementing Custom Scroll Snap Points for Enhanced User ...</text>
        <text x="600" y="560" font-family="Segoe UI, Arial, sans-serif" font-size="16" font-weight="600" fill="#f59e0b" text-anchor="middle" style="letter-spacing: 4px; text-transform: uppercase;">UI UX Powerhouse • Specialized Series</text>
    </svg>