<svg width="1200" height="600" viewBox="0 0 1200 600" xmlns="http://www.w3.org/2000/svg">
        <rect width="1200" height="600" fill="#171717"/><rect x="150" y="160.71296332302154" width="60" height="189.28703667697846" fill="#f59e0b" opacity="0.6"/>
                    <rect x="170" y="140.71296332302154" width="60" height="189.28703667697846" fill="#fbbf24" opacity="0.4" transform="skewY(-20)"/><rect x="270" y="173.4372016866473" width="60" height="176.5627983133527" fill="#f59e0b" opacity="0.6"/>
                    <rect x="290" y="153.4372016866473" width="60" height="176.5627983133527" fill="#fbbf24" opacity="0.4" transform="skewY(-20)"/><rect x="390" y="184.1076324284586" width="60" height="165.8923675715414" fill="#f59e0b" opacity="0.6"/>
                    <rect x="410" y="164.1076324284586" width="60" height="165.8923675715414" fill="#fbbf24" opacity="0.4" transform="skewY(-20)"/><rect x="510" y="193.53444243752165" width="60" height="156.46555756247835" fill="#f59e0b" opacity="0.6"/>
                    <rect x="530" y="173.53444243752165" width="60" height="156.46555756247835" fill="#fbbf24" opacity="0.4" transform="skewY(-20)"/><rect x="630" y="289.91082803077006" width="60" height="60.08917196922994" fill="#f59e0b" opacity="0.6"/>
                    <rect x="650" y="269.91082803077006" width="60" height="60.08917196922994" fill="#fbbf24" opacity="0.4" transform="skewY(-20)"/><rect x="750" y="285.32734431337303" width="60" height="64.67265568662697" fill="#f59e0b" opacity="0.6"/>
                    <rect x="770" y="265.32734431337303" width="60" height="64.67265568662697" fill="#fbbf24" opacity="0.4" transform="skewY(-20)"/><rect x="870" y="228.20998353090545" width="60" height="121.79001646909455" fill="#f59e0b" opacity="0.6"/>
                    <rect x="890" y="208.20998353090545" width="60" height="121.79001646909455" fill="#fbbf24" opacity="0.4" transform="skewY(-20)"/><rect x="990" y="242.20249351801613" width="60" height="107.79750648198387" fill="#f59e0b" opacity="0.6"/>
                    <rect x="1010" y="222.20249351801613" width="60" height="107.79750648198387" fill="#fbbf24" opacity="0.4" transform="skewY(-20)"/>
        <text x="600" y="520" font-family="Segoe UI, Arial, sans-serif" font-size="38" font-weight="800" fill="#ffffff" text-anchor="middle">Implementing Adaptive Text Resizing in React for Improved...</text>
        <text x="600" y="560" font-family="Segoe UI, Arial, sans-serif" font-size="16" font-weight="600" fill="#f59e0b" text-anchor="middle" style="letter-spacing: 4px; text-transform: uppercase;">UI UX Powerhouse • Specialized Series</text>
    </svg>