<svg width="1200" height="600" viewBox="0 0 1200 600" xmlns="http://www.w3.org/2000/svg">
            <rect width="1200" height="600" fill="#0f172a"/><rect x="150" y="279.97307760360854" width="60" height="70.02692239639146" fill="#38bdf8" opacity="0.6"/>
                    <rect x="170" y="259.97307760360854" width="60" height="70.02692239639146" fill="#818cf8" opacity="0.4" transform="skewY(-20)"/><rect x="270" y="279.5714139996562" width="60" height="70.42858600034378" fill="#38bdf8" opacity="0.6"/>
                    <rect x="290" y="259.5714139996562" width="60" height="70.42858600034378" fill="#818cf8" opacity="0.4" transform="skewY(-20)"/><rect x="390" y="222.10034608924616" width="60" height="127.89965391075384" fill="#38bdf8" opacity="0.6"/>
                    <rect x="410" y="202.10034608924616" width="60" height="127.89965391075384" fill="#818cf8" opacity="0.4" transform="skewY(-20)"/><rect x="510" y="166.49806522909785" width="60" height="183.50193477090215" fill="#38bdf8" opacity="0.6"/>
                    <rect x="530" y="146.49806522909785" width="60" height="183.50193477090215" fill="#818cf8" opacity="0.4" transform="skewY(-20)"/><rect x="630" y="238.10259846759436" width="60" height="111.89740153240564" fill="#38bdf8" opacity="0.6"/>
                    <rect x="650" y="218.10259846759436" width="60" height="111.89740153240564" fill="#818cf8" opacity="0.4" transform="skewY(-20)"/><rect x="750" y="106.76838739704982" width="60" height="243.23161260295018" fill="#38bdf8" opacity="0.6"/>
                    <rect x="770" y="86.76838739704982" width="60" height="243.23161260295018" fill="#818cf8" opacity="0.4" transform="skewY(-20)"/><rect x="870" y="234.74812885033316" width="60" height="115.25187114966684" fill="#38bdf8" opacity="0.6"/>
                    <rect x="890" y="214.74812885033316" width="60" height="115.25187114966684" fill="#818cf8" opacity="0.4" transform="skewY(-20)"/><rect x="990" y="189.12831090583495" width="60" height="160.87168909416505" fill="#38bdf8" opacity="0.6"/>
                    <rect x="1010" y="169.12831090583495" width="60" height="160.87168909416505" fill="#818cf8" opacity="0.4" transform="skewY(-20)"/>
            <text x="600" y="520" font-family="Segoe UI, Arial, sans-serif" font-size="38" font-weight="800" fill="#ffffff" text-anchor="middle">Implementing Contextual Search Experience with Typeahead ...</text>
            <text x="600" y="560" font-family="Segoe UI, Arial, sans-serif" font-size="16" font-weight="600" fill="#38bdf8" text-anchor="middle" style="letter-spacing: 4px; text-transform: uppercase;">UI UX Powerhouse • Specialized Series</text>
        </svg>