<svg width="1200" height="600" viewBox="0 0 1200 600" xmlns="http://www.w3.org/2000/svg">
            <rect width="1200" height="600" fill="#0f172a"/><path d="M 793.5515082543134 165.71116346749477 L 779.2322592807977 215.71116346749477 L 825.1442370252335 265.71116346749477" stroke="#38bdf8" fill="none" opacity="0.4"/>
                    <circle cx="793.5515082543134" cy="165.71116346749477" r="3" fill="#f472b6"/><path d="M 54.539656823908444 155.69921196001815 L 94.81413456524024 205.69921196001815 L 43.90066862470121 255.69921196001815" stroke="#38bdf8" fill="none" opacity="0.4"/>
                    <circle cx="54.539656823908444" cy="155.69921196001815" r="3" fill="#f472b6"/><path d="M 1114.0319231821195 342.3173669856624 L 1154.96515206205 392.3173669856624 L 1160.5762086608593 442.3173669856624" stroke="#38bdf8" fill="none" opacity="0.4"/>
                    <circle cx="1114.0319231821195" cy="342.3173669856624" r="3" fill="#f472b6"/><path d="M 352.91940456736484 265.33669016862405 L 331.81318132046727 315.33669016862405 L 311.05051832955724 365.33669016862405" stroke="#38bdf8" fill="none" opacity="0.4"/>
                    <circle cx="352.91940456736484" cy="265.33669016862405" r="3" fill="#f472b6"/><path d="M 553.5596773501311 342.39412637125497 L 557.7721269121866 392.39412637125497 L 553.8501283526784 442.39412637125497" stroke="#38bdf8" fill="none" opacity="0.4"/>
                    <circle cx="553.5596773501311" cy="342.39412637125497" r="3" fill="#f472b6"/><path d="M 510.2327974695072 378.9326050718955 L 488.9919309734978 428.9326050718955 L 513.2029710074448 478.9326050718955" stroke="#38bdf8" fill="none" opacity="0.4"/>
                    <circle cx="510.2327974695072" cy="378.9326050718955" r="3" fill="#f472b6"/><path d="M 696.6196942626993 384.98112109409703 L 684.6925581035521 434.98112109409703 L 734.0439577408233 484.98112109409703" stroke="#38bdf8" fill="none" opacity="0.4"/>
                    <circle cx="696.6196942626993" cy="384.98112109409703" r="3" fill="#f472b6"/><path d="M 517.2958887857021 22.107282121578464 L 564.4888744075615 72.10728212157846 L 501.5789707767908 122.10728212157846" stroke="#38bdf8" fill="none" opacity="0.4"/>
                    <circle cx="517.2958887857021" cy="22.107282121578464" r="3" fill="#f472b6"/><path d="M 584.0714719022799 290.80721324062324 L 602.4091365687127 340.80721324062324 L 588.6509416126501 390.80721324062324" stroke="#38bdf8" fill="none" opacity="0.4"/>
                    <circle cx="584.0714719022799" cy="290.80721324062324" r="3" fill="#f472b6"/><path d="M 180.61258136949618 249.25570512132253 L 209.64909799586167 299.25570512132253 L 158.2971182543247 349.25570512132253" stroke="#38bdf8" fill="none" opacity="0.4"/>
                    <circle cx="180.61258136949618" cy="249.25570512132253" r="3" fill="#f472b6"/>
            <text x="600" y="520" font-family="Segoe UI, Arial, sans-serif" font-size="38" font-weight="800" fill="#ffffff" text-anchor="middle">Implementing Advanced Contextual Tooltips with ARIA and I...</text>
            <text x="600" y="560" font-family="Segoe UI, Arial, sans-serif" font-size="16" font-weight="600" fill="#38bdf8" text-anchor="middle" style="letter-spacing: 4px; text-transform: uppercase;">UI UX Powerhouse • Specialized Series</text>
        </svg>