<svg width="1200" height="600" viewBox="0 0 1200 600" xmlns="http://www.w3.org/2000/svg">
            <rect width="1200" height="600" fill="#0f172a"/><path d="M 1108.7055474905355 46.83005859187688 L 1146.9202713255072 96.83005859187688 L 1088.3660417418987 146.83005859187688" stroke="#38bdf8" fill="none" opacity="0.4"/>
                    <circle cx="1108.7055474905355" cy="46.83005859187688" r="3" fill="#f472b6"/><path d="M 1096.4712555691221 277.23691088103806 L 1070.2663395001764 327.23691088103806 L 1066.6111032367553 377.23691088103806" stroke="#38bdf8" fill="none" opacity="0.4"/>
                    <circle cx="1096.4712555691221" cy="277.23691088103806" r="3" fill="#f472b6"/><path d="M 899.3775119814927 310.9917757785297 L 917.726174683321 360.9917757785297 L 936.3563486839666 410.9917757785297" stroke="#38bdf8" fill="none" opacity="0.4"/>
                    <circle cx="899.3775119814927" cy="310.9917757785297" r="3" fill="#f472b6"/><path d="M 74.01429464043758 265.98900808166945 L 120.80430140599674 315.98900808166945 L 24.483991726810928 365.98900808166945" stroke="#38bdf8" fill="none" opacity="0.4"/>
                    <circle cx="74.01429464043758" cy="265.98900808166945" r="3" fill="#f472b6"/><path d="M 465.4578571255115 240.24893872992834 L 504.2447465235455 290.24893872992834 L 463.00004652136977 340.24893872992834" stroke="#38bdf8" fill="none" opacity="0.4"/>
                    <circle cx="465.4578571255115" cy="240.24893872992834" r="3" fill="#f472b6"/><path d="M 1125.5151583216502 329.2937557496771 L 1161.0949322197428 379.2937557496771 L 1175.035306333075 429.2937557496771" stroke="#38bdf8" fill="none" opacity="0.4"/>
                    <circle cx="1125.5151583216502" cy="329.2937557496771" r="3" fill="#f472b6"/><path d="M 1096.5051801096706 145.69971765427 L 1095.2328539239716 195.69971765427 L 1061.7154567649777 245.69971765427" stroke="#38bdf8" fill="none" opacity="0.4"/>
                    <circle cx="1096.5051801096706" cy="145.69971765427" r="3" fill="#f472b6"/><path d="M 1158.0282552429708 194.79041472586687 L 1114.5566304406857 244.79041472586687 L 1158.4939822161687 294.79041472586687" stroke="#38bdf8" fill="none" opacity="0.4"/>
                    <circle cx="1158.0282552429708" cy="194.79041472586687" r="3" fill="#f472b6"/><path d="M 116.94381600382258 119.91161822334107 L 157.81754528588863 169.91161822334107 L 125.65412084013587 219.91161822334107" stroke="#38bdf8" fill="none" opacity="0.4"/>
                    <circle cx="116.94381600382258" cy="119.91161822334107" r="3" fill="#f472b6"/><path d="M 1198.490621932433 31.99234908533981 L 1156.4878402336035 81.99234908533981 L 1192.777440241116 131.9923490853398" stroke="#38bdf8" fill="none" opacity="0.4"/>
                    <circle cx="1198.490621932433" cy="31.99234908533981" r="3" fill="#f472b6"/>
            <text x="600" y="520" font-family="Segoe UI, Arial, sans-serif" font-size="38" font-weight="800" fill="#ffffff" text-anchor="middle">Implementing Context-Aware Design Patterns for Dynamic Da...</text>
            <text x="600" y="560" font-family="Segoe UI, Arial, sans-serif" font-size="16" font-weight="600" fill="#38bdf8" text-anchor="middle" style="letter-spacing: 4px; text-transform: uppercase;">UI UX Powerhouse • Specialized Series</text>
        </svg>