<svg width="1200" height="600" viewBox="0 0 1200 600" xmlns="http://www.w3.org/2000/svg">
        
            <rect width="1200" height="600" fill="#f8fafc"/>
            <rect x="100" y="100" width="1000" height="350" rx="10" fill="#ffffff" stroke="#e2e8f0"/>
            <rect x="150" y="202.56005131159327" width="31.57894736842105" height="197.43994868840673" fill="#fbbf24" rx="4"/><rect x="194.73684210526315" y="345.4460469107289" width="31.57894736842105" height="54.55395308927109" fill="#fbbf24" rx="4"/><rect x="239.4736842105263" y="191.9042107232599" width="31.57894736842105" height="208.0957892767401" fill="#fbbf24" rx="4"/><rect x="284.2105263157895" y="206.8112183609628" width="31.57894736842105" height="193.1887816390372" fill="#fbbf24" rx="4"/><rect x="328.9473684210526" y="320.86733247742814" width="31.57894736842105" height="79.13266752257186" fill="#fbbf24" rx="4"/><rect x="373.6842105263158" y="272.4948439426953" width="31.57894736842105" height="127.5051560573047" fill="#fbbf24" rx="4"/><rect x="418.42105263157896" y="175.5704483428417" width="31.57894736842105" height="224.4295516571583" fill="#fbbf24" rx="4"/><rect x="463.1578947368421" y="242.13973532278033" width="31.57894736842105" height="157.86026467721967" fill="#fbbf24" rx="4"/><rect x="507.89473684210526" y="275.0225709003189" width="31.57894736842105" height="124.9774290996811" fill="#fbbf24" rx="4"/><rect x="552.6315789473684" y="217.9001390515623" width="31.57894736842105" height="182.0998609484377" fill="#fbbf24" rx="4"/><rect x="597.3684210526316" y="311.72211586672347" width="31.57894736842105" height="88.27788413327653" fill="#fbbf24" rx="4"/><rect x="642.1052631578948" y="271.4640901927851" width="31.57894736842105" height="128.53590980721492" fill="#fbbf24" rx="4"/><rect x="686.8421052631579" y="234.1420584336447" width="31.57894736842105" height="165.8579415663553" fill="#fbbf24" rx="4"/><rect x="731.578947368421" y="267.2992772339967" width="31.57894736842105" height="132.7007227660033" fill="#fbbf24" rx="4"/><rect x="776.3157894736842" y="160.15312403906137" width="31.57894736842105" height="239.84687596093863" fill="#fbbf24" rx="4"/><rect x="821.0526315789474" y="216.18432339300853" width="31.57894736842105" height="183.81567660699147" fill="#fbbf24" rx="4"/><rect x="865.7894736842105" y="325.5224840203482" width="31.57894736842105" height="74.4775159796518" fill="#fbbf24" rx="4"/><rect x="910.5263157894736" y="219.76872674786136" width="31.57894736842105" height="180.23127325213864" fill="#fbbf24" rx="4"/><rect x="955.2631578947369" y="224.47233100319863" width="31.57894736842105" height="175.52766899680137" fill="#fbbf24" rx="4"/>
        
        <text x="600" y="520" font-family="Segoe UI, Arial" font-size="38" font-weight="800" fill="#f8fafc" text-anchor="middle">Implementing Scroll-Triggered Sticky Navigation with Inte...</text>
    </svg>