<svg width="1200" height="600" viewBox="0 0 1200 600" xmlns="http://www.w3.org/2000/svg">
        <rect width="1200" height="600" fill="#0f172a"/><path d="M 565.9365302795777 254.31629158119904 L 590.2531455529697 304.31629158119904 L 580.860142868346 354.31629158119904" stroke="#38bdf8" fill="none" opacity="0.4"/>
                    <circle cx="565.9365302795777" cy="254.31629158119904" r="3" fill="#f472b6"/><path d="M 244.22843987667875 49.497802392579615 L 208.93223519418598 99.49780239257962 L 235.172906025673 149.49780239257962" stroke="#38bdf8" fill="none" opacity="0.4"/>
                    <circle cx="244.22843987667875" cy="49.497802392579615" r="3" fill="#f472b6"/><path d="M 1108.6702776234233 44.108203640644206 L 1067.092898600049 94.1082036406442 L 1142.7587579219562 144.1082036406442" stroke="#38bdf8" fill="none" opacity="0.4"/>
                    <circle cx="1108.6702776234233" cy="44.108203640644206" r="3" fill="#f472b6"/><path d="M 200.48463840903423 170.3686442146136 L 186.53434545467462 220.3686442146136 L 227.14279780575453 270.3686442146136" stroke="#38bdf8" fill="none" opacity="0.4"/>
                    <circle cx="200.48463840903423" cy="170.3686442146136" r="3" fill="#f472b6"/><path d="M 1139.7183512719494 325.40164387937693 L 1187.8785662829614 375.40164387937693 L 1118.0012340801113 425.40164387937693" stroke="#38bdf8" fill="none" opacity="0.4"/>
                    <circle cx="1139.7183512719494" cy="325.40164387937693" r="3" fill="#f472b6"/><path d="M 421.4036357112491 96.49154559992894 L 431.375099813539 146.49154559992894 L 414.2030200496265 196.49154559992894" stroke="#38bdf8" fill="none" opacity="0.4"/>
                    <circle cx="421.4036357112491" cy="96.49154559992894" r="3" fill="#f472b6"/><path d="M 298.33663829704165 5.108920918792137 L 312.57673209679524 55.10892091879214 L 311.09691283763823 105.10892091879214" stroke="#38bdf8" fill="none" opacity="0.4"/>
                    <circle cx="298.33663829704165" cy="5.108920918792137" r="3" fill="#f472b6"/><path d="M 225.2123040118022 164.57467432119302 L 244.84353204969693 214.57467432119302 L 227.6075649860104 264.574674321193" stroke="#38bdf8" fill="none" opacity="0.4"/>
                    <circle cx="225.2123040118022" cy="164.57467432119302" r="3" fill="#f472b6"/><path d="M 455.15563963199384 381.34838442201726 L 445.33849845292934 431.34838442201726 L 458.92884411341583 481.34838442201726" stroke="#38bdf8" fill="none" opacity="0.4"/>
                    <circle cx="455.15563963199384" cy="381.34838442201726" r="3" fill="#f472b6"/><path d="M 421.939921822559 220.6978389127471 L 407.4493593932857 270.6978389127471 L 372.5989297932756 320.6978389127471" stroke="#38bdf8" fill="none" opacity="0.4"/>
                    <circle cx="421.939921822559" cy="220.6978389127471" r="3" fill="#f472b6"/>
        <text x="600" y="520" font-family="Segoe UI, Arial, sans-serif" font-size="38" font-weight="800" fill="#ffffff" text-anchor="middle">Implementing Custom, Context-Aware Tooltips Using Interse...</text>
        <text x="600" y="560" font-family="Segoe UI, Arial, sans-serif" font-size="16" font-weight="600" fill="#38bdf8" text-anchor="middle" style="letter-spacing: 4px; text-transform: uppercase;">UI UX Powerhouse • Specialized Series</text>
    </svg>