<svg width="1200" height="600" viewBox="0 0 1200 600" xmlns="http://www.w3.org/2000/svg">
        <rect width="1200" height="600" fill="#1e1b4b"/><rect x="150" y="247.60057172898087" width="60" height="102.39942827101913" fill="#f43f5e" opacity="0.6"/>
                    <rect x="170" y="227.60057172898087" width="60" height="102.39942827101913" fill="#fb7185" opacity="0.4" transform="skewY(-20)"/><rect x="270" y="236.37596062762896" width="60" height="113.62403937237104" fill="#f43f5e" opacity="0.6"/>
                    <rect x="290" y="216.37596062762896" width="60" height="113.62403937237104" fill="#fb7185" opacity="0.4" transform="skewY(-20)"/><rect x="390" y="236.08019052021518" width="60" height="113.91980947978482" fill="#f43f5e" opacity="0.6"/>
                    <rect x="410" y="216.08019052021518" width="60" height="113.91980947978482" fill="#fb7185" opacity="0.4" transform="skewY(-20)"/><rect x="510" y="211.91064914801245" width="60" height="138.08935085198755" fill="#f43f5e" opacity="0.6"/>
                    <rect x="530" y="191.91064914801245" width="60" height="138.08935085198755" fill="#fb7185" opacity="0.4" transform="skewY(-20)"/><rect x="630" y="156.16676516947336" width="60" height="193.83323483052664" fill="#f43f5e" opacity="0.6"/>
                    <rect x="650" y="136.16676516947336" width="60" height="193.83323483052664" fill="#fb7185" opacity="0.4" transform="skewY(-20)"/><rect x="750" y="171.98084352894512" width="60" height="178.01915647105488" fill="#f43f5e" opacity="0.6"/>
                    <rect x="770" y="151.98084352894512" width="60" height="178.01915647105488" fill="#fb7185" opacity="0.4" transform="skewY(-20)"/><rect x="870" y="189.1420107731392" width="60" height="160.8579892268608" fill="#f43f5e" opacity="0.6"/>
                    <rect x="890" y="169.1420107731392" width="60" height="160.8579892268608" fill="#fb7185" opacity="0.4" transform="skewY(-20)"/><rect x="990" y="263.73319630874903" width="60" height="86.26680369125097" fill="#f43f5e" opacity="0.6"/>
                    <rect x="1010" y="243.73319630874903" width="60" height="86.26680369125097" fill="#fb7185" opacity="0.4" transform="skewY(-20)"/>
        <text x="600" y="520" font-family="Segoe UI, Arial, sans-serif" font-size="38" font-weight="800" fill="#ffffff" text-anchor="middle">Implementing Advanced Voice Interaction Patterns for Comp...</text>
        <text x="600" y="560" font-family="Segoe UI, Arial, sans-serif" font-size="16" font-weight="600" fill="#f43f5e" text-anchor="middle" style="letter-spacing: 4px; text-transform: uppercase;">UI UX Powerhouse • Specialized Series</text>
    </svg>