<svg width="1200" height="600" viewBox="0 0 1200 600" xmlns="http://www.w3.org/2000/svg">
        <rect width="1200" height="600" fill="#171717"/><circle cx="249.64246148720122" cy="76.71382783846639" r="10.55616822122829" fill="#f59e0b" opacity="0.1"/><circle cx="646.8127553005615" cy="123.73635732001276" r="39.92073924146098" fill="#f59e0b" opacity="0.1"/><circle cx="315.76604409492575" cy="24.75271698422148" r="18.74587550168144" fill="#f59e0b" opacity="0.1"/><circle cx="1048.646468104198" cy="121.89424547996168" r="44.18106425339829" fill="#f59e0b" opacity="0.1"/><circle cx="833.4120292158332" cy="282.4380110083439" r="39.824219657311914" fill="#f59e0b" opacity="0.1"/><circle cx="826.1360633754521" cy="208.45177258961485" r="23.26767414342612" fill="#f59e0b" opacity="0.1"/><circle cx="249.51942904590396" cy="197.92585026480083" r="35.61380614361951" fill="#f59e0b" opacity="0.1"/><circle cx="1050.6959677404666" cy="277.2966295010633" r="17.754232608313032" fill="#f59e0b" opacity="0.1"/><circle cx="2.915027623384958" cy="152.1016932972998" r="43.16484356968431" fill="#f59e0b" opacity="0.1"/><circle cx="495.823643507174" cy="55.698793849478534" r="19.499227649557724" fill="#f59e0b" opacity="0.1"/><circle cx="378.45999524397484" cy="301.1172616377735" r="36.49129379304213" fill="#f59e0b" opacity="0.1"/><circle cx="801.0421904094983" cy="321.1135621779249" r="20.20894069944916" fill="#f59e0b" opacity="0.1"/><circle cx="602.1382209708463" cy="388.2945750727231" r="44.12360875263403" fill="#f59e0b" opacity="0.1"/><circle cx="922.8434207187092" cy="399.93951864216797" r="23.13999140234955" fill="#f59e0b" opacity="0.1"/><circle cx="772.6781312022013" cy="175.50688391456788" r="27.32509504778136" fill="#f59e0b" opacity="0.1"/><circle cx="804.6043577298406" cy="322.2805482091644" r="27.360700675731096" fill="#f59e0b" opacity="0.1"/><circle cx="1001.4204874427378" cy="106.41456851590192" r="46.49401556167504" fill="#f59e0b" opacity="0.1"/><circle cx="233.86801531933088" cy="128.53467384702526" r="30.377195623823354" fill="#f59e0b" opacity="0.1"/><circle cx="154.15490617378964" cy="390.22261882478233" r="22.127540587935073" fill="#f59e0b" opacity="0.1"/><circle cx="1012.7904755670897" cy="246.06435338719166" r="18.04522507401998" fill="#f59e0b" opacity="0.1"/><circle cx="658.5166115939501" cy="172.24499969088356" r="32.91202709013305" fill="#f59e0b" opacity="0.1"/><circle cx="1145.3683148538403" cy="17.18042963220796" r="33.029135306715034" fill="#f59e0b" opacity="0.1"/><circle cx="261.65533269158914" cy="108.8568589912029" r="49.90583212253114" fill="#f59e0b" opacity="0.1"/><circle cx="911.9988905178616" cy="148.9780935273302" r="18.95832940172113" fill="#f59e0b" opacity="0.1"/><circle cx="833.4333798615262" cy="45.13490784083842" r="45.72133216403017" fill="#f59e0b" opacity="0.1"/><circle cx="526.3202881425968" cy="306.36774820741266" r="36.960584197586286" fill="#f59e0b" opacity="0.1"/><circle cx="1002.7629596235784" cy="250.9714439038362" r="26.512168276676675" fill="#f59e0b" opacity="0.1"/><circle cx="1047.5295346775965" cy="57.13839063755586" r="44.923547634184615" fill="#f59e0b" opacity="0.1"/><circle cx="1136.9959510062472" cy="167.43659083876992" r="28.19848704551987" fill="#f59e0b" opacity="0.1"/><circle cx="479.29635798282106" cy="203.23495016564266" r="14.850735946547502" fill="#f59e0b" opacity="0.1"/>
        <text x="600" y="520" font-family="Segoe UI, Arial, sans-serif" font-size="38" font-weight="800" fill="#ffffff" text-anchor="middle">Implementing Contextual Design Patterns for Enhancing Usa...</text>
        <text x="600" y="560" font-family="Segoe UI, Arial, sans-serif" font-size="16" font-weight="600" fill="#f59e0b" text-anchor="middle" style="letter-spacing: 4px; text-transform: uppercase;">UI UX Powerhouse • Specialized Series</text>
    </svg>