<svg width="1200" height="600" viewBox="0 0 1200 600" xmlns="http://www.w3.org/2000/svg">
            <rect width="1200" height="600" fill="#2e1065"/><circle cx="173.87120051134843" cy="182.77910093129321" r="12.973979211219557" fill="#d8b4fe" opacity="0.1"/><circle cx="862.7891803480452" cy="263.35095008944336" r="35.25483990459179" fill="#d8b4fe" opacity="0.1"/><circle cx="1077.5196387774486" cy="141.41470837130328" r="40.137813958426705" fill="#d8b4fe" opacity="0.1"/><circle cx="62.21243638302667" cy="51.200342199081206" r="19.9440522513396" fill="#d8b4fe" opacity="0.1"/><circle cx="18.229243490895897" cy="3.5081674435787136" r="15.194344207084214" fill="#d8b4fe" opacity="0.1"/><circle cx="408.6773580558656" cy="160.47444448704482" r="28.226321645706776" fill="#d8b4fe" opacity="0.1"/><circle cx="82.56004373979522" cy="87.96417483390542" r="12.238774984271004" fill="#d8b4fe" opacity="0.1"/><circle cx="117.85668188895215" cy="149.37231521253125" r="29.20021701425867" fill="#d8b4fe" opacity="0.1"/><circle cx="137.9884024929197" cy="260.5405642117603" r="13.853286706507788" fill="#d8b4fe" opacity="0.1"/><circle cx="493.9601797621435" cy="20.769108755348498" r="45.57147745086695" fill="#d8b4fe" opacity="0.1"/><circle cx="750.6137525444501" cy="78.3029817210263" r="36.79438911087345" fill="#d8b4fe" opacity="0.1"/><circle cx="93.15031683199777" cy="184.51579891770962" r="24.968281218971242" fill="#d8b4fe" opacity="0.1"/><circle cx="529.747558301824" cy="178.76025260084134" r="43.67588781601626" fill="#d8b4fe" opacity="0.1"/><circle cx="273.5297659008211" cy="34.25490559020545" r="24.844628950304468" fill="#d8b4fe" opacity="0.1"/><circle cx="744.3180663720341" cy="104.80317888286663" r="20.038521830315403" fill="#d8b4fe" opacity="0.1"/><circle cx="8.972182708157561" cy="298.72959691492724" r="13.83239922717621" fill="#d8b4fe" opacity="0.1"/><circle cx="206.28999575274065" cy="46.07412099867361" r="34.9568494396226" fill="#d8b4fe" opacity="0.1"/><circle cx="1153.441276493686" cy="253.46102210096433" r="26.508495228699758" fill="#d8b4fe" opacity="0.1"/><circle cx="557.935625025857" cy="358.72461165999994" r="45.57403455226449" fill="#d8b4fe" opacity="0.1"/><circle cx="488.52652523564757" cy="72.01591197172093" r="35.9339310229916" fill="#d8b4fe" opacity="0.1"/><circle cx="521.089052561365" cy="222.2164205793888" r="29.73072176158894" fill="#d8b4fe" opacity="0.1"/><circle cx="124.4416962719697" cy="379.7809713487368" r="21.921760807954342" fill="#d8b4fe" opacity="0.1"/><circle cx="1135.0986878707772" cy="49.88939918184769" r="38.37949344102526" fill="#d8b4fe" opacity="0.1"/><circle cx="599.9862097633013" cy="131.74274817883997" r="36.77655887287983" fill="#d8b4fe" opacity="0.1"/><circle cx="406.67594649494276" cy="381.50428015869693" r="12.433215702112648" fill="#d8b4fe" opacity="0.1"/><circle cx="401.6362679874874" cy="139.0702299948316" r="35.28468926226651" fill="#d8b4fe" opacity="0.1"/><circle cx="323.6693601771549" cy="123.33606204506395" r="41.078973700423376" fill="#d8b4fe" opacity="0.1"/><circle cx="357.99519591309945" cy="382.61876127435244" r="22.12682015651808" fill="#d8b4fe" opacity="0.1"/><circle cx="123.79957084885973" cy="139.09611043418408" r="42.43852928603616" fill="#d8b4fe" opacity="0.1"/><circle cx="108.42800666287076" cy="12.786448808401474" r="35.846100934923015" fill="#d8b4fe" opacity="0.1"/>
            <text x="600" y="520" font-family="Segoe UI, Arial, sans-serif" font-size="38" font-weight="800" fill="#ffffff" text-anchor="middle">Implementing Adaptive UI Layouts Using Container Queries ...</text>
            <text x="600" y="560" font-family="Segoe UI, Arial, sans-serif" font-size="16" font-weight="600" fill="#d8b4fe" text-anchor="middle" style="letter-spacing: 4px; text-transform: uppercase;">UI UX Powerhouse • Specialized Series</text>
        </svg>