<svg width="1200" height="600" viewBox="0 0 1200 600" xmlns="http://www.w3.org/2000/svg">
            <rect width="1200" height="600" fill="#111827"/><rect x="150" y="130.97115387736267" width="60" height="219.02884612263733" fill="#10b981" opacity="0.6"/>
                    <rect x="170" y="110.97115387736267" width="60" height="219.02884612263733" fill="#34d399" opacity="0.4" transform="skewY(-20)"/><rect x="270" y="257.83925936157175" width="60" height="92.16074063842825" fill="#10b981" opacity="0.6"/>
                    <rect x="290" y="237.83925936157175" width="60" height="92.16074063842825" fill="#34d399" opacity="0.4" transform="skewY(-20)"/><rect x="390" y="289.3745230389868" width="60" height="60.62547696101319" fill="#10b981" opacity="0.6"/>
                    <rect x="410" y="269.3745230389868" width="60" height="60.62547696101319" fill="#34d399" opacity="0.4" transform="skewY(-20)"/><rect x="510" y="279.14338441132713" width="60" height="70.85661558867287" fill="#10b981" opacity="0.6"/>
                    <rect x="530" y="259.14338441132713" width="60" height="70.85661558867287" fill="#34d399" opacity="0.4" transform="skewY(-20)"/><rect x="630" y="262.9041548592795" width="60" height="87.09584514072048" fill="#10b981" opacity="0.6"/>
                    <rect x="650" y="242.90415485927952" width="60" height="87.09584514072048" fill="#34d399" opacity="0.4" transform="skewY(-20)"/><rect x="750" y="179.57150590941637" width="60" height="170.42849409058363" fill="#10b981" opacity="0.6"/>
                    <rect x="770" y="159.57150590941637" width="60" height="170.42849409058363" fill="#34d399" opacity="0.4" transform="skewY(-20)"/><rect x="870" y="132.06834280535986" width="60" height="217.93165719464014" fill="#10b981" opacity="0.6"/>
                    <rect x="890" y="112.06834280535986" width="60" height="217.93165719464014" fill="#34d399" opacity="0.4" transform="skewY(-20)"/><rect x="990" y="185.1193758979207" width="60" height="164.8806241020793" fill="#10b981" opacity="0.6"/>
                    <rect x="1010" y="165.1193758979207" width="60" height="164.8806241020793" fill="#34d399" opacity="0.4" transform="skewY(-20)"/>
            <text x="600" y="520" font-family="Segoe UI, Arial, sans-serif" font-size="38" font-weight="800" fill="#ffffff" text-anchor="middle">Implementing Responsive Web Design Strategies for Data-He...</text>
            <text x="600" y="560" font-family="Segoe UI, Arial, sans-serif" font-size="16" font-weight="600" fill="#10b981" text-anchor="middle" style="letter-spacing: 4px; text-transform: uppercase;">UI UX Powerhouse • Specialized Series</text>
        </svg>