<svg width="1200" height="600" viewBox="0 0 1200 600" xmlns="http://www.w3.org/2000/svg">
            <rect width="1200" height="600" fill="#2e1065"/><rect x="150" y="148.22109052884116" width="60" height="201.77890947115884" fill="#d8b4fe" opacity="0.6"/>
                    <rect x="170" y="128.22109052884116" width="60" height="201.77890947115884" fill="#a855f7" opacity="0.4" transform="skewY(-20)"/><rect x="270" y="171.1810232995049" width="60" height="178.8189767004951" fill="#d8b4fe" opacity="0.6"/>
                    <rect x="290" y="151.1810232995049" width="60" height="178.8189767004951" fill="#a855f7" opacity="0.4" transform="skewY(-20)"/><rect x="390" y="254.9858296652019" width="60" height="95.01417033479811" fill="#d8b4fe" opacity="0.6"/>
                    <rect x="410" y="234.9858296652019" width="60" height="95.01417033479811" fill="#a855f7" opacity="0.4" transform="skewY(-20)"/><rect x="510" y="138.05598208527954" width="60" height="211.94401791472046" fill="#d8b4fe" opacity="0.6"/>
                    <rect x="530" y="118.05598208527954" width="60" height="211.94401791472046" fill="#a855f7" opacity="0.4" transform="skewY(-20)"/><rect x="630" y="108.23738747913012" width="60" height="241.76261252086988" fill="#d8b4fe" opacity="0.6"/>
                    <rect x="650" y="88.23738747913012" width="60" height="241.76261252086988" fill="#a855f7" opacity="0.4" transform="skewY(-20)"/><rect x="750" y="171.8236202497792" width="60" height="178.1763797502208" fill="#d8b4fe" opacity="0.6"/>
                    <rect x="770" y="151.8236202497792" width="60" height="178.1763797502208" fill="#a855f7" opacity="0.4" transform="skewY(-20)"/><rect x="870" y="129.16929715429433" width="60" height="220.83070284570567" fill="#d8b4fe" opacity="0.6"/>
                    <rect x="890" y="109.16929715429433" width="60" height="220.83070284570567" fill="#a855f7" opacity="0.4" transform="skewY(-20)"/><rect x="990" y="223.89818884330452" width="60" height="126.10181115669548" fill="#d8b4fe" opacity="0.6"/>
                    <rect x="1010" y="203.89818884330452" width="60" height="126.10181115669548" fill="#a855f7" opacity="0.4" transform="skewY(-20)"/>
            <text x="600" y="520" font-family="Segoe UI, Arial, sans-serif" font-size="38" font-weight="800" fill="#ffffff" text-anchor="middle">Implementing Custom Gesture-Based Navigation in Progressi...</text>
            <text x="600" y="560" font-family="Segoe UI, Arial, sans-serif" font-size="16" font-weight="600" fill="#d8b4fe" text-anchor="middle" style="letter-spacing: 4px; text-transform: uppercase;">UI UX Powerhouse • Specialized Series</text>
        </svg>