<svg width="1200" height="600" viewBox="0 0 1200 600" xmlns="http://www.w3.org/2000/svg">
        <rect width="1200" height="600" fill="#111827"/><circle cx="479.37807847083604" cy="121.38256944235764" r="34.99853904584597" fill="#10b981" opacity="0.1"/><circle cx="86.77402701323444" cy="244.759557510406" r="23.14834863129363" fill="#10b981" opacity="0.1"/><circle cx="553.0792323497735" cy="94.38453039365413" r="40.63052684425202" fill="#10b981" opacity="0.1"/><circle cx="873.124149862997" cy="94.23628162585374" r="30.18382609494438" fill="#10b981" opacity="0.1"/><circle cx="709.1076260556292" cy="135.23830251506297" r="44.724645727837924" fill="#10b981" opacity="0.1"/><circle cx="777.7475927956402" cy="188.43481440526375" r="25.588084106566384" fill="#10b981" opacity="0.1"/><circle cx="1004.8066279605337" cy="12.942007829767022" r="39.46119479847766" fill="#10b981" opacity="0.1"/><circle cx="545.3783772238239" cy="97.37533206134685" r="49.8267425463564" fill="#10b981" opacity="0.1"/><circle cx="430.2528137282934" cy="298.01702017866774" r="43.094904119789135" fill="#10b981" opacity="0.1"/><circle cx="770.645716405852" cy="67.04230892064516" r="10.175753063158481" fill="#10b981" opacity="0.1"/><circle cx="34.809185957419686" cy="86.67343594388512" r="27.15053869278563" fill="#10b981" opacity="0.1"/><circle cx="102.20295229955809" cy="107.44571024370089" r="36.84895873142523" fill="#10b981" opacity="0.1"/><circle cx="553.9924146853082" cy="178.54195775144035" r="34.148202384312754" fill="#10b981" opacity="0.1"/><circle cx="888.3982879639007" cy="209.2492770505487" r="30.539499953156337" fill="#10b981" opacity="0.1"/><circle cx="296.0717080200993" cy="313.72729639406316" r="24.895253537142708" fill="#10b981" opacity="0.1"/><circle cx="47.50252829071542" cy="111.62364823976532" r="36.71271965664346" fill="#10b981" opacity="0.1"/><circle cx="739.2258988769754" cy="117.65872635442065" r="26.36582879076741" fill="#10b981" opacity="0.1"/><circle cx="358.9214810192061" cy="212.3142902892141" r="43.47597823378237" fill="#10b981" opacity="0.1"/><circle cx="278.95893104941933" cy="57.483435881840705" r="14.85246496165928" fill="#10b981" opacity="0.1"/><circle cx="289.5927613219101" cy="253.60253195394762" r="48.986992671343614" fill="#10b981" opacity="0.1"/><circle cx="60.66458638961194" cy="189.7665953689284" r="21.71475869485903" fill="#10b981" opacity="0.1"/><circle cx="723.8865808359151" cy="303.6801398040552" r="18.63356461886724" fill="#10b981" opacity="0.1"/><circle cx="524.8952690180886" cy="166.78047051973408" r="25.715281909506302" fill="#10b981" opacity="0.1"/><circle cx="369.24847914779093" cy="202.66646984018735" r="31.72553366275679" fill="#10b981" opacity="0.1"/><circle cx="1187.9994394092137" cy="191.3478328158817" r="18.457437853130614" fill="#10b981" opacity="0.1"/><circle cx="886.4628909643216" cy="361.93900612597645" r="12.500541446524949" fill="#10b981" opacity="0.1"/><circle cx="222.36331601416168" cy="357.07507837749404" r="47.55269362991385" fill="#10b981" opacity="0.1"/><circle cx="702.7862313076184" cy="107.42589642104576" r="40.431425421447784" fill="#10b981" opacity="0.1"/><circle cx="1079.4314663580735" cy="71.70424992327753" r="32.1960555818805" fill="#10b981" opacity="0.1"/><circle cx="570.8570404309285" cy="23.77713032910833" r="21.047189547844027" fill="#10b981" opacity="0.1"/>
        <text x="600" y="520" font-family="Segoe UI, Arial, sans-serif" font-size="38" font-weight="800" fill="#ffffff" text-anchor="middle">Implementing Contextual User Guidance in Web Applications...</text>
        <text x="600" y="560" font-family="Segoe UI, Arial, sans-serif" font-size="16" font-weight="600" fill="#10b981" text-anchor="middle" style="letter-spacing: 4px; text-transform: uppercase;">UI UX Powerhouse • Specialized Series</text>
    </svg>