<svg width="1200" height="600" viewBox="0 0 1200 600" xmlns="http://www.w3.org/2000/svg">
            <rect width="1200" height="600" fill="#1e1b4b"/><rect x="150" y="289.298815784241" width="60" height="60.701184215758985" fill="#f43f5e" opacity="0.6"/>
                    <rect x="170" y="269.298815784241" width="60" height="60.701184215758985" fill="#fb7185" opacity="0.4" transform="skewY(-20)"/><rect x="270" y="269.1355674272927" width="60" height="80.8644325727073" fill="#f43f5e" opacity="0.6"/>
                    <rect x="290" y="249.1355674272927" width="60" height="80.8644325727073" fill="#fb7185" opacity="0.4" transform="skewY(-20)"/><rect x="390" y="130.37837740193936" width="60" height="219.62162259806064" fill="#f43f5e" opacity="0.6"/>
                    <rect x="410" y="110.37837740193936" width="60" height="219.62162259806064" fill="#fb7185" opacity="0.4" transform="skewY(-20)"/><rect x="510" y="187.28229699663643" width="60" height="162.71770300336357" fill="#f43f5e" opacity="0.6"/>
                    <rect x="530" y="167.28229699663643" width="60" height="162.71770300336357" fill="#fb7185" opacity="0.4" transform="skewY(-20)"/><rect x="630" y="242.26831299311016" width="60" height="107.73168700688984" fill="#f43f5e" opacity="0.6"/>
                    <rect x="650" y="222.26831299311016" width="60" height="107.73168700688984" fill="#fb7185" opacity="0.4" transform="skewY(-20)"/><rect x="750" y="266.2593532764731" width="60" height="83.74064672352688" fill="#f43f5e" opacity="0.6"/>
                    <rect x="770" y="246.25935327647312" width="60" height="83.74064672352688" fill="#fb7185" opacity="0.4" transform="skewY(-20)"/><rect x="870" y="225.2308637571332" width="60" height="124.76913624286681" fill="#f43f5e" opacity="0.6"/>
                    <rect x="890" y="205.2308637571332" width="60" height="124.76913624286681" fill="#fb7185" opacity="0.4" transform="skewY(-20)"/><rect x="990" y="159.48602228527307" width="60" height="190.51397771472693" fill="#f43f5e" opacity="0.6"/>
                    <rect x="1010" y="139.48602228527307" width="60" height="190.51397771472693" fill="#fb7185" opacity="0.4" transform="skewY(-20)"/>
            <text x="600" y="520" font-family="Segoe UI, Arial, sans-serif" font-size="38" font-weight="800" fill="#ffffff" text-anchor="middle">Implementing Accessibility-Prioritized Design Patterns fo...</text>
            <text x="600" y="560" font-family="Segoe UI, Arial, sans-serif" font-size="16" font-weight="600" fill="#f43f5e" text-anchor="middle" style="letter-spacing: 4px; text-transform: uppercase;">UI UX Powerhouse • Specialized Series</text>
        </svg>