<svg width="1200" height="600" viewBox="0 0 1200 600" xmlns="http://www.w3.org/2000/svg">
            <rect width="1200" height="600" fill="#171717"/><circle cx="1105.9944398606603" cy="22.45025156007614" r="20.726946248578315" fill="#f59e0b" opacity="0.1"/><circle cx="682.542586782256" cy="55.012280272421776" r="48.08521734077658" fill="#f59e0b" opacity="0.1"/><circle cx="1194.060949760751" cy="315.0554896452377" r="22.094434107166308" fill="#f59e0b" opacity="0.1"/><circle cx="490.51467765821144" cy="19.37680440641998" r="13.94573153469537" fill="#f59e0b" opacity="0.1"/><circle cx="979.2485045531066" cy="92.2287905819303" r="36.80779961956432" fill="#f59e0b" opacity="0.1"/><circle cx="985.1103903663898" cy="379.865909825412" r="34.854187670280226" fill="#f59e0b" opacity="0.1"/><circle cx="392.37559078173945" cy="384.45229749668215" r="23.018712944503932" fill="#f59e0b" opacity="0.1"/><circle cx="1024.770500330851" cy="36.20108307368355" r="27.207495686661787" fill="#f59e0b" opacity="0.1"/><circle cx="338.5932919685729" cy="227.78044546066667" r="28.19958553860488" fill="#f59e0b" opacity="0.1"/><circle cx="721.0896741256875" cy="179.04629360855324" r="37.2586436833808" fill="#f59e0b" opacity="0.1"/><circle cx="927.9937321560283" cy="144.11096435214859" r="38.24271297744417" fill="#f59e0b" opacity="0.1"/><circle cx="264.15114830251696" cy="117.28920907335123" r="48.538576878763706" fill="#f59e0b" opacity="0.1"/><circle cx="390.1141223257582" cy="119.1506802537333" r="33.013625419444" fill="#f59e0b" opacity="0.1"/><circle cx="869.5490413741936" cy="226.41837110677443" r="10.468836542186182" fill="#f59e0b" opacity="0.1"/><circle cx="264.8097321216767" cy="183.4424491509708" r="28.44112190141459" fill="#f59e0b" opacity="0.1"/><circle cx="430.5538127562613" cy="295.110496252164" r="49.802916585467756" fill="#f59e0b" opacity="0.1"/><circle cx="579.6195113289286" cy="264.25990198913496" r="28.42004711703339" fill="#f59e0b" opacity="0.1"/><circle cx="64.79535881480842" cy="51.132419189343636" r="15.186323517591518" fill="#f59e0b" opacity="0.1"/><circle cx="760.8681282836187" cy="143.0503309935375" r="30.126741824205965" fill="#f59e0b" opacity="0.1"/><circle cx="877.6985165972292" cy="102.08441718168615" r="46.503408915414184" fill="#f59e0b" opacity="0.1"/><circle cx="2.007749730728392" cy="28.846900837743306" r="37.7939246121241" fill="#f59e0b" opacity="0.1"/><circle cx="606.384077831899" cy="76.26784084859537" r="21.891303130832966" fill="#f59e0b" opacity="0.1"/><circle cx="968.8123921798251" cy="192.95880908030085" r="25.25826424229308" fill="#f59e0b" opacity="0.1"/><circle cx="115.13623731211737" cy="126.11999887776619" r="11.681072559822496" fill="#f59e0b" opacity="0.1"/><circle cx="916.5740636140981" cy="281.38444779688143" r="46.44400941022468" fill="#f59e0b" opacity="0.1"/><circle cx="326.96699204789184" cy="302.5413901745196" r="30.49211856436159" fill="#f59e0b" opacity="0.1"/><circle cx="677.565517219773" cy="159.86875107919332" r="17.919098678175942" fill="#f59e0b" opacity="0.1"/><circle cx="118.54505250730654" cy="234.43391301552765" r="21.559661146020517" fill="#f59e0b" opacity="0.1"/><circle cx="519.6793776052459" cy="392.9600481226771" r="29.122495976043865" fill="#f59e0b" opacity="0.1"/><circle cx="341.30577854812145" cy="295.15695494537795" r="41.7322821657217" fill="#f59e0b" opacity="0.1"/>
            <text x="600" y="520" font-family="Segoe UI, Arial, sans-serif" font-size="38" font-weight="800" fill="#ffffff" text-anchor="middle">Implementing Advanced Data Visualization Techniques Using...</text>
            <text x="600" y="560" font-family="Segoe UI, Arial, sans-serif" font-size="16" font-weight="600" fill="#f59e0b" text-anchor="middle" style="letter-spacing: 4px; text-transform: uppercase;">UI UX Powerhouse • Specialized Series</text>
        </svg>