<svg width="1200" height="600" viewBox="0 0 1200 600" xmlns="http://www.w3.org/2000/svg">
            <rect width="1200" height="600" fill="#1e1b4b"/><path d="M 600.9191703884426 10.622871081795893 L 615.0216943379746 60.62287108179589 L 597.0980844296264 110.62287108179589" stroke="#f43f5e" fill="none" opacity="0.4"/>
                    <circle cx="600.9191703884426" cy="10.622871081795893" r="3" fill="#22d3ee"/><path d="M 544.308177327548 393.6154569092764 L 531.2158648574041 443.6154569092764 L 518.2120480303638 493.6154569092764" stroke="#f43f5e" fill="none" opacity="0.4"/>
                    <circle cx="544.308177327548" cy="393.6154569092764" r="3" fill="#22d3ee"/><path d="M 418.4392271028628 69.60748038673046 L 441.07401803939865 119.60748038673046 L 398.60308340676056 169.60748038673046" stroke="#f43f5e" fill="none" opacity="0.4"/>
                    <circle cx="418.4392271028628" cy="69.60748038673046" r="3" fill="#22d3ee"/><path d="M 1033.0700666956545 220.45438030472724 L 1012.0223149145204 270.45438030472724 L 1047.5798543842757 320.45438030472724" stroke="#f43f5e" fill="none" opacity="0.4"/>
                    <circle cx="1033.0700666956545" cy="220.45438030472724" r="3" fill="#22d3ee"/><path d="M 190.37861829710891 256.17466633530057 L 158.333411989679 306.17466633530057 L 218.32776209785152 356.17466633530057" stroke="#f43f5e" fill="none" opacity="0.4"/>
                    <circle cx="190.37861829710891" cy="256.17466633530057" r="3" fill="#22d3ee"/><path d="M 192.2460302399486 102.20105994376354 L 213.73003569224238 152.20105994376354 L 199.3778692343767 202.20105994376354" stroke="#f43f5e" fill="none" opacity="0.4"/>
                    <circle cx="192.2460302399486" cy="102.20105994376354" r="3" fill="#22d3ee"/><path d="M 182.0376101146394 259.0221117992769 L 134.83279760539517 309.0221117992769 L 161.06745303168282 359.0221117992769" stroke="#f43f5e" fill="none" opacity="0.4"/>
                    <circle cx="182.0376101146394" cy="259.0221117992769" r="3" fill="#22d3ee"/><path d="M 1150.1046843904987 105.05796846337034 L 1108.3859698869674 155.05796846337034 L 1126.7043627240128 205.05796846337034" stroke="#f43f5e" fill="none" opacity="0.4"/>
                    <circle cx="1150.1046843904987" cy="105.05796846337034" r="3" fill="#22d3ee"/><path d="M 931.7262833405039 315.8355332499923 L 881.9442042133232 365.8355332499923 L 902.2526812324941 415.8355332499923" stroke="#f43f5e" fill="none" opacity="0.4"/>
                    <circle cx="931.7262833405039" cy="315.8355332499923" r="3" fill="#22d3ee"/><path d="M 262.75726034727995 14.71310661509051 L 255.3528625529907 64.71310661509051 L 277.5296488885033 114.71310661509051" stroke="#f43f5e" fill="none" opacity="0.4"/>
                    <circle cx="262.75726034727995" cy="14.71310661509051" r="3" fill="#22d3ee"/>
            <text x="600" y="520" font-family="Segoe UI, Arial, sans-serif" font-size="38" font-weight="800" fill="#ffffff" text-anchor="middle">Implementing Contextual Auto-Suggestions in Complex Query...</text>
            <text x="600" y="560" font-family="Segoe UI, Arial, sans-serif" font-size="16" font-weight="600" fill="#f43f5e" text-anchor="middle" style="letter-spacing: 4px; text-transform: uppercase;">UI UX Powerhouse • Specialized Series</text>
        </svg>