<svg width="1200" height="600" viewBox="0 0 1200 600" xmlns="http://www.w3.org/2000/svg">
            <rect width="1200" height="600" fill="#0f172a"/><path d="M 837.3225872866897 226.58961706292757 L 788.4897985495627 276.5896170629276 L 885.6804575582146 326.5896170629276" stroke="#38bdf8" fill="none" opacity="0.4"/>
                    <circle cx="837.3225872866897" cy="226.58961706292757" r="3" fill="#f472b6"/><path d="M 384.2564619823861 304.3313710593793 L 414.00731291541604 354.3313710593793 L 409.2423023129413 404.3313710593793" stroke="#38bdf8" fill="none" opacity="0.4"/>
                    <circle cx="384.2564619823861" cy="304.3313710593793" r="3" fill="#f472b6"/><path d="M 89.93459288903978 394.8720175165363 L 47.60655819227395 444.8720175165363 L 134.56133728022905 494.8720175165363" stroke="#38bdf8" fill="none" opacity="0.4"/>
                    <circle cx="89.93459288903978" cy="394.8720175165363" r="3" fill="#f472b6"/><path d="M 0.020641408991650678 260.8566048023931 L -29.071648897115665 310.8566048023931 L -25.830118358658183 360.8566048023931" stroke="#38bdf8" fill="none" opacity="0.4"/>
                    <circle cx="0.020641408991650678" cy="260.8566048023931" r="3" fill="#f472b6"/><path d="M 418.7594219523817 388.26638766840915 L 380.3687391665335 438.26638766840915 L 416.22272160020657 488.26638766840915" stroke="#38bdf8" fill="none" opacity="0.4"/>
                    <circle cx="418.7594219523817" cy="388.26638766840915" r="3" fill="#f472b6"/><path d="M 421.9114647756214 101.59663372760406 L 374.604705566162 151.59663372760406 L 413.61675841890246 201.59663372760406" stroke="#38bdf8" fill="none" opacity="0.4"/>
                    <circle cx="421.9114647756214" cy="101.59663372760406" r="3" fill="#f472b6"/><path d="M 395.119142877229 205.8945971497451 L 412.4204782580591 255.8945971497451 L 384.0438051289311 305.8945971497451" stroke="#38bdf8" fill="none" opacity="0.4"/>
                    <circle cx="395.119142877229" cy="205.8945971497451" r="3" fill="#f472b6"/><path d="M 552.094154535007 203.07639389511678 L 597.006954848257 253.07639389511678 L 513.3273289785848 303.0763938951168" stroke="#38bdf8" fill="none" opacity="0.4"/>
                    <circle cx="552.094154535007" cy="203.07639389511678" r="3" fill="#f472b6"/><path d="M 518.0323968543235 307.39762093362515 L 481.23495165989993 357.39762093362515 L 492.8236492020005 407.39762093362515" stroke="#38bdf8" fill="none" opacity="0.4"/>
                    <circle cx="518.0323968543235" cy="307.39762093362515" r="3" fill="#f472b6"/><path d="M 974.6911620311948 397.7107887661987 L 963.1103700603489 447.7107887661987 L 1020.2527477737931 497.7107887661987" stroke="#38bdf8" fill="none" opacity="0.4"/>
                    <circle cx="974.6911620311948" cy="397.7107887661987" r="3" fill="#f472b6"/>
            <text x="600" y="520" font-family="Segoe UI, Arial, sans-serif" font-size="38" font-weight="800" fill="#ffffff" text-anchor="middle">Implementing Dynamic Data Visualization for Real-Time Ana...</text>
            <text x="600" y="560" font-family="Segoe UI, Arial, sans-serif" font-size="16" font-weight="600" fill="#38bdf8" text-anchor="middle" style="letter-spacing: 4px; text-transform: uppercase;">UI UX Powerhouse • Specialized Series</text>
        </svg>