<svg width="1200" height="600" viewBox="0 0 1200 600" xmlns="http://www.w3.org/2000/svg">
        <rect width="1200" height="600" fill="#2e1065"/><circle cx="122.32436193917238" cy="204.84319670031255" r="18.151825344684767" fill="#d8b4fe" opacity="0.1"/><circle cx="828.4361200901913" cy="82.01966299675405" r="17.744462448754348" fill="#d8b4fe" opacity="0.1"/><circle cx="261.7706071920111" cy="133.82116124630556" r="40.46562322691898" fill="#d8b4fe" opacity="0.1"/><circle cx="1158.3716645858658" cy="256.10959372788784" r="33.98532528837677" fill="#d8b4fe" opacity="0.1"/><circle cx="339.66913516123896" cy="157.60304829309462" r="15.818786692689173" fill="#d8b4fe" opacity="0.1"/><circle cx="601.113284490566" cy="375.98460913504823" r="22.17892299639061" fill="#d8b4fe" opacity="0.1"/><circle cx="353.65378357309964" cy="342.37195463865646" r="36.151998552304576" fill="#d8b4fe" opacity="0.1"/><circle cx="1042.3938019248453" cy="371.26080777270545" r="31.44379527802812" fill="#d8b4fe" opacity="0.1"/><circle cx="920.498947073429" cy="199.3705606131698" r="10.558970475685783" fill="#d8b4fe" opacity="0.1"/><circle cx="1049.1346980763183" cy="123.91820607954287" r="11.350359762218432" fill="#d8b4fe" opacity="0.1"/><circle cx="1012.3590331852029" cy="318.31780146312667" r="48.646628331407555" fill="#d8b4fe" opacity="0.1"/><circle cx="22.52957039145258" cy="185.42972400828148" r="10.874438543833094" fill="#d8b4fe" opacity="0.1"/><circle cx="67.11910969206656" cy="149.7200003665057" r="20.25695056452605" fill="#d8b4fe" opacity="0.1"/><circle cx="179.96786409275956" cy="173.9337623337633" r="40.645191116273054" fill="#d8b4fe" opacity="0.1"/><circle cx="171.97244611525093" cy="286.3241406822908" r="24.642242140544113" fill="#d8b4fe" opacity="0.1"/><circle cx="309.43970604639617" cy="371.15046584967786" r="33.986038987495704" fill="#d8b4fe" opacity="0.1"/><circle cx="1113.7386941205477" cy="285.1047856922378" r="40.68576997772652" fill="#d8b4fe" opacity="0.1"/><circle cx="1032.0786505217256" cy="0.05268533350317739" r="16.941274068867642" fill="#d8b4fe" opacity="0.1"/><circle cx="453.5598550566647" cy="295.4944724762754" r="46.903984608579776" fill="#d8b4fe" opacity="0.1"/><circle cx="1091.5856196726963" cy="348.8686256656365" r="41.14645461017062" fill="#d8b4fe" opacity="0.1"/><circle cx="1171.9010679742496" cy="227.44338872835215" r="49.11933854153176" fill="#d8b4fe" opacity="0.1"/><circle cx="468.868787100655" cy="343.19728269038023" r="35.448287734616315" fill="#d8b4fe" opacity="0.1"/><circle cx="1107.1639140358457" cy="116.56589022168191" r="44.8063088755589" fill="#d8b4fe" opacity="0.1"/><circle cx="625.9731025806104" cy="177.7298845387122" r="39.77884596286458" fill="#d8b4fe" opacity="0.1"/><circle cx="815.3107986273426" cy="258.536233430641" r="28.587983819597866" fill="#d8b4fe" opacity="0.1"/><circle cx="1163.2091166786267" cy="120.11349520034855" r="19.21166578275006" fill="#d8b4fe" opacity="0.1"/><circle cx="101.89752430233057" cy="110.1041344449186" r="20.69544046287774" fill="#d8b4fe" opacity="0.1"/><circle cx="859.2126856444338" cy="258.3754413029965" r="36.67227877329424" fill="#d8b4fe" opacity="0.1"/><circle cx="917.2751884116224" cy="99.89408696055762" r="49.28871862961387" fill="#d8b4fe" opacity="0.1"/><circle cx="704.9436675186371" cy="71.0529115422105" r="46.563035349026904" fill="#d8b4fe" opacity="0.1"/>
        <text x="600" y="520" font-family="Segoe UI, Arial, sans-serif" font-size="38" font-weight="800" fill="#ffffff" text-anchor="middle">Implementing Custom Gesture Recognition for Enhanced Mobi...</text>
        <text x="600" y="560" font-family="Segoe UI, Arial, sans-serif" font-size="16" font-weight="600" fill="#d8b4fe" text-anchor="middle" style="letter-spacing: 4px; text-transform: uppercase;">UI UX Powerhouse • Specialized Series</text>
    </svg>