<svg width="1200" height="600" viewBox="0 0 1200 600" xmlns="http://www.w3.org/2000/svg">
            <rect width="1200" height="600" fill="#111827"/><circle cx="22.52347361500142" cy="247.08593270552228" r="42.01765748061007" fill="#10b981" opacity="0.1"/><circle cx="1035.43806865855" cy="104.68228247627849" r="45.617502767709084" fill="#10b981" opacity="0.1"/><circle cx="461.08366728002323" cy="168.40113238395134" r="10.752702628305997" fill="#10b981" opacity="0.1"/><circle cx="269.40983780950774" cy="27.49262588476995" r="32.24722242593998" fill="#10b981" opacity="0.1"/><circle cx="777.7682749147061" cy="194.47509676228947" r="21.93857315709863" fill="#10b981" opacity="0.1"/><circle cx="1107.5841036101338" cy="54.38610831479309" r="15.15102381745237" fill="#10b981" opacity="0.1"/><circle cx="1121.5013591609022" cy="72.19453777651665" r="42.17206308450841" fill="#10b981" opacity="0.1"/><circle cx="578.2896618347877" cy="196.08096586077863" r="28.569916628293868" fill="#10b981" opacity="0.1"/><circle cx="535.0683589385881" cy="369.28137966078793" r="36.79009637082345" fill="#10b981" opacity="0.1"/><circle cx="356.88432220194954" cy="269.2614998188219" r="39.414015991333144" fill="#10b981" opacity="0.1"/><circle cx="269.42829181025445" cy="258.19233278016327" r="41.83132896803727" fill="#10b981" opacity="0.1"/><circle cx="212.6503618708739" cy="92.94405212058336" r="28.7955842968222" fill="#10b981" opacity="0.1"/><circle cx="224.5465805135609" cy="163.18123880264466" r="17.84461264305719" fill="#10b981" opacity="0.1"/><circle cx="801.0086817335832" cy="175.5812454437546" r="36.152085589401395" fill="#10b981" opacity="0.1"/><circle cx="763.2924953890324" cy="7.011170466284966" r="37.498807661249884" fill="#10b981" opacity="0.1"/><circle cx="515.7365480680028" cy="353.03665668179747" r="40.344151928584324" fill="#10b981" opacity="0.1"/><circle cx="1032.9868683482346" cy="251.86793308193955" r="23.680590894364286" fill="#10b981" opacity="0.1"/><circle cx="212.4883195698203" cy="183.5529414267512" r="27.380241836826826" fill="#10b981" opacity="0.1"/><circle cx="18.470932099444326" cy="143.08773362901093" r="44.06035916406836" fill="#10b981" opacity="0.1"/><circle cx="1072.9335393672955" cy="42.277282252325676" r="17.074874586614897" fill="#10b981" opacity="0.1"/><circle cx="699.3334760700236" cy="377.8175699786516" r="22.512235797330504" fill="#10b981" opacity="0.1"/><circle cx="1027.474697269281" cy="385.888910315407" r="43.7834232525347" fill="#10b981" opacity="0.1"/><circle cx="687.6803468636354" cy="264.64539512453484" r="44.43971491527918" fill="#10b981" opacity="0.1"/><circle cx="800.8715199383005" cy="296.026865895692" r="19.23293272408955" fill="#10b981" opacity="0.1"/><circle cx="866.3005971202438" cy="196.41916973341722" r="36.8451046492919" fill="#10b981" opacity="0.1"/><circle cx="859.5154100803484" cy="131.19093191053253" r="10.137297346145715" fill="#10b981" opacity="0.1"/><circle cx="966.9507711556889" cy="279.1607042279793" r="39.903913101079524" fill="#10b981" opacity="0.1"/><circle cx="140.40229431457192" cy="370.15483207237594" r="13.171742645354243" fill="#10b981" opacity="0.1"/><circle cx="243.9586525748382" cy="365.27768252199166" r="31.650050563730474" fill="#10b981" opacity="0.1"/><circle cx="765.589935391472" cy="64.83654572584783" r="29.486762024607742" fill="#10b981" opacity="0.1"/>
            <text x="600" y="520" font-family="Segoe UI, Arial, sans-serif" font-size="38" font-weight="800" fill="#ffffff" text-anchor="middle">Implementing Responsive Data Visualization Techniques wit...</text>
            <text x="600" y="560" font-family="Segoe UI, Arial, sans-serif" font-size="16" font-weight="600" fill="#10b981" text-anchor="middle" style="letter-spacing: 4px; text-transform: uppercase;">UI UX Powerhouse • Specialized Series</text>
        </svg>