<svg width="1200" height="600" viewBox="0 0 1200 600" xmlns="http://www.w3.org/2000/svg">
        
            <rect width="1200" height="600" fill="#1e1b4b"/>
            <line x1="26.772418039035983" y1="236.7596149793826" x2="1098.6816330314468" y2="397.4941831049364" stroke="#f43f5e" stroke-width="0.5" opacity="0.4"/><line x1="26.772418039035983" y1="236.7596149793826" x2="971.9075819241311" y2="133.7144961186823" stroke="#f43f5e" stroke-width="0.5" opacity="0.4"/><line x1="26.772418039035983" y1="236.7596149793826" x2="872.91534811975" y2="383.14928339314065" stroke="#f43f5e" stroke-width="0.5" opacity="0.4"/><line x1="1094.4823305828322" y1="280.0865081131633" x2="320.54556922157644" y2="26.89537109044977" stroke="#f43f5e" stroke-width="0.5" opacity="0.4"/><line x1="1094.4823305828322" y1="280.0865081131633" x2="133.62847340358712" y2="187.51013158826026" stroke="#f43f5e" stroke-width="0.5" opacity="0.4"/><line x1="1181.0712884755048" y1="19.48695584160305" x2="971.9075819241311" y2="133.7144961186823" stroke="#f43f5e" stroke-width="0.5" opacity="0.4"/><line x1="1098.6816330314468" y1="397.4941831049364" x2="335.8498129738791" y2="261.3571563406367" stroke="#f43f5e" stroke-width="0.5" opacity="0.4"/><line x1="1098.6816330314468" y1="397.4941831049364" x2="397.86666681720817" y2="43.2309373478347" stroke="#f43f5e" stroke-width="0.5" opacity="0.4"/><line x1="1098.6816330314468" y1="397.4941831049364" x2="811.1383667837799" y2="20.123518150649033" stroke="#f43f5e" stroke-width="0.5" opacity="0.4"/><line x1="1098.6816330314468" y1="397.4941831049364" x2="133.62847340358712" y2="187.51013158826026" stroke="#f43f5e" stroke-width="0.5" opacity="0.4"/><line x1="320.54556922157644" y1="26.89537109044977" x2="971.9075819241311" y2="133.7144961186823" stroke="#f43f5e" stroke-width="0.5" opacity="0.4"/><line x1="320.54556922157644" y1="26.89537109044977" x2="872.91534811975" y2="383.14928339314065" stroke="#f43f5e" stroke-width="0.5" opacity="0.4"/><line x1="971.9075819241311" y1="133.7144961186823" x2="397.86666681720817" y2="43.2309373478347" stroke="#f43f5e" stroke-width="0.5" opacity="0.4"/><line x1="971.9075819241311" y1="133.7144961186823" x2="133.62847340358712" y2="187.51013158826026" stroke="#f43f5e" stroke-width="0.5" opacity="0.4"/><line x1="980.4411918230471" y1="380.89462656243995" x2="397.86666681720817" y2="43.2309373478347" stroke="#f43f5e" stroke-width="0.5" opacity="0.4"/><line x1="811.1383667837799" y1="20.123518150649033" x2="133.62847340358712" y2="187.51013158826026" stroke="#f43f5e" stroke-width="0.5" opacity="0.4"/><line x1="872.91534811975" y1="383.14928339314065" x2="133.62847340358712" y2="187.51013158826026" stroke="#f43f5e" stroke-width="0.5" opacity="0.4"/>
            <circle cx="26.772418039035983" cy="236.7596149793826" r="2.615683814357908" fill="#22d3ee" opacity="0.6"/><circle cx="1094.4823305828322" cy="280.0865081131633" r="2.579648074497527" fill="#22d3ee" opacity="0.6"/><circle cx="1181.0712884755048" cy="19.48695584160305" r="5.575571437118924" fill="#22d3ee" opacity="0.6"/><circle cx="1098.6816330314468" cy="397.4941831049364" r="3.9237814616608375" fill="#22d3ee" opacity="0.6"/><circle cx="335.8498129738791" cy="261.3571563406367" r="2.2759058553101568" fill="#22d3ee" opacity="0.6"/><circle cx="320.54556922157644" cy="26.89537109044977" r="5.481213682323869" fill="#22d3ee" opacity="0.6"/><circle cx="971.9075819241311" cy="133.7144961186823" r="4.389989359522588" fill="#22d3ee" opacity="0.6"/><circle cx="980.4411918230471" cy="380.89462656243995" r="5.202146145717961" fill="#22d3ee" opacity="0.6"/><circle cx="397.86666681720817" cy="43.2309373478347" r="3.221898104835418" fill="#22d3ee" opacity="0.6"/><circle cx="811.1383667837799" cy="20.123518150649033" r="5.567417235230096" fill="#22d3ee" opacity="0.6"/><circle cx="872.91534811975" cy="383.14928339314065" r="3.735755528352456" fill="#22d3ee" opacity="0.6"/><circle cx="133.62847340358712" cy="187.51013158826026" r="4.1223386715391825" fill="#22d3ee" opacity="0.6"/>
        
        <text x="600" y="520" font-family="Segoe UI, Arial, sans-serif" font-size="38" font-weight="800" fill="#ffffff" text-anchor="middle">Implementing Advanced Focus Management Techniques for Key...</text>
        <text x="600" y="560" font-family="Segoe UI, Arial, sans-serif" font-size="16" font-weight="600" fill="#f43f5e" text-anchor="middle" style="letter-spacing: 4px; text-transform: uppercase;">UI UX Powerhouse • Intelligence in Design</text>
    </svg>