<svg width="1200" height="600" viewBox="0 0 1200 600" xmlns="http://www.w3.org/2000/svg">
        <rect width="1200" height="600" fill="#0c4a6e"/><circle cx="211.54666611546418" cy="122.74183470835851" r="26.785048569763603" fill="#7dd3fc" opacity="0.1"/><circle cx="540.8393946005162" cy="181.78018587968836" r="30.68720795574336" fill="#7dd3fc" opacity="0.1"/><circle cx="926.4050813879294" cy="271.9968971752678" r="43.52899708050245" fill="#7dd3fc" opacity="0.1"/><circle cx="92.30498977121897" cy="54.99470376817044" r="21.4395556243835" fill="#7dd3fc" opacity="0.1"/><circle cx="286.26911443352583" cy="192.5275467649044" r="10.391358801643946" fill="#7dd3fc" opacity="0.1"/><circle cx="156.2395655997534" cy="151.1472417460027" r="24.655763828905037" fill="#7dd3fc" opacity="0.1"/><circle cx="621.1668424275558" cy="123.27961640476133" r="31.010564341922873" fill="#7dd3fc" opacity="0.1"/><circle cx="1.448494083888363" cy="259.36135958381783" r="22.776326610764954" fill="#7dd3fc" opacity="0.1"/><circle cx="755.6565010156191" cy="24.401299254896003" r="16.673489318145585" fill="#7dd3fc" opacity="0.1"/><circle cx="599.0385202629568" cy="143.26423572065323" r="27.417170373296358" fill="#7dd3fc" opacity="0.1"/><circle cx="1151.7739730174071" cy="77.18749977211701" r="45.34718075865385" fill="#7dd3fc" opacity="0.1"/><circle cx="1118.1121943307517" cy="79.55527571393759" r="26.459958171071776" fill="#7dd3fc" opacity="0.1"/><circle cx="29.884381526790094" cy="70.0220474280286" r="25.669663180924545" fill="#7dd3fc" opacity="0.1"/><circle cx="971.1829419766218" cy="164.5541149089695" r="47.746075833129" fill="#7dd3fc" opacity="0.1"/><circle cx="349.5754269155441" cy="174.65093895061727" r="29.193194515155483" fill="#7dd3fc" opacity="0.1"/><circle cx="728.2357417578169" cy="98.70266288926359" r="34.339423553683446" fill="#7dd3fc" opacity="0.1"/><circle cx="440.3277501667617" cy="218.39342519378988" r="31.127650381968124" fill="#7dd3fc" opacity="0.1"/><circle cx="503.07327142172653" cy="14.247527449333575" r="47.179715542406484" fill="#7dd3fc" opacity="0.1"/><circle cx="975.2351536206504" cy="54.45232119454886" r="46.23775654785277" fill="#7dd3fc" opacity="0.1"/><circle cx="505.30230242511607" cy="144.5592173946352" r="15.680004255300446" fill="#7dd3fc" opacity="0.1"/><circle cx="383.3134865286411" cy="89.22946071288607" r="26.037930091260932" fill="#7dd3fc" opacity="0.1"/><circle cx="920.2492066149716" cy="348.23284756384965" r="23.662401001220132" fill="#7dd3fc" opacity="0.1"/><circle cx="977.2157114119182" cy="112.55814838441438" r="42.29398032264726" fill="#7dd3fc" opacity="0.1"/><circle cx="802.412745766469" cy="306.438950037591" r="23.871211449400107" fill="#7dd3fc" opacity="0.1"/><circle cx="325.91467703259696" cy="260.01782252023986" r="25.91308927017053" fill="#7dd3fc" opacity="0.1"/><circle cx="984.4005265884334" cy="68.19108959989535" r="18.744527626331546" fill="#7dd3fc" opacity="0.1"/><circle cx="1144.4586852114298" cy="195.3737155534327" r="25.370905379095348" fill="#7dd3fc" opacity="0.1"/><circle cx="466.7984541501937" cy="219.5647822420142" r="31.96560188633157" fill="#7dd3fc" opacity="0.1"/><circle cx="30.61569648668865" cy="106.89358295385318" r="12.589235624109278" fill="#7dd3fc" opacity="0.1"/><circle cx="1127.6131133456147" cy="359.20674225344555" r="27.423214758891845" fill="#7dd3fc" opacity="0.1"/>
        <text x="600" y="520" font-family="Segoe UI, Arial, sans-serif" font-size="38" font-weight="800" fill="#ffffff" text-anchor="middle">Implementing AR-Enhanced User Interfaces for Data Visuali...</text>
        <text x="600" y="560" font-family="Segoe UI, Arial, sans-serif" font-size="16" font-weight="600" fill="#7dd3fc" text-anchor="middle" style="letter-spacing: 4px; text-transform: uppercase;">UI UX Powerhouse • Specialized Series</text>
    </svg>