<svg width="1200" height="600" viewBox="0 0 1200 600" xmlns="http://www.w3.org/2000/svg">
            <rect width="1200" height="600" fill="#1e1b4b"/><circle cx="163.31295641575707" cy="192.27644849743228" r="18.925226805295097" fill="#f43f5e" opacity="0.1"/><circle cx="184.9595928955921" cy="310.17996984010097" r="27.68740278450423" fill="#f43f5e" opacity="0.1"/><circle cx="1004.8518902131036" cy="399.7004872751859" r="21.19344012666261" fill="#f43f5e" opacity="0.1"/><circle cx="532.8098276241917" cy="20.824159089534078" r="41.54511798900785" fill="#f43f5e" opacity="0.1"/><circle cx="833.399231437943" cy="184.22216550570738" r="46.220901381584554" fill="#f43f5e" opacity="0.1"/><circle cx="1010.7556272268994" cy="195.28593595932762" r="26.491519360424718" fill="#f43f5e" opacity="0.1"/><circle cx="1144.9703365349706" cy="171.4808312462992" r="35.51954582137114" fill="#f43f5e" opacity="0.1"/><circle cx="60.77199593801197" cy="136.93539831292583" r="48.833022624021396" fill="#f43f5e" opacity="0.1"/><circle cx="268.1588473777083" cy="197.54090870410437" r="33.72307132023707" fill="#f43f5e" opacity="0.1"/><circle cx="458.5220736946212" cy="10.17973656344111" r="24.507259952224558" fill="#f43f5e" opacity="0.1"/><circle cx="359.9359925033923" cy="327.6977089692082" r="38.082875542249894" fill="#f43f5e" opacity="0.1"/><circle cx="923.142457621725" cy="123.17908948025433" r="31.2049387213483" fill="#f43f5e" opacity="0.1"/><circle cx="380.4723688248487" cy="80.14307481062133" r="45.42689121262811" fill="#f43f5e" opacity="0.1"/><circle cx="1023.9833602274302" cy="58.14560921244265" r="32.41154350416764" fill="#f43f5e" opacity="0.1"/><circle cx="1155.6862087668378" cy="30.93950465990929" r="46.29663459792937" fill="#f43f5e" opacity="0.1"/><circle cx="975.5009826309106" cy="90.76993251983367" r="14.286693318354082" fill="#f43f5e" opacity="0.1"/><circle cx="904.8986844318279" cy="159.085768839941" r="48.48552200128324" fill="#f43f5e" opacity="0.1"/><circle cx="83.20873308912269" cy="36.771668173969374" r="15.706204505404457" fill="#f43f5e" opacity="0.1"/><circle cx="585.2485985902604" cy="119.51977545686532" r="28.309262607217534" fill="#f43f5e" opacity="0.1"/><circle cx="269.356085497202" cy="395.20788335494217" r="43.2217971152204" fill="#f43f5e" opacity="0.1"/><circle cx="283.2985093482421" cy="18.448032339438214" r="22.361675409119925" fill="#f43f5e" opacity="0.1"/><circle cx="629.5639031523024" cy="189.3168673481341" r="45.11356478491507" fill="#f43f5e" opacity="0.1"/><circle cx="311.96645882919256" cy="91.88017327251146" r="36.71596355037764" fill="#f43f5e" opacity="0.1"/><circle cx="798.880118226225" cy="106.74180964524567" r="35.53176858538791" fill="#f43f5e" opacity="0.1"/><circle cx="601.1743990638934" cy="336.2514161170111" r="26.667630454285245" fill="#f43f5e" opacity="0.1"/><circle cx="380.5750888430339" cy="298.90846778289415" r="30.020780380746146" fill="#f43f5e" opacity="0.1"/><circle cx="872.5776065515674" cy="194.05980267947598" r="32.41369359748205" fill="#f43f5e" opacity="0.1"/><circle cx="539.0009761180409" cy="46.285300928138895" r="19.881781896474422" fill="#f43f5e" opacity="0.1"/><circle cx="1187.3216382024111" cy="123.65596684394404" r="47.562774993421044" fill="#f43f5e" opacity="0.1"/><circle cx="956.4447002121597" cy="228.15814078276162" r="35.69182108996756" fill="#f43f5e" opacity="0.1"/>
            <text x="600" y="520" font-family="Segoe UI, Arial, sans-serif" font-size="38" font-weight="800" fill="#ffffff" text-anchor="middle">Implementing Role-based Access Control in Web Application...</text>
            <text x="600" y="560" font-family="Segoe UI, Arial, sans-serif" font-size="16" font-weight="600" fill="#f43f5e" text-anchor="middle" style="letter-spacing: 4px; text-transform: uppercase;">UI UX Powerhouse • Specialized Series</text>
        </svg>