<svg width="1200" height="600" viewBox="0 0 1200 600" xmlns="http://www.w3.org/2000/svg">
            <rect width="1200" height="600" fill="#111827"/><circle cx="376.6397365525336" cy="139.38082914519327" r="16.2321770833546" fill="#10b981" opacity="0.1"/><circle cx="1169.3100062224403" cy="199.37114031308738" r="14.474630119948415" fill="#10b981" opacity="0.1"/><circle cx="465.92357203771826" cy="66.09782489376812" r="26.487142824480543" fill="#10b981" opacity="0.1"/><circle cx="242.06157405460544" cy="134.3095816206187" r="44.76171724698361" fill="#10b981" opacity="0.1"/><circle cx="132.561209695632" cy="286.07415625065187" r="30.41449603086221" fill="#10b981" opacity="0.1"/><circle cx="491.41950416887994" cy="259.54324490521685" r="35.82544019744091" fill="#10b981" opacity="0.1"/><circle cx="397.58562114002416" cy="271.1011373576184" r="44.48038122483922" fill="#10b981" opacity="0.1"/><circle cx="174.2346859529789" cy="303.1834129928029" r="20.762959519834112" fill="#10b981" opacity="0.1"/><circle cx="1146.6342326355516" cy="203.37533509446075" r="15.453152306472475" fill="#10b981" opacity="0.1"/><circle cx="1156.7765487750876" cy="68.49953745077073" r="20.5748861142456" fill="#10b981" opacity="0.1"/><circle cx="127.20971392045612" cy="297.48811027093325" r="39.879393774826895" fill="#10b981" opacity="0.1"/><circle cx="895.1270889556326" cy="27.20136275020195" r="32.75349100949825" fill="#10b981" opacity="0.1"/><circle cx="550.9102247266128" cy="321.58831654815003" r="13.943852579031955" fill="#10b981" opacity="0.1"/><circle cx="548.715422864916" cy="376.3359439013584" r="45.85327781729575" fill="#10b981" opacity="0.1"/><circle cx="341.41912818104174" cy="45.92973918297503" r="19.869899043624173" fill="#10b981" opacity="0.1"/><circle cx="14.752192714331613" cy="169.22445428281208" r="11.594694455852732" fill="#10b981" opacity="0.1"/><circle cx="422.03793231237796" cy="226.96336823119054" r="35.46118764505081" fill="#10b981" opacity="0.1"/><circle cx="691.1544101727486" cy="65.92982795104945" r="26.362128743567155" fill="#10b981" opacity="0.1"/><circle cx="844.6811476555013" cy="108.86013525887392" r="46.600151064485544" fill="#10b981" opacity="0.1"/><circle cx="879.2439771241334" cy="295.26689521317167" r="25.709574846332544" fill="#10b981" opacity="0.1"/><circle cx="250.38817250133434" cy="234.65271278328146" r="28.11650643565372" fill="#10b981" opacity="0.1"/><circle cx="386.10487821097195" cy="347.1828140412981" r="47.98909958664808" fill="#10b981" opacity="0.1"/><circle cx="807.0603525084152" cy="254.61795804294525" r="44.141134890051035" fill="#10b981" opacity="0.1"/><circle cx="339.78133039599925" cy="238.74480484155356" r="30.767604186330573" fill="#10b981" opacity="0.1"/><circle cx="574.3205897524604" cy="45.32148385151231" r="33.52508379601204" fill="#10b981" opacity="0.1"/><circle cx="779.1321546961626" cy="176.35966225061566" r="39.56672440678631" fill="#10b981" opacity="0.1"/><circle cx="857.9647961454612" cy="138.8226548956368" r="48.1926839523112" fill="#10b981" opacity="0.1"/><circle cx="216.0132512479322" cy="143.97532806615345" r="34.17565391926473" fill="#10b981" opacity="0.1"/><circle cx="576.6751325267251" cy="319.9687084837933" r="38.204799430968706" fill="#10b981" opacity="0.1"/><circle cx="224.15484076336725" cy="378.1434025702765" r="25.52865142988594" fill="#10b981" opacity="0.1"/>
            <text x="600" y="520" font-family="Segoe UI, Arial, sans-serif" font-size="38" font-weight="800" fill="#ffffff" text-anchor="middle">Implementing Accessible Data Visualization for Complex Da...</text>
            <text x="600" y="560" font-family="Segoe UI, Arial, sans-serif" font-size="16" font-weight="600" fill="#10b981" text-anchor="middle" style="letter-spacing: 4px; text-transform: uppercase;">UI UX Powerhouse • Specialized Series</text>
        </svg>