<svg width="1200" height="600" viewBox="0 0 1200 600" xmlns="http://www.w3.org/2000/svg">
        
            <rect width="1200" height="600" fill="#f8fafc"/>
            <rect x="100" y="100" width="1000" height="350" rx="10" fill="#ffffff" stroke="#e2e8f0"/>
            <rect x="150" y="199.96402651268" width="50" height="200.03597348732" fill="#94a3b8" rx="4"/><rect x="220.83333333333331" y="317.88155653266585" width="50" height="82.11844346733415" fill="#94a3b8" rx="4"/><rect x="291.66666666666663" y="213.50664264682564" width="50" height="186.49335735317436" fill="#94a3b8" rx="4"/><rect x="362.5" y="160.9641237591859" width="50" height="239.0358762408141" fill="#94a3b8" rx="4"/><rect x="433.3333333333333" y="201.59221374678964" width="50" height="198.40778625321036" fill="#94a3b8" rx="4"/><rect x="504.16666666666663" y="245.02669455541763" width="50" height="154.97330544458237" fill="#94a3b8" rx="4"/><rect x="575" y="334.7008104730776" width="50" height="65.29918952692242" fill="#94a3b8" rx="4"/><rect x="645.8333333333333" y="245.71292191376415" width="50" height="154.28707808623585" fill="#94a3b8" rx="4"/><rect x="716.6666666666666" y="172.7671967162678" width="50" height="227.2328032837322" fill="#94a3b8" rx="4"/><rect x="787.5" y="254.2085807388503" width="50" height="145.7914192611497" fill="#94a3b8" rx="4"/><rect x="858.3333333333333" y="290.7824576486746" width="50" height="109.21754235132539" fill="#94a3b8" rx="4"/><rect x="929.1666666666666" y="175.75263094458933" width="50" height="224.24736905541067" fill="#94a3b8" rx="4"/>
        
        <text x="600" y="520" font-family="Segoe UI, Arial" font-size="38" font-weight="800" fill="#f8fafc" text-anchor="middle">Implementing Multimodal Gesture Recognition in Web Applic...</text>
    </svg>