<svg width="1200" height="600" viewBox="0 0 1200 600" xmlns="http://www.w3.org/2000/svg">
            <rect width="1200" height="600" fill="#0c4a6e"/><rect x="150" y="298.6718861551708" width="60" height="51.328113844829204" fill="#7dd3fc" opacity="0.6"/>
                    <rect x="170" y="278.6718861551708" width="60" height="51.328113844829204" fill="#38bdf8" opacity="0.4" transform="skewY(-20)"/><rect x="270" y="181.55116209363769" width="60" height="168.44883790636231" fill="#7dd3fc" opacity="0.6"/>
                    <rect x="290" y="161.55116209363769" width="60" height="168.44883790636231" fill="#38bdf8" opacity="0.4" transform="skewY(-20)"/><rect x="390" y="163.0908529532462" width="60" height="186.9091470467538" fill="#7dd3fc" opacity="0.6"/>
                    <rect x="410" y="143.0908529532462" width="60" height="186.9091470467538" fill="#38bdf8" opacity="0.4" transform="skewY(-20)"/><rect x="510" y="110.24490827148838" width="60" height="239.75509172851162" fill="#7dd3fc" opacity="0.6"/>
                    <rect x="530" y="90.24490827148838" width="60" height="239.75509172851162" fill="#38bdf8" opacity="0.4" transform="skewY(-20)"/><rect x="630" y="120.92078211167063" width="60" height="229.07921788832937" fill="#7dd3fc" opacity="0.6"/>
                    <rect x="650" y="100.92078211167063" width="60" height="229.07921788832937" fill="#38bdf8" opacity="0.4" transform="skewY(-20)"/><rect x="750" y="102.87114493412446" width="60" height="247.12885506587554" fill="#7dd3fc" opacity="0.6"/>
                    <rect x="770" y="82.87114493412446" width="60" height="247.12885506587554" fill="#38bdf8" opacity="0.4" transform="skewY(-20)"/><rect x="870" y="230.5524367153339" width="60" height="119.4475632846661" fill="#7dd3fc" opacity="0.6"/>
                    <rect x="890" y="210.5524367153339" width="60" height="119.4475632846661" fill="#38bdf8" opacity="0.4" transform="skewY(-20)"/><rect x="990" y="238.45091920184132" width="60" height="111.54908079815868" fill="#7dd3fc" opacity="0.6"/>
                    <rect x="1010" y="218.45091920184132" width="60" height="111.54908079815868" fill="#38bdf8" opacity="0.4" transform="skewY(-20)"/>
            <text x="600" y="520" font-family="Segoe UI, Arial, sans-serif" font-size="38" font-weight="800" fill="#ffffff" text-anchor="middle">Implementing Role-Based Accessibility Features in Web App...</text>
            <text x="600" y="560" font-family="Segoe UI, Arial, sans-serif" font-size="16" font-weight="600" fill="#7dd3fc" text-anchor="middle" style="letter-spacing: 4px; text-transform: uppercase;">UI UX Powerhouse • Specialized Series</text>
        </svg>