<svg width="1200" height="600" viewBox="0 0 1200 600" xmlns="http://www.w3.org/2000/svg">
        
            <rect width="1200" height="600" fill="#78350f"/>
            <g opacity="0.3">
                <line x1="653.8913778287679" y1="295.43313573740306" x2="578.4132903056616" y2="133.91853261528013" stroke="#fbbf24" stroke-width="1"/><line x1="653.8913778287679" y1="295.43313573740306" x2="691.1823213116463" y2="369.3563009099307" stroke="#fbbf24" stroke-width="1"/><line x1="653.8913778287679" y1="295.43313573740306" x2="673.6730724165682" y2="371.693205586962" stroke="#fbbf24" stroke-width="1"/><line x1="653.8913778287679" y1="295.43313573740306" x2="764.0577445118197" y2="219.19953454544157" stroke="#fbbf24" stroke-width="1"/><line x1="653.8913778287679" y1="295.43313573740306" x2="722.0511570838426" y2="307.0599257473077" stroke="#fbbf24" stroke-width="1"/><line x1="653.8913778287679" y1="295.43313573740306" x2="678.344520540486" y2="377.6544514995294" stroke="#fbbf24" stroke-width="1"/><line x1="653.8913778287679" y1="295.43313573740306" x2="515.6908331035083" y2="287.15119158841844" stroke="#fbbf24" stroke-width="1"/><line x1="653.8913778287679" y1="295.43313573740306" x2="340.98136279699247" y2="283.1868903035911" stroke="#fbbf24" stroke-width="1"/><line x1="653.8913778287679" y1="295.43313573740306" x2="722.3076882972236" y2="132.88342563027982" stroke="#fbbf24" stroke-width="1"/><line x1="653.8913778287679" y1="295.43313573740306" x2="631.137474501702" y2="346.11288249780046" stroke="#fbbf24" stroke-width="1"/><line x1="578.4132903056616" y1="133.91853261528013" x2="691.1823213116463" y2="369.3563009099307" stroke="#fbbf24" stroke-width="1"/><line x1="578.4132903056616" y1="133.91853261528013" x2="673.6730724165682" y2="371.693205586962" stroke="#fbbf24" stroke-width="1"/><line x1="578.4132903056616" y1="133.91853261528013" x2="764.0577445118197" y2="219.19953454544157" stroke="#fbbf24" stroke-width="1"/><line x1="578.4132903056616" y1="133.91853261528013" x2="722.0511570838426" y2="307.0599257473077" stroke="#fbbf24" stroke-width="1"/><line x1="578.4132903056616" y1="133.91853261528013" x2="678.344520540486" y2="377.6544514995294" stroke="#fbbf24" stroke-width="1"/><line x1="578.4132903056616" y1="133.91853261528013" x2="515.6908331035083" y2="287.15119158841844" stroke="#fbbf24" stroke-width="1"/><line x1="578.4132903056616" y1="133.91853261528013" x2="340.98136279699247" y2="283.1868903035911" stroke="#fbbf24" stroke-width="1"/><line x1="578.4132903056616" y1="133.91853261528013" x2="722.3076882972236" y2="132.88342563027982" stroke="#fbbf24" stroke-width="1"/><line x1="578.4132903056616" y1="133.91853261528013" x2="631.137474501702" y2="346.11288249780046" stroke="#fbbf24" stroke-width="1"/><line x1="691.1823213116463" y1="369.3563009099307" x2="673.6730724165682" y2="371.693205586962" stroke="#fbbf24" stroke-width="1"/><line x1="691.1823213116463" y1="369.3563009099307" x2="764.0577445118197" y2="219.19953454544157" stroke="#fbbf24" stroke-width="1"/><line x1="691.1823213116463" y1="369.3563009099307" x2="722.0511570838426" y2="307.0599257473077" stroke="#fbbf24" stroke-width="1"/><line x1="691.1823213116463" y1="369.3563009099307" x2="678.344520540486" y2="377.6544514995294" stroke="#fbbf24" stroke-width="1"/><line x1="691.1823213116463" y1="369.3563009099307" x2="515.6908331035083" y2="287.15119158841844" stroke="#fbbf24" stroke-width="1"/><line x1="691.1823213116463" y1="369.3563009099307" x2="340.98136279699247" y2="283.1868903035911" stroke="#fbbf24" stroke-width="1"/><line x1="691.1823213116463" y1="369.3563009099307" x2="722.3076882972236" y2="132.88342563027982" stroke="#fbbf24" stroke-width="1"/><line x1="691.1823213116463" y1="369.3563009099307" x2="631.137474501702" y2="346.11288249780046" stroke="#fbbf24" stroke-width="1"/><line x1="673.6730724165682" y1="371.693205586962" x2="764.0577445118197" y2="219.19953454544157" stroke="#fbbf24" stroke-width="1"/><line x1="673.6730724165682" y1="371.693205586962" x2="722.0511570838426" y2="307.0599257473077" stroke="#fbbf24" stroke-width="1"/><line x1="673.6730724165682" y1="371.693205586962" x2="678.344520540486" y2="377.6544514995294" stroke="#fbbf24" stroke-width="1"/><line x1="673.6730724165682" y1="371.693205586962" x2="515.6908331035083" y2="287.15119158841844" stroke="#fbbf24" stroke-width="1"/><line x1="673.6730724165682" y1="371.693205586962" x2="340.98136279699247" y2="283.1868903035911" stroke="#fbbf24" stroke-width="1"/><line x1="673.6730724165682" y1="371.693205586962" x2="722.3076882972236" y2="132.88342563027982" stroke="#fbbf24" stroke-width="1"/><line x1="673.6730724165682" y1="371.693205586962" x2="631.137474501702" y2="346.11288249780046" stroke="#fbbf24" stroke-width="1"/><line x1="764.0577445118197" y1="219.19953454544157" x2="722.0511570838426" y2="307.0599257473077" stroke="#fbbf24" stroke-width="1"/><line x1="764.0577445118197" y1="219.19953454544157" x2="678.344520540486" y2="377.6544514995294" stroke="#fbbf24" stroke-width="1"/><line x1="764.0577445118197" y1="219.19953454544157" x2="515.6908331035083" y2="287.15119158841844" stroke="#fbbf24" stroke-width="1"/><line x1="764.0577445118197" y1="219.19953454544157" x2="340.98136279699247" y2="283.1868903035911" stroke="#fbbf24" stroke-width="1"/><line x1="764.0577445118197" y1="219.19953454544157" x2="722.3076882972236" y2="132.88342563027982" stroke="#fbbf24" stroke-width="1"/><line x1="764.0577445118197" y1="219.19953454544157" x2="631.137474501702" y2="346.11288249780046" stroke="#fbbf24" stroke-width="1"/><line x1="722.0511570838426" y1="307.0599257473077" x2="678.344520540486" y2="377.6544514995294" stroke="#fbbf24" stroke-width="1"/><line x1="722.0511570838426" y1="307.0599257473077" x2="515.6908331035083" y2="287.15119158841844" stroke="#fbbf24" stroke-width="1"/><line x1="722.0511570838426" y1="307.0599257473077" x2="340.98136279699247" y2="283.1868903035911" stroke="#fbbf24" stroke-width="1"/><line x1="722.0511570838426" y1="307.0599257473077" x2="722.3076882972236" y2="132.88342563027982" stroke="#fbbf24" stroke-width="1"/><line x1="722.0511570838426" y1="307.0599257473077" x2="631.137474501702" y2="346.11288249780046" stroke="#fbbf24" stroke-width="1"/><line x1="678.344520540486" y1="377.6544514995294" x2="515.6908331035083" y2="287.15119158841844" stroke="#fbbf24" stroke-width="1"/><line x1="678.344520540486" y1="377.6544514995294" x2="340.98136279699247" y2="283.1868903035911" stroke="#fbbf24" stroke-width="1"/><line x1="678.344520540486" y1="377.6544514995294" x2="722.3076882972236" y2="132.88342563027982" stroke="#fbbf24" stroke-width="1"/><line x1="678.344520540486" y1="377.6544514995294" x2="631.137474501702" y2="346.11288249780046" stroke="#fbbf24" stroke-width="1"/><line x1="515.6908331035083" y1="287.15119158841844" x2="340.98136279699247" y2="283.1868903035911" stroke="#fbbf24" stroke-width="1"/><line x1="515.6908331035083" y1="287.15119158841844" x2="722.3076882972236" y2="132.88342563027982" stroke="#fbbf24" stroke-width="1"/><line x1="515.6908331035083" y1="287.15119158841844" x2="631.137474501702" y2="346.11288249780046" stroke="#fbbf24" stroke-width="1"/><line x1="340.98136279699247" y1="283.1868903035911" x2="722.3076882972236" y2="132.88342563027982" stroke="#fbbf24" stroke-width="1"/><line x1="340.98136279699247" y1="283.1868903035911" x2="631.137474501702" y2="346.11288249780046" stroke="#fbbf24" stroke-width="1"/><line x1="722.3076882972236" y1="132.88342563027982" x2="631.137474501702" y2="346.11288249780046" stroke="#fbbf24" stroke-width="1"/>
            </g>
            <circle cx="653.8913778287679" cy="295.43313573740306" r="6.983846122122486" fill="#fbbf24"/><circle cx="578.4132903056616" cy="133.91853261528013" r="7.317794838585542" fill="#fbbf24"/><circle cx="691.1823213116463" cy="369.3563009099307" r="7.1267023717664415" fill="#fbbf24"/><circle cx="673.6730724165682" cy="371.693205586962" r="8.521953442315862" fill="#fbbf24"/><circle cx="764.0577445118197" cy="219.19953454544157" r="5.048755384719698" fill="#fbbf24"/><circle cx="722.0511570838426" cy="307.0599257473077" r="4.600789253949188" fill="#fbbf24"/><circle cx="678.344520540486" cy="377.6544514995294" r="11.37541470247379" fill="#fbbf24"/><circle cx="515.6908331035083" cy="287.15119158841844" r="9.801955279587673" fill="#fbbf24"/><circle cx="340.98136279699247" cy="283.1868903035911" r="6.205877395681455" fill="#fbbf24"/><circle cx="722.3076882972236" cy="132.88342563027982" r="5.113266446690204" fill="#fbbf24"/><circle cx="631.137474501702" cy="346.11288249780046" r="8.444503520477156" fill="#fbbf24"/>
        
        <text x="600" y="520" font-family="Segoe UI, Arial" font-size="38" font-weight="800" fill="#f8fafc" text-anchor="middle">Implementing Custom Gesture-Based Navigation for Data-Hea...</text>
    </svg>