<svg width="1200" height="600" viewBox="0 0 1200 600" xmlns="http://www.w3.org/2000/svg">
            <rect width="1200" height="600" fill="#171717"/><path d="M 1055.1394600181084 101.49434568047582 L 1067.9181019413136 151.49434568047582 L 1025.1829515424106 201.49434568047582" stroke="#f59e0b" fill="none" opacity="0.4"/>
                    <circle cx="1055.1394600181084" cy="101.49434568047582" r="3" fill="#ec4899"/><path d="M 940.0448999944274 129.8055314058729 L 904.2333097974733 179.8055314058729 L 963.892579165622 229.8055314058729" stroke="#f59e0b" fill="none" opacity="0.4"/>
                    <circle cx="940.0448999944274" cy="129.8055314058729" r="3" fill="#ec4899"/><path d="M 636.2167379214952 362.2962054276286 L 648.6662900813826 412.2962054276286 L 610.1146120772228 462.2962054276286" stroke="#f59e0b" fill="none" opacity="0.4"/>
                    <circle cx="636.2167379214952" cy="362.2962054276286" r="3" fill="#ec4899"/><path d="M 193.67985203207354 33.33693611330091 L 147.34126033235952 83.33693611330091 L 227.13078317938198 133.3369361133009" stroke="#f59e0b" fill="none" opacity="0.4"/>
                    <circle cx="193.67985203207354" cy="33.33693611330091" r="3" fill="#ec4899"/><path d="M 447.1629693001887 186.17913171929104 L 472.4561697928948 236.17913171929104 L 434.55036176219437 286.17913171929104" stroke="#f59e0b" fill="none" opacity="0.4"/>
                    <circle cx="447.1629693001887" cy="186.17913171929104" r="3" fill="#ec4899"/><path d="M 773.8829671186977 367.1359302548808 L 768.2435145452473 417.1359302548808 L 724.9428749149956 467.1359302548808" stroke="#f59e0b" fill="none" opacity="0.4"/>
                    <circle cx="773.8829671186977" cy="367.1359302548808" r="3" fill="#ec4899"/><path d="M 341.3153295281518 271.6296300194358 L 373.6259881186925 321.6296300194358 L 376.629744861566 371.6296300194358" stroke="#f59e0b" fill="none" opacity="0.4"/>
                    <circle cx="341.3153295281518" cy="271.6296300194358" r="3" fill="#ec4899"/><path d="M 355.1815295020788 106.71723868181289 L 327.8955714890799 156.7172386818129 L 382.9516168027112 206.7172386818129" stroke="#f59e0b" fill="none" opacity="0.4"/>
                    <circle cx="355.1815295020788" cy="106.71723868181289" r="3" fill="#ec4899"/><path d="M 762.8655542495835 379.24839660408907 L 811.7399165543247 429.24839660408907 L 727.785754582419 479.24839660408907" stroke="#f59e0b" fill="none" opacity="0.4"/>
                    <circle cx="762.8655542495835" cy="379.24839660408907" r="3" fill="#ec4899"/><path d="M 963.4018928441947 88.54369748742101 L 957.9959838763898 138.543697487421 L 931.8014543899153 188.543697487421" stroke="#f59e0b" fill="none" opacity="0.4"/>
                    <circle cx="963.4018928441947" cy="88.54369748742101" r="3" fill="#ec4899"/>
            <text x="600" y="520" font-family="Segoe UI, Arial, sans-serif" font-size="38" font-weight="800" fill="#ffffff" text-anchor="middle">Implementing Machine Learning-Based Personalization for E...</text>
            <text x="600" y="560" font-family="Segoe UI, Arial, sans-serif" font-size="16" font-weight="600" fill="#f59e0b" text-anchor="middle" style="letter-spacing: 4px; text-transform: uppercase;">UI UX Powerhouse • Specialized Series</text>
        </svg>