<svg width="1200" height="600" viewBox="0 0 1200 600" xmlns="http://www.w3.org/2000/svg">
        <rect width="1200" height="600" fill="#0f172a"/><rect x="150" y="111.24426852802571" width="60" height="238.7557314719743" fill="#38bdf8" opacity="0.6"/>
                    <rect x="170" y="91.24426852802571" width="60" height="238.7557314719743" fill="#818cf8" opacity="0.4" transform="skewY(-20)"/><rect x="270" y="182.95204698450078" width="60" height="167.04795301549922" fill="#38bdf8" opacity="0.6"/>
                    <rect x="290" y="162.95204698450078" width="60" height="167.04795301549922" fill="#818cf8" opacity="0.4" transform="skewY(-20)"/><rect x="390" y="206.7018039195318" width="60" height="143.2981960804682" fill="#38bdf8" opacity="0.6"/>
                    <rect x="410" y="186.7018039195318" width="60" height="143.2981960804682" fill="#818cf8" opacity="0.4" transform="skewY(-20)"/><rect x="510" y="290.4840850918845" width="60" height="59.51591490811552" fill="#38bdf8" opacity="0.6"/>
                    <rect x="530" y="270.4840850918845" width="60" height="59.51591490811552" fill="#818cf8" opacity="0.4" transform="skewY(-20)"/><rect x="630" y="207.3620757275421" width="60" height="142.6379242724579" fill="#38bdf8" opacity="0.6"/>
                    <rect x="650" y="187.3620757275421" width="60" height="142.6379242724579" fill="#818cf8" opacity="0.4" transform="skewY(-20)"/><rect x="750" y="117.94876291023684" width="60" height="232.05123708976316" fill="#38bdf8" opacity="0.6"/>
                    <rect x="770" y="97.94876291023684" width="60" height="232.05123708976316" fill="#818cf8" opacity="0.4" transform="skewY(-20)"/><rect x="870" y="178.68625648152374" width="60" height="171.31374351847626" fill="#38bdf8" opacity="0.6"/>
                    <rect x="890" y="158.68625648152374" width="60" height="171.31374351847626" fill="#818cf8" opacity="0.4" transform="skewY(-20)"/><rect x="990" y="119.86553094393457" width="60" height="230.13446905606543" fill="#38bdf8" opacity="0.6"/>
                    <rect x="1010" y="99.86553094393457" width="60" height="230.13446905606543" fill="#818cf8" opacity="0.4" transform="skewY(-20)"/>
        <text x="600" y="520" font-family="Segoe UI, Arial, sans-serif" font-size="38" font-weight="800" fill="#ffffff" text-anchor="middle">Implementing Conditional Rendering Based on User Behavior...</text>
        <text x="600" y="560" font-family="Segoe UI, Arial, sans-serif" font-size="16" font-weight="600" fill="#38bdf8" text-anchor="middle" style="letter-spacing: 4px; text-transform: uppercase;">UI UX Powerhouse • Specialized Series</text>
    </svg>