<svg width="1200" height="600" viewBox="0 0 1200 600" xmlns="http://www.w3.org/2000/svg">
            <rect width="1200" height="600" fill="#1e1b4b"/><path d="M 568.3371627634187 99.1804501551087 L 542.2976066865886 149.1804501551087 L 607.0155748565412 199.1804501551087" stroke="#f43f5e" fill="none" opacity="0.4"/>
                    <circle cx="568.3371627634187" cy="99.1804501551087" r="3" fill="#22d3ee"/><path d="M 930.8419174816663 381.88792092259973 L 900.8944785759013 431.88792092259973 L 893.8359906132064 481.88792092259973" stroke="#f43f5e" fill="none" opacity="0.4"/>
                    <circle cx="930.8419174816663" cy="381.88792092259973" r="3" fill="#22d3ee"/><path d="M 79.2214597498969 208.8256681439816 L 52.70967041265067 258.8256681439816 L 86.20743578649126 308.8256681439816" stroke="#f43f5e" fill="none" opacity="0.4"/>
                    <circle cx="79.2214597498969" cy="208.8256681439816" r="3" fill="#22d3ee"/><path d="M 887.7621055762688 232.68068105944621 L 851.1712453490986 282.6806810594462 L 927.7220494708786 332.6806810594462" stroke="#f43f5e" fill="none" opacity="0.4"/>
                    <circle cx="887.7621055762688" cy="232.68068105944621" r="3" fill="#22d3ee"/><path d="M 641.5056128396827 362.3078582731978 L 625.6874822502141 412.3078582731978 L 653.9310086624937 462.3078582731978" stroke="#f43f5e" fill="none" opacity="0.4"/>
                    <circle cx="641.5056128396827" cy="362.3078582731978" r="3" fill="#22d3ee"/><path d="M 17.032420261966763 301.5001710453362 L 37.6984483625165 351.5001710453362 L 21.50143442022454 401.5001710453362" stroke="#f43f5e" fill="none" opacity="0.4"/>
                    <circle cx="17.032420261966763" cy="301.5001710453362" r="3" fill="#22d3ee"/><path d="M 473.24582914297935 313.77686751420697 L 483.0080306761374 363.77686751420697 L 498.1032213380331 413.77686751420697" stroke="#f43f5e" fill="none" opacity="0.4"/>
                    <circle cx="473.24582914297935" cy="313.77686751420697" r="3" fill="#22d3ee"/><path d="M 135.85342589431093 178.89708368129504 L 109.9196868589388 228.89708368129504 L 161.97211732087453 278.89708368129504" stroke="#f43f5e" fill="none" opacity="0.4"/>
                    <circle cx="135.85342589431093" cy="178.89708368129504" r="3" fill="#22d3ee"/><path d="M 110.40581699562608 366.4500878090621 L 77.66826337283419 416.4500878090621 L 90.20056709259734 466.4500878090621" stroke="#f43f5e" fill="none" opacity="0.4"/>
                    <circle cx="110.40581699562608" cy="366.4500878090621" r="3" fill="#22d3ee"/><path d="M 188.73250588185329 106.23445056480705 L 143.2008311719983 156.23445056480705 L 166.19729122630815 206.23445056480705" stroke="#f43f5e" fill="none" opacity="0.4"/>
                    <circle cx="188.73250588185329" cy="106.23445056480705" r="3" fill="#22d3ee"/>
            <text x="600" y="520" font-family="Segoe UI, Arial, sans-serif" font-size="38" font-weight="800" fill="#ffffff" text-anchor="middle">Implementing Responsive Virtual Scroll with Intersection ...</text>
            <text x="600" y="560" font-family="Segoe UI, Arial, sans-serif" font-size="16" font-weight="600" fill="#f43f5e" text-anchor="middle" style="letter-spacing: 4px; text-transform: uppercase;">UI UX Powerhouse • Specialized Series</text>
        </svg>