<svg width="1200" height="600" viewBox="0 0 1200 600" xmlns="http://www.w3.org/2000/svg">
        <rect width="1200" height="600" fill="#171717"/><circle cx="840.971148294193" cy="284.4803521617905" r="43.98257584434759" fill="#f59e0b" opacity="0.1"/><circle cx="704.1421018002438" cy="252.50016569370928" r="24.47631205242942" fill="#f59e0b" opacity="0.1"/><circle cx="1169.7234103339724" cy="113.8944997712315" r="13.893385992196272" fill="#f59e0b" opacity="0.1"/><circle cx="49.56253700220259" cy="258.37838213919895" r="13.10169331918587" fill="#f59e0b" opacity="0.1"/><circle cx="1009.268675432395" cy="160.2399296101794" r="25.88169833550637" fill="#f59e0b" opacity="0.1"/><circle cx="290.7145202909305" cy="34.04018124019785" r="14.183580337466992" fill="#f59e0b" opacity="0.1"/><circle cx="1074.7967370993138" cy="86.36814861965831" r="22.185758911036828" fill="#f59e0b" opacity="0.1"/><circle cx="74.94662851750036" cy="27.022689473233186" r="21.69439438621339" fill="#f59e0b" opacity="0.1"/><circle cx="1097.2635172478476" cy="250.3952530067636" r="10.742308152111946" fill="#f59e0b" opacity="0.1"/><circle cx="203.58020671410486" cy="295.02801654052746" r="38.92710350781272" fill="#f59e0b" opacity="0.1"/><circle cx="321.2074649709393" cy="303.7183136711974" r="29.819726530477055" fill="#f59e0b" opacity="0.1"/><circle cx="926.1929657637666" cy="385.8135252165994" r="10.88499652541941" fill="#f59e0b" opacity="0.1"/><circle cx="58.674361939847586" cy="360.7333046511485" r="48.26814142357762" fill="#f59e0b" opacity="0.1"/><circle cx="1182.7509641909273" cy="297.51661204172706" r="40.8380037209281" fill="#f59e0b" opacity="0.1"/><circle cx="1111.3350495605118" cy="40.06911448886967" r="46.358209701575106" fill="#f59e0b" opacity="0.1"/><circle cx="330.2239475864553" cy="283.5206674724759" r="27.36754220210969" fill="#f59e0b" opacity="0.1"/><circle cx="1052.315389020805" cy="208.66975348253618" r="29.556922554183984" fill="#f59e0b" opacity="0.1"/><circle cx="689.8942880525283" cy="382.9204908950487" r="39.98674773189123" fill="#f59e0b" opacity="0.1"/><circle cx="19.774014920039917" cy="116.92960288855829" r="30.839212108039646" fill="#f59e0b" opacity="0.1"/><circle cx="571.1677525992854" cy="190.45857833261834" r="31.64244263411092" fill="#f59e0b" opacity="0.1"/><circle cx="384.027227052502" cy="91.7968719968485" r="31.276060349991894" fill="#f59e0b" opacity="0.1"/><circle cx="661.3470115185919" cy="14.741735390998656" r="25.027309942015563" fill="#f59e0b" opacity="0.1"/><circle cx="602.0858793628577" cy="29.600485174614732" r="17.379096982585907" fill="#f59e0b" opacity="0.1"/><circle cx="284.7981365339365" cy="96.3404864189215" r="29.239034200072638" fill="#f59e0b" opacity="0.1"/><circle cx="339.29138506937306" cy="251.67537360666756" r="20.57080628204858" fill="#f59e0b" opacity="0.1"/><circle cx="847.4282374440008" cy="168.6618323165021" r="42.81434310294571" fill="#f59e0b" opacity="0.1"/><circle cx="96.97182812847132" cy="75.05218574297032" r="20.61495673326135" fill="#f59e0b" opacity="0.1"/><circle cx="84.02580030960962" cy="70.95711570364074" r="13.95909742672302" fill="#f59e0b" opacity="0.1"/><circle cx="98.04470681701787" cy="287.97455610074394" r="32.99483668663015" fill="#f59e0b" opacity="0.1"/><circle cx="11.227347140629718" cy="297.5241019816167" r="28.357196500855935" fill="#f59e0b" opacity="0.1"/>
        <text x="600" y="520" font-family="Segoe UI, Arial, sans-serif" font-size="38" font-weight="800" fill="#ffffff" text-anchor="middle">Implementing Continuous Scrolling with Intersection Obser...</text>
        <text x="600" y="560" font-family="Segoe UI, Arial, sans-serif" font-size="16" font-weight="600" fill="#f59e0b" text-anchor="middle" style="letter-spacing: 4px; text-transform: uppercase;">UI UX Powerhouse • Specialized Series</text>
    </svg>