<svg width="1200" height="600" viewBox="0 0 1200 600" xmlns="http://www.w3.org/2000/svg">
            <rect width="1200" height="600" fill="#111827"/><circle cx="541.2901814583165" cy="372.88773493492045" r="18.02908927176759" fill="#10b981" opacity="0.1"/><circle cx="695.1282804679067" cy="113.34872326697223" r="29.95473793504516" fill="#10b981" opacity="0.1"/><circle cx="784.5134574123222" cy="115.32047541550128" r="29.752993412985234" fill="#10b981" opacity="0.1"/><circle cx="828.6886777259497" cy="18.236747470655246" r="30.262903740622278" fill="#10b981" opacity="0.1"/><circle cx="891.9950610710657" cy="49.671289599791635" r="26.607314762150054" fill="#10b981" opacity="0.1"/><circle cx="1167.5390665433952" cy="58.33051008958137" r="15.622561941345339" fill="#10b981" opacity="0.1"/><circle cx="789.4227815941122" cy="203.35889711714117" r="43.94047547435548" fill="#10b981" opacity="0.1"/><circle cx="793.092073297521" cy="81.55228966206778" r="47.118351438548416" fill="#10b981" opacity="0.1"/><circle cx="124.66782622213941" cy="316.49293234931974" r="48.55066884734697" fill="#10b981" opacity="0.1"/><circle cx="29.16562823302229" cy="272.67045497719664" r="15.498932900372893" fill="#10b981" opacity="0.1"/><circle cx="30.48010157108365" cy="181.41683713547536" r="17.446657434411463" fill="#10b981" opacity="0.1"/><circle cx="147.36871708882973" cy="236.17140493151965" r="14.138665535065229" fill="#10b981" opacity="0.1"/><circle cx="942.7457707159192" cy="311.4145173756697" r="18.547692424763227" fill="#10b981" opacity="0.1"/><circle cx="1035.0214288519055" cy="101.06048904563067" r="11.259443870003452" fill="#10b981" opacity="0.1"/><circle cx="230.9795554883749" cy="272.9666205097601" r="32.31315682998684" fill="#10b981" opacity="0.1"/><circle cx="1179.5862053324527" cy="156.4144588446652" r="33.61357954741834" fill="#10b981" opacity="0.1"/><circle cx="87.69779653230216" cy="347.4908301679534" r="12.03967890884087" fill="#10b981" opacity="0.1"/><circle cx="409.69651571213035" cy="115.1921001055598" r="26.48855010545958" fill="#10b981" opacity="0.1"/><circle cx="176.34282855187848" cy="225.8816545989248" r="43.19665972645453" fill="#10b981" opacity="0.1"/><circle cx="977.5067768647205" cy="289.6942886742181" r="21.986801078528515" fill="#10b981" opacity="0.1"/><circle cx="431.6514254131107" cy="7.682546910655219" r="48.71337099728407" fill="#10b981" opacity="0.1"/><circle cx="434.97981808868644" cy="390.719581162557" r="38.28097299374349" fill="#10b981" opacity="0.1"/><circle cx="604.5316771436774" cy="296.6700059834693" r="42.11714457745984" fill="#10b981" opacity="0.1"/><circle cx="1052.4905846610636" cy="393.90188029719866" r="43.59537130676472" fill="#10b981" opacity="0.1"/><circle cx="233.0413754505571" cy="312.6755969642545" r="35.62081600553938" fill="#10b981" opacity="0.1"/><circle cx="284.6022938541864" cy="382.48289997172833" r="32.25474708437105" fill="#10b981" opacity="0.1"/><circle cx="600.7995803320227" cy="313.0840132227604" r="38.00092252480681" fill="#10b981" opacity="0.1"/><circle cx="932.5419924891321" cy="358.0638831073884" r="20.264189868694302" fill="#10b981" opacity="0.1"/><circle cx="1099.0826634009863" cy="241.6050441376683" r="23.10447825890151" fill="#10b981" opacity="0.1"/><circle cx="576.597210901673" cy="132.03704838597332" r="18.63719113949628" fill="#10b981" opacity="0.1"/>
            <text x="600" y="520" font-family="Segoe UI, Arial, sans-serif" font-size="38" font-weight="800" fill="#ffffff" text-anchor="middle">Implementing Advanced Focus Management Techniques for Key...</text>
            <text x="600" y="560" font-family="Segoe UI, Arial, sans-serif" font-size="16" font-weight="600" fill="#10b981" text-anchor="middle" style="letter-spacing: 4px; text-transform: uppercase;">UI UX Powerhouse • Specialized Series</text>
        </svg>