<svg width="1200" height="600" viewBox="0 0 1200 600" xmlns="http://www.w3.org/2000/svg">
        
            <rect width="1200" height="600" fill="#f8fafc"/>
            <rect x="100" y="100" width="1000" height="350" rx="10" fill="#ffffff" stroke="#e2e8f0"/>
            <rect x="150" y="343.0418639563868" width="31.57894736842105" height="56.958136043613194" fill="#38bdf8" rx="4"/><rect x="194.73684210526315" y="313.82415943644446" width="31.57894736842105" height="86.17584056355554" fill="#38bdf8" rx="4"/><rect x="239.4736842105263" y="283.959488354958" width="31.57894736842105" height="116.04051164504199" fill="#38bdf8" rx="4"/><rect x="284.2105263157895" y="217.22741768020342" width="31.57894736842105" height="182.77258231979658" fill="#38bdf8" rx="4"/><rect x="328.9473684210526" y="283.5194285862599" width="31.57894736842105" height="116.48057141374011" fill="#38bdf8" rx="4"/><rect x="373.6842105263158" y="294.1323286617262" width="31.57894736842105" height="105.8676713382738" fill="#38bdf8" rx="4"/><rect x="418.42105263157896" y="159.6400959924722" width="31.57894736842105" height="240.3599040075278" fill="#38bdf8" rx="4"/><rect x="463.1578947368421" y="256.0519580878463" width="31.57894736842105" height="143.9480419121537" fill="#38bdf8" rx="4"/><rect x="507.89473684210526" y="266.47500944163767" width="31.57894736842105" height="133.52499055836233" fill="#38bdf8" rx="4"/><rect x="552.6315789473684" y="216.41889240599994" width="31.57894736842105" height="183.58110759400006" fill="#38bdf8" rx="4"/><rect x="597.3684210526316" y="266.12866032628517" width="31.57894736842105" height="133.87133967371483" fill="#38bdf8" rx="4"/><rect x="642.1052631578948" y="284.0202674673492" width="31.57894736842105" height="115.97973253265081" fill="#38bdf8" rx="4"/><rect x="686.8421052631579" y="166.37591668513778" width="31.57894736842105" height="233.62408331486222" fill="#38bdf8" rx="4"/><rect x="731.578947368421" y="229.39554952790786" width="31.57894736842105" height="170.60445047209214" fill="#38bdf8" rx="4"/><rect x="776.3157894736842" y="293.22068702858815" width="31.57894736842105" height="106.77931297141185" fill="#38bdf8" rx="4"/><rect x="821.0526315789474" y="242.1581083735873" width="31.57894736842105" height="157.8418916264127" fill="#38bdf8" rx="4"/><rect x="865.7894736842105" y="217.39869841112522" width="31.57894736842105" height="182.60130158887478" fill="#38bdf8" rx="4"/><rect x="910.5263157894736" y="317.3905066014413" width="31.57894736842105" height="82.6094933985587" fill="#38bdf8" rx="4"/><rect x="955.2631578947369" y="305.1904096337239" width="31.57894736842105" height="94.8095903662761" fill="#38bdf8" rx="4"/>
        
        <text x="600" y="520" font-family="Segoe UI, Arial" font-size="38" font-weight="800" fill="#f8fafc" text-anchor="middle">Implementing Responsive Data Visualization: Techniques fo...</text>
    </svg>