<svg width="1200" height="600" viewBox="0 0 1200 600" xmlns="http://www.w3.org/2000/svg">
        <rect width="1200" height="600" fill="#0f172a"/><circle cx="156.2656813148351" cy="50.32273535616696" r="35.197175841349235" fill="#38bdf8" opacity="0.1"/><circle cx="969.5003309203457" cy="18.620295148866717" r="26.475596534874057" fill="#38bdf8" opacity="0.1"/><circle cx="617.4945555488989" cy="140.95243246119935" r="26.606894067772373" fill="#38bdf8" opacity="0.1"/><circle cx="1162.52130462708" cy="251.0305084004358" r="35.53902325907984" fill="#38bdf8" opacity="0.1"/><circle cx="404.4295910578512" cy="73.88989064420457" r="41.69484870843007" fill="#38bdf8" opacity="0.1"/><circle cx="328.49057857038133" cy="290.0488700863207" r="33.90637088938092" fill="#38bdf8" opacity="0.1"/><circle cx="975.1263177386136" cy="174.4714874087549" r="21.863590024368023" fill="#38bdf8" opacity="0.1"/><circle cx="825.9006823111122" cy="99.23309301047993" r="35.79769596042752" fill="#38bdf8" opacity="0.1"/><circle cx="25.000429066858487" cy="379.00382682964846" r="39.63597264591954" fill="#38bdf8" opacity="0.1"/><circle cx="789.5446367758268" cy="224.86018931922445" r="27.44932889137999" fill="#38bdf8" opacity="0.1"/><circle cx="938.4584110659489" cy="380.80358782972326" r="17.865213362638315" fill="#38bdf8" opacity="0.1"/><circle cx="1072.9755672437022" cy="215.2522358675924" r="40.04019509877253" fill="#38bdf8" opacity="0.1"/><circle cx="147.65164375294262" cy="327.03474790614564" r="20.4982570383072" fill="#38bdf8" opacity="0.1"/><circle cx="1144.347839562397" cy="211.62046880926937" r="28.590284641541075" fill="#38bdf8" opacity="0.1"/><circle cx="410.7388060525409" cy="387.2186113359021" r="28.99726424344408" fill="#38bdf8" opacity="0.1"/><circle cx="444.01633890811354" cy="73.02071633043852" r="46.06757715224376" fill="#38bdf8" opacity="0.1"/><circle cx="277.01978478580713" cy="351.17629174201284" r="44.98713346787554" fill="#38bdf8" opacity="0.1"/><circle cx="300.1186423654872" cy="162.85202205763198" r="22.046591473554145" fill="#38bdf8" opacity="0.1"/><circle cx="951.0803982237121" cy="368.2978492794973" r="25.405011735056178" fill="#38bdf8" opacity="0.1"/><circle cx="844.7071015485562" cy="48.981657484546304" r="23.34863868112734" fill="#38bdf8" opacity="0.1"/><circle cx="211.86931507763802" cy="240.61359105944575" r="43.9659223601484" fill="#38bdf8" opacity="0.1"/><circle cx="216.9413050840376" cy="239.48765746390563" r="42.768555642614956" fill="#38bdf8" opacity="0.1"/><circle cx="298.2372007161757" cy="239.91686202443816" r="12.647696710919263" fill="#38bdf8" opacity="0.1"/><circle cx="635.7438845740035" cy="218.71736651028186" r="39.87498589011011" fill="#38bdf8" opacity="0.1"/><circle cx="336.90638730313367" cy="247.93743080663262" r="27.50713466120942" fill="#38bdf8" opacity="0.1"/><circle cx="174.0977671695873" cy="93.05434837501707" r="13.085215604951372" fill="#38bdf8" opacity="0.1"/><circle cx="1105.220780511263" cy="121.02680108655477" r="48.93356039952778" fill="#38bdf8" opacity="0.1"/><circle cx="1036.6540860042733" cy="332.11390923133877" r="30.697119499964174" fill="#38bdf8" opacity="0.1"/><circle cx="1152.593662637173" cy="167.96653142446303" r="15.742611287487307" fill="#38bdf8" opacity="0.1"/><circle cx="286.79875737361726" cy="235.91912577503535" r="26.58365998777299" fill="#38bdf8" opacity="0.1"/>
        <text x="600" y="520" font-family="Segoe UI, Arial, sans-serif" font-size="38" font-weight="800" fill="#ffffff" text-anchor="middle">Implementing Advanced Pagination Techniques for Enhanced ...</text>
        <text x="600" y="560" font-family="Segoe UI, Arial, sans-serif" font-size="16" font-weight="600" fill="#38bdf8" text-anchor="middle" style="letter-spacing: 4px; text-transform: uppercase;">UI UX Powerhouse • Specialized Series</text>
    </svg>