<svg width="1200" height="600" viewBox="0 0 1200 600" xmlns="http://www.w3.org/2000/svg">
            <rect width="1200" height="600" fill="#171717"/><rect x="150" y="144.23561112162133" width="60" height="205.76438887837867" fill="#f59e0b" opacity="0.6"/>
                    <rect x="170" y="124.23561112162133" width="60" height="205.76438887837867" fill="#fbbf24" opacity="0.4" transform="skewY(-20)"/><rect x="270" y="171.59992406959645" width="60" height="178.40007593040355" fill="#f59e0b" opacity="0.6"/>
                    <rect x="290" y="151.59992406959645" width="60" height="178.40007593040355" fill="#fbbf24" opacity="0.4" transform="skewY(-20)"/><rect x="390" y="145.61070404906786" width="60" height="204.38929595093214" fill="#f59e0b" opacity="0.6"/>
                    <rect x="410" y="125.61070404906786" width="60" height="204.38929595093214" fill="#fbbf24" opacity="0.4" transform="skewY(-20)"/><rect x="510" y="157.2704840964434" width="60" height="192.7295159035566" fill="#f59e0b" opacity="0.6"/>
                    <rect x="530" y="137.2704840964434" width="60" height="192.7295159035566" fill="#fbbf24" opacity="0.4" transform="skewY(-20)"/><rect x="630" y="229.0239790180749" width="60" height="120.9760209819251" fill="#f59e0b" opacity="0.6"/>
                    <rect x="650" y="209.0239790180749" width="60" height="120.9760209819251" fill="#fbbf24" opacity="0.4" transform="skewY(-20)"/><rect x="750" y="179.91218896377177" width="60" height="170.08781103622823" fill="#f59e0b" opacity="0.6"/>
                    <rect x="770" y="159.91218896377177" width="60" height="170.08781103622823" fill="#fbbf24" opacity="0.4" transform="skewY(-20)"/><rect x="870" y="149.87362262654642" width="60" height="200.12637737345358" fill="#f59e0b" opacity="0.6"/>
                    <rect x="890" y="129.87362262654642" width="60" height="200.12637737345358" fill="#fbbf24" opacity="0.4" transform="skewY(-20)"/><rect x="990" y="252.21052733286342" width="60" height="97.78947266713658" fill="#f59e0b" opacity="0.6"/>
                    <rect x="1010" y="232.21052733286342" width="60" height="97.78947266713658" fill="#fbbf24" opacity="0.4" transform="skewY(-20)"/>
            <text x="600" y="520" font-family="Segoe UI, Arial, sans-serif" font-size="38" font-weight="800" fill="#ffffff" text-anchor="middle">Implementing Advanced Gesture-Based Navigation for Web Ap...</text>
            <text x="600" y="560" font-family="Segoe UI, Arial, sans-serif" font-size="16" font-weight="600" fill="#f59e0b" text-anchor="middle" style="letter-spacing: 4px; text-transform: uppercase;">UI UX Powerhouse • Specialized Series</text>
        </svg>