<svg width="1200" height="600" viewBox="0 0 1200 600" xmlns="http://www.w3.org/2000/svg">
            <rect width="1200" height="600" fill="#171717"/><rect x="150" y="107.39303240643494" width="60" height="242.60696759356506" fill="#f59e0b" opacity="0.6"/>
                    <rect x="170" y="87.39303240643494" width="60" height="242.60696759356506" fill="#fbbf24" opacity="0.4" transform="skewY(-20)"/><rect x="270" y="183.45269272831501" width="60" height="166.54730727168499" fill="#f59e0b" opacity="0.6"/>
                    <rect x="290" y="163.45269272831501" width="60" height="166.54730727168499" fill="#fbbf24" opacity="0.4" transform="skewY(-20)"/><rect x="390" y="173.63159776032262" width="60" height="176.36840223967738" fill="#f59e0b" opacity="0.6"/>
                    <rect x="410" y="153.63159776032262" width="60" height="176.36840223967738" fill="#fbbf24" opacity="0.4" transform="skewY(-20)"/><rect x="510" y="271.8642330124567" width="60" height="78.13576698754332" fill="#f59e0b" opacity="0.6"/>
                    <rect x="530" y="251.86423301245668" width="60" height="78.13576698754332" fill="#fbbf24" opacity="0.4" transform="skewY(-20)"/><rect x="630" y="269.6665719417524" width="60" height="80.33342805824759" fill="#f59e0b" opacity="0.6"/>
                    <rect x="650" y="249.6665719417524" width="60" height="80.33342805824759" fill="#fbbf24" opacity="0.4" transform="skewY(-20)"/><rect x="750" y="129.2808939850147" width="60" height="220.7191060149853" fill="#f59e0b" opacity="0.6"/>
                    <rect x="770" y="109.2808939850147" width="60" height="220.7191060149853" fill="#fbbf24" opacity="0.4" transform="skewY(-20)"/><rect x="870" y="128.67505243993946" width="60" height="221.32494756006054" fill="#f59e0b" opacity="0.6"/>
                    <rect x="890" y="108.67505243993946" width="60" height="221.32494756006054" fill="#fbbf24" opacity="0.4" transform="skewY(-20)"/><rect x="990" y="269.11101602056533" width="60" height="80.88898397943467" fill="#f59e0b" opacity="0.6"/>
                    <rect x="1010" y="249.11101602056533" width="60" height="80.88898397943467" fill="#fbbf24" opacity="0.4" transform="skewY(-20)"/>
            <text x="600" y="520" font-family="Segoe UI, Arial, sans-serif" font-size="38" font-weight="800" fill="#ffffff" text-anchor="middle">Implementing Contextual Microinteractions for Enhanced Us...</text>
            <text x="600" y="560" font-family="Segoe UI, Arial, sans-serif" font-size="16" font-weight="600" fill="#f59e0b" text-anchor="middle" style="letter-spacing: 4px; text-transform: uppercase;">UI UX Powerhouse • Specialized Series</text>
        </svg>