<svg width="1200" height="600" viewBox="0 0 1200 600" xmlns="http://www.w3.org/2000/svg">
        <rect width="1200" height="600" fill="#171717"/><circle cx="655.6309079758648" cy="190.97195879367064" r="20.490558584824612" fill="#f59e0b" opacity="0.1"/><circle cx="1195.5314709710365" cy="313.8335235438717" r="23.5188789806125" fill="#f59e0b" opacity="0.1"/><circle cx="180.87772855519688" cy="175.2829167584423" r="28.946237433647184" fill="#f59e0b" opacity="0.1"/><circle cx="600.5856416013557" cy="158.73252231176593" r="15.537614358909195" fill="#f59e0b" opacity="0.1"/><circle cx="441.65947938672616" cy="368.59519299614476" r="45.12366243034194" fill="#f59e0b" opacity="0.1"/><circle cx="514.6509687161597" cy="239.39026977914182" r="45.17475823742643" fill="#f59e0b" opacity="0.1"/><circle cx="537.962155668356" cy="149.70120540547214" r="30.69450335980946" fill="#f59e0b" opacity="0.1"/><circle cx="612.9826614400372" cy="398.44705161231104" r="41.83333001712299" fill="#f59e0b" opacity="0.1"/><circle cx="1086.8170414185442" cy="319.83882284048946" r="13.468728286388796" fill="#f59e0b" opacity="0.1"/><circle cx="1112.823107225995" cy="215.58407254087797" r="48.561247763209394" fill="#f59e0b" opacity="0.1"/><circle cx="1019.5137615562999" cy="132.26884951982356" r="40.58467120768" fill="#f59e0b" opacity="0.1"/><circle cx="345.3582336547697" cy="179.15019736283284" r="42.29294779644988" fill="#f59e0b" opacity="0.1"/><circle cx="953.2651946081387" cy="327.76308242737286" r="24.296422154729953" fill="#f59e0b" opacity="0.1"/><circle cx="1105.0850291539973" cy="39.117257870020694" r="14.345754045425565" fill="#f59e0b" opacity="0.1"/><circle cx="840.7449836467094" cy="391.50443813341553" r="30.57029255251109" fill="#f59e0b" opacity="0.1"/><circle cx="24.521942868159385" cy="291.0019182791416" r="17.13444838373107" fill="#f59e0b" opacity="0.1"/><circle cx="130.0788910164556" cy="313.0868056872714" r="18.817844632649212" fill="#f59e0b" opacity="0.1"/><circle cx="108.457663069089" cy="62.1386278544378" r="48.271671126931324" fill="#f59e0b" opacity="0.1"/><circle cx="402.9529656370869" cy="387.7799860021696" r="11.809904721812927" fill="#f59e0b" opacity="0.1"/><circle cx="659.621025378874" cy="52.49121359665878" r="47.26642027213529" fill="#f59e0b" opacity="0.1"/><circle cx="451.7320665305306" cy="396.87057690862275" r="47.690594435553066" fill="#f59e0b" opacity="0.1"/><circle cx="40.16666728348355" cy="232.63519253559934" r="30.476480128854746" fill="#f59e0b" opacity="0.1"/><circle cx="609.9233765438839" cy="52.892915226038895" r="10.310815360717243" fill="#f59e0b" opacity="0.1"/><circle cx="463.2816182833267" cy="209.5837420969474" r="41.199872178112855" fill="#f59e0b" opacity="0.1"/><circle cx="520.6437726810691" cy="228.60652820199903" r="22.642230300043593" fill="#f59e0b" opacity="0.1"/><circle cx="334.72196176415423" cy="24.23814192734426" r="11.116289447782037" fill="#f59e0b" opacity="0.1"/><circle cx="268.4180775846471" cy="308.4421199523604" r="15.192890654898292" fill="#f59e0b" opacity="0.1"/><circle cx="1150.4305075439333" cy="271.4683518461243" r="16.00233858818683" fill="#f59e0b" opacity="0.1"/><circle cx="753.5632970699226" cy="368.6463063604606" r="41.20529244013596" fill="#f59e0b" opacity="0.1"/><circle cx="804.1075900306168" cy="52.72457311511971" r="22.651482257460884" fill="#f59e0b" opacity="0.1"/>
        <text x="600" y="520" font-family="Segoe UI, Arial, sans-serif" font-size="38" font-weight="800" fill="#ffffff" text-anchor="middle">Implementing Advanced Data Visualization Techniques with ...</text>
        <text x="600" y="560" font-family="Segoe UI, Arial, sans-serif" font-size="16" font-weight="600" fill="#f59e0b" text-anchor="middle" style="letter-spacing: 4px; text-transform: uppercase;">UI UX Powerhouse • Specialized Series</text>
    </svg>