<svg width="1200" height="600" viewBox="0 0 1200 600" xmlns="http://www.w3.org/2000/svg">
            <rect width="1200" height="600" fill="#0c4a6e"/><path d="M 971.3142357049037 12.036905135028064 L 924.1621778577653 62.036905135028064 L 997.7208775849249 112.03690513502806" stroke="#7dd3fc" fill="none" opacity="0.4"/>
                    <circle cx="971.3142357049037" cy="12.036905135028064" r="3" fill="#f43f5e"/><path d="M 1051.608603761997 97.5381701689912 L 1043.7901508557843 147.5381701689912 L 1087.8851573639622 197.5381701689912" stroke="#7dd3fc" fill="none" opacity="0.4"/>
                    <circle cx="1051.608603761997" cy="97.5381701689912" r="3" fill="#f43f5e"/><path d="M 616.7985433748981 377.85871312371455 L 598.4406958347336 427.85871312371455 L 633.5884540156258 477.85871312371455" stroke="#7dd3fc" fill="none" opacity="0.4"/>
                    <circle cx="616.7985433748981" cy="377.85871312371455" r="3" fill="#f43f5e"/><path d="M 132.8057125887426 28.346985502139432 L 151.61179483193337 78.34698550213943 L 181.0367810077878 128.34698550213943" stroke="#7dd3fc" fill="none" opacity="0.4"/>
                    <circle cx="132.8057125887426" cy="28.346985502139432" r="3" fill="#f43f5e"/><path d="M 984.1553477570415 218.87146706458225 L 1033.7060992361785 268.87146706458225 L 980.5077614315451 318.87146706458225" stroke="#7dd3fc" fill="none" opacity="0.4"/>
                    <circle cx="984.1553477570415" cy="218.87146706458225" r="3" fill="#f43f5e"/><path d="M 655.8941559394952 13.287684882379835 L 627.6391465171855 63.287684882379835 L 698.3310639880074 113.28768488237984" stroke="#7dd3fc" fill="none" opacity="0.4"/>
                    <circle cx="655.8941559394952" cy="13.287684882379835" r="3" fill="#f43f5e"/><path d="M 981.5772657847447 127.88075792086602 L 966.9433832482355 177.88075792086602 L 1027.3156317191933 227.88075792086602" stroke="#7dd3fc" fill="none" opacity="0.4"/>
                    <circle cx="981.5772657847447" cy="127.88075792086602" r="3" fill="#f43f5e"/><path d="M 384.38513561777654 136.18906148044516 L 357.33988838719597 186.18906148044516 L 390.9432070777484 236.18906148044516" stroke="#7dd3fc" fill="none" opacity="0.4"/>
                    <circle cx="384.38513561777654" cy="136.18906148044516" r="3" fill="#f43f5e"/><path d="M 644.8312061260367 146.55201879068045 L 650.2390677882431 196.55201879068045 L 619.8210562350596 246.55201879068045" stroke="#7dd3fc" fill="none" opacity="0.4"/>
                    <circle cx="644.8312061260367" cy="146.55201879068045" r="3" fill="#f43f5e"/><path d="M 679.9575825461943 270.6177963380469 L 650.4024976177789 320.6177963380469 L 664.2768841708403 370.6177963380469" stroke="#7dd3fc" fill="none" opacity="0.4"/>
                    <circle cx="679.9575825461943" cy="270.6177963380469" r="3" fill="#f43f5e"/>
            <text x="600" y="520" font-family="Segoe UI, Arial, sans-serif" font-size="38" font-weight="800" fill="#ffffff" text-anchor="middle">Implementing Responsive Data Visualization with D3.js and...</text>
            <text x="600" y="560" font-family="Segoe UI, Arial, sans-serif" font-size="16" font-weight="600" fill="#7dd3fc" text-anchor="middle" style="letter-spacing: 4px; text-transform: uppercase;">UI UX Powerhouse • Specialized Series</text>
        </svg>