<svg width="1200" height="600" viewBox="0 0 1200 600" xmlns="http://www.w3.org/2000/svg">
            <rect width="1200" height="600" fill="#0c4a6e"/><circle cx="643.8707510380482" cy="235.41836299555143" r="23.002574662896222" fill="#7dd3fc" opacity="0.1"/><circle cx="223.48781984692323" cy="166.04274608835112" r="19.186615011594768" fill="#7dd3fc" opacity="0.1"/><circle cx="913.4492062119534" cy="114.21190417793241" r="36.92525228744671" fill="#7dd3fc" opacity="0.1"/><circle cx="644.8074143912891" cy="30.5522019010823" r="31.55684416749864" fill="#7dd3fc" opacity="0.1"/><circle cx="333.8985327757655" cy="325.38736080277886" r="35.78193456836743" fill="#7dd3fc" opacity="0.1"/><circle cx="872.1632831897296" cy="341.50555544874805" r="41.87098893282382" fill="#7dd3fc" opacity="0.1"/><circle cx="607.3133921431463" cy="313.43202753705555" r="47.31415687157437" fill="#7dd3fc" opacity="0.1"/><circle cx="403.71203592658276" cy="13.702638635732" r="44.379412404559844" fill="#7dd3fc" opacity="0.1"/><circle cx="875.5513713622349" cy="258.00756378812366" r="27.60167368935072" fill="#7dd3fc" opacity="0.1"/><circle cx="12.501700572420305" cy="96.55488700955175" r="29.960082381257962" fill="#7dd3fc" opacity="0.1"/><circle cx="843.1381528029306" cy="390.0761851809875" r="44.185354194269166" fill="#7dd3fc" opacity="0.1"/><circle cx="654.000778523914" cy="365.4000294893194" r="17.45886357857671" fill="#7dd3fc" opacity="0.1"/><circle cx="940.8716965794156" cy="17.425231970264576" r="32.96945796319051" fill="#7dd3fc" opacity="0.1"/><circle cx="355.5722910333543" cy="194.03233641933184" r="39.494414246146334" fill="#7dd3fc" opacity="0.1"/><circle cx="1124.6581670993692" cy="256.0297828851617" r="42.332746390202374" fill="#7dd3fc" opacity="0.1"/><circle cx="88.87126753639052" cy="207.33660841478923" r="12.30671127923415" fill="#7dd3fc" opacity="0.1"/><circle cx="977.195901630148" cy="213.80776650221378" r="13.061295630977838" fill="#7dd3fc" opacity="0.1"/><circle cx="878.8936286175158" cy="355.9187604994804" r="42.9670650758635" fill="#7dd3fc" opacity="0.1"/><circle cx="16.548023367795395" cy="221.38145850913133" r="41.5069416393726" fill="#7dd3fc" opacity="0.1"/><circle cx="465.5988742917543" cy="252.24427091670805" r="19.136115599176264" fill="#7dd3fc" opacity="0.1"/><circle cx="78.5049030353548" cy="282.6805121783764" r="33.290289659671544" fill="#7dd3fc" opacity="0.1"/><circle cx="920.2177732016935" cy="71.87383970776864" r="43.36175193100644" fill="#7dd3fc" opacity="0.1"/><circle cx="879.0530988349929" cy="51.46870072749152" r="26.787738496714155" fill="#7dd3fc" opacity="0.1"/><circle cx="853.1423858717972" cy="317.76353931018093" r="47.269384982282645" fill="#7dd3fc" opacity="0.1"/><circle cx="993.5425764517277" cy="245.0142107991269" r="12.127458736940753" fill="#7dd3fc" opacity="0.1"/><circle cx="100.18425682537782" cy="193.01092815221637" r="39.571778446979806" fill="#7dd3fc" opacity="0.1"/><circle cx="368.8597429942092" cy="157.18513340543723" r="39.871754950909235" fill="#7dd3fc" opacity="0.1"/><circle cx="714.1544593466023" cy="224.80938243825221" r="33.746992295409655" fill="#7dd3fc" opacity="0.1"/><circle cx="164.61486405314645" cy="282.7686595672276" r="17.7913649254333" fill="#7dd3fc" opacity="0.1"/><circle cx="153.98559852637845" cy="337.6850170971011" r="15.456058164054411" fill="#7dd3fc" opacity="0.1"/>
            <text x="600" y="520" font-family="Segoe UI, Arial, sans-serif" font-size="38" font-weight="800" fill="#ffffff" text-anchor="middle">Implementing Multi-Layered Gesture Navigation for Complex...</text>
            <text x="600" y="560" font-family="Segoe UI, Arial, sans-serif" font-size="16" font-weight="600" fill="#7dd3fc" text-anchor="middle" style="letter-spacing: 4px; text-transform: uppercase;">UI UX Powerhouse • Specialized Series</text>
        </svg>