<svg width="1200" height="600" viewBox="0 0 1200 600" xmlns="http://www.w3.org/2000/svg">
            <rect width="1200" height="600" fill="#0c4a6e"/><path d="M 416.5485733839887 307.79659222644113 L 383.49695326656956 357.79659222644113 L 395.40784578402963 407.79659222644113" stroke="#7dd3fc" fill="none" opacity="0.4"/>
                    <circle cx="416.5485733839887" cy="307.79659222644113" r="3" fill="#f43f5e"/><path d="M 173.20600986422505 234.42939622036647 L 194.31498041535633 284.42939622036647 L 200.1233281376699 334.42939622036647" stroke="#7dd3fc" fill="none" opacity="0.4"/>
                    <circle cx="173.20600986422505" cy="234.42939622036647" r="3" fill="#f43f5e"/><path d="M 539.4330031453137 23.763590755697805 L 524.5557412117705 73.7635907556978 L 508.72985834539577 123.7635907556978" stroke="#7dd3fc" fill="none" opacity="0.4"/>
                    <circle cx="539.4330031453137" cy="23.763590755697805" r="3" fill="#f43f5e"/><path d="M 937.006104003558 183.92043262774678 L 975.2478585210156 233.92043262774678 L 967.9184233911656 283.9204326277468" stroke="#7dd3fc" fill="none" opacity="0.4"/>
                    <circle cx="937.006104003558" cy="183.92043262774678" r="3" fill="#f43f5e"/><path d="M 950.2063278734568 163.47219014023722 L 971.2127047168906 213.47219014023722 L 979.5090212777723 263.4721901402372" stroke="#7dd3fc" fill="none" opacity="0.4"/>
                    <circle cx="950.2063278734568" cy="163.47219014023722" r="3" fill="#f43f5e"/><path d="M 821.8501600102172 210.5642185320903 L 867.4919733430215 260.5642185320903 L 784.6265568126 310.5642185320903" stroke="#7dd3fc" fill="none" opacity="0.4"/>
                    <circle cx="821.8501600102172" cy="210.5642185320903" r="3" fill="#f43f5e"/><path d="M 622.3232909385843 189.73827363452074 L 626.5299319929 239.73827363452074 L 648.4393141556211 289.73827363452074" stroke="#7dd3fc" fill="none" opacity="0.4"/>
                    <circle cx="622.3232909385843" cy="189.73827363452074" r="3" fill="#f43f5e"/><path d="M 76.32821342904208 269.3905475446627 L 63.707929794691154 319.3905475446627 L 40.5096061446784 369.3905475446627" stroke="#7dd3fc" fill="none" opacity="0.4"/>
                    <circle cx="76.32821342904208" cy="269.3905475446627" r="3" fill="#f43f5e"/><path d="M 655.70347928915 65.53284603360225 L 663.9252130509703 115.53284603360225 L 666.2906662622589 165.53284603360225" stroke="#7dd3fc" fill="none" opacity="0.4"/>
                    <circle cx="655.70347928915" cy="65.53284603360225" r="3" fill="#f43f5e"/><path d="M 1138.762064839466 159.07852170566912 L 1175.7431831630129 209.07852170566912 L 1098.6820017986247 259.0785217056691" stroke="#7dd3fc" fill="none" opacity="0.4"/>
                    <circle cx="1138.762064839466" cy="159.07852170566912" r="3" fill="#f43f5e"/>
            <text x="600" y="520" font-family="Segoe UI, Arial, sans-serif" font-size="38" font-weight="800" fill="#ffffff" text-anchor="middle">Implementing Advanced Gesture Navigation Patterns for Mul...</text>
            <text x="600" y="560" font-family="Segoe UI, Arial, sans-serif" font-size="16" font-weight="600" fill="#7dd3fc" text-anchor="middle" style="letter-spacing: 4px; text-transform: uppercase;">UI UX Powerhouse • Specialized Series</text>
        </svg>