<svg width="1200" height="600" viewBox="0 0 1200 600" xmlns="http://www.w3.org/2000/svg">
            <rect width="1200" height="600" fill="#111827"/><circle cx="388.9956729730329" cy="66.20409730821848" r="26.580235326291586" fill="#10b981" opacity="0.1"/><circle cx="171.625976364885" cy="101.8432775279507" r="19.754810606282263" fill="#10b981" opacity="0.1"/><circle cx="907.8672847563212" cy="180.69485303130932" r="31.764305018296" fill="#10b981" opacity="0.1"/><circle cx="54.113269791560015" cy="242.84646272062673" r="19.032705025965697" fill="#10b981" opacity="0.1"/><circle cx="1124.443647012231" cy="313.6400189881897" r="14.864602230445598" fill="#10b981" opacity="0.1"/><circle cx="511.49758964020293" cy="326.90826338148327" r="14.316910763081978" fill="#10b981" opacity="0.1"/><circle cx="726.3346788262425" cy="198.3896001445828" r="22.32446647787583" fill="#10b981" opacity="0.1"/><circle cx="693.5480121333967" cy="147.55325334463123" r="36.51876049398197" fill="#10b981" opacity="0.1"/><circle cx="239.07870900729904" cy="117.1161030404619" r="24.121442204050254" fill="#10b981" opacity="0.1"/><circle cx="442.9607994199614" cy="36.523006848437944" r="33.64610124470346" fill="#10b981" opacity="0.1"/><circle cx="871.7687290793947" cy="4.188741251709871" r="29.973117828003524" fill="#10b981" opacity="0.1"/><circle cx="963.8743238851021" cy="271.284922516179" r="26.989628752708086" fill="#10b981" opacity="0.1"/><circle cx="510.0801733891785" cy="313.3349373936653" r="33.91224221228185" fill="#10b981" opacity="0.1"/><circle cx="3.3572355459909886" cy="225.20582554534485" r="46.76861473584722" fill="#10b981" opacity="0.1"/><circle cx="605.7566563613364" cy="63.316011049755616" r="29.37017583550187" fill="#10b981" opacity="0.1"/><circle cx="1004.1298334966996" cy="380.5555647257279" r="28.94083571685769" fill="#10b981" opacity="0.1"/><circle cx="1098.7344330711494" cy="349.27672644116683" r="41.427824137463176" fill="#10b981" opacity="0.1"/><circle cx="926.9633801646705" cy="355.50905674032265" r="41.46847282871022" fill="#10b981" opacity="0.1"/><circle cx="97.36594550959126" cy="179.76919120992534" r="40.096697037843114" fill="#10b981" opacity="0.1"/><circle cx="252.17976434232696" cy="366.6147061434458" r="38.09629755042806" fill="#10b981" opacity="0.1"/><circle cx="791.9853983365101" cy="102.586395808612" r="45.376474219992815" fill="#10b981" opacity="0.1"/><circle cx="114.3114004527888" cy="293.68722439303383" r="23.199115661045653" fill="#10b981" opacity="0.1"/><circle cx="308.3502908619266" cy="314.4240572597482" r="38.810314290822134" fill="#10b981" opacity="0.1"/><circle cx="1146.970150148809" cy="148.02788305241847" r="29.31680706438783" fill="#10b981" opacity="0.1"/><circle cx="271.14773082357715" cy="115.15571704294416" r="38.49773502959579" fill="#10b981" opacity="0.1"/><circle cx="344.1997598478338" cy="66.7205496414681" r="29.49405051276699" fill="#10b981" opacity="0.1"/><circle cx="527.8563824274897" cy="123.60125181439798" r="18.794058917774237" fill="#10b981" opacity="0.1"/><circle cx="127.45148974936455" cy="330.8202491811244" r="27.959497645424563" fill="#10b981" opacity="0.1"/><circle cx="70.78092935335007" cy="210.4247962599402" r="48.43992092850385" fill="#10b981" opacity="0.1"/><circle cx="297.8942810368608" cy="112.57451683668478" r="28.55948004400034" fill="#10b981" opacity="0.1"/>
            <text x="600" y="520" font-family="Segoe UI, Arial, sans-serif" font-size="38" font-weight="800" fill="#ffffff" text-anchor="middle">Implementing Progressive Web App (PWA) Features for Enhan...</text>
            <text x="600" y="560" font-family="Segoe UI, Arial, sans-serif" font-size="16" font-weight="600" fill="#10b981" text-anchor="middle" style="letter-spacing: 4px; text-transform: uppercase;">UI UX Powerhouse • Specialized Series</text>
        </svg>