<svg width="1200" height="600" viewBox="0 0 1200 600" xmlns="http://www.w3.org/2000/svg">
            <rect width="1200" height="600" fill="#111827"/>
            <g opacity="0.2">
                <circle cx="122.85219981276101" cy="519.5381779912507" r="1.7850892878036557" fill="#ffffff"/><circle cx="962.0195326926345" cy="263.7230408647421" r="0.8829872130714591" fill="#ffffff"/><circle cx="531.7812597083652" cy="181.99012069577705" r="1.9879023457469815" fill="#ffffff"/><circle cx="1046.3575494991067" cy="533.6361237516327" r="1.536263935450007" fill="#ffffff"/><circle cx="90.59560839813506" cy="0.0738747412972085" r="0.7461729765390563" fill="#ffffff"/><circle cx="779.1227782542172" cy="133.59666486443342" r="0.24493444005339726" fill="#ffffff"/><circle cx="998.3233377181218" cy="37.39469768754531" r="1.3416973209875356" fill="#ffffff"/><circle cx="1146.46286714573" cy="267.61151618148216" r="0.2570969223259987" fill="#ffffff"/><circle cx="785.0217761900999" cy="104.0019515373845" r="1.5293856346025294" fill="#ffffff"/><circle cx="794.117442678959" cy="166.41069734590369" r="0.8560763634541921" fill="#ffffff"/><circle cx="727.8715173706368" cy="241.53396389859282" r="1.6817074222808537" fill="#ffffff"/><circle cx="1058.7496259648426" cy="519.3230093588809" r="0.6429389547774877" fill="#ffffff"/><circle cx="574.1615237536373" cy="201.12594307497224" r="0.672311657700762" fill="#ffffff"/><circle cx="757.9414321684457" cy="483.239166131282" r="1.1319057936682555" fill="#ffffff"/><circle cx="1003.8995554118331" cy="546.0537443499854" r="1.6820516377793637" fill="#ffffff"/><circle cx="1012.5456197406436" cy="372.6545740917885" r="0.25365266812968157" fill="#ffffff"/><circle cx="332.3000865557104" cy="469.99151802022203" r="0.48757569495954267" fill="#ffffff"/><circle cx="287.0482630059838" cy="239.67929326655448" r="0.13300902626966749" fill="#ffffff"/><circle cx="577.65827877186" cy="252.21755550173646" r="0.9223261835649426" fill="#ffffff"/><circle cx="321.0707690143407" cy="369.4478049370987" r="0.6989630466878245" fill="#ffffff"/><circle cx="304.8369202028296" cy="419.20106410289054" r="1.16322813109979" fill="#ffffff"/><circle cx="1042.2440486419814" cy="42.88619572439687" r="1.9591313483553718" fill="#ffffff"/><circle cx="430.5597353669643" cy="471.76404530471723" r="0.5141951621120513" fill="#ffffff"/><circle cx="414.06252130911867" cy="442.82653186096866" r="1.1145614181173507" fill="#ffffff"/><circle cx="641.8841928511815" cy="267.39388377763595" r="0.5947133813971499" fill="#ffffff"/><circle cx="979.2446041104139" cy="277.8312861306624" r="0.18754929157359412" fill="#ffffff"/><circle cx="608.7919142572235" cy="433.800968797727" r="1.4746612349669412" fill="#ffffff"/><circle cx="208.4696048947182" cy="347.0205558600114" r="0.1983529637405328" fill="#ffffff"/><circle cx="32.795125753292396" cy="400.53904358482384" r="0.9453911381725097" fill="#ffffff"/><circle cx="415.2696911831943" cy="467.9306673445424" r="1.0373671315392026" fill="#ffffff"/><circle cx="727.3127810698599" cy="521.2679211612787" r="0.2535961616862099" fill="#ffffff"/><circle cx="717.0652487649065" cy="111.66104725327818" r="0.939496471649361" fill="#ffffff"/><circle cx="703.941930338995" cy="560.1281406082494" r="1.47766227084603" fill="#ffffff"/><circle cx="570.0293777131672" cy="435.300170542803" r="0.15874024149046617" fill="#ffffff"/><circle cx="662.5788871359806" cy="475.6525274295281" r="1.5852052096759919" fill="#ffffff"/><circle cx="373.9911048580476" cy="142.57598350567002" r="1.6715418462729748" fill="#ffffff"/><circle cx="251.54254839126617" cy="176.59411440135742" r="1.6805659923035823" fill="#ffffff"/><circle cx="1114.3845241343479" cy="101.77031060660356" r="1.5463428527536343" fill="#ffffff"/><circle cx="408.9809025109401" cy="395.1710148592176" r="0.4647406980806388" fill="#ffffff"/><circle cx="1122.1763829747968" cy="529.0708214920663" r="1.1516720333041375" fill="#ffffff"/><circle cx="669.8839166622965" cy="594.6429402244314" r="0.8770766287143441" fill="#ffffff"/><circle cx="727.557576504788" cy="262.2204435734662" r="0.815565970446676" fill="#ffffff"/><circle cx="1139.3877919284932" cy="576.6560145186057" r="0.1920822953451844" fill="#ffffff"/><circle cx="0.963964193874256" cy="149.72871446605134" r="1.5303873980496885" fill="#ffffff"/><circle cx="1161.657864503504" cy="500.8332167307743" r="1.806483214111997" fill="#ffffff"/><circle cx="1047.6134676293975" cy="588.3031913832714" r="0.6092361002399194" fill="#ffffff"/><circle cx="505.8477206576825" cy="326.5285260753151" r="1.9605882412848623" fill="#ffffff"/><circle cx="976.5202950471923" cy="278.10003943787643" r="0.6650695687434829" fill="#ffffff"/><circle cx="436.5798704181525" cy="482.307799289108" r="1.0324762060906365" fill="#ffffff"/><circle cx="843.1790795177607" cy="180.30692203470355" r="0.8154870489929311" fill="#ffffff"/>
            </g>
            <g transform="translate(600, 250) rotate(-45)">
                <path d="M-40,0 Q0,-120 40,0 V100 H-40 Z" fill="#f9fafb"/>
                <path d="M-40,60 L-70,100 L-40,100 Z" fill="#ef4444"/>
                <path d="M40,60 L70,100 L40,100 Z" fill="#ef4444"/>
                <circle cx="0" cy="-20" r="15" fill="#38bdf8"/>
                <path d="M-30,100 Q0,160 30,100" fill="#fbbf24" opacity="0.8">
                    <animate attributeName="d" values="M-30,100 Q0,160 30,100; M-30,100 Q0,140 30,100; M-30,100 Q0,160 30,100" dur="0.2s" repeatCount="indefinite"/>
                </path>
            </g>
            <text x="600" y="500" font-family="Segoe UI, Arial" font-size="36" font-weight="800" fill="#ffffff" text-anchor="middle">Implementing Progressive Enhancement for Web AR: Bes...</text>
            <text x="600" y="540" font-family="Segoe UI, Arial" font-size="20" fill="#38bdf8" font-weight="600" text-anchor="middle">OPTIMIZED PERFORMANCE • CORE WEB VITALS</text>
        </svg>