<svg width="1200" height="600" viewBox="0 0 1200 600" xmlns="http://www.w3.org/2000/svg">
        <rect width="1200" height="600" fill="#111827"/><path d="M 831.9039632719068 183.87760540717863 L 782.0094769918796 233.87760540717863 L 846.6026642661745 283.87760540717863" stroke="#10b981" fill="none" opacity="0.4"/>
                    <circle cx="831.9039632719068" cy="183.87760540717863" r="3" fill="#fbbf24"/><path d="M 1085.8245020062895 19.666077691908868 L 1082.8363883703787 69.66607769190887 L 1082.798591476967 119.66607769190887" stroke="#10b981" fill="none" opacity="0.4"/>
                    <circle cx="1085.8245020062895" cy="19.666077691908868" r="3" fill="#fbbf24"/><path d="M 388.766318213311 392.46373849528027 L 386.0404461737744 442.46373849528027 L 397.7857756144658 492.46373849528027" stroke="#10b981" fill="none" opacity="0.4"/>
                    <circle cx="388.766318213311" cy="392.46373849528027" r="3" fill="#fbbf24"/><path d="M 546.7352221417514 55.113150533725275 L 548.2326352375367 105.11315053372527 L 522.2607894382691 155.11315053372527" stroke="#10b981" fill="none" opacity="0.4"/>
                    <circle cx="546.7352221417514" cy="55.113150533725275" r="3" fill="#fbbf24"/><path d="M 778.4856377948017 252.46323718092754 L 749.1168545787332 302.46323718092754 L 808.0792190897228 352.46323718092754" stroke="#10b981" fill="none" opacity="0.4"/>
                    <circle cx="778.4856377948017" cy="252.46323718092754" r="3" fill="#fbbf24"/><path d="M 923.0266864367877 250.9511418855709 L 961.9933580044744 300.9511418855709 L 886.710478047462 350.9511418855709" stroke="#10b981" fill="none" opacity="0.4"/>
                    <circle cx="923.0266864367877" cy="250.9511418855709" r="3" fill="#fbbf24"/><path d="M 798.8852007591049 67.02445825503673 L 807.4239448828962 117.02445825503673 L 761.9995747918438 167.02445825503673" stroke="#10b981" fill="none" opacity="0.4"/>
                    <circle cx="798.8852007591049" cy="67.02445825503673" r="3" fill="#fbbf24"/><path d="M 1159.0911552942089 365.5598559380451 L 1154.3158855231923 415.5598559380451 L 1131.7231215710308 465.5598559380451" stroke="#10b981" fill="none" opacity="0.4"/>
                    <circle cx="1159.0911552942089" cy="365.5598559380451" r="3" fill="#fbbf24"/><path d="M 305.45302312275453 259.25186270760605 L 346.579256068253 309.25186270760605 L 302.5599186380532 359.25186270760605" stroke="#10b981" fill="none" opacity="0.4"/>
                    <circle cx="305.45302312275453" cy="259.25186270760605" r="3" fill="#fbbf24"/><path d="M 1092.7455534401815 157.9012790494744 L 1077.9345369105613 207.9012790494744 L 1052.942090868055 257.9012790494744" stroke="#10b981" fill="none" opacity="0.4"/>
                    <circle cx="1092.7455534401815" cy="157.9012790494744" r="3" fill="#fbbf24"/>
        <text x="600" y="520" font-family="Segoe UI, Arial, sans-serif" font-size="38" font-weight="800" fill="#ffffff" text-anchor="middle">Implementing Contextual Help Widgets with Real-time User ...</text>
        <text x="600" y="560" font-family="Segoe UI, Arial, sans-serif" font-size="16" font-weight="600" fill="#10b981" text-anchor="middle" style="letter-spacing: 4px; text-transform: uppercase;">UI UX Powerhouse • Specialized Series</text>
    </svg>