<svg width="1200" height="600" viewBox="0 0 1200 600" xmlns="http://www.w3.org/2000/svg">
        <rect width="1200" height="600" fill="#0f172a"/><rect x="150" y="245.36617286066758" width="60" height="104.63382713933242" fill="#38bdf8" opacity="0.6"/>
                    <rect x="170" y="225.36617286066758" width="60" height="104.63382713933242" fill="#818cf8" opacity="0.4" transform="skewY(-20)"/><rect x="270" y="282.6341040145621" width="60" height="67.36589598543787" fill="#38bdf8" opacity="0.6"/>
                    <rect x="290" y="262.6341040145621" width="60" height="67.36589598543787" fill="#818cf8" opacity="0.4" transform="skewY(-20)"/><rect x="390" y="232.78649435051193" width="60" height="117.21350564948807" fill="#38bdf8" opacity="0.6"/>
                    <rect x="410" y="212.78649435051193" width="60" height="117.21350564948807" fill="#818cf8" opacity="0.4" transform="skewY(-20)"/><rect x="510" y="265.1689230124248" width="60" height="84.83107698757522" fill="#38bdf8" opacity="0.6"/>
                    <rect x="530" y="245.16892301242478" width="60" height="84.83107698757522" fill="#818cf8" opacity="0.4" transform="skewY(-20)"/><rect x="630" y="238.53251639011432" width="60" height="111.46748360988568" fill="#38bdf8" opacity="0.6"/>
                    <rect x="650" y="218.53251639011432" width="60" height="111.46748360988568" fill="#818cf8" opacity="0.4" transform="skewY(-20)"/><rect x="750" y="243.3603681681234" width="60" height="106.63963183187661" fill="#38bdf8" opacity="0.6"/>
                    <rect x="770" y="223.3603681681234" width="60" height="106.63963183187661" fill="#818cf8" opacity="0.4" transform="skewY(-20)"/><rect x="870" y="127.86263219668399" width="60" height="222.137367803316" fill="#38bdf8" opacity="0.6"/>
                    <rect x="890" y="107.86263219668399" width="60" height="222.137367803316" fill="#818cf8" opacity="0.4" transform="skewY(-20)"/><rect x="990" y="223.66032962199824" width="60" height="126.33967037800176" fill="#38bdf8" opacity="0.6"/>
                    <rect x="1010" y="203.66032962199824" width="60" height="126.33967037800176" fill="#818cf8" opacity="0.4" transform="skewY(-20)"/>
        <text x="600" y="520" font-family="Segoe UI, Arial, sans-serif" font-size="38" font-weight="800" fill="#ffffff" text-anchor="middle">Implementing Advanced Data Visualization Techniques for A...</text>
        <text x="600" y="560" font-family="Segoe UI, Arial, sans-serif" font-size="16" font-weight="600" fill="#38bdf8" text-anchor="middle" style="letter-spacing: 4px; text-transform: uppercase;">UI UX Powerhouse • Specialized Series</text>
    </svg>