<svg width="1200" height="600" viewBox="0 0 1200 600" xmlns="http://www.w3.org/2000/svg">
        <rect width="1200" height="600" fill="#1e1b4b"/><path d="M 1005.4068728917628 38.29792095857556 L 979.1584612700944 88.29792095857556 L 993.6871561129919 138.29792095857556" stroke="#f43f5e" fill="none" opacity="0.4"/>
                    <circle cx="1005.4068728917628" cy="38.29792095857556" r="3" fill="#22d3ee"/><path d="M 1007.416788932187 228.79167572173174 L 982.84727542773 278.79167572173174 L 972.4883557213616 328.79167572173174" stroke="#f43f5e" fill="none" opacity="0.4"/>
                    <circle cx="1007.416788932187" cy="228.79167572173174" r="3" fill="#22d3ee"/><path d="M 404.19086089659686 232.07417557787267 L 415.1778100456795 282.07417557787267 L 385.52654274199085 332.07417557787267" stroke="#f43f5e" fill="none" opacity="0.4"/>
                    <circle cx="404.19086089659686" cy="232.07417557787267" r="3" fill="#22d3ee"/><path d="M 386.41037360284827 193.98751875560265 L 423.5513805722803 243.98751875560265 L 344.9055450351807 293.98751875560265" stroke="#f43f5e" fill="none" opacity="0.4"/>
                    <circle cx="386.41037360284827" cy="193.98751875560265" r="3" fill="#22d3ee"/><path d="M 1099.2211921526177 18.26287745261652 L 1141.215803484738 68.26287745261652 L 1080.4492389894222 118.26287745261652" stroke="#f43f5e" fill="none" opacity="0.4"/>
                    <circle cx="1099.2211921526177" cy="18.26287745261652" r="3" fill="#22d3ee"/><path d="M 317.7943358059565 41.26416137441993 L 323.45516966215655 91.26416137441993 L 292.1371387515137 141.26416137441993" stroke="#f43f5e" fill="none" opacity="0.4"/>
                    <circle cx="317.7943358059565" cy="41.26416137441993" r="3" fill="#22d3ee"/><path d="M 24.284425876203386 286.31955375567486 L 49.96221842374098 336.31955375567486 L 15.541668070045489 386.31955375567486" stroke="#f43f5e" fill="none" opacity="0.4"/>
                    <circle cx="24.284425876203386" cy="286.31955375567486" r="3" fill="#22d3ee"/><path d="M 1156.8085420542047 343.7840158247127 L 1144.9854645537016 393.7840158247127 L 1160.3367602378057 443.7840158247127" stroke="#f43f5e" fill="none" opacity="0.4"/>
                    <circle cx="1156.8085420542047" cy="343.7840158247127" r="3" fill="#22d3ee"/><path d="M 1173.062651341752 243.45710041925486 L 1145.8174821739021 293.45710041925486 L 1129.936786088183 343.45710041925486" stroke="#f43f5e" fill="none" opacity="0.4"/>
                    <circle cx="1173.062651341752" cy="243.45710041925486" r="3" fill="#22d3ee"/><path d="M 247.1370447674417 390.0286411608249 L 259.3834216856749 440.0286411608249 L 198.785617990211 490.0286411608249" stroke="#f43f5e" fill="none" opacity="0.4"/>
                    <circle cx="247.1370447674417" cy="390.0286411608249" r="3" fill="#22d3ee"/>
        <text x="600" y="520" font-family="Segoe UI, Arial, sans-serif" font-size="38" font-weight="800" fill="#ffffff" text-anchor="middle">Implementing Advanced Data Visualization Techniques for A...</text>
        <text x="600" y="560" font-family="Segoe UI, Arial, sans-serif" font-size="16" font-weight="600" fill="#f43f5e" text-anchor="middle" style="letter-spacing: 4px; text-transform: uppercase;">UI UX Powerhouse • Specialized Series</text>
    </svg>