<svg width="1200" height="600" viewBox="0 0 1200 600" xmlns="http://www.w3.org/2000/svg">
        <rect width="1200" height="600" fill="#171717"/><circle cx="178.78820832484053" cy="78.55147026093618" r="45.39328373675744" fill="#f59e0b" opacity="0.1"/><circle cx="823.8564511746517" cy="227.3364347871393" r="32.59241690419003" fill="#f59e0b" opacity="0.1"/><circle cx="155.37324852848542" cy="391.94435882309335" r="13.357865810539806" fill="#f59e0b" opacity="0.1"/><circle cx="558.8811914538383" cy="188.32238981995033" r="42.41137171475202" fill="#f59e0b" opacity="0.1"/><circle cx="1030.1733499989496" cy="326.04390157430316" r="33.77510060166969" fill="#f59e0b" opacity="0.1"/><circle cx="739.0284228044038" cy="259.6874812268652" r="33.84935970650986" fill="#f59e0b" opacity="0.1"/><circle cx="1144.0453023722512" cy="375.8014694400117" r="16.672462733643556" fill="#f59e0b" opacity="0.1"/><circle cx="185.480198264122" cy="192.09690455390955" r="41.65697466322854" fill="#f59e0b" opacity="0.1"/><circle cx="188.87609207195055" cy="311.9306662373674" r="16.513888237896026" fill="#f59e0b" opacity="0.1"/><circle cx="749.1774024882034" cy="119.18269752513879" r="43.03244522096065" fill="#f59e0b" opacity="0.1"/><circle cx="561.4452653775516" cy="206.67387258381495" r="25.888693311353563" fill="#f59e0b" opacity="0.1"/><circle cx="995.0785318450471" cy="280.9598542407912" r="21.77230492779927" fill="#f59e0b" opacity="0.1"/><circle cx="1129.4423147347743" cy="261.3411136706418" r="12.984002079174388" fill="#f59e0b" opacity="0.1"/><circle cx="1107.229476440989" cy="273.3724064688431" r="32.64936478379241" fill="#f59e0b" opacity="0.1"/><circle cx="667.1686577334185" cy="8.340274604779552" r="45.10768758635095" fill="#f59e0b" opacity="0.1"/><circle cx="727.9663634715689" cy="257.55255116346234" r="25.908337224900606" fill="#f59e0b" opacity="0.1"/><circle cx="572.6771839857975" cy="217.85610735969385" r="33.45275009392935" fill="#f59e0b" opacity="0.1"/><circle cx="1084.2228900328337" cy="169.1031929332894" r="36.18038465087011" fill="#f59e0b" opacity="0.1"/><circle cx="715.1888303516898" cy="128.94957021158007" r="22.62794491573004" fill="#f59e0b" opacity="0.1"/><circle cx="350.95662621970405" cy="237.81054706632858" r="11.758185666112695" fill="#f59e0b" opacity="0.1"/><circle cx="925.2676912587049" cy="43.46985823540308" r="10.283599032336497" fill="#f59e0b" opacity="0.1"/><circle cx="949.9459098788066" cy="93.95062551775482" r="29.944834892376093" fill="#f59e0b" opacity="0.1"/><circle cx="939.6365276048527" cy="189.80279712704942" r="11.263554913393818" fill="#f59e0b" opacity="0.1"/><circle cx="631.5533252280147" cy="181.20503627797007" r="17.033481317703263" fill="#f59e0b" opacity="0.1"/><circle cx="1112.7379583447691" cy="202.73754518275382" r="10.245591123311897" fill="#f59e0b" opacity="0.1"/><circle cx="872.3581066835322" cy="57.786326661516796" r="27.75044970359886" fill="#f59e0b" opacity="0.1"/><circle cx="1117.916538098143" cy="168.41651950926462" r="11.36612052214332" fill="#f59e0b" opacity="0.1"/><circle cx="52.083266081308466" cy="125.22271681209531" r="35.499637068751326" fill="#f59e0b" opacity="0.1"/><circle cx="832.1081553564" cy="257.7631002299313" r="46.64944853888301" fill="#f59e0b" opacity="0.1"/><circle cx="474.59806423448754" cy="59.08492515227408" r="18.304608996331808" fill="#f59e0b" opacity="0.1"/>
        <text x="600" y="520" font-family="Segoe UI, Arial, sans-serif" font-size="38" font-weight="800" fill="#ffffff" text-anchor="middle">Implementing Adaptive Color Contrast in Web Applications ...</text>
        <text x="600" y="560" font-family="Segoe UI, Arial, sans-serif" font-size="16" font-weight="600" fill="#f59e0b" text-anchor="middle" style="letter-spacing: 4px; text-transform: uppercase;">UI UX Powerhouse • Specialized Series</text>
    </svg>