<svg width="1200" height="600" viewBox="0 0 1200 600" xmlns="http://www.w3.org/2000/svg">
            <rect width="1200" height="600" fill="#0c4a6e"/><path d="M 640.3467207834183 313.2456040882971 L 678.8646171708024 363.2456040882971 L 614.536224334006 413.2456040882971" stroke="#7dd3fc" fill="none" opacity="0.4"/>
                    <circle cx="640.3467207834183" cy="313.2456040882971" r="3" fill="#f43f5e"/><path d="M 382.5384901385405 268.60050929462886 L 355.38403651044064 318.60050929462886 L 421.3621152985638 368.60050929462886" stroke="#7dd3fc" fill="none" opacity="0.4"/>
                    <circle cx="382.5384901385405" cy="268.60050929462886" r="3" fill="#f43f5e"/><path d="M 993.4129624587513 107.38445138376846 L 960.5642268223164 157.38445138376846 L 1012.8154432185511 207.38445138376846" stroke="#7dd3fc" fill="none" opacity="0.4"/>
                    <circle cx="993.4129624587513" cy="107.38445138376846" r="3" fill="#f43f5e"/><path d="M 540.550085704308 359.13397841140977 L 565.9449015654445 409.13397841140977 L 560.3348509383977 459.13397841140977" stroke="#7dd3fc" fill="none" opacity="0.4"/>
                    <circle cx="540.550085704308" cy="359.13397841140977" r="3" fill="#f43f5e"/><path d="M 1000.9151968813967 101.62424338559504 L 1021.1435640266245 151.62424338559504 L 953.7398709466288 201.62424338559504" stroke="#7dd3fc" fill="none" opacity="0.4"/>
                    <circle cx="1000.9151968813967" cy="101.62424338559504" r="3" fill="#f43f5e"/><path d="M 1082.464070811693 117.75254627827962 L 1052.2057049328396 167.75254627827962 L 1034.2271448978863 217.75254627827962" stroke="#7dd3fc" fill="none" opacity="0.4"/>
                    <circle cx="1082.464070811693" cy="117.75254627827962" r="3" fill="#f43f5e"/><path d="M 719.1728662102832 167.80447456112597 L 738.0660260001605 217.80447456112597 L 669.7621539904048 267.80447456112597" stroke="#7dd3fc" fill="none" opacity="0.4"/>
                    <circle cx="719.1728662102832" cy="167.80447456112597" r="3" fill="#f43f5e"/><path d="M 312.812363671037 57.831445019473904 L 334.9521166482191 107.8314450194739 L 304.70499536795614 157.8314450194739" stroke="#7dd3fc" fill="none" opacity="0.4"/>
                    <circle cx="312.812363671037" cy="57.831445019473904" r="3" fill="#f43f5e"/><path d="M 414.07607925357297 249.4984925204335 L 385.58231595252437 299.4984925204335 L 419.97909908495785 349.4984925204335" stroke="#7dd3fc" fill="none" opacity="0.4"/>
                    <circle cx="414.07607925357297" cy="249.4984925204335" r="3" fill="#f43f5e"/><path d="M 1009.355727581351 52.67540337226819 L 992.8618881634065 102.67540337226819 L 1040.1697644312662 152.6754033722682" stroke="#7dd3fc" fill="none" opacity="0.4"/>
                    <circle cx="1009.355727581351" cy="52.67540337226819" r="3" fill="#f43f5e"/>
            <text x="600" y="520" font-family="Segoe UI, Arial, sans-serif" font-size="38" font-weight="800" fill="#ffffff" text-anchor="middle">Implementing Custom Gesture Recognition for Complex Web A...</text>
            <text x="600" y="560" font-family="Segoe UI, Arial, sans-serif" font-size="16" font-weight="600" fill="#7dd3fc" text-anchor="middle" style="letter-spacing: 4px; text-transform: uppercase;">UI UX Powerhouse • Specialized Series</text>
        </svg>