<svg width="1200" height="600" viewBox="0 0 1200 600" xmlns="http://www.w3.org/2000/svg">
        <rect width="1200" height="600" fill="#0f172a"/><path d="M 1082.9027121919353 291.85938317823457 L 1124.2179478342223 341.85938317823457 L 1038.4806049865801 391.85938317823457" stroke="#38bdf8" fill="none" opacity="0.4"/>
                    <circle cx="1082.9027121919353" cy="291.85938317823457" r="3" fill="#f472b6"/><path d="M 757.8261268368806 184.60971450258512 L 785.5823523102117 234.60971450258512 L 759.4874692518715 284.6097145025851" stroke="#38bdf8" fill="none" opacity="0.4"/>
                    <circle cx="757.8261268368806" cy="184.60971450258512" r="3" fill="#f472b6"/><path d="M 902.8909728906001 226.04369261389365 L 876.9199697064323 276.04369261389365 L 884.8639356003332 326.04369261389365" stroke="#38bdf8" fill="none" opacity="0.4"/>
                    <circle cx="902.8909728906001" cy="226.04369261389365" r="3" fill="#f472b6"/><path d="M 1098.7378394587267 44.457158277145936 L 1097.645983711982 94.45715827714594 L 1109.0999373243449 144.45715827714594" stroke="#38bdf8" fill="none" opacity="0.4"/>
                    <circle cx="1098.7378394587267" cy="44.457158277145936" r="3" fill="#f472b6"/><path d="M 778.2595102129562 102.11921877416898 L 753.2572707405052 152.11921877416898 L 771.159412088673 202.11921877416898" stroke="#38bdf8" fill="none" opacity="0.4"/>
                    <circle cx="778.2595102129562" cy="102.11921877416898" r="3" fill="#f472b6"/><path d="M 258.99607860992546 100.57052864904108 L 299.87350373321533 150.57052864904108 L 295.7301983369689 200.57052864904108" stroke="#38bdf8" fill="none" opacity="0.4"/>
                    <circle cx="258.99607860992546" cy="100.57052864904108" r="3" fill="#f472b6"/><path d="M 963.7040508110658 345.808616613067 L 947.3624212581853 395.808616613067 L 917.4847041958856 445.808616613067" stroke="#38bdf8" fill="none" opacity="0.4"/>
                    <circle cx="963.7040508110658" cy="345.808616613067" r="3" fill="#f472b6"/><path d="M 344.856171646461 261.775266785844 L 359.73227236490857 311.775266785844 L 390.0874137021674 361.775266785844" stroke="#38bdf8" fill="none" opacity="0.4"/>
                    <circle cx="344.856171646461" cy="261.775266785844" r="3" fill="#f472b6"/><path d="M 300.9616897434171 192.2485597919149 L 321.4732659249421 242.2485597919149 L 327.84887002653704 292.2485597919149" stroke="#38bdf8" fill="none" opacity="0.4"/>
                    <circle cx="300.9616897434171" cy="192.2485597919149" r="3" fill="#f472b6"/><path d="M 1181.3973129763326 110.60315083304886 L 1158.9538481222917 160.60315083304886 L 1186.8054746786584 210.60315083304886" stroke="#38bdf8" fill="none" opacity="0.4"/>
                    <circle cx="1181.3973129763326" cy="110.60315083304886" r="3" fill="#f472b6"/>
        <text x="600" y="520" font-family="Segoe UI, Arial, sans-serif" font-size="38" font-weight="800" fill="#ffffff" text-anchor="middle">Implementing Advanced Focus Management Techniques in AR I...</text>
        <text x="600" y="560" font-family="Segoe UI, Arial, sans-serif" font-size="16" font-weight="600" fill="#38bdf8" text-anchor="middle" style="letter-spacing: 4px; text-transform: uppercase;">UI UX Powerhouse • Specialized Series</text>
    </svg>