<svg width="1200" height="600" viewBox="0 0 1200 600" xmlns="http://www.w3.org/2000/svg">
        <rect width="1200" height="600" fill="#111827"/><circle cx="241.39201812922693" cy="272.3115666064132" r="48.966638346464606" fill="#10b981" opacity="0.1"/><circle cx="385.17038797363057" cy="58.75733794164262" r="23.717031194009905" fill="#10b981" opacity="0.1"/><circle cx="865.8448495610173" cy="355.0777796583134" r="45.94065119919833" fill="#10b981" opacity="0.1"/><circle cx="757.6896196354937" cy="393.2465662717277" r="18.51848052257992" fill="#10b981" opacity="0.1"/><circle cx="1120.8076838905981" cy="199.1368366216193" r="10.629311955781304" fill="#10b981" opacity="0.1"/><circle cx="150.9023623282701" cy="64.15012857178226" r="11.133060016654781" fill="#10b981" opacity="0.1"/><circle cx="527.7975996952591" cy="212.03044310605037" r="33.82671245686652" fill="#10b981" opacity="0.1"/><circle cx="357.6837621862069" cy="201.80518319284602" r="21.537111678526344" fill="#10b981" opacity="0.1"/><circle cx="921.0306132557662" cy="224.36256143955688" r="23.78573751080694" fill="#10b981" opacity="0.1"/><circle cx="690.0441947902436" cy="288.33178833820057" r="14.300475712079788" fill="#10b981" opacity="0.1"/><circle cx="650.8520862545993" cy="119.29465113935294" r="23.214144361409126" fill="#10b981" opacity="0.1"/><circle cx="863.8374439098698" cy="208.20829771619174" r="16.971010993074742" fill="#10b981" opacity="0.1"/><circle cx="852.5914298886164" cy="20.073964320909" r="27.37272035006754" fill="#10b981" opacity="0.1"/><circle cx="261.06144909063005" cy="164.64339878912142" r="41.89033218124678" fill="#10b981" opacity="0.1"/><circle cx="422.7210743680189" cy="113.68577026187268" r="29.838727778042085" fill="#10b981" opacity="0.1"/><circle cx="1056.3704664778925" cy="28.398248556550243" r="48.10459647393145" fill="#10b981" opacity="0.1"/><circle cx="871.3074735554983" cy="141.31924503017217" r="42.5497361458838" fill="#10b981" opacity="0.1"/><circle cx="1037.62666349121" cy="332.3275202350487" r="41.711682350432966" fill="#10b981" opacity="0.1"/><circle cx="783.5514640333713" cy="362.3418326067622" r="40.34388810454402" fill="#10b981" opacity="0.1"/><circle cx="994.2645040922798" cy="177.8449140372686" r="42.407607130517135" fill="#10b981" opacity="0.1"/><circle cx="834.193979610427" cy="323.67843278912005" r="23.82588882530399" fill="#10b981" opacity="0.1"/><circle cx="1177.9091313750541" cy="148.00507058535004" r="40.29881162823585" fill="#10b981" opacity="0.1"/><circle cx="837.9014413178083" cy="220.79007172944785" r="10.870834806837593" fill="#10b981" opacity="0.1"/><circle cx="954.1266308311606" cy="299.935338794603" r="33.416254521434894" fill="#10b981" opacity="0.1"/><circle cx="192.02320946777718" cy="237.14180183960707" r="12.43059125245054" fill="#10b981" opacity="0.1"/><circle cx="646.1239699005091" cy="371.30323147794115" r="39.008876967272954" fill="#10b981" opacity="0.1"/><circle cx="1185.4965034937777" cy="118.42582281897194" r="48.93964833969221" fill="#10b981" opacity="0.1"/><circle cx="36.45294959751482" cy="238.50659303352586" r="30.371478987472074" fill="#10b981" opacity="0.1"/><circle cx="793.5542827559402" cy="317.58871319834725" r="34.78205847399295" fill="#10b981" opacity="0.1"/><circle cx="1115.6677411610872" cy="152.5125125193881" r="27.30448497539328" fill="#10b981" opacity="0.1"/>
        <text x="600" y="520" font-family="Segoe UI, Arial, sans-serif" font-size="38" font-weight="800" fill="#ffffff" text-anchor="middle">Implementing Contextual Design Patterns for Error Message...</text>
        <text x="600" y="560" font-family="Segoe UI, Arial, sans-serif" font-size="16" font-weight="600" fill="#10b981" text-anchor="middle" style="letter-spacing: 4px; text-transform: uppercase;">UI UX Powerhouse • Specialized Series</text>
    </svg>