<svg width="1200" height="600" viewBox="0 0 1200 600" xmlns="http://www.w3.org/2000/svg">
            <rect width="1200" height="600" fill="#171717"/><path d="M 857.0011020565289 319.9519346231682 L 858.2966565756578 369.9519346231682 L 824.411537963897 419.9519346231682" stroke="#f59e0b" fill="none" opacity="0.4"/>
                    <circle cx="857.0011020565289" cy="319.9519346231682" r="3" fill="#ec4899"/><path d="M 1107.4324429908302 228.06540476631199 L 1107.4106633651354 278.065404766312 L 1135.9832251158878 328.065404766312" stroke="#f59e0b" fill="none" opacity="0.4"/>
                    <circle cx="1107.4324429908302" cy="228.06540476631199" r="3" fill="#ec4899"/><path d="M 32.307798598048976 198.2871277056347 L 80.21928662637947 248.2871277056347 L -5.476870200800477 298.2871277056347" stroke="#f59e0b" fill="none" opacity="0.4"/>
                    <circle cx="32.307798598048976" cy="198.2871277056347" r="3" fill="#ec4899"/><path d="M 1130.7364737307807 163.48842020561278 L 1097.2980481461718 213.48842020561278 L 1124.4422001871726 263.4884202056128" stroke="#f59e0b" fill="none" opacity="0.4"/>
                    <circle cx="1130.7364737307807" cy="163.48842020561278" r="3" fill="#ec4899"/><path d="M 386.3517464738834 289.14008325955365 L 421.74142602470965 339.14008325955365 L 418.7447886432196 389.14008325955365" stroke="#f59e0b" fill="none" opacity="0.4"/>
                    <circle cx="386.3517464738834" cy="289.14008325955365" r="3" fill="#ec4899"/><path d="M 470.8750608442642 127.40794490018743 L 483.5826185879341 177.40794490018743 L 475.85522332792607 227.40794490018743" stroke="#f59e0b" fill="none" opacity="0.4"/>
                    <circle cx="470.8750608442642" cy="127.40794490018743" r="3" fill="#ec4899"/><path d="M 1021.8913787113706 250.84930026787333 L 973.3465022615746 300.84930026787333 L 1052.247481200402 350.84930026787333" stroke="#f59e0b" fill="none" opacity="0.4"/>
                    <circle cx="1021.8913787113706" cy="250.84930026787333" r="3" fill="#ec4899"/><path d="M 717.5553380679048 232.32054878390045 L 695.5870539665739 282.32054878390045 L 726.0932557464059 332.32054878390045" stroke="#f59e0b" fill="none" opacity="0.4"/>
                    <circle cx="717.5553380679048" cy="232.32054878390045" r="3" fill="#ec4899"/><path d="M 392.1566829478252 255.0509142853116 L 397.2388679564574 305.0509142853116 L 397.5535967001633 355.0509142853116" stroke="#f59e0b" fill="none" opacity="0.4"/>
                    <circle cx="392.1566829478252" cy="255.0509142853116" r="3" fill="#ec4899"/><path d="M 624.6281969521078 142.09323422708167 L 590.6121227558288 192.09323422708167 L 632.1598724728574 242.09323422708167" stroke="#f59e0b" fill="none" opacity="0.4"/>
                    <circle cx="624.6281969521078" cy="142.09323422708167" r="3" fill="#ec4899"/>
            <text x="600" y="520" font-family="Segoe UI, Arial, sans-serif" font-size="38" font-weight="800" fill="#ffffff" text-anchor="middle">Implementing a Context-Aware Tooltip System for Dynamic C...</text>
            <text x="600" y="560" font-family="Segoe UI, Arial, sans-serif" font-size="16" font-weight="600" fill="#f59e0b" text-anchor="middle" style="letter-spacing: 4px; text-transform: uppercase;">UI UX Powerhouse • Specialized Series</text>
        </svg>