<svg width="1200" height="600" viewBox="0 0 1200 600" xmlns="http://www.w3.org/2000/svg">
        
            <rect width="1200" height="600" fill="#1a1a1a"/>
            <line x1="581.8454316184216" y1="294.15468289553246" x2="975.2456726902892" y2="51.01673224089609" stroke="#f97316" stroke-width="0.5" opacity="0.4"/><line x1="581.8454316184216" y1="294.15468289553246" x2="613.619666032173" y2="149.40018269844586" stroke="#f97316" stroke-width="0.5" opacity="0.4"/><line x1="581.8454316184216" y1="294.15468289553246" x2="76.3277158523124" y2="217.83654199389275" stroke="#f97316" stroke-width="0.5" opacity="0.4"/><line x1="908.9556983901275" y1="243.43623325694352" x2="935.7403236888786" y2="247.8957671855369" stroke="#f97316" stroke-width="0.5" opacity="0.4"/><line x1="908.9556983901275" y1="243.43623325694352" x2="608.8828177256801" y2="312.89970428051674" stroke="#f97316" stroke-width="0.5" opacity="0.4"/><line x1="908.9556983901275" y1="243.43623325694352" x2="105.30842070729705" y2="269.8150998134224" stroke="#f97316" stroke-width="0.5" opacity="0.4"/><line x1="935.7403236888786" y1="247.8957671855369" x2="613.619666032173" y2="149.40018269844586" stroke="#f97316" stroke-width="0.5" opacity="0.4"/><line x1="935.7403236888786" y1="247.8957671855369" x2="105.30842070729705" y2="269.8150998134224" stroke="#f97316" stroke-width="0.5" opacity="0.4"/><line x1="613.619666032173" y1="149.40018269844586" x2="749.3352525918453" y2="28.120301081253274" stroke="#f97316" stroke-width="0.5" opacity="0.4"/><line x1="613.619666032173" y1="149.40018269844586" x2="913.3719606845261" y2="317.4727205889212" stroke="#f97316" stroke-width="0.5" opacity="0.4"/><line x1="613.619666032173" y1="149.40018269844586" x2="608.8828177256801" y2="312.89970428051674" stroke="#f97316" stroke-width="0.5" opacity="0.4"/><line x1="613.619666032173" y1="149.40018269844586" x2="105.30842070729705" y2="269.8150998134224" stroke="#f97316" stroke-width="0.5" opacity="0.4"/><line x1="749.3352525918453" y1="28.120301081253274" x2="587.5492374216265" y2="67.96332512822119" stroke="#f97316" stroke-width="0.5" opacity="0.4"/><line x1="749.3352525918453" y1="28.120301081253274" x2="608.8828177256801" y2="312.89970428051674" stroke="#f97316" stroke-width="0.5" opacity="0.4"/><line x1="749.3352525918453" y1="28.120301081253274" x2="105.30842070729705" y2="269.8150998134224" stroke="#f97316" stroke-width="0.5" opacity="0.4"/><line x1="913.3719606845261" y1="317.4727205889212" x2="608.8828177256801" y2="312.89970428051674" stroke="#f97316" stroke-width="0.5" opacity="0.4"/><line x1="917.5088962838345" y1="188.59872864049976" x2="608.8828177256801" y2="312.89970428051674" stroke="#f97316" stroke-width="0.5" opacity="0.4"/><line x1="587.5492374216265" y1="67.96332512822119" x2="105.30842070729705" y2="269.8150998134224" stroke="#f97316" stroke-width="0.5" opacity="0.4"/><line x1="608.8828177256801" y1="312.89970428051674" x2="105.30842070729705" y2="269.8150998134224" stroke="#f97316" stroke-width="0.5" opacity="0.4"/>
            <circle cx="581.8454316184216" cy="294.15468289553246" r="5.995332783839331" fill="#8b5cf6" opacity="0.6"/><circle cx="975.2456726902892" cy="51.01673224089609" r="2.287786907982081" fill="#8b5cf6" opacity="0.6"/><circle cx="908.9556983901275" cy="243.43623325694352" r="4.479381627512339" fill="#8b5cf6" opacity="0.6"/><circle cx="935.7403236888786" cy="247.8957671855369" r="4.832091593845689" fill="#8b5cf6" opacity="0.6"/><circle cx="613.619666032173" cy="149.40018269844586" r="2.6951900823114556" fill="#8b5cf6" opacity="0.6"/><circle cx="749.3352525918453" cy="28.120301081253274" r="2.5040670306625543" fill="#8b5cf6" opacity="0.6"/><circle cx="913.3719606845261" cy="317.4727205889212" r="3.787193543248577" fill="#8b5cf6" opacity="0.6"/><circle cx="917.5088962838345" cy="188.59872864049976" r="2.9318279296953733" fill="#8b5cf6" opacity="0.6"/><circle cx="587.5492374216265" cy="67.96332512822119" r="3.9368805435588" fill="#8b5cf6" opacity="0.6"/><circle cx="608.8828177256801" cy="312.89970428051674" r="4.164877535513369" fill="#8b5cf6" opacity="0.6"/><circle cx="76.3277158523124" cy="217.83654199389275" r="2.872554167508497" fill="#8b5cf6" opacity="0.6"/><circle cx="105.30842070729705" cy="269.8150998134224" r="5.430753678811016" fill="#8b5cf6" opacity="0.6"/>
        
        <text x="600" y="520" font-family="Segoe UI, Arial, sans-serif" font-size="38" font-weight="800" fill="#ffffff" text-anchor="middle">Implementing Contextual AI-Driven Personalization in E-Co...</text>
        <text x="600" y="560" font-family="Segoe UI, Arial, sans-serif" font-size="16" font-weight="600" fill="#f97316" text-anchor="middle" style="letter-spacing: 4px; text-transform: uppercase;">UI UX Powerhouse • Intelligence in Design</text>
    </svg>