<svg width="1200" height="600" viewBox="0 0 1200 600" xmlns="http://www.w3.org/2000/svg">
        
            <rect width="1200" height="600" fill="#312e81"/>
            <line x1="542.7785462479733" y1="207.13467187360948" x2="1171.3926724842167" y2="353.28192256274633" stroke="#818cf8" stroke-width="0.5" opacity="0.4"/><line x1="542.7785462479733" y1="207.13467187360948" x2="1018.7830641378241" y2="377.24458966913517" stroke="#818cf8" stroke-width="0.5" opacity="0.4"/><line x1="542.7785462479733" y1="207.13467187360948" x2="282.06489721233083" y2="148.48508349314216" stroke="#818cf8" stroke-width="0.5" opacity="0.4"/><line x1="246.8655630644207" y1="167.60731541726273" x2="115.93151802917419" y2="179.60966294963328" stroke="#818cf8" stroke-width="0.5" opacity="0.4"/><line x1="1130.7359369689948" y1="371.7908730799536" x2="837.0545559908351" y2="70.60480790605652" stroke="#818cf8" stroke-width="0.5" opacity="0.4"/><line x1="1130.7359369689948" y1="371.7908730799536" x2="1097.0727086169063" y2="386.222535161869" stroke="#818cf8" stroke-width="0.5" opacity="0.4"/><line x1="115.93151802917419" y1="179.60966294963328" x2="646.346795145655" y2="201.5104424333913" stroke="#818cf8" stroke-width="0.5" opacity="0.4"/><line x1="115.93151802917419" y1="179.60966294963328" x2="282.06489721233083" y2="148.48508349314216" stroke="#818cf8" stroke-width="0.5" opacity="0.4"/><line x1="1171.3926724842167" y1="353.28192256274633" x2="1018.7830641378241" y2="377.24458966913517" stroke="#818cf8" stroke-width="0.5" opacity="0.4"/><line x1="1171.3926724842167" y1="353.28192256274633" x2="1178.7086578391609" y2="21.89264040425769" stroke="#818cf8" stroke-width="0.5" opacity="0.4"/><line x1="1171.3926724842167" y1="353.28192256274633" x2="263.33271146922925" y2="364.20796378979503" stroke="#818cf8" stroke-width="0.5" opacity="0.4"/><line x1="837.0545559908351" y1="70.60480790605652" x2="646.346795145655" y2="201.5104424333913" stroke="#818cf8" stroke-width="0.5" opacity="0.4"/><line x1="837.0545559908351" y1="70.60480790605652" x2="1097.0727086169063" y2="386.222535161869" stroke="#818cf8" stroke-width="0.5" opacity="0.4"/><line x1="646.346795145655" y1="201.5104424333913" x2="1018.7830641378241" y2="377.24458966913517" stroke="#818cf8" stroke-width="0.5" opacity="0.4"/><line x1="646.346795145655" y1="201.5104424333913" x2="263.33271146922925" y2="364.20796378979503" stroke="#818cf8" stroke-width="0.5" opacity="0.4"/><line x1="646.346795145655" y1="201.5104424333913" x2="282.06489721233083" y2="148.48508349314216" stroke="#818cf8" stroke-width="0.5" opacity="0.4"/><line x1="1018.7830641378241" y1="377.24458966913517" x2="1097.0727086169063" y2="386.222535161869" stroke="#818cf8" stroke-width="0.5" opacity="0.4"/><line x1="1018.7830641378241" y1="377.24458966913517" x2="282.06489721233083" y2="148.48508349314216" stroke="#818cf8" stroke-width="0.5" opacity="0.4"/>
            <circle cx="542.7785462479733" cy="207.13467187360948" r="4.705768785326654" fill="#fcd34d" opacity="0.6"/><circle cx="246.8655630644207" cy="167.60731541726273" r="4.121820482650946" fill="#fcd34d" opacity="0.6"/><circle cx="1130.7359369689948" cy="371.7908730799536" r="5.534500827270676" fill="#fcd34d" opacity="0.6"/><circle cx="115.93151802917419" cy="179.60966294963328" r="2.6865346148842946" fill="#fcd34d" opacity="0.6"/><circle cx="1171.3926724842167" cy="353.28192256274633" r="4.431132123994757" fill="#fcd34d" opacity="0.6"/><circle cx="837.0545559908351" cy="70.60480790605652" r="3.534938991884701" fill="#fcd34d" opacity="0.6"/><circle cx="646.346795145655" cy="201.5104424333913" r="5.1582845416342025" fill="#fcd34d" opacity="0.6"/><circle cx="1018.7830641378241" cy="377.24458966913517" r="3.0080836142115004" fill="#fcd34d" opacity="0.6"/><circle cx="1178.7086578391609" cy="21.89264040425769" r="4.837529393444129" fill="#fcd34d" opacity="0.6"/><circle cx="263.33271146922925" cy="364.20796378979503" r="4.840487351601041" fill="#fcd34d" opacity="0.6"/><circle cx="1097.0727086169063" cy="386.222535161869" r="5.340783994059166" fill="#fcd34d" opacity="0.6"/><circle cx="282.06489721233083" cy="148.48508349314216" r="5.9880673364241375" fill="#fcd34d" opacity="0.6"/>
        
        <text x="600" y="520" font-family="Segoe UI, Arial, sans-serif" font-size="38" font-weight="800" fill="#ffffff" text-anchor="middle">Implementing Content-Aware Image Resizing in React Using ...</text>
        <text x="600" y="560" font-family="Segoe UI, Arial, sans-serif" font-size="16" font-weight="600" fill="#818cf8" text-anchor="middle" style="letter-spacing: 4px; text-transform: uppercase;">UI UX Powerhouse • Intelligence in Design</text>
    </svg>