<svg width="1200" height="600" viewBox="0 0 1200 600" xmlns="http://www.w3.org/2000/svg">
        
            <rect width="1200" height="600" fill="#f8fafc"/>
            <rect x="100" y="100" width="1000" height="350" rx="10" fill="#ffffff" stroke="#e2e8f0"/>
            <rect x="150" y="161.28806636488662" width="31.57894736842105" height="238.71193363511338" fill="#34d399" rx="4"/><rect x="194.73684210526315" y="178.44428684129525" width="31.57894736842105" height="221.55571315870475" fill="#34d399" rx="4"/><rect x="239.4736842105263" y="329.856869593732" width="31.57894736842105" height="70.14313040626803" fill="#34d399" rx="4"/><rect x="284.2105263157895" y="263.55288233935426" width="31.57894736842105" height="136.44711766064574" fill="#34d399" rx="4"/><rect x="328.9473684210526" y="282.9825827207969" width="31.57894736842105" height="117.01741727920307" fill="#34d399" rx="4"/><rect x="373.6842105263158" y="232.69921797418647" width="31.57894736842105" height="167.30078202581353" fill="#34d399" rx="4"/><rect x="418.42105263157896" y="178.8731458269467" width="31.57894736842105" height="221.1268541730533" fill="#34d399" rx="4"/><rect x="463.1578947368421" y="165.8312503255729" width="31.57894736842105" height="234.1687496744271" fill="#34d399" rx="4"/><rect x="507.89473684210526" y="229.87028231582372" width="31.57894736842105" height="170.12971768417628" fill="#34d399" rx="4"/><rect x="552.6315789473684" y="342.72285286956503" width="31.57894736842105" height="57.27714713043497" fill="#34d399" rx="4"/><rect x="597.3684210526316" y="280.43884998005524" width="31.57894736842105" height="119.56115001994476" fill="#34d399" rx="4"/><rect x="642.1052631578948" y="199.5745455458291" width="31.57894736842105" height="200.4254544541709" fill="#34d399" rx="4"/><rect x="686.8421052631579" y="231.29457406284928" width="31.57894736842105" height="168.70542593715072" fill="#34d399" rx="4"/><rect x="731.578947368421" y="288.6353688080817" width="31.57894736842105" height="111.3646311919183" fill="#34d399" rx="4"/><rect x="776.3157894736842" y="259.98009126997204" width="31.57894736842105" height="140.01990873002796" fill="#34d399" rx="4"/><rect x="821.0526315789474" y="198.55516893167078" width="31.57894736842105" height="201.44483106832922" fill="#34d399" rx="4"/><rect x="865.7894736842105" y="302.1366920616856" width="31.57894736842105" height="97.86330793831439" fill="#34d399" rx="4"/><rect x="910.5263157894736" y="256.1801515508705" width="31.57894736842105" height="143.8198484491295" fill="#34d399" rx="4"/><rect x="955.2631578947369" y="164.82809189074032" width="31.57894736842105" height="235.17190810925968" fill="#34d399" rx="4"/>
        
        <text x="600" y="520" font-family="Segoe UI, Arial" font-size="38" font-weight="800" fill="#f8fafc" text-anchor="middle">Implementing a Custom Data Visualization Library Using We...</text>
    </svg>