<svg width="1200" height="600" viewBox="0 0 1200 600" xmlns="http://www.w3.org/2000/svg">
            <rect width="1200" height="600" fill="#2e1065"/><circle cx="666.3102975449874" cy="348.2512198012955" r="27.843602613938856" fill="#d8b4fe" opacity="0.1"/><circle cx="1179.1723646361788" cy="81.33918106468627" r="36.80792565295633" fill="#d8b4fe" opacity="0.1"/><circle cx="343.42534323222935" cy="3.581532160023926" r="28.971765261358087" fill="#d8b4fe" opacity="0.1"/><circle cx="889.7238830855713" cy="44.95777974188968" r="23.47581258862192" fill="#d8b4fe" opacity="0.1"/><circle cx="299.0701703675313" cy="398.1390060267586" r="46.08384519772699" fill="#d8b4fe" opacity="0.1"/><circle cx="91.58441584731918" cy="383.91582372196353" r="22.397225947443076" fill="#d8b4fe" opacity="0.1"/><circle cx="280.57280187276774" cy="305.877361423245" r="12.746062829810398" fill="#d8b4fe" opacity="0.1"/><circle cx="285.7105980743654" cy="261.3527721725177" r="25.07989095272933" fill="#d8b4fe" opacity="0.1"/><circle cx="1111.5732400085108" cy="196.0676965325547" r="40.07892932255345" fill="#d8b4fe" opacity="0.1"/><circle cx="1007.2382261736493" cy="389.87746753465444" r="26.065491430272232" fill="#d8b4fe" opacity="0.1"/><circle cx="717.9473545745168" cy="45.03934338790714" r="20.173271168750944" fill="#d8b4fe" opacity="0.1"/><circle cx="148.02583949604013" cy="270.9542886728741" r="28.57392922593135" fill="#d8b4fe" opacity="0.1"/><circle cx="623.83350928867" cy="144.79069432418328" r="43.09583445563021" fill="#d8b4fe" opacity="0.1"/><circle cx="478.64119071891764" cy="216.29924431908876" r="45.15777490356413" fill="#d8b4fe" opacity="0.1"/><circle cx="222.50122739824292" cy="8.841710854176199" r="47.367447143478785" fill="#d8b4fe" opacity="0.1"/><circle cx="850.7042242432362" cy="108.10150432007504" r="17.456626922721625" fill="#d8b4fe" opacity="0.1"/><circle cx="559.8392886688089" cy="56.83052091335412" r="20.382049017061945" fill="#d8b4fe" opacity="0.1"/><circle cx="773.9586395102378" cy="21.60562426506658" r="44.94647643645294" fill="#d8b4fe" opacity="0.1"/><circle cx="529.8187447195232" cy="45.17102541067288" r="41.420008889854216" fill="#d8b4fe" opacity="0.1"/><circle cx="250.58867567640846" cy="226.921930804383" r="41.54487999880075" fill="#d8b4fe" opacity="0.1"/><circle cx="1132.1491197068099" cy="241.36784466536483" r="11.247495765564963" fill="#d8b4fe" opacity="0.1"/><circle cx="901.4589239419365" cy="229.5818604703527" r="39.52988949371502" fill="#d8b4fe" opacity="0.1"/><circle cx="1079.3082159507321" cy="190.97044119844213" r="14.544282930364716" fill="#d8b4fe" opacity="0.1"/><circle cx="807.2850534303143" cy="234.94053358081146" r="22.432840925903292" fill="#d8b4fe" opacity="0.1"/><circle cx="751.2065132349252" cy="364.52345074212644" r="37.435427700329456" fill="#d8b4fe" opacity="0.1"/><circle cx="360.8260894390696" cy="285.1649842908955" r="42.152799637187854" fill="#d8b4fe" opacity="0.1"/><circle cx="406.19576469180174" cy="75.81996113731293" r="38.84369988212711" fill="#d8b4fe" opacity="0.1"/><circle cx="1058.579447651573" cy="75.77137529224274" r="33.30542929652438" fill="#d8b4fe" opacity="0.1"/><circle cx="853.3391877244867" cy="228.80908496963457" r="42.02785876586859" fill="#d8b4fe" opacity="0.1"/><circle cx="375.3690179108162" cy="122.55162461078726" r="13.272409962009988" fill="#d8b4fe" opacity="0.1"/>
            <text x="600" y="520" font-family="Segoe UI, Arial, sans-serif" font-size="38" font-weight="800" fill="#ffffff" text-anchor="middle">Implementing Data-Driven User Journeys: Using Heatmaps an...</text>
            <text x="600" y="560" font-family="Segoe UI, Arial, sans-serif" font-size="16" font-weight="600" fill="#d8b4fe" text-anchor="middle" style="letter-spacing: 4px; text-transform: uppercase;">UI UX Powerhouse • Specialized Series</text>
        </svg>