<svg width="1200" height="600" viewBox="0 0 1200 600" xmlns="http://www.w3.org/2000/svg">
        <rect width="1200" height="600" fill="#111827"/><rect x="150" y="234.3398930604053" width="60" height="115.6601069395947" fill="#10b981" opacity="0.6"/>
                    <rect x="170" y="214.3398930604053" width="60" height="115.6601069395947" fill="#34d399" opacity="0.4" transform="skewY(-20)"/><rect x="270" y="297.5188596076805" width="60" height="52.4811403923195" fill="#10b981" opacity="0.6"/>
                    <rect x="290" y="277.5188596076805" width="60" height="52.4811403923195" fill="#34d399" opacity="0.4" transform="skewY(-20)"/><rect x="390" y="243.42362823845178" width="60" height="106.57637176154822" fill="#10b981" opacity="0.6"/>
                    <rect x="410" y="223.42362823845178" width="60" height="106.57637176154822" fill="#34d399" opacity="0.4" transform="skewY(-20)"/><rect x="510" y="232.83164073236549" width="60" height="117.16835926763451" fill="#10b981" opacity="0.6"/>
                    <rect x="530" y="212.83164073236549" width="60" height="117.16835926763451" fill="#34d399" opacity="0.4" transform="skewY(-20)"/><rect x="630" y="226.07330319297034" width="60" height="123.92669680702966" fill="#10b981" opacity="0.6"/>
                    <rect x="650" y="206.07330319297034" width="60" height="123.92669680702966" fill="#34d399" opacity="0.4" transform="skewY(-20)"/><rect x="750" y="194.18718388296838" width="60" height="155.81281611703162" fill="#10b981" opacity="0.6"/>
                    <rect x="770" y="174.18718388296838" width="60" height="155.81281611703162" fill="#34d399" opacity="0.4" transform="skewY(-20)"/><rect x="870" y="248.2961773806892" width="60" height="101.70382261931081" fill="#10b981" opacity="0.6"/>
                    <rect x="890" y="228.2961773806892" width="60" height="101.70382261931081" fill="#34d399" opacity="0.4" transform="skewY(-20)"/><rect x="990" y="151.08975383664074" width="60" height="198.91024616335926" fill="#10b981" opacity="0.6"/>
                    <rect x="1010" y="131.08975383664074" width="60" height="198.91024616335926" fill="#34d399" opacity="0.4" transform="skewY(-20)"/>
        <text x="600" y="520" font-family="Segoe UI, Arial, sans-serif" font-size="38" font-weight="800" fill="#ffffff" text-anchor="middle">Implementing Contextual Layering in AR Interfaces: Advanc...</text>
        <text x="600" y="560" font-family="Segoe UI, Arial, sans-serif" font-size="16" font-weight="600" fill="#10b981" text-anchor="middle" style="letter-spacing: 4px; text-transform: uppercase;">UI UX Powerhouse • Specialized Series</text>
    </svg>