<svg width="1200" height="600" viewBox="0 0 1200 600" xmlns="http://www.w3.org/2000/svg">
            <rect width="1200" height="600" fill="#111827"/><path d="M 521.8246443750104 133.9272143780363 L 535.9266838976964 183.9272143780363 L 567.4701124664352 233.9272143780363" stroke="#10b981" fill="none" opacity="0.4"/>
                    <circle cx="521.8246443750104" cy="133.9272143780363" r="3" fill="#fbbf24"/><path d="M 909.6935297719028 19.07760374015197 L 918.1445481662848 69.07760374015197 L 883.822997686002 119.07760374015197" stroke="#10b981" fill="none" opacity="0.4"/>
                    <circle cx="909.6935297719028" cy="19.07760374015197" r="3" fill="#fbbf24"/><path d="M 758.7136810740049 31.967996031744406 L 738.9572609409697 81.9679960317444 L 738.6913026384718 131.9679960317444" stroke="#10b981" fill="none" opacity="0.4"/>
                    <circle cx="758.7136810740049" cy="31.967996031744406" r="3" fill="#fbbf24"/><path d="M 427.7785956423031 376.1664241166727 L 469.0817009755847 426.1664241166727 L 424.09191490478406 476.1664241166727" stroke="#10b981" fill="none" opacity="0.4"/>
                    <circle cx="427.7785956423031" cy="376.1664241166727" r="3" fill="#fbbf24"/><path d="M 3.162081506161485 299.4732947333432 L 42.80332175885633 349.4732947333432 L 46.81888807062933 399.4732947333432" stroke="#10b981" fill="none" opacity="0.4"/>
                    <circle cx="3.162081506161485" cy="299.4732947333432" r="3" fill="#fbbf24"/><path d="M 40.314557510600935 38.03443337164936 L 65.99594907846722 88.03443337164936 L 25.79270713308688 138.03443337164936" stroke="#10b981" fill="none" opacity="0.4"/>
                    <circle cx="40.314557510600935" cy="38.03443337164936" r="3" fill="#fbbf24"/><path d="M 604.1728807198524 52.74013772559556 L 569.3254508336395 102.74013772559556 L 571.6425186667493 152.74013772559556" stroke="#10b981" fill="none" opacity="0.4"/>
                    <circle cx="604.1728807198524" cy="52.74013772559556" r="3" fill="#fbbf24"/><path d="M 1134.8904754664545 226.0691418152419 L 1180.5580779284355 276.0691418152419 L 1155.7971021355115 326.0691418152419" stroke="#10b981" fill="none" opacity="0.4"/>
                    <circle cx="1134.8904754664545" cy="226.0691418152419" r="3" fill="#fbbf24"/><path d="M 546.8557527779922 144.4313607273216 L 587.4187691657994 194.4313607273216 L 568.8669288749225 244.4313607273216" stroke="#10b981" fill="none" opacity="0.4"/>
                    <circle cx="546.8557527779922" cy="144.4313607273216" r="3" fill="#fbbf24"/><path d="M 113.22417640838012 122.84531042751041 L 68.24339749689443 172.8453104275104 L 162.6585949610444 222.8453104275104" stroke="#10b981" fill="none" opacity="0.4"/>
                    <circle cx="113.22417640838012" cy="122.84531042751041" r="3" fill="#fbbf24"/>
            <text x="600" y="520" font-family="Segoe UI, Arial, sans-serif" font-size="38" font-weight="800" fill="#ffffff" text-anchor="middle">Implementing Multi-Dimension Filtering in Complex Data Ta...</text>
            <text x="600" y="560" font-family="Segoe UI, Arial, sans-serif" font-size="16" font-weight="600" fill="#10b981" text-anchor="middle" style="letter-spacing: 4px; text-transform: uppercase;">UI UX Powerhouse • Specialized Series</text>
        </svg>