<svg width="1200" height="600" viewBox="0 0 1200 600" xmlns="http://www.w3.org/2000/svg">
            <rect width="1200" height="600" fill="#111827"/><path d="M 60.373577668542566 336.4261714210443 L 85.34608832205777 386.4261714210443 L 43.44367332960246 436.4261714210443" stroke="#10b981" fill="none" opacity="0.4"/>
                    <circle cx="60.373577668542566" cy="336.4261714210443" r="3" fill="#fbbf24"/><path d="M 457.44859960104804 87.66105578870338 L 448.0507111410361 137.66105578870338 L 452.5490319534583 187.66105578870338" stroke="#10b981" fill="none" opacity="0.4"/>
                    <circle cx="457.44859960104804" cy="87.66105578870338" r="3" fill="#fbbf24"/><path d="M 1045.96958854072 129.49192898449837 L 1022.8692272104126 179.49192898449837 L 1018.400617522093 229.49192898449837" stroke="#10b981" fill="none" opacity="0.4"/>
                    <circle cx="1045.96958854072" cy="129.49192898449837" r="3" fill="#fbbf24"/><path d="M 1044.7354453746811 312.73876332925283 L 1052.1664670030077 362.73876332925283 L 1078.9646169649131 412.73876332925283" stroke="#10b981" fill="none" opacity="0.4"/>
                    <circle cx="1044.7354453746811" cy="312.73876332925283" r="3" fill="#fbbf24"/><path d="M 5.705412509269081 305.4489115198521 L -11.422094559202378 355.4489115198521 L -35.53694877796261 405.4489115198521" stroke="#10b981" fill="none" opacity="0.4"/>
                    <circle cx="5.705412509269081" cy="305.4489115198521" r="3" fill="#fbbf24"/><path d="M 512.4144586232433 103.59532486108947 L 543.5158450225572 153.59532486108947 L 522.0050105013343 203.59532486108947" stroke="#10b981" fill="none" opacity="0.4"/>
                    <circle cx="512.4144586232433" cy="103.59532486108947" r="3" fill="#fbbf24"/><path d="M 309.7842669891179 365.8446966917836 L 325.2495095066024 415.8446966917836 L 295.5040191912303 465.8446966917836" stroke="#10b981" fill="none" opacity="0.4"/>
                    <circle cx="309.7842669891179" cy="365.8446966917836" r="3" fill="#fbbf24"/><path d="M 152.11088761680003 385.2018029843748 L 187.84693251558338 435.2018029843748 L 111.36338648066157 485.2018029843748" stroke="#10b981" fill="none" opacity="0.4"/>
                    <circle cx="152.11088761680003" cy="385.2018029843748" r="3" fill="#fbbf24"/><path d="M 945.1647153804515 158.20616318487737 L 963.8199279594119 208.20616318487737 L 957.1921449811271 258.20616318487737" stroke="#10b981" fill="none" opacity="0.4"/>
                    <circle cx="945.1647153804515" cy="158.20616318487737" r="3" fill="#fbbf24"/><path d="M 51.2620183351828 81.49439287371933 L 40.32134256435711 131.49439287371933 L 60.489212928041525 181.49439287371933" stroke="#10b981" fill="none" opacity="0.4"/>
                    <circle cx="51.2620183351828" cy="81.49439287371933" r="3" fill="#fbbf24"/>
            <text x="600" y="520" font-family="Segoe UI, Arial, sans-serif" font-size="38" font-weight="800" fill="#ffffff" text-anchor="middle">Implementing a Custom Scroll-Syncing Mechanism for Multi-...</text>
            <text x="600" y="560" font-family="Segoe UI, Arial, sans-serif" font-size="16" font-weight="600" fill="#10b981" text-anchor="middle" style="letter-spacing: 4px; text-transform: uppercase;">UI UX Powerhouse • Specialized Series</text>
        </svg>