<svg width="1200" height="600" viewBox="0 0 1200 600" xmlns="http://www.w3.org/2000/svg">
        <rect width="1200" height="600" fill="#0c4a6e"/><circle cx="1026.205522409873" cy="199.04522644610552" r="46.50147077423753" fill="#7dd3fc" opacity="0.1"/><circle cx="253.71088714528014" cy="286.48397800347993" r="37.55416808086011" fill="#7dd3fc" opacity="0.1"/><circle cx="1064.8292143922163" cy="202.01739142939914" r="30.70841628152266" fill="#7dd3fc" opacity="0.1"/><circle cx="845.7770159417123" cy="301.9282618100533" r="20.613818795318366" fill="#7dd3fc" opacity="0.1"/><circle cx="11.539858037576778" cy="60.515813907113625" r="22.26015301690495" fill="#7dd3fc" opacity="0.1"/><circle cx="882.9051206899749" cy="3.984189539323779" r="48.598294276980596" fill="#7dd3fc" opacity="0.1"/><circle cx="1028.3348282138832" cy="47.59362450458866" r="43.491831347346306" fill="#7dd3fc" opacity="0.1"/><circle cx="1031.8131506173813" cy="338.1758674586308" r="30.720667898749525" fill="#7dd3fc" opacity="0.1"/><circle cx="296.4460780522131" cy="102.07383756387571" r="22.188151750160614" fill="#7dd3fc" opacity="0.1"/><circle cx="1093.0821906473284" cy="334.6485062640568" r="26.30325288802851" fill="#7dd3fc" opacity="0.1"/><circle cx="373.8856668547669" cy="97.3750481436582" r="34.22763384398422" fill="#7dd3fc" opacity="0.1"/><circle cx="745.8606294130732" cy="309.12236999356537" r="49.029726576191024" fill="#7dd3fc" opacity="0.1"/><circle cx="646.1739997659606" cy="376.68986619246425" r="10.006799208240409" fill="#7dd3fc" opacity="0.1"/><circle cx="33.14996421120888" cy="126.68040657117672" r="30.625262393732555" fill="#7dd3fc" opacity="0.1"/><circle cx="48.45814120344585" cy="247.581448861456" r="42.06694481232262" fill="#7dd3fc" opacity="0.1"/><circle cx="236.42948876440641" cy="149.05893045724952" r="25.931500122023863" fill="#7dd3fc" opacity="0.1"/><circle cx="871.3454959812225" cy="289.2097039577493" r="34.999849782543606" fill="#7dd3fc" opacity="0.1"/><circle cx="811.8060860077094" cy="363.7969394250831" r="30.101362507484737" fill="#7dd3fc" opacity="0.1"/><circle cx="382.30980544540216" cy="394.78713713469915" r="11.83458843286644" fill="#7dd3fc" opacity="0.1"/><circle cx="1171.746786031781" cy="106.12255371324864" r="40.03321389114717" fill="#7dd3fc" opacity="0.1"/><circle cx="1143.0150725405838" cy="215.5364994523552" r="20.253305087935587" fill="#7dd3fc" opacity="0.1"/><circle cx="836.7713650119185" cy="12.639357763691805" r="47.36322825621755" fill="#7dd3fc" opacity="0.1"/><circle cx="885.2441885801454" cy="164.9372426660193" r="13.32596454058148" fill="#7dd3fc" opacity="0.1"/><circle cx="639.3348462356698" cy="7.136795666156104" r="42.83586054258194" fill="#7dd3fc" opacity="0.1"/><circle cx="397.85084146860754" cy="25.80187791518256" r="14.120509383392346" fill="#7dd3fc" opacity="0.1"/><circle cx="663.1649866161752" cy="317.0719093237494" r="20.877744683166384" fill="#7dd3fc" opacity="0.1"/><circle cx="840.3463878650655" cy="9.48849552005413" r="28.31216887701885" fill="#7dd3fc" opacity="0.1"/><circle cx="837.04033664701" cy="220.35833280315273" r="41.98232139511674" fill="#7dd3fc" opacity="0.1"/><circle cx="1123.40289674612" cy="323.7325208949187" r="17.529111860858393" fill="#7dd3fc" opacity="0.1"/><circle cx="185.303160658691" cy="89.93706048568129" r="35.939590404741466" fill="#7dd3fc" opacity="0.1"/>
        <text x="600" y="520" font-family="Segoe UI, Arial, sans-serif" font-size="38" font-weight="800" fill="#ffffff" text-anchor="middle">Implementing AR Data Visualization: Designing Interactive...</text>
        <text x="600" y="560" font-family="Segoe UI, Arial, sans-serif" font-size="16" font-weight="600" fill="#7dd3fc" text-anchor="middle" style="letter-spacing: 4px; text-transform: uppercase;">UI UX Powerhouse • Specialized Series</text>
    </svg>