<svg width="1200" height="600" viewBox="0 0 1200 600" xmlns="http://www.w3.org/2000/svg">
        <rect width="1200" height="600" fill="#111827"/><rect x="150" y="280.0434470340406" width="60" height="69.95655296595942" fill="#10b981" opacity="0.6"/>
                    <rect x="170" y="260.0434470340406" width="60" height="69.95655296595942" fill="#34d399" opacity="0.4" transform="skewY(-20)"/><rect x="270" y="293.9845989061723" width="60" height="56.01540109382768" fill="#10b981" opacity="0.6"/>
                    <rect x="290" y="273.9845989061723" width="60" height="56.01540109382768" fill="#34d399" opacity="0.4" transform="skewY(-20)"/><rect x="390" y="260.6979691988272" width="60" height="89.3020308011728" fill="#10b981" opacity="0.6"/>
                    <rect x="410" y="240.6979691988272" width="60" height="89.3020308011728" fill="#34d399" opacity="0.4" transform="skewY(-20)"/><rect x="510" y="102.33759116108558" width="60" height="247.66240883891442" fill="#10b981" opacity="0.6"/>
                    <rect x="530" y="82.33759116108558" width="60" height="247.66240883891442" fill="#34d399" opacity="0.4" transform="skewY(-20)"/><rect x="630" y="148.80968063316686" width="60" height="201.19031936683314" fill="#10b981" opacity="0.6"/>
                    <rect x="650" y="128.80968063316686" width="60" height="201.19031936683314" fill="#34d399" opacity="0.4" transform="skewY(-20)"/><rect x="750" y="130.59949379094178" width="60" height="219.40050620905822" fill="#10b981" opacity="0.6"/>
                    <rect x="770" y="110.59949379094178" width="60" height="219.40050620905822" fill="#34d399" opacity="0.4" transform="skewY(-20)"/><rect x="870" y="234.3680068883259" width="60" height="115.63199311167409" fill="#10b981" opacity="0.6"/>
                    <rect x="890" y="214.3680068883259" width="60" height="115.63199311167409" fill="#34d399" opacity="0.4" transform="skewY(-20)"/><rect x="990" y="199.30791907027015" width="60" height="150.69208092972985" fill="#10b981" opacity="0.6"/>
                    <rect x="1010" y="179.30791907027015" width="60" height="150.69208092972985" fill="#34d399" opacity="0.4" transform="skewY(-20)"/>
        <text x="600" y="520" font-family="Segoe UI, Arial, sans-serif" font-size="38" font-weight="800" fill="#ffffff" text-anchor="middle">Implementing AR-Enhanced User Onboarding Experiences: A C...</text>
        <text x="600" y="560" font-family="Segoe UI, Arial, sans-serif" font-size="16" font-weight="600" fill="#10b981" text-anchor="middle" style="letter-spacing: 4px; text-transform: uppercase;">UI UX Powerhouse • Specialized Series</text>
    </svg>