<svg width="1200" height="600" viewBox="0 0 1200 600" xmlns="http://www.w3.org/2000/svg">
            <rect width="1200" height="600" fill="#111827"/><path d="M 1078.549681300865 328.30390461203933 L 1106.5576227074416 378.30390461203933 L 1121.3641986616494 428.30390461203933" stroke="#10b981" fill="none" opacity="0.4"/>
                    <circle cx="1078.549681300865" cy="328.30390461203933" r="3" fill="#fbbf24"/><path d="M 200.46034551778575 353.5984153408208 L 225.53520420788118 403.5984153408208 L 184.9374550878565 453.5984153408208" stroke="#10b981" fill="none" opacity="0.4"/>
                    <circle cx="200.46034551778575" cy="353.5984153408208" r="3" fill="#fbbf24"/><path d="M 327.429326094898 349.06327925564256 L 335.82746542924724 399.06327925564256 L 348.65443862936445 449.06327925564256" stroke="#10b981" fill="none" opacity="0.4"/>
                    <circle cx="327.429326094898" cy="349.06327925564256" r="3" fill="#fbbf24"/><path d="M 816.3173381733941 381.1467691186408 L 783.9604464526928 431.1467691186408 L 821.6311051055527 481.1467691186408" stroke="#10b981" fill="none" opacity="0.4"/>
                    <circle cx="816.3173381733941" cy="381.1467691186408" r="3" fill="#fbbf24"/><path d="M 773.3816018757352 284.7900029286393 L 799.0216035475896 334.7900029286393 L 753.0043583124552 384.7900029286393" stroke="#10b981" fill="none" opacity="0.4"/>
                    <circle cx="773.3816018757352" cy="284.7900029286393" r="3" fill="#fbbf24"/><path d="M 510.7968027736206 398.1468458630843 L 510.1573271273992 448.1468458630843 L 476.9164177159837 498.1468458630843" stroke="#10b981" fill="none" opacity="0.4"/>
                    <circle cx="510.7968027736206" cy="398.1468458630843" r="3" fill="#fbbf24"/><path d="M 201.29183939880022 305.9544648596784 L 222.56570508870936 355.9544648596784 L 192.49466790352017 405.9544648596784" stroke="#10b981" fill="none" opacity="0.4"/>
                    <circle cx="201.29183939880022" cy="305.9544648596784" r="3" fill="#fbbf24"/><path d="M 847.8687319904566 112.32132299483055 L 804.0225780752735 162.32132299483055 L 849.7956239641098 212.32132299483055" stroke="#10b981" fill="none" opacity="0.4"/>
                    <circle cx="847.8687319904566" cy="112.32132299483055" r="3" fill="#fbbf24"/><path d="M 828.0230568852858 261.5355374644423 L 823.8718395321484 311.5355374644423 L 844.6559433026778 361.5355374644423" stroke="#10b981" fill="none" opacity="0.4"/>
                    <circle cx="828.0230568852858" cy="261.5355374644423" r="3" fill="#fbbf24"/><path d="M 558.3341873172685 181.96208002664207 L 569.1323432725767 231.96208002664207 L 522.817804603028 281.96208002664207" stroke="#10b981" fill="none" opacity="0.4"/>
                    <circle cx="558.3341873172685" cy="181.96208002664207" r="3" fill="#fbbf24"/>
            <text x="600" y="520" font-family="Segoe UI, Arial, sans-serif" font-size="38" font-weight="800" fill="#ffffff" text-anchor="middle">Implementing Advanced Focus Management Techniques in AR/V...</text>
            <text x="600" y="560" font-family="Segoe UI, Arial, sans-serif" font-size="16" font-weight="600" fill="#10b981" text-anchor="middle" style="letter-spacing: 4px; text-transform: uppercase;">UI UX Powerhouse • Specialized Series</text>
        </svg>