<svg width="1200" height="600" viewBox="0 0 1200 600" xmlns="http://www.w3.org/2000/svg">
            <rect width="1200" height="600" fill="#0c4a6e"/><circle cx="802.4437423191557" cy="167.28982174463454" r="41.11064567692665" fill="#7dd3fc" opacity="0.1"/><circle cx="812.5744845609006" cy="36.63699305179762" r="19.931925274086097" fill="#7dd3fc" opacity="0.1"/><circle cx="75.62677577589056" cy="50.654724160267506" r="24.562788061448373" fill="#7dd3fc" opacity="0.1"/><circle cx="1026.3006807857892" cy="313.11600430344697" r="27.74897648669139" fill="#7dd3fc" opacity="0.1"/><circle cx="118.87887030825368" cy="13.774045166064752" r="14.58352762798313" fill="#7dd3fc" opacity="0.1"/><circle cx="599.5898510802363" cy="216.68495382600668" r="31.46741401280451" fill="#7dd3fc" opacity="0.1"/><circle cx="593.3993420173465" cy="76.71630860349978" r="37.26500610697258" fill="#7dd3fc" opacity="0.1"/><circle cx="296.2346842403349" cy="37.53544167448126" r="34.041264868865255" fill="#7dd3fc" opacity="0.1"/><circle cx="1126.4432691918046" cy="100.2451889369695" r="32.59703969275506" fill="#7dd3fc" opacity="0.1"/><circle cx="771.4581721171271" cy="129.29969454635284" r="35.93576169732842" fill="#7dd3fc" opacity="0.1"/><circle cx="218.57758057085448" cy="69.81224579794798" r="47.096427915221284" fill="#7dd3fc" opacity="0.1"/><circle cx="1137.0194005830854" cy="161.25210183818126" r="46.88535193254211" fill="#7dd3fc" opacity="0.1"/><circle cx="852.9870940453293" cy="199.00328515650472" r="32.84174361266196" fill="#7dd3fc" opacity="0.1"/><circle cx="574.2748630982533" cy="159.48746396315983" r="27.923504404825508" fill="#7dd3fc" opacity="0.1"/><circle cx="188.82500656128514" cy="398.19723924792925" r="31.917054393343278" fill="#7dd3fc" opacity="0.1"/><circle cx="116.43243279586386" cy="376.32665398778045" r="29.422666425962234" fill="#7dd3fc" opacity="0.1"/><circle cx="1162.3168611586152" cy="281.29540890149656" r="22.44028100729338" fill="#7dd3fc" opacity="0.1"/><circle cx="1091.596400895105" cy="65.43429891898995" r="25.21811271450133" fill="#7dd3fc" opacity="0.1"/><circle cx="515.7074287249998" cy="375.0851732060255" r="12.043731899830163" fill="#7dd3fc" opacity="0.1"/><circle cx="449.9915979162779" cy="258.544498799165" r="43.877047157875495" fill="#7dd3fc" opacity="0.1"/><circle cx="480.60446002564277" cy="99.81957495874667" r="43.83775695961958" fill="#7dd3fc" opacity="0.1"/><circle cx="825.3779901700909" cy="83.69210270211624" r="40.90061863545998" fill="#7dd3fc" opacity="0.1"/><circle cx="1138.7191479658782" cy="71.58445501700044" r="34.98870981595246" fill="#7dd3fc" opacity="0.1"/><circle cx="416.3539465675058" cy="48.315012365492294" r="46.39789997410844" fill="#7dd3fc" opacity="0.1"/><circle cx="48.10335683650919" cy="85.22379013775208" r="13.371520310029155" fill="#7dd3fc" opacity="0.1"/><circle cx="879.6453811737592" cy="234.05515509512043" r="44.76765619539947" fill="#7dd3fc" opacity="0.1"/><circle cx="1138.1232606363483" cy="346.5189838207152" r="19.153648793612774" fill="#7dd3fc" opacity="0.1"/><circle cx="561.0931884821184" cy="66.84204593148024" r="33.797900604840834" fill="#7dd3fc" opacity="0.1"/><circle cx="454.1298208401713" cy="395.8342028337938" r="40.93529857067551" fill="#7dd3fc" opacity="0.1"/><circle cx="694.8556470583753" cy="336.6898175198003" r="35.00341928884154" fill="#7dd3fc" opacity="0.1"/>
            <text x="600" y="520" font-family="Segoe UI, Arial, sans-serif" font-size="38" font-weight="800" fill="#ffffff" text-anchor="middle">Implementing Focal Point Detection in Image Galleries Usi...</text>
            <text x="600" y="560" font-family="Segoe UI, Arial, sans-serif" font-size="16" font-weight="600" fill="#7dd3fc" text-anchor="middle" style="letter-spacing: 4px; text-transform: uppercase;">UI UX Powerhouse • Specialized Series</text>
        </svg>