<svg width="1200" height="600" viewBox="0 0 1200 600" xmlns="http://www.w3.org/2000/svg">
        <rect width="1200" height="600" fill="#111827"/><rect x="150" y="147.48684734449853" width="60" height="202.51315265550147" fill="#10b981" opacity="0.6"/>
                    <rect x="170" y="127.48684734449853" width="60" height="202.51315265550147" fill="#34d399" opacity="0.4" transform="skewY(-20)"/><rect x="270" y="114.85117227184674" width="60" height="235.14882772815326" fill="#10b981" opacity="0.6"/>
                    <rect x="290" y="94.85117227184674" width="60" height="235.14882772815326" fill="#34d399" opacity="0.4" transform="skewY(-20)"/><rect x="390" y="144.73974142965744" width="60" height="205.26025857034256" fill="#10b981" opacity="0.6"/>
                    <rect x="410" y="124.73974142965744" width="60" height="205.26025857034256" fill="#34d399" opacity="0.4" transform="skewY(-20)"/><rect x="510" y="196.93119043586194" width="60" height="153.06880956413806" fill="#10b981" opacity="0.6"/>
                    <rect x="530" y="176.93119043586194" width="60" height="153.06880956413806" fill="#34d399" opacity="0.4" transform="skewY(-20)"/><rect x="630" y="250.31554268641685" width="60" height="99.68445731358315" fill="#10b981" opacity="0.6"/>
                    <rect x="650" y="230.31554268641685" width="60" height="99.68445731358315" fill="#34d399" opacity="0.4" transform="skewY(-20)"/><rect x="750" y="208.0133285078773" width="60" height="141.9866714921227" fill="#10b981" opacity="0.6"/>
                    <rect x="770" y="188.0133285078773" width="60" height="141.9866714921227" fill="#34d399" opacity="0.4" transform="skewY(-20)"/><rect x="870" y="122.61351930828823" width="60" height="227.38648069171177" fill="#10b981" opacity="0.6"/>
                    <rect x="890" y="102.61351930828823" width="60" height="227.38648069171177" fill="#34d399" opacity="0.4" transform="skewY(-20)"/><rect x="990" y="176.47332636156534" width="60" height="173.52667363843466" fill="#10b981" opacity="0.6"/>
                    <rect x="1010" y="156.47332636156534" width="60" height="173.52667363843466" fill="#34d399" opacity="0.4" transform="skewY(-20)"/>
        <text x="600" y="520" font-family="Segoe UI, Arial, sans-serif" font-size="38" font-weight="800" fill="#ffffff" text-anchor="middle">Implementing Customizable Gesture-Based Navigation in Pro...</text>
        <text x="600" y="560" font-family="Segoe UI, Arial, sans-serif" font-size="16" font-weight="600" fill="#10b981" text-anchor="middle" style="letter-spacing: 4px; text-transform: uppercase;">UI UX Powerhouse • Specialized Series</text>
    </svg>