<svg width="1200" height="600" viewBox="0 0 1200 600" xmlns="http://www.w3.org/2000/svg">
            <rect width="1200" height="600" fill="#111827"/><circle cx="463.5058677475172" cy="276.63260367880866" r="26.106658354793808" fill="#10b981" opacity="0.1"/><circle cx="216.0041379647737" cy="18.576813547406346" r="26.022786708872445" fill="#10b981" opacity="0.1"/><circle cx="263.50647428153025" cy="62.33959936143947" r="15.36837722909695" fill="#10b981" opacity="0.1"/><circle cx="911.019931089686" cy="206.120950224431" r="19.254339254111983" fill="#10b981" opacity="0.1"/><circle cx="553.2009997528803" cy="3.6422823130124016" r="11.207017714368703" fill="#10b981" opacity="0.1"/><circle cx="1036.857028534996" cy="225.42808033613255" r="19.506893373982166" fill="#10b981" opacity="0.1"/><circle cx="560.477076547204" cy="90.68719301903911" r="27.92354666540632" fill="#10b981" opacity="0.1"/><circle cx="1033.2141242630314" cy="229.94877696110052" r="17.492003036686583" fill="#10b981" opacity="0.1"/><circle cx="614.0030686639875" cy="329.9021326629372" r="22.095433285467152" fill="#10b981" opacity="0.1"/><circle cx="94.73793321594712" cy="151.14108414854854" r="15.04013920246507" fill="#10b981" opacity="0.1"/><circle cx="622.8696851713721" cy="349.39349442465755" r="14.687064823301625" fill="#10b981" opacity="0.1"/><circle cx="583.7717446371244" cy="321.98894942048355" r="16.659793604485458" fill="#10b981" opacity="0.1"/><circle cx="508.51294213862275" cy="359.28229758355883" r="25.252853985512047" fill="#10b981" opacity="0.1"/><circle cx="724.1943304841698" cy="278.7030495550425" r="32.945192483020946" fill="#10b981" opacity="0.1"/><circle cx="1018.0999308190621" cy="184.43690257881826" r="33.79895212487099" fill="#10b981" opacity="0.1"/><circle cx="856.2663646698638" cy="274.9920017700788" r="30.693792168394793" fill="#10b981" opacity="0.1"/><circle cx="1020.8558884867671" cy="89.88060097872221" r="21.980121028900612" fill="#10b981" opacity="0.1"/><circle cx="257.4455679508901" cy="373.74918723944575" r="43.17857159745472" fill="#10b981" opacity="0.1"/><circle cx="476.63938585246797" cy="258.57382334688737" r="35.20698773005279" fill="#10b981" opacity="0.1"/><circle cx="52.05514313929598" cy="275.999483774649" r="15.22281103527348" fill="#10b981" opacity="0.1"/><circle cx="169.46096658757597" cy="306.28178731931257" r="19.189497376428335" fill="#10b981" opacity="0.1"/><circle cx="102.91228635924199" cy="196.48691264446825" r="22.593702794692945" fill="#10b981" opacity="0.1"/><circle cx="39.097445150400745" cy="243.21280661824858" r="27.588535740214866" fill="#10b981" opacity="0.1"/><circle cx="1076.0593766597594" cy="14.98013351811096" r="49.48977761865535" fill="#10b981" opacity="0.1"/><circle cx="1171.09475010584" cy="212.7443064826366" r="18.544022187925293" fill="#10b981" opacity="0.1"/><circle cx="501.6980281978249" cy="339.7412498301492" r="16.428201191120024" fill="#10b981" opacity="0.1"/><circle cx="515.0091809398873" cy="166.59133971479605" r="33.13048494674149" fill="#10b981" opacity="0.1"/><circle cx="577.7304096853186" cy="301.96477237732324" r="24.725910489578382" fill="#10b981" opacity="0.1"/><circle cx="1006.9350999692688" cy="378.1255001616955" r="48.48328354251862" fill="#10b981" opacity="0.1"/><circle cx="140.1483281122637" cy="134.15791647857986" r="44.59762391565164" fill="#10b981" opacity="0.1"/>
            <text x="600" y="520" font-family="Segoe UI, Arial, sans-serif" font-size="38" font-weight="800" fill="#ffffff" text-anchor="middle">Implementing Custom Gesture Recognition for Enhanced Touc...</text>
            <text x="600" y="560" font-family="Segoe UI, Arial, sans-serif" font-size="16" font-weight="600" fill="#10b981" text-anchor="middle" style="letter-spacing: 4px; text-transform: uppercase;">UI UX Powerhouse • Specialized Series</text>
        </svg>