<svg width="1200" height="600" viewBox="0 0 1200 600" xmlns="http://www.w3.org/2000/svg">
        <rect width="1200" height="600" fill="#111827"/><path d="M 345.6810138100991 2.4911583685025107 L 358.9856128223033 52.49115836850251 L 375.0487628757128 102.49115836850251" stroke="#10b981" fill="none" opacity="0.4"/>
                    <circle cx="345.6810138100991" cy="2.4911583685025107" r="3" fill="#fbbf24"/><path d="M 313.19057473265275 100.84986034780741 L 282.4925159500708 150.8498603478074 L 296.65442310997605 200.8498603478074" stroke="#10b981" fill="none" opacity="0.4"/>
                    <circle cx="313.19057473265275" cy="100.84986034780741" r="3" fill="#fbbf24"/><path d="M 941.8688548852515 254.81457560235867 L 926.7841660062913 304.8145756023587 L 988.6391956867101 354.8145756023587" stroke="#10b981" fill="none" opacity="0.4"/>
                    <circle cx="941.8688548852515" cy="254.81457560235867" r="3" fill="#fbbf24"/><path d="M 885.6888736656401 106.88056978979148 L 898.9625249643723 156.88056978979148 L 931.1146384194217 206.88056978979148" stroke="#10b981" fill="none" opacity="0.4"/>
                    <circle cx="885.6888736656401" cy="106.88056978979148" r="3" fill="#fbbf24"/><path d="M 918.8004723349877 315.13884048072214 L 930.5157957297524 365.13884048072214 L 875.6452754547809 415.13884048072214" stroke="#10b981" fill="none" opacity="0.4"/>
                    <circle cx="918.8004723349877" cy="315.13884048072214" r="3" fill="#fbbf24"/><path d="M 320.3092081392242 167.37290740311437 L 357.4657149518316 217.37290740311437 L 330.2152925340124 267.37290740311437" stroke="#10b981" fill="none" opacity="0.4"/>
                    <circle cx="320.3092081392242" cy="167.37290740311437" r="3" fill="#fbbf24"/><path d="M 306.9173636038613 173.56943453778513 L 329.2380366062389 223.56943453778513 L 320.7499219474357 273.5694345377851" stroke="#10b981" fill="none" opacity="0.4"/>
                    <circle cx="306.9173636038613" cy="173.56943453778513" r="3" fill="#fbbf24"/><path d="M 958.8083264210582 24.443386360508157 L 991.0953736942247 74.44338636050816 L 951.1841901464436 124.44338636050816" stroke="#10b981" fill="none" opacity="0.4"/>
                    <circle cx="958.8083264210582" cy="24.443386360508157" r="3" fill="#fbbf24"/><path d="M 739.94731249295 116.82541666486941 L 737.7109939779984 166.8254166648694 L 700.315506188781 216.8254166648694" stroke="#10b981" fill="none" opacity="0.4"/>
                    <circle cx="739.94731249295" cy="116.82541666486941" r="3" fill="#fbbf24"/><path d="M 835.4641192727286 72.74532102783269 L 822.731179590437 122.74532102783269 L 881.6362339819534 172.7453210278327" stroke="#10b981" fill="none" opacity="0.4"/>
                    <circle cx="835.4641192727286" cy="72.74532102783269" r="3" fill="#fbbf24"/>
        <text x="600" y="520" font-family="Segoe UI, Arial, sans-serif" font-size="38" font-weight="800" fill="#ffffff" text-anchor="middle">Implementing Contextual Micro-Interactions for Enhanced U...</text>
        <text x="600" y="560" font-family="Segoe UI, Arial, sans-serif" font-size="16" font-weight="600" fill="#10b981" text-anchor="middle" style="letter-spacing: 4px; text-transform: uppercase;">UI UX Powerhouse • Specialized Series</text>
    </svg>