<svg width="1200" height="600" viewBox="0 0 1200 600" xmlns="http://www.w3.org/2000/svg">
            <rect width="1200" height="600" fill="#1e1b4b"/><rect x="150" y="278.0385009199108" width="60" height="71.9614990800892" fill="#f43f5e" opacity="0.6"/>
                    <rect x="170" y="258.0385009199108" width="60" height="71.9614990800892" fill="#fb7185" opacity="0.4" transform="skewY(-20)"/><rect x="270" y="168.42499810773006" width="60" height="181.57500189226994" fill="#f43f5e" opacity="0.6"/>
                    <rect x="290" y="148.42499810773006" width="60" height="181.57500189226994" fill="#fb7185" opacity="0.4" transform="skewY(-20)"/><rect x="390" y="125.08850989543134" width="60" height="224.91149010456866" fill="#f43f5e" opacity="0.6"/>
                    <rect x="410" y="105.08850989543134" width="60" height="224.91149010456866" fill="#fb7185" opacity="0.4" transform="skewY(-20)"/><rect x="510" y="269.68166191618366" width="60" height="80.31833808381634" fill="#f43f5e" opacity="0.6"/>
                    <rect x="530" y="249.68166191618366" width="60" height="80.31833808381634" fill="#fb7185" opacity="0.4" transform="skewY(-20)"/><rect x="630" y="148.37403552919568" width="60" height="201.62596447080432" fill="#f43f5e" opacity="0.6"/>
                    <rect x="650" y="128.37403552919568" width="60" height="201.62596447080432" fill="#fb7185" opacity="0.4" transform="skewY(-20)"/><rect x="750" y="217.08796062903275" width="60" height="132.91203937096725" fill="#f43f5e" opacity="0.6"/>
                    <rect x="770" y="197.08796062903275" width="60" height="132.91203937096725" fill="#fb7185" opacity="0.4" transform="skewY(-20)"/><rect x="870" y="139.93676691461587" width="60" height="210.06323308538413" fill="#f43f5e" opacity="0.6"/>
                    <rect x="890" y="119.93676691461587" width="60" height="210.06323308538413" fill="#fb7185" opacity="0.4" transform="skewY(-20)"/><rect x="990" y="195.64774265472806" width="60" height="154.35225734527194" fill="#f43f5e" opacity="0.6"/>
                    <rect x="1010" y="175.64774265472806" width="60" height="154.35225734527194" fill="#fb7185" opacity="0.4" transform="skewY(-20)"/>
            <text x="600" y="520" font-family="Segoe UI, Arial, sans-serif" font-size="38" font-weight="800" fill="#ffffff" text-anchor="middle">Implementing Dynamic Accessibility Features in Single Pag...</text>
            <text x="600" y="560" font-family="Segoe UI, Arial, sans-serif" font-size="16" font-weight="600" fill="#f43f5e" text-anchor="middle" style="letter-spacing: 4px; text-transform: uppercase;">UI UX Powerhouse • Specialized Series</text>
        </svg>