<svg width="1200" height="600" viewBox="0 0 1200 600" xmlns="http://www.w3.org/2000/svg">
            <rect width="1200" height="600" fill="#171717"/><path d="M 1004.2954321208526 190.36161655360786 L 1047.3993058958513 240.36161655360786 L 1031.7710415882175 290.36161655360786" stroke="#f59e0b" fill="none" opacity="0.4"/>
                    <circle cx="1004.2954321208526" cy="190.36161655360786" r="3" fill="#ec4899"/><path d="M 681.3568302270141 304.5137038025132 L 643.0133477937488 354.5137038025132 L 705.0317825094908 404.5137038025132" stroke="#f59e0b" fill="none" opacity="0.4"/>
                    <circle cx="681.3568302270141" cy="304.5137038025132" r="3" fill="#ec4899"/><path d="M 321.06551652614144 56.64422448098776 L 319.3888196401531 106.64422448098776 L 278.4542335301012 156.64422448098776" stroke="#f59e0b" fill="none" opacity="0.4"/>
                    <circle cx="321.06551652614144" cy="56.64422448098776" r="3" fill="#ec4899"/><path d="M 962.5711267224688 131.09277083567576 L 919.6065639846893 181.09277083567576 L 934.9673960100089 231.09277083567576" stroke="#f59e0b" fill="none" opacity="0.4"/>
                    <circle cx="962.5711267224688" cy="131.09277083567576" r="3" fill="#ec4899"/><path d="M 1034.370928651333 176.81842616709673 L 995.5170876932243 226.81842616709673 L 993.6132885160987 276.81842616709673" stroke="#f59e0b" fill="none" opacity="0.4"/>
                    <circle cx="1034.370928651333" cy="176.81842616709673" r="3" fill="#ec4899"/><path d="M 191.2421647750307 383.0531827537925 L 159.9776049594766 433.0531827537925 L 158.1218120961239 483.0531827537925" stroke="#f59e0b" fill="none" opacity="0.4"/>
                    <circle cx="191.2421647750307" cy="383.0531827537925" r="3" fill="#ec4899"/><path d="M 720.1291943501019 34.84567671293917 L 729.2609773300683 84.84567671293917 L 762.4391722410422 134.84567671293917" stroke="#f59e0b" fill="none" opacity="0.4"/>
                    <circle cx="720.1291943501019" cy="34.84567671293917" r="3" fill="#ec4899"/><path d="M 185.79562855338736 193.16302191582508 L 162.23620704989798 243.16302191582508 L 196.82959894753367 293.1630219158251" stroke="#f59e0b" fill="none" opacity="0.4"/>
                    <circle cx="185.79562855338736" cy="193.16302191582508" r="3" fill="#ec4899"/><path d="M 1036.6591338952276 80.83403435375658 L 1002.5712367274537 130.83403435375658 L 1048.4492529072668 180.83403435375658" stroke="#f59e0b" fill="none" opacity="0.4"/>
                    <circle cx="1036.6591338952276" cy="80.83403435375658" r="3" fill="#ec4899"/><path d="M 770.8986856732736 120.07447263968061 L 806.1065358614542 170.0744726396806 L 775.4621747923011 220.0744726396806" stroke="#f59e0b" fill="none" opacity="0.4"/>
                    <circle cx="770.8986856732736" cy="120.07447263968061" r="3" fill="#ec4899"/>
            <text x="600" y="520" font-family="Segoe UI, Arial, sans-serif" font-size="38" font-weight="800" fill="#ffffff" text-anchor="middle">Implementing Advanced Data Visualization Techniques with ...</text>
            <text x="600" y="560" font-family="Segoe UI, Arial, sans-serif" font-size="16" font-weight="600" fill="#f59e0b" text-anchor="middle" style="letter-spacing: 4px; text-transform: uppercase;">UI UX Powerhouse • Specialized Series</text>
        </svg>