<svg width="1200" height="600" viewBox="0 0 1200 600" xmlns="http://www.w3.org/2000/svg">
            <rect width="1200" height="600" fill="#0f172a"/><path d="M 899.9045027911052 7.661981489945902 L 869.189307625129 57.6619814899459 L 882.4734914427609 107.6619814899459" stroke="#38bdf8" fill="none" opacity="0.4"/>
                    <circle cx="899.9045027911052" cy="7.661981489945902" r="3" fill="#f472b6"/><path d="M 840.3616340110602 351.34170695382636 L 808.924036325152 401.34170695382636 L 859.3823677998444 451.34170695382636" stroke="#38bdf8" fill="none" opacity="0.4"/>
                    <circle cx="840.3616340110602" cy="351.34170695382636" r="3" fill="#f472b6"/><path d="M 851.9167931342963 110.45348743718932 L 814.7141007357504 160.45348743718932 L 891.9271783379372 210.45348743718932" stroke="#38bdf8" fill="none" opacity="0.4"/>
                    <circle cx="851.9167931342963" cy="110.45348743718932" r="3" fill="#f472b6"/><path d="M 577.6226488342218 70.79773074037803 L 596.1667657757062 120.79773074037803 L 568.558151851721 170.79773074037803" stroke="#38bdf8" fill="none" opacity="0.4"/>
                    <circle cx="577.6226488342218" cy="70.79773074037803" r="3" fill="#f472b6"/><path d="M 608.7331426198944 30.087807051313575 L 597.8808805979725 80.08780705131358 L 605.4723877681226 130.08780705131358" stroke="#38bdf8" fill="none" opacity="0.4"/>
                    <circle cx="608.7331426198944" cy="30.087807051313575" r="3" fill="#f472b6"/><path d="M 345.23469439209293 356.78400125507324 L 333.14533687907897 406.78400125507324 L 374.8386245272741 456.78400125507324" stroke="#38bdf8" fill="none" opacity="0.4"/>
                    <circle cx="345.23469439209293" cy="356.78400125507324" r="3" fill="#f472b6"/><path d="M 1113.6280881306448 372.49048967241833 L 1085.7942683198416 422.49048967241833 L 1140.0610652711975 472.49048967241833" stroke="#38bdf8" fill="none" opacity="0.4"/>
                    <circle cx="1113.6280881306448" cy="372.49048967241833" r="3" fill="#f472b6"/><path d="M 999.3868731096882 169.06831516062084 L 969.9588033360669 219.06831516062084 L 1008.1835912711995 269.06831516062084" stroke="#38bdf8" fill="none" opacity="0.4"/>
                    <circle cx="999.3868731096882" cy="169.06831516062084" r="3" fill="#f472b6"/><path d="M 418.32669039096686 222.59667909747805 L 443.18906856253193 272.59667909747805 L 386.97984221282127 322.59667909747805" stroke="#38bdf8" fill="none" opacity="0.4"/>
                    <circle cx="418.32669039096686" cy="222.59667909747805" r="3" fill="#f472b6"/><path d="M 26.882453496364178 19.934298936823325 L -17.28584989123192 69.93429893682332 L 52.634414663543794 119.93429893682332" stroke="#38bdf8" fill="none" opacity="0.4"/>
                    <circle cx="26.882453496364178" cy="19.934298936823325" r="3" fill="#f472b6"/>
            <text x="600" y="520" font-family="Segoe UI, Arial, sans-serif" font-size="38" font-weight="800" fill="#ffffff" text-anchor="middle">Implementing Advanced Contextual Tooltips for Complex Dat...</text>
            <text x="600" y="560" font-family="Segoe UI, Arial, sans-serif" font-size="16" font-weight="600" fill="#38bdf8" text-anchor="middle" style="letter-spacing: 4px; text-transform: uppercase;">UI UX Powerhouse • Specialized Series</text>
        </svg>