<svg width="1200" height="600" viewBox="0 0 1200 600" xmlns="http://www.w3.org/2000/svg">
            <rect width="1200" height="600" fill="#0c4a6e"/><circle cx="475.6809120847947" cy="396.0441913048271" r="25.935922336939257" fill="#7dd3fc" opacity="0.1"/><circle cx="672.8251444921625" cy="8.08311584232797" r="21.204382786272618" fill="#7dd3fc" opacity="0.1"/><circle cx="316.83168158941726" cy="118.25583350582747" r="10.287682978848807" fill="#7dd3fc" opacity="0.1"/><circle cx="497.79041779620457" cy="110.18007797838436" r="11.335869132017251" fill="#7dd3fc" opacity="0.1"/><circle cx="795.3859612382075" cy="334.7613483932946" r="14.160426206653938" fill="#7dd3fc" opacity="0.1"/><circle cx="473.2053401075973" cy="45.24397142013186" r="19.542306419534725" fill="#7dd3fc" opacity="0.1"/><circle cx="150.75131874964427" cy="207.73008292999293" r="40.53395389615616" fill="#7dd3fc" opacity="0.1"/><circle cx="0.7239266284159385" cy="366.5080659848172" r="25.637743774450428" fill="#7dd3fc" opacity="0.1"/><circle cx="675.3912301894161" cy="96.63305334543111" r="19.565746213902457" fill="#7dd3fc" opacity="0.1"/><circle cx="756.0711138428815" cy="151.27943421684904" r="34.45763164370874" fill="#7dd3fc" opacity="0.1"/><circle cx="647.1628018611227" cy="278.9790257214918" r="38.02051405472412" fill="#7dd3fc" opacity="0.1"/><circle cx="840.1568555404083" cy="387.4165555613672" r="35.791284476799774" fill="#7dd3fc" opacity="0.1"/><circle cx="536.1428004260233" cy="225.65101550135296" r="36.30637082045723" fill="#7dd3fc" opacity="0.1"/><circle cx="706.7507739579014" cy="39.736090348975495" r="28.173340807843488" fill="#7dd3fc" opacity="0.1"/><circle cx="1139.2850193820777" cy="73.09306457755156" r="20.009216474927598" fill="#7dd3fc" opacity="0.1"/><circle cx="584.5258467928033" cy="16.272683132410748" r="31.0871077491538" fill="#7dd3fc" opacity="0.1"/><circle cx="112.22804217977682" cy="396.8030392195942" r="34.20196510025562" fill="#7dd3fc" opacity="0.1"/><circle cx="947.7410558931297" cy="91.73958650371787" r="19.849660852123634" fill="#7dd3fc" opacity="0.1"/><circle cx="770.5746335188451" cy="11.369003018262447" r="21.93444701639237" fill="#7dd3fc" opacity="0.1"/><circle cx="120.34468670935894" cy="304.9688771512592" r="29.643218415949377" fill="#7dd3fc" opacity="0.1"/><circle cx="1084.1513772131293" cy="296.07414127858647" r="16.85233794954911" fill="#7dd3fc" opacity="0.1"/><circle cx="124.651671196807" cy="145.0305753180146" r="21.584940245084" fill="#7dd3fc" opacity="0.1"/><circle cx="178.55913828898338" cy="283.5203189199092" r="46.246464238647604" fill="#7dd3fc" opacity="0.1"/><circle cx="11.094726884766715" cy="39.60919173005095" r="46.45611193176592" fill="#7dd3fc" opacity="0.1"/><circle cx="764.2834949430835" cy="111.00007577770157" r="42.59442935970583" fill="#7dd3fc" opacity="0.1"/><circle cx="855.2355736370373" cy="127.66650985722663" r="25.671222653982113" fill="#7dd3fc" opacity="0.1"/><circle cx="10.045727800024906" cy="131.4471716834305" r="47.71001662586059" fill="#7dd3fc" opacity="0.1"/><circle cx="545.8975127083249" cy="255.58289350447012" r="45.73521302025256" fill="#7dd3fc" opacity="0.1"/><circle cx="632.3926727465732" cy="231.70644697747775" r="26.779380562948063" fill="#7dd3fc" opacity="0.1"/><circle cx="948.9736842228012" cy="108.82437796899467" r="16.7881823403377" fill="#7dd3fc" opacity="0.1"/>
            <text x="600" y="520" font-family="Segoe UI, Arial, sans-serif" font-size="38" font-weight="800" fill="#ffffff" text-anchor="middle">Implementing Custom Scroll Snap Interactions in CSS to En...</text>
            <text x="600" y="560" font-family="Segoe UI, Arial, sans-serif" font-size="16" font-weight="600" fill="#7dd3fc" text-anchor="middle" style="letter-spacing: 4px; text-transform: uppercase;">UI UX Powerhouse • Specialized Series</text>
        </svg>