<svg width="1200" height="600" viewBox="0 0 1200 600" xmlns="http://www.w3.org/2000/svg">
        <rect width="1200" height="600" fill="#111827"/><rect x="150" y="217.73401291575283" width="60" height="132.26598708424717" fill="#10b981" opacity="0.6"/>
                    <rect x="170" y="197.73401291575283" width="60" height="132.26598708424717" fill="#34d399" opacity="0.4" transform="skewY(-20)"/><rect x="270" y="250.39514683257948" width="60" height="99.60485316742052" fill="#10b981" opacity="0.6"/>
                    <rect x="290" y="230.39514683257948" width="60" height="99.60485316742052" fill="#34d399" opacity="0.4" transform="skewY(-20)"/><rect x="390" y="125.93345527257043" width="60" height="224.06654472742957" fill="#10b981" opacity="0.6"/>
                    <rect x="410" y="105.93345527257043" width="60" height="224.06654472742957" fill="#34d399" opacity="0.4" transform="skewY(-20)"/><rect x="510" y="258.85659865334674" width="60" height="91.14340134665326" fill="#10b981" opacity="0.6"/>
                    <rect x="530" y="238.85659865334674" width="60" height="91.14340134665326" fill="#34d399" opacity="0.4" transform="skewY(-20)"/><rect x="630" y="253.4880769373558" width="60" height="96.5119230626442" fill="#10b981" opacity="0.6"/>
                    <rect x="650" y="233.4880769373558" width="60" height="96.5119230626442" fill="#34d399" opacity="0.4" transform="skewY(-20)"/><rect x="750" y="235.903592636987" width="60" height="114.09640736301299" fill="#10b981" opacity="0.6"/>
                    <rect x="770" y="215.903592636987" width="60" height="114.09640736301299" fill="#34d399" opacity="0.4" transform="skewY(-20)"/><rect x="870" y="224.6471491875127" width="60" height="125.3528508124873" fill="#10b981" opacity="0.6"/>
                    <rect x="890" y="204.6471491875127" width="60" height="125.3528508124873" fill="#34d399" opacity="0.4" transform="skewY(-20)"/><rect x="990" y="116.94275123118132" width="60" height="233.05724876881868" fill="#10b981" opacity="0.6"/>
                    <rect x="1010" y="96.94275123118132" width="60" height="233.05724876881868" fill="#34d399" opacity="0.4" transform="skewY(-20)"/>
        <text x="600" y="520" font-family="Segoe UI, Arial, sans-serif" font-size="38" font-weight="800" fill="#ffffff" text-anchor="middle">Implementing Context-Aware Dynamic Tooltips in React to E...</text>
        <text x="600" y="560" font-family="Segoe UI, Arial, sans-serif" font-size="16" font-weight="600" fill="#10b981" text-anchor="middle" style="letter-spacing: 4px; text-transform: uppercase;">UI UX Powerhouse • Specialized Series</text>
    </svg>