<svg width="1200" height="600" viewBox="0 0 1200 600" xmlns="http://www.w3.org/2000/svg">
        <rect width="1200" height="600" fill="#1e1b4b"/><circle cx="6.915095572219343" cy="296.563594773761" r="35.26325313876441" fill="#f43f5e" opacity="0.1"/><circle cx="1095.6685190418284" cy="22.86530639353259" r="32.60138674006157" fill="#f43f5e" opacity="0.1"/><circle cx="179.36764240657794" cy="79.97287007638079" r="41.26828253238273" fill="#f43f5e" opacity="0.1"/><circle cx="1013.383090806019" cy="261.46089922985993" r="12.334012425162655" fill="#f43f5e" opacity="0.1"/><circle cx="814.8027868312056" cy="313.3682807405421" r="12.288373158917238" fill="#f43f5e" opacity="0.1"/><circle cx="204.58117588168534" cy="260.6000790190592" r="39.57993776413787" fill="#f43f5e" opacity="0.1"/><circle cx="682.9306581603305" cy="306.6703169410175" r="32.83399805550289" fill="#f43f5e" opacity="0.1"/><circle cx="575.237036429462" cy="116.25338127252007" r="44.77975574416632" fill="#f43f5e" opacity="0.1"/><circle cx="406.6949286265299" cy="153.42216557037318" r="19.29749524235376" fill="#f43f5e" opacity="0.1"/><circle cx="1084.1021507236292" cy="0.568049488356337" r="42.57490029132896" fill="#f43f5e" opacity="0.1"/><circle cx="796.9753129189485" cy="181.91254656703677" r="12.619834773886396" fill="#f43f5e" opacity="0.1"/><circle cx="739.3907422228949" cy="59.67917907619267" r="38.38735414792609" fill="#f43f5e" opacity="0.1"/><circle cx="26.788280803884845" cy="310.22378398047294" r="34.8029653411686" fill="#f43f5e" opacity="0.1"/><circle cx="1051.3552509280998" cy="281.5766623978561" r="44.41922262652952" fill="#f43f5e" opacity="0.1"/><circle cx="677.1285387621901" cy="391.81291145578143" r="32.385187361069256" fill="#f43f5e" opacity="0.1"/><circle cx="391.38895195947043" cy="232.85832894107443" r="47.26367414674314" fill="#f43f5e" opacity="0.1"/><circle cx="246.26601417876373" cy="15.768769090573187" r="15.83783809290253" fill="#f43f5e" opacity="0.1"/><circle cx="3.5626585260615684" cy="380.8883104024062" r="10.935392923638574" fill="#f43f5e" opacity="0.1"/><circle cx="337.3585664026905" cy="331.0237803591008" r="48.62823672097875" fill="#f43f5e" opacity="0.1"/><circle cx="49.98592981901311" cy="80.72447058584657" r="33.276654559522285" fill="#f43f5e" opacity="0.1"/><circle cx="597.0061017291556" cy="255.2903923271515" r="48.83135191499605" fill="#f43f5e" opacity="0.1"/><circle cx="319.2543650759035" cy="210.2608135995979" r="25.50997644488234" fill="#f43f5e" opacity="0.1"/><circle cx="181.8083422462223" cy="30.96888521904475" r="33.25714325726949" fill="#f43f5e" opacity="0.1"/><circle cx="516.7312261712141" cy="223.75863619236043" r="40.73985703231301" fill="#f43f5e" opacity="0.1"/><circle cx="754.8592887142149" cy="68.89301890078059" r="42.24722821927571" fill="#f43f5e" opacity="0.1"/><circle cx="83.25262181679136" cy="165.55358754994813" r="24.21720839641239" fill="#f43f5e" opacity="0.1"/><circle cx="1165.1548663583526" cy="162.79936998253106" r="10.318689667619765" fill="#f43f5e" opacity="0.1"/><circle cx="1087.0697716636641" cy="158.50205884416937" r="33.942290553568455" fill="#f43f5e" opacity="0.1"/><circle cx="125.26554968644632" cy="259.5920344881051" r="39.17622369823221" fill="#f43f5e" opacity="0.1"/><circle cx="333.3906856496469" cy="347.0945017048166" r="20.97440359222219" fill="#f43f5e" opacity="0.1"/>
        <text x="600" y="520" font-family="Segoe UI, Arial, sans-serif" font-size="38" font-weight="800" fill="#ffffff" text-anchor="middle">Implementing Time-Sensitive Feedback Mechanisms for Enhan...</text>
        <text x="600" y="560" font-family="Segoe UI, Arial, sans-serif" font-size="16" font-weight="600" fill="#f43f5e" text-anchor="middle" style="letter-spacing: 4px; text-transform: uppercase;">UI UX Powerhouse • Specialized Series</text>
    </svg>