<svg width="1200" height="600" viewBox="0 0 1200 600" xmlns="http://www.w3.org/2000/svg">
        <rect width="1200" height="600" fill="#111827"/><path d="M 736.9542292377446 361.91274077718845 L 776.9492775013532 411.91274077718845 L 729.860003156864 461.91274077718845" stroke="#10b981" fill="none" opacity="0.4"/>
                    <circle cx="736.9542292377446" cy="361.91274077718845" r="3" fill="#fbbf24"/><path d="M 386.7198649721104 307.20325016445713 L 374.2424780586589 357.20325016445713 L 345.99940399029947 407.20325016445713" stroke="#10b981" fill="none" opacity="0.4"/>
                    <circle cx="386.7198649721104" cy="307.20325016445713" r="3" fill="#fbbf24"/><path d="M 558.5121190284553 205.51544874324463 L 510.36659419096395 255.51544874324463 L 508.79527913702987 305.51544874324463" stroke="#10b981" fill="none" opacity="0.4"/>
                    <circle cx="558.5121190284553" cy="205.51544874324463" r="3" fill="#fbbf24"/><path d="M 1107.3224183609454 218.87785213984898 L 1112.6449502222385 268.877852139849 L 1094.718741156703 318.877852139849" stroke="#10b981" fill="none" opacity="0.4"/>
                    <circle cx="1107.3224183609454" cy="218.87785213984898" r="3" fill="#fbbf24"/><path d="M 399.9694806836487 194.26552744098444 L 398.9150292583872 244.26552744098444 L 368.6434077359081 294.26552744098444" stroke="#10b981" fill="none" opacity="0.4"/>
                    <circle cx="399.9694806836487" cy="194.26552744098444" r="3" fill="#fbbf24"/><path d="M 1092.129114105046 125.24540120120946 L 1043.0429558301512 175.24540120120946 L 1109.0287159405307 225.24540120120946" stroke="#10b981" fill="none" opacity="0.4"/>
                    <circle cx="1092.129114105046" cy="125.24540120120946" r="3" fill="#fbbf24"/><path d="M 976.8404925642244 211.5044426987879 L 964.2573617905327 261.5044426987879 L 933.3234655098295 311.5044426987879" stroke="#10b981" fill="none" opacity="0.4"/>
                    <circle cx="976.8404925642244" cy="211.5044426987879" r="3" fill="#fbbf24"/><path d="M 242.01074232914834 382.0569890238403 L 243.10334107806284 432.0569890238403 L 228.28115565926055 482.0569890238403" stroke="#10b981" fill="none" opacity="0.4"/>
                    <circle cx="242.01074232914834" cy="382.0569890238403" r="3" fill="#fbbf24"/><path d="M 946.7606771511782 256.72104157638387 L 961.5634907248591 306.72104157638387 L 906.6968406892556 356.72104157638387" stroke="#10b981" fill="none" opacity="0.4"/>
                    <circle cx="946.7606771511782" cy="256.72104157638387" r="3" fill="#fbbf24"/><path d="M 37.764052959755645 349.89984949934296 L 14.082209176740434 399.89984949934296 L 84.9222617027408 449.89984949934296" stroke="#10b981" fill="none" opacity="0.4"/>
                    <circle cx="37.764052959755645" cy="349.89984949934296" r="3" fill="#fbbf24"/>
        <text x="600" y="520" font-family="Segoe UI, Arial, sans-serif" font-size="38" font-weight="800" fill="#ffffff" text-anchor="middle">Implementing User-Centric Microinteractions for Enhancing...</text>
        <text x="600" y="560" font-family="Segoe UI, Arial, sans-serif" font-size="16" font-weight="600" fill="#10b981" text-anchor="middle" style="letter-spacing: 4px; text-transform: uppercase;">UI UX Powerhouse • Specialized Series</text>
    </svg>