<svg width="1200" height="600" viewBox="0 0 1200 600" xmlns="http://www.w3.org/2000/svg">
        <rect width="1200" height="600" fill="#111827"/><rect x="150" y="200.1988663627344" width="60" height="149.8011336372656" fill="#10b981" opacity="0.6"/>
                    <rect x="170" y="180.1988663627344" width="60" height="149.8011336372656" fill="#34d399" opacity="0.4" transform="skewY(-20)"/><rect x="270" y="224.67318352282746" width="60" height="125.32681647717254" fill="#10b981" opacity="0.6"/>
                    <rect x="290" y="204.67318352282746" width="60" height="125.32681647717254" fill="#34d399" opacity="0.4" transform="skewY(-20)"/><rect x="390" y="102.74885404433007" width="60" height="247.25114595566993" fill="#10b981" opacity="0.6"/>
                    <rect x="410" y="82.74885404433007" width="60" height="247.25114595566993" fill="#34d399" opacity="0.4" transform="skewY(-20)"/><rect x="510" y="143.48085656547482" width="60" height="206.51914343452518" fill="#10b981" opacity="0.6"/>
                    <rect x="530" y="123.48085656547482" width="60" height="206.51914343452518" fill="#34d399" opacity="0.4" transform="skewY(-20)"/><rect x="630" y="265.86239794232824" width="60" height="84.13760205767176" fill="#10b981" opacity="0.6"/>
                    <rect x="650" y="245.86239794232824" width="60" height="84.13760205767176" fill="#34d399" opacity="0.4" transform="skewY(-20)"/><rect x="750" y="260.5453264548487" width="60" height="89.45467354515131" fill="#10b981" opacity="0.6"/>
                    <rect x="770" y="240.5453264548487" width="60" height="89.45467354515131" fill="#34d399" opacity="0.4" transform="skewY(-20)"/><rect x="870" y="153.09092040733958" width="60" height="196.90907959266042" fill="#10b981" opacity="0.6"/>
                    <rect x="890" y="133.09092040733958" width="60" height="196.90907959266042" fill="#34d399" opacity="0.4" transform="skewY(-20)"/><rect x="990" y="177.01187936836504" width="60" height="172.98812063163496" fill="#10b981" opacity="0.6"/>
                    <rect x="1010" y="157.01187936836504" width="60" height="172.98812063163496" fill="#34d399" opacity="0.4" transform="skewY(-20)"/>
        <text x="600" y="520" font-family="Segoe UI, Arial, sans-serif" font-size="38" font-weight="800" fill="#ffffff" text-anchor="middle">Implementing Intersection Observer for Lazy Loading Inter...</text>
        <text x="600" y="560" font-family="Segoe UI, Arial, sans-serif" font-size="16" font-weight="600" fill="#10b981" text-anchor="middle" style="letter-spacing: 4px; text-transform: uppercase;">UI UX Powerhouse • Specialized Series</text>
    </svg>