<svg width="1200" height="600" viewBox="0 0 1200 600" xmlns="http://www.w3.org/2000/svg">
        <rect width="1200" height="600" fill="#0f172a"/><circle cx="974.671282816189" cy="46.16572936574812" r="24.1744152969477" fill="#38bdf8" opacity="0.1"/><circle cx="1050.0848481809953" cy="288.9578718401026" r="18.36871231069381" fill="#38bdf8" opacity="0.1"/><circle cx="73.56645619511255" cy="222.1390561106091" r="12.19515786280681" fill="#38bdf8" opacity="0.1"/><circle cx="341.93519268192176" cy="88.41220288886689" r="20.681166022113757" fill="#38bdf8" opacity="0.1"/><circle cx="33.697791193117155" cy="347.798628329474" r="46.61131412269242" fill="#38bdf8" opacity="0.1"/><circle cx="670.6895721317778" cy="275.2825325151207" r="46.89964506193064" fill="#38bdf8" opacity="0.1"/><circle cx="741.4959056440239" cy="323.1629143054306" r="33.175087193303625" fill="#38bdf8" opacity="0.1"/><circle cx="189.84312614411465" cy="35.85623121798562" r="14.272168372262968" fill="#38bdf8" opacity="0.1"/><circle cx="1092.774841778737" cy="385.2560275910946" r="33.86733936720702" fill="#38bdf8" opacity="0.1"/><circle cx="44.88096573295479" cy="104.27185753178492" r="21.237455602786213" fill="#38bdf8" opacity="0.1"/><circle cx="708.9277202092148" cy="388.881653889257" r="49.460770045770914" fill="#38bdf8" opacity="0.1"/><circle cx="1082.2834058497392" cy="258.40278166142525" r="20.888071550725726" fill="#38bdf8" opacity="0.1"/><circle cx="399.4254750490654" cy="395.6918601601501" r="42.49745706547401" fill="#38bdf8" opacity="0.1"/><circle cx="311.6029149510723" cy="118.28936885976873" r="20.456667296020896" fill="#38bdf8" opacity="0.1"/><circle cx="329.9673250512569" cy="365.3029002714902" r="31.397424770166253" fill="#38bdf8" opacity="0.1"/><circle cx="1184.808393176354" cy="275.4111222442589" r="20.424186833333806" fill="#38bdf8" opacity="0.1"/><circle cx="1158.5624278901378" cy="24.86747568809733" r="14.08558024042577" fill="#38bdf8" opacity="0.1"/><circle cx="461.71372110311495" cy="132.54994538046958" r="12.23858788729558" fill="#38bdf8" opacity="0.1"/><circle cx="361.8163306709903" cy="165.88286979531404" r="17.63822753331624" fill="#38bdf8" opacity="0.1"/><circle cx="402.2911404217666" cy="286.5360590240698" r="44.91441766280332" fill="#38bdf8" opacity="0.1"/><circle cx="1097.869151827399" cy="131.65848004650798" r="15.62542654457502" fill="#38bdf8" opacity="0.1"/><circle cx="162.66934160812525" cy="31.04051814880222" r="14.481490986418066" fill="#38bdf8" opacity="0.1"/><circle cx="155.27739225653931" cy="275.3386707758182" r="12.958995177341421" fill="#38bdf8" opacity="0.1"/><circle cx="87.92106044566026" cy="143.0133716756245" r="16.046029736680794" fill="#38bdf8" opacity="0.1"/><circle cx="113.34704837845493" cy="55.03263021200837" r="47.20310899647302" fill="#38bdf8" opacity="0.1"/><circle cx="1134.7706926841056" cy="267.3666966104065" r="17.5460315570308" fill="#38bdf8" opacity="0.1"/><circle cx="673.0570433253888" cy="59.70650660019601" r="27.420638966796105" fill="#38bdf8" opacity="0.1"/><circle cx="1101.3126248822573" cy="382.682613794168" r="40.15587800724461" fill="#38bdf8" opacity="0.1"/><circle cx="10.107584271099768" cy="396.99842804138825" r="27.09437349207292" fill="#38bdf8" opacity="0.1"/><circle cx="603.7459578623384" cy="370.5257618254109" r="38.89338887929625" fill="#38bdf8" opacity="0.1"/>
        <text x="600" y="520" font-family="Segoe UI, Arial, sans-serif" font-size="38" font-weight="800" fill="#ffffff" text-anchor="middle">Implementing Progressive Enhancement for Accessibility in...</text>
        <text x="600" y="560" font-family="Segoe UI, Arial, sans-serif" font-size="16" font-weight="600" fill="#38bdf8" text-anchor="middle" style="letter-spacing: 4px; text-transform: uppercase;">UI UX Powerhouse • Specialized Series</text>
    </svg>