<svg width="1200" height="600" viewBox="0 0 1200 600" xmlns="http://www.w3.org/2000/svg">
        
            <rect width="1200" height="600" fill="#78350f"/>
            <g opacity="0.3">
                <line x1="445.7382908749423" y1="103.26672352011883" x2="648.0225276318379" y2="374.64773632764263" stroke="#fbbf24" stroke-width="1"/><line x1="445.7382908749423" y1="103.26672352011883" x2="720.1872005486621" y2="267.5299349609304" stroke="#fbbf24" stroke-width="1"/><line x1="445.7382908749423" y1="103.26672352011883" x2="647.4810778108804" y2="114.22883580598864" stroke="#fbbf24" stroke-width="1"/><line x1="445.7382908749423" y1="103.26672352011883" x2="793.7124057636538" y2="347.7686010461184" stroke="#fbbf24" stroke-width="1"/><line x1="445.7382908749423" y1="103.26672352011883" x2="398.9214500394155" y2="393.4364909127453" stroke="#fbbf24" stroke-width="1"/><line x1="445.7382908749423" y1="103.26672352011883" x2="455.4245955600891" y2="153.0308723135022" stroke="#fbbf24" stroke-width="1"/><line x1="445.7382908749423" y1="103.26672352011883" x2="321.0379417749209" y2="190.37822430163942" stroke="#fbbf24" stroke-width="1"/><line x1="445.7382908749423" y1="103.26672352011883" x2="521.4224344130344" y2="384.5187330502995" stroke="#fbbf24" stroke-width="1"/><line x1="445.7382908749423" y1="103.26672352011883" x2="603.6507540691673" y2="383.39143242862974" stroke="#fbbf24" stroke-width="1"/><line x1="648.0225276318379" y1="374.64773632764263" x2="720.1872005486621" y2="267.5299349609304" stroke="#fbbf24" stroke-width="1"/><line x1="648.0225276318379" y1="374.64773632764263" x2="647.4810778108804" y2="114.22883580598864" stroke="#fbbf24" stroke-width="1"/><line x1="648.0225276318379" y1="374.64773632764263" x2="793.7124057636538" y2="347.7686010461184" stroke="#fbbf24" stroke-width="1"/><line x1="648.0225276318379" y1="374.64773632764263" x2="398.9214500394155" y2="393.4364909127453" stroke="#fbbf24" stroke-width="1"/><line x1="648.0225276318379" y1="374.64773632764263" x2="455.4245955600891" y2="153.0308723135022" stroke="#fbbf24" stroke-width="1"/><line x1="648.0225276318379" y1="374.64773632764263" x2="321.0379417749209" y2="190.37822430163942" stroke="#fbbf24" stroke-width="1"/><line x1="648.0225276318379" y1="374.64773632764263" x2="521.4224344130344" y2="384.5187330502995" stroke="#fbbf24" stroke-width="1"/><line x1="648.0225276318379" y1="374.64773632764263" x2="603.6507540691673" y2="383.39143242862974" stroke="#fbbf24" stroke-width="1"/><line x1="720.1872005486621" y1="267.5299349609304" x2="647.4810778108804" y2="114.22883580598864" stroke="#fbbf24" stroke-width="1"/><line x1="720.1872005486621" y1="267.5299349609304" x2="793.7124057636538" y2="347.7686010461184" stroke="#fbbf24" stroke-width="1"/><line x1="720.1872005486621" y1="267.5299349609304" x2="398.9214500394155" y2="393.4364909127453" stroke="#fbbf24" stroke-width="1"/><line x1="720.1872005486621" y1="267.5299349609304" x2="455.4245955600891" y2="153.0308723135022" stroke="#fbbf24" stroke-width="1"/><line x1="720.1872005486621" y1="267.5299349609304" x2="321.0379417749209" y2="190.37822430163942" stroke="#fbbf24" stroke-width="1"/><line x1="720.1872005486621" y1="267.5299349609304" x2="521.4224344130344" y2="384.5187330502995" stroke="#fbbf24" stroke-width="1"/><line x1="720.1872005486621" y1="267.5299349609304" x2="603.6507540691673" y2="383.39143242862974" stroke="#fbbf24" stroke-width="1"/><line x1="647.4810778108804" y1="114.22883580598864" x2="793.7124057636538" y2="347.7686010461184" stroke="#fbbf24" stroke-width="1"/><line x1="647.4810778108804" y1="114.22883580598864" x2="398.9214500394155" y2="393.4364909127453" stroke="#fbbf24" stroke-width="1"/><line x1="647.4810778108804" y1="114.22883580598864" x2="455.4245955600891" y2="153.0308723135022" stroke="#fbbf24" stroke-width="1"/><line x1="647.4810778108804" y1="114.22883580598864" x2="321.0379417749209" y2="190.37822430163942" stroke="#fbbf24" stroke-width="1"/><line x1="647.4810778108804" y1="114.22883580598864" x2="521.4224344130344" y2="384.5187330502995" stroke="#fbbf24" stroke-width="1"/><line x1="647.4810778108804" y1="114.22883580598864" x2="603.6507540691673" y2="383.39143242862974" stroke="#fbbf24" stroke-width="1"/><line x1="793.7124057636538" y1="347.7686010461184" x2="398.9214500394155" y2="393.4364909127453" stroke="#fbbf24" stroke-width="1"/><line x1="793.7124057636538" y1="347.7686010461184" x2="455.4245955600891" y2="153.0308723135022" stroke="#fbbf24" stroke-width="1"/><line x1="793.7124057636538" y1="347.7686010461184" x2="321.0379417749209" y2="190.37822430163942" stroke="#fbbf24" stroke-width="1"/><line x1="793.7124057636538" y1="347.7686010461184" x2="521.4224344130344" y2="384.5187330502995" stroke="#fbbf24" stroke-width="1"/><line x1="793.7124057636538" y1="347.7686010461184" x2="603.6507540691673" y2="383.39143242862974" stroke="#fbbf24" stroke-width="1"/><line x1="398.9214500394155" y1="393.4364909127453" x2="455.4245955600891" y2="153.0308723135022" stroke="#fbbf24" stroke-width="1"/><line x1="398.9214500394155" y1="393.4364909127453" x2="321.0379417749209" y2="190.37822430163942" stroke="#fbbf24" stroke-width="1"/><line x1="398.9214500394155" y1="393.4364909127453" x2="521.4224344130344" y2="384.5187330502995" stroke="#fbbf24" stroke-width="1"/><line x1="398.9214500394155" y1="393.4364909127453" x2="603.6507540691673" y2="383.39143242862974" stroke="#fbbf24" stroke-width="1"/><line x1="455.4245955600891" y1="153.0308723135022" x2="321.0379417749209" y2="190.37822430163942" stroke="#fbbf24" stroke-width="1"/><line x1="455.4245955600891" y1="153.0308723135022" x2="521.4224344130344" y2="384.5187330502995" stroke="#fbbf24" stroke-width="1"/><line x1="455.4245955600891" y1="153.0308723135022" x2="603.6507540691673" y2="383.39143242862974" stroke="#fbbf24" stroke-width="1"/><line x1="321.0379417749209" y1="190.37822430163942" x2="521.4224344130344" y2="384.5187330502995" stroke="#fbbf24" stroke-width="1"/><line x1="321.0379417749209" y1="190.37822430163942" x2="603.6507540691673" y2="383.39143242862974" stroke="#fbbf24" stroke-width="1"/><line x1="521.4224344130344" y1="384.5187330502995" x2="603.6507540691673" y2="383.39143242862974" stroke="#fbbf24" stroke-width="1"/>
            </g>
            <circle cx="445.7382908749423" cy="103.26672352011883" r="6.009274625976104" fill="#fbbf24"/><circle cx="648.0225276318379" cy="374.64773632764263" r="8.965851741180813" fill="#fbbf24"/><circle cx="720.1872005486621" cy="267.5299349609304" r="6.068348293498275" fill="#fbbf24"/><circle cx="647.4810778108804" cy="114.22883580598864" r="10.210544158406265" fill="#fbbf24"/><circle cx="793.7124057636538" cy="347.7686010461184" r="7.039194470431539" fill="#fbbf24"/><circle cx="398.9214500394155" cy="393.4364909127453" r="10.00358972416143" fill="#fbbf24"/><circle cx="455.4245955600891" cy="153.0308723135022" r="9.452608698615222" fill="#fbbf24"/><circle cx="321.0379417749209" cy="190.37822430163942" r="8.765170806713286" fill="#fbbf24"/><circle cx="521.4224344130344" cy="384.5187330502995" r="8.420221605119877" fill="#fbbf24"/><circle cx="603.6507540691673" cy="383.39143242862974" r="4.240322474604909" fill="#fbbf24"/>
        
        <text x="600" y="520" font-family="Segoe UI, Arial" font-size="38" font-weight="800" fill="#f8fafc" text-anchor="middle">Implementing Advanced Semantic Elements for Improved Acce...</text>
    </svg>