<svg width="1200" height="600" viewBox="0 0 1200 600" xmlns="http://www.w3.org/2000/svg">
            <rect width="1200" height="600" fill="#0f172a"/><rect x="150" y="114.96642490353679" width="60" height="235.0335750964632" fill="#38bdf8" opacity="0.6"/>
                    <rect x="170" y="94.96642490353679" width="60" height="235.0335750964632" fill="#818cf8" opacity="0.4" transform="skewY(-20)"/><rect x="270" y="221.886353019363" width="60" height="128.113646980637" fill="#38bdf8" opacity="0.6"/>
                    <rect x="290" y="201.886353019363" width="60" height="128.113646980637" fill="#818cf8" opacity="0.4" transform="skewY(-20)"/><rect x="390" y="262.3714754920002" width="60" height="87.62852450799983" fill="#38bdf8" opacity="0.6"/>
                    <rect x="410" y="242.37147549200017" width="60" height="87.62852450799983" fill="#818cf8" opacity="0.4" transform="skewY(-20)"/><rect x="510" y="294.4372865873447" width="60" height="55.562713412655285" fill="#38bdf8" opacity="0.6"/>
                    <rect x="530" y="274.4372865873447" width="60" height="55.562713412655285" fill="#818cf8" opacity="0.4" transform="skewY(-20)"/><rect x="630" y="165.91763485103002" width="60" height="184.08236514896998" fill="#38bdf8" opacity="0.6"/>
                    <rect x="650" y="145.91763485103002" width="60" height="184.08236514896998" fill="#818cf8" opacity="0.4" transform="skewY(-20)"/><rect x="750" y="112.29255133966944" width="60" height="237.70744866033056" fill="#38bdf8" opacity="0.6"/>
                    <rect x="770" y="92.29255133966944" width="60" height="237.70744866033056" fill="#818cf8" opacity="0.4" transform="skewY(-20)"/><rect x="870" y="190.68466751014057" width="60" height="159.31533248985943" fill="#38bdf8" opacity="0.6"/>
                    <rect x="890" y="170.68466751014057" width="60" height="159.31533248985943" fill="#818cf8" opacity="0.4" transform="skewY(-20)"/><rect x="990" y="104.90427601289412" width="60" height="245.09572398710588" fill="#38bdf8" opacity="0.6"/>
                    <rect x="1010" y="84.90427601289412" width="60" height="245.09572398710588" fill="#818cf8" opacity="0.4" transform="skewY(-20)"/>
            <text x="600" y="520" font-family="Segoe UI, Arial, sans-serif" font-size="38" font-weight="800" fill="#ffffff" text-anchor="middle">Implementing Advanced Keyboard Navigation for Complex Dat...</text>
            <text x="600" y="560" font-family="Segoe UI, Arial, sans-serif" font-size="16" font-weight="600" fill="#38bdf8" text-anchor="middle" style="letter-spacing: 4px; text-transform: uppercase;">UI UX Powerhouse • Specialized Series</text>
        </svg>