<svg width="1200" height="600" viewBox="0 0 1200 600" xmlns="http://www.w3.org/2000/svg">
            <rect width="1200" height="600" fill="#0f172a"/><rect x="150" y="236.3158693882724" width="60" height="113.6841306117276" fill="#38bdf8" opacity="0.6"/>
                    <rect x="170" y="216.3158693882724" width="60" height="113.6841306117276" fill="#818cf8" opacity="0.4" transform="skewY(-20)"/><rect x="270" y="165.08864825300407" width="60" height="184.91135174699593" fill="#38bdf8" opacity="0.6"/>
                    <rect x="290" y="145.08864825300407" width="60" height="184.91135174699593" fill="#818cf8" opacity="0.4" transform="skewY(-20)"/><rect x="390" y="273.0335691361688" width="60" height="76.96643086383119" fill="#38bdf8" opacity="0.6"/>
                    <rect x="410" y="253.0335691361688" width="60" height="76.96643086383119" fill="#818cf8" opacity="0.4" transform="skewY(-20)"/><rect x="510" y="206.0826021421235" width="60" height="143.9173978578765" fill="#38bdf8" opacity="0.6"/>
                    <rect x="530" y="186.0826021421235" width="60" height="143.9173978578765" fill="#818cf8" opacity="0.4" transform="skewY(-20)"/><rect x="630" y="250.4574871942168" width="60" height="99.54251280578319" fill="#38bdf8" opacity="0.6"/>
                    <rect x="650" y="230.4574871942168" width="60" height="99.54251280578319" fill="#818cf8" opacity="0.4" transform="skewY(-20)"/><rect x="750" y="193.6584840519572" width="60" height="156.3415159480428" fill="#38bdf8" opacity="0.6"/>
                    <rect x="770" y="173.6584840519572" width="60" height="156.3415159480428" fill="#818cf8" opacity="0.4" transform="skewY(-20)"/><rect x="870" y="185.40896033391618" width="60" height="164.59103966608382" fill="#38bdf8" opacity="0.6"/>
                    <rect x="890" y="165.40896033391618" width="60" height="164.59103966608382" fill="#818cf8" opacity="0.4" transform="skewY(-20)"/><rect x="990" y="196.09933389583603" width="60" height="153.90066610416397" fill="#38bdf8" opacity="0.6"/>
                    <rect x="1010" y="176.09933389583603" width="60" height="153.90066610416397" fill="#818cf8" opacity="0.4" transform="skewY(-20)"/>
            <text x="600" y="520" font-family="Segoe UI, Arial, sans-serif" font-size="38" font-weight="800" fill="#ffffff" text-anchor="middle">Implementing Advanced Focus Management Techniques for Scr...</text>
            <text x="600" y="560" font-family="Segoe UI, Arial, sans-serif" font-size="16" font-weight="600" fill="#38bdf8" text-anchor="middle" style="letter-spacing: 4px; text-transform: uppercase;">UI UX Powerhouse • Specialized Series</text>
        </svg>