<svg width="1200" height="600" viewBox="0 0 1200 600" xmlns="http://www.w3.org/2000/svg">
            <rect width="1200" height="600" fill="#111827"/><rect x="150" y="129.48309004641487" width="60" height="220.51690995358513" fill="#10b981" opacity="0.6"/>
                    <rect x="170" y="109.48309004641487" width="60" height="220.51690995358513" fill="#34d399" opacity="0.4" transform="skewY(-20)"/><rect x="270" y="166.06340059424838" width="60" height="183.93659940575162" fill="#10b981" opacity="0.6"/>
                    <rect x="290" y="146.06340059424838" width="60" height="183.93659940575162" fill="#34d399" opacity="0.4" transform="skewY(-20)"/><rect x="390" y="299.30708046049403" width="60" height="50.692919539505965" fill="#10b981" opacity="0.6"/>
                    <rect x="410" y="279.30708046049403" width="60" height="50.692919539505965" fill="#34d399" opacity="0.4" transform="skewY(-20)"/><rect x="510" y="214.25485610325268" width="60" height="135.74514389674732" fill="#10b981" opacity="0.6"/>
                    <rect x="530" y="194.25485610325268" width="60" height="135.74514389674732" fill="#34d399" opacity="0.4" transform="skewY(-20)"/><rect x="630" y="209.73037030089472" width="60" height="140.26962969910528" fill="#10b981" opacity="0.6"/>
                    <rect x="650" y="189.73037030089472" width="60" height="140.26962969910528" fill="#34d399" opacity="0.4" transform="skewY(-20)"/><rect x="750" y="293.1381632105513" width="60" height="56.861836789448716" fill="#10b981" opacity="0.6"/>
                    <rect x="770" y="273.1381632105513" width="60" height="56.861836789448716" fill="#34d399" opacity="0.4" transform="skewY(-20)"/><rect x="870" y="145.10916616527538" width="60" height="204.89083383472462" fill="#10b981" opacity="0.6"/>
                    <rect x="890" y="125.10916616527538" width="60" height="204.89083383472462" fill="#34d399" opacity="0.4" transform="skewY(-20)"/><rect x="990" y="140.33523723173857" width="60" height="209.66476276826143" fill="#10b981" opacity="0.6"/>
                    <rect x="1010" y="120.33523723173857" width="60" height="209.66476276826143" fill="#34d399" opacity="0.4" transform="skewY(-20)"/>
            <text x="600" y="520" font-family="Segoe UI, Arial, sans-serif" font-size="38" font-weight="800" fill="#ffffff" text-anchor="middle">Implementing Custom Scroll-Based Navigation in Single Pag...</text>
            <text x="600" y="560" font-family="Segoe UI, Arial, sans-serif" font-size="16" font-weight="600" fill="#10b981" text-anchor="middle" style="letter-spacing: 4px; text-transform: uppercase;">UI UX Powerhouse • Specialized Series</text>
        </svg>