<svg width="1200" height="600" viewBox="0 0 1200 600" xmlns="http://www.w3.org/2000/svg">
            <rect width="1200" height="600" fill="#0c4a6e"/><path d="M 1023.5562558154925 81.39478702869383 L 980.2193029012415 131.39478702869383 L 981.8719124587005 181.39478702869383" stroke="#7dd3fc" fill="none" opacity="0.4"/>
                    <circle cx="1023.5562558154925" cy="81.39478702869383" r="3" fill="#f43f5e"/><path d="M 828.5871370808309 321.59584456239827 L 825.4400815734698 371.59584456239827 L 871.813015987027 421.59584456239827" stroke="#7dd3fc" fill="none" opacity="0.4"/>
                    <circle cx="828.5871370808309" cy="321.59584456239827" r="3" fill="#f43f5e"/><path d="M 514.9251566552266 187.51354313972115 L 517.7414515128476 237.51354313972115 L 531.4971573633557 287.51354313972115" stroke="#7dd3fc" fill="none" opacity="0.4"/>
                    <circle cx="514.9251566552266" cy="187.51354313972115" r="3" fill="#f43f5e"/><path d="M 1005.3692389121352 246.3605455411198 L 996.7356374663723 296.3605455411198 L 977.7855656637257 346.3605455411198" stroke="#7dd3fc" fill="none" opacity="0.4"/>
                    <circle cx="1005.3692389121352" cy="246.3605455411198" r="3" fill="#f43f5e"/><path d="M 400.704861558188 109.5403566287132 L 357.41080370380587 159.5403566287132 L 391.1075283044738 209.5403566287132" stroke="#7dd3fc" fill="none" opacity="0.4"/>
                    <circle cx="400.704861558188" cy="109.5403566287132" r="3" fill="#f43f5e"/><path d="M 405.8089117693271 257.38913659151876 L 437.30598599240693 307.38913659151876 L 440.9181976691798 357.38913659151876" stroke="#7dd3fc" fill="none" opacity="0.4"/>
                    <circle cx="405.8089117693271" cy="257.38913659151876" r="3" fill="#f43f5e"/><path d="M 323.3832244383848 107.89396960535669 L 358.42001789560527 157.8939696053567 L 333.28276223552393 207.8939696053567" stroke="#7dd3fc" fill="none" opacity="0.4"/>
                    <circle cx="323.3832244383848" cy="107.89396960535669" r="3" fill="#f43f5e"/><path d="M 910.4182478909934 82.01759509320254 L 879.831792161076 132.01759509320254 L 869.8024870108839 182.01759509320254" stroke="#7dd3fc" fill="none" opacity="0.4"/>
                    <circle cx="910.4182478909934" cy="82.01759509320254" r="3" fill="#f43f5e"/><path d="M 816.0135518766765 206.44020542531507 L 829.7687269488961 256.44020542531507 L 790.7010110797728 306.44020542531507" stroke="#7dd3fc" fill="none" opacity="0.4"/>
                    <circle cx="816.0135518766765" cy="206.44020542531507" r="3" fill="#f43f5e"/><path d="M 1165.4228160599132 98.23941467566328 L 1180.6778107025593 148.23941467566328 L 1191.3307349713477 198.23941467566328" stroke="#7dd3fc" fill="none" opacity="0.4"/>
                    <circle cx="1165.4228160599132" cy="98.23941467566328" r="3" fill="#f43f5e"/>
            <text x="600" y="520" font-family="Segoe UI, Arial, sans-serif" font-size="38" font-weight="800" fill="#ffffff" text-anchor="middle">Implementing Dynamic Data Visualization in AR Interfaces:...</text>
            <text x="600" y="560" font-family="Segoe UI, Arial, sans-serif" font-size="16" font-weight="600" fill="#7dd3fc" text-anchor="middle" style="letter-spacing: 4px; text-transform: uppercase;">UI UX Powerhouse • Specialized Series</text>
        </svg>