<svg width="1200" height="600" viewBox="0 0 1200 600" xmlns="http://www.w3.org/2000/svg">
        <rect width="1200" height="600" fill="#0c4a6e"/><circle cx="25.537964068644214" cy="332.5060926443257" r="25.727330534264183" fill="#7dd3fc" opacity="0.1"/><circle cx="732.8099358303007" cy="392.65583220039844" r="10.019336128789291" fill="#7dd3fc" opacity="0.1"/><circle cx="35.312362283002585" cy="353.5055910482697" r="33.04532549722353" fill="#7dd3fc" opacity="0.1"/><circle cx="994.332995111472" cy="297.04639292904176" r="45.74119036507909" fill="#7dd3fc" opacity="0.1"/><circle cx="169.35432822501753" cy="293.89819293683104" r="20.92878788957023" fill="#7dd3fc" opacity="0.1"/><circle cx="1032.9636671398475" cy="257.2052355870255" r="26.20106023430708" fill="#7dd3fc" opacity="0.1"/><circle cx="703.4521554247476" cy="100.82915963575942" r="20.72766159028106" fill="#7dd3fc" opacity="0.1"/><circle cx="919.7614472657733" cy="383.86511908174725" r="37.10324360019513" fill="#7dd3fc" opacity="0.1"/><circle cx="1180.4542924693123" cy="102.51837536725361" r="24.986395801970502" fill="#7dd3fc" opacity="0.1"/><circle cx="291.5842876471288" cy="328.1731388706248" r="43.25228877407426" fill="#7dd3fc" opacity="0.1"/><circle cx="50.58503559557721" cy="106.45208161949995" r="10.871786758089002" fill="#7dd3fc" opacity="0.1"/><circle cx="89.10293782500958" cy="77.44176948544919" r="40.48491973178898" fill="#7dd3fc" opacity="0.1"/><circle cx="652.9270419534441" cy="96.20525368595736" r="35.73904964479425" fill="#7dd3fc" opacity="0.1"/><circle cx="1122.307154101145" cy="119.08236851159018" r="17.99153134568769" fill="#7dd3fc" opacity="0.1"/><circle cx="58.00803608426577" cy="328.69771799860246" r="48.7274775028709" fill="#7dd3fc" opacity="0.1"/><circle cx="18.76652496139286" cy="226.0383664372057" r="40.73016390677367" fill="#7dd3fc" opacity="0.1"/><circle cx="1133.4859164278896" cy="299.27062779197513" r="24.511652020937618" fill="#7dd3fc" opacity="0.1"/><circle cx="522.3291036490991" cy="275.61630397431145" r="36.724855663997005" fill="#7dd3fc" opacity="0.1"/><circle cx="261.0831530902942" cy="308.4799444791315" r="45.626468668851885" fill="#7dd3fc" opacity="0.1"/><circle cx="4.302293574437499" cy="87.24536364607047" r="29.9141386969859" fill="#7dd3fc" opacity="0.1"/><circle cx="357.39431642650743" cy="87.11385218448413" r="28.825000170472777" fill="#7dd3fc" opacity="0.1"/><circle cx="545.4568896693672" cy="144.81631915841717" r="16.33003847564396" fill="#7dd3fc" opacity="0.1"/><circle cx="1156.3332110483316" cy="252.2435376521571" r="24.60840121777437" fill="#7dd3fc" opacity="0.1"/><circle cx="1198.8613022927893" cy="255.5938321593203" r="10.405234940262744" fill="#7dd3fc" opacity="0.1"/><circle cx="136.00996555069287" cy="228.30911117125652" r="21.41669089687639" fill="#7dd3fc" opacity="0.1"/><circle cx="814.8380364200193" cy="243.1325621175347" r="18.00900580645248" fill="#7dd3fc" opacity="0.1"/><circle cx="42.66024254702643" cy="201.62278245115886" r="27.15316992624139" fill="#7dd3fc" opacity="0.1"/><circle cx="877.3047592514558" cy="391.04640930891037" r="32.693165199962095" fill="#7dd3fc" opacity="0.1"/><circle cx="272.55491693613294" cy="94.5207556837886" r="40.15977348841261" fill="#7dd3fc" opacity="0.1"/><circle cx="1098.3554702892434" cy="108.63246375301969" r="49.50029099126368" fill="#7dd3fc" opacity="0.1"/>
        <text x="600" y="520" font-family="Segoe UI, Arial, sans-serif" font-size="38" font-weight="800" fill="#ffffff" text-anchor="middle">Implementing Context-Aware Adaptive Layouts in Responsive...</text>
        <text x="600" y="560" font-family="Segoe UI, Arial, sans-serif" font-size="16" font-weight="600" fill="#7dd3fc" text-anchor="middle" style="letter-spacing: 4px; text-transform: uppercase;">UI UX Powerhouse • Specialized Series</text>
    </svg>