<svg width="1200" height="600" viewBox="0 0 1200 600" xmlns="http://www.w3.org/2000/svg">
        
            <rect width="1200" height="600" fill="#4c1d95"/>
            <rect x="1062.6289192929107" y="17.56732638059475" width="140.89558270643465" height="140.89558270643465" fill="#a855f7" opacity="0.1" transform="rotate(50.41993181012003 1062.6289192929107 17.56732638059475)"/><rect x="893.5669270264953" y="107.00165668840782" width="76.57797541419313" height="76.57797541419313" fill="#a855f7" opacity="0.1" transform="rotate(295.3133403578249 893.5669270264953 107.00165668840782)"/><rect x="230.97643378605426" y="33.95922734580381" width="187.23086718057402" height="187.23086718057402" fill="#a855f7" opacity="0.1" transform="rotate(40.14225990875275 230.97643378605426 33.95922734580381)"/><rect x="1056.2588095730462" y="360.4608839021239" width="185.04501474244535" height="185.04501474244535" fill="#a855f7" opacity="0.1" transform="rotate(36.106394389498746 1056.2588095730462 360.4608839021239)"/><rect x="936.7655234416816" y="64.46730782481609" width="127.10680734439848" height="127.10680734439848" fill="#a855f7" opacity="0.1" transform="rotate(144.03633669149713 936.7655234416816 64.46730782481609)"/><rect x="787.6449875873845" y="261.59343846912293" width="56.06423197773438" height="56.06423197773438" fill="#a855f7" opacity="0.1" transform="rotate(13.32054865459213 787.6449875873845 261.59343846912293)"/><rect x="539.2505804786197" y="84.64787237651308" width="71.98114199627526" height="71.98114199627526" fill="#a855f7" opacity="0.1" transform="rotate(102.78193335994729 539.2505804786197 84.64787237651308)"/><rect x="873.120059928624" y="234.85609785784618" width="189.55506332713412" height="189.55506332713412" fill="#a855f7" opacity="0.1" transform="rotate(162.00081034432515 873.120059928624 234.85609785784618)"/><rect x="254.01721797170467" y="126.46956143798889" width="98.89022656004727" height="98.89022656004727" fill="#a855f7" opacity="0.1" transform="rotate(183.45711232155736 254.01721797170467 126.46956143798889)"/><rect x="890.994236860206" y="176.78601708539645" width="50.22712950003552" height="50.22712950003552" fill="#a855f7" opacity="0.1" transform="rotate(214.12665264404495 890.994236860206 176.78601708539645)"/><rect x="1078.3413509114325" y="54.438053822741495" width="125.7216651923045" height="125.7216651923045" fill="#a855f7" opacity="0.1" transform="rotate(109.35525223248987 1078.3413509114325 54.438053822741495)"/><rect x="495.52932656406483" y="357.11626968295604" width="141.5036300101974" height="141.5036300101974" fill="#a855f7" opacity="0.1" transform="rotate(109.39229876326863 495.52932656406483 357.11626968295604)"/><rect x="162.82559610845055" y="318.4377981346188" width="175.9239474217793" height="175.9239474217793" fill="#a855f7" opacity="0.1" transform="rotate(70.24395159292908 162.82559610845055 318.4377981346188)"/><rect x="119.98255328180676" y="380.4307804988639" width="172.79414881077173" height="172.79414881077173" fill="#a855f7" opacity="0.1" transform="rotate(179.9545220384971 119.98255328180676 380.4307804988639)"/><rect x="258.6588796106298" y="91.99593454686692" width="185.6804772364285" height="185.6804772364285" fill="#a855f7" opacity="0.1" transform="rotate(269.78374840658944 258.6588796106298 91.99593454686692)"/>
        
        <text x="600" y="520" font-family="Segoe UI, Arial" font-size="38" font-weight="800" fill="#f8fafc" text-anchor="middle">Implementing Complex Data Visualization in AR: Best Pract...</text>
    </svg>