<svg width="1200" height="600" viewBox="0 0 1200 600" xmlns="http://www.w3.org/2000/svg">
        <rect width="1200" height="600" fill="#171717"/><path d="M 613.7716780343908 301.92823740544554 L 572.5770563162769 351.92823740544554 L 650.3658995885417 401.92823740544554" stroke="#f59e0b" fill="none" opacity="0.4"/>
                    <circle cx="613.7716780343908" cy="301.92823740544554" r="3" fill="#ec4899"/><path d="M 431.77911694142495 44.200371170882136 L 423.44277442330167 94.20037117088214 L 431.55174792118487 144.20037117088214" stroke="#f59e0b" fill="none" opacity="0.4"/>
                    <circle cx="431.77911694142495" cy="44.200371170882136" r="3" fill="#ec4899"/><path d="M 54.24438512418419 356.30877495132154 L 57.80191511094017 406.30877495132154 L 82.47252866640338 456.30877495132154" stroke="#f59e0b" fill="none" opacity="0.4"/>
                    <circle cx="54.24438512418419" cy="356.30877495132154" r="3" fill="#ec4899"/><path d="M 212.63257086175145 132.84174987784354 L 181.02850260993364 182.84174987784354 L 230.0172463205456 232.84174987784354" stroke="#f59e0b" fill="none" opacity="0.4"/>
                    <circle cx="212.63257086175145" cy="132.84174987784354" r="3" fill="#ec4899"/><path d="M 15.735628806214663 160.7424552741577 L 2.6544787418743 210.7424552741577 L -28.525671780789708 260.7424552741577" stroke="#f59e0b" fill="none" opacity="0.4"/>
                    <circle cx="15.735628806214663" cy="160.7424552741577" r="3" fill="#ec4899"/><path d="M 758.5687435052932 17.53131527439109 L 759.5506176169692 67.53131527439109 L 752.6498807402731 117.53131527439109" stroke="#f59e0b" fill="none" opacity="0.4"/>
                    <circle cx="758.5687435052932" cy="17.53131527439109" r="3" fill="#ec4899"/><path d="M 358.1072555787614 61.28954465602874 L 390.7412519881291 111.28954465602874 L 394.3615683378084 161.28954465602874" stroke="#f59e0b" fill="none" opacity="0.4"/>
                    <circle cx="358.1072555787614" cy="61.28954465602874" r="3" fill="#ec4899"/><path d="M 955.787906630394 44.37490657692251 L 936.1790213666154 94.37490657692251 L 935.1529049474266 144.3749065769225" stroke="#f59e0b" fill="none" opacity="0.4"/>
                    <circle cx="955.787906630394" cy="44.37490657692251" r="3" fill="#ec4899"/><path d="M 935.3651287487082 51.28702005604282 L 893.0142241195426 101.28702005604282 L 955.1306014547663 151.28702005604282" stroke="#f59e0b" fill="none" opacity="0.4"/>
                    <circle cx="935.3651287487082" cy="51.28702005604282" r="3" fill="#ec4899"/><path d="M 925.208008485788 225.5461587679747 L 964.0732033274617 275.5461587679747 L 957.9340599895431 325.5461587679747" stroke="#f59e0b" fill="none" opacity="0.4"/>
                    <circle cx="925.208008485788" cy="225.5461587679747" r="3" fill="#ec4899"/>
        <text x="600" y="520" font-family="Segoe UI, Arial, sans-serif" font-size="38" font-weight="800" fill="#ffffff" text-anchor="middle">Implementing a Data-Driven Approach to Optimize Paginatio...</text>
        <text x="600" y="560" font-family="Segoe UI, Arial, sans-serif" font-size="16" font-weight="600" fill="#f59e0b" text-anchor="middle" style="letter-spacing: 4px; text-transform: uppercase;">UI UX Powerhouse • Specialized Series</text>
    </svg>