<svg width="1200" height="600" viewBox="0 0 1200 600" xmlns="http://www.w3.org/2000/svg">
        <rect width="1200" height="600" fill="#0f172a"/><path d="M 827.0891066969398 28.676360347890295 L 819.3711226851519 78.6763603478903 L 837.8252730516124 128.6763603478903" stroke="#38bdf8" fill="none" opacity="0.4"/>
                    <circle cx="827.0891066969398" cy="28.676360347890295" r="3" fill="#f472b6"/><path d="M 866.6333110602864 326.18929190721246 L 886.3108861010915 376.18929190721246 L 898.2087967771804 426.18929190721246" stroke="#38bdf8" fill="none" opacity="0.4"/>
                    <circle cx="866.6333110602864" cy="326.18929190721246" r="3" fill="#f472b6"/><path d="M 1061.3675503198465 293.07832483841594 L 1050.183582009413 343.07832483841594 L 1091.320491800343 393.07832483841594" stroke="#38bdf8" fill="none" opacity="0.4"/>
                    <circle cx="1061.3675503198465" cy="293.07832483841594" r="3" fill="#f472b6"/><path d="M 1083.6854152312299 15.54567994971876 L 1059.5775845242315 65.54567994971876 L 1087.4830872477105 115.54567994971876" stroke="#38bdf8" fill="none" opacity="0.4"/>
                    <circle cx="1083.6854152312299" cy="15.54567994971876" r="3" fill="#f472b6"/><path d="M 560.3125558875035 162.01398589255405 L 589.2824941682193 212.01398589255405 L 561.2711577941809 262.01398589255405" stroke="#38bdf8" fill="none" opacity="0.4"/>
                    <circle cx="560.3125558875035" cy="162.01398589255405" r="3" fill="#f472b6"/><path d="M 920.813036954496 227.83290169027168 L 881.6014714449921 277.8329016902717 L 940.5300679499305 327.8329016902717" stroke="#38bdf8" fill="none" opacity="0.4"/>
                    <circle cx="920.813036954496" cy="227.83290169027168" r="3" fill="#f472b6"/><path d="M 499.0354750858387 309.85379274115985 L 523.5698379243331 359.85379274115985 L 533.8889057267806 409.85379274115985" stroke="#38bdf8" fill="none" opacity="0.4"/>
                    <circle cx="499.0354750858387" cy="309.85379274115985" r="3" fill="#f472b6"/><path d="M 708.1552120951528 311.8180210598439 L 701.2693773349383 361.8180210598439 L 749.2032888711037 411.8180210598439" stroke="#38bdf8" fill="none" opacity="0.4"/>
                    <circle cx="708.1552120951528" cy="311.8180210598439" r="3" fill="#f472b6"/><path d="M 459.63881790412415 204.65596026333515 L 429.38502778761176 254.65596026333515 L 429.4703801712785 304.65596026333515" stroke="#38bdf8" fill="none" opacity="0.4"/>
                    <circle cx="459.63881790412415" cy="204.65596026333515" r="3" fill="#f472b6"/><path d="M 306.2153406865036 365.26218059589155 L 309.78016601948184 415.26218059589155 L 287.5716790917977 465.26218059589155" stroke="#38bdf8" fill="none" opacity="0.4"/>
                    <circle cx="306.2153406865036" cy="365.26218059589155" r="3" fill="#f472b6"/>
        <text x="600" y="520" font-family="Segoe UI, Arial, sans-serif" font-size="38" font-weight="800" fill="#ffffff" text-anchor="middle">Implementing Customizable Gesture-Based Navigation for Da...</text>
        <text x="600" y="560" font-family="Segoe UI, Arial, sans-serif" font-size="16" font-weight="600" fill="#38bdf8" text-anchor="middle" style="letter-spacing: 4px; text-transform: uppercase;">UI UX Powerhouse • Specialized Series</text>
    </svg>