<svg width="1200" height="600" viewBox="0 0 1200 600" xmlns="http://www.w3.org/2000/svg">
        <rect width="1200" height="600" fill="#111827"/><circle cx="909.2343795367924" cy="239.4965361112554" r="25.605202273554823" fill="#10b981" opacity="0.1"/><circle cx="916.9729022414685" cy="158.6043248171336" r="12.365090322782635" fill="#10b981" opacity="0.1"/><circle cx="602.6929586541428" cy="143.33296203622012" r="34.1586506832391" fill="#10b981" opacity="0.1"/><circle cx="640.1491021513721" cy="114.62317564728437" r="30.70003622538934" fill="#10b981" opacity="0.1"/><circle cx="475.16454286742373" cy="248.58793374733068" r="43.030680649935675" fill="#10b981" opacity="0.1"/><circle cx="120.2085185352189" cy="386.61167199643387" r="43.576441826080554" fill="#10b981" opacity="0.1"/><circle cx="824.4793210906209" cy="266.08787693985505" r="36.71254690465503" fill="#10b981" opacity="0.1"/><circle cx="276.5197351382085" cy="219.7408951309626" r="40.71220370307856" fill="#10b981" opacity="0.1"/><circle cx="413.5074281213747" cy="218.98022099667287" r="18.556327288097236" fill="#10b981" opacity="0.1"/><circle cx="513.8275439334393" cy="197.18712163776217" r="16.345607093535364" fill="#10b981" opacity="0.1"/><circle cx="857.5804135507497" cy="320.99331547524343" r="48.94581215638027" fill="#10b981" opacity="0.1"/><circle cx="508.25775213759243" cy="344.47992259993043" r="10.42052681405039" fill="#10b981" opacity="0.1"/><circle cx="517.9427123970527" cy="199.37104212294798" r="42.268541507528425" fill="#10b981" opacity="0.1"/><circle cx="1175.7380856539385" cy="291.322966622829" r="30.577124590336098" fill="#10b981" opacity="0.1"/><circle cx="653.8539388588106" cy="93.46210546536895" r="16.450993816906703" fill="#10b981" opacity="0.1"/><circle cx="586.8454337934963" cy="311.4638421751806" r="13.864366445741325" fill="#10b981" opacity="0.1"/><circle cx="258.04743087428506" cy="271.30865640119737" r="10.432968777763563" fill="#10b981" opacity="0.1"/><circle cx="799.0821948133089" cy="141.46473762375535" r="17.510169599336223" fill="#10b981" opacity="0.1"/><circle cx="390.78264135459904" cy="45.21228146186331" r="26.023002892616205" fill="#10b981" opacity="0.1"/><circle cx="639.686919615724" cy="41.56022084716824" r="24.102288600624888" fill="#10b981" opacity="0.1"/><circle cx="1055.2780595848162" cy="385.68639240256744" r="12.72280274755758" fill="#10b981" opacity="0.1"/><circle cx="535.5072529797326" cy="332.5206633991911" r="38.51821912070591" fill="#10b981" opacity="0.1"/><circle cx="963.0368373738747" cy="245.26108784993994" r="16.97002772195674" fill="#10b981" opacity="0.1"/><circle cx="649.4370745243941" cy="259.2304869835061" r="30.350036275949606" fill="#10b981" opacity="0.1"/><circle cx="685.0335533781617" cy="28.316954739602807" r="46.66583937825635" fill="#10b981" opacity="0.1"/><circle cx="249.424035118318" cy="150.76232214269112" r="34.6040384072694" fill="#10b981" opacity="0.1"/><circle cx="1169.3341659835824" cy="310.77887805440696" r="27.048421728504763" fill="#10b981" opacity="0.1"/><circle cx="485.69913621176966" cy="167.962184650969" r="28.74379875633167" fill="#10b981" opacity="0.1"/><circle cx="558.8991613178223" cy="111.50666140383692" r="42.977440988615854" fill="#10b981" opacity="0.1"/><circle cx="320.61486749444157" cy="76.476816637296" r="12.541400554473512" fill="#10b981" opacity="0.1"/>
        <text x="600" y="520" font-family="Segoe UI, Arial, sans-serif" font-size="38" font-weight="800" fill="#ffffff" text-anchor="middle">Implementing Adaptive Typography in Web Design: Technique...</text>
        <text x="600" y="560" font-family="Segoe UI, Arial, sans-serif" font-size="16" font-weight="600" fill="#10b981" text-anchor="middle" style="letter-spacing: 4px; text-transform: uppercase;">UI UX Powerhouse • Specialized Series</text>
    </svg>