<svg width="1200" height="600" viewBox="0 0 1200 600" xmlns="http://www.w3.org/2000/svg">
        <rect width="1200" height="600" fill="#171717"/><path d="M 891.363233733864 331.86030702272546 L 883.0618858419939 381.86030702272546 L 934.9330662290413 431.86030702272546" stroke="#f59e0b" fill="none" opacity="0.4"/>
                    <circle cx="891.363233733864" cy="331.86030702272546" r="3" fill="#ec4899"/><path d="M 335.9378058481525 105.96669567021308 L 378.20860599531443 155.96669567021308 L 307.99335674028043 205.96669567021308" stroke="#f59e0b" fill="none" opacity="0.4"/>
                    <circle cx="335.9378058481525" cy="105.96669567021308" r="3" fill="#ec4899"/><path d="M 385.55668314074865 197.43719906837214 L 396.8228389014257 247.43719906837214 L 399.72587780316644 297.43719906837214" stroke="#f59e0b" fill="none" opacity="0.4"/>
                    <circle cx="385.55668314074865" cy="197.43719906837214" r="3" fill="#ec4899"/><path d="M 544.7634931333596 19.418941092590103 L 557.8968868161837 69.4189410925901 L 521.0255736450563 119.4189410925901" stroke="#f59e0b" fill="none" opacity="0.4"/>
                    <circle cx="544.7634931333596" cy="19.418941092590103" r="3" fill="#ec4899"/><path d="M 693.8499939362373 271.02107708124095 L 734.4513855910918 321.02107708124095 L 736.8568345260428 371.02107708124095" stroke="#f59e0b" fill="none" opacity="0.4"/>
                    <circle cx="693.8499939362373" cy="271.02107708124095" r="3" fill="#ec4899"/><path d="M 443.37398111365474 7.805803335941164 L 442.0949616609505 57.805803335941164 L 463.83835623619234 107.80580333594116" stroke="#f59e0b" fill="none" opacity="0.4"/>
                    <circle cx="443.37398111365474" cy="7.805803335941164" r="3" fill="#ec4899"/><path d="M 954.1614372003096 202.43422128696693 L 910.7967679407011 252.43422128696693 L 931.4550279176729 302.43422128696693" stroke="#f59e0b" fill="none" opacity="0.4"/>
                    <circle cx="954.1614372003096" cy="202.43422128696693" r="3" fill="#ec4899"/><path d="M 1046.9411394333292 352.9625068338646 L 1021.6162369630183 402.9625068338646 L 1037.6670996588473 452.9625068338646" stroke="#f59e0b" fill="none" opacity="0.4"/>
                    <circle cx="1046.9411394333292" cy="352.9625068338646" r="3" fill="#ec4899"/><path d="M 1044.2713656811975 227.66895113054488 L 1074.882523148699 277.6689511305449 L 1022.9255279992685 327.6689511305449" stroke="#f59e0b" fill="none" opacity="0.4"/>
                    <circle cx="1044.2713656811975" cy="227.66895113054488" r="3" fill="#ec4899"/><path d="M 843.0499534682895 176.27430267584714 L 793.1899072058513 226.27430267584714 L 840.693154609562 276.27430267584714" stroke="#f59e0b" fill="none" opacity="0.4"/>
                    <circle cx="843.0499534682895" cy="176.27430267584714" r="3" fill="#ec4899"/>
        <text x="600" y="520" font-family="Segoe UI, Arial, sans-serif" font-size="38" font-weight="800" fill="#ffffff" text-anchor="middle">Implementing Progressive Disclosure in Complex SaaS Dashb...</text>
        <text x="600" y="560" font-family="Segoe UI, Arial, sans-serif" font-size="16" font-weight="600" fill="#f59e0b" text-anchor="middle" style="letter-spacing: 4px; text-transform: uppercase;">UI UX Powerhouse • Specialized Series</text>
    </svg>