<svg width="1200" height="600" viewBox="0 0 1200 600" xmlns="http://www.w3.org/2000/svg">
        
            <rect width="1200" height="600" fill="#78350f"/>
            <g opacity="0.3">
                <line x1="439.08601419534534" y1="305.7805416460724" x2="367.42238264087064" y2="181.47801074164818" stroke="#fbbf24" stroke-width="1"/><line x1="439.08601419534534" y1="305.7805416460724" x2="603.70513041089" y2="130.6720453489561" stroke="#fbbf24" stroke-width="1"/><line x1="439.08601419534534" y1="305.7805416460724" x2="305.95884823014785" y2="364.8820538537848" stroke="#fbbf24" stroke-width="1"/><line x1="439.08601419534534" y1="305.7805416460724" x2="456.5492266250658" y2="299.73128790509236" stroke="#fbbf24" stroke-width="1"/><line x1="439.08601419534534" y1="305.7805416460724" x2="807.5760349205666" y2="274.0693044364889" stroke="#fbbf24" stroke-width="1"/><line x1="439.08601419534534" y1="305.7805416460724" x2="547.6411168128834" y2="207.58189221669454" stroke="#fbbf24" stroke-width="1"/><line x1="439.08601419534534" y1="305.7805416460724" x2="869.2542427979788" y2="188.33276730611033" stroke="#fbbf24" stroke-width="1"/><line x1="367.42238264087064" y1="181.47801074164818" x2="603.70513041089" y2="130.6720453489561" stroke="#fbbf24" stroke-width="1"/><line x1="367.42238264087064" y1="181.47801074164818" x2="305.95884823014785" y2="364.8820538537848" stroke="#fbbf24" stroke-width="1"/><line x1="367.42238264087064" y1="181.47801074164818" x2="456.5492266250658" y2="299.73128790509236" stroke="#fbbf24" stroke-width="1"/><line x1="367.42238264087064" y1="181.47801074164818" x2="807.5760349205666" y2="274.0693044364889" stroke="#fbbf24" stroke-width="1"/><line x1="367.42238264087064" y1="181.47801074164818" x2="547.6411168128834" y2="207.58189221669454" stroke="#fbbf24" stroke-width="1"/><line x1="367.42238264087064" y1="181.47801074164818" x2="869.2542427979788" y2="188.33276730611033" stroke="#fbbf24" stroke-width="1"/><line x1="603.70513041089" y1="130.6720453489561" x2="305.95884823014785" y2="364.8820538537848" stroke="#fbbf24" stroke-width="1"/><line x1="603.70513041089" y1="130.6720453489561" x2="456.5492266250658" y2="299.73128790509236" stroke="#fbbf24" stroke-width="1"/><line x1="603.70513041089" y1="130.6720453489561" x2="807.5760349205666" y2="274.0693044364889" stroke="#fbbf24" stroke-width="1"/><line x1="603.70513041089" y1="130.6720453489561" x2="547.6411168128834" y2="207.58189221669454" stroke="#fbbf24" stroke-width="1"/><line x1="603.70513041089" y1="130.6720453489561" x2="869.2542427979788" y2="188.33276730611033" stroke="#fbbf24" stroke-width="1"/><line x1="305.95884823014785" y1="364.8820538537848" x2="456.5492266250658" y2="299.73128790509236" stroke="#fbbf24" stroke-width="1"/><line x1="305.95884823014785" y1="364.8820538537848" x2="807.5760349205666" y2="274.0693044364889" stroke="#fbbf24" stroke-width="1"/><line x1="305.95884823014785" y1="364.8820538537848" x2="547.6411168128834" y2="207.58189221669454" stroke="#fbbf24" stroke-width="1"/><line x1="305.95884823014785" y1="364.8820538537848" x2="869.2542427979788" y2="188.33276730611033" stroke="#fbbf24" stroke-width="1"/><line x1="456.5492266250658" y1="299.73128790509236" x2="807.5760349205666" y2="274.0693044364889" stroke="#fbbf24" stroke-width="1"/><line x1="456.5492266250658" y1="299.73128790509236" x2="547.6411168128834" y2="207.58189221669454" stroke="#fbbf24" stroke-width="1"/><line x1="456.5492266250658" y1="299.73128790509236" x2="869.2542427979788" y2="188.33276730611033" stroke="#fbbf24" stroke-width="1"/><line x1="807.5760349205666" y1="274.0693044364889" x2="547.6411168128834" y2="207.58189221669454" stroke="#fbbf24" stroke-width="1"/><line x1="807.5760349205666" y1="274.0693044364889" x2="869.2542427979788" y2="188.33276730611033" stroke="#fbbf24" stroke-width="1"/><line x1="547.6411168128834" y1="207.58189221669454" x2="869.2542427979788" y2="188.33276730611033" stroke="#fbbf24" stroke-width="1"/>
            </g>
            <circle cx="439.08601419534534" cy="305.7805416460724" r="7.104424923760234" fill="#fbbf24"/><circle cx="367.42238264087064" cy="181.47801074164818" r="6.571611842373386" fill="#fbbf24"/><circle cx="603.70513041089" cy="130.6720453489561" r="4.7231980397045845" fill="#fbbf24"/><circle cx="305.95884823014785" cy="364.8820538537848" r="9.047667214399553" fill="#fbbf24"/><circle cx="456.5492266250658" cy="299.73128790509236" r="11.851746472762898" fill="#fbbf24"/><circle cx="807.5760349205666" cy="274.0693044364889" r="7.983481602117536" fill="#fbbf24"/><circle cx="547.6411168128834" cy="207.58189221669454" r="11.873686885795905" fill="#fbbf24"/><circle cx="869.2542427979788" cy="188.33276730611033" r="9.626949409734152" fill="#fbbf24"/>
        
        <text x="600" y="520" font-family="Segoe UI, Arial" font-size="38" font-weight="800" fill="#f8fafc" text-anchor="middle">Implementing ARIA Authoring Practices for Complex Data Ta...</text>
    </svg>