<svg width="1200" height="600" viewBox="0 0 1200 600" xmlns="http://www.w3.org/2000/svg">
            <rect width="1200" height="600" fill="#111827"/><circle cx="1153.647281974554" cy="164.27829291496892" r="16.654520820193284" fill="#10b981" opacity="0.1"/><circle cx="814.2354745650664" cy="320.8771855686791" r="26.19199979235418" fill="#10b981" opacity="0.1"/><circle cx="1017.8243564540026" cy="255.3946017573253" r="20.021392102426034" fill="#10b981" opacity="0.1"/><circle cx="937.9387905639305" cy="208.1245792862319" r="39.582080988475354" fill="#10b981" opacity="0.1"/><circle cx="822.8952754721831" cy="162.14066115935566" r="39.50348963570832" fill="#10b981" opacity="0.1"/><circle cx="219.21074177444098" cy="384.11910840077326" r="44.193136016328936" fill="#10b981" opacity="0.1"/><circle cx="673.0008122998697" cy="6.182755592453759" r="43.734176075377036" fill="#10b981" opacity="0.1"/><circle cx="200.3918213857105" cy="176.0660563213662" r="21.563691845949506" fill="#10b981" opacity="0.1"/><circle cx="195.1683509774739" cy="73.88196244719438" r="17.916797861289524" fill="#10b981" opacity="0.1"/><circle cx="738.0913754121138" cy="340.3293168419623" r="38.17293768537638" fill="#10b981" opacity="0.1"/><circle cx="343.89803637786827" cy="46.677060413276195" r="14.297285462707805" fill="#10b981" opacity="0.1"/><circle cx="508.011748768331" cy="46.318534495731" r="31.543935481422523" fill="#10b981" opacity="0.1"/><circle cx="45.647937967805774" cy="169.23609405421303" r="36.93251445227361" fill="#10b981" opacity="0.1"/><circle cx="1037.3909079574332" cy="110.66481749949162" r="41.6397566194064" fill="#10b981" opacity="0.1"/><circle cx="621.1542297947744" cy="352.11760214951937" r="36.50451317043917" fill="#10b981" opacity="0.1"/><circle cx="1042.095647541828" cy="97.82507625350263" r="15.578397879726253" fill="#10b981" opacity="0.1"/><circle cx="240.4325863130225" cy="369.5367283813539" r="10.555237836451852" fill="#10b981" opacity="0.1"/><circle cx="1167.2888510694975" cy="301.92321745671507" r="41.47771814285079" fill="#10b981" opacity="0.1"/><circle cx="412.28453159492346" cy="273.9051572931203" r="25.88699992353213" fill="#10b981" opacity="0.1"/><circle cx="144.2033560251275" cy="104.32936858705943" r="15.51754440592049" fill="#10b981" opacity="0.1"/><circle cx="916.1484361431576" cy="22.481330938171595" r="24.861438858351903" fill="#10b981" opacity="0.1"/><circle cx="821.3945472514752" cy="377.22291267946275" r="25.517512863916636" fill="#10b981" opacity="0.1"/><circle cx="959.6711466801935" cy="347.1265645988751" r="14.849262736461242" fill="#10b981" opacity="0.1"/><circle cx="717.1459819801385" cy="54.838215688141645" r="40.376488994952524" fill="#10b981" opacity="0.1"/><circle cx="1168.1021299136773" cy="265.50407413669745" r="25.154340853187023" fill="#10b981" opacity="0.1"/><circle cx="279.91922182482085" cy="143.59961185982684" r="35.56203581945738" fill="#10b981" opacity="0.1"/><circle cx="573.7075027356241" cy="305.510115823472" r="36.96814668212028" fill="#10b981" opacity="0.1"/><circle cx="964.312644846359" cy="123.31725464900956" r="11.700761640859128" fill="#10b981" opacity="0.1"/><circle cx="665.877820392052" cy="40.21544784263824" r="11.1218877050851" fill="#10b981" opacity="0.1"/><circle cx="1135.2751030834042" cy="11.749644207884558" r="34.35575581512239" fill="#10b981" opacity="0.1"/>
            <text x="600" y="520" font-family="Segoe UI, Arial, sans-serif" font-size="38" font-weight="800" fill="#ffffff" text-anchor="middle">Implementing Adaptive Color Contrast Strategies Using CSS...</text>
            <text x="600" y="560" font-family="Segoe UI, Arial, sans-serif" font-size="16" font-weight="600" fill="#10b981" text-anchor="middle" style="letter-spacing: 4px; text-transform: uppercase;">UI UX Powerhouse • Specialized Series</text>
        </svg>