<svg width="1200" height="600" viewBox="0 0 1200 600" xmlns="http://www.w3.org/2000/svg">
        <rect width="1200" height="600" fill="#0c4a6e"/><circle cx="549.3828190985369" cy="248.36667067793314" r="32.03470223648765" fill="#7dd3fc" opacity="0.1"/><circle cx="578.7825312101631" cy="391.3406040323025" r="21.170830880837457" fill="#7dd3fc" opacity="0.1"/><circle cx="664.0200435642328" cy="103.45205849343984" r="33.626895470188174" fill="#7dd3fc" opacity="0.1"/><circle cx="1000.3887575920089" cy="352.32176445933874" r="43.8354785345291" fill="#7dd3fc" opacity="0.1"/><circle cx="839.0011042509286" cy="259.67927565743594" r="37.35982416699699" fill="#7dd3fc" opacity="0.1"/><circle cx="270.6012851143896" cy="9.65993240752141" r="36.524876856274204" fill="#7dd3fc" opacity="0.1"/><circle cx="119.3518385211064" cy="245.27959671977442" r="33.67171547324688" fill="#7dd3fc" opacity="0.1"/><circle cx="214.7544903987182" cy="223.99662502357387" r="36.414670975282206" fill="#7dd3fc" opacity="0.1"/><circle cx="655.4840218785102" cy="391.5745675411017" r="44.332949157615076" fill="#7dd3fc" opacity="0.1"/><circle cx="417.25196587703977" cy="166.5279719629325" r="28.648945034674398" fill="#7dd3fc" opacity="0.1"/><circle cx="909.2134210353834" cy="212.7951552554805" r="27.374272562374244" fill="#7dd3fc" opacity="0.1"/><circle cx="124.62356674450348" cy="45.850761413021246" r="49.06380347250433" fill="#7dd3fc" opacity="0.1"/><circle cx="1013.9899262503604" cy="26.914978218701435" r="37.536857353843516" fill="#7dd3fc" opacity="0.1"/><circle cx="399.3760420853505" cy="291.84366205772676" r="37.72152545676363" fill="#7dd3fc" opacity="0.1"/><circle cx="382.0041240833234" cy="25.469624625111464" r="13.367569188467314" fill="#7dd3fc" opacity="0.1"/><circle cx="896.8266749933719" cy="212.52125322389475" r="14.136307535809465" fill="#7dd3fc" opacity="0.1"/><circle cx="480.6789197413309" cy="114.47996725328267" r="18.920204667174403" fill="#7dd3fc" opacity="0.1"/><circle cx="1137.3769471636479" cy="298.7352772790473" r="24.053739720257" fill="#7dd3fc" opacity="0.1"/><circle cx="205.87054683746828" cy="388.16326584492344" r="20.40228686939372" fill="#7dd3fc" opacity="0.1"/><circle cx="253.9051952851878" cy="43.25679583998863" r="26.70195728096587" fill="#7dd3fc" opacity="0.1"/><circle cx="823.1484719377477" cy="399.5234742440516" r="32.94279173191171" fill="#7dd3fc" opacity="0.1"/><circle cx="978.6499807523796" cy="7.913692729198374" r="11.956035426192102" fill="#7dd3fc" opacity="0.1"/><circle cx="534.7631156466377" cy="220.28817145665016" r="34.107523363309156" fill="#7dd3fc" opacity="0.1"/><circle cx="492.30272190179676" cy="84.33174693927867" r="48.797447741089854" fill="#7dd3fc" opacity="0.1"/><circle cx="220.87525571296283" cy="369.40761731020757" r="43.63245748834743" fill="#7dd3fc" opacity="0.1"/><circle cx="273.4713541889505" cy="18.07384800777072" r="32.58730528919841" fill="#7dd3fc" opacity="0.1"/><circle cx="1076.3130558661942" cy="41.1533600432449" r="12.814572578317893" fill="#7dd3fc" opacity="0.1"/><circle cx="1097.0437108051556" cy="74.37646782491356" r="48.18782302147156" fill="#7dd3fc" opacity="0.1"/><circle cx="212.8213140345906" cy="354.7128582598816" r="42.70555333663651" fill="#7dd3fc" opacity="0.1"/><circle cx="43.688349567446494" cy="120.99120396287617" r="25.58980820409488" fill="#7dd3fc" opacity="0.1"/>
        <text x="600" y="520" font-family="Segoe UI, Arial, sans-serif" font-size="38" font-weight="800" fill="#ffffff" text-anchor="middle">Implementing Adaptive Dark Mode: Analyzing User Preferenc...</text>
        <text x="600" y="560" font-family="Segoe UI, Arial, sans-serif" font-size="16" font-weight="600" fill="#7dd3fc" text-anchor="middle" style="letter-spacing: 4px; text-transform: uppercase;">UI UX Powerhouse • Specialized Series</text>
    </svg>