<svg width="1200" height="600" viewBox="0 0 1200 600" xmlns="http://www.w3.org/2000/svg">
        <rect width="1200" height="600" fill="#0c4a6e"/><path d="M 997.9282930347836 281.7542206357757 L 1003.1449307757839 331.7542206357757 L 1000.999102093192 381.7542206357757" stroke="#7dd3fc" fill="none" opacity="0.4"/>
                    <circle cx="997.9282930347836" cy="281.7542206357757" r="3" fill="#f43f5e"/><path d="M 514.3018052619482 21.268237726326333 L 512.438710171682 71.26823772632633 L 525.4119973421439 121.26823772632633" stroke="#7dd3fc" fill="none" opacity="0.4"/>
                    <circle cx="514.3018052619482" cy="21.268237726326333" r="3" fill="#f43f5e"/><path d="M 728.472863614661 163.82192347737146 L 752.4939629971414 213.82192347737146 L 694.0215878798881 263.82192347737146" stroke="#7dd3fc" fill="none" opacity="0.4"/>
                    <circle cx="728.472863614661" cy="163.82192347737146" r="3" fill="#f43f5e"/><path d="M 891.3038139682612 382.7670255759358 L 845.5270791538169 432.7670255759358 L 935.3405229594046 482.7670255759358" stroke="#7dd3fc" fill="none" opacity="0.4"/>
                    <circle cx="891.3038139682612" cy="382.7670255759358" r="3" fill="#f43f5e"/><path d="M 1169.9255764557165 318.174036293658 L 1164.3894231514423 368.174036293658 L 1169.939667374274 418.174036293658" stroke="#7dd3fc" fill="none" opacity="0.4"/>
                    <circle cx="1169.9255764557165" cy="318.174036293658" r="3" fill="#f43f5e"/><path d="M 921.2877382480656 173.2542528065096 L 948.8114131404586 223.2542528065096 L 902.5301624593567 273.2542528065096" stroke="#7dd3fc" fill="none" opacity="0.4"/>
                    <circle cx="921.2877382480656" cy="173.2542528065096" r="3" fill="#f43f5e"/><path d="M 153.1147847826105 220.45679793227464 L 118.73496668422376 270.45679793227464 L 177.48811965657296 320.45679793227464" stroke="#7dd3fc" fill="none" opacity="0.4"/>
                    <circle cx="153.1147847826105" cy="220.45679793227464" r="3" fill="#f43f5e"/><path d="M 654.4885538271046 175.70494981846423 L 697.4642009830859 225.70494981846423 L 610.8967511975834 275.70494981846423" stroke="#7dd3fc" fill="none" opacity="0.4"/>
                    <circle cx="654.4885538271046" cy="175.70494981846423" r="3" fill="#f43f5e"/><path d="M 862.2990430681966 261.7454332699708 L 831.2410132952209 311.7454332699708 L 876.5243212734276 361.7454332699708" stroke="#7dd3fc" fill="none" opacity="0.4"/>
                    <circle cx="862.2990430681966" cy="261.7454332699708" r="3" fill="#f43f5e"/><path d="M 413.3427020522504 8.010430678223202 L 443.76754703903316 58.0104306782232 L 439.80643140146185 108.0104306782232" stroke="#7dd3fc" fill="none" opacity="0.4"/>
                    <circle cx="413.3427020522504" cy="8.010430678223202" r="3" fill="#f43f5e"/>
        <text x="600" y="520" font-family="Segoe UI, Arial, sans-serif" font-size="38" font-weight="800" fill="#ffffff" text-anchor="middle">Implementing Advanced Data Visualization Techniques for C...</text>
        <text x="600" y="560" font-family="Segoe UI, Arial, sans-serif" font-size="16" font-weight="600" fill="#7dd3fc" text-anchor="middle" style="letter-spacing: 4px; text-transform: uppercase;">UI UX Powerhouse • Specialized Series</text>
    </svg>