<svg width="1200" height="600" viewBox="0 0 1200 600" xmlns="http://www.w3.org/2000/svg">
        <rect width="1200" height="600" fill="#171717"/><circle cx="409.28902279592876" cy="262.61176275875187" r="26.138485710398527" fill="#f59e0b" opacity="0.1"/><circle cx="1070.0431677909364" cy="24.73201091888768" r="33.523348283360974" fill="#f59e0b" opacity="0.1"/><circle cx="1064.4861472981574" cy="340.9073477383572" r="44.06855865949183" fill="#f59e0b" opacity="0.1"/><circle cx="1197.4824986849853" cy="20.731456894645817" r="19.181313987573958" fill="#f59e0b" opacity="0.1"/><circle cx="1088.3176023253327" cy="391.169931398872" r="49.925471635833674" fill="#f59e0b" opacity="0.1"/><circle cx="246.03404295557993" cy="386.2958229263313" r="35.48278952672263" fill="#f59e0b" opacity="0.1"/><circle cx="998.997568564846" cy="296.0911227763063" r="13.361082641495159" fill="#f59e0b" opacity="0.1"/><circle cx="811.10249603189" cy="273.0858096088923" r="37.66247883744654" fill="#f59e0b" opacity="0.1"/><circle cx="1129.4092715404986" cy="225.56511313305236" r="44.160303221360664" fill="#f59e0b" opacity="0.1"/><circle cx="699.9688267947931" cy="246.96384375783964" r="23.342741099113482" fill="#f59e0b" opacity="0.1"/><circle cx="1058.811332393816" cy="100.50483614650148" r="28.74718486185884" fill="#f59e0b" opacity="0.1"/><circle cx="413.13472269976046" cy="333.4039709829085" r="23.792634188121156" fill="#f59e0b" opacity="0.1"/><circle cx="316.52494850568473" cy="51.751241865258635" r="46.544063007277146" fill="#f59e0b" opacity="0.1"/><circle cx="135.91590058749716" cy="153.7095567149663" r="40.746074422932" fill="#f59e0b" opacity="0.1"/><circle cx="1058.0694860356743" cy="226.4204179772605" r="27.964682531383005" fill="#f59e0b" opacity="0.1"/><circle cx="137.866356856739" cy="171.38224395530415" r="46.209593948051406" fill="#f59e0b" opacity="0.1"/><circle cx="345.08129840833135" cy="132.99862906787894" r="27.29086601131712" fill="#f59e0b" opacity="0.1"/><circle cx="884.9278329849767" cy="12.371586947119795" r="23.479166644483485" fill="#f59e0b" opacity="0.1"/><circle cx="494.22545412016916" cy="262.90245471609524" r="28.532561105312197" fill="#f59e0b" opacity="0.1"/><circle cx="37.16203241292533" cy="318.797408354294" r="37.196113612735644" fill="#f59e0b" opacity="0.1"/><circle cx="898.8669383434171" cy="303.724889967998" r="49.15100429832819" fill="#f59e0b" opacity="0.1"/><circle cx="794.5386574010627" cy="372.0082043808361" r="33.22855808654822" fill="#f59e0b" opacity="0.1"/><circle cx="881.2345687776542" cy="383.6336200165533" r="29.039284933169256" fill="#f59e0b" opacity="0.1"/><circle cx="209.63439838997147" cy="32.47637563945318" r="24.03583726296347" fill="#f59e0b" opacity="0.1"/><circle cx="239.74757774594764" cy="28.288053984579165" r="24.021449481369928" fill="#f59e0b" opacity="0.1"/><circle cx="877.2413256786422" cy="266.8335882048268" r="49.32843494647386" fill="#f59e0b" opacity="0.1"/><circle cx="858.9313231757842" cy="216.85024951557352" r="46.13323162047891" fill="#f59e0b" opacity="0.1"/><circle cx="424.4113980243128" cy="100.953765374652" r="13.597464387421496" fill="#f59e0b" opacity="0.1"/><circle cx="130.53285307396436" cy="274.87170895146846" r="19.12421958419145" fill="#f59e0b" opacity="0.1"/><circle cx="756.2571269218097" cy="284.11191800623783" r="48.650316883140476" fill="#f59e0b" opacity="0.1"/>
        <text x="600" y="520" font-family="Segoe UI, Arial, sans-serif" font-size="38" font-weight="800" fill="#ffffff" text-anchor="middle">Implementing Layered Design Patterns for Enhanced Usabili...</text>
        <text x="600" y="560" font-family="Segoe UI, Arial, sans-serif" font-size="16" font-weight="600" fill="#f59e0b" text-anchor="middle" style="letter-spacing: 4px; text-transform: uppercase;">UI UX Powerhouse • Specialized Series</text>
    </svg>