<svg width="1200" height="600" viewBox="0 0 1200 600" xmlns="http://www.w3.org/2000/svg">
            <rect width="1200" height="600" fill="#171717"/><circle cx="351.6823930442115" cy="222.57569313442218" r="25.703290431665664" fill="#f59e0b" opacity="0.1"/><circle cx="625.6494940804259" cy="373.20780845257104" r="20.936519358983787" fill="#f59e0b" opacity="0.1"/><circle cx="320.17038247940945" cy="57.964666985935764" r="25.665324254732695" fill="#f59e0b" opacity="0.1"/><circle cx="1198.6084826974547" cy="355.34598040339915" r="39.60151111180039" fill="#f59e0b" opacity="0.1"/><circle cx="576.7727387021296" cy="2.9339823078771587" r="21.08700183671317" fill="#f59e0b" opacity="0.1"/><circle cx="1013.0877663428691" cy="186.49870170556824" r="38.34494468421326" fill="#f59e0b" opacity="0.1"/><circle cx="1095.6523079963517" cy="245.41408873701585" r="20.48187827633228" fill="#f59e0b" opacity="0.1"/><circle cx="88.0473976219946" cy="141.57935565017397" r="11.077309228858212" fill="#f59e0b" opacity="0.1"/><circle cx="190.46400609477132" cy="339.35632614811766" r="31.03758562998337" fill="#f59e0b" opacity="0.1"/><circle cx="1091.2236890236272" cy="151.68075049878098" r="33.28207458318502" fill="#f59e0b" opacity="0.1"/><circle cx="937.9173816672846" cy="116.78992615816242" r="34.41475812083354" fill="#f59e0b" opacity="0.1"/><circle cx="553.8263159534836" cy="217.42015991330845" r="27.523031616947264" fill="#f59e0b" opacity="0.1"/><circle cx="1084.7536138629948" cy="153.90996991409338" r="49.62031335319807" fill="#f59e0b" opacity="0.1"/><circle cx="248.05009912997775" cy="399.64234044600744" r="12.961407048933324" fill="#f59e0b" opacity="0.1"/><circle cx="885.4956895651412" cy="226.27565020811744" r="35.94588087948068" fill="#f59e0b" opacity="0.1"/><circle cx="825.7750708340609" cy="201.71016202948522" r="49.2029445139633" fill="#f59e0b" opacity="0.1"/><circle cx="767.0942198026751" cy="26.74604651037953" r="49.59358580623302" fill="#f59e0b" opacity="0.1"/><circle cx="269.82523273763945" cy="152.00863083045988" r="40.07641841431905" fill="#f59e0b" opacity="0.1"/><circle cx="428.946745220037" cy="278.0229614716518" r="42.930811473415815" fill="#f59e0b" opacity="0.1"/><circle cx="533.0426649692527" cy="382.4591021139895" r="41.91688251859887" fill="#f59e0b" opacity="0.1"/><circle cx="67.10354580645799" cy="10.41829854639218" r="39.12569027401332" fill="#f59e0b" opacity="0.1"/><circle cx="793.198966032287" cy="145.006404770902" r="25.33922978229384" fill="#f59e0b" opacity="0.1"/><circle cx="259.17837578599574" cy="133.75770843267674" r="18.923296220455086" fill="#f59e0b" opacity="0.1"/><circle cx="1142.5063318471075" cy="145.19728986060727" r="36.82608841370893" fill="#f59e0b" opacity="0.1"/><circle cx="446.4264409747557" cy="107.42254768993007" r="43.224125200285926" fill="#f59e0b" opacity="0.1"/><circle cx="828.17007569829" cy="281.4138636098505" r="18.486156396993465" fill="#f59e0b" opacity="0.1"/><circle cx="54.56361938631744" cy="162.87130461787456" r="17.36277489679196" fill="#f59e0b" opacity="0.1"/><circle cx="428.75260168657405" cy="195.08268064964795" r="44.638194900433064" fill="#f59e0b" opacity="0.1"/><circle cx="123.5447678982382" cy="59.661272435914725" r="31.641180396909476" fill="#f59e0b" opacity="0.1"/><circle cx="211.9390139736879" cy="206.48259028675966" r="33.39888618069381" fill="#f59e0b" opacity="0.1"/>
            <text x="600" y="520" font-family="Segoe UI, Arial, sans-serif" font-size="38" font-weight="800" fill="#ffffff" text-anchor="middle">Implementing Multimodal Interaction Patterns for Enhanced...</text>
            <text x="600" y="560" font-family="Segoe UI, Arial, sans-serif" font-size="16" font-weight="600" fill="#f59e0b" text-anchor="middle" style="letter-spacing: 4px; text-transform: uppercase;">UI UX Powerhouse • Specialized Series</text>
        </svg>