<svg width="1200" height="600" viewBox="0 0 1200 600" xmlns="http://www.w3.org/2000/svg">
            <rect width="1200" height="600" fill="#0c4a6e"/><rect x="150" y="153.40197514633473" width="60" height="196.59802485366527" fill="#7dd3fc" opacity="0.6"/>
                    <rect x="170" y="133.40197514633473" width="60" height="196.59802485366527" fill="#38bdf8" opacity="0.4" transform="skewY(-20)"/><rect x="270" y="121.72461795089475" width="60" height="228.27538204910525" fill="#7dd3fc" opacity="0.6"/>
                    <rect x="290" y="101.72461795089475" width="60" height="228.27538204910525" fill="#38bdf8" opacity="0.4" transform="skewY(-20)"/><rect x="390" y="293.6465334943932" width="60" height="56.353466505606775" fill="#7dd3fc" opacity="0.6"/>
                    <rect x="410" y="273.6465334943932" width="60" height="56.353466505606775" fill="#38bdf8" opacity="0.4" transform="skewY(-20)"/><rect x="510" y="256.94283997654566" width="60" height="93.05716002345434" fill="#7dd3fc" opacity="0.6"/>
                    <rect x="530" y="236.94283997654566" width="60" height="93.05716002345434" fill="#38bdf8" opacity="0.4" transform="skewY(-20)"/><rect x="630" y="135.28964308316063" width="60" height="214.71035691683937" fill="#7dd3fc" opacity="0.6"/>
                    <rect x="650" y="115.28964308316063" width="60" height="214.71035691683937" fill="#38bdf8" opacity="0.4" transform="skewY(-20)"/><rect x="750" y="252.46546980670246" width="60" height="97.53453019329754" fill="#7dd3fc" opacity="0.6"/>
                    <rect x="770" y="232.46546980670246" width="60" height="97.53453019329754" fill="#38bdf8" opacity="0.4" transform="skewY(-20)"/><rect x="870" y="286.878547415472" width="60" height="63.121452584528015" fill="#7dd3fc" opacity="0.6"/>
                    <rect x="890" y="266.878547415472" width="60" height="63.121452584528015" fill="#38bdf8" opacity="0.4" transform="skewY(-20)"/><rect x="990" y="120.30747353328479" width="60" height="229.6925264667152" fill="#7dd3fc" opacity="0.6"/>
                    <rect x="1010" y="100.30747353328479" width="60" height="229.6925264667152" fill="#38bdf8" opacity="0.4" transform="skewY(-20)"/>
            <text x="600" y="520" font-family="Segoe UI, Arial, sans-serif" font-size="38" font-weight="800" fill="#ffffff" text-anchor="middle">Implementing Complex Data Filtering in Web Applications U...</text>
            <text x="600" y="560" font-family="Segoe UI, Arial, sans-serif" font-size="16" font-weight="600" fill="#7dd3fc" text-anchor="middle" style="letter-spacing: 4px; text-transform: uppercase;">UI UX Powerhouse • Specialized Series</text>
        </svg>