<svg width="1200" height="600" viewBox="0 0 1200 600" xmlns="http://www.w3.org/2000/svg">
        <rect width="1200" height="600" fill="#1e1b4b"/><circle cx="716.3742156115404" cy="56.01330556128232" r="32.82654329195793" fill="#f43f5e" opacity="0.1"/><circle cx="728.8269707849395" cy="207.19624535558978" r="21.12047170960068" fill="#f43f5e" opacity="0.1"/><circle cx="702.9069593503664" cy="209.69126143063477" r="18.01062126589386" fill="#f43f5e" opacity="0.1"/><circle cx="602.8426216005755" cy="70.27940534826485" r="15.896154298898182" fill="#f43f5e" opacity="0.1"/><circle cx="219.0532255161088" cy="33.06820136058377" r="12.422865771004581" fill="#f43f5e" opacity="0.1"/><circle cx="1183.9937600889243" cy="296.2121841756016" r="42.014194092553225" fill="#f43f5e" opacity="0.1"/><circle cx="860.0589775673143" cy="138.80573202909545" r="41.40225768023811" fill="#f43f5e" opacity="0.1"/><circle cx="161.2849050317891" cy="198.4621949159191" r="31.463852116175985" fill="#f43f5e" opacity="0.1"/><circle cx="1060.1331545753055" cy="139.1885057593754" r="46.405984358516434" fill="#f43f5e" opacity="0.1"/><circle cx="1069.4994507699448" cy="59.58299806479772" r="31.72194487095112" fill="#f43f5e" opacity="0.1"/><circle cx="531.6497823092504" cy="198.75839617852762" r="18.307975866337074" fill="#f43f5e" opacity="0.1"/><circle cx="351.2902603270959" cy="185.18321418414416" r="15.816969126062759" fill="#f43f5e" opacity="0.1"/><circle cx="350.7038926851237" cy="85.68889894686436" r="24.909227547686896" fill="#f43f5e" opacity="0.1"/><circle cx="490.1261713270287" cy="0.8498982601850003" r="49.46557513336302" fill="#f43f5e" opacity="0.1"/><circle cx="990.4173432977586" cy="334.3028388895618" r="12.472493380773813" fill="#f43f5e" opacity="0.1"/><circle cx="990.585648023989" cy="192.84727787890006" r="28.18880102912317" fill="#f43f5e" opacity="0.1"/><circle cx="1197.9983887053095" cy="332.58281744911073" r="35.246105829610315" fill="#f43f5e" opacity="0.1"/><circle cx="1190.3512713761302" cy="234.77188394099358" r="46.4975959657022" fill="#f43f5e" opacity="0.1"/><circle cx="668.7126454584359" cy="211.92723069689237" r="12.605889558999479" fill="#f43f5e" opacity="0.1"/><circle cx="1041.157251643881" cy="252.2594077818212" r="23.093505723009002" fill="#f43f5e" opacity="0.1"/><circle cx="3.2896069209527923" cy="74.31542800331954" r="35.939159678746364" fill="#f43f5e" opacity="0.1"/><circle cx="796.1717820437116" cy="350.86008015059633" r="36.79297282351399" fill="#f43f5e" opacity="0.1"/><circle cx="390.9875485638622" cy="386.2148525309749" r="39.836378512154624" fill="#f43f5e" opacity="0.1"/><circle cx="699.8090973233047" cy="132.49352501043177" r="46.36744451618142" fill="#f43f5e" opacity="0.1"/><circle cx="882.996574709432" cy="124.99719672414358" r="24.75291248245412" fill="#f43f5e" opacity="0.1"/><circle cx="1000.25323201844" cy="97.09609408891993" r="24.856393036789086" fill="#f43f5e" opacity="0.1"/><circle cx="819.5287807619025" cy="373.9913215034903" r="29.846162940229988" fill="#f43f5e" opacity="0.1"/><circle cx="964.4567656381696" cy="93.394703458398" r="44.30340730199532" fill="#f43f5e" opacity="0.1"/><circle cx="324.491529498664" cy="27.253224534797482" r="10.625576443035243" fill="#f43f5e" opacity="0.1"/><circle cx="1151.8715556820098" cy="195.34559989547233" r="38.883625535563624" fill="#f43f5e" opacity="0.1"/>
        <text x="600" y="520" font-family="Segoe UI, Arial, sans-serif" font-size="38" font-weight="800" fill="#ffffff" text-anchor="middle">Implementing Context-Aware Tooltips in React for Enhanced...</text>
        <text x="600" y="560" font-family="Segoe UI, Arial, sans-serif" font-size="16" font-weight="600" fill="#f43f5e" text-anchor="middle" style="letter-spacing: 4px; text-transform: uppercase;">UI UX Powerhouse • Specialized Series</text>
    </svg>