<svg width="1200" height="600" viewBox="0 0 1200 600" xmlns="http://www.w3.org/2000/svg">
        <rect width="1200" height="600" fill="#1e1b4b"/><circle cx="109.97181930652005" cy="137.1139715287427" r="20.850601305974124" fill="#f43f5e" opacity="0.1"/><circle cx="116.67450005334103" cy="128.44311912849662" r="27.504413286478666" fill="#f43f5e" opacity="0.1"/><circle cx="110.49912681701244" cy="38.420496102207835" r="11.19716723324018" fill="#f43f5e" opacity="0.1"/><circle cx="619.5813200847624" cy="264.5990426042772" r="39.25492702786869" fill="#f43f5e" opacity="0.1"/><circle cx="431.26161231784863" cy="115.98849169167806" r="41.81022222706815" fill="#f43f5e" opacity="0.1"/><circle cx="443.71214868006064" cy="131.76194136904087" r="10.743748559225423" fill="#f43f5e" opacity="0.1"/><circle cx="1198.7168304018269" cy="3.793317642339389" r="18.20699686453736" fill="#f43f5e" opacity="0.1"/><circle cx="574.5277039452731" cy="358.2522601704113" r="32.05596248470101" fill="#f43f5e" opacity="0.1"/><circle cx="403.7160640662478" cy="312.67408698887493" r="45.81937191000179" fill="#f43f5e" opacity="0.1"/><circle cx="973.6813528692437" cy="202.19545361687778" r="38.44486163216061" fill="#f43f5e" opacity="0.1"/><circle cx="1110.299412276072" cy="74.73535641329363" r="40.81392255619903" fill="#f43f5e" opacity="0.1"/><circle cx="1176.1143592702865" cy="232.77765312304837" r="27.292242373366662" fill="#f43f5e" opacity="0.1"/><circle cx="303.72130784526234" cy="253.27724535140987" r="28.378075935761444" fill="#f43f5e" opacity="0.1"/><circle cx="990.9028455349471" cy="5.36654084262409" r="47.80638173484476" fill="#f43f5e" opacity="0.1"/><circle cx="495.7503571138659" cy="38.142424647230655" r="41.95532667610678" fill="#f43f5e" opacity="0.1"/><circle cx="709.0233180992072" cy="263.1569934012077" r="24.53652417030753" fill="#f43f5e" opacity="0.1"/><circle cx="1044.7601522697369" cy="85.5245717237267" r="35.69724060680528" fill="#f43f5e" opacity="0.1"/><circle cx="1062.575974547508" cy="43.1655245469301" r="23.62398979948921" fill="#f43f5e" opacity="0.1"/><circle cx="632.3515185722499" cy="277.6807329224539" r="26.173029525161837" fill="#f43f5e" opacity="0.1"/><circle cx="828.8947270732024" cy="354.40240838288446" r="40.364683971274644" fill="#f43f5e" opacity="0.1"/><circle cx="552.6883695485594" cy="141.47544902079972" r="14.533549999978277" fill="#f43f5e" opacity="0.1"/><circle cx="600.8514663197275" cy="60.22300089825876" r="25.165305694754352" fill="#f43f5e" opacity="0.1"/><circle cx="95.78663064385182" cy="57.59769801006769" r="35.52050193902687" fill="#f43f5e" opacity="0.1"/><circle cx="360.36504815328954" cy="335.92171863601834" r="35.10611049445288" fill="#f43f5e" opacity="0.1"/><circle cx="439.31358210957114" cy="59.60489651280341" r="14.648748645959131" fill="#f43f5e" opacity="0.1"/><circle cx="1189.1401304950705" cy="158.20796138577862" r="49.36236567435117" fill="#f43f5e" opacity="0.1"/><circle cx="939.9135146843037" cy="254.65003072531545" r="30.02200764600275" fill="#f43f5e" opacity="0.1"/><circle cx="1038.418967063626" cy="1.8223479877633508" r="20.372142931446433" fill="#f43f5e" opacity="0.1"/><circle cx="455.70830493816175" cy="51.45058469825017" r="48.732794640127395" fill="#f43f5e" opacity="0.1"/><circle cx="24.026233002769004" cy="4.850770207121968" r="34.8213624154414" fill="#f43f5e" opacity="0.1"/>
        <text x="600" y="520" font-family="Segoe UI, Arial, sans-serif" font-size="38" font-weight="800" fill="#ffffff" text-anchor="middle">Implementing Keyboard-Only Navigation for Complex Data Gr...</text>
        <text x="600" y="560" font-family="Segoe UI, Arial, sans-serif" font-size="16" font-weight="600" fill="#f43f5e" text-anchor="middle" style="letter-spacing: 4px; text-transform: uppercase;">UI UX Powerhouse • Specialized Series</text>
    </svg>