<svg width="1200" height="600" viewBox="0 0 1200 600" xmlns="http://www.w3.org/2000/svg">
        <rect width="1200" height="600" fill="#0c4a6e"/><rect x="150" y="269.5985091499665" width="60" height="80.4014908500335" fill="#7dd3fc" opacity="0.6"/>
                    <rect x="170" y="249.5985091499665" width="60" height="80.4014908500335" fill="#38bdf8" opacity="0.4" transform="skewY(-20)"/><rect x="270" y="258.7405682417739" width="60" height="91.25943175822613" fill="#7dd3fc" opacity="0.6"/>
                    <rect x="290" y="238.74056824177387" width="60" height="91.25943175822613" fill="#38bdf8" opacity="0.4" transform="skewY(-20)"/><rect x="390" y="208.72462340230413" width="60" height="141.27537659769587" fill="#7dd3fc" opacity="0.6"/>
                    <rect x="410" y="188.72462340230413" width="60" height="141.27537659769587" fill="#38bdf8" opacity="0.4" transform="skewY(-20)"/><rect x="510" y="282.71372182553023" width="60" height="67.28627817446977" fill="#7dd3fc" opacity="0.6"/>
                    <rect x="530" y="262.71372182553023" width="60" height="67.28627817446977" fill="#38bdf8" opacity="0.4" transform="skewY(-20)"/><rect x="630" y="294.5802697183808" width="60" height="55.419730281619195" fill="#7dd3fc" opacity="0.6"/>
                    <rect x="650" y="274.5802697183808" width="60" height="55.419730281619195" fill="#38bdf8" opacity="0.4" transform="skewY(-20)"/><rect x="750" y="268.9144727370149" width="60" height="81.08552726298512" fill="#7dd3fc" opacity="0.6"/>
                    <rect x="770" y="248.91447273701488" width="60" height="81.08552726298512" fill="#38bdf8" opacity="0.4" transform="skewY(-20)"/><rect x="870" y="224.37333585403394" width="60" height="125.62666414596606" fill="#7dd3fc" opacity="0.6"/>
                    <rect x="890" y="204.37333585403394" width="60" height="125.62666414596606" fill="#38bdf8" opacity="0.4" transform="skewY(-20)"/><rect x="990" y="288.8042755655988" width="60" height="61.1957244344012" fill="#7dd3fc" opacity="0.6"/>
                    <rect x="1010" y="268.8042755655988" width="60" height="61.1957244344012" fill="#38bdf8" opacity="0.4" transform="skewY(-20)"/>
        <text x="600" y="520" font-family="Segoe UI, Arial, sans-serif" font-size="38" font-weight="800" fill="#ffffff" text-anchor="middle">Implementing Dynamic Data Visualization with WebAssembly ...</text>
        <text x="600" y="560" font-family="Segoe UI, Arial, sans-serif" font-size="16" font-weight="600" fill="#7dd3fc" text-anchor="middle" style="letter-spacing: 4px; text-transform: uppercase;">UI UX Powerhouse • Specialized Series</text>
    </svg>