<svg width="1200" height="600" viewBox="0 0 1200 600" xmlns="http://www.w3.org/2000/svg">
            <rect width="1200" height="600" fill="#1e1b4b"/><path d="M 856.0100518934632 72.14900709877838 L 842.6619972137075 122.14900709877838 L 833.0523259681286 172.14900709877838" stroke="#f43f5e" fill="none" opacity="0.4"/>
                    <circle cx="856.0100518934632" cy="72.14900709877838" r="3" fill="#22d3ee"/><path d="M 723.6478602983993 291.03332837189555 L 771.9594711576178 341.03332837189555 L 763.0198795294859 391.03332837189555" stroke="#f43f5e" fill="none" opacity="0.4"/>
                    <circle cx="723.6478602983993" cy="291.03332837189555" r="3" fill="#22d3ee"/><path d="M 303.7965287336647 272.6432383584324 L 342.13263580491 322.6432383584324 L 289.52414922537173 372.6432383584324" stroke="#f43f5e" fill="none" opacity="0.4"/>
                    <circle cx="303.7965287336647" cy="272.6432383584324" r="3" fill="#22d3ee"/><path d="M 697.5891707003029 183.37346970547515 L 701.5242834573655 233.37346970547515 L 698.2372870317704 283.37346970547515" stroke="#f43f5e" fill="none" opacity="0.4"/>
                    <circle cx="697.5891707003029" cy="183.37346970547515" r="3" fill="#22d3ee"/><path d="M 743.507058769319 176.17106623438303 L 711.6364168938162 226.17106623438303 L 740.9916022629659 276.17106623438303" stroke="#f43f5e" fill="none" opacity="0.4"/>
                    <circle cx="743.507058769319" cy="176.17106623438303" r="3" fill="#22d3ee"/><path d="M 479.32190567771613 103.71686147900618 L 446.8157714843983 153.71686147900618 L 528.7143603461573 203.71686147900618" stroke="#f43f5e" fill="none" opacity="0.4"/>
                    <circle cx="479.32190567771613" cy="103.71686147900618" r="3" fill="#22d3ee"/><path d="M 1153.4614553820575 69.54537950732629 L 1189.325105167336 119.54537950732629 L 1120.6022225520428 169.5453795073263" stroke="#f43f5e" fill="none" opacity="0.4"/>
                    <circle cx="1153.4614553820575" cy="69.54537950732629" r="3" fill="#22d3ee"/><path d="M 612.8343266496813 16.851570725521015 L 626.8309968110771 66.85157072552101 L 607.1792543893935 116.85157072552101" stroke="#f43f5e" fill="none" opacity="0.4"/>
                    <circle cx="612.8343266496813" cy="16.851570725521015" r="3" fill="#22d3ee"/><path d="M 53.151176718165516 165.74942673396436 L 19.70027736551856 215.74942673396436 L 57.12439557835296 265.74942673396436" stroke="#f43f5e" fill="none" opacity="0.4"/>
                    <circle cx="53.151176718165516" cy="165.74942673396436" r="3" fill="#22d3ee"/><path d="M 653.7187052054833 360.20931709681463 L 612.2143082113325 410.20931709681463 L 694.4677136542396 460.20931709681463" stroke="#f43f5e" fill="none" opacity="0.4"/>
                    <circle cx="653.7187052054833" cy="360.20931709681463" r="3" fill="#22d3ee"/>
            <text x="600" y="520" font-family="Segoe UI, Arial, sans-serif" font-size="38" font-weight="800" fill="#ffffff" text-anchor="middle">Implementing Advanced Data Table Usability: Techniques fo...</text>
            <text x="600" y="560" font-family="Segoe UI, Arial, sans-serif" font-size="16" font-weight="600" fill="#f43f5e" text-anchor="middle" style="letter-spacing: 4px; text-transform: uppercase;">UI UX Powerhouse • Specialized Series</text>
        </svg>