<svg width="1200" height="600" viewBox="0 0 1200 600" xmlns="http://www.w3.org/2000/svg">
            <rect width="1200" height="600" fill="#171717"/><path d="M 873.7080812314161 281.02409788552905 L 895.110790264971 331.02409788552905 L 825.0135609040626 381.02409788552905" stroke="#f59e0b" fill="none" opacity="0.4"/>
                    <circle cx="873.7080812314161" cy="281.02409788552905" r="3" fill="#ec4899"/><path d="M 452.45385236194124 296.2868735376105 L 465.8458060725934 346.2868735376105 L 497.2658111015335 396.2868735376105" stroke="#f59e0b" fill="none" opacity="0.4"/>
                    <circle cx="452.45385236194124" cy="296.2868735376105" r="3" fill="#ec4899"/><path d="M 122.33162457778235 215.2894941944396 L 124.61193184652473 265.2894941944396 L 149.01179146891081 315.2894941944396" stroke="#f59e0b" fill="none" opacity="0.4"/>
                    <circle cx="122.33162457778235" cy="215.2894941944396" r="3" fill="#ec4899"/><path d="M 1085.225918064964 115.31763522216352 L 1064.3176129335302 165.31763522216352 L 1075.120141036598 215.31763522216352" stroke="#f59e0b" fill="none" opacity="0.4"/>
                    <circle cx="1085.225918064964" cy="115.31763522216352" r="3" fill="#ec4899"/><path d="M 662.167579367815 147.95535763314547 L 676.6015258153857 197.95535763314547 L 616.8169135714379 247.95535763314547" stroke="#f59e0b" fill="none" opacity="0.4"/>
                    <circle cx="662.167579367815" cy="147.95535763314547" r="3" fill="#ec4899"/><path d="M 149.87058688457182 230.1383533086664 L 152.9323106577067 280.1383533086664 L 188.7329864935964 330.1383533086664" stroke="#f59e0b" fill="none" opacity="0.4"/>
                    <circle cx="149.87058688457182" cy="230.1383533086664" r="3" fill="#ec4899"/><path d="M 301.3768686716503 169.71802480329643 L 309.80087580828695 219.71802480329643 L 286.92821603972334 269.71802480329643" stroke="#f59e0b" fill="none" opacity="0.4"/>
                    <circle cx="301.3768686716503" cy="169.71802480329643" r="3" fill="#ec4899"/><path d="M 39.917321650864324 115.26637440656486 L 47.02907942601087 165.26637440656486 L 48.899956429704616 215.26637440656486" stroke="#f59e0b" fill="none" opacity="0.4"/>
                    <circle cx="39.917321650864324" cy="115.26637440656486" r="3" fill="#ec4899"/><path d="M 455.78729733279033 229.68202928532264 L 431.28808608908 279.68202928532264 L 492.91517764158925 329.68202928532264" stroke="#f59e0b" fill="none" opacity="0.4"/>
                    <circle cx="455.78729733279033" cy="229.68202928532264" r="3" fill="#ec4899"/><path d="M 934.3051395968359 94.49495885019132 L 924.9859576717256 144.49495885019132 L 942.5306741779423 194.49495885019132" stroke="#f59e0b" fill="none" opacity="0.4"/>
                    <circle cx="934.3051395968359" cy="94.49495885019132" r="3" fill="#ec4899"/>
            <text x="600" y="520" font-family="Segoe UI, Arial, sans-serif" font-size="38" font-weight="800" fill="#ffffff" text-anchor="middle">Implementing Advanced Voice Command Interfaces for Web Ap...</text>
            <text x="600" y="560" font-family="Segoe UI, Arial, sans-serif" font-size="16" font-weight="600" fill="#f59e0b" text-anchor="middle" style="letter-spacing: 4px; text-transform: uppercase;">UI UX Powerhouse • Specialized Series</text>
        </svg>