<svg width="1200" height="600" viewBox="0 0 1200 600" xmlns="http://www.w3.org/2000/svg">
            <rect width="1200" height="600" fill="#171717"/><rect x="150" y="270.2975723637337" width="60" height="79.7024276362663" fill="#f59e0b" opacity="0.6"/>
                    <rect x="170" y="250.2975723637337" width="60" height="79.7024276362663" fill="#fbbf24" opacity="0.4" transform="skewY(-20)"/><rect x="270" y="265.7717396650696" width="60" height="84.22826033493038" fill="#f59e0b" opacity="0.6"/>
                    <rect x="290" y="245.77173966506962" width="60" height="84.22826033493038" fill="#fbbf24" opacity="0.4" transform="skewY(-20)"/><rect x="390" y="271.76016488479036" width="60" height="78.23983511520964" fill="#f59e0b" opacity="0.6"/>
                    <rect x="410" y="251.76016488479036" width="60" height="78.23983511520964" fill="#fbbf24" opacity="0.4" transform="skewY(-20)"/><rect x="510" y="179.7511913384369" width="60" height="170.2488086615631" fill="#f59e0b" opacity="0.6"/>
                    <rect x="530" y="159.7511913384369" width="60" height="170.2488086615631" fill="#fbbf24" opacity="0.4" transform="skewY(-20)"/><rect x="630" y="292.5128636517911" width="60" height="57.48713634820888" fill="#f59e0b" opacity="0.6"/>
                    <rect x="650" y="272.5128636517911" width="60" height="57.48713634820888" fill="#fbbf24" opacity="0.4" transform="skewY(-20)"/><rect x="750" y="187.98042835915112" width="60" height="162.01957164084888" fill="#f59e0b" opacity="0.6"/>
                    <rect x="770" y="167.98042835915112" width="60" height="162.01957164084888" fill="#fbbf24" opacity="0.4" transform="skewY(-20)"/><rect x="870" y="166.53174388957268" width="60" height="183.46825611042732" fill="#f59e0b" opacity="0.6"/>
                    <rect x="890" y="146.53174388957268" width="60" height="183.46825611042732" fill="#fbbf24" opacity="0.4" transform="skewY(-20)"/><rect x="990" y="143.3035545985149" width="60" height="206.6964454014851" fill="#f59e0b" opacity="0.6"/>
                    <rect x="1010" y="123.30355459851489" width="60" height="206.6964454014851" fill="#fbbf24" opacity="0.4" transform="skewY(-20)"/>
            <text x="600" y="520" font-family="Segoe UI, Arial, sans-serif" font-size="38" font-weight="800" fill="#ffffff" text-anchor="middle">Implementing Conditional Rendering for Advanced Error Han...</text>
            <text x="600" y="560" font-family="Segoe UI, Arial, sans-serif" font-size="16" font-weight="600" fill="#f59e0b" text-anchor="middle" style="letter-spacing: 4px; text-transform: uppercase;">UI UX Powerhouse • Specialized Series</text>
        </svg>