<svg width="1200" height="600" viewBox="0 0 1200 600" xmlns="http://www.w3.org/2000/svg">
            <rect width="1200" height="600" fill="#111827"/>
            <g opacity="0.2">
                <circle cx="1136.596847492099" cy="325.97430228844456" r="0.3421023661739999" fill="#ffffff"/><circle cx="809.61328246249" cy="207.2961953639602" r="0.39993829276040116" fill="#ffffff"/><circle cx="650.2311061807549" cy="459.9410169946154" r="1.7056478456073505" fill="#ffffff"/><circle cx="158.70970471193579" cy="430.50744277089734" r="0.9472925506630101" fill="#ffffff"/><circle cx="272.7134164968541" cy="42.36018550563971" r="0.37786676770681105" fill="#ffffff"/><circle cx="1111.9132247632376" cy="199.31441779769523" r="0.6881744565089216" fill="#ffffff"/><circle cx="128.5015708538571" cy="99.7445164085854" r="1.3144668579600307" fill="#ffffff"/><circle cx="628.4092452874686" cy="36.979446243758865" r="0.6619369661884644" fill="#ffffff"/><circle cx="91.67107843783313" cy="80.19986590804741" r="1.3824187529189877" fill="#ffffff"/><circle cx="484.4078005722061" cy="305.694532521276" r="0.3742210370143426" fill="#ffffff"/><circle cx="277.47081596089794" cy="104.54451226639495" r="1.7015366092143596" fill="#ffffff"/><circle cx="1058.6182708986485" cy="286.6350359240997" r="1.56411965534704" fill="#ffffff"/><circle cx="938.7705055446006" cy="80.7775592511921" r="1.7617402185667814" fill="#ffffff"/><circle cx="609.8811517972626" cy="564.4349509709756" r="1.2185222890122585" fill="#ffffff"/><circle cx="72.99353320991186" cy="206.6887401595807" r="1.588627722949403" fill="#ffffff"/><circle cx="329.41386691937595" cy="84.75406129371106" r="0.10520706986552986" fill="#ffffff"/><circle cx="406.65028073985235" cy="177.97780493584042" r="1.2714840765714988" fill="#ffffff"/><circle cx="326.644088140482" cy="532.923818876519" r="0.018266115893215806" fill="#ffffff"/><circle cx="675.6446516592963" cy="10.425180390954525" r="1.234797248951934" fill="#ffffff"/><circle cx="949.2006272081355" cy="269.85169555627635" r="0.2788690579387407" fill="#ffffff"/><circle cx="1111.6969215123354" cy="233.100534395105" r="0.8774850350331591" fill="#ffffff"/><circle cx="283.00311834187926" cy="529.8992643414733" r="1.5272777352552984" fill="#ffffff"/><circle cx="773.0546266814222" cy="294.43996684959" r="1.0260332470016804" fill="#ffffff"/><circle cx="447.5935408117544" cy="167.4915509409093" r="1.1974016440158461" fill="#ffffff"/><circle cx="882.9303337697678" cy="218.44907780305326" r="0.8578845380140414" fill="#ffffff"/><circle cx="691.8731171919102" cy="34.84961554421781" r="0.5930692764741488" fill="#ffffff"/><circle cx="109.97748202902109" cy="395.78117996258294" r="0.5004951951396108" fill="#ffffff"/><circle cx="693.0760117742117" cy="203.89319803866107" r="1.0120421095611212" fill="#ffffff"/><circle cx="486.1381087961445" cy="570.6331074083384" r="0.5163824174864933" fill="#ffffff"/><circle cx="1187.8864713245412" cy="69.8101498374397" r="0.7940400885426371" fill="#ffffff"/><circle cx="156.8361780359636" cy="225.90724063354156" r="0.7472150611679116" fill="#ffffff"/><circle cx="1166.1788145414453" cy="240.98144222256389" r="0.6937722627361691" fill="#ffffff"/><circle cx="634.7500883751796" cy="390.7691340293098" r="1.6745822350898816" fill="#ffffff"/><circle cx="92.39793605986742" cy="284.21965148296505" r="0.7390997897912639" fill="#ffffff"/><circle cx="383.85865142913656" cy="315.89502366971476" r="0.1485435405373856" fill="#ffffff"/><circle cx="608.1376190110942" cy="492.1882741471568" r="0.3244081036429156" fill="#ffffff"/><circle cx="132.77491172726553" cy="473.65043156550274" r="1.915176186128795" fill="#ffffff"/><circle cx="671.3713199139262" cy="146.28097539427003" r="1.0777590802326988" fill="#ffffff"/><circle cx="478.9728382803051" cy="125.62314409664266" r="0.7084307755389689" fill="#ffffff"/><circle cx="976.5060063830447" cy="475.087899052471" r="0.1018374189132567" fill="#ffffff"/><circle cx="98.0678308789734" cy="511.2462590719288" r="1.3580370872449763" fill="#ffffff"/><circle cx="111.89652094608658" cy="382.8806232687094" r="0.6636793319518026" fill="#ffffff"/><circle cx="1006.0581392026203" cy="316.56625417797346" r="1.8067597662539734" fill="#ffffff"/><circle cx="1151.448667402005" cy="267.00020219587856" r="1.5003269354530937" fill="#ffffff"/><circle cx="84.75117308684999" cy="502.43990540203697" r="0.7939833718483003" fill="#ffffff"/><circle cx="1002.8227899612236" cy="67.14360776944133" r="0.01947731823381993" fill="#ffffff"/><circle cx="143.30263153935584" cy="163.5234366619528" r="0.5714776687714387" fill="#ffffff"/><circle cx="21.70658573080764" cy="332.10344916514083" r="0.6166417077099127" fill="#ffffff"/><circle cx="494.1569802631326" cy="64.33305059551118" r="0.927760605560368" fill="#ffffff"/><circle cx="901.040651021031" cy="517.7408276467223" r="0.4259112275740833" fill="#ffffff"/>
            </g>
            <g transform="translate(600, 250) rotate(-45)">
                <path d="M-40,0 Q0,-120 40,0 V100 H-40 Z" fill="#f9fafb"/>
                <path d="M-40,60 L-70,100 L-40,100 Z" fill="#ef4444"/>
                <path d="M40,60 L70,100 L40,100 Z" fill="#ef4444"/>
                <circle cx="0" cy="-20" r="15" fill="#38bdf8"/>
                <path d="M-30,100 Q0,160 30,100" fill="#fbbf24" opacity="0.8">
                    <animate attributeName="d" values="M-30,100 Q0,160 30,100; M-30,100 Q0,140 30,100; M-30,100 Q0,160 30,100" dur="0.2s" repeatCount="indefinite"/>
                </path>
            </g>
            <text x="600" y="500" font-family="Segoe UI, Arial" font-size="36" font-weight="800" fill="#ffffff" text-anchor="middle">Implementing Intersection Observer for Lazy Loading ...</text>
            <text x="600" y="540" font-family="Segoe UI, Arial" font-size="20" fill="#38bdf8" font-weight="600" text-anchor="middle">OPTIMIZED PERFORMANCE • CORE WEB VITALS</text>
        </svg>