<svg width="1200" height="600" viewBox="0 0 1200 600" xmlns="http://www.w3.org/2000/svg">
        
            <rect width="1200" height="600" fill="#064e3b"/>
            <g opacity="0.3">
                <line x1="857.9842614748031" y1="312.922483568218" x2="466.7051634773088" y2="371.6187719741356" stroke="#34d399" stroke-width="1"/><line x1="857.9842614748031" y1="312.922483568218" x2="638.7842807514971" y2="147.073173492754" stroke="#34d399" stroke-width="1"/><line x1="857.9842614748031" y1="312.922483568218" x2="880.7310514966048" y2="361.99809375184486" stroke="#34d399" stroke-width="1"/><line x1="857.9842614748031" y1="312.922483568218" x2="602.3176932158094" y2="374.6123083058592" stroke="#34d399" stroke-width="1"/><line x1="857.9842614748031" y1="312.922483568218" x2="718.1583876881632" y2="176.78552815859803" stroke="#34d399" stroke-width="1"/><line x1="466.7051634773088" y1="371.6187719741356" x2="638.7842807514971" y2="147.073173492754" stroke="#34d399" stroke-width="1"/><line x1="466.7051634773088" y1="371.6187719741356" x2="880.7310514966048" y2="361.99809375184486" stroke="#34d399" stroke-width="1"/><line x1="466.7051634773088" y1="371.6187719741356" x2="602.3176932158094" y2="374.6123083058592" stroke="#34d399" stroke-width="1"/><line x1="466.7051634773088" y1="371.6187719741356" x2="718.1583876881632" y2="176.78552815859803" stroke="#34d399" stroke-width="1"/><line x1="638.7842807514971" y1="147.073173492754" x2="880.7310514966048" y2="361.99809375184486" stroke="#34d399" stroke-width="1"/><line x1="638.7842807514971" y1="147.073173492754" x2="602.3176932158094" y2="374.6123083058592" stroke="#34d399" stroke-width="1"/><line x1="638.7842807514971" y1="147.073173492754" x2="718.1583876881632" y2="176.78552815859803" stroke="#34d399" stroke-width="1"/><line x1="880.7310514966048" y1="361.99809375184486" x2="602.3176932158094" y2="374.6123083058592" stroke="#34d399" stroke-width="1"/><line x1="880.7310514966048" y1="361.99809375184486" x2="718.1583876881632" y2="176.78552815859803" stroke="#34d399" stroke-width="1"/><line x1="602.3176932158094" y1="374.6123083058592" x2="718.1583876881632" y2="176.78552815859803" stroke="#34d399" stroke-width="1"/>
            </g>
            <circle cx="857.9842614748031" cy="312.922483568218" r="5.1779771486035315" fill="#34d399"/><circle cx="466.7051634773088" cy="371.6187719741356" r="5.7476509928455926" fill="#34d399"/><circle cx="638.7842807514971" cy="147.073173492754" r="4.432284143094876" fill="#34d399"/><circle cx="880.7310514966048" cy="361.99809375184486" r="10.17369217974192" fill="#34d399"/><circle cx="602.3176932158094" cy="374.6123083058592" r="11.580082148553629" fill="#34d399"/><circle cx="718.1583876881632" cy="176.78552815859803" r="11.479514427570393" fill="#34d399"/>
        
        <text x="600" y="520" font-family="Segoe UI, Arial" font-size="38" font-weight="800" fill="#f8fafc" text-anchor="middle">Implementing Adaptive Contrast Techniques for Dynamic Con...</text>
    </svg>