<svg width="1200" height="600" viewBox="0 0 1200 600" xmlns="http://www.w3.org/2000/svg">
        <rect width="1200" height="600" fill="#2e1065"/><circle cx="699.3495911618083" cy="311.76818307940266" r="38.279301398433745" fill="#d8b4fe" opacity="0.1"/><circle cx="344.0561426577915" cy="257.81564178760163" r="29.620886153397805" fill="#d8b4fe" opacity="0.1"/><circle cx="363.69856592064025" cy="177.0305058795202" r="28.273175237445685" fill="#d8b4fe" opacity="0.1"/><circle cx="544.7544506467239" cy="54.70623777619039" r="31.36518941973918" fill="#d8b4fe" opacity="0.1"/><circle cx="1045.6704633008485" cy="90.69554676461848" r="16.94418699007656" fill="#d8b4fe" opacity="0.1"/><circle cx="949.9196003824181" cy="241.2366422940977" r="18.554010929256037" fill="#d8b4fe" opacity="0.1"/><circle cx="978.0035666139156" cy="22.177318525064038" r="29.54949850110097" fill="#d8b4fe" opacity="0.1"/><circle cx="557.4139296732028" cy="103.38522731763078" r="38.171052068228164" fill="#d8b4fe" opacity="0.1"/><circle cx="550.8889746266505" cy="18.148887705319794" r="26.7302556893992" fill="#d8b4fe" opacity="0.1"/><circle cx="832.5917702405604" cy="128.90384408456157" r="29.243250442486897" fill="#d8b4fe" opacity="0.1"/><circle cx="363.3448261898593" cy="15.38047515641665" r="34.54528136197041" fill="#d8b4fe" opacity="0.1"/><circle cx="518.2211322367948" cy="73.06940216258226" r="38.29600087032304" fill="#d8b4fe" opacity="0.1"/><circle cx="742.9396767931394" cy="113.21416357241105" r="49.96292135638214" fill="#d8b4fe" opacity="0.1"/><circle cx="238.52386579892482" cy="13.73795494685055" r="16.395424030706636" fill="#d8b4fe" opacity="0.1"/><circle cx="220.14821968878096" cy="189.59350466102478" r="47.250331134964654" fill="#d8b4fe" opacity="0.1"/><circle cx="1081.7686709408008" cy="59.73244455672102" r="12.137111599367927" fill="#d8b4fe" opacity="0.1"/><circle cx="193.8968792092055" cy="293.9505405442105" r="11.682518619163602" fill="#d8b4fe" opacity="0.1"/><circle cx="1056.2972078379062" cy="388.09912631786574" r="30.94119310077076" fill="#d8b4fe" opacity="0.1"/><circle cx="292.2647074483393" cy="399.2463274531474" r="42.07437616372772" fill="#d8b4fe" opacity="0.1"/><circle cx="910.1901084919518" cy="262.25691394211026" r="25.30839495404507" fill="#d8b4fe" opacity="0.1"/><circle cx="1066.4875498414403" cy="297.35271188619663" r="36.77613681909861" fill="#d8b4fe" opacity="0.1"/><circle cx="1157.6269277104075" cy="272.7698350956416" r="14.337962500430876" fill="#d8b4fe" opacity="0.1"/><circle cx="659.9663213501117" cy="323.6640146466016" r="14.257573326285637" fill="#d8b4fe" opacity="0.1"/><circle cx="137.8726800894583" cy="399.2004399879079" r="10.471870974060948" fill="#d8b4fe" opacity="0.1"/><circle cx="306.8682777447975" cy="232.73504508770202" r="10.692715222539846" fill="#d8b4fe" opacity="0.1"/><circle cx="422.81555329900584" cy="338.82546175555035" r="35.15001629651124" fill="#d8b4fe" opacity="0.1"/><circle cx="791.1689970489533" cy="85.56971750076627" r="35.372119241283144" fill="#d8b4fe" opacity="0.1"/><circle cx="138.78432220008108" cy="313.16895540003316" r="30.548009524172812" fill="#d8b4fe" opacity="0.1"/><circle cx="1154.2043785528222" cy="193.3860250373982" r="49.216618101308995" fill="#d8b4fe" opacity="0.1"/><circle cx="1130.98518724546" cy="23.192764582199743" r="31.099904861403047" fill="#d8b4fe" opacity="0.1"/>
        <text x="600" y="520" font-family="Segoe UI, Arial, sans-serif" font-size="38" font-weight="800" fill="#ffffff" text-anchor="middle">Implementing a Comprehensive Accessibility Audit Workflow...</text>
        <text x="600" y="560" font-family="Segoe UI, Arial, sans-serif" font-size="16" font-weight="600" fill="#d8b4fe" text-anchor="middle" style="letter-spacing: 4px; text-transform: uppercase;">UI UX Powerhouse • Specialized Series</text>
    </svg>