<svg width="1200" height="600" viewBox="0 0 1200 600" xmlns="http://www.w3.org/2000/svg">
            <rect width="1200" height="600" fill="#2e1065"/><rect x="150" y="124.822952591785" width="60" height="225.177047408215" fill="#d8b4fe" opacity="0.6"/>
                    <rect x="170" y="104.822952591785" width="60" height="225.177047408215" fill="#a855f7" opacity="0.4" transform="skewY(-20)"/><rect x="270" y="299.5652550925115" width="60" height="50.43474490748849" fill="#d8b4fe" opacity="0.6"/>
                    <rect x="290" y="279.5652550925115" width="60" height="50.43474490748849" fill="#a855f7" opacity="0.4" transform="skewY(-20)"/><rect x="390" y="290.61460558950785" width="60" height="59.385394410492154" fill="#d8b4fe" opacity="0.6"/>
                    <rect x="410" y="270.61460558950785" width="60" height="59.385394410492154" fill="#a855f7" opacity="0.4" transform="skewY(-20)"/><rect x="510" y="142.43756573014252" width="60" height="207.56243426985748" fill="#d8b4fe" opacity="0.6"/>
                    <rect x="530" y="122.43756573014252" width="60" height="207.56243426985748" fill="#a855f7" opacity="0.4" transform="skewY(-20)"/><rect x="630" y="124.11396793613676" width="60" height="225.88603206386324" fill="#d8b4fe" opacity="0.6"/>
                    <rect x="650" y="104.11396793613676" width="60" height="225.88603206386324" fill="#a855f7" opacity="0.4" transform="skewY(-20)"/><rect x="750" y="122.56538178694427" width="60" height="227.43461821305573" fill="#d8b4fe" opacity="0.6"/>
                    <rect x="770" y="102.56538178694427" width="60" height="227.43461821305573" fill="#a855f7" opacity="0.4" transform="skewY(-20)"/><rect x="870" y="172.65841060852836" width="60" height="177.34158939147164" fill="#d8b4fe" opacity="0.6"/>
                    <rect x="890" y="152.65841060852836" width="60" height="177.34158939147164" fill="#a855f7" opacity="0.4" transform="skewY(-20)"/><rect x="990" y="108.16603364946786" width="60" height="241.83396635053214" fill="#d8b4fe" opacity="0.6"/>
                    <rect x="1010" y="88.16603364946786" width="60" height="241.83396635053214" fill="#a855f7" opacity="0.4" transform="skewY(-20)"/>
            <text x="600" y="520" font-family="Segoe UI, Arial, sans-serif" font-size="38" font-weight="800" fill="#ffffff" text-anchor="middle">Implementing Contextual Adaptive UI Elements Using CSS Co...</text>
            <text x="600" y="560" font-family="Segoe UI, Arial, sans-serif" font-size="16" font-weight="600" fill="#d8b4fe" text-anchor="middle" style="letter-spacing: 4px; text-transform: uppercase;">UI UX Powerhouse • Specialized Series</text>
        </svg>