<svg width="1200" height="600" viewBox="0 0 1200 600" xmlns="http://www.w3.org/2000/svg">
            <rect width="1200" height="600" fill="#171717"/><path d="M 453.51012841529155 197.86763231750228 L 500.0737342879802 247.86763231750228 L 405.5750050464667 297.8676323175023" stroke="#f59e0b" fill="none" opacity="0.4"/>
                    <circle cx="453.51012841529155" cy="197.86763231750228" r="3" fill="#ec4899"/><path d="M 490.1351863536547 26.717350936087314 L 488.0807239362184 76.71735093608731 L 518.9074454561705 126.71735093608731" stroke="#f59e0b" fill="none" opacity="0.4"/>
                    <circle cx="490.1351863536547" cy="26.717350936087314" r="3" fill="#ec4899"/><path d="M 378.2961897473797 358.5347595915664 L 390.7038150798371 408.5347595915664 L 355.74387866636243 458.5347595915664" stroke="#f59e0b" fill="none" opacity="0.4"/>
                    <circle cx="378.2961897473797" cy="358.5347595915664" r="3" fill="#ec4899"/><path d="M 1133.552726540438 121.66408619596041 L 1143.843034311294 171.6640861959604 L 1150.6557914148289 221.6640861959604" stroke="#f59e0b" fill="none" opacity="0.4"/>
                    <circle cx="1133.552726540438" cy="121.66408619596041" r="3" fill="#ec4899"/><path d="M 314.48496346920365 98.51878559784382 L 323.62072957239434 148.51878559784382 L 353.9761958522831 198.51878559784382" stroke="#f59e0b" fill="none" opacity="0.4"/>
                    <circle cx="314.48496346920365" cy="98.51878559784382" r="3" fill="#ec4899"/><path d="M 452.0396597853505 99.40613756989478 L 491.9043891027286 149.40613756989478 L 483.124831414807 199.40613756989478" stroke="#f59e0b" fill="none" opacity="0.4"/>
                    <circle cx="452.0396597853505" cy="99.40613756989478" r="3" fill="#ec4899"/><path d="M 999.2531005675119 355.75561671994365 L 988.3988686763132 405.75561671994365 L 977.7927087149692 455.75561671994365" stroke="#f59e0b" fill="none" opacity="0.4"/>
                    <circle cx="999.2531005675119" cy="355.75561671994365" r="3" fill="#ec4899"/><path d="M 1181.225966283091 300.29177160176914 L 1191.2388490476587 350.29177160176914 L 1142.487630884898 400.29177160176914" stroke="#f59e0b" fill="none" opacity="0.4"/>
                    <circle cx="1181.225966283091" cy="300.29177160176914" r="3" fill="#ec4899"/><path d="M 1056.1200983611343 11.75418381790223 L 1016.853943825663 61.75418381790223 L 1024.7979088671855 111.75418381790223" stroke="#f59e0b" fill="none" opacity="0.4"/>
                    <circle cx="1056.1200983611343" cy="11.75418381790223" r="3" fill="#ec4899"/><path d="M 280.5372831324348 143.63652983192878 L 254.66043194683152 193.63652983192878 L 273.9286543464857 243.63652983192878" stroke="#f59e0b" fill="none" opacity="0.4"/>
                    <circle cx="280.5372831324348" cy="143.63652983192878" r="3" fill="#ec4899"/>
            <text x="600" y="520" font-family="Segoe UI, Arial, sans-serif" font-size="38" font-weight="800" fill="#ffffff" text-anchor="middle">Implementing Dynamic Data Visualization with Scroll-Trigg...</text>
            <text x="600" y="560" font-family="Segoe UI, Arial, sans-serif" font-size="16" font-weight="600" fill="#f59e0b" text-anchor="middle" style="letter-spacing: 4px; text-transform: uppercase;">UI UX Powerhouse • Specialized Series</text>
        </svg>