<svg width="1200" height="600" viewBox="0 0 1200 600" xmlns="http://www.w3.org/2000/svg">
        <rect width="1200" height="600" fill="#0c4a6e"/><circle cx="968.4151357119845" cy="335.11981504889263" r="34.02099547725811" fill="#7dd3fc" opacity="0.1"/><circle cx="421.23436653710087" cy="71.69252028761548" r="12.306740146468655" fill="#7dd3fc" opacity="0.1"/><circle cx="693.1957900094858" cy="25.518370150439296" r="38.22183083546861" fill="#7dd3fc" opacity="0.1"/><circle cx="242.4654801907309" cy="206.69477531846496" r="22.484877733586472" fill="#7dd3fc" opacity="0.1"/><circle cx="569.5568571332842" cy="27.957010724458087" r="43.44425127163049" fill="#7dd3fc" opacity="0.1"/><circle cx="219.32228680216213" cy="236.4617040295343" r="12.014848853941658" fill="#7dd3fc" opacity="0.1"/><circle cx="672.6187228596245" cy="50.41568926790205" r="12.270263750979211" fill="#7dd3fc" opacity="0.1"/><circle cx="40.98114876760519" cy="310.714988286054" r="20.815383480621676" fill="#7dd3fc" opacity="0.1"/><circle cx="422.69272040211945" cy="264.78700565421605" r="20.242042663885513" fill="#7dd3fc" opacity="0.1"/><circle cx="203.5762350900768" cy="393.483734950496" r="44.95866333749291" fill="#7dd3fc" opacity="0.1"/><circle cx="1105.8548121705826" cy="156.04221045036866" r="18.524655869077833" fill="#7dd3fc" opacity="0.1"/><circle cx="1037.1578694099298" cy="375.6450038810726" r="32.264146122324746" fill="#7dd3fc" opacity="0.1"/><circle cx="593.5071174732002" cy="346.3419965111825" r="38.33610500765644" fill="#7dd3fc" opacity="0.1"/><circle cx="758.0593398225119" cy="335.89892102972954" r="26.237188491868437" fill="#7dd3fc" opacity="0.1"/><circle cx="526.694399101325" cy="130.56266054718435" r="36.2943720766998" fill="#7dd3fc" opacity="0.1"/><circle cx="269.12926022559986" cy="217.20910669546356" r="31.916427267943845" fill="#7dd3fc" opacity="0.1"/><circle cx="338.4660827818152" cy="222.73668108828133" r="26.80889885123179" fill="#7dd3fc" opacity="0.1"/><circle cx="692.0911094814073" cy="258.7019718996089" r="45.4653073002919" fill="#7dd3fc" opacity="0.1"/><circle cx="143.88036932286923" cy="1.704000906465808" r="46.12907819837346" fill="#7dd3fc" opacity="0.1"/><circle cx="717.092105674601" cy="23.22917685523862" r="44.65809099674516" fill="#7dd3fc" opacity="0.1"/><circle cx="63.466656360105844" cy="26.386068439933297" r="22.280158901266987" fill="#7dd3fc" opacity="0.1"/><circle cx="783.3041046476865" cy="148.7646157554991" r="29.130604896017758" fill="#7dd3fc" opacity="0.1"/><circle cx="140.96077685526325" cy="192.42614032991696" r="39.2903283808846" fill="#7dd3fc" opacity="0.1"/><circle cx="250.60984387382632" cy="194.6810626075603" r="20.986185958627175" fill="#7dd3fc" opacity="0.1"/><circle cx="448.3816433676111" cy="164.29066613968644" r="26.64341896517726" fill="#7dd3fc" opacity="0.1"/><circle cx="375.5797997368063" cy="177.63521527886041" r="11.978029416131903" fill="#7dd3fc" opacity="0.1"/><circle cx="708.9282634929987" cy="131.89535248311586" r="34.11494488802418" fill="#7dd3fc" opacity="0.1"/><circle cx="614.5180761419397" cy="329.293375326597" r="10.36793665123696" fill="#7dd3fc" opacity="0.1"/><circle cx="1008.7430450730608" cy="17.20500938632199" r="38.674751316975744" fill="#7dd3fc" opacity="0.1"/><circle cx="575.9356863265566" cy="249.3142623341555" r="33.52365950289823" fill="#7dd3fc" opacity="0.1"/>
        <text x="600" y="520" font-family="Segoe UI, Arial, sans-serif" font-size="38" font-weight="800" fill="#ffffff" text-anchor="middle">Implementing Responsive Data Visualization Patterns for I...</text>
        <text x="600" y="560" font-family="Segoe UI, Arial, sans-serif" font-size="16" font-weight="600" fill="#7dd3fc" text-anchor="middle" style="letter-spacing: 4px; text-transform: uppercase;">UI UX Powerhouse • Specialized Series</text>
    </svg>