<svg width="1200" height="600" viewBox="0 0 1200 600" xmlns="http://www.w3.org/2000/svg">
            <rect width="1200" height="600" fill="#2e1065"/><rect x="150" y="226.27022012360953" width="60" height="123.72977987639047" fill="#d8b4fe" opacity="0.6"/>
                    <rect x="170" y="206.27022012360953" width="60" height="123.72977987639047" fill="#a855f7" opacity="0.4" transform="skewY(-20)"/><rect x="270" y="206.10221299411933" width="60" height="143.89778700588067" fill="#d8b4fe" opacity="0.6"/>
                    <rect x="290" y="186.10221299411933" width="60" height="143.89778700588067" fill="#a855f7" opacity="0.4" transform="skewY(-20)"/><rect x="390" y="271.4319925968084" width="60" height="78.56800740319159" fill="#d8b4fe" opacity="0.6"/>
                    <rect x="410" y="251.4319925968084" width="60" height="78.56800740319159" fill="#a855f7" opacity="0.4" transform="skewY(-20)"/><rect x="510" y="235.57804662686976" width="60" height="114.42195337313024" fill="#d8b4fe" opacity="0.6"/>
                    <rect x="530" y="215.57804662686976" width="60" height="114.42195337313024" fill="#a855f7" opacity="0.4" transform="skewY(-20)"/><rect x="630" y="121.85986919921561" width="60" height="228.1401308007844" fill="#d8b4fe" opacity="0.6"/>
                    <rect x="650" y="101.85986919921561" width="60" height="228.1401308007844" fill="#a855f7" opacity="0.4" transform="skewY(-20)"/><rect x="750" y="194.74700158789346" width="60" height="155.25299841210654" fill="#d8b4fe" opacity="0.6"/>
                    <rect x="770" y="174.74700158789346" width="60" height="155.25299841210654" fill="#a855f7" opacity="0.4" transform="skewY(-20)"/><rect x="870" y="210.47335191469756" width="60" height="139.52664808530244" fill="#d8b4fe" opacity="0.6"/>
                    <rect x="890" y="190.47335191469756" width="60" height="139.52664808530244" fill="#a855f7" opacity="0.4" transform="skewY(-20)"/><rect x="990" y="221.2119600178994" width="60" height="128.7880399821006" fill="#d8b4fe" opacity="0.6"/>
                    <rect x="1010" y="201.2119600178994" width="60" height="128.7880399821006" fill="#a855f7" opacity="0.4" transform="skewY(-20)"/>
            <text x="600" y="520" font-family="Segoe UI, Arial, sans-serif" font-size="38" font-weight="800" fill="#ffffff" text-anchor="middle">Implementing Custom Scroll-Linked Animations for Enhanced...</text>
            <text x="600" y="560" font-family="Segoe UI, Arial, sans-serif" font-size="16" font-weight="600" fill="#d8b4fe" text-anchor="middle" style="letter-spacing: 4px; text-transform: uppercase;">UI UX Powerhouse • Specialized Series</text>
        </svg>