<svg width="1200" height="600" viewBox="0 0 1200 600" xmlns="http://www.w3.org/2000/svg">
        
            <rect width="1200" height="600" fill="#1e1b4b"/>
            <line x1="234.64314057361156" y1="42.20629103547253" x2="254.5170547135058" y2="399.315000178467" stroke="#f43f5e" stroke-width="0.5" opacity="0.4"/><line x1="234.64314057361156" y1="42.20629103547253" x2="144.7779380112479" y2="254.01494118268602" stroke="#f43f5e" stroke-width="0.5" opacity="0.4"/><line x1="8.38699357227597" y1="379.32659743137265" x2="400.85956199473003" y2="185.5003478252911" stroke="#f43f5e" stroke-width="0.5" opacity="0.4"/><line x1="8.38699357227597" y1="379.32659743137265" x2="254.5170547135058" y2="399.315000178467" stroke="#f43f5e" stroke-width="0.5" opacity="0.4"/><line x1="400.85956199473003" y1="185.5003478252911" x2="843.7538381520426" y2="237.2719577519092" stroke="#f43f5e" stroke-width="0.5" opacity="0.4"/><line x1="400.85956199473003" y1="185.5003478252911" x2="317.2438484363738" y2="329.18908483479754" stroke="#f43f5e" stroke-width="0.5" opacity="0.4"/><line x1="357.71822436581715" y1="234.07620807720377" x2="334.2614855209831" y2="146.08513041675906" stroke="#f43f5e" stroke-width="0.5" opacity="0.4"/><line x1="357.71822436581715" y1="234.07620807720377" x2="254.5170547135058" y2="399.315000178467" stroke="#f43f5e" stroke-width="0.5" opacity="0.4"/><line x1="843.7538381520426" y1="237.2719577519092" x2="142.78986813842494" y2="80.70934982897597" stroke="#f43f5e" stroke-width="0.5" opacity="0.4"/><line x1="843.7538381520426" y1="237.2719577519092" x2="144.7779380112479" y2="254.01494118268602" stroke="#f43f5e" stroke-width="0.5" opacity="0.4"/><line x1="334.2614855209831" y1="146.08513041675906" x2="115.2639477433695" y2="124.4476373281941" stroke="#f43f5e" stroke-width="0.5" opacity="0.4"/><line x1="334.2614855209831" y1="146.08513041675906" x2="317.2438484363738" y2="329.18908483479754" stroke="#f43f5e" stroke-width="0.5" opacity="0.4"/><line x1="334.2614855209831" y1="146.08513041675906" x2="144.7779380112479" y2="254.01494118268602" stroke="#f43f5e" stroke-width="0.5" opacity="0.4"/><line x1="115.2639477433695" y1="124.4476373281941" x2="317.2438484363738" y2="329.18908483479754" stroke="#f43f5e" stroke-width="0.5" opacity="0.4"/><line x1="115.2639477433695" y1="124.4476373281941" x2="254.5170547135058" y2="399.315000178467" stroke="#f43f5e" stroke-width="0.5" opacity="0.4"/><line x1="142.78986813842494" y1="80.70934982897597" x2="144.7779380112479" y2="254.01494118268602" stroke="#f43f5e" stroke-width="0.5" opacity="0.4"/><line x1="317.2438484363738" y1="329.18908483479754" x2="144.7779380112479" y2="254.01494118268602" stroke="#f43f5e" stroke-width="0.5" opacity="0.4"/><line x1="317.2438484363738" y1="329.18908483479754" x2="37.335648707949076" y2="194.73254378899583" stroke="#f43f5e" stroke-width="0.5" opacity="0.4"/>
            <circle cx="234.64314057361156" cy="42.20629103547253" r="5.712324140611599" fill="#22d3ee" opacity="0.6"/><circle cx="8.38699357227597" cy="379.32659743137265" r="3.5158581941359444" fill="#22d3ee" opacity="0.6"/><circle cx="400.85956199473003" cy="185.5003478252911" r="2.999028172052931" fill="#22d3ee" opacity="0.6"/><circle cx="357.71822436581715" cy="234.07620807720377" r="5.465349906102347" fill="#22d3ee" opacity="0.6"/><circle cx="843.7538381520426" cy="237.2719577519092" r="3.984591084474232" fill="#22d3ee" opacity="0.6"/><circle cx="334.2614855209831" cy="146.08513041675906" r="3.9536626847602747" fill="#22d3ee" opacity="0.6"/><circle cx="115.2639477433695" cy="124.4476373281941" r="2.3734435291044065" fill="#22d3ee" opacity="0.6"/><circle cx="142.78986813842494" cy="80.70934982897597" r="4.886304441628454" fill="#22d3ee" opacity="0.6"/><circle cx="317.2438484363738" cy="329.18908483479754" r="3.3343251566075196" fill="#22d3ee" opacity="0.6"/><circle cx="254.5170547135058" cy="399.315000178467" r="4.171846383724187" fill="#22d3ee" opacity="0.6"/><circle cx="144.7779380112479" cy="254.01494118268602" r="5.73656994303019" fill="#22d3ee" opacity="0.6"/><circle cx="37.335648707949076" cy="194.73254378899583" r="2.2231082887246885" fill="#22d3ee" opacity="0.6"/>
        
        <text x="600" y="520" font-family="Segoe UI, Arial, sans-serif" font-size="38" font-weight="800" fill="#ffffff" text-anchor="middle">Implementing a Multi-Layered Approach to Data Visualizati...</text>
        <text x="600" y="560" font-family="Segoe UI, Arial, sans-serif" font-size="16" font-weight="600" fill="#f43f5e" text-anchor="middle" style="letter-spacing: 4px; text-transform: uppercase;">UI UX Powerhouse • Intelligence in Design</text>
    </svg>