<svg width="1200" height="600" viewBox="0 0 1200 600" xmlns="http://www.w3.org/2000/svg">
            <rect width="1200" height="600" fill="#0f172a"/><circle cx="292.4613315604802" cy="42.031997568847146" r="15.476470618596068" fill="#38bdf8" opacity="0.1"/><circle cx="464.0539206869107" cy="290.26165402756305" r="40.00838689840748" fill="#38bdf8" opacity="0.1"/><circle cx="16.80346510183881" cy="27.64891326005454" r="11.632524557353463" fill="#38bdf8" opacity="0.1"/><circle cx="819.7096703872376" cy="222.47499091299687" r="25.013453139617923" fill="#38bdf8" opacity="0.1"/><circle cx="1181.79589767351" cy="188.29714079874975" r="42.077475158366724" fill="#38bdf8" opacity="0.1"/><circle cx="661.2774104134587" cy="156.32097509806044" r="17.225405108183622" fill="#38bdf8" opacity="0.1"/><circle cx="516.0866215661372" cy="164.1990880107187" r="39.61231518926979" fill="#38bdf8" opacity="0.1"/><circle cx="104.49577239778591" cy="199.69462982116966" r="12.281674203841249" fill="#38bdf8" opacity="0.1"/><circle cx="164.12371896076365" cy="32.425269992018" r="26.76868954567908" fill="#38bdf8" opacity="0.1"/><circle cx="515.1141493784962" cy="237.67928210363607" r="17.038067028479418" fill="#38bdf8" opacity="0.1"/><circle cx="1039.585207600976" cy="340.13514939022116" r="38.75046737375669" fill="#38bdf8" opacity="0.1"/><circle cx="762.6502040304331" cy="262.93555986339925" r="14.131802947304095" fill="#38bdf8" opacity="0.1"/><circle cx="1005.3773258645379" cy="311.4951266616117" r="39.133009634242626" fill="#38bdf8" opacity="0.1"/><circle cx="733.8130045358412" cy="47.57887646028394" r="48.08069947779586" fill="#38bdf8" opacity="0.1"/><circle cx="968.376755155532" cy="342.1024856306758" r="46.408282310148934" fill="#38bdf8" opacity="0.1"/><circle cx="534.697196396155" cy="52.76488473500649" r="19.22550976734783" fill="#38bdf8" opacity="0.1"/><circle cx="353.01916601929406" cy="121.21784692571964" r="42.99864419441292" fill="#38bdf8" opacity="0.1"/><circle cx="852.2114247130958" cy="350.5904228764848" r="40.9929232860668" fill="#38bdf8" opacity="0.1"/><circle cx="1148.0979278770974" cy="82.55931239818892" r="32.216006677699625" fill="#38bdf8" opacity="0.1"/><circle cx="356.0062863809435" cy="126.74108374285424" r="25.823850154702086" fill="#38bdf8" opacity="0.1"/><circle cx="902.6227821666907" cy="379.4041594683222" r="37.00564574814052" fill="#38bdf8" opacity="0.1"/><circle cx="547.6499400581815" cy="252.81662435518228" r="43.575601168304274" fill="#38bdf8" opacity="0.1"/><circle cx="854.2750838514621" cy="179.0637323521878" r="18.968298611507635" fill="#38bdf8" opacity="0.1"/><circle cx="1191.330518402765" cy="196.82400832571147" r="21.103219990618527" fill="#38bdf8" opacity="0.1"/><circle cx="1063.3335803264345" cy="254.8208941541816" r="30.000218688837776" fill="#38bdf8" opacity="0.1"/><circle cx="1017.6682464007172" cy="367.09998051410366" r="12.478542076878512" fill="#38bdf8" opacity="0.1"/><circle cx="455.2432401656006" cy="245.27882443071576" r="23.37870949180342" fill="#38bdf8" opacity="0.1"/><circle cx="1090.6470575122512" cy="336.2112327668001" r="45.550499524206316" fill="#38bdf8" opacity="0.1"/><circle cx="757.9614309677709" cy="295.1582434351167" r="49.9028226154951" fill="#38bdf8" opacity="0.1"/><circle cx="28.696431888602092" cy="184.03415880256944" r="15.264511507557472" fill="#38bdf8" opacity="0.1"/>
            <text x="600" y="520" font-family="Segoe UI, Arial, sans-serif" font-size="38" font-weight="800" fill="#ffffff" text-anchor="middle">Implementing Advanced Sticky Navigation Patterns: Balanci...</text>
            <text x="600" y="560" font-family="Segoe UI, Arial, sans-serif" font-size="16" font-weight="600" fill="#38bdf8" text-anchor="middle" style="letter-spacing: 4px; text-transform: uppercase;">UI UX Powerhouse • Specialized Series</text>
        </svg>