<svg width="1200" height="600" viewBox="0 0 1200 600" xmlns="http://www.w3.org/2000/svg">
        <rect width="1200" height="600" fill="#1e1b4b"/><circle cx="780.197446114471" cy="91.0964343474916" r="26.252575135586085" fill="#f43f5e" opacity="0.1"/><circle cx="382.08788960182574" cy="13.05227051852853" r="11.1845238583021" fill="#f43f5e" opacity="0.1"/><circle cx="184.92329644395795" cy="333.2578122088307" r="22.793698545101506" fill="#f43f5e" opacity="0.1"/><circle cx="589.0414615772897" cy="177.5285758312748" r="43.798219789514405" fill="#f43f5e" opacity="0.1"/><circle cx="1075.2829696859408" cy="249.65140766980767" r="33.76182682937724" fill="#f43f5e" opacity="0.1"/><circle cx="796.6785532022186" cy="346.48460915377655" r="13.564972130188835" fill="#f43f5e" opacity="0.1"/><circle cx="297.49240019282297" cy="246.72358662137412" r="49.861480916297296" fill="#f43f5e" opacity="0.1"/><circle cx="16.26239260199327" cy="195.38223516101425" r="17.338428239127097" fill="#f43f5e" opacity="0.1"/><circle cx="17.099134900490753" cy="125.57770675848587" r="28.373944749691873" fill="#f43f5e" opacity="0.1"/><circle cx="997.4202216736558" cy="71.47672976243484" r="33.78909422166544" fill="#f43f5e" opacity="0.1"/><circle cx="955.5176823749207" cy="85.50018342066323" r="29.8951920872787" fill="#f43f5e" opacity="0.1"/><circle cx="344.49074075964745" cy="346.233577201383" r="19.791931340660085" fill="#f43f5e" opacity="0.1"/><circle cx="381.94411441727425" cy="271.538874124235" r="44.11497148917988" fill="#f43f5e" opacity="0.1"/><circle cx="120.4300973116915" cy="289.97744626449276" r="21.772931869600143" fill="#f43f5e" opacity="0.1"/><circle cx="176.23594901451725" cy="312.1635215196875" r="29.332880780766573" fill="#f43f5e" opacity="0.1"/><circle cx="1145.8669691557589" cy="128.7039032926259" r="33.10389613361622" fill="#f43f5e" opacity="0.1"/><circle cx="273.11516898771515" cy="266.1130114829575" r="36.858280228807416" fill="#f43f5e" opacity="0.1"/><circle cx="567.1539527100322" cy="172.63540088606533" r="37.07715242639097" fill="#f43f5e" opacity="0.1"/><circle cx="280.54568414154346" cy="209.70459877662506" r="31.14652818767354" fill="#f43f5e" opacity="0.1"/><circle cx="1049.5451606235292" cy="70.41969382371462" r="47.903117790338" fill="#f43f5e" opacity="0.1"/><circle cx="843.3374405267386" cy="316.56976970389223" r="48.48203764449863" fill="#f43f5e" opacity="0.1"/><circle cx="305.9694062663766" cy="194.8357314846362" r="24.62980361040536" fill="#f43f5e" opacity="0.1"/><circle cx="642.3335782949835" cy="384.7776273280033" r="42.87600215742714" fill="#f43f5e" opacity="0.1"/><circle cx="388.76617653622816" cy="351.77942928130506" r="23.345352704650395" fill="#f43f5e" opacity="0.1"/><circle cx="493.854864264722" cy="63.45389512589463" r="13.681705578892434" fill="#f43f5e" opacity="0.1"/><circle cx="247.89698134409264" cy="99.88662069072234" r="10.787818285243702" fill="#f43f5e" opacity="0.1"/><circle cx="493.7034191629209" cy="201.46737899631262" r="41.36734819847334" fill="#f43f5e" opacity="0.1"/><circle cx="312.15385918403626" cy="197.93003932281863" r="47.40597783238627" fill="#f43f5e" opacity="0.1"/><circle cx="249.20501793576477" cy="70.07848794310121" r="28.201958413919783" fill="#f43f5e" opacity="0.1"/><circle cx="700.5748892050178" cy="330.44618230851484" r="33.26326063099259" fill="#f43f5e" opacity="0.1"/>
        <text x="600" y="520" font-family="Segoe UI, Arial, sans-serif" font-size="38" font-weight="800" fill="#ffffff" text-anchor="middle">Implementing Multi-Channel Progress Indicators for Asynch...</text>
        <text x="600" y="560" font-family="Segoe UI, Arial, sans-serif" font-size="16" font-weight="600" fill="#f43f5e" text-anchor="middle" style="letter-spacing: 4px; text-transform: uppercase;">UI UX Powerhouse • Specialized Series</text>
    </svg>