<svg width="1200" height="600" viewBox="0 0 1200 600" xmlns="http://www.w3.org/2000/svg">
            <rect width="1200" height="600" fill="#1e1b4b"/><circle cx="458.59633409345406" cy="340.24825715059706" r="42.901681419680244" fill="#f43f5e" opacity="0.1"/><circle cx="202.6824759755982" cy="105.61116804274207" r="30.618228731773343" fill="#f43f5e" opacity="0.1"/><circle cx="313.8760002277195" cy="12.615822192674386" r="27.414264645085495" fill="#f43f5e" opacity="0.1"/><circle cx="603.7863436213229" cy="284.67379687863286" r="44.57461434911238" fill="#f43f5e" opacity="0.1"/><circle cx="396.20665586626274" cy="256.0661766487101" r="45.54352009767172" fill="#f43f5e" opacity="0.1"/><circle cx="94.85558149085591" cy="179.3087613042644" r="43.604495431372925" fill="#f43f5e" opacity="0.1"/><circle cx="986.0737669056107" cy="113.82569046381832" r="49.03200625747559" fill="#f43f5e" opacity="0.1"/><circle cx="452.0910667185717" cy="240.28614593771636" r="31.179193422649405" fill="#f43f5e" opacity="0.1"/><circle cx="356.95140504776646" cy="371.5088512006332" r="18.527616499304713" fill="#f43f5e" opacity="0.1"/><circle cx="257.209143007276" cy="375.37553369666057" r="19.421473430520564" fill="#f43f5e" opacity="0.1"/><circle cx="944.872332799423" cy="317.3560891653324" r="36.55629507655249" fill="#f43f5e" opacity="0.1"/><circle cx="967.0662277465453" cy="308.5327472004792" r="41.27463724660629" fill="#f43f5e" opacity="0.1"/><circle cx="687.3975774185965" cy="135.82116934485384" r="21.146057391306385" fill="#f43f5e" opacity="0.1"/><circle cx="91.95416428390217" cy="247.91953328749514" r="25.079725897012395" fill="#f43f5e" opacity="0.1"/><circle cx="180.3968454758433" cy="1.373877370133414" r="49.92780861262872" fill="#f43f5e" opacity="0.1"/><circle cx="955.1534429449816" cy="250.6410042391508" r="21.481520041270414" fill="#f43f5e" opacity="0.1"/><circle cx="496.55289658212496" cy="52.462337281576765" r="19.070567154167293" fill="#f43f5e" opacity="0.1"/><circle cx="472.3855771153467" cy="47.37248838314372" r="27.277699630358256" fill="#f43f5e" opacity="0.1"/><circle cx="638.9592985698982" cy="239.85827798715036" r="20.356810594639683" fill="#f43f5e" opacity="0.1"/><circle cx="68.80941397284914" cy="352.97724902447953" r="30.098797148893937" fill="#f43f5e" opacity="0.1"/><circle cx="343.0432834907833" cy="68.28632232063683" r="16.077812836629164" fill="#f43f5e" opacity="0.1"/><circle cx="769.1083702717151" cy="371.25314587683533" r="14.018667394409476" fill="#f43f5e" opacity="0.1"/><circle cx="193.98367327958113" cy="31.99609322764445" r="43.53780936464318" fill="#f43f5e" opacity="0.1"/><circle cx="763.30968873026" cy="158.51777180068893" r="39.61044419636892" fill="#f43f5e" opacity="0.1"/><circle cx="500.7771874221362" cy="174.52323588240688" r="38.82392596518912" fill="#f43f5e" opacity="0.1"/><circle cx="666.831202692083" cy="224.65575231180992" r="28.035593960812548" fill="#f43f5e" opacity="0.1"/><circle cx="642.2083812918572" cy="104.4048938776541" r="28.117965764249675" fill="#f43f5e" opacity="0.1"/><circle cx="1002.2896041438116" cy="119.6328297765831" r="45.417935260738886" fill="#f43f5e" opacity="0.1"/><circle cx="1194.9061781382625" cy="78.31592169641226" r="30.859650925813185" fill="#f43f5e" opacity="0.1"/><circle cx="1062.6676989078987" cy="215.13662885699887" r="21.550019293572404" fill="#f43f5e" opacity="0.1"/>
            <text x="600" y="520" font-family="Segoe UI, Arial, sans-serif" font-size="38" font-weight="800" fill="#ffffff" text-anchor="middle">Implementing Advanced Data Table Usability Patterns: Enha...</text>
            <text x="600" y="560" font-family="Segoe UI, Arial, sans-serif" font-size="16" font-weight="600" fill="#f43f5e" text-anchor="middle" style="letter-spacing: 4px; text-transform: uppercase;">UI UX Powerhouse • Specialized Series</text>
        </svg>