<svg width="1200" height="600" viewBox="0 0 1200 600" xmlns="http://www.w3.org/2000/svg">
            <rect width="1200" height="600" fill="#0c4a6e"/><path d="M 171.66803484942648 46.225985228375066 L 174.30414732380086 96.22598522837507 L 136.1758786288192 146.22598522837507" stroke="#7dd3fc" fill="none" opacity="0.4"/>
                    <circle cx="171.66803484942648" cy="46.225985228375066" r="3" fill="#f43f5e"/><path d="M 906.3898813885316 263.5775725080748 L 915.9541987005582 313.5775725080748 L 866.2254394521369 363.5775725080748" stroke="#7dd3fc" fill="none" opacity="0.4"/>
                    <circle cx="906.3898813885316" cy="263.5775725080748" r="3" fill="#f43f5e"/><path d="M 559.8748167623853 190.26601976456732 L 535.0972156696116 240.26601976456732 L 598.0181024358899 290.2660197645673" stroke="#7dd3fc" fill="none" opacity="0.4"/>
                    <circle cx="559.8748167623853" cy="190.26601976456732" r="3" fill="#f43f5e"/><path d="M 1180.0647844234845 50.48579592439637 L 1157.8068511680613 100.48579592439637 L 1216.7862920978223 150.48579592439637" stroke="#7dd3fc" fill="none" opacity="0.4"/>
                    <circle cx="1180.0647844234845" cy="50.48579592439637" r="3" fill="#f43f5e"/><path d="M 532.643084051233 307.2942556443195 L 576.3200859822973 357.2942556443195 L 524.6330883950577 407.2942556443195" stroke="#7dd3fc" fill="none" opacity="0.4"/>
                    <circle cx="532.643084051233" cy="307.2942556443195" r="3" fill="#f43f5e"/><path d="M 506.60460553117446 394.91890762815274 L 512.4654641251254 444.91890762815274 L 491.67899469105123 494.91890762815274" stroke="#7dd3fc" fill="none" opacity="0.4"/>
                    <circle cx="506.60460553117446" cy="394.91890762815274" r="3" fill="#f43f5e"/><path d="M 135.39685510368145 168.84854233139777 L 124.39390910585644 218.84854233139777 L 147.10574147138686 268.84854233139777" stroke="#7dd3fc" fill="none" opacity="0.4"/>
                    <circle cx="135.39685510368145" cy="168.84854233139777" r="3" fill="#f43f5e"/><path d="M 1157.8003067603277 37.99883379833773 L 1179.2970044762114 87.99883379833773 L 1206.2485107376915 137.99883379833773" stroke="#7dd3fc" fill="none" opacity="0.4"/>
                    <circle cx="1157.8003067603277" cy="37.99883379833773" r="3" fill="#f43f5e"/><path d="M 418.5103217692813 397.0994734976557 L 466.47543607987245 447.0994734976557 L 383.11984853216927 497.0994734976557" stroke="#7dd3fc" fill="none" opacity="0.4"/>
                    <circle cx="418.5103217692813" cy="397.0994734976557" r="3" fill="#f43f5e"/><path d="M 29.668748264521128 358.90379031661723 L -18.67775255414017 408.90379031661723 L 37.29520113320177 458.90379031661723" stroke="#7dd3fc" fill="none" opacity="0.4"/>
                    <circle cx="29.668748264521128" cy="358.90379031661723" r="3" fill="#f43f5e"/>
            <text x="600" y="520" font-family="Segoe UI, Arial, sans-serif" font-size="38" font-weight="800" fill="#ffffff" text-anchor="middle">Implementing Data-Driven Personas using Machine Learning ...</text>
            <text x="600" y="560" font-family="Segoe UI, Arial, sans-serif" font-size="16" font-weight="600" fill="#7dd3fc" text-anchor="middle" style="letter-spacing: 4px; text-transform: uppercase;">UI UX Powerhouse • Specialized Series</text>
        </svg>