<svg width="1200" height="600" viewBox="0 0 1200 600" xmlns="http://www.w3.org/2000/svg">
        <rect width="1200" height="600" fill="#111827"/><circle cx="344.4501284319813" cy="326.2125931429182" r="38.818014665012015" fill="#10b981" opacity="0.1"/><circle cx="978.510961640859" cy="311.2647922906888" r="42.843790279985114" fill="#10b981" opacity="0.1"/><circle cx="2.552926945281797" cy="139.12447403199621" r="49.98535042252115" fill="#10b981" opacity="0.1"/><circle cx="788.7313829960476" cy="177.06621696124785" r="47.383984045482066" fill="#10b981" opacity="0.1"/><circle cx="957.6615577214397" cy="363.15869813552126" r="22.970019788335776" fill="#10b981" opacity="0.1"/><circle cx="1140.5029042027309" cy="140.74375583368237" r="49.76352118879731" fill="#10b981" opacity="0.1"/><circle cx="1154.3966625715711" cy="392.66767740373325" r="17.22368110276875" fill="#10b981" opacity="0.1"/><circle cx="148.01680441669305" cy="87.66388517760788" r="28.800642241039895" fill="#10b981" opacity="0.1"/><circle cx="1195.7924986629223" cy="19.493268812220776" r="11.403355392831145" fill="#10b981" opacity="0.1"/><circle cx="578.3270780710154" cy="332.54141177385463" r="42.35283070600417" fill="#10b981" opacity="0.1"/><circle cx="533.5931562258338" cy="76.1374177345715" r="23.751668292534305" fill="#10b981" opacity="0.1"/><circle cx="164.4578124229156" cy="252.2708997961672" r="47.66201539179747" fill="#10b981" opacity="0.1"/><circle cx="681.6190414340781" cy="348.5457708891772" r="27.558657766276156" fill="#10b981" opacity="0.1"/><circle cx="682.9290398069134" cy="233.06008530738893" r="39.492758241904085" fill="#10b981" opacity="0.1"/><circle cx="998.0982725741342" cy="66.91468972567236" r="22.32557673849442" fill="#10b981" opacity="0.1"/><circle cx="827.5633522527642" cy="350.5051535777966" r="20.79803366741544" fill="#10b981" opacity="0.1"/><circle cx="673.7768800172489" cy="187.9559964292639" r="48.4347489738866" fill="#10b981" opacity="0.1"/><circle cx="460.2194510815025" cy="302.2394126619474" r="18.417440171397175" fill="#10b981" opacity="0.1"/><circle cx="287.0895274794748" cy="95.1334967476214" r="22.916249638365116" fill="#10b981" opacity="0.1"/><circle cx="938.622335330183" cy="228.73760356178536" r="14.469507891553803" fill="#10b981" opacity="0.1"/><circle cx="1120.3281326052092" cy="15.747529671989469" r="42.90002148733038" fill="#10b981" opacity="0.1"/><circle cx="1164.3915310531156" cy="342.5416648351529" r="30.078285255840456" fill="#10b981" opacity="0.1"/><circle cx="372.31726973332115" cy="86.55981950068963" r="43.937914534981246" fill="#10b981" opacity="0.1"/><circle cx="552.1409961231257" cy="315.084609736914" r="14.607144855472143" fill="#10b981" opacity="0.1"/><circle cx="954.2407428183651" cy="150.54368574928958" r="30.285283302237076" fill="#10b981" opacity="0.1"/><circle cx="842.2292081966589" cy="314.51816304288513" r="43.09807694298797" fill="#10b981" opacity="0.1"/><circle cx="498.2529509215965" cy="15.587649997178232" r="11.196539024531376" fill="#10b981" opacity="0.1"/><circle cx="434.09629981106264" cy="37.387404477885866" r="49.548295294735" fill="#10b981" opacity="0.1"/><circle cx="232.3997801708174" cy="119.3230022166972" r="25.941759141423972" fill="#10b981" opacity="0.1"/><circle cx="890.3097723126848" cy="311.39029212936293" r="45.559399315097835" fill="#10b981" opacity="0.1"/>
        <text x="600" y="520" font-family="Segoe UI, Arial, sans-serif" font-size="38" font-weight="800" fill="#ffffff" text-anchor="middle">Implementing Contextual AI-driven Personalization in E-co...</text>
        <text x="600" y="560" font-family="Segoe UI, Arial, sans-serif" font-size="16" font-weight="600" fill="#10b981" text-anchor="middle" style="letter-spacing: 4px; text-transform: uppercase;">UI UX Powerhouse • Specialized Series</text>
    </svg>