<svg width="1200" height="600" viewBox="0 0 1200 600" xmlns="http://www.w3.org/2000/svg">
        <rect width="1200" height="600" fill="#0f172a"/><path d="M 190.24138964305166 203.54245195921976 L 187.14160031522624 253.54245195921976 L 183.55006584761213 303.54245195921976" stroke="#38bdf8" fill="none" opacity="0.4"/>
                    <circle cx="190.24138964305166" cy="203.54245195921976" r="3" fill="#f472b6"/><path d="M 825.14138805127 272.71401560792583 L 835.5037946672383 322.71401560792583 L 823.3026409306149 372.71401560792583" stroke="#38bdf8" fill="none" opacity="0.4"/>
                    <circle cx="825.14138805127" cy="272.71401560792583" r="3" fill="#f472b6"/><path d="M 1041.924541473054 286.1461882646836 L 1005.3923997846141 336.1461882646836 L 1016.0862253101186 386.1461882646836" stroke="#38bdf8" fill="none" opacity="0.4"/>
                    <circle cx="1041.924541473054" cy="286.1461882646836" r="3" fill="#f472b6"/><path d="M 753.1927191444993 228.00322878465522 L 764.5961213370356 278.0032287846552 L 725.2448054798151 328.0032287846552" stroke="#38bdf8" fill="none" opacity="0.4"/>
                    <circle cx="753.1927191444993" cy="228.00322878465522" r="3" fill="#f472b6"/><path d="M 527.4548058077926 164.716899981795 L 517.4267124119979 214.716899981795 L 542.287034580022 264.716899981795" stroke="#38bdf8" fill="none" opacity="0.4"/>
                    <circle cx="527.4548058077926" cy="164.716899981795" r="3" fill="#f472b6"/><path d="M 577.1842054011358 369.12189075228525 L 539.2753867445208 419.12189075228525 L 607.6458064741018 469.12189075228525" stroke="#38bdf8" fill="none" opacity="0.4"/>
                    <circle cx="577.1842054011358" cy="369.12189075228525" r="3" fill="#f472b6"/><path d="M 173.0342131391808 140.16718874991057 L 216.15783261581782 190.16718874991057 L 170.24515182056348 240.16718874991057" stroke="#38bdf8" fill="none" opacity="0.4"/>
                    <circle cx="173.0342131391808" cy="140.16718874991057" r="3" fill="#f472b6"/><path d="M 864.6994046681357 255.10984212996846 L 846.1302992290257 305.10984212996846 L 897.968489691857 355.10984212996846" stroke="#38bdf8" fill="none" opacity="0.4"/>
                    <circle cx="864.6994046681357" cy="255.10984212996846" r="3" fill="#f472b6"/><path d="M 440.5375766342331 172.36814700081595 L 400.70391108963577 222.36814700081595 L 490.4856046034183 272.36814700081595" stroke="#38bdf8" fill="none" opacity="0.4"/>
                    <circle cx="440.5375766342331" cy="172.36814700081595" r="3" fill="#f472b6"/><path d="M 22.54450340187759 51.83950214122888 L 30.69019139093143 101.83950214122888 L 59.0588329532693 151.83950214122888" stroke="#38bdf8" fill="none" opacity="0.4"/>
                    <circle cx="22.54450340187759" cy="51.83950214122888" r="3" fill="#f472b6"/>
        <text x="600" y="520" font-family="Segoe UI, Arial, sans-serif" font-size="38" font-weight="800" fill="#ffffff" text-anchor="middle">Implementing Advanced Contextual Help Systems in Complex ...</text>
        <text x="600" y="560" font-family="Segoe UI, Arial, sans-serif" font-size="16" font-weight="600" fill="#38bdf8" text-anchor="middle" style="letter-spacing: 4px; text-transform: uppercase;">UI UX Powerhouse • Specialized Series</text>
    </svg>