<svg width="1200" height="600" viewBox="0 0 1200 600" xmlns="http://www.w3.org/2000/svg">
        <rect width="1200" height="600" fill="#2e1065"/><path d="M 18.11585000107243 223.75868250114763 L 40.647575597563446 273.75868250114763 L -31.80279950036038 323.75868250114763" stroke="#d8b4fe" fill="none" opacity="0.4"/>
                    <circle cx="18.11585000107243" cy="223.75868250114763" r="3" fill="#4ade80"/><path d="M 1178.219373839238 87.35041931795422 L 1174.0786075761207 137.35041931795422 L 1214.8724510652755 187.35041931795422" stroke="#d8b4fe" fill="none" opacity="0.4"/>
                    <circle cx="1178.219373839238" cy="87.35041931795422" r="3" fill="#4ade80"/><path d="M 1063.1455646236645 154.83124406309798 L 1084.2310928803272 204.83124406309798 L 1033.1129634420904 254.83124406309798" stroke="#d8b4fe" fill="none" opacity="0.4"/>
                    <circle cx="1063.1455646236645" cy="154.83124406309798" r="3" fill="#4ade80"/><path d="M 436.7483630448987 40.18824640988896 L 424.5988482442044 90.18824640988896 L 410.9774255875891 140.18824640988896" stroke="#d8b4fe" fill="none" opacity="0.4"/>
                    <circle cx="436.7483630448987" cy="40.18824640988896" r="3" fill="#4ade80"/><path d="M 624.9156405807298 120.94909771658422 L 663.9952709114368 170.94909771658422 L 587.239932562261 220.94909771658422" stroke="#d8b4fe" fill="none" opacity="0.4"/>
                    <circle cx="624.9156405807298" cy="120.94909771658422" r="3" fill="#4ade80"/><path d="M 566.0014557102841 256.1458565360226 L 613.9734247612068 306.1458565360226 L 614.2379065463501 356.1458565360226" stroke="#d8b4fe" fill="none" opacity="0.4"/>
                    <circle cx="566.0014557102841" cy="256.1458565360226" r="3" fill="#4ade80"/><path d="M 986.2813162206294 300.0093023321824 L 1004.7196369492667 350.0093023321824 L 1016.9019096209922 400.0093023321824" stroke="#d8b4fe" fill="none" opacity="0.4"/>
                    <circle cx="986.2813162206294" cy="300.0093023321824" r="3" fill="#4ade80"/><path d="M 377.29149154693005 243.11208812614495 L 424.7626085247248 293.11208812614495 L 338.84311684460044 343.11208812614495" stroke="#d8b4fe" fill="none" opacity="0.4"/>
                    <circle cx="377.29149154693005" cy="243.11208812614495" r="3" fill="#4ade80"/><path d="M 434.5786401954683 72.79467923872289 L 412.4908467596697 122.79467923872289 L 452.1209877188994 172.7946792387229" stroke="#d8b4fe" fill="none" opacity="0.4"/>
                    <circle cx="434.5786401954683" cy="72.79467923872289" r="3" fill="#4ade80"/><path d="M 516.1796065478484 26.444511233603407 L 498.8982415306964 76.44451123360341 L 528.3375260130924 126.44451123360341" stroke="#d8b4fe" fill="none" opacity="0.4"/>
                    <circle cx="516.1796065478484" cy="26.444511233603407" r="3" fill="#4ade80"/>
        <text x="600" y="520" font-family="Segoe UI, Arial, sans-serif" font-size="38" font-weight="800" fill="#ffffff" text-anchor="middle">Implementing Context-Aware Tooltips in Complex Dashboards...</text>
        <text x="600" y="560" font-family="Segoe UI, Arial, sans-serif" font-size="16" font-weight="600" fill="#d8b4fe" text-anchor="middle" style="letter-spacing: 4px; text-transform: uppercase;">UI UX Powerhouse • Specialized Series</text>
    </svg>