<svg width="1200" height="600" viewBox="0 0 1200 600" xmlns="http://www.w3.org/2000/svg">
        <rect width="1200" height="600" fill="#0c4a6e"/><path d="M 885.5207121087005 75.29702058527619 L 927.5352107886647 125.29702058527619 L 883.2737724873368 175.2970205852762" stroke="#7dd3fc" fill="none" opacity="0.4"/>
                    <circle cx="885.5207121087005" cy="75.29702058527619" r="3" fill="#f43f5e"/><path d="M 336.17085482965194 11.101029198835022 L 299.12088079190653 61.10102919883502 L 293.1468007539479 111.10102919883502" stroke="#7dd3fc" fill="none" opacity="0.4"/>
                    <circle cx="336.17085482965194" cy="11.101029198835022" r="3" fill="#f43f5e"/><path d="M 1022.1469300221543 378.7155882760999 L 1034.0769678591187 428.7155882760999 L 1062.412507001227 478.7155882760999" stroke="#7dd3fc" fill="none" opacity="0.4"/>
                    <circle cx="1022.1469300221543" cy="378.7155882760999" r="3" fill="#f43f5e"/><path d="M 209.25130280593294 150.2096135445754 L 164.7733162761142 200.2096135445754 L 221.91774300245015 250.2096135445754" stroke="#7dd3fc" fill="none" opacity="0.4"/>
                    <circle cx="209.25130280593294" cy="150.2096135445754" r="3" fill="#f43f5e"/><path d="M 584.2206031404203 97.1360968404042 L 564.3321441262742 147.1360968404042 L 550.2836882412339 197.1360968404042" stroke="#7dd3fc" fill="none" opacity="0.4"/>
                    <circle cx="584.2206031404203" cy="97.1360968404042" r="3" fill="#f43f5e"/><path d="M 564.9616110613351 206.2616724972031 L 555.7474745769923 256.2616724972031 L 581.3275582429924 306.2616724972031" stroke="#7dd3fc" fill="none" opacity="0.4"/>
                    <circle cx="564.9616110613351" cy="206.2616724972031" r="3" fill="#f43f5e"/><path d="M 200.61888249765616 289.46618417739955 L 202.80308821279505 339.46618417739955 L 242.97782848334464 389.46618417739955" stroke="#7dd3fc" fill="none" opacity="0.4"/>
                    <circle cx="200.61888249765616" cy="289.46618417739955" r="3" fill="#f43f5e"/><path d="M 202.66304944379954 51.73081060347613 L 216.22596709821664 101.73081060347613 L 179.52299372736888 151.73081060347613" stroke="#7dd3fc" fill="none" opacity="0.4"/>
                    <circle cx="202.66304944379954" cy="51.73081060347613" r="3" fill="#f43f5e"/><path d="M 382.54701322985056 124.5079079887546 L 415.05160710030395 174.5079079887546 L 426.9905426956029 224.5079079887546" stroke="#7dd3fc" fill="none" opacity="0.4"/>
                    <circle cx="382.54701322985056" cy="124.5079079887546" r="3" fill="#f43f5e"/><path d="M 130.38832865422592 293.32446974701725 L 153.6034885677509 343.32446974701725 L 88.73606529814424 393.32446974701725" stroke="#7dd3fc" fill="none" opacity="0.4"/>
                    <circle cx="130.38832865422592" cy="293.32446974701725" r="3" fill="#f43f5e"/>
        <text x="600" y="520" font-family="Segoe UI, Arial, sans-serif" font-size="38" font-weight="800" fill="#ffffff" text-anchor="middle">Implementing Adaptive User Interfaces for Real-Time Data ...</text>
        <text x="600" y="560" font-family="Segoe UI, Arial, sans-serif" font-size="16" font-weight="600" fill="#7dd3fc" text-anchor="middle" style="letter-spacing: 4px; text-transform: uppercase;">UI UX Powerhouse • Specialized Series</text>
    </svg>