<svg width="1200" height="600" viewBox="0 0 1200 600" xmlns="http://www.w3.org/2000/svg">
        <rect width="1200" height="600" fill="#0c4a6e"/><path d="M 38.77669098087608 106.29639568942366 L -2.1047043997441506 156.29639568942366 L -3.1810053233584767 206.29639568942366" stroke="#7dd3fc" fill="none" opacity="0.4"/>
                    <circle cx="38.77669098087608" cy="106.29639568942366" r="3" fill="#f43f5e"/><path d="M 976.9821474306809 43.148347087117145 L 944.8338013835382 93.14834708711714 L 970.8442165661836 143.14834708711714" stroke="#7dd3fc" fill="none" opacity="0.4"/>
                    <circle cx="976.9821474306809" cy="43.148347087117145" r="3" fill="#f43f5e"/><path d="M 897.3353245841281 242.71758492759545 L 897.3042244239878 292.71758492759545 L 912.8255084594002 342.71758492759545" stroke="#7dd3fc" fill="none" opacity="0.4"/>
                    <circle cx="897.3353245841281" cy="242.71758492759545" r="3" fill="#f43f5e"/><path d="M 940.3883397626487 326.77762855055335 L 903.672551505224 376.77762855055335 L 975.9570272453857 426.77762855055335" stroke="#7dd3fc" fill="none" opacity="0.4"/>
                    <circle cx="940.3883397626487" cy="326.77762855055335" r="3" fill="#f43f5e"/><path d="M 99.77941911656671 290.2238767786912 L 82.21732790493661 340.2238767786912 L 118.19839518047957 390.2238767786912" stroke="#7dd3fc" fill="none" opacity="0.4"/>
                    <circle cx="99.77941911656671" cy="290.2238767786912" r="3" fill="#f43f5e"/><path d="M 549.7209667802963 148.6479060818965 L 541.1226574724083 198.6479060818965 L 562.6804451807402 248.6479060818965" stroke="#7dd3fc" fill="none" opacity="0.4"/>
                    <circle cx="549.7209667802963" cy="148.6479060818965" r="3" fill="#f43f5e"/><path d="M 459.204694096843 165.39147835210315 L 416.2527824726567 215.39147835210315 L 488.34475229596137 265.39147835210315" stroke="#7dd3fc" fill="none" opacity="0.4"/>
                    <circle cx="459.204694096843" cy="165.39147835210315" r="3" fill="#f43f5e"/><path d="M 1101.431720997789 270.5140426180151 L 1149.7648146524625 320.5140426180151 L 1084.84253483457 370.5140426180151" stroke="#7dd3fc" fill="none" opacity="0.4"/>
                    <circle cx="1101.431720997789" cy="270.5140426180151" r="3" fill="#f43f5e"/><path d="M 843.4051564366655 339.5930659626174 L 849.8884136721699 389.5930659626174 L 891.3549119887193 439.5930659626174" stroke="#7dd3fc" fill="none" opacity="0.4"/>
                    <circle cx="843.4051564366655" cy="339.5930659626174" r="3" fill="#f43f5e"/><path d="M 760.7384214294143 234.47587550363096 L 740.4344271822993 284.47587550363096 L 760.4101219971199 334.47587550363096" stroke="#7dd3fc" fill="none" opacity="0.4"/>
                    <circle cx="760.7384214294143" cy="234.47587550363096" r="3" fill="#f43f5e"/>
        <text x="600" y="520" font-family="Segoe UI, Arial, sans-serif" font-size="38" font-weight="800" fill="#ffffff" text-anchor="middle">Implementing Advanced Gesture-Based Navigation Patterns f...</text>
        <text x="600" y="560" font-family="Segoe UI, Arial, sans-serif" font-size="16" font-weight="600" fill="#7dd3fc" text-anchor="middle" style="letter-spacing: 4px; text-transform: uppercase;">UI UX Powerhouse • Specialized Series</text>
    </svg>