<svg width="1200" height="600" viewBox="0 0 1200 600" xmlns="http://www.w3.org/2000/svg">
            <rect width="1200" height="600" fill="#111827"/><path d="M 117.67216631997144 147.16241684327542 L 135.80964840821252 197.16241684327542 L 99.08650982697509 247.16241684327542" stroke="#10b981" fill="none" opacity="0.4"/>
                    <circle cx="117.67216631997144" cy="147.16241684327542" r="3" fill="#fbbf24"/><path d="M 196.9431247714965 243.2577807296184 L 211.16658933406143 293.2577807296184 L 189.26687764742383 343.2577807296184" stroke="#10b981" fill="none" opacity="0.4"/>
                    <circle cx="196.9431247714965" cy="243.2577807296184" r="3" fill="#fbbf24"/><path d="M 816.0490867259796 282.9748947318876 L 865.159908021451 332.9748947318876 L 786.499013953744 382.9748947318876" stroke="#10b981" fill="none" opacity="0.4"/>
                    <circle cx="816.0490867259796" cy="282.9748947318876" r="3" fill="#fbbf24"/><path d="M 510.6569145405956 301.3799882712192 L 522.6967434811286 351.3799882712192 L 517.0329487069466 401.3799882712192" stroke="#10b981" fill="none" opacity="0.4"/>
                    <circle cx="510.6569145405956" cy="301.3799882712192" r="3" fill="#fbbf24"/><path d="M 604.0866478200769 22.704102237548796 L 644.3319793270348 72.7041022375488 L 642.9543583131817 122.7041022375488" stroke="#10b981" fill="none" opacity="0.4"/>
                    <circle cx="604.0866478200769" cy="22.704102237548796" r="3" fill="#fbbf24"/><path d="M 521.3265981255972 261.61694526950043 L 473.59605309693507 311.61694526950043 L 486.6255151813675 361.61694526950043" stroke="#10b981" fill="none" opacity="0.4"/>
                    <circle cx="521.3265981255972" cy="261.61694526950043" r="3" fill="#fbbf24"/><path d="M 815.7587684887403 298.80271343026834 L 795.2497933422478 348.80271343026834 L 798.1963423704656 398.80271343026834" stroke="#10b981" fill="none" opacity="0.4"/>
                    <circle cx="815.7587684887403" cy="298.80271343026834" r="3" fill="#fbbf24"/><path d="M 723.0670366880076 394.1876096680062 L 673.9709183222658 444.1876096680062 L 742.718469274314 494.1876096680062" stroke="#10b981" fill="none" opacity="0.4"/>
                    <circle cx="723.0670366880076" cy="394.1876096680062" r="3" fill="#fbbf24"/><path d="M 360.76463980680273 49.77847800182644 L 337.38700250560214 99.77847800182644 L 385.15436689722264 149.77847800182644" stroke="#10b981" fill="none" opacity="0.4"/>
                    <circle cx="360.76463980680273" cy="49.77847800182644" r="3" fill="#fbbf24"/><path d="M 1002.3594977305038 165.09352390694403 L 1032.9536283707512 215.09352390694403 L 978.6093152600529 265.09352390694403" stroke="#10b981" fill="none" opacity="0.4"/>
                    <circle cx="1002.3594977305038" cy="165.09352390694403" r="3" fill="#fbbf24"/>
            <text x="600" y="520" font-family="Segoe UI, Arial, sans-serif" font-size="38" font-weight="800" fill="#ffffff" text-anchor="middle">Implementing Progressive Enhancement Strategies for AR-En...</text>
            <text x="600" y="560" font-family="Segoe UI, Arial, sans-serif" font-size="16" font-weight="600" fill="#10b981" text-anchor="middle" style="letter-spacing: 4px; text-transform: uppercase;">UI UX Powerhouse • Specialized Series</text>
        </svg>