<svg width="1200" height="600" viewBox="0 0 1200 600" xmlns="http://www.w3.org/2000/svg">
            <rect width="1200" height="600" fill="#111827"/><circle cx="661.2205196077412" cy="358.3786020273692" r="41.7459292436979" fill="#10b981" opacity="0.1"/><circle cx="248.42483833526785" cy="324.04534605593653" r="47.92924317776851" fill="#10b981" opacity="0.1"/><circle cx="802.7094612181827" cy="191.88751806505024" r="22.959330250669154" fill="#10b981" opacity="0.1"/><circle cx="55.261154000254464" cy="262.7936582262919" r="29.52176721257274" fill="#10b981" opacity="0.1"/><circle cx="263.71603680690896" cy="121.23616055687307" r="49.41908701999637" fill="#10b981" opacity="0.1"/><circle cx="842.4001257255441" cy="396.55821163469227" r="18.762056907053193" fill="#10b981" opacity="0.1"/><circle cx="270.9410511135502" cy="377.64997046106146" r="32.37279783170379" fill="#10b981" opacity="0.1"/><circle cx="819.0126282876008" cy="387.49149079230847" r="14.799913894603378" fill="#10b981" opacity="0.1"/><circle cx="1167.2184102575557" cy="240.86577373745968" r="20.53253941983712" fill="#10b981" opacity="0.1"/><circle cx="477.5959894805055" cy="324.63268144856556" r="38.191992277315876" fill="#10b981" opacity="0.1"/><circle cx="616.5814979493916" cy="120.52898288175129" r="35.93198938964633" fill="#10b981" opacity="0.1"/><circle cx="551.6746691944718" cy="282.2967763910128" r="21.87827200144966" fill="#10b981" opacity="0.1"/><circle cx="747.9583277778147" cy="124.05047224383452" r="14.957604324581553" fill="#10b981" opacity="0.1"/><circle cx="774.7381422712351" cy="59.67967831820715" r="32.762485018774896" fill="#10b981" opacity="0.1"/><circle cx="15.04444193415111" cy="213.91588383739872" r="25.42597850537277" fill="#10b981" opacity="0.1"/><circle cx="861.1069876169495" cy="123.78652705870081" r="16.22711244803213" fill="#10b981" opacity="0.1"/><circle cx="1133.36866386162" cy="9.386831505980808" r="36.620365752517046" fill="#10b981" opacity="0.1"/><circle cx="794.9828422923929" cy="387.5626253608061" r="31.72392326661793" fill="#10b981" opacity="0.1"/><circle cx="1115.4659930965863" cy="258.2340705743263" r="45.26616377806931" fill="#10b981" opacity="0.1"/><circle cx="1071.8811127761" cy="207.87033219205568" r="34.332002750379615" fill="#10b981" opacity="0.1"/><circle cx="234.25621921851416" cy="163.3170102191798" r="47.662855439548366" fill="#10b981" opacity="0.1"/><circle cx="96.90921030924073" cy="303.88194403785747" r="33.93602233652928" fill="#10b981" opacity="0.1"/><circle cx="555.2313350616714" cy="89.2887282450829" r="28.96461541451572" fill="#10b981" opacity="0.1"/><circle cx="5.648711168396403" cy="207.7377031204378" r="15.38032586373447" fill="#10b981" opacity="0.1"/><circle cx="649.5228969040909" cy="152.0901075688016" r="17.405380683703697" fill="#10b981" opacity="0.1"/><circle cx="822.9150181163277" cy="234.59201801597374" r="47.14258465475723" fill="#10b981" opacity="0.1"/><circle cx="1053.4337941289778" cy="220.8778457515109" r="41.21074322498316" fill="#10b981" opacity="0.1"/><circle cx="965.3858309648058" cy="286.3979474910593" r="13.512510796936112" fill="#10b981" opacity="0.1"/><circle cx="386.82142092484355" cy="132.25653448007506" r="33.883718686920474" fill="#10b981" opacity="0.1"/><circle cx="854.5007874978182" cy="279.70313434016134" r="19.50462093189799" fill="#10b981" opacity="0.1"/>
            <text x="600" y="520" font-family="Segoe UI, Arial, sans-serif" font-size="38" font-weight="800" fill="#ffffff" text-anchor="middle">Implementing Advanced Data Visualization Techniques for C...</text>
            <text x="600" y="560" font-family="Segoe UI, Arial, sans-serif" font-size="16" font-weight="600" fill="#10b981" text-anchor="middle" style="letter-spacing: 4px; text-transform: uppercase;">UI UX Powerhouse • Specialized Series</text>
        </svg>