<svg width="1200" height="600" viewBox="0 0 1200 600" xmlns="http://www.w3.org/2000/svg">
            <rect width="1200" height="600" fill="#2e1065"/><rect x="150" y="140.86090894452354" width="60" height="209.13909105547646" fill="#d8b4fe" opacity="0.6"/>
                    <rect x="170" y="120.86090894452354" width="60" height="209.13909105547646" fill="#a855f7" opacity="0.4" transform="skewY(-20)"/><rect x="270" y="153.55765466501907" width="60" height="196.44234533498093" fill="#d8b4fe" opacity="0.6"/>
                    <rect x="290" y="133.55765466501907" width="60" height="196.44234533498093" fill="#a855f7" opacity="0.4" transform="skewY(-20)"/><rect x="390" y="266.0157261272616" width="60" height="83.98427387273841" fill="#d8b4fe" opacity="0.6"/>
                    <rect x="410" y="246.0157261272616" width="60" height="83.98427387273841" fill="#a855f7" opacity="0.4" transform="skewY(-20)"/><rect x="510" y="251.1176546842762" width="60" height="98.8823453157238" fill="#d8b4fe" opacity="0.6"/>
                    <rect x="530" y="231.1176546842762" width="60" height="98.8823453157238" fill="#a855f7" opacity="0.4" transform="skewY(-20)"/><rect x="630" y="239.99625654796546" width="60" height="110.00374345203454" fill="#d8b4fe" opacity="0.6"/>
                    <rect x="650" y="219.99625654796546" width="60" height="110.00374345203454" fill="#a855f7" opacity="0.4" transform="skewY(-20)"/><rect x="750" y="164.15448899988405" width="60" height="185.84551100011595" fill="#d8b4fe" opacity="0.6"/>
                    <rect x="770" y="144.15448899988405" width="60" height="185.84551100011595" fill="#a855f7" opacity="0.4" transform="skewY(-20)"/><rect x="870" y="273.5335101458986" width="60" height="76.46648985410138" fill="#d8b4fe" opacity="0.6"/>
                    <rect x="890" y="253.53351014589862" width="60" height="76.46648985410138" fill="#a855f7" opacity="0.4" transform="skewY(-20)"/><rect x="990" y="248.56720230163774" width="60" height="101.43279769836226" fill="#d8b4fe" opacity="0.6"/>
                    <rect x="1010" y="228.56720230163774" width="60" height="101.43279769836226" fill="#a855f7" opacity="0.4" transform="skewY(-20)"/>
            <text x="600" y="520" font-family="Segoe UI, Arial, sans-serif" font-size="38" font-weight="800" fill="#ffffff" text-anchor="middle">Implementing Context-Aware Tooltips with Intersection Obs...</text>
            <text x="600" y="560" font-family="Segoe UI, Arial, sans-serif" font-size="16" font-weight="600" fill="#d8b4fe" text-anchor="middle" style="letter-spacing: 4px; text-transform: uppercase;">UI UX Powerhouse • Specialized Series</text>
        </svg>