<?xml version="1.0" encoding="UTF-8"?>
<svg width="1200" height="600" xmlns="http://www.w3.org/2000/svg">
  <defs>
    <linearGradient id="bg" x1="0%" y1="0%" x2="100%" y2="100%">
      <stop offset="0%" style="stop-color:#43e97b;stop-opacity:1"/>
      <stop offset="100%" style="stop-color:#38f9d7;stop-opacity:1"/>
    </linearGradient>
  </defs>
  <rect width="1200" height="600" fill="url(#bg)"/>
  
  <!-- Mobile device -->
  <rect x="450" y="100" width="300" height="420" rx="30" fill="#2c3e50"/>
  <rect x="470" y="140" width="260" height="340" fill="#ffffff"/>
  <circle cx="600" cy="500" r="15" fill="#34495e"/>
  <rect x="560" y="115" width="80" height="15" rx="8" fill="#34495e"/>
  
  <!-- PWA Icon -->
  <rect x="490" y="160" width="80" height="80" rx="16" fill="#667eea"/>
  <text x="530" y="215" font-family="Arial" font-size="48" font-weight="bold" fill="#ffffff">P</text>
  
  <!-- App features -->
  <rect x="590" y="160" width="140" height="20" rx="4" fill="#f5f5f5"/>
  <rect x="590" y="190" width="100" height="15" rx="3" fill="#e8e8e8"/>
  <rect x="590" y="215" width="120" height="15" rx="3" fill="#e8e8e8"/>
  
  <!-- Notification -->
  <rect x="490" y="260" width="220" height="60" rx="8" fill="#f093fb" opacity="0.9"/>
  <circle cx="510" cy="280" r="8" fill="#ffffff"/>
  <rect x="530" y="270" width="160" height="8" rx="2" fill="#ffffff"/>
  <rect x="530" y="290" width="120" height="6" rx="2" fill="#ffffff" opacity="0.7"/>
  
  <!-- Offline icon -->
  <g transform="translate(600, 380)">
    <circle cx="0" cy="0" r="40" fill="#43e97b"/>
    <path d="M -15 -8 L 0 8 L 15 -8" fill="none" stroke="#ffffff" stroke-width="4" stroke-linecap="round" stroke-linejoin="round"/>
    <line x1="0" y1="8" x2="0" y2="15" stroke="#ffffff" stroke-width="4" stroke-linecap="round"/>
  </g>
  
  <!-- Service Worker arrows -->
  <g transform="translate(350, 300)">
    <circle cx="0" cy="0" r="50" fill="#ffffff" opacity="0.3"/>
    <path d="M -10 -15 L 10 0 L -10 15" fill="#ffffff"/>
  </g>
  
  <g transform="translate(850, 300)">
    <circle cx="0" cy="0" r="50" fill="#ffffff" opacity="0.3"/>
    <path d="M 10 -15 L -10 0 L 10 15" fill="#ffffff"/>
  </g>
  
  <text x="600" y="70" font-family="Arial" font-size="30" font-weight="bold" 
        fill="#ffffff" text-anchor="middle">Implementing Advanced Gesture Recognition Patterns for En...</text>
</svg>