<svg width="1200" height="600" viewBox="0 0 1200 600" xmlns="http://www.w3.org/2000/svg">
            <rect width="1200" height="600" fill="#2e1065"/><circle cx="507.9421624504903" cy="133.6184156498348" r="10.258435477298917" fill="#d8b4fe" opacity="0.1"/><circle cx="636.487447624333" cy="366.37007674698907" r="42.063898602937115" fill="#d8b4fe" opacity="0.1"/><circle cx="544.3002089390774" cy="211.86887926305644" r="11.786290913150879" fill="#d8b4fe" opacity="0.1"/><circle cx="286.39528052981404" cy="207.09779767057626" r="43.73620634811232" fill="#d8b4fe" opacity="0.1"/><circle cx="298.9832442228362" cy="28.82788324586727" r="26.181700619126786" fill="#d8b4fe" opacity="0.1"/><circle cx="761.1574424496212" cy="264.1172248091607" r="23.52526452163147" fill="#d8b4fe" opacity="0.1"/><circle cx="889.8272447804629" cy="236.53261645195016" r="34.81250109758548" fill="#d8b4fe" opacity="0.1"/><circle cx="38.01802140515065" cy="29.83377512800871" r="40.08550350095902" fill="#d8b4fe" opacity="0.1"/><circle cx="997.2180648841459" cy="336.4582035552303" r="29.522494269913295" fill="#d8b4fe" opacity="0.1"/><circle cx="317.45882717950735" cy="319.54210515068553" r="12.249390281231172" fill="#d8b4fe" opacity="0.1"/><circle cx="584.2620092757898" cy="253.14832181684324" r="31.01109617316979" fill="#d8b4fe" opacity="0.1"/><circle cx="816.5523221248804" cy="255.60673589352518" r="29.097103567473823" fill="#d8b4fe" opacity="0.1"/><circle cx="645.3600227414427" cy="278.46802992025914" r="19.112639072736783" fill="#d8b4fe" opacity="0.1"/><circle cx="441.08606096251606" cy="295.8689070856053" r="23.9033530213419" fill="#d8b4fe" opacity="0.1"/><circle cx="968.2225579297665" cy="297.0686878215929" r="42.97232580334821" fill="#d8b4fe" opacity="0.1"/><circle cx="826.1597893979342" cy="200.2271394154377" r="34.01099246926606" fill="#d8b4fe" opacity="0.1"/><circle cx="785.6468537807814" cy="100.68562674205168" r="20.9761135847657" fill="#d8b4fe" opacity="0.1"/><circle cx="229.6842354342516" cy="76.17209816835384" r="25.658309419020497" fill="#d8b4fe" opacity="0.1"/><circle cx="978.406472934148" cy="207.8066183381452" r="36.28600181888032" fill="#d8b4fe" opacity="0.1"/><circle cx="978.5422254335572" cy="391.3349219244992" r="18.94038589000047" fill="#d8b4fe" opacity="0.1"/><circle cx="399.6735438297037" cy="385.3349961276763" r="23.431178245591582" fill="#d8b4fe" opacity="0.1"/><circle cx="155.300040572547" cy="93.80417967404355" r="13.367407806563278" fill="#d8b4fe" opacity="0.1"/><circle cx="1020.836350641548" cy="26.384546072949888" r="28.058784804034076" fill="#d8b4fe" opacity="0.1"/><circle cx="588.9560176874511" cy="286.154788852582" r="10.964457467016473" fill="#d8b4fe" opacity="0.1"/><circle cx="532.1438438346377" cy="298.8146070831135" r="17.5384743201721" fill="#d8b4fe" opacity="0.1"/><circle cx="147.35781185736414" cy="33.96009219213738" r="38.792977802368114" fill="#d8b4fe" opacity="0.1"/><circle cx="252.38910984735412" cy="113.41344286083768" r="14.213367446354823" fill="#d8b4fe" opacity="0.1"/><circle cx="136.41746795656218" cy="178.21060550486436" r="31.458359820826445" fill="#d8b4fe" opacity="0.1"/><circle cx="739.767646168184" cy="138.97721289372384" r="31.622051865888352" fill="#d8b4fe" opacity="0.1"/><circle cx="1085.4507445728814" cy="84.25369196702377" r="39.889449275578954" fill="#d8b4fe" opacity="0.1"/>
            <text x="600" y="520" font-family="Segoe UI, Arial, sans-serif" font-size="38" font-weight="800" fill="#ffffff" text-anchor="middle">Implementing Advanced AR Gestures for Data Interaction: A...</text>
            <text x="600" y="560" font-family="Segoe UI, Arial, sans-serif" font-size="16" font-weight="600" fill="#d8b4fe" text-anchor="middle" style="letter-spacing: 4px; text-transform: uppercase;">UI UX Powerhouse • Specialized Series</text>
        </svg>