<svg width="1200" height="600" viewBox="0 0 1200 600" xmlns="http://www.w3.org/2000/svg">
        <rect width="1200" height="600" fill="#1e1b4b"/><path d="M 843.4236031915134 94.86682451133674 L 872.8939537374572 144.86682451133674 L 814.4906923598228 194.86682451133674" stroke="#f43f5e" fill="none" opacity="0.4"/>
                    <circle cx="843.4236031915134" cy="94.86682451133674" r="3" fill="#22d3ee"/><path d="M 678.4422770302626 50.50231453060405 L 655.6741027588032 100.50231453060405 L 685.7527032459984 150.50231453060405" stroke="#f43f5e" fill="none" opacity="0.4"/>
                    <circle cx="678.4422770302626" cy="50.50231453060405" r="3" fill="#22d3ee"/><path d="M 668.3840587233135 155.7334056822583 L 629.9756567078475 205.7334056822583 L 676.9568161653069 255.7334056822583" stroke="#f43f5e" fill="none" opacity="0.4"/>
                    <circle cx="668.3840587233135" cy="155.7334056822583" r="3" fill="#22d3ee"/><path d="M 343.6757877236232 260.1843204072793 L 307.738278609844 310.1843204072793 L 372.1177129280477 360.1843204072793" stroke="#f43f5e" fill="none" opacity="0.4"/>
                    <circle cx="343.6757877236232" cy="260.1843204072793" r="3" fill="#22d3ee"/><path d="M 1176.4520456592436 360.85215596685885 L 1190.406014907967 410.85215596685885 L 1211.891599576802 460.85215596685885" stroke="#f43f5e" fill="none" opacity="0.4"/>
                    <circle cx="1176.4520456592436" cy="360.85215596685885" r="3" fill="#22d3ee"/><path d="M 317.74959382919405 241.41947287935182 L 342.6477675247952 291.4194728793518 L 360.1239980154787 341.4194728793518" stroke="#f43f5e" fill="none" opacity="0.4"/>
                    <circle cx="317.74959382919405" cy="241.41947287935182" r="3" fill="#22d3ee"/><path d="M 382.67404239231837 82.96664120716741 L 394.7977359192464 132.9666412071674 L 416.709583449574 182.9666412071674" stroke="#f43f5e" fill="none" opacity="0.4"/>
                    <circle cx="382.67404239231837" cy="82.96664120716741" r="3" fill="#22d3ee"/><path d="M 104.35980411348282 135.39071949877624 L 98.32226936196093 185.39071949877624 L 132.7795061870347 235.39071949877624" stroke="#f43f5e" fill="none" opacity="0.4"/>
                    <circle cx="104.35980411348282" cy="135.39071949877624" r="3" fill="#22d3ee"/><path d="M 566.4363088342725 163.37412941502407 L 572.8685795971614 213.37412941502407 L 577.0806854809052 263.3741294150241" stroke="#f43f5e" fill="none" opacity="0.4"/>
                    <circle cx="566.4363088342725" cy="163.37412941502407" r="3" fill="#22d3ee"/><path d="M 891.4269117572985 13.01751360988419 L 863.0863270478585 63.01751360988419 L 860.5427442689688 113.01751360988419" stroke="#f43f5e" fill="none" opacity="0.4"/>
                    <circle cx="891.4269117572985" cy="13.01751360988419" r="3" fill="#22d3ee"/>
        <text x="600" y="520" font-family="Segoe UI, Arial, sans-serif" font-size="38" font-weight="800" fill="#ffffff" text-anchor="middle">Implementing Context-Aware Gesture Recognition for Enhanc...</text>
        <text x="600" y="560" font-family="Segoe UI, Arial, sans-serif" font-size="16" font-weight="600" fill="#f43f5e" text-anchor="middle" style="letter-spacing: 4px; text-transform: uppercase;">UI UX Powerhouse • Specialized Series</text>
    </svg>