<svg width="1200" height="600" viewBox="0 0 1200 600" xmlns="http://www.w3.org/2000/svg">
            <rect width="1200" height="600" fill="#171717"/><path d="M 261.48162232129835 189.12658135923266 L 298.048403896064 239.12658135923266 L 248.2809526987694 289.12658135923266" stroke="#f59e0b" fill="none" opacity="0.4"/>
                    <circle cx="261.48162232129835" cy="189.12658135923266" r="3" fill="#ec4899"/><path d="M 880.1969427098811 160.6169446316926 L 916.3675338033499 210.6169446316926 L 845.0648152494978 260.6169446316926" stroke="#f59e0b" fill="none" opacity="0.4"/>
                    <circle cx="880.1969427098811" cy="160.6169446316926" r="3" fill="#ec4899"/><path d="M 301.80333732714644 203.44461176282493 L 277.27243026738506 253.44461176282493 L 342.0170348879765 303.44461176282493" stroke="#f59e0b" fill="none" opacity="0.4"/>
                    <circle cx="301.80333732714644" cy="203.44461176282493" r="3" fill="#ec4899"/><path d="M 527.2958926621868 137.52355228098168 L 567.1998888684357 187.52355228098168 L 563.1127846925665 237.52355228098168" stroke="#f59e0b" fill="none" opacity="0.4"/>
                    <circle cx="527.2958926621868" cy="137.52355228098168" r="3" fill="#ec4899"/><path d="M 505.06159165888675 285.209536383627 L 475.2591196274807 335.209536383627 L 523.5529935468549 385.209536383627" stroke="#f59e0b" fill="none" opacity="0.4"/>
                    <circle cx="505.06159165888675" cy="285.209536383627" r="3" fill="#ec4899"/><path d="M 82.91323121911773 359.061176286923 L 58.75906115534235 409.061176286923 L 39.783431309842854 459.061176286923" stroke="#f59e0b" fill="none" opacity="0.4"/>
                    <circle cx="82.91323121911773" cy="359.061176286923" r="3" fill="#ec4899"/><path d="M 448.82759602005535 76.23752116851392 L 493.6023711987218 126.23752116851392 L 470.41858776728986 176.23752116851392" stroke="#f59e0b" fill="none" opacity="0.4"/>
                    <circle cx="448.82759602005535" cy="76.23752116851392" r="3" fill="#ec4899"/><path d="M 341.81782582709275 71.43684957450205 L 356.34731088998706 121.43684957450205 L 381.7890336452365 171.43684957450205" stroke="#f59e0b" fill="none" opacity="0.4"/>
                    <circle cx="341.81782582709275" cy="71.43684957450205" r="3" fill="#ec4899"/><path d="M 767.9903667663893 35.7904662268993 L 746.1719546199674 85.7904662268993 L 735.4788331649615 135.7904662268993" stroke="#f59e0b" fill="none" opacity="0.4"/>
                    <circle cx="767.9903667663893" cy="35.7904662268993" r="3" fill="#ec4899"/><path d="M 652.1898174454691 39.85988468243704 L 608.1528797432838 89.85988468243704 L 620.6275440656555 139.85988468243704" stroke="#f59e0b" fill="none" opacity="0.4"/>
                    <circle cx="652.1898174454691" cy="39.85988468243704" r="3" fill="#ec4899"/>
            <text x="600" y="520" font-family="Segoe UI, Arial, sans-serif" font-size="38" font-weight="800" fill="#ffffff" text-anchor="middle">Implementing Adaptive Contrast Ratios in Web Design to En...</text>
            <text x="600" y="560" font-family="Segoe UI, Arial, sans-serif" font-size="16" font-weight="600" fill="#f59e0b" text-anchor="middle" style="letter-spacing: 4px; text-transform: uppercase;">UI UX Powerhouse • Specialized Series</text>
        </svg>