<svg width="1200" height="600" viewBox="0 0 1200 600" xmlns="http://www.w3.org/2000/svg">
            <rect width="1200" height="600" fill="#111827"/><path d="M 13.54295466444455 126.8401223453111 L 37.33891757483434 176.8401223453111 L 57.75681573877591 226.8401223453111" stroke="#10b981" fill="none" opacity="0.4"/>
                    <circle cx="13.54295466444455" cy="126.8401223453111" r="3" fill="#fbbf24"/><path d="M 39.776901058939984 372.75840755100944 L 3.8278205293408973 422.75840755100944 L 44.35180103546372 472.75840755100944" stroke="#10b981" fill="none" opacity="0.4"/>
                    <circle cx="39.776901058939984" cy="372.75840755100944" r="3" fill="#fbbf24"/><path d="M 1176.169341566856 0.6810950246290304 L 1176.1124078275316 50.68109502462903 L 1185.6293559267215 100.68109502462903" stroke="#10b981" fill="none" opacity="0.4"/>
                    <circle cx="1176.169341566856" cy="0.6810950246290304" r="3" fill="#fbbf24"/><path d="M 262.95674782886636 197.15065338314162 L 306.2379994107687 247.15065338314162 L 233.49515854706624 297.1506533831416" stroke="#10b981" fill="none" opacity="0.4"/>
                    <circle cx="262.95674782886636" cy="197.15065338314162" r="3" fill="#fbbf24"/><path d="M 212.17405961360782 360.331779318949 L 185.56441991549946 410.331779318949 L 257.8065622947179 460.331779318949" stroke="#10b981" fill="none" opacity="0.4"/>
                    <circle cx="212.17405961360782" cy="360.331779318949" r="3" fill="#fbbf24"/><path d="M 5.748337357363198 370.6124622864536 L 50.442957050381665 420.6124622864536 L 31.930769506652723 470.6124622864536" stroke="#10b981" fill="none" opacity="0.4"/>
                    <circle cx="5.748337357363198" cy="370.6124622864536" r="3" fill="#fbbf24"/><path d="M 937.9924839098749 354.7903815397149 L 970.9285390344576 404.7903815397149 L 889.299425194622 454.7903815397149" stroke="#10b981" fill="none" opacity="0.4"/>
                    <circle cx="937.9924839098749" cy="354.7903815397149" r="3" fill="#fbbf24"/><path d="M 393.1597480806886 304.2682170314947 L 435.2547684059573 354.2682170314947 L 406.253555837975 404.2682170314947" stroke="#10b981" fill="none" opacity="0.4"/>
                    <circle cx="393.1597480806886" cy="304.2682170314947" r="3" fill="#fbbf24"/><path d="M 594.646915091289 220.59007593045408 L 582.4947727701328 270.5900759304541 L 610.1442056503402 320.5900759304541" stroke="#10b981" fill="none" opacity="0.4"/>
                    <circle cx="594.646915091289" cy="220.59007593045408" r="3" fill="#fbbf24"/><path d="M 800.6023854257364 385.4260260832234 L 816.1292400623097 435.4260260832234 L 767.5279040013265 485.4260260832234" stroke="#10b981" fill="none" opacity="0.4"/>
                    <circle cx="800.6023854257364" cy="385.4260260832234" r="3" fill="#fbbf24"/>
            <text x="600" y="520" font-family="Segoe UI, Arial, sans-serif" font-size="38" font-weight="800" fill="#ffffff" text-anchor="middle">Implementing Contextual Voice Commands in Web Application...</text>
            <text x="600" y="560" font-family="Segoe UI, Arial, sans-serif" font-size="16" font-weight="600" fill="#10b981" text-anchor="middle" style="letter-spacing: 4px; text-transform: uppercase;">UI UX Powerhouse • Specialized Series</text>
        </svg>