<svg width="1200" height="600" viewBox="0 0 1200 600" xmlns="http://www.w3.org/2000/svg">
        
            <rect width="1200" height="600" fill="#312e81"/>
            <line x1="855.870491189853" y1="36.50184122034261" x2="1061.740599717632" y2="10.748671892361017" stroke="#818cf8" stroke-width="0.5" opacity="0.4"/><line x1="855.870491189853" y1="36.50184122034261" x2="744.7703601377725" y2="209.6871702313365" stroke="#818cf8" stroke-width="0.5" opacity="0.4"/><line x1="855.870491189853" y1="36.50184122034261" x2="1179.0385379848885" y2="254.12083451028593" stroke="#818cf8" stroke-width="0.5" opacity="0.4"/><line x1="855.870491189853" y1="36.50184122034261" x2="875.4405778163346" y2="248.96462754550157" stroke="#818cf8" stroke-width="0.5" opacity="0.4"/><line x1="8.386553795207874" y1="372.07362288681907" x2="927.831795840757" y2="368.95166798349237" stroke="#818cf8" stroke-width="0.5" opacity="0.4"/><line x1="8.386553795207874" y1="372.07362288681907" x2="1047.4375224401683" y2="223.05173362910864" stroke="#818cf8" stroke-width="0.5" opacity="0.4"/><line x1="8.386553795207874" y1="372.07362288681907" x2="875.4405778163346" y2="248.96462754550157" stroke="#818cf8" stroke-width="0.5" opacity="0.4"/><line x1="927.831795840757" y1="368.95166798349237" x2="875.4405778163346" y2="248.96462754550157" stroke="#818cf8" stroke-width="0.5" opacity="0.4"/><line x1="1047.4375224401683" y1="223.05173362910864" x2="1008.619164348238" y2="352.2631319865468" stroke="#818cf8" stroke-width="0.5" opacity="0.4"/><line x1="1047.4375224401683" y1="223.05173362910864" x2="798.8171653989411" y2="272.1812856498218" stroke="#818cf8" stroke-width="0.5" opacity="0.4"/><line x1="1061.740599717632" y1="10.748671892361017" x2="875.4405778163346" y2="248.96462754550157" stroke="#818cf8" stroke-width="0.5" opacity="0.4"/><line x1="1061.740599717632" y1="10.748671892361017" x2="798.8171653989411" y2="272.1812856498218" stroke="#818cf8" stroke-width="0.5" opacity="0.4"/><line x1="744.7703601377725" y1="209.6871702313365" x2="1179.0385379848885" y2="254.12083451028593" stroke="#818cf8" stroke-width="0.5" opacity="0.4"/><line x1="744.7703601377725" y1="209.6871702313365" x2="875.4405778163346" y2="248.96462754550157" stroke="#818cf8" stroke-width="0.5" opacity="0.4"/><line x1="744.7703601377725" y1="209.6871702313365" x2="798.8171653989411" y2="272.1812856498218" stroke="#818cf8" stroke-width="0.5" opacity="0.4"/><line x1="1179.0385379848885" y1="254.12083451028593" x2="798.8171653989411" y2="272.1812856498218" stroke="#818cf8" stroke-width="0.5" opacity="0.4"/><line x1="774.8389402317116" y1="263.7595070693351" x2="265.65750676491007" y2="38.3697688639586" stroke="#818cf8" stroke-width="0.5" opacity="0.4"/><line x1="774.8389402317116" y1="263.7595070693351" x2="875.4405778163346" y2="248.96462754550157" stroke="#818cf8" stroke-width="0.5" opacity="0.4"/><line x1="774.8389402317116" y1="263.7595070693351" x2="798.8171653989411" y2="272.1812856498218" stroke="#818cf8" stroke-width="0.5" opacity="0.4"/>
            <circle cx="855.870491189853" cy="36.50184122034261" r="3.9384691149061837" fill="#fcd34d" opacity="0.6"/><circle cx="8.386553795207874" cy="372.07362288681907" r="4.908638535671344" fill="#fcd34d" opacity="0.6"/><circle cx="927.831795840757" cy="368.95166798349237" r="4.826935697637964" fill="#fcd34d" opacity="0.6"/><circle cx="1047.4375224401683" cy="223.05173362910864" r="4.621372791825706" fill="#fcd34d" opacity="0.6"/><circle cx="1061.740599717632" cy="10.748671892361017" r="2.136821746878013" fill="#fcd34d" opacity="0.6"/><circle cx="744.7703601377725" cy="209.6871702313365" r="4.345055109028181" fill="#fcd34d" opacity="0.6"/><circle cx="1179.0385379848885" cy="254.12083451028593" r="2.1336100034532137" fill="#fcd34d" opacity="0.6"/><circle cx="774.8389402317116" cy="263.7595070693351" r="3.378289465665148" fill="#fcd34d" opacity="0.6"/><circle cx="1008.619164348238" cy="352.2631319865468" r="4.399253113318991" fill="#fcd34d" opacity="0.6"/><circle cx="265.65750676491007" cy="38.3697688639586" r="2.7242702467920026" fill="#fcd34d" opacity="0.6"/><circle cx="875.4405778163346" cy="248.96462754550157" r="4.83103469217167" fill="#fcd34d" opacity="0.6"/><circle cx="798.8171653989411" cy="272.1812856498218" r="2.6218757206734153" fill="#fcd34d" opacity="0.6"/>
        
        <text x="600" y="520" font-family="Segoe UI, Arial, sans-serif" font-size="38" font-weight="800" fill="#ffffff" text-anchor="middle">Implementing Custom Drag-and-Drop Interfaces with Accessi...</text>
        <text x="600" y="560" font-family="Segoe UI, Arial, sans-serif" font-size="16" font-weight="600" fill="#818cf8" text-anchor="middle" style="letter-spacing: 4px; text-transform: uppercase;">UI UX Powerhouse • Intelligence in Design</text>
    </svg>