<svg width="1200" height="600" viewBox="0 0 1200 600" xmlns="http://www.w3.org/2000/svg">
            <rect width="1200" height="600" fill="#171717"/><rect x="150" y="223.03495779578952" width="60" height="126.96504220421048" fill="#f59e0b" opacity="0.6"/>
                    <rect x="170" y="203.03495779578952" width="60" height="126.96504220421048" fill="#fbbf24" opacity="0.4" transform="skewY(-20)"/><rect x="270" y="269.8810734316794" width="60" height="80.1189265683206" fill="#f59e0b" opacity="0.6"/>
                    <rect x="290" y="249.8810734316794" width="60" height="80.1189265683206" fill="#fbbf24" opacity="0.4" transform="skewY(-20)"/><rect x="390" y="103.65996587461268" width="60" height="246.34003412538732" fill="#f59e0b" opacity="0.6"/>
                    <rect x="410" y="83.65996587461268" width="60" height="246.34003412538732" fill="#fbbf24" opacity="0.4" transform="skewY(-20)"/><rect x="510" y="272.61931966568227" width="60" height="77.38068033431773" fill="#f59e0b" opacity="0.6"/>
                    <rect x="530" y="252.61931966568227" width="60" height="77.38068033431773" fill="#fbbf24" opacity="0.4" transform="skewY(-20)"/><rect x="630" y="272.2864767685678" width="60" height="77.71352323143219" fill="#f59e0b" opacity="0.6"/>
                    <rect x="650" y="252.2864767685678" width="60" height="77.71352323143219" fill="#fbbf24" opacity="0.4" transform="skewY(-20)"/><rect x="750" y="176.82278771808342" width="60" height="173.17721228191658" fill="#f59e0b" opacity="0.6"/>
                    <rect x="770" y="156.82278771808342" width="60" height="173.17721228191658" fill="#fbbf24" opacity="0.4" transform="skewY(-20)"/><rect x="870" y="269.48295791080454" width="60" height="80.51704208919546" fill="#f59e0b" opacity="0.6"/>
                    <rect x="890" y="249.48295791080454" width="60" height="80.51704208919546" fill="#fbbf24" opacity="0.4" transform="skewY(-20)"/><rect x="990" y="107.54208143116557" width="60" height="242.45791856883443" fill="#f59e0b" opacity="0.6"/>
                    <rect x="1010" y="87.54208143116557" width="60" height="242.45791856883443" fill="#fbbf24" opacity="0.4" transform="skewY(-20)"/>
            <text x="600" y="520" font-family="Segoe UI, Arial, sans-serif" font-size="38" font-weight="800" fill="#ffffff" text-anchor="middle">Implementing Contextual Undo Functionality in Complex Web...</text>
            <text x="600" y="560" font-family="Segoe UI, Arial, sans-serif" font-size="16" font-weight="600" fill="#f59e0b" text-anchor="middle" style="letter-spacing: 4px; text-transform: uppercase;">UI UX Powerhouse • Specialized Series</text>
        </svg>