<svg width="1200" height="600" viewBox="0 0 1200 600" xmlns="http://www.w3.org/2000/svg">
        <rect width="1200" height="600" fill="#0c4a6e"/><path d="M 228.8342192367054 21.702717735479382 L 186.26254547452845 71.70271773547938 L 181.01356579099956 121.70271773547938" stroke="#7dd3fc" fill="none" opacity="0.4"/>
                    <circle cx="228.8342192367054" cy="21.702717735479382" r="3" fill="#f43f5e"/><path d="M 280.56123564242625 304.86008912484976 L 281.35106088871 354.86008912484976 L 290.2721274722353 404.86008912484976" stroke="#7dd3fc" fill="none" opacity="0.4"/>
                    <circle cx="280.56123564242625" cy="304.86008912484976" r="3" fill="#f43f5e"/><path d="M 495.51642818478285 184.67186083980778 L 540.0710372156937 234.67186083980778 L 447.3028002353203 284.6718608398078" stroke="#7dd3fc" fill="none" opacity="0.4"/>
                    <circle cx="495.51642818478285" cy="184.67186083980778" r="3" fill="#f43f5e"/><path d="M 396.1524937023569 265.755638220071 L 433.7570175330484 315.755638220071 L 370.3281640053319 365.755638220071" stroke="#7dd3fc" fill="none" opacity="0.4"/>
                    <circle cx="396.1524937023569" cy="265.755638220071" r="3" fill="#f43f5e"/><path d="M 1139.1589914892393 28.49449114728486 L 1135.1592095725664 78.49449114728486 L 1170.1712686562132 128.49449114728486" stroke="#7dd3fc" fill="none" opacity="0.4"/>
                    <circle cx="1139.1589914892393" cy="28.49449114728486" r="3" fill="#f43f5e"/><path d="M 669.8651115846019 347.10431170205993 L 704.9478891356443 397.10431170205993 L 708.6572855216218 447.10431170205993" stroke="#7dd3fc" fill="none" opacity="0.4"/>
                    <circle cx="669.8651115846019" cy="347.10431170205993" r="3" fill="#f43f5e"/><path d="M 1069.860166507715 229.99783431987453 L 1112.921306543467 279.9978343198745 L 1090.5376011835187 329.9978343198745" stroke="#7dd3fc" fill="none" opacity="0.4"/>
                    <circle cx="1069.860166507715" cy="229.99783431987453" r="3" fill="#f43f5e"/><path d="M 231.15535145407193 395.0737912731711 L 203.6473409133464 445.0737912731711 L 255.37779899104862 495.0737912731711" stroke="#7dd3fc" fill="none" opacity="0.4"/>
                    <circle cx="231.15535145407193" cy="395.0737912731711" r="3" fill="#f43f5e"/><path d="M 908.9356920434511 132.07695587479975 L 870.5345374231911 182.07695587479975 L 939.6557270949415 232.07695587479975" stroke="#7dd3fc" fill="none" opacity="0.4"/>
                    <circle cx="908.9356920434511" cy="132.07695587479975" r="3" fill="#f43f5e"/><path d="M 12.437132049672073 68.28716121999605 L 58.608202353434535 118.28716121999605 L -25.861952231025498 168.28716121999605" stroke="#7dd3fc" fill="none" opacity="0.4"/>
                    <circle cx="12.437132049672073" cy="68.28716121999605" r="3" fill="#f43f5e"/>
        <text x="600" y="520" font-family="Segoe UI, Arial, sans-serif" font-size="38" font-weight="800" fill="#ffffff" text-anchor="middle">Implementing Real-Time User Behavior Analytics for Dynami...</text>
        <text x="600" y="560" font-family="Segoe UI, Arial, sans-serif" font-size="16" font-weight="600" fill="#7dd3fc" text-anchor="middle" style="letter-spacing: 4px; text-transform: uppercase;">UI UX Powerhouse • Specialized Series</text>
    </svg>