<svg width="1200" height="600" viewBox="0 0 1200 600" xmlns="http://www.w3.org/2000/svg">
            <rect width="1200" height="600" fill="#2e1065"/><path d="M 286.56754515141074 340.2835581550022 L 331.21214100210636 390.2835581550022 L 327.727588288235 440.2835581550022" stroke="#d8b4fe" fill="none" opacity="0.4"/>
                    <circle cx="286.56754515141074" cy="340.2835581550022" r="3" fill="#4ade80"/><path d="M 1043.3076392564544 50.509434071864234 L 1032.1154791959998 100.50943407186423 L 1018.9933163413116 150.50943407186423" stroke="#d8b4fe" fill="none" opacity="0.4"/>
                    <circle cx="1043.3076392564544" cy="50.509434071864234" r="3" fill="#4ade80"/><path d="M 616.1026851645147 95.63345976912387 L 566.9662494890872 145.63345976912387 L 642.2782723723685 195.63345976912387" stroke="#d8b4fe" fill="none" opacity="0.4"/>
                    <circle cx="616.1026851645147" cy="95.63345976912387" r="3" fill="#4ade80"/><path d="M 639.258101505402 34.6882313993774 L 649.3483993004702 84.6882313993774 L 643.4371756703513 134.6882313993774" stroke="#d8b4fe" fill="none" opacity="0.4"/>
                    <circle cx="639.258101505402" cy="34.6882313993774" r="3" fill="#4ade80"/><path d="M 161.90026935073547 347.73947593275807 L 170.15261592619026 397.73947593275807 L 113.49510880509115 447.73947593275807" stroke="#d8b4fe" fill="none" opacity="0.4"/>
                    <circle cx="161.90026935073547" cy="347.73947593275807" r="3" fill="#4ade80"/><path d="M 143.86025622452507 126.53688393511402 L 167.60478128644536 176.53688393511402 L 125.33209021576113 226.53688393511402" stroke="#d8b4fe" fill="none" opacity="0.4"/>
                    <circle cx="143.86025622452507" cy="126.53688393511402" r="3" fill="#4ade80"/><path d="M 323.4868224033562 368.7086418871331 L 340.7766013381661 418.7086418871331 L 332.5744141571704 468.7086418871331" stroke="#d8b4fe" fill="none" opacity="0.4"/>
                    <circle cx="323.4868224033562" cy="368.7086418871331" r="3" fill="#4ade80"/><path d="M 656.6436203884223 382.84371749614365 L 628.42360236084 432.84371749614365 L 702.9769906206639 482.84371749614365" stroke="#d8b4fe" fill="none" opacity="0.4"/>
                    <circle cx="656.6436203884223" cy="382.84371749614365" r="3" fill="#4ade80"/><path d="M 641.64566370182 200.09204217749357 L 627.3000152861869 250.09204217749357 L 691.6288248149613 300.09204217749357" stroke="#d8b4fe" fill="none" opacity="0.4"/>
                    <circle cx="641.64566370182" cy="200.09204217749357" r="3" fill="#4ade80"/><path d="M 925.216546282536 97.25805590860546 L 908.583476975582 147.25805590860546 L 970.6889009325835 197.25805590860546" stroke="#d8b4fe" fill="none" opacity="0.4"/>
                    <circle cx="925.216546282536" cy="97.25805590860546" r="3" fill="#4ade80"/>
            <text x="600" y="520" font-family="Segoe UI, Arial, sans-serif" font-size="38" font-weight="800" fill="#ffffff" text-anchor="middle">Implementing Layered Feedback Techniques in Web Applicati...</text>
            <text x="600" y="560" font-family="Segoe UI, Arial, sans-serif" font-size="16" font-weight="600" fill="#d8b4fe" text-anchor="middle" style="letter-spacing: 4px; text-transform: uppercase;">UI UX Powerhouse • Specialized Series</text>
        </svg>