<svg width="1200" height="600" viewBox="0 0 1200 600" xmlns="http://www.w3.org/2000/svg">
        <rect width="1200" height="600" fill="#0c4a6e"/><circle cx="260.0762364600996" cy="171.42117851835792" r="31.942178154713474" fill="#7dd3fc" opacity="0.1"/><circle cx="96.10349240829237" cy="152.69149216765072" r="27.58745319191803" fill="#7dd3fc" opacity="0.1"/><circle cx="629.6845450382534" cy="88.65683103285846" r="11.411394979058969" fill="#7dd3fc" opacity="0.1"/><circle cx="284.6038785026394" cy="178.86986795629127" r="21.273525677588623" fill="#7dd3fc" opacity="0.1"/><circle cx="262.1914434923383" cy="128.7848483880225" r="20.33167208370287" fill="#7dd3fc" opacity="0.1"/><circle cx="68.28906139562605" cy="344.5879738290387" r="39.74359241589809" fill="#7dd3fc" opacity="0.1"/><circle cx="595.1154540533025" cy="348.12636394235597" r="31.82036865830014" fill="#7dd3fc" opacity="0.1"/><circle cx="586.0205324959679" cy="359.6305360086262" r="29.79691960817945" fill="#7dd3fc" opacity="0.1"/><circle cx="771.71346410978" cy="93.81993776514719" r="34.62647480671876" fill="#7dd3fc" opacity="0.1"/><circle cx="1007.5466290182703" cy="209.81178495349013" r="13.464713166986257" fill="#7dd3fc" opacity="0.1"/><circle cx="398.21324686026855" cy="348.8952148050885" r="27.43038804110256" fill="#7dd3fc" opacity="0.1"/><circle cx="814.6769890625364" cy="26.596756201251992" r="12.47768044595432" fill="#7dd3fc" opacity="0.1"/><circle cx="791.2410018940136" cy="274.02202773519093" r="24.774724914150283" fill="#7dd3fc" opacity="0.1"/><circle cx="1164.8798858950613" cy="395.1615260732069" r="16.816831934238508" fill="#7dd3fc" opacity="0.1"/><circle cx="257.71423498081276" cy="47.99506582858157" r="35.90126563129161" fill="#7dd3fc" opacity="0.1"/><circle cx="1176.3400851832557" cy="189.26984537411045" r="37.892684250109596" fill="#7dd3fc" opacity="0.1"/><circle cx="790.1353611703598" cy="352.7830329891003" r="36.09532603572006" fill="#7dd3fc" opacity="0.1"/><circle cx="1146.122993654717" cy="234.79514035025204" r="30.210542345084832" fill="#7dd3fc" opacity="0.1"/><circle cx="1064.4923500876757" cy="151.0482495166798" r="20.68041732387428" fill="#7dd3fc" opacity="0.1"/><circle cx="419.3465343763819" cy="230.51044673120487" r="16.04011388060826" fill="#7dd3fc" opacity="0.1"/><circle cx="646.9369828904746" cy="296.0275557830755" r="35.377159058164125" fill="#7dd3fc" opacity="0.1"/><circle cx="972.3214003701287" cy="206.52941287480644" r="10.894224444200518" fill="#7dd3fc" opacity="0.1"/><circle cx="136.65452302011545" cy="98.5834839157178" r="33.09103723098815" fill="#7dd3fc" opacity="0.1"/><circle cx="507.0049986796221" cy="390.4823898432369" r="25.572214435815113" fill="#7dd3fc" opacity="0.1"/><circle cx="299.41111012303736" cy="22.29142167561804" r="43.57385227114719" fill="#7dd3fc" opacity="0.1"/><circle cx="322.72295240472886" cy="72.87047864519991" r="49.767541914770845" fill="#7dd3fc" opacity="0.1"/><circle cx="829.5738500128209" cy="261.1236606979219" r="29.851333168844576" fill="#7dd3fc" opacity="0.1"/><circle cx="393.9053279485961" cy="238.27477331506088" r="15.479719571267196" fill="#7dd3fc" opacity="0.1"/><circle cx="166.2263906775479" cy="330.3819415197722" r="21.571663951908704" fill="#7dd3fc" opacity="0.1"/><circle cx="476.910157770908" cy="4.461018354049884" r="19.508539808302885" fill="#7dd3fc" opacity="0.1"/>
        <text x="600" y="520" font-family="Segoe UI, Arial, sans-serif" font-size="38" font-weight="800" fill="#ffffff" text-anchor="middle">Implementing Adaptive Color Modes in Web Applications: A ...</text>
        <text x="600" y="560" font-family="Segoe UI, Arial, sans-serif" font-size="16" font-weight="600" fill="#7dd3fc" text-anchor="middle" style="letter-spacing: 4px; text-transform: uppercase;">UI UX Powerhouse • Specialized Series</text>
    </svg>