<svg width="1200" height="600" viewBox="0 0 1200 600" xmlns="http://www.w3.org/2000/svg">
        <rect width="1200" height="600" fill="#171717"/><circle cx="254.11638385994593" cy="141.56648160205805" r="34.72094810786075" fill="#f59e0b" opacity="0.1"/><circle cx="503.8875109235505" cy="78.5245101153123" r="34.059629720686644" fill="#f59e0b" opacity="0.1"/><circle cx="1096.1280415824149" cy="276.9574848090997" r="21.740080572380975" fill="#f59e0b" opacity="0.1"/><circle cx="1076.9565237460483" cy="335.3506158804521" r="25.273641653329832" fill="#f59e0b" opacity="0.1"/><circle cx="960.16533758484" cy="361.9076995579235" r="17.431535583054938" fill="#f59e0b" opacity="0.1"/><circle cx="702.2188353790625" cy="273.63803431144333" r="40.90027484566235" fill="#f59e0b" opacity="0.1"/><circle cx="859.8661831161735" cy="129.2912137309031" r="14.44478508852626" fill="#f59e0b" opacity="0.1"/><circle cx="854.9750230732911" cy="182.5267155749316" r="18.926279560146213" fill="#f59e0b" opacity="0.1"/><circle cx="817.7384316302778" cy="321.7535341886105" r="19.786586728296243" fill="#f59e0b" opacity="0.1"/><circle cx="459.50203533211607" cy="65.59251553353533" r="30.652384124550736" fill="#f59e0b" opacity="0.1"/><circle cx="54.43305639710161" cy="314.5836026269535" r="42.575781195337186" fill="#f59e0b" opacity="0.1"/><circle cx="636.6488000608115" cy="155.92423340276582" r="26.695887983842113" fill="#f59e0b" opacity="0.1"/><circle cx="929.4700025311613" cy="152.93500017396582" r="48.033652206650004" fill="#f59e0b" opacity="0.1"/><circle cx="1043.1090518002748" cy="76.87362884826143" r="26.06814539358311" fill="#f59e0b" opacity="0.1"/><circle cx="1070.3185924394347" cy="173.80081989904284" r="29.58610015368322" fill="#f59e0b" opacity="0.1"/><circle cx="1000.0642492792394" cy="351.0049111355329" r="22.978741065744543" fill="#f59e0b" opacity="0.1"/><circle cx="1046.0735698427015" cy="285.5820511952885" r="44.59722127947316" fill="#f59e0b" opacity="0.1"/><circle cx="119.09590019422467" cy="80.47926431772794" r="16.555892415381095" fill="#f59e0b" opacity="0.1"/><circle cx="422.6175420517393" cy="356.223447499724" r="40.90629992708273" fill="#f59e0b" opacity="0.1"/><circle cx="217.46528125513578" cy="192.32783378192835" r="45.38294454487186" fill="#f59e0b" opacity="0.1"/><circle cx="972.0799734731372" cy="189.38601230174754" r="42.01350630239176" fill="#f59e0b" opacity="0.1"/><circle cx="848.9260878312962" cy="215.495041662507" r="33.77696337222005" fill="#f59e0b" opacity="0.1"/><circle cx="1037.9633055408704" cy="153.87043935315887" r="31.829807345609424" fill="#f59e0b" opacity="0.1"/><circle cx="966.7831501268665" cy="170.2827447967138" r="24.20906598590591" fill="#f59e0b" opacity="0.1"/><circle cx="1151.3489099284925" cy="202.46012721618172" r="18.68617328502296" fill="#f59e0b" opacity="0.1"/><circle cx="1115.0485269412457" cy="239.15137518997653" r="10.051435647219478" fill="#f59e0b" opacity="0.1"/><circle cx="124.84236409472942" cy="187.6417782581484" r="10.304251489724265" fill="#f59e0b" opacity="0.1"/><circle cx="835.6236247673223" cy="319.5830073826073" r="16.37193097420095" fill="#f59e0b" opacity="0.1"/><circle cx="909.8864325858813" cy="375.07546986744273" r="40.389581725503376" fill="#f59e0b" opacity="0.1"/><circle cx="506.9942760972481" cy="351.4939042077458" r="43.267390808669006" fill="#f59e0b" opacity="0.1"/>
        <text x="600" y="520" font-family="Segoe UI, Arial, sans-serif" font-size="38" font-weight="800" fill="#ffffff" text-anchor="middle">Implementing Contextual User Onboarding Using Behavioral ...</text>
        <text x="600" y="560" font-family="Segoe UI, Arial, sans-serif" font-size="16" font-weight="600" fill="#f59e0b" text-anchor="middle" style="letter-spacing: 4px; text-transform: uppercase;">UI UX Powerhouse • Specialized Series</text>
    </svg>