<svg width="1200" height="600" viewBox="0 0 1200 600" xmlns="http://www.w3.org/2000/svg">
            <rect width="1200" height="600" fill="#0c4a6e"/><circle cx="922.7796392363416" cy="73.56979957148724" r="18.662459104016307" fill="#7dd3fc" opacity="0.1"/><circle cx="697.4469704371586" cy="272.8498155978741" r="22.114632380980765" fill="#7dd3fc" opacity="0.1"/><circle cx="1148.9708353981769" cy="299.4290879461005" r="20.429427536400908" fill="#7dd3fc" opacity="0.1"/><circle cx="221.87573857736425" cy="234.7232376363536" r="38.92207602766575" fill="#7dd3fc" opacity="0.1"/><circle cx="891.6461749402515" cy="358.2101394953497" r="37.62139238213422" fill="#7dd3fc" opacity="0.1"/><circle cx="777.4880655004381" cy="32.580690786926425" r="24.692104079731507" fill="#7dd3fc" opacity="0.1"/><circle cx="1050.9318199632617" cy="144.75328099379112" r="31.131097540201154" fill="#7dd3fc" opacity="0.1"/><circle cx="135.9079449553974" cy="271.6689899249104" r="10.521610616779071" fill="#7dd3fc" opacity="0.1"/><circle cx="452.1358400437748" cy="180.94907597551355" r="36.06741755702387" fill="#7dd3fc" opacity="0.1"/><circle cx="741.3555727511721" cy="162.95349894135143" r="35.2939571285242" fill="#7dd3fc" opacity="0.1"/><circle cx="106.0371550556738" cy="52.83627709795837" r="23.433056350113475" fill="#7dd3fc" opacity="0.1"/><circle cx="793.1241074689751" cy="328.4787713953847" r="23.81111717571912" fill="#7dd3fc" opacity="0.1"/><circle cx="1125.87413419501" cy="201.0580146969005" r="25.52498191358609" fill="#7dd3fc" opacity="0.1"/><circle cx="423.68281964372727" cy="14.323521030746633" r="35.04117414940083" fill="#7dd3fc" opacity="0.1"/><circle cx="283.9775643273242" cy="77.62031362835842" r="49.77994335567928" fill="#7dd3fc" opacity="0.1"/><circle cx="307.2172313652118" cy="236.19782626919914" r="38.30913535577565" fill="#7dd3fc" opacity="0.1"/><circle cx="158.2963096903768" cy="162.40913348883623" r="19.081126262713042" fill="#7dd3fc" opacity="0.1"/><circle cx="912.0619939782046" cy="83.52617488562828" r="32.97896811825922" fill="#7dd3fc" opacity="0.1"/><circle cx="689.6624788003464" cy="1.1352229441399686" r="24.363933155873383" fill="#7dd3fc" opacity="0.1"/><circle cx="1069.6184966465808" cy="206.50914399157045" r="25.13212257425039" fill="#7dd3fc" opacity="0.1"/><circle cx="578.5991558113892" cy="300.3951760891141" r="30.827853980026703" fill="#7dd3fc" opacity="0.1"/><circle cx="813.7081402848708" cy="268.212300115556" r="31.25690968176059" fill="#7dd3fc" opacity="0.1"/><circle cx="655.0284853154153" cy="189.12963888797094" r="36.69020788016496" fill="#7dd3fc" opacity="0.1"/><circle cx="297.4269082900719" cy="294.379390407812" r="49.091167195183516" fill="#7dd3fc" opacity="0.1"/><circle cx="963.7145193257311" cy="6.644246845826274" r="25.39251424055692" fill="#7dd3fc" opacity="0.1"/><circle cx="26.67486778991588" cy="278.1434171698493" r="26.068066985275493" fill="#7dd3fc" opacity="0.1"/><circle cx="274.7074111372058" cy="117.78804214191041" r="12.18424438720831" fill="#7dd3fc" opacity="0.1"/><circle cx="680.7521436159163" cy="58.88503393071005" r="39.230405087855615" fill="#7dd3fc" opacity="0.1"/><circle cx="332.57739355321974" cy="105.31361383655167" r="11.428655779418477" fill="#7dd3fc" opacity="0.1"/><circle cx="546.4621678467665" cy="349.0005008939079" r="43.36666526240151" fill="#7dd3fc" opacity="0.1"/>
            <text x="600" y="520" font-family="Segoe UI, Arial, sans-serif" font-size="38" font-weight="800" fill="#ffffff" text-anchor="middle">Implementing Semantic HTML and ARIA Roles for Enhanced Ac...</text>
            <text x="600" y="560" font-family="Segoe UI, Arial, sans-serif" font-size="16" font-weight="600" fill="#7dd3fc" text-anchor="middle" style="letter-spacing: 4px; text-transform: uppercase;">UI UX Powerhouse • Specialized Series</text>
        </svg>