<svg width="1200" height="600" viewBox="0 0 1200 600" xmlns="http://www.w3.org/2000/svg">
            <rect width="1200" height="600" fill="#171717"/><circle cx="208.10958770525758" cy="291.012750189293" r="37.42920586486434" fill="#f59e0b" opacity="0.1"/><circle cx="422.29075411887607" cy="61.639431478306506" r="47.81682727018051" fill="#f59e0b" opacity="0.1"/><circle cx="476.300931397418" cy="321.63556745945243" r="28.66123490901373" fill="#f59e0b" opacity="0.1"/><circle cx="190.56413831276586" cy="311.70124658892746" r="28.121986018377356" fill="#f59e0b" opacity="0.1"/><circle cx="1198.5983647406101" cy="351.17624487793364" r="18.005325994599843" fill="#f59e0b" opacity="0.1"/><circle cx="668.4465462057233" cy="186.91729981073877" r="19.792574992970913" fill="#f59e0b" opacity="0.1"/><circle cx="921.3836093193095" cy="316.9165701037855" r="49.00600547207432" fill="#f59e0b" opacity="0.1"/><circle cx="325.2754959565209" cy="136.6509500738175" r="21.75487119162426" fill="#f59e0b" opacity="0.1"/><circle cx="482.796316670192" cy="141.71295535634272" r="33.96282624031301" fill="#f59e0b" opacity="0.1"/><circle cx="765.2656030932121" cy="10.666549597954145" r="47.197373320304905" fill="#f59e0b" opacity="0.1"/><circle cx="242.8071332307809" cy="121.78483332827454" r="17.736374884552788" fill="#f59e0b" opacity="0.1"/><circle cx="883.7129180952616" cy="156.50187828068738" r="14.463900931214084" fill="#f59e0b" opacity="0.1"/><circle cx="1002.0159943203907" cy="325.17480931128375" r="35.92600147621852" fill="#f59e0b" opacity="0.1"/><circle cx="874.546235040907" cy="86.78761545452289" r="41.609314117595204" fill="#f59e0b" opacity="0.1"/><circle cx="941.1956518491934" cy="150.4625066605513" r="32.92895789149043" fill="#f59e0b" opacity="0.1"/><circle cx="458.32168391207233" cy="324.18269723330013" r="12.822756320601911" fill="#f59e0b" opacity="0.1"/><circle cx="1174.337172457308" cy="94.87572737707524" r="44.18476193452079" fill="#f59e0b" opacity="0.1"/><circle cx="1184.8167679494509" cy="308.3102562105523" r="41.74941255354497" fill="#f59e0b" opacity="0.1"/><circle cx="353.3263140627241" cy="158.67631535147666" r="38.35849085684458" fill="#f59e0b" opacity="0.1"/><circle cx="1144.955115040284" cy="309.93724225390906" r="16.43105986120645" fill="#f59e0b" opacity="0.1"/><circle cx="212.94544894444698" cy="321.319752283307" r="43.09373089738074" fill="#f59e0b" opacity="0.1"/><circle cx="775.0700628809227" cy="148.94117410076433" r="47.3989961146799" fill="#f59e0b" opacity="0.1"/><circle cx="273.1357692140591" cy="346.2110640062747" r="34.11870089967124" fill="#f59e0b" opacity="0.1"/><circle cx="451.40965352766216" cy="217.6593827927718" r="44.57604913863179" fill="#f59e0b" opacity="0.1"/><circle cx="568.8701006722113" cy="369.88025659302366" r="24.2847187389998" fill="#f59e0b" opacity="0.1"/><circle cx="666.3082810533524" cy="2.2050416118872818" r="22.452418999528163" fill="#f59e0b" opacity="0.1"/><circle cx="858.9306671495706" cy="56.74494841875912" r="12.9269845386807" fill="#f59e0b" opacity="0.1"/><circle cx="1163.2413263145281" cy="287.56404367350115" r="23.688122535022558" fill="#f59e0b" opacity="0.1"/><circle cx="36.47032371663954" cy="181.54477810967364" r="38.28296799641976" fill="#f59e0b" opacity="0.1"/><circle cx="680.5045703746146" cy="236.40759010741021" r="37.15994382757344" fill="#f59e0b" opacity="0.1"/>
            <text x="600" y="520" font-family="Segoe UI, Arial, sans-serif" font-size="38" font-weight="800" fill="#ffffff" text-anchor="middle">Implementing Efficient Data Filtering and Sorting in Comp...</text>
            <text x="600" y="560" font-family="Segoe UI, Arial, sans-serif" font-size="16" font-weight="600" fill="#f59e0b" text-anchor="middle" style="letter-spacing: 4px; text-transform: uppercase;">UI UX Powerhouse • Specialized Series</text>
        </svg>