<svg width="1200" height="600" viewBox="0 0 1200 600" xmlns="http://www.w3.org/2000/svg">
        <rect width="1200" height="600" fill="#111827"/><path d="M 112.74587992957095 24.41809575420848 L 129.58921357476356 74.41809575420848 L 117.3673943751055 124.41809575420848" stroke="#10b981" fill="none" opacity="0.4"/>
                    <circle cx="112.74587992957095" cy="24.41809575420848" r="3" fill="#fbbf24"/><path d="M 1097.069123598301 352.3789020760887 L 1066.0221131609048 402.3789020760887 L 1114.1689080913764 452.3789020760887" stroke="#10b981" fill="none" opacity="0.4"/>
                    <circle cx="1097.069123598301" cy="352.3789020760887" r="3" fill="#fbbf24"/><path d="M 982.6730281383789 395.56422633540933 L 987.7279911825099 445.56422633540933 L 1016.8537191343603 495.56422633540933" stroke="#10b981" fill="none" opacity="0.4"/>
                    <circle cx="982.6730281383789" cy="395.56422633540933" r="3" fill="#fbbf24"/><path d="M 1006.8696343128977 175.0915069686016 L 1001.0550992609751 225.0915069686016 L 991.9249030945139 275.0915069686016" stroke="#10b981" fill="none" opacity="0.4"/>
                    <circle cx="1006.8696343128977" cy="175.0915069686016" r="3" fill="#fbbf24"/><path d="M 670.3057715472823 70.04015707570943 L 638.5761866218672 120.04015707570943 L 711.4462565403301 170.04015707570943" stroke="#10b981" fill="none" opacity="0.4"/>
                    <circle cx="670.3057715472823" cy="70.04015707570943" r="3" fill="#fbbf24"/><path d="M 1101.8209150090115 67.55642357402394 L 1096.9564361495031 117.55642357402394 L 1124.1799561841617 167.55642357402394" stroke="#10b981" fill="none" opacity="0.4"/>
                    <circle cx="1101.8209150090115" cy="67.55642357402394" r="3" fill="#fbbf24"/><path d="M 448.26657638914185 245.14462062961684 L 401.131561499642 295.14462062961684 L 479.8523542656312 345.14462062961684" stroke="#10b981" fill="none" opacity="0.4"/>
                    <circle cx="448.26657638914185" cy="245.14462062961684" r="3" fill="#fbbf24"/><path d="M 316.92279822018463 201.62056626722915 L 276.81380899139185 251.62056626722915 L 350.77610344833374 301.62056626722915" stroke="#10b981" fill="none" opacity="0.4"/>
                    <circle cx="316.92279822018463" cy="201.62056626722915" r="3" fill="#fbbf24"/><path d="M 1108.339693747621 34.99886137124122 L 1083.9434810239254 84.99886137124122 L 1093.0450771336382 134.99886137124122" stroke="#10b981" fill="none" opacity="0.4"/>
                    <circle cx="1108.339693747621" cy="34.99886137124122" r="3" fill="#fbbf24"/><path d="M 573.4347007823089 309.51757186812756 L 565.1101982543878 359.51757186812756 L 530.8990270641516 409.51757186812756" stroke="#10b981" fill="none" opacity="0.4"/>
                    <circle cx="573.4347007823089" cy="309.51757186812756" r="3" fill="#fbbf24"/>
        <text x="600" y="520" font-family="Segoe UI, Arial, sans-serif" font-size="38" font-weight="800" fill="#ffffff" text-anchor="middle">Implementing Advanced Interaction Patterns for Data Visua...</text>
        <text x="600" y="560" font-family="Segoe UI, Arial, sans-serif" font-size="16" font-weight="600" fill="#10b981" text-anchor="middle" style="letter-spacing: 4px; text-transform: uppercase;">UI UX Powerhouse • Specialized Series</text>
    </svg>