<svg width="1200" height="600" viewBox="0 0 1200 600" xmlns="http://www.w3.org/2000/svg">
        <rect width="1200" height="600" fill="#2e1065"/><path d="M 403.1330422310475 25.88864153085524 L 397.35107187461836 75.88864153085524 L 418.0734662586019 125.88864153085524" stroke="#d8b4fe" fill="none" opacity="0.4"/>
                    <circle cx="403.1330422310475" cy="25.88864153085524" r="3" fill="#4ade80"/><path d="M 1054.0494358894648 234.1899208509858 L 1065.1923236056064 284.1899208509858 L 1042.5657290667914 334.1899208509858" stroke="#d8b4fe" fill="none" opacity="0.4"/>
                    <circle cx="1054.0494358894648" cy="234.1899208509858" r="3" fill="#4ade80"/><path d="M 811.887305721757 132.71377161890996 L 798.2124063772517 182.71377161890996 L 803.3782720455747 232.71377161890996" stroke="#d8b4fe" fill="none" opacity="0.4"/>
                    <circle cx="811.887305721757" cy="132.71377161890996" r="3" fill="#4ade80"/><path d="M 567.3445671029185 247.21532788389595 L 553.6491427956207 297.21532788389595 L 518.0678965721654 347.21532788389595" stroke="#d8b4fe" fill="none" opacity="0.4"/>
                    <circle cx="567.3445671029185" cy="247.21532788389595" r="3" fill="#4ade80"/><path d="M 248.78194695920683 384.1167065751506 L 212.11292578573193 434.1167065751506 L 286.7270197835751 484.1167065751506" stroke="#d8b4fe" fill="none" opacity="0.4"/>
                    <circle cx="248.78194695920683" cy="384.1167065751506" r="3" fill="#4ade80"/><path d="M 971.0187390730425 237.67889171504066 L 953.8215965769268 287.67889171504066 L 959.7336439735955 337.67889171504066" stroke="#d8b4fe" fill="none" opacity="0.4"/>
                    <circle cx="971.0187390730425" cy="237.67889171504066" r="3" fill="#4ade80"/><path d="M 412.1194020823168 240.0571211343049 L 451.1702562276696 290.0571211343049 L 433.98828904419133 340.0571211343049" stroke="#d8b4fe" fill="none" opacity="0.4"/>
                    <circle cx="412.1194020823168" cy="240.0571211343049" r="3" fill="#4ade80"/><path d="M 745.2797699631901 208.93323635245906 L 706.3697823148232 258.93323635245906 L 696.76463782057 308.93323635245906" stroke="#d8b4fe" fill="none" opacity="0.4"/>
                    <circle cx="745.2797699631901" cy="208.93323635245906" r="3" fill="#4ade80"/><path d="M 365.79708959507116 375.47273940399464 L 399.1163454789785 425.47273940399464 L 341.0129727282765 475.47273940399464" stroke="#d8b4fe" fill="none" opacity="0.4"/>
                    <circle cx="365.79708959507116" cy="375.47273940399464" r="3" fill="#4ade80"/><path d="M 406.3777587376535 191.8876674671992 L 429.12758902511996 241.8876674671992 L 368.8630351838583 291.8876674671992" stroke="#d8b4fe" fill="none" opacity="0.4"/>
                    <circle cx="406.3777587376535" cy="191.8876674671992" r="3" fill="#4ade80"/>
        <text x="600" y="520" font-family="Segoe UI, Arial, sans-serif" font-size="38" font-weight="800" fill="#ffffff" text-anchor="middle">Implementing Context-Aware Tooltips in React: Enhancing U...</text>
        <text x="600" y="560" font-family="Segoe UI, Arial, sans-serif" font-size="16" font-weight="600" fill="#d8b4fe" text-anchor="middle" style="letter-spacing: 4px; text-transform: uppercase;">UI UX Powerhouse • Specialized Series</text>
    </svg>