<svg width="1200" height="600" viewBox="0 0 1200 600" xmlns="http://www.w3.org/2000/svg">
            <rect width="1200" height="600" fill="#0f172a"/><circle cx="658.4780571007286" cy="19.04067357063468" r="10.88144588356954" fill="#38bdf8" opacity="0.1"/><circle cx="874.3008503988676" cy="277.18320878993836" r="39.09270393625775" fill="#38bdf8" opacity="0.1"/><circle cx="529.7926704239217" cy="247.00322241624235" r="11.295203316185507" fill="#38bdf8" opacity="0.1"/><circle cx="570.168018349068" cy="326.55022485269" r="29.615430688463675" fill="#38bdf8" opacity="0.1"/><circle cx="42.083645573075046" cy="147.27844319932046" r="33.15298119181534" fill="#38bdf8" opacity="0.1"/><circle cx="99.04721232087468" cy="232.42117822373984" r="15.156946778297424" fill="#38bdf8" opacity="0.1"/><circle cx="498.3669161611033" cy="270.0594005866151" r="48.39552027086029" fill="#38bdf8" opacity="0.1"/><circle cx="534.9527401820524" cy="278.13389782386366" r="44.3452516925754" fill="#38bdf8" opacity="0.1"/><circle cx="934.738678677968" cy="157.11253420158755" r="17.605156773352064" fill="#38bdf8" opacity="0.1"/><circle cx="229.54642099430203" cy="221.67949170907377" r="46.66731360790436" fill="#38bdf8" opacity="0.1"/><circle cx="547.8015294116631" cy="153.3601608621396" r="29.83405914054856" fill="#38bdf8" opacity="0.1"/><circle cx="774.3144202082476" cy="349.2598672313761" r="40.369622415455524" fill="#38bdf8" opacity="0.1"/><circle cx="722.9307795259956" cy="12.487575313571142" r="11.458677884947974" fill="#38bdf8" opacity="0.1"/><circle cx="867.4658301904856" cy="45.49710039200363" r="27.879812965911697" fill="#38bdf8" opacity="0.1"/><circle cx="501.69635755955824" cy="370.50093398065655" r="34.287925199769234" fill="#38bdf8" opacity="0.1"/><circle cx="1177.0522468071704" cy="110.69462121377" r="44.27519453471177" fill="#38bdf8" opacity="0.1"/><circle cx="703.155996039186" cy="327.3586418334162" r="41.71049688862695" fill="#38bdf8" opacity="0.1"/><circle cx="852.6300431869458" cy="2.080402044521179" r="33.245113138127635" fill="#38bdf8" opacity="0.1"/><circle cx="211.19873449747502" cy="110.06243237243325" r="34.60033286917678" fill="#38bdf8" opacity="0.1"/><circle cx="325.1371399015625" cy="9.97851611864462" r="46.030368098581675" fill="#38bdf8" opacity="0.1"/><circle cx="1035.4706091853586" cy="56.116088995622704" r="48.26756323927839" fill="#38bdf8" opacity="0.1"/><circle cx="890.3479947409323" cy="361.49065481649814" r="38.754760421325045" fill="#38bdf8" opacity="0.1"/><circle cx="44.47544603244751" cy="94.3264047192315" r="45.780242971959524" fill="#38bdf8" opacity="0.1"/><circle cx="237.97952622844605" cy="260.6987261424365" r="36.256363168140524" fill="#38bdf8" opacity="0.1"/><circle cx="805.9058179362182" cy="392.7368382457644" r="38.95511686725513" fill="#38bdf8" opacity="0.1"/><circle cx="207.30800471610564" cy="92.20187256032659" r="48.7422018234065" fill="#38bdf8" opacity="0.1"/><circle cx="974.7121466316457" cy="289.8093334202713" r="24.027331433953805" fill="#38bdf8" opacity="0.1"/><circle cx="747.8303322572174" cy="224.8058855358977" r="49.26885405315261" fill="#38bdf8" opacity="0.1"/><circle cx="72.45330173973343" cy="367.05481488079386" r="49.06285715616832" fill="#38bdf8" opacity="0.1"/><circle cx="88.50863167899661" cy="209.188308413286" r="32.54680105135776" fill="#38bdf8" opacity="0.1"/>
            <text x="600" y="520" font-family="Segoe UI, Arial, sans-serif" font-size="38" font-weight="800" fill="#ffffff" text-anchor="middle">Implementing AR-Enhanced Data Visualization: Best Practic...</text>
            <text x="600" y="560" font-family="Segoe UI, Arial, sans-serif" font-size="16" font-weight="600" fill="#38bdf8" text-anchor="middle" style="letter-spacing: 4px; text-transform: uppercase;">UI UX Powerhouse • Specialized Series</text>
        </svg>