<svg width="1200" height="600" viewBox="0 0 1200 600" xmlns="http://www.w3.org/2000/svg">
        
            <rect width="1200" height="600" fill="#312e81"/>
            <line x1="1132.7567750595335" y1="50.75946269062115" x2="1178.760336740379" y2="159.64154781177058" stroke="#818cf8" stroke-width="0.5" opacity="0.4"/><line x1="1132.7567750595335" y1="50.75946269062115" x2="83.55687014191062" y2="258.5680507148936" stroke="#818cf8" stroke-width="0.5" opacity="0.4"/><line x1="1132.7567750595335" y1="50.75946269062115" x2="821.5369059849763" y2="196.21304445099668" stroke="#818cf8" stroke-width="0.5" opacity="0.4"/><line x1="1132.7567750595335" y1="50.75946269062115" x2="731.4249817338577" y2="123.485787910613" stroke="#818cf8" stroke-width="0.5" opacity="0.4"/><line x1="1178.760336740379" y1="159.64154781177058" x2="83.55687014191062" y2="258.5680507148936" stroke="#818cf8" stroke-width="0.5" opacity="0.4"/><line x1="1178.760336740379" y1="159.64154781177058" x2="731.4249817338577" y2="123.485787910613" stroke="#818cf8" stroke-width="0.5" opacity="0.4"/><line x1="726.2859798760473" y1="134.75068905572698" x2="83.55687014191062" y2="258.5680507148936" stroke="#818cf8" stroke-width="0.5" opacity="0.4"/><line x1="726.2859798760473" y1="134.75068905572698" x2="1179.2903213933641" y2="125.20437720136215" stroke="#818cf8" stroke-width="0.5" opacity="0.4"/><line x1="83.55687014191062" y1="258.5680507148936" x2="821.5369059849763" y2="196.21304445099668" stroke="#818cf8" stroke-width="0.5" opacity="0.4"/><line x1="83.55687014191062" y1="258.5680507148936" x2="731.4249817338577" y2="123.485787910613" stroke="#818cf8" stroke-width="0.5" opacity="0.4"/><line x1="83.55687014191062" y1="258.5680507148936" x2="1121.0100787880947" y2="233.18654563731798" stroke="#818cf8" stroke-width="0.5" opacity="0.4"/><line x1="821.5369059849763" y1="196.21304445099668" x2="1179.2903213933641" y2="125.20437720136215" stroke="#818cf8" stroke-width="0.5" opacity="0.4"/><line x1="821.5369059849763" y1="196.21304445099668" x2="975.4670223002904" y2="305.2741034516657" stroke="#818cf8" stroke-width="0.5" opacity="0.4"/><line x1="821.5369059849763" y1="196.21304445099668" x2="47.24081608655979" y2="222.34492226707516" stroke="#818cf8" stroke-width="0.5" opacity="0.4"/><line x1="1179.2903213933641" y1="125.20437720136215" x2="829.6383493004214" y2="80.85917016578605" stroke="#818cf8" stroke-width="0.5" opacity="0.4"/><line x1="1179.2903213933641" y1="125.20437720136215" x2="975.4670223002904" y2="305.2741034516657" stroke="#818cf8" stroke-width="0.5" opacity="0.4"/><line x1="1179.2903213933641" y1="125.20437720136215" x2="1121.0100787880947" y2="233.18654563731798" stroke="#818cf8" stroke-width="0.5" opacity="0.4"/><line x1="731.4249817338577" y1="123.485787910613" x2="1121.0100787880947" y2="233.18654563731798" stroke="#818cf8" stroke-width="0.5" opacity="0.4"/><line x1="829.6383493004214" y1="80.85917016578605" x2="975.4670223002904" y2="305.2741034516657" stroke="#818cf8" stroke-width="0.5" opacity="0.4"/><line x1="829.6383493004214" y1="80.85917016578605" x2="1121.0100787880947" y2="233.18654563731798" stroke="#818cf8" stroke-width="0.5" opacity="0.4"/><line x1="975.4670223002904" y1="305.2741034516657" x2="663.0875099479454" y2="111.39598932295485" stroke="#818cf8" stroke-width="0.5" opacity="0.4"/>
            <circle cx="1132.7567750595335" cy="50.75946269062115" r="2.8572953199982294" fill="#fcd34d" opacity="0.6"/><circle cx="1178.760336740379" cy="159.64154781177058" r="5.479123067809269" fill="#fcd34d" opacity="0.6"/><circle cx="726.2859798760473" cy="134.75068905572698" r="5.024019731012231" fill="#fcd34d" opacity="0.6"/><circle cx="83.55687014191062" cy="258.5680507148936" r="5.96280927348198" fill="#fcd34d" opacity="0.6"/><circle cx="821.5369059849763" cy="196.21304445099668" r="5.625019169336156" fill="#fcd34d" opacity="0.6"/><circle cx="1179.2903213933641" cy="125.20437720136215" r="2.4741965386492666" fill="#fcd34d" opacity="0.6"/><circle cx="731.4249817338577" cy="123.485787910613" r="5.90291957451268" fill="#fcd34d" opacity="0.6"/><circle cx="829.6383493004214" cy="80.85917016578605" r="4.57038993560127" fill="#fcd34d" opacity="0.6"/><circle cx="975.4670223002904" cy="305.2741034516657" r="2.392074201865398" fill="#fcd34d" opacity="0.6"/><circle cx="663.0875099479454" cy="111.39598932295485" r="5.145824450031796" fill="#fcd34d" opacity="0.6"/><circle cx="47.24081608655979" cy="222.34492226707516" r="3.242376303704077" fill="#fcd34d" opacity="0.6"/><circle cx="1121.0100787880947" cy="233.18654563731798" r="2.3727700355630077" fill="#fcd34d" opacity="0.6"/>
        
        <text x="600" y="520" font-family="Segoe UI, Arial, sans-serif" font-size="38" font-weight="800" fill="#ffffff" text-anchor="middle">Implementing Advanced Gesture Recognition for Complex Nav...</text>
        <text x="600" y="560" font-family="Segoe UI, Arial, sans-serif" font-size="16" font-weight="600" fill="#818cf8" text-anchor="middle" style="letter-spacing: 4px; text-transform: uppercase;">UI UX Powerhouse • Intelligence in Design</text>
    </svg>