<svg width="1200" height="600" viewBox="0 0 1200 600" xmlns="http://www.w3.org/2000/svg">
        <rect width="1200" height="600" fill="#0f172a"/><circle cx="660.273868268996" cy="156.65846921483535" r="40.47620044417272" fill="#38bdf8" opacity="0.1"/><circle cx="360.59831779057276" cy="48.50889183871914" r="16.016324259107932" fill="#38bdf8" opacity="0.1"/><circle cx="1029.5959128139657" cy="188.18623062543338" r="32.10424268301267" fill="#38bdf8" opacity="0.1"/><circle cx="595.4190833178473" cy="68.58797355598654" r="11.740436799645977" fill="#38bdf8" opacity="0.1"/><circle cx="413.3915929654904" cy="122.49210649788438" r="11.41030778795539" fill="#38bdf8" opacity="0.1"/><circle cx="273.1127192979329" cy="292.1680126881256" r="29.994994104090438" fill="#38bdf8" opacity="0.1"/><circle cx="646.4379903776717" cy="189.32580297831691" r="49.381261515809456" fill="#38bdf8" opacity="0.1"/><circle cx="341.94927290845953" cy="278.8817222668513" r="32.01652890547848" fill="#38bdf8" opacity="0.1"/><circle cx="1086.2541383325151" cy="168.864097898404" r="34.58143434909289" fill="#38bdf8" opacity="0.1"/><circle cx="316.6907431004802" cy="135.05197166159633" r="18.829813681577434" fill="#38bdf8" opacity="0.1"/><circle cx="898.2475968567087" cy="239.59397483049543" r="10.348979227710515" fill="#38bdf8" opacity="0.1"/><circle cx="960.2590903821692" cy="290.6950791509871" r="30.85728988844494" fill="#38bdf8" opacity="0.1"/><circle cx="1185.7367634052935" cy="79.92702829578775" r="36.9966208922051" fill="#38bdf8" opacity="0.1"/><circle cx="28.898128906439524" cy="155.7149664411554" r="19.553514912240644" fill="#38bdf8" opacity="0.1"/><circle cx="515.4901756359322" cy="40.14454587995715" r="12.741167152416892" fill="#38bdf8" opacity="0.1"/><circle cx="435.79875567083945" cy="51.18131740819081" r="19.87335950099805" fill="#38bdf8" opacity="0.1"/><circle cx="117.9268577026562" cy="44.30720117234159" r="48.12445544939692" fill="#38bdf8" opacity="0.1"/><circle cx="772.1149131649327" cy="351.05403035340714" r="28.551484378513123" fill="#38bdf8" opacity="0.1"/><circle cx="125.77978619301575" cy="9.590007842143677" r="12.66478205153362" fill="#38bdf8" opacity="0.1"/><circle cx="918.9817478683835" cy="365.4357016697759" r="17.02451462119825" fill="#38bdf8" opacity="0.1"/><circle cx="675.4413967093569" cy="216.09681398404064" r="33.82006200228716" fill="#38bdf8" opacity="0.1"/><circle cx="807.169033325772" cy="242.50701185810613" r="49.51545264289962" fill="#38bdf8" opacity="0.1"/><circle cx="140.30253613600507" cy="367.8522285306826" r="11.31263849689276" fill="#38bdf8" opacity="0.1"/><circle cx="113.97827759210486" cy="135.5237044421301" r="17.537788276022184" fill="#38bdf8" opacity="0.1"/><circle cx="516.0418537740952" cy="60.81028487169533" r="18.78088899269642" fill="#38bdf8" opacity="0.1"/><circle cx="310.13981340583996" cy="120.22989639663137" r="31.02861138211665" fill="#38bdf8" opacity="0.1"/><circle cx="814.7530743255629" cy="358.2490771704215" r="36.644266807998065" fill="#38bdf8" opacity="0.1"/><circle cx="1030.2472982357358" cy="287.9976575841283" r="49.27607557383453" fill="#38bdf8" opacity="0.1"/><circle cx="551.5319096542953" cy="30.302120275246125" r="24.934145126317162" fill="#38bdf8" opacity="0.1"/><circle cx="946.1266909814185" cy="226.50905731970852" r="42.31821084627882" fill="#38bdf8" opacity="0.1"/>
        <text x="600" y="520" font-family="Segoe UI, Arial, sans-serif" font-size="38" font-weight="800" fill="#ffffff" text-anchor="middle">Implementing Contextual Tooltips with ARIA Attributes for...</text>
        <text x="600" y="560" font-family="Segoe UI, Arial, sans-serif" font-size="16" font-weight="600" fill="#38bdf8" text-anchor="middle" style="letter-spacing: 4px; text-transform: uppercase;">UI UX Powerhouse • Specialized Series</text>
    </svg>