<svg width="1200" height="600" viewBox="0 0 1200 600" xmlns="http://www.w3.org/2000/svg">
            <rect width="1200" height="600" fill="#1e1b4b"/><circle cx="463.2085044802807" cy="100.8420383263001" r="39.799138640009915" fill="#f43f5e" opacity="0.1"/><circle cx="259.36639307183214" cy="208.8600126302481" r="21.265850900708756" fill="#f43f5e" opacity="0.1"/><circle cx="843.7074495654088" cy="38.0700381603674" r="35.7719989774705" fill="#f43f5e" opacity="0.1"/><circle cx="1026.4587865691283" cy="165.99081446183845" r="13.755584635077867" fill="#f43f5e" opacity="0.1"/><circle cx="188.16202484376845" cy="33.57804991173907" r="32.43286924524" fill="#f43f5e" opacity="0.1"/><circle cx="464.482029264218" cy="36.311056600970915" r="15.40668178742635" fill="#f43f5e" opacity="0.1"/><circle cx="612.2718348236958" cy="143.9709206475527" r="13.28281947899086" fill="#f43f5e" opacity="0.1"/><circle cx="436.9596648059087" cy="306.64902052885736" r="35.0369457411216" fill="#f43f5e" opacity="0.1"/><circle cx="374.86744446759985" cy="2.9685974321182584" r="31.180775056345738" fill="#f43f5e" opacity="0.1"/><circle cx="748.7969640897063" cy="205.2666227122245" r="25.474958485210664" fill="#f43f5e" opacity="0.1"/><circle cx="901.1517853570695" cy="109.2298706244037" r="26.826876467057446" fill="#f43f5e" opacity="0.1"/><circle cx="66.34175446142763" cy="162.6428676310752" r="14.148053852259181" fill="#f43f5e" opacity="0.1"/><circle cx="684.229898560443" cy="356.7725141234405" r="28.955932257740642" fill="#f43f5e" opacity="0.1"/><circle cx="5.841579573461786" cy="325.51900774669775" r="39.07812889156048" fill="#f43f5e" opacity="0.1"/><circle cx="907.6919637678657" cy="40.65610757934337" r="29.514019550515513" fill="#f43f5e" opacity="0.1"/><circle cx="925.7900676689246" cy="342.7425170208153" r="16.160307146565174" fill="#f43f5e" opacity="0.1"/><circle cx="138.44315063543036" cy="348.3665005849616" r="15.13702144700801" fill="#f43f5e" opacity="0.1"/><circle cx="782.2363030278211" cy="143.07678479781316" r="36.49793701399176" fill="#f43f5e" opacity="0.1"/><circle cx="382.4179997347528" cy="284.67396068044764" r="44.93333708655882" fill="#f43f5e" opacity="0.1"/><circle cx="272.08797170569596" cy="104.18601747878711" r="17.510485858292668" fill="#f43f5e" opacity="0.1"/><circle cx="175.22683615461574" cy="156.4371396874776" r="48.81345483370751" fill="#f43f5e" opacity="0.1"/><circle cx="409.71118769775785" cy="397.6010177342687" r="22.69976120501724" fill="#f43f5e" opacity="0.1"/><circle cx="592.4593446873587" cy="374.6239888321725" r="44.18782836086393" fill="#f43f5e" opacity="0.1"/><circle cx="155.0311398026679" cy="209.74556255132484" r="17.39023950343835" fill="#f43f5e" opacity="0.1"/><circle cx="460.56314551169635" cy="337.9599848871294" r="12.022047238906453" fill="#f43f5e" opacity="0.1"/><circle cx="77.63428545076749" cy="121.20604161209485" r="28.17476135979632" fill="#f43f5e" opacity="0.1"/><circle cx="724.5639469234447" cy="251.86145106745244" r="30.530299018464575" fill="#f43f5e" opacity="0.1"/><circle cx="457.3809283985611" cy="305.9491292464372" r="26.346435887462576" fill="#f43f5e" opacity="0.1"/><circle cx="958.6510564100536" cy="165.91038650585688" r="20.198329501126864" fill="#f43f5e" opacity="0.1"/><circle cx="313.3268223026789" cy="269.2201046884293" r="22.333416752553603" fill="#f43f5e" opacity="0.1"/>
            <text x="600" y="520" font-family="Segoe UI, Arial, sans-serif" font-size="38" font-weight="800" fill="#ffffff" text-anchor="middle">Implementing Advanced AR Gestures for Enhanced User Inter...</text>
            <text x="600" y="560" font-family="Segoe UI, Arial, sans-serif" font-size="16" font-weight="600" fill="#f43f5e" text-anchor="middle" style="letter-spacing: 4px; text-transform: uppercase;">UI UX Powerhouse • Specialized Series</text>
        </svg>