<svg width="1200" height="600" viewBox="0 0 1200 600" xmlns="http://www.w3.org/2000/svg">
        <rect width="1200" height="600" fill="#2e1065"/><rect x="150" y="148.8608327901602" width="60" height="201.1391672098398" fill="#d8b4fe" opacity="0.6"/>
                    <rect x="170" y="128.8608327901602" width="60" height="201.1391672098398" fill="#a855f7" opacity="0.4" transform="skewY(-20)"/><rect x="270" y="158.3307705761399" width="60" height="191.6692294238601" fill="#d8b4fe" opacity="0.6"/>
                    <rect x="290" y="138.3307705761399" width="60" height="191.6692294238601" fill="#a855f7" opacity="0.4" transform="skewY(-20)"/><rect x="390" y="145.93155536072118" width="60" height="204.06844463927882" fill="#d8b4fe" opacity="0.6"/>
                    <rect x="410" y="125.93155536072118" width="60" height="204.06844463927882" fill="#a855f7" opacity="0.4" transform="skewY(-20)"/><rect x="510" y="274.227583872198" width="60" height="75.77241612780199" fill="#d8b4fe" opacity="0.6"/>
                    <rect x="530" y="254.227583872198" width="60" height="75.77241612780199" fill="#a855f7" opacity="0.4" transform="skewY(-20)"/><rect x="630" y="218.82815005128577" width="60" height="131.17184994871423" fill="#d8b4fe" opacity="0.6"/>
                    <rect x="650" y="198.82815005128577" width="60" height="131.17184994871423" fill="#a855f7" opacity="0.4" transform="skewY(-20)"/><rect x="750" y="263.47620863607517" width="60" height="86.52379136392483" fill="#d8b4fe" opacity="0.6"/>
                    <rect x="770" y="243.47620863607517" width="60" height="86.52379136392483" fill="#a855f7" opacity="0.4" transform="skewY(-20)"/><rect x="870" y="148.5457193948605" width="60" height="201.4542806051395" fill="#d8b4fe" opacity="0.6"/>
                    <rect x="890" y="128.5457193948605" width="60" height="201.4542806051395" fill="#a855f7" opacity="0.4" transform="skewY(-20)"/><rect x="990" y="127.25893408860429" width="60" height="222.7410659113957" fill="#d8b4fe" opacity="0.6"/>
                    <rect x="1010" y="107.25893408860429" width="60" height="222.7410659113957" fill="#a855f7" opacity="0.4" transform="skewY(-20)"/>
        <text x="600" y="520" font-family="Segoe UI, Arial, sans-serif" font-size="38" font-weight="800" fill="#ffffff" text-anchor="middle">Implementing Progressive Enhancement in AR/VR Web Experie...</text>
        <text x="600" y="560" font-family="Segoe UI, Arial, sans-serif" font-size="16" font-weight="600" fill="#d8b4fe" text-anchor="middle" style="letter-spacing: 4px; text-transform: uppercase;">UI UX Powerhouse • Specialized Series</text>
    </svg>