<svg width="1200" height="600" viewBox="0 0 1200 600" xmlns="http://www.w3.org/2000/svg">
        <rect width="1200" height="600" fill="#0c4a6e"/><circle cx="237.71505895383598" cy="318.62390194510226" r="33.169210352543814" fill="#7dd3fc" opacity="0.1"/><circle cx="611.0944551954162" cy="7.301702781478525" r="10.398715596638795" fill="#7dd3fc" opacity="0.1"/><circle cx="860.5205602601927" cy="332.7990378791583" r="41.093092274495575" fill="#7dd3fc" opacity="0.1"/><circle cx="1128.1703402029962" cy="120.16137836817506" r="45.288725444843294" fill="#7dd3fc" opacity="0.1"/><circle cx="845.1074892269389" cy="337.0722154802934" r="42.0343008621785" fill="#7dd3fc" opacity="0.1"/><circle cx="717.1842086187098" cy="36.662930970715024" r="44.83247047406621" fill="#7dd3fc" opacity="0.1"/><circle cx="1121.246602525207" cy="113.60556932886539" r="17.500379544871976" fill="#7dd3fc" opacity="0.1"/><circle cx="1146.1534564197336" cy="59.125790058169514" r="20.028716099404846" fill="#7dd3fc" opacity="0.1"/><circle cx="1179.868565581819" cy="282.0609118549328" r="44.59649986438308" fill="#7dd3fc" opacity="0.1"/><circle cx="676.4879408699926" cy="227.83342409020406" r="26.955627456845832" fill="#7dd3fc" opacity="0.1"/><circle cx="1110.3573007088926" cy="142.76745512033813" r="29.858386605628766" fill="#7dd3fc" opacity="0.1"/><circle cx="321.6967900244846" cy="50.979420512885554" r="16.69337297716993" fill="#7dd3fc" opacity="0.1"/><circle cx="761.6658191436727" cy="187.63300400823937" r="36.01163857851098" fill="#7dd3fc" opacity="0.1"/><circle cx="329.5474454665964" cy="266.35264363076203" r="32.53941975694033" fill="#7dd3fc" opacity="0.1"/><circle cx="492.21817714242206" cy="278.0204409675207" r="46.6824017700128" fill="#7dd3fc" opacity="0.1"/><circle cx="992.8295712567888" cy="364.3406666451483" r="48.20888281828957" fill="#7dd3fc" opacity="0.1"/><circle cx="508.46997428852774" cy="195.741440655911" r="22.690924375601753" fill="#7dd3fc" opacity="0.1"/><circle cx="139.2787262549973" cy="239.02178217831533" r="12.251448345523386" fill="#7dd3fc" opacity="0.1"/><circle cx="927.2132384019642" cy="129.27684935093566" r="48.445931889727945" fill="#7dd3fc" opacity="0.1"/><circle cx="244.1853412776254" cy="336.4856351603521" r="43.81404303574527" fill="#7dd3fc" opacity="0.1"/><circle cx="105.84159669269866" cy="137.36957851342595" r="48.51769201028219" fill="#7dd3fc" opacity="0.1"/><circle cx="177.5526916576382" cy="239.46027951351425" r="21.062214689277425" fill="#7dd3fc" opacity="0.1"/><circle cx="38.588121239081374" cy="218.02746538851352" r="18.172830491239438" fill="#7dd3fc" opacity="0.1"/><circle cx="1131.9718552666018" cy="40.79059706590442" r="29.946012505333783" fill="#7dd3fc" opacity="0.1"/><circle cx="1194.0757894684793" cy="328.5546689257899" r="38.15425469024376" fill="#7dd3fc" opacity="0.1"/><circle cx="1106.153621759222" cy="25.332898244960234" r="29.409363759259577" fill="#7dd3fc" opacity="0.1"/><circle cx="433.505226892521" cy="371.56672340861405" r="42.538369424582925" fill="#7dd3fc" opacity="0.1"/><circle cx="417.201114402269" cy="31.96608277194173" r="13.368355222482933" fill="#7dd3fc" opacity="0.1"/><circle cx="155.537339370494" cy="222.28409487906902" r="42.09670582393301" fill="#7dd3fc" opacity="0.1"/><circle cx="842.6216956715507" cy="289.90861427082564" r="34.64831612036505" fill="#7dd3fc" opacity="0.1"/>
        <text x="600" y="520" font-family="Segoe UI, Arial, sans-serif" font-size="38" font-weight="800" fill="#ffffff" text-anchor="middle">Implementing Multi-Touch Gesture Recognition for Advanced...</text>
        <text x="600" y="560" font-family="Segoe UI, Arial, sans-serif" font-size="16" font-weight="600" fill="#7dd3fc" text-anchor="middle" style="letter-spacing: 4px; text-transform: uppercase;">UI UX Powerhouse • Specialized Series</text>
    </svg>