<svg width="1200" height="600" viewBox="0 0 1200 600" xmlns="http://www.w3.org/2000/svg">
            <rect width="1200" height="600" fill="#2e1065"/><rect x="150" y="256.12381647515576" width="60" height="93.87618352484424" fill="#d8b4fe" opacity="0.6"/>
                    <rect x="170" y="236.12381647515576" width="60" height="93.87618352484424" fill="#a855f7" opacity="0.4" transform="skewY(-20)"/><rect x="270" y="195.12402686341375" width="60" height="154.87597313658625" fill="#d8b4fe" opacity="0.6"/>
                    <rect x="290" y="175.12402686341375" width="60" height="154.87597313658625" fill="#a855f7" opacity="0.4" transform="skewY(-20)"/><rect x="390" y="259.89233562431764" width="60" height="90.10766437568236" fill="#d8b4fe" opacity="0.6"/>
                    <rect x="410" y="239.89233562431764" width="60" height="90.10766437568236" fill="#a855f7" opacity="0.4" transform="skewY(-20)"/><rect x="510" y="187.65164113829087" width="60" height="162.34835886170913" fill="#d8b4fe" opacity="0.6"/>
                    <rect x="530" y="167.65164113829087" width="60" height="162.34835886170913" fill="#a855f7" opacity="0.4" transform="skewY(-20)"/><rect x="630" y="248.25970855963533" width="60" height="101.74029144036467" fill="#d8b4fe" opacity="0.6"/>
                    <rect x="650" y="228.25970855963533" width="60" height="101.74029144036467" fill="#a855f7" opacity="0.4" transform="skewY(-20)"/><rect x="750" y="276.92066384261125" width="60" height="73.07933615738875" fill="#d8b4fe" opacity="0.6"/>
                    <rect x="770" y="256.92066384261125" width="60" height="73.07933615738875" fill="#a855f7" opacity="0.4" transform="skewY(-20)"/><rect x="870" y="214.0025570832222" width="60" height="135.9974429167778" fill="#d8b4fe" opacity="0.6"/>
                    <rect x="890" y="194.0025570832222" width="60" height="135.9974429167778" fill="#a855f7" opacity="0.4" transform="skewY(-20)"/><rect x="990" y="256.6181851179863" width="60" height="93.38181488201371" fill="#d8b4fe" opacity="0.6"/>
                    <rect x="1010" y="236.6181851179863" width="60" height="93.38181488201371" fill="#a855f7" opacity="0.4" transform="skewY(-20)"/>
            <text x="600" y="520" font-family="Segoe UI, Arial, sans-serif" font-size="38" font-weight="800" fill="#ffffff" text-anchor="middle">Implementing Intent-Driven Navigation: Designing Contextu...</text>
            <text x="600" y="560" font-family="Segoe UI, Arial, sans-serif" font-size="16" font-weight="600" fill="#d8b4fe" text-anchor="middle" style="letter-spacing: 4px; text-transform: uppercase;">UI UX Powerhouse • Specialized Series</text>
        </svg>