<svg width="1200" height="600" viewBox="0 0 1200 600" xmlns="http://www.w3.org/2000/svg">
        
            <rect width="1200" height="600" fill="#312e81"/>
            <line x1="136.04489445715444" y1="228.50552112868172" x2="339.34621442240314" y2="331.4248662092723" stroke="#818cf8" stroke-width="0.5" opacity="0.4"/><line x1="136.04489445715444" y1="228.50552112868172" x2="136.3916103298834" y2="92.54116571573832" stroke="#818cf8" stroke-width="0.5" opacity="0.4"/><line x1="136.04489445715444" y1="228.50552112868172" x2="91.7606234223058" y2="19.960328782326542" stroke="#818cf8" stroke-width="0.5" opacity="0.4"/><line x1="136.04489445715444" y1="228.50552112868172" x2="365.66691059088043" y2="263.5645668855432" stroke="#818cf8" stroke-width="0.5" opacity="0.4"/><line x1="136.04489445715444" y1="228.50552112868172" x2="255.74779149101232" y2="179.39366642149253" stroke="#818cf8" stroke-width="0.5" opacity="0.4"/><line x1="588.4767594139703" y1="54.394278896870674" x2="136.3916103298834" y2="92.54116571573832" stroke="#818cf8" stroke-width="0.5" opacity="0.4"/><line x1="588.4767594139703" y1="54.394278896870674" x2="890.7273224103847" y2="216.16757764639942" stroke="#818cf8" stroke-width="0.5" opacity="0.4"/><line x1="339.34621442240314" y1="331.4248662092723" x2="959.5908672072255" y2="358.3869115426751" stroke="#818cf8" stroke-width="0.5" opacity="0.4"/><line x1="339.34621442240314" y1="331.4248662092723" x2="255.74779149101232" y2="179.39366642149253" stroke="#818cf8" stroke-width="0.5" opacity="0.4"/><line x1="719.4162259198492" y1="297.04696146800416" x2="880.3984366903023" y2="394.55741541642055" stroke="#818cf8" stroke-width="0.5" opacity="0.4"/><line x1="719.4162259198492" y1="297.04696146800416" x2="91.7606234223058" y2="19.960328782326542" stroke="#818cf8" stroke-width="0.5" opacity="0.4"/><line x1="136.3916103298834" y1="92.54116571573832" x2="959.5908672072255" y2="358.3869115426751" stroke="#818cf8" stroke-width="0.5" opacity="0.4"/><line x1="136.3916103298834" y1="92.54116571573832" x2="890.7273224103847" y2="216.16757764639942" stroke="#818cf8" stroke-width="0.5" opacity="0.4"/><line x1="959.5908672072255" y1="358.3869115426751" x2="890.7273224103847" y2="216.16757764639942" stroke="#818cf8" stroke-width="0.5" opacity="0.4"/><line x1="890.7273224103847" y1="216.16757764639942" x2="365.66691059088043" y2="263.5645668855432" stroke="#818cf8" stroke-width="0.5" opacity="0.4"/><line x1="441.2267167492246" y1="377.9622792302689" x2="91.7606234223058" y2="19.960328782326542" stroke="#818cf8" stroke-width="0.5" opacity="0.4"/><line x1="91.7606234223058" y1="19.960328782326542" x2="365.66691059088043" y2="263.5645668855432" stroke="#818cf8" stroke-width="0.5" opacity="0.4"/><line x1="91.7606234223058" y1="19.960328782326542" x2="255.74779149101232" y2="179.39366642149253" stroke="#818cf8" stroke-width="0.5" opacity="0.4"/>
            <circle cx="136.04489445715444" cy="228.50552112868172" r="4.6576082869614766" fill="#fcd34d" opacity="0.6"/><circle cx="588.4767594139703" cy="54.394278896870674" r="4.839586103851616" fill="#fcd34d" opacity="0.6"/><circle cx="339.34621442240314" cy="331.4248662092723" r="4.777747311803978" fill="#fcd34d" opacity="0.6"/><circle cx="719.4162259198492" cy="297.04696146800416" r="2.7275651670970547" fill="#fcd34d" opacity="0.6"/><circle cx="136.3916103298834" cy="92.54116571573832" r="4.504784946322616" fill="#fcd34d" opacity="0.6"/><circle cx="959.5908672072255" cy="358.3869115426751" r="3.1867533645345247" fill="#fcd34d" opacity="0.6"/><circle cx="890.7273224103847" cy="216.16757764639942" r="4.644189280985302" fill="#fcd34d" opacity="0.6"/><circle cx="441.2267167492246" cy="377.9622792302689" r="5.214340286467632" fill="#fcd34d" opacity="0.6"/><circle cx="880.3984366903023" cy="394.55741541642055" r="5.571830014720035" fill="#fcd34d" opacity="0.6"/><circle cx="91.7606234223058" cy="19.960328782326542" r="4.291170434175001" fill="#fcd34d" opacity="0.6"/><circle cx="365.66691059088043" cy="263.5645668855432" r="4.756966895023652" fill="#fcd34d" opacity="0.6"/><circle cx="255.74779149101232" cy="179.39366642149253" r="5.003776516270591" fill="#fcd34d" opacity="0.6"/>
        
        <text x="600" y="520" font-family="Segoe UI, Arial, sans-serif" font-size="38" font-weight="800" fill="#ffffff" text-anchor="middle">Implementing Contextual Design Patterns for Enhanced Usab...</text>
        <text x="600" y="560" font-family="Segoe UI, Arial, sans-serif" font-size="16" font-weight="600" fill="#818cf8" text-anchor="middle" style="letter-spacing: 4px; text-transform: uppercase;">UI UX Powerhouse • Intelligence in Design</text>
    </svg>