<svg width="1200" height="600" viewBox="0 0 1200 600" xmlns="http://www.w3.org/2000/svg">
            <rect width="1200" height="600" fill="#2e1065"/><path d="M 736.3820416032468 50.166490484980386 L 766.4380241134495 100.16649048498039 L 769.5487711051101 150.1664904849804" stroke="#d8b4fe" fill="none" opacity="0.4"/>
                    <circle cx="736.3820416032468" cy="50.166490484980386" r="3" fill="#4ade80"/><path d="M 1133.456707611549 227.7811378618935 L 1117.7996011070718 277.7811378618935 L 1120.1848488506585 327.7811378618935" stroke="#d8b4fe" fill="none" opacity="0.4"/>
                    <circle cx="1133.456707611549" cy="227.7811378618935" r="3" fill="#4ade80"/><path d="M 272.4147958831878 229.63203986619192 L 285.82928681816213 279.6320398661919 L 249.15081865146078 329.6320398661919" stroke="#d8b4fe" fill="none" opacity="0.4"/>
                    <circle cx="272.4147958831878" cy="229.63203986619192" r="3" fill="#4ade80"/><path d="M 591.4553373480885 398.46920453401253 L 581.3506669733215 448.46920453401253 L 550.0245438754064 498.46920453401253" stroke="#d8b4fe" fill="none" opacity="0.4"/>
                    <circle cx="591.4553373480885" cy="398.46920453401253" r="3" fill="#4ade80"/><path d="M 1169.7058074925735 259.1328486272687 L 1196.395994282193 309.1328486272687 L 1170.8518074126005 359.1328486272687" stroke="#d8b4fe" fill="none" opacity="0.4"/>
                    <circle cx="1169.7058074925735" cy="259.1328486272687" r="3" fill="#4ade80"/><path d="M 671.1833822115295 376.6122029215694 L 698.4529048908371 426.6122029215694 L 678.7626388581884 476.6122029215694" stroke="#d8b4fe" fill="none" opacity="0.4"/>
                    <circle cx="671.1833822115295" cy="376.6122029215694" r="3" fill="#4ade80"/><path d="M 970.3982723371155 204.0036741491349 L 964.0521591019933 254.0036741491349 L 965.3107438185543 304.0036741491349" stroke="#d8b4fe" fill="none" opacity="0.4"/>
                    <circle cx="970.3982723371155" cy="204.0036741491349" r="3" fill="#4ade80"/><path d="M 330.86235083828797 318.1755371078907 L 286.07957003105184 368.1755371078907 L 304.9595022293943 418.1755371078907" stroke="#d8b4fe" fill="none" opacity="0.4"/>
                    <circle cx="330.86235083828797" cy="318.1755371078907" r="3" fill="#4ade80"/><path d="M 783.7991548851278 283.9626602115459 L 771.662625148565 333.9626602115459 L 832.5257568310917 383.9626602115459" stroke="#d8b4fe" fill="none" opacity="0.4"/>
                    <circle cx="783.7991548851278" cy="283.9626602115459" r="3" fill="#4ade80"/><path d="M 962.4611416395055 315.01901795199956 L 992.9659622989675 365.01901795199956 L 988.0271705800624 415.01901795199956" stroke="#d8b4fe" fill="none" opacity="0.4"/>
                    <circle cx="962.4611416395055" cy="315.01901795199956" r="3" fill="#4ade80"/>
            <text x="600" y="520" font-family="Segoe UI, Arial, sans-serif" font-size="38" font-weight="800" fill="#ffffff" text-anchor="middle">Implementing Advanced Gesture Recognition for Enhanced In...</text>
            <text x="600" y="560" font-family="Segoe UI, Arial, sans-serif" font-size="16" font-weight="600" fill="#d8b4fe" text-anchor="middle" style="letter-spacing: 4px; text-transform: uppercase;">UI UX Powerhouse • Specialized Series</text>
        </svg>