<svg width="1200" height="600" viewBox="0 0 1200 600" xmlns="http://www.w3.org/2000/svg">
        <rect width="1200" height="600" fill="#171717"/><path d="M 737.5799282108346 157.83872201718623 L 756.7080848144542 207.83872201718623 L 781.3321952054821 257.8387220171862" stroke="#f59e0b" fill="none" opacity="0.4"/>
                    <circle cx="737.5799282108346" cy="157.83872201718623" r="3" fill="#ec4899"/><path d="M 771.5321125182527 214.41450280772187 L 745.5938491131747 264.4145028077219 L 735.2814519408639 314.4145028077219" stroke="#f59e0b" fill="none" opacity="0.4"/>
                    <circle cx="771.5321125182527" cy="214.41450280772187" r="3" fill="#ec4899"/><path d="M 1071.1001398849476 134.20157586806454 L 1102.1513913511399 184.20157586806454 L 1066.2242964268444 234.20157586806454" stroke="#f59e0b" fill="none" opacity="0.4"/>
                    <circle cx="1071.1001398849476" cy="134.20157586806454" r="3" fill="#ec4899"/><path d="M 86.86210425803438 316.90168061577424 L 45.84525685386325 366.90168061577424 L 130.74957981289117 416.90168061577424" stroke="#f59e0b" fill="none" opacity="0.4"/>
                    <circle cx="86.86210425803438" cy="316.90168061577424" r="3" fill="#ec4899"/><path d="M 970.4886589686794 126.37047016687575 L 961.3063097431223 176.37047016687575 L 927.0430017911167 226.37047016687575" stroke="#f59e0b" fill="none" opacity="0.4"/>
                    <circle cx="970.4886589686794" cy="126.37047016687575" r="3" fill="#ec4899"/><path d="M 956.6962654283998 328.0101594855296 L 948.3961125498354 378.0101594855296 L 907.5766109770484 428.0101594855296" stroke="#f59e0b" fill="none" opacity="0.4"/>
                    <circle cx="956.6962654283998" cy="328.0101594855296" r="3" fill="#ec4899"/><path d="M 717.4484083698189 280.1040869466533 L 686.6095156233314 330.1040869466533 L 670.9492609343215 380.1040869466533" stroke="#f59e0b" fill="none" opacity="0.4"/>
                    <circle cx="717.4484083698189" cy="280.1040869466533" r="3" fill="#ec4899"/><path d="M 812.9166988081124 297.2257697900204 L 811.9489137528944 347.2257697900204 L 861.005073546545 397.2257697900204" stroke="#f59e0b" fill="none" opacity="0.4"/>
                    <circle cx="812.9166988081124" cy="297.2257697900204" r="3" fill="#ec4899"/><path d="M 1146.6100872865354 393.00822707918996 L 1103.403431717743 443.00822707918996 L 1111.3127041592634 493.00822707918996" stroke="#f59e0b" fill="none" opacity="0.4"/>
                    <circle cx="1146.6100872865354" cy="393.00822707918996" r="3" fill="#ec4899"/><path d="M 1.138188388722483 25.1608412439964 L 9.92604074058363 75.1608412439964 L 23.11701687922323 125.1608412439964" stroke="#f59e0b" fill="none" opacity="0.4"/>
                    <circle cx="1.138188388722483" cy="25.1608412439964" r="3" fill="#ec4899"/>
        <text x="600" y="520" font-family="Segoe UI, Arial, sans-serif" font-size="38" font-weight="800" fill="#ffffff" text-anchor="middle">Implementing Accessible Data Visualization in Web Applica...</text>
        <text x="600" y="560" font-family="Segoe UI, Arial, sans-serif" font-size="16" font-weight="600" fill="#f59e0b" text-anchor="middle" style="letter-spacing: 4px; text-transform: uppercase;">UI UX Powerhouse • Specialized Series</text>
    </svg>