<svg width="1200" height="600" viewBox="0 0 1200 600" xmlns="http://www.w3.org/2000/svg">
        <rect width="1200" height="600" fill="#171717"/><rect x="150" y="182.0598210699245" width="60" height="167.9401789300755" fill="#f59e0b" opacity="0.6"/>
                    <rect x="170" y="162.0598210699245" width="60" height="167.9401789300755" fill="#fbbf24" opacity="0.4" transform="skewY(-20)"/><rect x="270" y="235.13691947955522" width="60" height="114.86308052044478" fill="#f59e0b" opacity="0.6"/>
                    <rect x="290" y="215.13691947955522" width="60" height="114.86308052044478" fill="#fbbf24" opacity="0.4" transform="skewY(-20)"/><rect x="390" y="148.32544157516168" width="60" height="201.67455842483832" fill="#f59e0b" opacity="0.6"/>
                    <rect x="410" y="128.32544157516168" width="60" height="201.67455842483832" fill="#fbbf24" opacity="0.4" transform="skewY(-20)"/><rect x="510" y="245.59653755568434" width="60" height="104.40346244431566" fill="#f59e0b" opacity="0.6"/>
                    <rect x="530" y="225.59653755568434" width="60" height="104.40346244431566" fill="#fbbf24" opacity="0.4" transform="skewY(-20)"/><rect x="630" y="159.74101856263587" width="60" height="190.25898143736413" fill="#f59e0b" opacity="0.6"/>
                    <rect x="650" y="139.74101856263587" width="60" height="190.25898143736413" fill="#fbbf24" opacity="0.4" transform="skewY(-20)"/><rect x="750" y="178.92021716143063" width="60" height="171.07978283856937" fill="#f59e0b" opacity="0.6"/>
                    <rect x="770" y="158.92021716143063" width="60" height="171.07978283856937" fill="#fbbf24" opacity="0.4" transform="skewY(-20)"/><rect x="870" y="240.75354215001425" width="60" height="109.24645784998575" fill="#f59e0b" opacity="0.6"/>
                    <rect x="890" y="220.75354215001425" width="60" height="109.24645784998575" fill="#fbbf24" opacity="0.4" transform="skewY(-20)"/><rect x="990" y="243.09796511515742" width="60" height="106.90203488484258" fill="#f59e0b" opacity="0.6"/>
                    <rect x="1010" y="223.09796511515742" width="60" height="106.90203488484258" fill="#fbbf24" opacity="0.4" transform="skewY(-20)"/>
        <text x="600" y="520" font-family="Segoe UI, Arial, sans-serif" font-size="38" font-weight="800" fill="#ffffff" text-anchor="middle">Implementing Dynamic Data Binding for Collaborative Desig...</text>
        <text x="600" y="560" font-family="Segoe UI, Arial, sans-serif" font-size="16" font-weight="600" fill="#f59e0b" text-anchor="middle" style="letter-spacing: 4px; text-transform: uppercase;">UI UX Powerhouse • Specialized Series</text>
    </svg>