<svg width="1200" height="600" viewBox="0 0 1200 600" xmlns="http://www.w3.org/2000/svg">
            <rect width="1200" height="600" fill="#111827"/><circle cx="10.390974380788975" cy="251.44013736389752" r="12.110987617888895" fill="#10b981" opacity="0.1"/><circle cx="744.9642069608672" cy="313.4969311315217" r="36.09441356922616" fill="#10b981" opacity="0.1"/><circle cx="172.94055242600734" cy="43.42665920703439" r="34.51392655922973" fill="#10b981" opacity="0.1"/><circle cx="147.15300867101178" cy="46.92794398433762" r="35.165285176744874" fill="#10b981" opacity="0.1"/><circle cx="484.23677475366276" cy="215.3596695898159" r="21.794369882773026" fill="#10b981" opacity="0.1"/><circle cx="211.47675688589516" cy="146.1740224447567" r="39.19142654902316" fill="#10b981" opacity="0.1"/><circle cx="482.83172512929013" cy="97.23130194979603" r="15.3662622003867" fill="#10b981" opacity="0.1"/><circle cx="564.5595347203198" cy="223.24392967566382" r="43.91419449115347" fill="#10b981" opacity="0.1"/><circle cx="488.4404168333276" cy="353.8557181811484" r="13.850976873000036" fill="#10b981" opacity="0.1"/><circle cx="1190.2091542051494" cy="363.70667782703094" r="24.498145162269793" fill="#10b981" opacity="0.1"/><circle cx="343.27849420296843" cy="46.563157867785776" r="46.589488800455" fill="#10b981" opacity="0.1"/><circle cx="869.5794474499053" cy="176.6549021791434" r="49.88429587709106" fill="#10b981" opacity="0.1"/><circle cx="204.5082689386618" cy="175.21795851134812" r="29.048341864363465" fill="#10b981" opacity="0.1"/><circle cx="240.11785609691287" cy="0.04607778464560397" r="45.03930572409445" fill="#10b981" opacity="0.1"/><circle cx="44.72047713279608" cy="109.49445967598876" r="37.425564205004775" fill="#10b981" opacity="0.1"/><circle cx="453.2617636148643" cy="142.02863108603196" r="16.816437863599276" fill="#10b981" opacity="0.1"/><circle cx="619.0254270790319" cy="175.1867346760264" r="24.472797043417813" fill="#10b981" opacity="0.1"/><circle cx="176.59238487299262" cy="244.93596291758877" r="24.950464573594218" fill="#10b981" opacity="0.1"/><circle cx="300.44032492805854" cy="116.52254827822617" r="10.568457154422504" fill="#10b981" opacity="0.1"/><circle cx="416.44600010586146" cy="315.3089562540117" r="15.545173983337008" fill="#10b981" opacity="0.1"/><circle cx="393.28430809327983" cy="3.915516247366213" r="25.8587558628642" fill="#10b981" opacity="0.1"/><circle cx="315.71421814369387" cy="263.8832696698955" r="48.622928129698266" fill="#10b981" opacity="0.1"/><circle cx="826.2185641531687" cy="372.83018135858583" r="19.028942548793566" fill="#10b981" opacity="0.1"/><circle cx="980.1960662320198" cy="63.865061635874554" r="15.681620756731718" fill="#10b981" opacity="0.1"/><circle cx="603.2041981139628" cy="57.40401950388332" r="48.67804556401097" fill="#10b981" opacity="0.1"/><circle cx="1185.5616241999087" cy="130.65736227072193" r="29.426542851651902" fill="#10b981" opacity="0.1"/><circle cx="164.75296788921696" cy="178.79170436572167" r="11.146152713918127" fill="#10b981" opacity="0.1"/><circle cx="1092.3366671711847" cy="221.37191307047033" r="24.799498461998155" fill="#10b981" opacity="0.1"/><circle cx="1010.5438504346239" cy="346.06702483433764" r="49.85023878776701" fill="#10b981" opacity="0.1"/><circle cx="868.4430572408019" cy="90.33326428834698" r="48.65222521890246" fill="#10b981" opacity="0.1"/>
            <text x="600" y="520" font-family="Segoe UI, Arial, sans-serif" font-size="38" font-weight="800" fill="#ffffff" text-anchor="middle">Implementing Context-Aware Navigation in Progressive Web ...</text>
            <text x="600" y="560" font-family="Segoe UI, Arial, sans-serif" font-size="16" font-weight="600" fill="#10b981" text-anchor="middle" style="letter-spacing: 4px; text-transform: uppercase;">UI UX Powerhouse • Specialized Series</text>
        </svg>