<svg width="1200" height="600" viewBox="0 0 1200 600" xmlns="http://www.w3.org/2000/svg">
        <rect width="1200" height="600" fill="#0f172a"/><path d="M 570.2429288256099 38.22116195369745 L 542.3239731578178 88.22116195369745 L 548.1984590816865 138.22116195369745" stroke="#38bdf8" fill="none" opacity="0.4"/>
                    <circle cx="570.2429288256099" cy="38.22116195369745" r="3" fill="#f472b6"/><path d="M 1047.1970126360702 194.95183914223162 L 1020.1607587902345 244.95183914223162 L 1071.2295726797947 294.9518391422316" stroke="#38bdf8" fill="none" opacity="0.4"/>
                    <circle cx="1047.1970126360702" cy="194.95183914223162" r="3" fill="#f472b6"/><path d="M 54.67046636003943 335.3530494568986 L 53.94146059118157 385.3530494568986 L 46.7795755208499 435.3530494568986" stroke="#38bdf8" fill="none" opacity="0.4"/>
                    <circle cx="54.67046636003943" cy="335.3530494568986" r="3" fill="#f472b6"/><path d="M 795.1839835979627 387.9092389383004 L 782.8270582253026 437.9092389383004 L 780.253353178523 487.9092389383004" stroke="#38bdf8" fill="none" opacity="0.4"/>
                    <circle cx="795.1839835979627" cy="387.9092389383004" r="3" fill="#f472b6"/><path d="M 1181.504403785948 387.59192153793265 L 1210.5673413000773 437.59192153793265 L 1152.5703783325298 487.59192153793265" stroke="#38bdf8" fill="none" opacity="0.4"/>
                    <circle cx="1181.504403785948" cy="387.59192153793265" r="3" fill="#f472b6"/><path d="M 953.993697720216 288.0639616661938 L 949.1762223322439 338.0639616661938 L 939.1070849265816 388.0639616661938" stroke="#38bdf8" fill="none" opacity="0.4"/>
                    <circle cx="953.993697720216" cy="288.0639616661938" r="3" fill="#f472b6"/><path d="M 958.1103612163133 388.2678763162403 L 979.0199958051744 438.2678763162403 L 967.69799944434 488.2678763162403" stroke="#38bdf8" fill="none" opacity="0.4"/>
                    <circle cx="958.1103612163133" cy="388.2678763162403" r="3" fill="#f472b6"/><path d="M 285.3846360932039 330.7203888616641 L 328.86296586912067 380.7203888616641 L 329.46082694837173 430.7203888616641" stroke="#38bdf8" fill="none" opacity="0.4"/>
                    <circle cx="285.3846360932039" cy="330.7203888616641" r="3" fill="#f472b6"/><path d="M 608.7572021722735 371.36799240270193 L 564.5064301859748 421.36799240270193 L 657.2335033936724 471.36799240270193" stroke="#38bdf8" fill="none" opacity="0.4"/>
                    <circle cx="608.7572021722735" cy="371.36799240270193" r="3" fill="#f472b6"/><path d="M 110.26697479846916 167.31982229757705 L 155.95615851061666 217.31982229757705 L 91.03980323816359 267.31982229757705" stroke="#38bdf8" fill="none" opacity="0.4"/>
                    <circle cx="110.26697479846916" cy="167.31982229757705" r="3" fill="#f472b6"/>
        <text x="600" y="520" font-family="Segoe UI, Arial, sans-serif" font-size="38" font-weight="800" fill="#ffffff" text-anchor="middle">Implementing Motion Design Principles to Enhance Data Vis...</text>
        <text x="600" y="560" font-family="Segoe UI, Arial, sans-serif" font-size="16" font-weight="600" fill="#38bdf8" text-anchor="middle" style="letter-spacing: 4px; text-transform: uppercase;">UI UX Powerhouse • Specialized Series</text>
    </svg>