<svg width="1200" height="600" viewBox="0 0 1200 600" xmlns="http://www.w3.org/2000/svg">
        <rect width="1200" height="600" fill="#0c4a6e"/><path d="M 724.8415672060219 24.958320445057325 L 706.5619779288681 74.95832044505732 L 679.1216962088583 124.95832044505732" stroke="#7dd3fc" fill="none" opacity="0.4"/>
                    <circle cx="724.8415672060219" cy="24.958320445057325" r="3" fill="#f43f5e"/><path d="M 722.748660077923 83.30359883439087 L 741.2451404710737 133.30359883439087 L 680.4198384410995 183.30359883439087" stroke="#7dd3fc" fill="none" opacity="0.4"/>
                    <circle cx="722.748660077923" cy="83.30359883439087" r="3" fill="#f43f5e"/><path d="M 304.13691625217325 204.64683699974557 L 341.39774057275645 254.64683699974557 L 288.6083411243817 304.6468369997456" stroke="#7dd3fc" fill="none" opacity="0.4"/>
                    <circle cx="304.13691625217325" cy="204.64683699974557" r="3" fill="#f43f5e"/><path d="M 144.14483827495133 369.69740708736936 L 117.34986419901361 419.69740708736936 L 132.77691845942172 469.69740708736936" stroke="#7dd3fc" fill="none" opacity="0.4"/>
                    <circle cx="144.14483827495133" cy="369.69740708736936" r="3" fill="#f43f5e"/><path d="M 106.86392630232149 121.12893626690493 L 119.96090483594344 171.12893626690493 L 130.3484419850065 221.12893626690493" stroke="#7dd3fc" fill="none" opacity="0.4"/>
                    <circle cx="106.86392630232149" cy="121.12893626690493" r="3" fill="#f43f5e"/><path d="M 412.6689275406534 250.44320483793854 L 450.660786311164 300.44320483793854 L 402.12209912310755 350.44320483793854" stroke="#7dd3fc" fill="none" opacity="0.4"/>
                    <circle cx="412.6689275406534" cy="250.44320483793854" r="3" fill="#f43f5e"/><path d="M 795.3880041546654 0.8759444701354369 L 768.6627793639673 50.87594447013544 L 795.9566845924201 100.87594447013544" stroke="#7dd3fc" fill="none" opacity="0.4"/>
                    <circle cx="795.3880041546654" cy="0.8759444701354369" r="3" fill="#f43f5e"/><path d="M 466.128722947542 211.61361641134135 L 444.62037641533243 261.61361641134135 L 481.2609080967377 311.61361641134135" stroke="#7dd3fc" fill="none" opacity="0.4"/>
                    <circle cx="466.128722947542" cy="211.61361641134135" r="3" fill="#f43f5e"/><path d="M 159.1199683571176 316.51299178956833 L 178.48547704043085 366.51299178956833 L 150.40358222552186 416.51299178956833" stroke="#7dd3fc" fill="none" opacity="0.4"/>
                    <circle cx="159.1199683571176" cy="316.51299178956833" r="3" fill="#f43f5e"/><path d="M 4.066909873836266 305.7965881758719 L 39.41349813758279 355.7965881758719 L -29.03267081874219 405.7965881758719" stroke="#7dd3fc" fill="none" opacity="0.4"/>
                    <circle cx="4.066909873836266" cy="305.7965881758719" r="3" fill="#f43f5e"/>
        <text x="600" y="520" font-family="Segoe UI, Arial, sans-serif" font-size="38" font-weight="800" fill="#ffffff" text-anchor="middle">Implementing Custom CSS Properties for Dynamic Theming in...</text>
        <text x="600" y="560" font-family="Segoe UI, Arial, sans-serif" font-size="16" font-weight="600" fill="#7dd3fc" text-anchor="middle" style="letter-spacing: 4px; text-transform: uppercase;">UI UX Powerhouse • Specialized Series</text>
    </svg>