<svg width="1200" height="600" viewBox="0 0 1200 600" xmlns="http://www.w3.org/2000/svg">
        <rect width="1200" height="600" fill="#2e1065"/><circle cx="78.07514426021953" cy="299.9806739819178" r="25.878348911719513" fill="#d8b4fe" opacity="0.1"/><circle cx="724.9163149230299" cy="68.80686176591553" r="14.068886873210431" fill="#d8b4fe" opacity="0.1"/><circle cx="1146.1750278394902" cy="290.8408546478313" r="49.755019976582844" fill="#d8b4fe" opacity="0.1"/><circle cx="587.52063513748" cy="224.18081438117952" r="45.57245850570325" fill="#d8b4fe" opacity="0.1"/><circle cx="716.9870457510115" cy="6.299161518109031" r="44.16558152573998" fill="#d8b4fe" opacity="0.1"/><circle cx="537.5417024100898" cy="190.29264209857502" r="20.86611540082231" fill="#d8b4fe" opacity="0.1"/><circle cx="856.1452064554032" cy="247.40078257764253" r="48.2268855258917" fill="#d8b4fe" opacity="0.1"/><circle cx="304.8795146503835" cy="363.36209538785624" r="36.73329267927329" fill="#d8b4fe" opacity="0.1"/><circle cx="1043.8540145478328" cy="393.2960697246017" r="40.988191956321316" fill="#d8b4fe" opacity="0.1"/><circle cx="74.55031471909024" cy="166.62423713860335" r="39.60955486072635" fill="#d8b4fe" opacity="0.1"/><circle cx="324.45120792181115" cy="34.21084897008768" r="40.302026492354344" fill="#d8b4fe" opacity="0.1"/><circle cx="240.3690526196442" cy="303.86511865463035" r="28.648492886968597" fill="#d8b4fe" opacity="0.1"/><circle cx="168.81408873014152" cy="9.878121314250166" r="35.2146686467313" fill="#d8b4fe" opacity="0.1"/><circle cx="323.08939661561453" cy="62.90671361639397" r="22.559565219053184" fill="#d8b4fe" opacity="0.1"/><circle cx="159.7833997780981" cy="55.437292212445755" r="24.682290322089102" fill="#d8b4fe" opacity="0.1"/><circle cx="1085.5779973280733" cy="278.59221365652047" r="26.16373674471106" fill="#d8b4fe" opacity="0.1"/><circle cx="371.5985931143223" cy="17.160072335900622" r="25.49851641866553" fill="#d8b4fe" opacity="0.1"/><circle cx="497.52392092450464" cy="156.8593291563957" r="15.355573092310806" fill="#d8b4fe" opacity="0.1"/><circle cx="151.32865876075812" cy="301.72712987987325" r="38.07908107060939" fill="#d8b4fe" opacity="0.1"/><circle cx="1139.291829787544" cy="29.107247589126928" r="11.910171526542399" fill="#d8b4fe" opacity="0.1"/><circle cx="864.036359885904" cy="99.77166707030847" r="12.569524634927802" fill="#d8b4fe" opacity="0.1"/><circle cx="889.6134521528893" cy="278.1048142700456" r="37.287191202858594" fill="#d8b4fe" opacity="0.1"/><circle cx="311.0592303750309" cy="201.00976435205666" r="29.54845243383147" fill="#d8b4fe" opacity="0.1"/><circle cx="870.3152279769711" cy="168.42952535043878" r="21.523841920279665" fill="#d8b4fe" opacity="0.1"/><circle cx="1157.0207187898632" cy="218.15576367046106" r="42.10535107678879" fill="#d8b4fe" opacity="0.1"/><circle cx="181.56216605566442" cy="153.78711127486895" r="22.634469751155848" fill="#d8b4fe" opacity="0.1"/><circle cx="1023.2274360067095" cy="240.68359810771653" r="49.49845246323093" fill="#d8b4fe" opacity="0.1"/><circle cx="737.095062039225" cy="21.2637043408904" r="16.28740412692423" fill="#d8b4fe" opacity="0.1"/><circle cx="1079.5869293344367" cy="13.51463965493167" r="35.46608327596914" fill="#d8b4fe" opacity="0.1"/><circle cx="325.6037705923518" cy="75.17546088256495" r="26.458443108713254" fill="#d8b4fe" opacity="0.1"/>
        <text x="600" y="520" font-family="Segoe UI, Arial, sans-serif" font-size="38" font-weight="800" fill="#ffffff" text-anchor="middle">Implementing Scroll-Triggered Microinteractions in Web Ap...</text>
        <text x="600" y="560" font-family="Segoe UI, Arial, sans-serif" font-size="16" font-weight="600" fill="#d8b4fe" text-anchor="middle" style="letter-spacing: 4px; text-transform: uppercase;">UI UX Powerhouse • Specialized Series</text>
    </svg>