<svg width="1200" height="600" viewBox="0 0 1200 600" xmlns="http://www.w3.org/2000/svg">
        <rect width="1200" height="600" fill="#0c4a6e"/><circle cx="1001.5474838895898" cy="12.892739137168974" r="39.42326144504477" fill="#7dd3fc" opacity="0.1"/><circle cx="19.144072397830314" cy="99.67063251497166" r="47.267212890437804" fill="#7dd3fc" opacity="0.1"/><circle cx="398.11966326087713" cy="40.934619999461574" r="20.76043287237553" fill="#7dd3fc" opacity="0.1"/><circle cx="705.1662572088389" cy="64.19443683043937" r="42.572552333876956" fill="#7dd3fc" opacity="0.1"/><circle cx="969.3479703259072" cy="218.06780974156936" r="34.63910481972562" fill="#7dd3fc" opacity="0.1"/><circle cx="530.8876741544736" cy="337.9796123736014" r="28.139791317880736" fill="#7dd3fc" opacity="0.1"/><circle cx="444.19388001115294" cy="226.59603658030392" r="11.967638106916638" fill="#7dd3fc" opacity="0.1"/><circle cx="755.164386726392" cy="129.48674612416653" r="49.1937209963362" fill="#7dd3fc" opacity="0.1"/><circle cx="951.8193136247191" cy="73.9983956082142" r="37.85005828307476" fill="#7dd3fc" opacity="0.1"/><circle cx="649.4839530911122" cy="70.35825727189149" r="22.45788095802709" fill="#7dd3fc" opacity="0.1"/><circle cx="631.2725032297749" cy="394.83611595751427" r="28.337718055263394" fill="#7dd3fc" opacity="0.1"/><circle cx="714.2123433906818" cy="49.95918082386197" r="31.398489316743508" fill="#7dd3fc" opacity="0.1"/><circle cx="681.7832198830729" cy="34.60793391786865" r="24.912349529840867" fill="#7dd3fc" opacity="0.1"/><circle cx="533.8943734763234" cy="263.4612430173547" r="21.584654385660542" fill="#7dd3fc" opacity="0.1"/><circle cx="416.9295305164269" cy="4.841023743574624" r="22.55856344356289" fill="#7dd3fc" opacity="0.1"/><circle cx="605.5131626351795" cy="374.97076737475936" r="13.480735037155682" fill="#7dd3fc" opacity="0.1"/><circle cx="607.392592373435" cy="119.67784372900496" r="41.83194102051857" fill="#7dd3fc" opacity="0.1"/><circle cx="41.02655022361432" cy="151.186693427735" r="14.827067208461813" fill="#7dd3fc" opacity="0.1"/><circle cx="639.7146520943352" cy="284.1223692990752" r="41.63011585915228" fill="#7dd3fc" opacity="0.1"/><circle cx="693.4996685835358" cy="153.30496745518758" r="22.02558217609294" fill="#7dd3fc" opacity="0.1"/><circle cx="246.2522732632351" cy="56.57647545918962" r="44.38017982087331" fill="#7dd3fc" opacity="0.1"/><circle cx="855.5477911941125" cy="355.51900521368225" r="40.95269194172943" fill="#7dd3fc" opacity="0.1"/><circle cx="1150.1099158475881" cy="340.94214389024273" r="27.74572408390668" fill="#7dd3fc" opacity="0.1"/><circle cx="224.85986388419406" cy="146.12670677961432" r="46.59574965808133" fill="#7dd3fc" opacity="0.1"/><circle cx="770.2933329030202" cy="318.3753640681971" r="31.524798012997053" fill="#7dd3fc" opacity="0.1"/><circle cx="449.6427892619977" cy="145.43952700842055" r="17.16197543704766" fill="#7dd3fc" opacity="0.1"/><circle cx="29.705838557674724" cy="217.09162385686795" r="15.400531625455187" fill="#7dd3fc" opacity="0.1"/><circle cx="348.13092561917074" cy="73.56577458958782" r="49.902416824952525" fill="#7dd3fc" opacity="0.1"/><circle cx="703.9089504476578" cy="105.15250444550475" r="14.803210424724966" fill="#7dd3fc" opacity="0.1"/><circle cx="212.69589857135998" cy="50.593787796242395" r="22.427501291167573" fill="#7dd3fc" opacity="0.1"/>
        <text x="600" y="520" font-family="Segoe UI, Arial, sans-serif" font-size="38" font-weight="800" fill="#ffffff" text-anchor="middle">Implementing Advanced Accessibility Features for Voice-Co...</text>
        <text x="600" y="560" font-family="Segoe UI, Arial, sans-serif" font-size="16" font-weight="600" fill="#7dd3fc" text-anchor="middle" style="letter-spacing: 4px; text-transform: uppercase;">UI UX Powerhouse • Specialized Series</text>
    </svg>