<svg width="1200" height="600" viewBox="0 0 1200 600" xmlns="http://www.w3.org/2000/svg">
        
            <rect width="1200" height="600" fill="#f8fafc"/>
            <rect x="100" y="100" width="1000" height="350" rx="10" fill="#ffffff" stroke="#e2e8f0"/>
            <rect x="150" y="198.07718197516806" width="42.857142857142854" height="201.92281802483194" fill="#38bdf8" rx="4"/><rect x="210.71428571428572" y="286.5779216232113" width="42.857142857142854" height="113.4220783767887" fill="#38bdf8" rx="4"/><rect x="271.42857142857144" y="199.49542684876178" width="42.857142857142854" height="200.50457315123822" fill="#38bdf8" rx="4"/><rect x="332.1428571428571" y="264.4461909534584" width="42.857142857142854" height="135.55380904654157" fill="#38bdf8" rx="4"/><rect x="392.8571428571429" y="280.50228344909556" width="42.857142857142854" height="119.49771655090444" fill="#38bdf8" rx="4"/><rect x="453.57142857142856" y="242.31453262636933" width="42.857142857142854" height="157.68546737363067" fill="#38bdf8" rx="4"/><rect x="514.2857142857142" y="269.0363955360226" width="42.857142857142854" height="130.9636044639774" fill="#38bdf8" rx="4"/><rect x="575" y="252.69764256299823" width="42.857142857142854" height="147.30235743700177" fill="#38bdf8" rx="4"/><rect x="635.7142857142858" y="235.07410979182168" width="42.857142857142854" height="164.92589020817832" fill="#38bdf8" rx="4"/><rect x="696.4285714285714" y="281.9741457071359" width="42.857142857142854" height="118.0258542928641" fill="#38bdf8" rx="4"/><rect x="757.1428571428571" y="307.0494839037565" width="42.857142857142854" height="92.95051609624352" fill="#38bdf8" rx="4"/><rect x="817.8571428571429" y="184.34864764458325" width="42.857142857142854" height="215.65135235541675" fill="#38bdf8" rx="4"/><rect x="878.5714285714286" y="306.53959791707166" width="42.857142857142854" height="93.46040208292834" fill="#38bdf8" rx="4"/><rect x="939.2857142857143" y="195.2123142014898" width="42.857142857142854" height="204.7876857985102" fill="#38bdf8" rx="4"/>
        
        <text x="600" y="520" font-family="Segoe UI, Arial" font-size="38" font-weight="800" fill="#f8fafc" text-anchor="middle">Implementing Advanced Predictive Text Features in Web For...</text>
    </svg>