<svg width="1200" height="600" viewBox="0 0 1200 600" xmlns="http://www.w3.org/2000/svg">
        
            <rect width="1200" height="600" fill="#f8fafc"/>
            <rect x="100" y="100" width="1000" height="350" rx="10" fill="#ffffff" stroke="#e2e8f0"/>
            <rect x="150" y="178.67109434137092" width="35.294117647058826" height="221.32890565862908" fill="#fb7185" rx="4"/><rect x="200" y="173.5595836689754" width="35.294117647058826" height="226.4404163310246" fill="#fb7185" rx="4"/><rect x="250" y="278.65261504994123" width="35.294117647058826" height="121.34738495005877" fill="#fb7185" rx="4"/><rect x="300" y="270.3207534861576" width="35.294117647058826" height="129.67924651384237" fill="#fb7185" rx="4"/><rect x="350" y="172.01571159985178" width="35.294117647058826" height="227.98428840014822" fill="#fb7185" rx="4"/><rect x="400" y="187.46014992157143" width="35.294117647058826" height="212.53985007842857" fill="#fb7185" rx="4"/><rect x="450" y="304.8092945763983" width="35.294117647058826" height="95.19070542360168" fill="#fb7185" rx="4"/><rect x="500" y="328.68045453517425" width="35.294117647058826" height="71.31954546482575" fill="#fb7185" rx="4"/><rect x="550" y="347.81738499405037" width="35.294117647058826" height="52.18261500594963" fill="#fb7185" rx="4"/><rect x="600" y="153.79126206444198" width="35.294117647058826" height="246.20873793555802" fill="#fb7185" rx="4"/><rect x="650" y="202.740880201236" width="35.294117647058826" height="197.259119798764" fill="#fb7185" rx="4"/><rect x="700" y="209.22857163477602" width="35.294117647058826" height="190.77142836522398" fill="#fb7185" rx="4"/><rect x="750" y="208.9283840164171" width="35.294117647058826" height="191.0716159835829" fill="#fb7185" rx="4"/><rect x="800" y="349.7431243211395" width="35.294117647058826" height="50.256875678860524" fill="#fb7185" rx="4"/><rect x="850" y="327.7775439766856" width="35.294117647058826" height="72.22245602331441" fill="#fb7185" rx="4"/><rect x="900" y="341.89902445068583" width="35.294117647058826" height="58.10097554931417" fill="#fb7185" rx="4"/><rect x="950" y="270.9930137585616" width="35.294117647058826" height="129.00698624143843" fill="#fb7185" rx="4"/>
        
        <text x="600" y="520" font-family="Segoe UI, Arial" font-size="38" font-weight="800" fill="#f8fafc" text-anchor="middle">Implementing Custom Scroll-based Animations with Intersec...</text>
    </svg>