<svg width="1200" height="600" viewBox="0 0 1200 600" xmlns="http://www.w3.org/2000/svg">
        
            <rect width="1200" height="600" fill="#0f172a"/>
            <line x1="1060.924625998814" y1="384.86981015012134" x2="677.0983313785109" y2="123.09993769231369" stroke="#38bdf8" stroke-width="0.5" opacity="0.4"/><line x1="1060.924625998814" y1="384.86981015012134" x2="177.17681331814674" y2="385.1865510783682" stroke="#38bdf8" stroke-width="0.5" opacity="0.4"/><line x1="1060.924625998814" y1="384.86981015012134" x2="614.006605166287" y2="139.4551178396796" stroke="#38bdf8" stroke-width="0.5" opacity="0.4"/><line x1="677.0983313785109" y1="123.09993769231369" x2="98.13862349201372" y2="217.24641610599065" stroke="#38bdf8" stroke-width="0.5" opacity="0.4"/><line x1="677.0983313785109" y1="123.09993769231369" x2="468.5917430640984" y2="77.46502816262364" stroke="#38bdf8" stroke-width="0.5" opacity="0.4"/><line x1="677.0983313785109" y1="123.09993769231369" x2="1144.5271235239488" y2="333.12239885199233" stroke="#38bdf8" stroke-width="0.5" opacity="0.4"/><line x1="677.0983313785109" y1="123.09993769231369" x2="1076.3630964469485" y2="173.64975963319011" stroke="#38bdf8" stroke-width="0.5" opacity="0.4"/><line x1="677.0983313785109" y1="123.09993769231369" x2="298.2911608979066" y2="12.482568812993122" stroke="#38bdf8" stroke-width="0.5" opacity="0.4"/><line x1="677.0983313785109" y1="123.09993769231369" x2="426.4822186432866" y2="189.98479328511166" stroke="#38bdf8" stroke-width="0.5" opacity="0.4"/><line x1="672.5540772938984" y1="179.53167680097977" x2="1044.0855899672897" y2="147.61026550258975" stroke="#38bdf8" stroke-width="0.5" opacity="0.4"/><line x1="98.13862349201372" y1="217.24641610599065" x2="614.006605166287" y2="139.4551178396796" stroke="#38bdf8" stroke-width="0.5" opacity="0.4"/><line x1="98.13862349201372" y1="217.24641610599065" x2="298.2911608979066" y2="12.482568812993122" stroke="#38bdf8" stroke-width="0.5" opacity="0.4"/><line x1="468.5917430640984" y1="77.46502816262364" x2="1076.3630964469485" y2="173.64975963319011" stroke="#38bdf8" stroke-width="0.5" opacity="0.4"/><line x1="468.5917430640984" y1="77.46502816262364" x2="426.4822186432866" y2="189.98479328511166" stroke="#38bdf8" stroke-width="0.5" opacity="0.4"/><line x1="1144.5271235239488" y1="333.12239885199233" x2="1044.0855899672897" y2="147.61026550258975" stroke="#38bdf8" stroke-width="0.5" opacity="0.4"/><line x1="1144.5271235239488" y1="333.12239885199233" x2="614.006605166287" y2="139.4551178396796" stroke="#38bdf8" stroke-width="0.5" opacity="0.4"/><line x1="1144.5271235239488" y1="333.12239885199233" x2="426.4822186432866" y2="189.98479328511166" stroke="#38bdf8" stroke-width="0.5" opacity="0.4"/><line x1="1076.3630964469485" y1="173.64975963319011" x2="614.006605166287" y2="139.4551178396796" stroke="#38bdf8" stroke-width="0.5" opacity="0.4"/><line x1="1076.3630964469485" y1="173.64975963319011" x2="298.2911608979066" y2="12.482568812993122" stroke="#38bdf8" stroke-width="0.5" opacity="0.4"/><line x1="1044.0855899672897" y1="147.61026550258975" x2="614.006605166287" y2="139.4551178396796" stroke="#38bdf8" stroke-width="0.5" opacity="0.4"/><line x1="1044.0855899672897" y1="147.61026550258975" x2="298.2911608979066" y2="12.482568812993122" stroke="#38bdf8" stroke-width="0.5" opacity="0.4"/>
            <circle cx="1060.924625998814" cy="384.86981015012134" r="3.893580463462058" fill="#f472b6" opacity="0.6"/><circle cx="677.0983313785109" cy="123.09993769231369" r="2.123224549846782" fill="#f472b6" opacity="0.6"/><circle cx="672.5540772938984" cy="179.53167680097977" r="4.733165087382076" fill="#f472b6" opacity="0.6"/><circle cx="177.17681331814674" cy="385.1865510783682" r="3.8314048780339363" fill="#f472b6" opacity="0.6"/><circle cx="98.13862349201372" cy="217.24641610599065" r="2.4248809224804972" fill="#f472b6" opacity="0.6"/><circle cx="468.5917430640984" cy="77.46502816262364" r="3.3292804543307284" fill="#f472b6" opacity="0.6"/><circle cx="1144.5271235239488" cy="333.12239885199233" r="4.884836294811976" fill="#f472b6" opacity="0.6"/><circle cx="1076.3630964469485" cy="173.64975963319011" r="4.051380747871008" fill="#f472b6" opacity="0.6"/><circle cx="1044.0855899672897" cy="147.61026550258975" r="5.259941761309165" fill="#f472b6" opacity="0.6"/><circle cx="614.006605166287" cy="139.4551178396796" r="5.026648069557268" fill="#f472b6" opacity="0.6"/><circle cx="298.2911608979066" cy="12.482568812993122" r="3.9985501058545196" fill="#f472b6" opacity="0.6"/><circle cx="426.4822186432866" cy="189.98479328511166" r="4.426733537904511" fill="#f472b6" opacity="0.6"/>
        
        <text x="600" y="520" font-family="Segoe UI, Arial, sans-serif" font-size="38" font-weight="800" fill="#ffffff" text-anchor="middle">Implementing Context-Aware Micro-Interactions in E-Commer...</text>
        <text x="600" y="560" font-family="Segoe UI, Arial, sans-serif" font-size="16" font-weight="600" fill="#38bdf8" text-anchor="middle" style="letter-spacing: 4px; text-transform: uppercase;">UI UX Powerhouse • Intelligence in Design</text>
    </svg>