<svg width="1200" height="600" viewBox="0 0 1200 600" xmlns="http://www.w3.org/2000/svg">
        <rect width="1200" height="600" fill="#1e1b4b"/><circle cx="981.7286453551787" cy="85.00192667852389" r="38.74636079992342" fill="#f43f5e" opacity="0.1"/><circle cx="979.3957257410511" cy="0.33769578294595703" r="18.260999317753885" fill="#f43f5e" opacity="0.1"/><circle cx="1173.3700450655306" cy="399.7619709969513" r="17.215624506970926" fill="#f43f5e" opacity="0.1"/><circle cx="268.55575577938" cy="344.13726615384803" r="11.764877758760122" fill="#f43f5e" opacity="0.1"/><circle cx="541.59985269348" cy="49.31268605078003" r="32.49321590839827" fill="#f43f5e" opacity="0.1"/><circle cx="79.23552169231698" cy="346.8829235091107" r="26.31993864044489" fill="#f43f5e" opacity="0.1"/><circle cx="210.2459098192412" cy="292.0782693767251" r="18.0093481134827" fill="#f43f5e" opacity="0.1"/><circle cx="457.0786934295029" cy="210.4863767795905" r="18.892021526444296" fill="#f43f5e" opacity="0.1"/><circle cx="1028.5801734309644" cy="269.55517969836365" r="34.98576482919816" fill="#f43f5e" opacity="0.1"/><circle cx="955.896113084691" cy="17.18437963809265" r="44.17514491848124" fill="#f43f5e" opacity="0.1"/><circle cx="219.12788617592014" cy="352.8176086816529" r="35.546041563320614" fill="#f43f5e" opacity="0.1"/><circle cx="479.22943500598194" cy="295.21056545127067" r="46.08442166914756" fill="#f43f5e" opacity="0.1"/><circle cx="1097.8822507873701" cy="316.5986776346472" r="19.399724683662498" fill="#f43f5e" opacity="0.1"/><circle cx="370.4518458005623" cy="52.16005021757155" r="47.168847219452346" fill="#f43f5e" opacity="0.1"/><circle cx="498.3413184301753" cy="220.72176556685008" r="10.997226933432103" fill="#f43f5e" opacity="0.1"/><circle cx="710.8653104358382" cy="74.0815189328714" r="10.947289873511181" fill="#f43f5e" opacity="0.1"/><circle cx="932.0741057794294" cy="5.9581723380688345" r="20.444476134471188" fill="#f43f5e" opacity="0.1"/><circle cx="988.9916283325874" cy="104.42034957668511" r="21.70775883972965" fill="#f43f5e" opacity="0.1"/><circle cx="549.3961203603249" cy="79.22734202293213" r="15.756874925573356" fill="#f43f5e" opacity="0.1"/><circle cx="862.0170930633321" cy="173.37378338415874" r="41.32356019625149" fill="#f43f5e" opacity="0.1"/><circle cx="234.36818491040867" cy="343.6469901644159" r="32.41182100420701" fill="#f43f5e" opacity="0.1"/><circle cx="1085.698170978867" cy="113.10792881122325" r="39.72652694745193" fill="#f43f5e" opacity="0.1"/><circle cx="264.50387706609035" cy="329.0880904227379" r="22.722234876164293" fill="#f43f5e" opacity="0.1"/><circle cx="1114.7235620341235" cy="210.5818055679265" r="28.025080064071517" fill="#f43f5e" opacity="0.1"/><circle cx="156.12552524617058" cy="252.10246932729206" r="30.824992212292273" fill="#f43f5e" opacity="0.1"/><circle cx="872.0491685919114" cy="42.26280434631917" r="21.576212316813326" fill="#f43f5e" opacity="0.1"/><circle cx="531.5225764992647" cy="370.92270818466204" r="14.996352291782387" fill="#f43f5e" opacity="0.1"/><circle cx="1113.897670643928" cy="135.65373171659303" r="20.95579544104112" fill="#f43f5e" opacity="0.1"/><circle cx="49.76109675765201" cy="63.53587733065069" r="27.605840917603928" fill="#f43f5e" opacity="0.1"/><circle cx="899.5643320180534" cy="92.39865914205438" r="35.63095111094299" fill="#f43f5e" opacity="0.1"/>
        <text x="600" y="520" font-family="Segoe UI, Arial, sans-serif" font-size="38" font-weight="800" fill="#ffffff" text-anchor="middle">Implementing Progressive Enhancement for Gesture-Based Na...</text>
        <text x="600" y="560" font-family="Segoe UI, Arial, sans-serif" font-size="16" font-weight="600" fill="#f43f5e" text-anchor="middle" style="letter-spacing: 4px; text-transform: uppercase;">UI UX Powerhouse • Specialized Series</text>
    </svg>