<svg width="1200" height="600" viewBox="0 0 1200 600" xmlns="http://www.w3.org/2000/svg">
        <rect width="1200" height="600" fill="#2e1065"/><path d="M 851.3926946550782 368.00970339063497 L 876.2609680529749 418.00970339063497 L 895.5015587906018 468.00970339063497" stroke="#d8b4fe" fill="none" opacity="0.4"/>
                    <circle cx="851.3926946550782" cy="368.00970339063497" r="3" fill="#4ade80"/><path d="M 562.1683649565966 349.2349641765031 L 555.7166270877133 399.2349641765031 L 539.7383275572793 449.2349641765031" stroke="#d8b4fe" fill="none" opacity="0.4"/>
                    <circle cx="562.1683649565966" cy="349.2349641765031" r="3" fill="#4ade80"/><path d="M 434.18746635798016 99.12849933461985 L 451.4196862319295 149.12849933461985 L 410.7408259810654 199.12849933461985" stroke="#d8b4fe" fill="none" opacity="0.4"/>
                    <circle cx="434.18746635798016" cy="99.12849933461985" r="3" fill="#4ade80"/><path d="M 117.35271763172932 137.4360002228059 L 161.3892412819041 187.4360002228059 L 134.7720573468905 237.4360002228059" stroke="#d8b4fe" fill="none" opacity="0.4"/>
                    <circle cx="117.35271763172932" cy="137.4360002228059" r="3" fill="#4ade80"/><path d="M 587.8125719093077 315.74604600464227 L 607.1374603244294 365.74604600464227 L 569.0655980116389 415.74604600464227" stroke="#d8b4fe" fill="none" opacity="0.4"/>
                    <circle cx="587.8125719093077" cy="315.74604600464227" r="3" fill="#4ade80"/><path d="M 353.28146637548343 93.26515951324836 L 388.5644367150235 143.26515951324836 L 390.2766520343903 193.26515951324836" stroke="#d8b4fe" fill="none" opacity="0.4"/>
                    <circle cx="353.28146637548343" cy="93.26515951324836" r="3" fill="#4ade80"/><path d="M 222.1788330745767 212.01269362281892 L 197.43595583768183 262.0126936228189 L 260.773161058205 312.0126936228189" stroke="#d8b4fe" fill="none" opacity="0.4"/>
                    <circle cx="222.1788330745767" cy="212.01269362281892" r="3" fill="#4ade80"/><path d="M 928.5608580481494 228.24866287810437 L 885.5516809519486 278.24866287810437 L 959.0082116518715 328.24866287810437" stroke="#d8b4fe" fill="none" opacity="0.4"/>
                    <circle cx="928.5608580481494" cy="228.24866287810437" r="3" fill="#4ade80"/><path d="M 135.01313037650107 396.99370329144585 L 107.97310206307884 446.99370329144585 L 100.88944118782592 496.99370329144585" stroke="#d8b4fe" fill="none" opacity="0.4"/>
                    <circle cx="135.01313037650107" cy="396.99370329144585" r="3" fill="#4ade80"/><path d="M 491.5704293246108 260.3805163569632 L 506.41489694376105 310.3805163569632 L 453.0811907882253 360.3805163569632" stroke="#d8b4fe" fill="none" opacity="0.4"/>
                    <circle cx="491.5704293246108" cy="260.3805163569632" r="3" fill="#4ade80"/>
        <text x="600" y="520" font-family="Segoe UI, Arial, sans-serif" font-size="38" font-weight="800" fill="#ffffff" text-anchor="middle">Implementing Alternative Text Generation for Complex SVG ...</text>
        <text x="600" y="560" font-family="Segoe UI, Arial, sans-serif" font-size="16" font-weight="600" fill="#d8b4fe" text-anchor="middle" style="letter-spacing: 4px; text-transform: uppercase;">UI UX Powerhouse • Specialized Series</text>
    </svg>