<svg width="1200" height="600" viewBox="0 0 1200 600" xmlns="http://www.w3.org/2000/svg">
        <rect width="1200" height="600" fill="#0f172a"/><circle cx="554.240852878138" cy="109.37347683720873" r="35.089392887207396" fill="#38bdf8" opacity="0.1"/><circle cx="45.03283880512754" cy="56.80370859663526" r="48.49709267546132" fill="#38bdf8" opacity="0.1"/><circle cx="795.4418794201047" cy="273.9772545064625" r="31.56954846694134" fill="#38bdf8" opacity="0.1"/><circle cx="482.7209815135575" cy="83.42203078791499" r="33.428219238558086" fill="#38bdf8" opacity="0.1"/><circle cx="776.8418538209517" cy="143.08554667841236" r="46.369434960433864" fill="#38bdf8" opacity="0.1"/><circle cx="1045.4346371267548" cy="225.78292490288732" r="18.41728682703433" fill="#38bdf8" opacity="0.1"/><circle cx="87.57262092922247" cy="293.5018883465091" r="35.47417314865015" fill="#38bdf8" opacity="0.1"/><circle cx="327.6302303407647" cy="163.27605922706425" r="19.509253037103917" fill="#38bdf8" opacity="0.1"/><circle cx="653.055208112346" cy="388.2233692234877" r="48.035607870915555" fill="#38bdf8" opacity="0.1"/><circle cx="1143.3251498305253" cy="214.291954098735" r="34.36650195904804" fill="#38bdf8" opacity="0.1"/><circle cx="1163.1507795798825" cy="254.32838171145704" r="31.339101834018948" fill="#38bdf8" opacity="0.1"/><circle cx="373.6605831505585" cy="8.440521579723281" r="27.385253050160827" fill="#38bdf8" opacity="0.1"/><circle cx="206.44149681684212" cy="358.2199203585333" r="44.32345388565409" fill="#38bdf8" opacity="0.1"/><circle cx="228.76598214299975" cy="83.9127766981619" r="45.43745200782723" fill="#38bdf8" opacity="0.1"/><circle cx="595.9669286174176" cy="334.57259835354307" r="29.02501025176207" fill="#38bdf8" opacity="0.1"/><circle cx="714.4357524550287" cy="161.67144136634306" r="40.84849512502842" fill="#38bdf8" opacity="0.1"/><circle cx="797.1409304111148" cy="301.9739398947422" r="16.972450654720888" fill="#38bdf8" opacity="0.1"/><circle cx="602.6164259877987" cy="277.07319141118205" r="43.84471113153268" fill="#38bdf8" opacity="0.1"/><circle cx="828.4452253385098" cy="35.34557390885311" r="38.59708967196639" fill="#38bdf8" opacity="0.1"/><circle cx="756.891158486178" cy="343.88198823071434" r="38.62097728244407" fill="#38bdf8" opacity="0.1"/><circle cx="815.62046449435" cy="236.67219923590892" r="14.950457674749487" fill="#38bdf8" opacity="0.1"/><circle cx="1176.244298829397" cy="227.27935014536342" r="34.7366508362029" fill="#38bdf8" opacity="0.1"/><circle cx="969.8072259045148" cy="32.03803333453834" r="27.00770471667056" fill="#38bdf8" opacity="0.1"/><circle cx="107.97373540481203" cy="141.25381458943593" r="26.816648968087975" fill="#38bdf8" opacity="0.1"/><circle cx="688.1486507176305" cy="96.22711861302378" r="22.21294117734942" fill="#38bdf8" opacity="0.1"/><circle cx="166.1902061827277" cy="272.73297923456994" r="43.267021547326294" fill="#38bdf8" opacity="0.1"/><circle cx="23.687044832149695" cy="184.40666515743942" r="48.66353932015045" fill="#38bdf8" opacity="0.1"/><circle cx="1162.2779616376647" cy="70.69499219780937" r="43.96770256978925" fill="#38bdf8" opacity="0.1"/><circle cx="208.82728711221716" cy="264.78907290438656" r="23.00906005019897" fill="#38bdf8" opacity="0.1"/><circle cx="1090.8567798695003" cy="143.4551445494435" r="21.314624878204995" fill="#38bdf8" opacity="0.1"/>
        <text x="600" y="520" font-family="Segoe UI, Arial, sans-serif" font-size="38" font-weight="800" fill="#ffffff" text-anchor="middle">Implementing Contextual Tooltips with Intersection Observ...</text>
        <text x="600" y="560" font-family="Segoe UI, Arial, sans-serif" font-size="16" font-weight="600" fill="#38bdf8" text-anchor="middle" style="letter-spacing: 4px; text-transform: uppercase;">UI UX Powerhouse • Specialized Series</text>
    </svg>