<svg width="1200" height="600" viewBox="0 0 1200 600" xmlns="http://www.w3.org/2000/svg">
        <rect width="1200" height="600" fill="#0f172a"/><path d="M 172.735754590758 386.18294710540795 L 212.08831559010832 436.18294710540795 L 204.5746355910154 486.18294710540795" stroke="#38bdf8" fill="none" opacity="0.4"/>
                    <circle cx="172.735754590758" cy="386.18294710540795" r="3" fill="#f472b6"/><path d="M 415.54195008138777 200.42396682474646 L 465.0459452801442 250.42396682474646 L 410.2329474888393 300.42396682474646" stroke="#38bdf8" fill="none" opacity="0.4"/>
                    <circle cx="415.54195008138777" cy="200.42396682474646" r="3" fill="#f472b6"/><path d="M 749.9714326830144 83.41190034116153 L 769.5621088749249 133.41190034116153 L 731.6296440400038 183.41190034116153" stroke="#38bdf8" fill="none" opacity="0.4"/>
                    <circle cx="749.9714326830144" cy="83.41190034116153" r="3" fill="#f472b6"/><path d="M 338.2748131909466 134.13601143620326 L 303.09893355251916 184.13601143620326 L 332.3322101505255 234.13601143620326" stroke="#38bdf8" fill="none" opacity="0.4"/>
                    <circle cx="338.2748131909466" cy="134.13601143620326" r="3" fill="#f472b6"/><path d="M 460.11521808941325 71.35157344309846 L 491.467721913682 121.35157344309846 L 490.07148534310545 171.35157344309846" stroke="#38bdf8" fill="none" opacity="0.4"/>
                    <circle cx="460.11521808941325" cy="71.35157344309846" r="3" fill="#f472b6"/><path d="M 639.8767655351548 70.89039967286226 L 652.6449930674062 120.89039967286226 L 641.2346956696638 170.89039967286226" stroke="#38bdf8" fill="none" opacity="0.4"/>
                    <circle cx="639.8767655351548" cy="70.89039967286226" r="3" fill="#f472b6"/><path d="M 750.6675834054477 66.1520055764413 L 763.7555275844534 116.1520055764413 L 769.6932481254407 166.1520055764413" stroke="#38bdf8" fill="none" opacity="0.4"/>
                    <circle cx="750.6675834054477" cy="66.1520055764413" r="3" fill="#f472b6"/><path d="M 235.61958106656675 118.17387331248028 L 246.24652558650268 168.17387331248028 L 193.16179195611767 218.17387331248028" stroke="#38bdf8" fill="none" opacity="0.4"/>
                    <circle cx="235.61958106656675" cy="118.17387331248028" r="3" fill="#f472b6"/><path d="M 835.7514999470368 343.00618502657017 L 844.0266062538456 393.00618502657017 L 826.447249404282 443.00618502657017" stroke="#38bdf8" fill="none" opacity="0.4"/>
                    <circle cx="835.7514999470368" cy="343.00618502657017" r="3" fill="#f472b6"/><path d="M 718.0929022066266 289.7030226133211 L 749.4886628742279 339.7030226133211 L 765.9039235479213 389.7030226133211" stroke="#38bdf8" fill="none" opacity="0.4"/>
                    <circle cx="718.0929022066266" cy="289.7030226133211" r="3" fill="#f472b6"/>
        <text x="600" y="520" font-family="Segoe UI, Arial, sans-serif" font-size="38" font-weight="800" fill="#ffffff" text-anchor="middle">Implementing Custom Scroll-Linked Animations with CSS Scr...</text>
        <text x="600" y="560" font-family="Segoe UI, Arial, sans-serif" font-size="16" font-weight="600" fill="#38bdf8" text-anchor="middle" style="letter-spacing: 4px; text-transform: uppercase;">UI UX Powerhouse • Specialized Series</text>
    </svg>