<svg width="1200" height="600" viewBox="0 0 1200 600" xmlns="http://www.w3.org/2000/svg">
        
            <rect width="1200" height="600" fill="#4c1d95"/>
            <rect x="1005.7027573435334" y="26.922910886787577" width="93.33773262887917" height="93.33773262887917" fill="#a855f7" opacity="0.1" transform="rotate(4.26201886311901 1005.7027573435334 26.922910886787577)"/><rect x="1185.4831356501563" y="41.76599120710307" width="81.74648727772365" height="81.74648727772365" fill="#a855f7" opacity="0.1" transform="rotate(83.49173818405689 1185.4831356501563 41.76599120710307)"/><rect x="1145.8663728117244" y="176.36960959989665" width="78.27458458177716" height="78.27458458177716" fill="#a855f7" opacity="0.1" transform="rotate(40.39887957931569 1145.8663728117244 176.36960959989665)"/><rect x="638.1638502037276" y="234.2622501138976" width="193.3779804995993" height="193.3779804995993" fill="#a855f7" opacity="0.1" transform="rotate(140.3225301385828 638.1638502037276 234.2622501138976)"/><rect x="440.59253259943034" y="188.86947963292187" width="157.67285884348894" height="157.67285884348894" fill="#a855f7" opacity="0.1" transform="rotate(46.49976339882414 440.59253259943034 188.86947963292187)"/><rect x="770.9871717526312" y="378.81100397426053" width="97.94201022687048" height="97.94201022687048" fill="#a855f7" opacity="0.1" transform="rotate(295.23313443125517 770.9871717526312 378.81100397426053)"/><rect x="844.2693523225898" y="124.74190852153697" width="116.37619656594325" height="116.37619656594325" fill="#a855f7" opacity="0.1" transform="rotate(34.850387367478106 844.2693523225898 124.74190852153697)"/><rect x="552.0902628555632" y="284.25268913051696" width="94.17566027336761" height="94.17566027336761" fill="#a855f7" opacity="0.1" transform="rotate(109.28509997313085 552.0902628555632 284.25268913051696)"/><rect x="1113.0984515582895" y="322.0163976584445" width="151.10526097314505" height="151.10526097314505" fill="#a855f7" opacity="0.1" transform="rotate(268.00409795570886 1113.0984515582895 322.0163976584445)"/><rect x="70.47038733026056" y="288.1168407953737" width="188.3046680107327" height="188.3046680107327" fill="#a855f7" opacity="0.1" transform="rotate(9.452472045195464 70.47038733026056 288.1168407953737)"/><rect x="167.55987895448925" y="265.6321595350164" width="105.957472471664" height="105.957472471664" fill="#a855f7" opacity="0.1" transform="rotate(219.16434805192694 167.55987895448925 265.6321595350164)"/><rect x="1103.2550798485318" y="132.63884369407606" width="74.09940239676871" height="74.09940239676871" fill="#a855f7" opacity="0.1" transform="rotate(269.3743115522693 1103.2550798485318 132.63884369407606)"/><rect x="158.72338929984835" y="242.58601470082795" width="110.81194355896287" height="110.81194355896287" fill="#a855f7" opacity="0.1" transform="rotate(335.8903655820541 158.72338929984835 242.58601470082795)"/><rect x="962.7978257176437" y="247.47125074627547" width="159.83706904617065" height="159.83706904617065" fill="#a855f7" opacity="0.1" transform="rotate(150.78994849718583 962.7978257176437 247.47125074627547)"/><rect x="235.88230971682833" y="370.7390516807209" width="197.46833443095966" height="197.46833443095966" fill="#a855f7" opacity="0.1" transform="rotate(36.26920869712194 235.88230971682833 370.7390516807209)"/>
        
        <text x="600" y="520" font-family="Segoe UI, Arial" font-size="38" font-weight="800" fill="#f8fafc" text-anchor="middle">Implementing Visual Bug Tracking in Design Systems: A Cas...</text>
    </svg>