<svg width="1200" height="600" viewBox="0 0 1200 600" xmlns="http://www.w3.org/2000/svg">
        <rect width="1200" height="600" fill="#111827"/><rect x="150" y="112.39623053334071" width="60" height="237.6037694666593" fill="#10b981" opacity="0.6"/>
                    <rect x="170" y="92.39623053334071" width="60" height="237.6037694666593" fill="#34d399" opacity="0.4" transform="skewY(-20)"/><rect x="270" y="250.08035059890972" width="60" height="99.91964940109028" fill="#10b981" opacity="0.6"/>
                    <rect x="290" y="230.08035059890972" width="60" height="99.91964940109028" fill="#34d399" opacity="0.4" transform="skewY(-20)"/><rect x="390" y="283.7636647936961" width="60" height="66.23633520630392" fill="#10b981" opacity="0.6"/>
                    <rect x="410" y="263.7636647936961" width="60" height="66.23633520630392" fill="#34d399" opacity="0.4" transform="skewY(-20)"/><rect x="510" y="264.5431270793779" width="60" height="85.45687292062212" fill="#10b981" opacity="0.6"/>
                    <rect x="530" y="244.54312707937788" width="60" height="85.45687292062212" fill="#34d399" opacity="0.4" transform="skewY(-20)"/><rect x="630" y="171.67103353094717" width="60" height="178.32896646905283" fill="#10b981" opacity="0.6"/>
                    <rect x="650" y="151.67103353094717" width="60" height="178.32896646905283" fill="#34d399" opacity="0.4" transform="skewY(-20)"/><rect x="750" y="248.5047138439768" width="60" height="101.49528615602321" fill="#10b981" opacity="0.6"/>
                    <rect x="770" y="228.5047138439768" width="60" height="101.49528615602321" fill="#34d399" opacity="0.4" transform="skewY(-20)"/><rect x="870" y="210.08816573121294" width="60" height="139.91183426878706" fill="#10b981" opacity="0.6"/>
                    <rect x="890" y="190.08816573121294" width="60" height="139.91183426878706" fill="#34d399" opacity="0.4" transform="skewY(-20)"/><rect x="990" y="188.45956261857282" width="60" height="161.54043738142718" fill="#10b981" opacity="0.6"/>
                    <rect x="1010" y="168.45956261857282" width="60" height="161.54043738142718" fill="#34d399" opacity="0.4" transform="skewY(-20)"/>
        <text x="600" y="520" font-family="Segoe UI, Arial, sans-serif" font-size="38" font-weight="800" fill="#ffffff" text-anchor="middle">Implementing Dynamic Accessibility Grids: Enhancing Keybo...</text>
        <text x="600" y="560" font-family="Segoe UI, Arial, sans-serif" font-size="16" font-weight="600" fill="#10b981" text-anchor="middle" style="letter-spacing: 4px; text-transform: uppercase;">UI UX Powerhouse • Specialized Series</text>
    </svg>