<svg width="1200" height="600" viewBox="0 0 1200 600" xmlns="http://www.w3.org/2000/svg">
        <rect width="1200" height="600" fill="#0f172a"/><rect x="150" y="248.00336662738118" width="60" height="101.99663337261882" fill="#38bdf8" opacity="0.6"/>
                    <rect x="170" y="228.00336662738118" width="60" height="101.99663337261882" fill="#818cf8" opacity="0.4" transform="skewY(-20)"/><rect x="270" y="190.46229355444666" width="60" height="159.53770644555334" fill="#38bdf8" opacity="0.6"/>
                    <rect x="290" y="170.46229355444666" width="60" height="159.53770644555334" fill="#818cf8" opacity="0.4" transform="skewY(-20)"/><rect x="390" y="169.23886562581174" width="60" height="180.76113437418826" fill="#38bdf8" opacity="0.6"/>
                    <rect x="410" y="149.23886562581174" width="60" height="180.76113437418826" fill="#818cf8" opacity="0.4" transform="skewY(-20)"/><rect x="510" y="278.52291468079784" width="60" height="71.47708531920216" fill="#38bdf8" opacity="0.6"/>
                    <rect x="530" y="258.52291468079784" width="60" height="71.47708531920216" fill="#818cf8" opacity="0.4" transform="skewY(-20)"/><rect x="630" y="121.71415310867815" width="60" height="228.28584689132185" fill="#38bdf8" opacity="0.6"/>
                    <rect x="650" y="101.71415310867815" width="60" height="228.28584689132185" fill="#818cf8" opacity="0.4" transform="skewY(-20)"/><rect x="750" y="222.88035582732846" width="60" height="127.11964417267154" fill="#38bdf8" opacity="0.6"/>
                    <rect x="770" y="202.88035582732846" width="60" height="127.11964417267154" fill="#818cf8" opacity="0.4" transform="skewY(-20)"/><rect x="870" y="139.348710026934" width="60" height="210.651289973066" fill="#38bdf8" opacity="0.6"/>
                    <rect x="890" y="119.34871002693399" width="60" height="210.651289973066" fill="#818cf8" opacity="0.4" transform="skewY(-20)"/><rect x="990" y="227.88084318053734" width="60" height="122.11915681946266" fill="#38bdf8" opacity="0.6"/>
                    <rect x="1010" y="207.88084318053734" width="60" height="122.11915681946266" fill="#818cf8" opacity="0.4" transform="skewY(-20)"/>
        <text x="600" y="520" font-family="Segoe UI, Arial, sans-serif" font-size="38" font-weight="800" fill="#ffffff" text-anchor="middle">Implementing Advanced Drag and Drop Interfaces in React w...</text>
        <text x="600" y="560" font-family="Segoe UI, Arial, sans-serif" font-size="16" font-weight="600" fill="#38bdf8" text-anchor="middle" style="letter-spacing: 4px; text-transform: uppercase;">UI UX Powerhouse • Specialized Series</text>
    </svg>