<svg width="1200" height="600" viewBox="0 0 1200 600" xmlns="http://www.w3.org/2000/svg">
            <rect width="1200" height="600" fill="#111827"/><path d="M 419.53311962497537 146.27223803618108 L 448.5090217724064 196.27223803618108 L 462.2073769774943 246.27223803618108" stroke="#10b981" fill="none" opacity="0.4"/>
                    <circle cx="419.53311962497537" cy="146.27223803618108" r="3" fill="#fbbf24"/><path d="M 927.9452255410433 261.5209708858856 L 929.6787403014605 311.5209708858856 L 941.9755174750208 361.5209708858856" stroke="#10b981" fill="none" opacity="0.4"/>
                    <circle cx="927.9452255410433" cy="261.5209708858856" r="3" fill="#fbbf24"/><path d="M 369.6390194072592 362.2493143607926 L 413.36996392210494 412.2493143607926 L 326.0871922288061 462.2493143607926" stroke="#10b981" fill="none" opacity="0.4"/>
                    <circle cx="369.6390194072592" cy="362.2493143607926" r="3" fill="#fbbf24"/><path d="M 351.912934183747 221.740790324111 L 395.5670139913309 271.740790324111 L 356.20694148547045 321.740790324111" stroke="#10b981" fill="none" opacity="0.4"/>
                    <circle cx="351.912934183747" cy="221.740790324111" r="3" fill="#fbbf24"/><path d="M 958.8017510766804 240.50189475383377 L 982.8237192317829 290.50189475383377 L 941.5714777500398 340.50189475383377" stroke="#10b981" fill="none" opacity="0.4"/>
                    <circle cx="958.8017510766804" cy="240.50189475383377" r="3" fill="#fbbf24"/><path d="M 21.559523296309635 29.71234744636604 L -9.674477307089546 79.71234744636604 L 3.2463593705870153 129.71234744636604" stroke="#10b981" fill="none" opacity="0.4"/>
                    <circle cx="21.559523296309635" cy="29.71234744636604" r="3" fill="#fbbf24"/><path d="M 1104.2256063170498 113.1814491986006 L 1153.9468363134802 163.1814491986006 L 1083.9869652698326 213.1814491986006" stroke="#10b981" fill="none" opacity="0.4"/>
                    <circle cx="1104.2256063170498" cy="113.1814491986006" r="3" fill="#fbbf24"/><path d="M 889.2497309556347 239.76532874876284 L 867.2363905388693 289.76532874876284 L 860.8984910375511 339.76532874876284" stroke="#10b981" fill="none" opacity="0.4"/>
                    <circle cx="889.2497309556347" cy="239.76532874876284" r="3" fill="#fbbf24"/><path d="M 57.442382776025624 72.0073142372712 L 9.30381046491675 122.0073142372712 L 33.86184854680323 172.0073142372712" stroke="#10b981" fill="none" opacity="0.4"/>
                    <circle cx="57.442382776025624" cy="72.0073142372712" r="3" fill="#fbbf24"/><path d="M 460.2634264876542 272.9737606518029 L 426.8680775387111 322.9737606518029 L 430.1089444783429 372.9737606518029" stroke="#10b981" fill="none" opacity="0.4"/>
                    <circle cx="460.2634264876542" cy="272.9737606518029" r="3" fill="#fbbf24"/>
            <text x="600" y="520" font-family="Segoe UI, Arial, sans-serif" font-size="38" font-weight="800" fill="#ffffff" text-anchor="middle">Implementing Time-Sensitive User Feedback Mechanisms in P...</text>
            <text x="600" y="560" font-family="Segoe UI, Arial, sans-serif" font-size="16" font-weight="600" fill="#10b981" text-anchor="middle" style="letter-spacing: 4px; text-transform: uppercase;">UI UX Powerhouse • Specialized Series</text>
        </svg>