<svg width="1200" height="600" viewBox="0 0 1200 600" xmlns="http://www.w3.org/2000/svg">
            <rect width="1200" height="600" fill="#1e1b4b"/><path d="M 891.6754396850592 175.96561878744978 L 843.1944582004235 225.96561878744978 L 882.0136003205562 275.9656187874498" stroke="#f43f5e" fill="none" opacity="0.4"/>
                    <circle cx="891.6754396850592" cy="175.96561878744978" r="3" fill="#22d3ee"/><path d="M 259.0657826978713 291.4237508128281 L 215.14619212357502 341.4237508128281 L 238.77100717836583 391.4237508128281" stroke="#f43f5e" fill="none" opacity="0.4"/>
                    <circle cx="259.0657826978713" cy="291.4237508128281" r="3" fill="#22d3ee"/><path d="M 147.56436251991545 48.91040883157984 L 197.49766716440718 98.91040883157984 L 169.58794272613886 148.91040883157984" stroke="#f43f5e" fill="none" opacity="0.4"/>
                    <circle cx="147.56436251991545" cy="48.91040883157984" r="3" fill="#22d3ee"/><path d="M 423.1984942271083 354.0028154000538 L 418.8288527255736 404.0028154000538 L 459.9038314436257 454.0028154000538" stroke="#f43f5e" fill="none" opacity="0.4"/>
                    <circle cx="423.1984942271083" cy="354.0028154000538" r="3" fill="#22d3ee"/><path d="M 801.7936551030289 190.9347279530266 L 823.6940522679106 240.9347279530266 L 826.1300936510452 290.9347279530266" stroke="#f43f5e" fill="none" opacity="0.4"/>
                    <circle cx="801.7936551030289" cy="190.9347279530266" r="3" fill="#22d3ee"/><path d="M 66.47184618741449 140.04646012108424 L 110.0176588866816 190.04646012108424 L 45.895487119605605 240.04646012108424" stroke="#f43f5e" fill="none" opacity="0.4"/>
                    <circle cx="66.47184618741449" cy="140.04646012108424" r="3" fill="#22d3ee"/><path d="M 1173.6782807375675 13.722252141815261 L 1171.1034022202284 63.72225214181526 L 1141.1927724858288 113.72225214181526" stroke="#f43f5e" fill="none" opacity="0.4"/>
                    <circle cx="1173.6782807375675" cy="13.722252141815261" r="3" fill="#22d3ee"/><path d="M 1096.0675405496659 53.8760887880926 L 1071.8476724530774 103.8760887880926 L 1080.5617751257728 153.8760887880926" stroke="#f43f5e" fill="none" opacity="0.4"/>
                    <circle cx="1096.0675405496659" cy="53.8760887880926" r="3" fill="#22d3ee"/><path d="M 636.2907585127687 196.51274770367309 L 603.8771713592951 246.51274770367309 L 612.4739533570391 296.5127477036731" stroke="#f43f5e" fill="none" opacity="0.4"/>
                    <circle cx="636.2907585127687" cy="196.51274770367309" r="3" fill="#22d3ee"/><path d="M 665.4705454609939 175.7604992526467 L 708.2233356330107 225.7604992526467 L 686.1420596391326 275.7604992526467" stroke="#f43f5e" fill="none" opacity="0.4"/>
                    <circle cx="665.4705454609939" cy="175.7604992526467" r="3" fill="#22d3ee"/>
            <text x="600" y="520" font-family="Segoe UI, Arial, sans-serif" font-size="38" font-weight="800" fill="#ffffff" text-anchor="middle">Implementing Advanced Semantic HTML Techniques to Improve...</text>
            <text x="600" y="560" font-family="Segoe UI, Arial, sans-serif" font-size="16" font-weight="600" fill="#f43f5e" text-anchor="middle" style="letter-spacing: 4px; text-transform: uppercase;">UI UX Powerhouse • Specialized Series</text>
        </svg>