<svg width="1200" height="600" viewBox="0 0 1200 600" xmlns="http://www.w3.org/2000/svg">
        <rect width="1200" height="600" fill="#1e1b4b"/><path d="M 1023.3120114888152 367.96213228371926 L 1051.304187367714 417.96213228371926 L 1045.8805326636138 467.96213228371926" stroke="#f43f5e" fill="none" opacity="0.4"/>
                    <circle cx="1023.3120114888152" cy="367.96213228371926" r="3" fill="#22d3ee"/><path d="M 906.9097785239137 90.19483434203721 L 929.5105713465091 140.1948343420372 L 870.1775486939368 190.1948343420372" stroke="#f43f5e" fill="none" opacity="0.4"/>
                    <circle cx="906.9097785239137" cy="90.19483434203721" r="3" fill="#22d3ee"/><path d="M 152.20637404981971 382.83846520971565 L 150.35583081919413 432.83846520971565 L 122.15841257257125 482.83846520971565" stroke="#f43f5e" fill="none" opacity="0.4"/>
                    <circle cx="152.20637404981971" cy="382.83846520971565" r="3" fill="#22d3ee"/><path d="M 461.0621731226274 228.56075505260378 L 482.41121529563316 278.5607550526038 L 494.4755889705448 328.5607550526038" stroke="#f43f5e" fill="none" opacity="0.4"/>
                    <circle cx="461.0621731226274" cy="228.56075505260378" r="3" fill="#22d3ee"/><path d="M 140.79663176089525 89.66450102743693 L 127.37690455942356 139.66450102743693 L 91.95334200385332 189.66450102743693" stroke="#f43f5e" fill="none" opacity="0.4"/>
                    <circle cx="140.79663176089525" cy="89.66450102743693" r="3" fill="#22d3ee"/><path d="M 691.0351260732568 94.06222307079588 L 731.6350646339743 144.06222307079588 L 677.5818310959039 194.06222307079588" stroke="#f43f5e" fill="none" opacity="0.4"/>
                    <circle cx="691.0351260732568" cy="94.06222307079588" r="3" fill="#22d3ee"/><path d="M 133.46659245798946 362.86719447089126 L 97.10579692211923 412.86719447089126 L 125.71787943834352 462.86719447089126" stroke="#f43f5e" fill="none" opacity="0.4"/>
                    <circle cx="133.46659245798946" cy="362.86719447089126" r="3" fill="#22d3ee"/><path d="M 445.568533514961 253.77707184561586 L 452.19486479900297 303.77707184561586 L 407.3802714620797 353.77707184561586" stroke="#f43f5e" fill="none" opacity="0.4"/>
                    <circle cx="445.568533514961" cy="253.77707184561586" r="3" fill="#22d3ee"/><path d="M 307.3010118401726 74.64625689317472 L 339.83040931379946 124.64625689317472 L 353.58771426017483 174.64625689317472" stroke="#f43f5e" fill="none" opacity="0.4"/>
                    <circle cx="307.3010118401726" cy="74.64625689317472" r="3" fill="#22d3ee"/><path d="M 194.92981242292444 29.65405469876714 L 161.41309486092723 79.65405469876714 L 230.47938001150214 129.65405469876714" stroke="#f43f5e" fill="none" opacity="0.4"/>
                    <circle cx="194.92981242292444" cy="29.65405469876714" r="3" fill="#22d3ee"/>
        <text x="600" y="520" font-family="Segoe UI, Arial, sans-serif" font-size="38" font-weight="800" fill="#ffffff" text-anchor="middle">Integrating Dynamic Content Filtering for Accessible Data...</text>
        <text x="600" y="560" font-family="Segoe UI, Arial, sans-serif" font-size="16" font-weight="600" fill="#f43f5e" text-anchor="middle" style="letter-spacing: 4px; text-transform: uppercase;">UI UX Powerhouse • Specialized Series</text>
    </svg>