<svg width="1200" height="600" viewBox="0 0 1200 600" xmlns="http://www.w3.org/2000/svg">
            <rect width="1200" height="600" fill="#1e1b4b"/><path d="M 356.27171625874325 152.09835235436913 L 341.5000988733482 202.09835235436913 L 324.486569660894 252.09835235436913" stroke="#f43f5e" fill="none" opacity="0.4"/>
                    <circle cx="356.27171625874325" cy="152.09835235436913" r="3" fill="#22d3ee"/><path d="M 1008.4346291685506 124.63558955314511 L 1034.7684988681976 174.6355895531451 L 1010.7912420411594 224.6355895531451" stroke="#f43f5e" fill="none" opacity="0.4"/>
                    <circle cx="1008.4346291685506" cy="124.63558955314511" r="3" fill="#22d3ee"/><path d="M 85.90808277840551 185.94572886431706 L 52.25116928395437 235.94572886431706 L 76.56604019302904 285.94572886431706" stroke="#f43f5e" fill="none" opacity="0.4"/>
                    <circle cx="85.90808277840551" cy="185.94572886431706" r="3" fill="#22d3ee"/><path d="M 1118.855966564297 318.9101309268153 L 1127.6051810746765 368.9101309268153 L 1168.6195085208965 418.9101309268153" stroke="#f43f5e" fill="none" opacity="0.4"/>
                    <circle cx="1118.855966564297" cy="318.9101309268153" r="3" fill="#22d3ee"/><path d="M 278.9712580556852 252.58179956945241 L 299.78370369547065 302.5817995694524 L 276.58012162712566 352.5817995694524" stroke="#f43f5e" fill="none" opacity="0.4"/>
                    <circle cx="278.9712580556852" cy="252.58179956945241" r="3" fill="#22d3ee"/><path d="M 744.6954738683417 88.75031051939004 L 770.2097389498704 138.75031051939004 L 732.6396297365136 188.75031051939004" stroke="#f43f5e" fill="none" opacity="0.4"/>
                    <circle cx="744.6954738683417" cy="88.75031051939004" r="3" fill="#22d3ee"/><path d="M 724.3257973732398 299.38760141558305 L 766.5100892508235 349.38760141558305 L 771.8512944160466 399.38760141558305" stroke="#f43f5e" fill="none" opacity="0.4"/>
                    <circle cx="724.3257973732398" cy="299.38760141558305" r="3" fill="#22d3ee"/><path d="M 767.8448392172868 62.08954199246364 L 756.6334661831206 112.08954199246364 L 780.5418206829927 162.08954199246364" stroke="#f43f5e" fill="none" opacity="0.4"/>
                    <circle cx="767.8448392172868" cy="62.08954199246364" r="3" fill="#22d3ee"/><path d="M 293.1208224588772 41.49456174054649 L 243.16367640776662 91.49456174054649 L 324.0592598292096 141.4945617405465" stroke="#f43f5e" fill="none" opacity="0.4"/>
                    <circle cx="293.1208224588772" cy="41.49456174054649" r="3" fill="#22d3ee"/><path d="M 589.2222312519152 239.9302596691996 L 627.0447482564123 289.9302596691996 L 609.3593144634724 339.9302596691996" stroke="#f43f5e" fill="none" opacity="0.4"/>
                    <circle cx="589.2222312519152" cy="239.9302596691996" r="3" fill="#22d3ee"/>
            <text x="600" y="520" font-family="Segoe UI, Arial, sans-serif" font-size="38" font-weight="800" fill="#ffffff" text-anchor="middle">Leveraging CSS Container Queries for Responsive Component...</text>
            <text x="600" y="560" font-family="Segoe UI, Arial, sans-serif" font-size="16" font-weight="600" fill="#f43f5e" text-anchor="middle" style="letter-spacing: 4px; text-transform: uppercase;">UI UX Powerhouse • Specialized Series</text>
        </svg>