<svg width="1200" height="600" viewBox="0 0 1200 600" xmlns="http://www.w3.org/2000/svg">
        <rect width="1200" height="600" fill="#0f172a"/><circle cx="944.9363984836964" cy="393.2177089108336" r="39.61356936226366" fill="#38bdf8" opacity="0.1"/><circle cx="909.3432879195461" cy="270.39902658652863" r="22.98600073201669" fill="#38bdf8" opacity="0.1"/><circle cx="736.9516656010092" cy="2.298701095423894" r="23.46955232860637" fill="#38bdf8" opacity="0.1"/><circle cx="95.10676498903194" cy="146.6371667731437" r="44.81750877246668" fill="#38bdf8" opacity="0.1"/><circle cx="369.7790306632669" cy="85.6104987571598" r="46.06075856856478" fill="#38bdf8" opacity="0.1"/><circle cx="247.41084751003655" cy="151.54946990405733" r="19.746622175516677" fill="#38bdf8" opacity="0.1"/><circle cx="81.08683312275389" cy="158.83034844991926" r="42.74178808918805" fill="#38bdf8" opacity="0.1"/><circle cx="824.0482306973718" cy="356.15583755497937" r="31.14677564860358" fill="#38bdf8" opacity="0.1"/><circle cx="1002.3390585109155" cy="171.35511773158214" r="19.398088074667612" fill="#38bdf8" opacity="0.1"/><circle cx="878.8389002391341" cy="88.33632299356395" r="14.600003152809222" fill="#38bdf8" opacity="0.1"/><circle cx="392.81139027443714" cy="186.34319411503384" r="15.439064291822433" fill="#38bdf8" opacity="0.1"/><circle cx="9.026941444608383" cy="209.43866835941662" r="38.58867963273951" fill="#38bdf8" opacity="0.1"/><circle cx="142.8125570586417" cy="205.64205074042547" r="43.66260528884595" fill="#38bdf8" opacity="0.1"/><circle cx="703.1286956062104" cy="200.7255855092808" r="46.91660677672189" fill="#38bdf8" opacity="0.1"/><circle cx="135.85296670571552" cy="41.98515986572602" r="44.87683083221782" fill="#38bdf8" opacity="0.1"/><circle cx="402.2842267278975" cy="0.5084064483526163" r="14.674349945562426" fill="#38bdf8" opacity="0.1"/><circle cx="240.32825640388182" cy="238.82075720321154" r="46.99139899443253" fill="#38bdf8" opacity="0.1"/><circle cx="274.2340196207806" cy="210.78068946553685" r="31.90413340285886" fill="#38bdf8" opacity="0.1"/><circle cx="1037.4874121611356" cy="156.50812757230597" r="25.177940453322663" fill="#38bdf8" opacity="0.1"/><circle cx="217.57379806986137" cy="175.2694878814509" r="26.840866282218485" fill="#38bdf8" opacity="0.1"/><circle cx="238.6736222932086" cy="241.89313604219933" r="13.777478256524773" fill="#38bdf8" opacity="0.1"/><circle cx="444.22349053784274" cy="92.26835293266049" r="10.502905816701968" fill="#38bdf8" opacity="0.1"/><circle cx="328.9244206927833" cy="158.90297105033824" r="44.08541243583386" fill="#38bdf8" opacity="0.1"/><circle cx="12.965971378071117" cy="53.90939844492095" r="17.22174211354286" fill="#38bdf8" opacity="0.1"/><circle cx="1134.1849899799854" cy="148.47727948363172" r="43.1930712987014" fill="#38bdf8" opacity="0.1"/><circle cx="541.5555792060331" cy="166.4574791553605" r="37.41655433848791" fill="#38bdf8" opacity="0.1"/><circle cx="510.6586638405133" cy="151.33571055266657" r="19.580180558550637" fill="#38bdf8" opacity="0.1"/><circle cx="1134.386052782429" cy="227.41964995611852" r="45.1632687185338" fill="#38bdf8" opacity="0.1"/><circle cx="234.8780330561567" cy="18.212528335152456" r="36.245817747367255" fill="#38bdf8" opacity="0.1"/><circle cx="294.09460587739886" cy="362.73278188127733" r="25.16749422009525" fill="#38bdf8" opacity="0.1"/>
        <text x="600" y="520" font-family="Segoe UI, Arial, sans-serif" font-size="38" font-weight="800" fill="#ffffff" text-anchor="middle">Navigating the Complexities of Responsive Data Tables: Ad...</text>
        <text x="600" y="560" font-family="Segoe UI, Arial, sans-serif" font-size="16" font-weight="600" fill="#38bdf8" text-anchor="middle" style="letter-spacing: 4px; text-transform: uppercase;">UI UX Powerhouse • Specialized Series</text>
    </svg>