<svg width="1200" height="600" viewBox="0 0 1200 600" xmlns="http://www.w3.org/2000/svg">
            <rect width="1200" height="600" fill="#1e1b4b"/><rect x="150" y="136.53859996493338" width="60" height="213.46140003506662" fill="#f43f5e" opacity="0.6"/>
                    <rect x="170" y="116.53859996493338" width="60" height="213.46140003506662" fill="#fb7185" opacity="0.4" transform="skewY(-20)"/><rect x="270" y="100.93603833556699" width="60" height="249.063961664433" fill="#f43f5e" opacity="0.6"/>
                    <rect x="290" y="80.93603833556699" width="60" height="249.063961664433" fill="#fb7185" opacity="0.4" transform="skewY(-20)"/><rect x="390" y="209.5768277163188" width="60" height="140.4231722836812" fill="#f43f5e" opacity="0.6"/>
                    <rect x="410" y="189.5768277163188" width="60" height="140.4231722836812" fill="#fb7185" opacity="0.4" transform="skewY(-20)"/><rect x="510" y="123.87469130007958" width="60" height="226.12530869992042" fill="#f43f5e" opacity="0.6"/>
                    <rect x="530" y="103.87469130007958" width="60" height="226.12530869992042" fill="#fb7185" opacity="0.4" transform="skewY(-20)"/><rect x="630" y="210.17225191176294" width="60" height="139.82774808823706" fill="#f43f5e" opacity="0.6"/>
                    <rect x="650" y="190.17225191176294" width="60" height="139.82774808823706" fill="#fb7185" opacity="0.4" transform="skewY(-20)"/><rect x="750" y="283.0802818394204" width="60" height="66.91971816057958" fill="#f43f5e" opacity="0.6"/>
                    <rect x="770" y="263.0802818394204" width="60" height="66.91971816057958" fill="#fb7185" opacity="0.4" transform="skewY(-20)"/><rect x="870" y="144.3762037999477" width="60" height="205.6237962000523" fill="#f43f5e" opacity="0.6"/>
                    <rect x="890" y="124.37620379994769" width="60" height="205.6237962000523" fill="#fb7185" opacity="0.4" transform="skewY(-20)"/><rect x="990" y="149.72720342948378" width="60" height="200.27279657051622" fill="#f43f5e" opacity="0.6"/>
                    <rect x="1010" y="129.72720342948378" width="60" height="200.27279657051622" fill="#fb7185" opacity="0.4" transform="skewY(-20)"/>
            <text x="600" y="520" font-family="Segoe UI, Arial, sans-serif" font-size="38" font-weight="800" fill="#ffffff" text-anchor="middle">No-Code and Low-Code Design Tools: Democratizing UI/UX</text>
            <text x="600" y="560" font-family="Segoe UI, Arial, sans-serif" font-size="16" font-weight="600" fill="#f43f5e" text-anchor="middle" style="letter-spacing: 4px; text-transform: uppercase;">UI UX Powerhouse • Specialized Series</text>
        </svg>