<svg width="1200" height="600" viewBox="0 0 1200 600" xmlns="http://www.w3.org/2000/svg">
            <rect width="1200" height="600" fill="#0c4a6e"/><rect x="150" y="159.33721618712298" width="60" height="190.66278381287702" fill="#7dd3fc" opacity="0.6"/>
                    <rect x="170" y="139.33721618712298" width="60" height="190.66278381287702" fill="#38bdf8" opacity="0.4" transform="skewY(-20)"/><rect x="270" y="221.30673650881363" width="60" height="128.69326349118637" fill="#7dd3fc" opacity="0.6"/>
                    <rect x="290" y="201.30673650881363" width="60" height="128.69326349118637" fill="#38bdf8" opacity="0.4" transform="skewY(-20)"/><rect x="390" y="126.82540236146451" width="60" height="223.1745976385355" fill="#7dd3fc" opacity="0.6"/>
                    <rect x="410" y="106.82540236146451" width="60" height="223.1745976385355" fill="#38bdf8" opacity="0.4" transform="skewY(-20)"/><rect x="510" y="194.60498870948868" width="60" height="155.39501129051132" fill="#7dd3fc" opacity="0.6"/>
                    <rect x="530" y="174.60498870948868" width="60" height="155.39501129051132" fill="#38bdf8" opacity="0.4" transform="skewY(-20)"/><rect x="630" y="129.53627564893395" width="60" height="220.46372435106605" fill="#7dd3fc" opacity="0.6"/>
                    <rect x="650" y="109.53627564893395" width="60" height="220.46372435106605" fill="#38bdf8" opacity="0.4" transform="skewY(-20)"/><rect x="750" y="260.672090765911" width="60" height="89.32790923408902" fill="#7dd3fc" opacity="0.6"/>
                    <rect x="770" y="240.67209076591098" width="60" height="89.32790923408902" fill="#38bdf8" opacity="0.4" transform="skewY(-20)"/><rect x="870" y="129.45322887544535" width="60" height="220.54677112455465" fill="#7dd3fc" opacity="0.6"/>
                    <rect x="890" y="109.45322887544535" width="60" height="220.54677112455465" fill="#38bdf8" opacity="0.4" transform="skewY(-20)"/><rect x="990" y="294.8323977309883" width="60" height="55.167602269011695" fill="#7dd3fc" opacity="0.6"/>
                    <rect x="1010" y="274.8323977309883" width="60" height="55.167602269011695" fill="#38bdf8" opacity="0.4" transform="skewY(-20)"/>
            <text x="600" y="520" font-family="Segoe UI, Arial, sans-serif" font-size="38" font-weight="800" fill="#ffffff" text-anchor="middle">The Rise of No-Code and Low-Code Websites: A UX Perspective</text>
            <text x="600" y="560" font-family="Segoe UI, Arial, sans-serif" font-size="16" font-weight="600" fill="#7dd3fc" text-anchor="middle" style="letter-spacing: 4px; text-transform: uppercase;">UI UX Powerhouse • Specialized Series</text>
        </svg>