<svg width="1200" height="600" viewBox="0 0 1200 600" xmlns="http://www.w3.org/2000/svg">
        
            <rect width="1200" height="600" fill="#0f172a"/>
            <line x1="691.1806188854825" y1="229.19356917254845" x2="673.7624670689911" y2="394.3052747148613" stroke="#38bdf8" stroke-width="0.5" opacity="0.4"/><line x1="691.1806188854825" y1="229.19356917254845" x2="811.1073860145552" y2="141.92661403139937" stroke="#38bdf8" stroke-width="0.5" opacity="0.4"/><line x1="691.1806188854825" y1="229.19356917254845" x2="1194.6146526166558" y2="37.57029403059278" stroke="#38bdf8" stroke-width="0.5" opacity="0.4"/><line x1="691.1806188854825" y1="229.19356917254845" x2="691.9202409997524" y2="128.72773207527644" stroke="#38bdf8" stroke-width="0.5" opacity="0.4"/><line x1="691.1806188854825" y1="229.19356917254845" x2="198.49655720536248" y2="376.03675330283295" stroke="#38bdf8" stroke-width="0.5" opacity="0.4"/><line x1="170.4249440033891" y1="10.711328987781599" x2="673.7624670689911" y2="394.3052747148613" stroke="#38bdf8" stroke-width="0.5" opacity="0.4"/><line x1="170.4249440033891" y1="10.711328987781599" x2="153.51798286483245" y2="166.77310446830234" stroke="#38bdf8" stroke-width="0.5" opacity="0.4"/><line x1="170.4249440033891" y1="10.711328987781599" x2="811.1073860145552" y2="141.92661403139937" stroke="#38bdf8" stroke-width="0.5" opacity="0.4"/><line x1="170.4249440033891" y1="10.711328987781599" x2="1194.6146526166558" y2="37.57029403059278" stroke="#38bdf8" stroke-width="0.5" opacity="0.4"/><line x1="673.7624670689911" y1="394.3052747148613" x2="350.08774020207056" y2="108.42751075806518" stroke="#38bdf8" stroke-width="0.5" opacity="0.4"/><line x1="673.7624670689911" y1="394.3052747148613" x2="153.51798286483245" y2="166.77310446830234" stroke="#38bdf8" stroke-width="0.5" opacity="0.4"/><line x1="673.7624670689911" y1="394.3052747148613" x2="978.1342288937594" y2="203.77617509111587" stroke="#38bdf8" stroke-width="0.5" opacity="0.4"/><line x1="673.7624670689911" y1="394.3052747148613" x2="542.930515021726" y2="26.393715018093644" stroke="#38bdf8" stroke-width="0.5" opacity="0.4"/><line x1="673.7624670689911" y1="394.3052747148613" x2="198.49655720536248" y2="376.03675330283295" stroke="#38bdf8" stroke-width="0.5" opacity="0.4"/><line x1="350.08774020207056" y1="108.42751075806518" x2="978.1342288937594" y2="203.77617509111587" stroke="#38bdf8" stroke-width="0.5" opacity="0.4"/><line x1="350.08774020207056" y1="108.42751075806518" x2="198.49655720536248" y2="376.03675330283295" stroke="#38bdf8" stroke-width="0.5" opacity="0.4"/><line x1="153.51798286483245" y1="166.77310446830234" x2="691.9202409997524" y2="128.72773207527644" stroke="#38bdf8" stroke-width="0.5" opacity="0.4"/><line x1="153.51798286483245" y1="166.77310446830234" x2="827.4678397436219" y2="115.99335898463323" stroke="#38bdf8" stroke-width="0.5" opacity="0.4"/><line x1="811.1073860145552" y1="141.92661403139937" x2="978.1342288937594" y2="203.77617509111587" stroke="#38bdf8" stroke-width="0.5" opacity="0.4"/><line x1="811.1073860145552" y1="141.92661403139937" x2="691.9202409997524" y2="128.72773207527644" stroke="#38bdf8" stroke-width="0.5" opacity="0.4"/><line x1="811.1073860145552" y1="141.92661403139937" x2="198.49655720536248" y2="376.03675330283295" stroke="#38bdf8" stroke-width="0.5" opacity="0.4"/><line x1="811.1073860145552" y1="141.92661403139937" x2="827.4678397436219" y2="115.99335898463323" stroke="#38bdf8" stroke-width="0.5" opacity="0.4"/><line x1="978.1342288937594" y1="203.77617509111587" x2="691.9202409997524" y2="128.72773207527644" stroke="#38bdf8" stroke-width="0.5" opacity="0.4"/><line x1="1194.6146526166558" y1="37.57029403059278" x2="542.930515021726" y2="26.393715018093644" stroke="#38bdf8" stroke-width="0.5" opacity="0.4"/><line x1="1194.6146526166558" y1="37.57029403059278" x2="691.9202409997524" y2="128.72773207527644" stroke="#38bdf8" stroke-width="0.5" opacity="0.4"/><line x1="542.930515021726" y1="26.393715018093644" x2="691.9202409997524" y2="128.72773207527644" stroke="#38bdf8" stroke-width="0.5" opacity="0.4"/><line x1="542.930515021726" y1="26.393715018093644" x2="827.4678397436219" y2="115.99335898463323" stroke="#38bdf8" stroke-width="0.5" opacity="0.4"/>
            <circle cx="691.1806188854825" cy="229.19356917254845" r="4.616124984799171" fill="#f472b6" opacity="0.6"/><circle cx="170.4249440033891" cy="10.711328987781599" r="2.193646549952973" fill="#f472b6" opacity="0.6"/><circle cx="673.7624670689911" cy="394.3052747148613" r="5.09917275760381" fill="#f472b6" opacity="0.6"/><circle cx="350.08774020207056" cy="108.42751075806518" r="2.1027000950152797" fill="#f472b6" opacity="0.6"/><circle cx="153.51798286483245" cy="166.77310446830234" r="5.409025697597826" fill="#f472b6" opacity="0.6"/><circle cx="811.1073860145552" cy="141.92661403139937" r="3.0674610690639383" fill="#f472b6" opacity="0.6"/><circle cx="978.1342288937594" cy="203.77617509111587" r="4.088909630023409" fill="#f472b6" opacity="0.6"/><circle cx="1194.6146526166558" cy="37.57029403059278" r="5.555731368895067" fill="#f472b6" opacity="0.6"/><circle cx="542.930515021726" cy="26.393715018093644" r="3.545427825556544" fill="#f472b6" opacity="0.6"/><circle cx="691.9202409997524" cy="128.72773207527644" r="4.279882525210269" fill="#f472b6" opacity="0.6"/><circle cx="198.49655720536248" cy="376.03675330283295" r="3.7026123484538402" fill="#f472b6" opacity="0.6"/><circle cx="827.4678397436219" cy="115.99335898463323" r="3.3789773488679202" fill="#f472b6" opacity="0.6"/>
        
        <text x="600" y="520" font-family="Segoe UI, Arial, sans-serif" font-size="38" font-weight="800" fill="#ffffff" text-anchor="middle">Optimizing User Flow in Progressive Web Apps by Implement...</text>
        <text x="600" y="560" font-family="Segoe UI, Arial, sans-serif" font-size="16" font-weight="600" fill="#38bdf8" text-anchor="middle" style="letter-spacing: 4px; text-transform: uppercase;">UI UX Powerhouse • Intelligence in Design</text>
    </svg>