<svg width="1200" height="600" viewBox="0 0 1200 600" xmlns="http://www.w3.org/2000/svg">
        <rect width="1200" height="600" fill="#2e1065"/><circle cx="559.4563940343505" cy="349.880451408535" r="40.31314426189056" fill="#d8b4fe" opacity="0.1"/><circle cx="750.335655467461" cy="40.921214887930546" r="39.16062318407057" fill="#d8b4fe" opacity="0.1"/><circle cx="879.3175078215427" cy="201.2905619912999" r="18.1347467082378" fill="#d8b4fe" opacity="0.1"/><circle cx="797.438690187937" cy="71.82507535926561" r="13.254684702606028" fill="#d8b4fe" opacity="0.1"/><circle cx="847.5919019347202" cy="13.74057194989291" r="16.1261777443724" fill="#d8b4fe" opacity="0.1"/><circle cx="425.7825356493413" cy="307.1674382452329" r="29.868356517108623" fill="#d8b4fe" opacity="0.1"/><circle cx="283.45421438480116" cy="239.72497778686375" r="42.71211846808001" fill="#d8b4fe" opacity="0.1"/><circle cx="708.2444610661696" cy="298.18520917942806" r="38.25390065590909" fill="#d8b4fe" opacity="0.1"/><circle cx="376.6208169043239" cy="127.04282716185844" r="20.072531323094154" fill="#d8b4fe" opacity="0.1"/><circle cx="318.3006295534142" cy="273.95552564557875" r="29.45792285594507" fill="#d8b4fe" opacity="0.1"/><circle cx="793.3352618514618" cy="31.161964211787563" r="43.95227920031175" fill="#d8b4fe" opacity="0.1"/><circle cx="17.205435098003363" cy="172.8405506364652" r="10.40223423307907" fill="#d8b4fe" opacity="0.1"/><circle cx="1116.909440575182" cy="128.76663281749643" r="46.21642994497961" fill="#d8b4fe" opacity="0.1"/><circle cx="535.0155523439753" cy="87.89912327119964" r="27.68296201571502" fill="#d8b4fe" opacity="0.1"/><circle cx="919.1126944082498" cy="48.94267589079391" r="44.9352888716021" fill="#d8b4fe" opacity="0.1"/><circle cx="673.5619245841008" cy="45.05831027872773" r="20.613376701857078" fill="#d8b4fe" opacity="0.1"/><circle cx="844.0246298378042" cy="381.8657012016047" r="11.28421112010983" fill="#d8b4fe" opacity="0.1"/><circle cx="53.832048581170966" cy="223.29416132715778" r="31.807238547116867" fill="#d8b4fe" opacity="0.1"/><circle cx="836.8114089447772" cy="339.54544367225026" r="19.93715156124381" fill="#d8b4fe" opacity="0.1"/><circle cx="388.5233228425932" cy="342.8733293812911" r="36.386116845169454" fill="#d8b4fe" opacity="0.1"/><circle cx="547.748521684116" cy="93.91365347928513" r="23.060625644066022" fill="#d8b4fe" opacity="0.1"/><circle cx="66.39908938741428" cy="155.93344389199046" r="18.371355132112512" fill="#d8b4fe" opacity="0.1"/><circle cx="365.14975037443946" cy="264.6126479819941" r="40.158311438790406" fill="#d8b4fe" opacity="0.1"/><circle cx="540.2877990571142" cy="54.31289214466233" r="13.881854723367724" fill="#d8b4fe" opacity="0.1"/><circle cx="302.36468730217894" cy="250.60218018150522" r="14.908230217979508" fill="#d8b4fe" opacity="0.1"/><circle cx="462.01575227678404" cy="371.1824044234163" r="30.272055277237087" fill="#d8b4fe" opacity="0.1"/><circle cx="96.69782224395931" cy="41.503360926071764" r="31.023154783570135" fill="#d8b4fe" opacity="0.1"/><circle cx="271.1135378514882" cy="377.6878408898483" r="26.999551174762928" fill="#d8b4fe" opacity="0.1"/><circle cx="466.81553943417384" cy="110.68266610091086" r="47.64796959054365" fill="#d8b4fe" opacity="0.1"/><circle cx="4.278854498988949" cy="69.36538716690848" r="46.15534421072425" fill="#d8b4fe" opacity="0.1"/>
        <text x="600" y="520" font-family="Segoe UI, Arial, sans-serif" font-size="38" font-weight="800" fill="#ffffff" text-anchor="middle">Optimizing Interactive Data Table Usability with Advanced...</text>
        <text x="600" y="560" font-family="Segoe UI, Arial, sans-serif" font-size="16" font-weight="600" fill="#d8b4fe" text-anchor="middle" style="letter-spacing: 4px; text-transform: uppercase;">UI UX Powerhouse • Specialized Series</text>
    </svg>