<svg width="1200" height="600" viewBox="0 0 1200 600" xmlns="http://www.w3.org/2000/svg">
            <rect width="1200" height="600" fill="#1e1b4b"/><circle cx="145.97822029609233" cy="303.75925897969864" r="15.663549074033654" fill="#f43f5e" opacity="0.1"/><circle cx="751.2244102763361" cy="288.2201988788438" r="26.700470135183423" fill="#f43f5e" opacity="0.1"/><circle cx="929.377110511632" cy="278.78639085174655" r="18.367528568232956" fill="#f43f5e" opacity="0.1"/><circle cx="957.791612940855" cy="5.710747633474966" r="48.130949899714324" fill="#f43f5e" opacity="0.1"/><circle cx="741.3381432554161" cy="153.53165584456292" r="33.86853042517032" fill="#f43f5e" opacity="0.1"/><circle cx="784.6985232434236" cy="215.4257705064083" r="44.39140194700485" fill="#f43f5e" opacity="0.1"/><circle cx="541.49820939856" cy="77.72815664866357" r="32.251335147539066" fill="#f43f5e" opacity="0.1"/><circle cx="1043.354591348998" cy="121.51037023759272" r="19.83085667965497" fill="#f43f5e" opacity="0.1"/><circle cx="1013.8848701384632" cy="74.49737967181136" r="11.003628201833635" fill="#f43f5e" opacity="0.1"/><circle cx="1047.8791673751402" cy="239.67361310569686" r="36.2323098775596" fill="#f43f5e" opacity="0.1"/><circle cx="437.9770979445311" cy="302.0055532054357" r="39.79436531604733" fill="#f43f5e" opacity="0.1"/><circle cx="615.7401880725956" cy="286.33580440218793" r="21.15386084820784" fill="#f43f5e" opacity="0.1"/><circle cx="742.8672234597798" cy="137.8865827995469" r="30.507522144962422" fill="#f43f5e" opacity="0.1"/><circle cx="912.0508302629787" cy="153.05101375388404" r="27.49626844364684" fill="#f43f5e" opacity="0.1"/><circle cx="116.36237541424634" cy="127.53212445168174" r="10.07851505240069" fill="#f43f5e" opacity="0.1"/><circle cx="32.075222562707495" cy="231.02137468176807" r="39.93033195802127" fill="#f43f5e" opacity="0.1"/><circle cx="853.7494314427022" cy="358.6460975930095" r="15.57468242768664" fill="#f43f5e" opacity="0.1"/><circle cx="631.3371621989063" cy="136.9244013854768" r="35.66262213272239" fill="#f43f5e" opacity="0.1"/><circle cx="1014.549098421412" cy="280.6601098545798" r="14.596401626986335" fill="#f43f5e" opacity="0.1"/><circle cx="721.8250113946851" cy="20.270486582739977" r="23.668366931124183" fill="#f43f5e" opacity="0.1"/><circle cx="464.591387751625" cy="52.515841895365156" r="33.44387460871076" fill="#f43f5e" opacity="0.1"/><circle cx="61.36120580667921" cy="268.03470067243325" r="22.52772701529466" fill="#f43f5e" opacity="0.1"/><circle cx="51.63183603917787" cy="55.06943381187739" r="33.806058180634864" fill="#f43f5e" opacity="0.1"/><circle cx="571.5819299359282" cy="286.7736089057871" r="27.09144105305313" fill="#f43f5e" opacity="0.1"/><circle cx="621.2504987935972" cy="58.47710644302424" r="26.22257691768027" fill="#f43f5e" opacity="0.1"/><circle cx="546.235007843643" cy="49.18920524614805" r="19.034779009671183" fill="#f43f5e" opacity="0.1"/><circle cx="289.22060035292816" cy="63.28182547586039" r="41.79189613212657" fill="#f43f5e" opacity="0.1"/><circle cx="509.2103533230329" cy="266.79983036337944" r="15.940314250692609" fill="#f43f5e" opacity="0.1"/><circle cx="516.4348390148007" cy="362.02919302886585" r="22.35863790538133" fill="#f43f5e" opacity="0.1"/><circle cx="968.9987626072252" cy="283.2840628910617" r="40.33459272628534" fill="#f43f5e" opacity="0.1"/>
            <text x="600" y="520" font-family="Segoe UI, Arial, sans-serif" font-size="38" font-weight="800" fill="#ffffff" text-anchor="middle">Optimizing SVGs for Dynamic Data Visualization: Technique...</text>
            <text x="600" y="560" font-family="Segoe UI, Arial, sans-serif" font-size="16" font-weight="600" fill="#f43f5e" text-anchor="middle" style="letter-spacing: 4px; text-transform: uppercase;">UI UX Powerhouse • Specialized Series</text>
        </svg>