<svg width="1200" height="600" viewBox="0 0 1200 600" xmlns="http://www.w3.org/2000/svg">
            <rect width="1200" height="600" fill="#0f172a"/><path d="M 671.7564368213061 52.50276425313132 L 683.8526807899598 102.50276425313132 L 659.3047206197298 152.50276425313132" stroke="#38bdf8" fill="none" opacity="0.4"/>
                    <circle cx="671.7564368213061" cy="52.50276425313132" r="3" fill="#f472b6"/><path d="M 1163.6250497173023 152.29015072945913 L 1166.0204208519644 202.29015072945913 L 1186.9224404103988 252.29015072945913" stroke="#38bdf8" fill="none" opacity="0.4"/>
                    <circle cx="1163.6250497173023" cy="152.29015072945913" r="3" fill="#f472b6"/><path d="M 1058.59789860624 133.44592810535687 L 1038.1247045038435 183.44592810535687 L 1096.9862787226248 233.44592810535687" stroke="#38bdf8" fill="none" opacity="0.4"/>
                    <circle cx="1058.59789860624" cy="133.44592810535687" r="3" fill="#f472b6"/><path d="M 349.67416437011707 18.852764322946314 L 327.6783623173287 68.85276432294631 L 383.1346700906579 118.85276432294631" stroke="#38bdf8" fill="none" opacity="0.4"/>
                    <circle cx="349.67416437011707" cy="18.852764322946314" r="3" fill="#f472b6"/><path d="M 380.18475929566193 39.18355940913898 L 392.7482285980659 89.18355940913898 L 429.4797651547924 139.18355940913898" stroke="#38bdf8" fill="none" opacity="0.4"/>
                    <circle cx="380.18475929566193" cy="39.18355940913898" r="3" fill="#f472b6"/><path d="M 166.96323388096062 144.73050517500496 L 216.58036947355868 194.73050517500496 L 164.5034140986354 244.73050517500496" stroke="#38bdf8" fill="none" opacity="0.4"/>
                    <circle cx="166.96323388096062" cy="144.73050517500496" r="3" fill="#f472b6"/><path d="M 504.39258426849847 185.3887851411855 L 481.6062041079931 235.3887851411855 L 511.6122597537469 285.3887851411855" stroke="#38bdf8" fill="none" opacity="0.4"/>
                    <circle cx="504.39258426849847" cy="185.3887851411855" r="3" fill="#f472b6"/><path d="M 264.79871973133413 6.694029795471579 L 308.6912332112263 56.69402979547158 L 245.24679824089617 106.69402979547158" stroke="#38bdf8" fill="none" opacity="0.4"/>
                    <circle cx="264.79871973133413" cy="6.694029795471579" r="3" fill="#f472b6"/><path d="M 302.90481674310286 126.77005302602993 L 298.9766776671786 176.77005302602993 L 257.2176648905952 226.77005302602993" stroke="#38bdf8" fill="none" opacity="0.4"/>
                    <circle cx="302.90481674310286" cy="126.77005302602993" r="3" fill="#f472b6"/><path d="M 105.8871834367892 202.92734057184134 L 56.674841445192214 252.92734057184134 L 85.39350252315216 302.92734057184134" stroke="#38bdf8" fill="none" opacity="0.4"/>
                    <circle cx="105.8871834367892" cy="202.92734057184134" r="3" fill="#f472b6"/>
            <text x="600" y="520" font-family="Segoe UI, Arial, sans-serif" font-size="38" font-weight="800" fill="#ffffff" text-anchor="middle">Optimizing Data Density in Financial Dashboards: Advanced...</text>
            <text x="600" y="560" font-family="Segoe UI, Arial, sans-serif" font-size="16" font-weight="600" fill="#38bdf8" text-anchor="middle" style="letter-spacing: 4px; text-transform: uppercase;">UI UX Powerhouse • Specialized Series</text>
        </svg>