<svg width="1200" height="600" viewBox="0 0 1200 600" xmlns="http://www.w3.org/2000/svg">
            <rect width="1200" height="600" fill="#1e1b4b"/><rect x="150" y="241.41201911570533" width="60" height="108.58798088429467" fill="#f43f5e" opacity="0.6"/>
                    <rect x="170" y="221.41201911570533" width="60" height="108.58798088429467" fill="#fb7185" opacity="0.4" transform="skewY(-20)"/><rect x="270" y="153.1247545536644" width="60" height="196.8752454463356" fill="#f43f5e" opacity="0.6"/>
                    <rect x="290" y="133.1247545536644" width="60" height="196.8752454463356" fill="#fb7185" opacity="0.4" transform="skewY(-20)"/><rect x="390" y="296.88094549956077" width="60" height="53.11905450043923" fill="#f43f5e" opacity="0.6"/>
                    <rect x="410" y="276.88094549956077" width="60" height="53.11905450043923" fill="#fb7185" opacity="0.4" transform="skewY(-20)"/><rect x="510" y="178.81951235694942" width="60" height="171.18048764305058" fill="#f43f5e" opacity="0.6"/>
                    <rect x="530" y="158.81951235694942" width="60" height="171.18048764305058" fill="#fb7185" opacity="0.4" transform="skewY(-20)"/><rect x="630" y="222.14859054984117" width="60" height="127.85140945015883" fill="#f43f5e" opacity="0.6"/>
                    <rect x="650" y="202.14859054984117" width="60" height="127.85140945015883" fill="#fb7185" opacity="0.4" transform="skewY(-20)"/><rect x="750" y="186.83644228349294" width="60" height="163.16355771650706" fill="#f43f5e" opacity="0.6"/>
                    <rect x="770" y="166.83644228349294" width="60" height="163.16355771650706" fill="#fb7185" opacity="0.4" transform="skewY(-20)"/><rect x="870" y="221.2871955252922" width="60" height="128.7128044747078" fill="#f43f5e" opacity="0.6"/>
                    <rect x="890" y="201.2871955252922" width="60" height="128.7128044747078" fill="#fb7185" opacity="0.4" transform="skewY(-20)"/><rect x="990" y="297.75431530979404" width="60" height="52.24568469020596" fill="#f43f5e" opacity="0.6"/>
                    <rect x="1010" y="277.75431530979404" width="60" height="52.24568469020596" fill="#fb7185" opacity="0.4" transform="skewY(-20)"/>
            <text x="600" y="520" font-family="Segoe UI, Arial, sans-serif" font-size="38" font-weight="800" fill="#ffffff" text-anchor="middle">The Future of Progressive Web Apps (PWAs) in 2025</text>
            <text x="600" y="560" font-family="Segoe UI, Arial, sans-serif" font-size="16" font-weight="600" fill="#f43f5e" text-anchor="middle" style="letter-spacing: 4px; text-transform: uppercase;">UI UX Powerhouse • Specialized Series</text>
        </svg>