<svg width="1200" height="600" viewBox="0 0 1200 600" xmlns="http://www.w3.org/2000/svg">
            <rect width="1200" height="600" fill="#0c4a6e"/><rect x="150" y="113.32707660399137" width="60" height="236.67292339600863" fill="#7dd3fc" opacity="0.6"/>
                    <rect x="170" y="93.32707660399137" width="60" height="236.67292339600863" fill="#38bdf8" opacity="0.4" transform="skewY(-20)"/><rect x="270" y="259.8527453526003" width="60" height="90.14725464739968" fill="#7dd3fc" opacity="0.6"/>
                    <rect x="290" y="239.85274535260032" width="60" height="90.14725464739968" fill="#38bdf8" opacity="0.4" transform="skewY(-20)"/><rect x="390" y="263.34923770541536" width="60" height="86.65076229458464" fill="#7dd3fc" opacity="0.6"/>
                    <rect x="410" y="243.34923770541536" width="60" height="86.65076229458464" fill="#38bdf8" opacity="0.4" transform="skewY(-20)"/><rect x="510" y="185.5963326699566" width="60" height="164.4036673300434" fill="#7dd3fc" opacity="0.6"/>
                    <rect x="530" y="165.5963326699566" width="60" height="164.4036673300434" fill="#38bdf8" opacity="0.4" transform="skewY(-20)"/><rect x="630" y="113.28783031149214" width="60" height="236.71216968850786" fill="#7dd3fc" opacity="0.6"/>
                    <rect x="650" y="93.28783031149214" width="60" height="236.71216968850786" fill="#38bdf8" opacity="0.4" transform="skewY(-20)"/><rect x="750" y="158.33047531596094" width="60" height="191.66952468403906" fill="#7dd3fc" opacity="0.6"/>
                    <rect x="770" y="138.33047531596094" width="60" height="191.66952468403906" fill="#38bdf8" opacity="0.4" transform="skewY(-20)"/><rect x="870" y="254.62462189061625" width="60" height="95.37537810938375" fill="#7dd3fc" opacity="0.6"/>
                    <rect x="890" y="234.62462189061625" width="60" height="95.37537810938375" fill="#38bdf8" opacity="0.4" transform="skewY(-20)"/><rect x="990" y="160.67084865044308" width="60" height="189.32915134955692" fill="#7dd3fc" opacity="0.6"/>
                    <rect x="1010" y="140.67084865044308" width="60" height="189.32915134955692" fill="#38bdf8" opacity="0.4" transform="skewY(-20)"/>
            <text x="600" y="520" font-family="Segoe UI, Arial, sans-serif" font-size="38" font-weight="800" fill="#ffffff" text-anchor="middle">Real-Time Collaboration Tools for Frontend Teams: AI and ...</text>
            <text x="600" y="560" font-family="Segoe UI, Arial, sans-serif" font-size="16" font-weight="600" fill="#7dd3fc" text-anchor="middle" style="letter-spacing: 4px; text-transform: uppercase;">UI UX Powerhouse • Specialized Series</text>
        </svg>