<svg width="1200" height="600" viewBox="0 0 1200 600" xmlns="http://www.w3.org/2000/svg">
            <rect width="1200" height="600" fill="#0f172a"/><path d="M 233.3318103053898 48.0914472915174 L 219.47285657915927 98.0914472915174 L 220.08662191356052 148.0914472915174" stroke="#38bdf8" fill="none" opacity="0.4"/>
                    <circle cx="233.3318103053898" cy="48.0914472915174" r="3" fill="#f472b6"/><path d="M 695.3254404084873 356.51755235157907 L 660.9989319174019 406.51755235157907 L 727.6233329794195 456.51755235157907" stroke="#38bdf8" fill="none" opacity="0.4"/>
                    <circle cx="695.3254404084873" cy="356.51755235157907" r="3" fill="#f472b6"/><path d="M 601.1617807809671 300.14792101064813 L 637.4509847564696 350.14792101064813 L 636.0709898193818 400.14792101064813" stroke="#38bdf8" fill="none" opacity="0.4"/>
                    <circle cx="601.1617807809671" cy="300.14792101064813" r="3" fill="#f472b6"/><path d="M 891.2173320809416 280.82066594288335 L 857.236757260398 330.82066594288335 L 918.1832964008208 380.82066594288335" stroke="#38bdf8" fill="none" opacity="0.4"/>
                    <circle cx="891.2173320809416" cy="280.82066594288335" r="3" fill="#f472b6"/><path d="M 54.690932674566284 272.77464207109006 L 75.84093784116703 322.77464207109006 L 88.65186736566102 372.77464207109006" stroke="#38bdf8" fill="none" opacity="0.4"/>
                    <circle cx="54.690932674566284" cy="272.77464207109006" r="3" fill="#f472b6"/><path d="M 1014.0131919082705 47.71351298841182 L 1028.0910191682779 97.71351298841182 L 984.7578435194805 147.71351298841182" stroke="#38bdf8" fill="none" opacity="0.4"/>
                    <circle cx="1014.0131919082705" cy="47.71351298841182" r="3" fill="#f472b6"/><path d="M 668.4426698600873 238.16006079905492 L 693.1424805401548 288.1600607990549 L 705.5632206847804 338.1600607990549" stroke="#38bdf8" fill="none" opacity="0.4"/>
                    <circle cx="668.4426698600873" cy="238.16006079905492" r="3" fill="#f472b6"/><path d="M 481.3653410485131 329.31057704336126 L 482.95132185480725 379.31057704336126 L 477.81483301250773 429.31057704336126" stroke="#38bdf8" fill="none" opacity="0.4"/>
                    <circle cx="481.3653410485131" cy="329.31057704336126" r="3" fill="#f472b6"/><path d="M 483.28761469656456 245.75614876521286 L 487.9221302834594 295.75614876521286 L 529.193085100269 345.75614876521286" stroke="#38bdf8" fill="none" opacity="0.4"/>
                    <circle cx="483.28761469656456" cy="245.75614876521286" r="3" fill="#f472b6"/><path d="M 1125.0270770432167 239.09651489302632 L 1139.7139779940176 289.0965148930263 L 1141.0082992025423 339.0965148930263" stroke="#38bdf8" fill="none" opacity="0.4"/>
                    <circle cx="1125.0270770432167" cy="239.09651489302632" r="3" fill="#f472b6"/>
            <text x="600" y="520" font-family="Segoe UI, Arial, sans-serif" font-size="38" font-weight="800" fill="#ffffff" text-anchor="middle">The Role of AI in Modern Web Design</text>
            <text x="600" y="560" font-family="Segoe UI, Arial, sans-serif" font-size="16" font-weight="600" fill="#38bdf8" text-anchor="middle" style="letter-spacing: 4px; text-transform: uppercase;">UI UX Powerhouse • Specialized Series</text>
        </svg>