<svg width="1200" height="600" viewBox="0 0 1200 600" xmlns="http://www.w3.org/2000/svg">
            <rect width="1200" height="600" fill="#0f172a"/><path d="M 993.0596856393095 385.8923658175627 L 1012.1900309630291 435.8923658175627 L 990.5216201053008 485.8923658175627" stroke="#38bdf8" fill="none" opacity="0.4"/>
                    <circle cx="993.0596856393095" cy="385.8923658175627" r="3" fill="#f472b6"/><path d="M 1147.902680210973 327.69773050313233 L 1110.0540662906496 377.69773050313233 L 1121.0768070555787 427.69773050313233" stroke="#38bdf8" fill="none" opacity="0.4"/>
                    <circle cx="1147.902680210973" cy="327.69773050313233" r="3" fill="#f472b6"/><path d="M 198.1549193886167 249.58938720883452 L 232.9782424777477 299.5893872088345 L 236.87501894728484 349.5893872088345" stroke="#38bdf8" fill="none" opacity="0.4"/>
                    <circle cx="198.1549193886167" cy="249.58938720883452" r="3" fill="#f472b6"/><path d="M 512.4966317351209 156.13750700158562 L 531.6206824611982 206.13750700158562 L 556.440300847953 256.1375070015856" stroke="#38bdf8" fill="none" opacity="0.4"/>
                    <circle cx="512.4966317351209" cy="156.13750700158562" r="3" fill="#f472b6"/><path d="M 819.6382348884072 15.54878773222299 L 786.1219764999987 65.54878773222299 L 814.9199914862038 115.54878773222299" stroke="#38bdf8" fill="none" opacity="0.4"/>
                    <circle cx="819.6382348884072" cy="15.54878773222299" r="3" fill="#f472b6"/><path d="M 496.31878653381136 108.85656713217031 L 497.3080549925726 158.8565671321703 L 453.1240198899468 208.8565671321703" stroke="#38bdf8" fill="none" opacity="0.4"/>
                    <circle cx="496.31878653381136" cy="108.85656713217031" r="3" fill="#f472b6"/><path d="M 714.4065567725193 35.38282291556243 L 673.5169902428311 85.38282291556243 L 715.8231561931643 135.38282291556243" stroke="#38bdf8" fill="none" opacity="0.4"/>
                    <circle cx="714.4065567725193" cy="35.38282291556243" r="3" fill="#f472b6"/><path d="M 156.39743690480827 295.62349450279726 L 196.8082746834625 345.62349450279726 L 107.06874116276595 395.62349450279726" stroke="#38bdf8" fill="none" opacity="0.4"/>
                    <circle cx="156.39743690480827" cy="295.62349450279726" r="3" fill="#f472b6"/><path d="M 375.5433338425064 380.83579694684886 L 391.4327886353931 430.83579694684886 L 351.79181791445444 480.83579694684886" stroke="#38bdf8" fill="none" opacity="0.4"/>
                    <circle cx="375.5433338425064" cy="380.83579694684886" r="3" fill="#f472b6"/><path d="M 190.8113508929091 392.6775472198642 L 164.76783655807594 442.6775472198642 L 182.55085288969894 492.6775472198642" stroke="#38bdf8" fill="none" opacity="0.4"/>
                    <circle cx="190.8113508929091" cy="392.6775472198642" r="3" fill="#f472b6"/>
            <text x="600" y="520" font-family="Segoe UI, Arial, sans-serif" font-size="38" font-weight="800" fill="#ffffff" text-anchor="middle">How to Use Storytelling in UI/UX Design to Improve Engage...</text>
            <text x="600" y="560" font-family="Segoe UI, Arial, sans-serif" font-size="16" font-weight="600" fill="#38bdf8" text-anchor="middle" style="letter-spacing: 4px; text-transform: uppercase;">UI UX Powerhouse • Specialized Series</text>
        </svg>