<svg width="1200" height="600" viewBox="0 0 1200 600" xmlns="http://www.w3.org/2000/svg">
            <rect width="1200" height="600" fill="#111827"/><rect x="150" y="292.2111458618019" width="60" height="57.788854138198076" fill="#10b981" opacity="0.6"/>
                    <rect x="170" y="272.2111458618019" width="60" height="57.788854138198076" fill="#34d399" opacity="0.4" transform="skewY(-20)"/><rect x="270" y="126.44029991843126" width="60" height="223.55970008156874" fill="#10b981" opacity="0.6"/>
                    <rect x="290" y="106.44029991843126" width="60" height="223.55970008156874" fill="#34d399" opacity="0.4" transform="skewY(-20)"/><rect x="390" y="168.070308703318" width="60" height="181.929691296682" fill="#10b981" opacity="0.6"/>
                    <rect x="410" y="148.070308703318" width="60" height="181.929691296682" fill="#34d399" opacity="0.4" transform="skewY(-20)"/><rect x="510" y="215.83847169804358" width="60" height="134.16152830195642" fill="#10b981" opacity="0.6"/>
                    <rect x="530" y="195.83847169804358" width="60" height="134.16152830195642" fill="#34d399" opacity="0.4" transform="skewY(-20)"/><rect x="630" y="260.38979955901596" width="60" height="89.61020044098404" fill="#10b981" opacity="0.6"/>
                    <rect x="650" y="240.38979955901596" width="60" height="89.61020044098404" fill="#34d399" opacity="0.4" transform="skewY(-20)"/><rect x="750" y="212.03741458630248" width="60" height="137.96258541369752" fill="#10b981" opacity="0.6"/>
                    <rect x="770" y="192.03741458630248" width="60" height="137.96258541369752" fill="#34d399" opacity="0.4" transform="skewY(-20)"/><rect x="870" y="112.51031406773109" width="60" height="237.4896859322689" fill="#10b981" opacity="0.6"/>
                    <rect x="890" y="92.51031406773109" width="60" height="237.4896859322689" fill="#34d399" opacity="0.4" transform="skewY(-20)"/><rect x="990" y="180.07419377863698" width="60" height="169.92580622136302" fill="#10b981" opacity="0.6"/>
                    <rect x="1010" y="160.07419377863698" width="60" height="169.92580622136302" fill="#34d399" opacity="0.4" transform="skewY(-20)"/>
            <text x="600" y="520" font-family="Segoe UI, Arial, sans-serif" font-size="38" font-weight="800" fill="#ffffff" text-anchor="middle">The Future of Interaction: How AI-Powered Personalization...</text>
            <text x="600" y="560" font-family="Segoe UI, Arial, sans-serif" font-size="16" font-weight="600" fill="#10b981" text-anchor="middle" style="letter-spacing: 4px; text-transform: uppercase;">UI UX Powerhouse • Specialized Series</text>
        </svg>