<svg width="1200" height="600" viewBox="0 0 1200 600" xmlns="http://www.w3.org/2000/svg">
            <rect width="1200" height="600" fill="#2e1065"/><rect x="150" y="272.09263290078525" width="60" height="77.90736709921475" fill="#d8b4fe" opacity="0.6"/>
                    <rect x="170" y="252.09263290078525" width="60" height="77.90736709921475" fill="#a855f7" opacity="0.4" transform="skewY(-20)"/><rect x="270" y="114.53547420205723" width="60" height="235.46452579794277" fill="#d8b4fe" opacity="0.6"/>
                    <rect x="290" y="94.53547420205723" width="60" height="235.46452579794277" fill="#a855f7" opacity="0.4" transform="skewY(-20)"/><rect x="390" y="158.54073235200303" width="60" height="191.45926764799697" fill="#d8b4fe" opacity="0.6"/>
                    <rect x="410" y="138.54073235200303" width="60" height="191.45926764799697" fill="#a855f7" opacity="0.4" transform="skewY(-20)"/><rect x="510" y="277.6806777153979" width="60" height="72.3193222846021" fill="#d8b4fe" opacity="0.6"/>
                    <rect x="530" y="257.6806777153979" width="60" height="72.3193222846021" fill="#a855f7" opacity="0.4" transform="skewY(-20)"/><rect x="630" y="150.6156033368825" width="60" height="199.3843966631175" fill="#d8b4fe" opacity="0.6"/>
                    <rect x="650" y="130.6156033368825" width="60" height="199.3843966631175" fill="#a855f7" opacity="0.4" transform="skewY(-20)"/><rect x="750" y="129.43728659265616" width="60" height="220.56271340734384" fill="#d8b4fe" opacity="0.6"/>
                    <rect x="770" y="109.43728659265616" width="60" height="220.56271340734384" fill="#a855f7" opacity="0.4" transform="skewY(-20)"/><rect x="870" y="254.43838360115478" width="60" height="95.56161639884522" fill="#d8b4fe" opacity="0.6"/>
                    <rect x="890" y="234.43838360115478" width="60" height="95.56161639884522" fill="#a855f7" opacity="0.4" transform="skewY(-20)"/><rect x="990" y="166.9744311588147" width="60" height="183.0255688411853" fill="#d8b4fe" opacity="0.6"/>
                    <rect x="1010" y="146.9744311588147" width="60" height="183.0255688411853" fill="#a855f7" opacity="0.4" transform="skewY(-20)"/>
            <text x="600" y="520" font-family="Segoe UI, Arial, sans-serif" font-size="38" font-weight="800" fill="#ffffff" text-anchor="middle">The Future of Adaptive Interfaces: How AI-Driven Design S...</text>
            <text x="600" y="560" font-family="Segoe UI, Arial, sans-serif" font-size="16" font-weight="600" fill="#d8b4fe" text-anchor="middle" style="letter-spacing: 4px; text-transform: uppercase;">UI UX Powerhouse • Specialized Series</text>
        </svg>