<svg width="1200" height="600" viewBox="0 0 1200 600" xmlns="http://www.w3.org/2000/svg">
        <rect width="1200" height="600" fill="#111827"/><circle cx="503.58539519947954" cy="361.54032971098786" r="44.96293393844098" fill="#10b981" opacity="0.1"/><circle cx="132.70421024717507" cy="243.59240619451157" r="15.206799711982057" fill="#10b981" opacity="0.1"/><circle cx="488.1638164098149" cy="170.90992247440226" r="14.010979696231516" fill="#10b981" opacity="0.1"/><circle cx="147.21405789441633" cy="303.53369442963185" r="42.730743598094705" fill="#10b981" opacity="0.1"/><circle cx="640.1523067183007" cy="384.0308642185846" r="11.86691360495388" fill="#10b981" opacity="0.1"/><circle cx="114.38500419608317" cy="292.808314798458" r="48.04405680759373" fill="#10b981" opacity="0.1"/><circle cx="144.66699175645772" cy="275.63409785580006" r="15.059196081419941" fill="#10b981" opacity="0.1"/><circle cx="666.3093732469861" cy="15.85403569661139" r="25.859664774980047" fill="#10b981" opacity="0.1"/><circle cx="1126.1829200477223" cy="391.30780779287306" r="21.084032502185437" fill="#10b981" opacity="0.1"/><circle cx="892.3668202161934" cy="4.471276107869926" r="44.63856683571066" fill="#10b981" opacity="0.1"/><circle cx="461.5832479939854" cy="367.2219767653587" r="40.76146073384734" fill="#10b981" opacity="0.1"/><circle cx="737.249497587436" cy="308.0974124139175" r="13.22652028484299" fill="#10b981" opacity="0.1"/><circle cx="774.5279346738243" cy="290.31329995195847" r="20.417038339079454" fill="#10b981" opacity="0.1"/><circle cx="861.8135101382904" cy="4.824618976999773" r="13.210599398262275" fill="#10b981" opacity="0.1"/><circle cx="212.81129267590586" cy="140.6155567849055" r="25.807055768782448" fill="#10b981" opacity="0.1"/><circle cx="1049.7511388653948" cy="64.92337747840793" r="24.600277882018418" fill="#10b981" opacity="0.1"/><circle cx="884.1721919012343" cy="222.32172618460027" r="23.41858476615016" fill="#10b981" opacity="0.1"/><circle cx="54.176151752471924" cy="246.86819826602004" r="37.04517713788846" fill="#10b981" opacity="0.1"/><circle cx="1170.9513924552084" cy="291.47801162998803" r="13.241852865394321" fill="#10b981" opacity="0.1"/><circle cx="304.38375775847817" cy="236.45101517322473" r="29.591447630609764" fill="#10b981" opacity="0.1"/><circle cx="185.51699213203392" cy="107.91392916435143" r="48.310526918794494" fill="#10b981" opacity="0.1"/><circle cx="1083.629272100825" cy="302.90876355793444" r="32.56246382004974" fill="#10b981" opacity="0.1"/><circle cx="1176.6061968606664" cy="0.6575116740350495" r="36.39796446583205" fill="#10b981" opacity="0.1"/><circle cx="1034.0858460280288" cy="308.98770376668097" r="40.90954219638661" fill="#10b981" opacity="0.1"/><circle cx="216.9936940077605" cy="317.2773487682207" r="44.70372586224585" fill="#10b981" opacity="0.1"/><circle cx="533.5423218559299" cy="300.1230934754858" r="21.75172777710941" fill="#10b981" opacity="0.1"/><circle cx="954.3690950380551" cy="64.68500451228465" r="18.838177548677777" fill="#10b981" opacity="0.1"/><circle cx="436.6907356966294" cy="369.96724911005003" r="25.587367600674042" fill="#10b981" opacity="0.1"/><circle cx="585.0040284378338" cy="283.3561977779027" r="21.25405430146202" fill="#10b981" opacity="0.1"/><circle cx="654.9398767900129" cy="173.87333976803347" r="42.07821202398918" fill="#10b981" opacity="0.1"/>
        <text x="600" y="520" font-family="Segoe UI, Arial, sans-serif" font-size="38" font-weight="800" fill="#ffffff" text-anchor="middle">Using CSS Container Queries to Create Responsive Navigati...</text>
        <text x="600" y="560" font-family="Segoe UI, Arial, sans-serif" font-size="16" font-weight="600" fill="#10b981" text-anchor="middle" style="letter-spacing: 4px; text-transform: uppercase;">UI UX Powerhouse • Specialized Series</text>
    </svg>