<svg width="1200" height="600" viewBox="0 0 1200 600" xmlns="http://www.w3.org/2000/svg">
        <rect width="1200" height="600" fill="#111827"/><circle cx="967.9068109639047" cy="53.09222218238574" r="43.52619499884895" fill="#10b981" opacity="0.1"/><circle cx="1140.0612749394895" cy="362.33458715796587" r="38.953485834035746" fill="#10b981" opacity="0.1"/><circle cx="737.545139024246" cy="86.11248134839116" r="24.55810002340968" fill="#10b981" opacity="0.1"/><circle cx="92.73058744943228" cy="362.9194410128548" r="39.677943982073884" fill="#10b981" opacity="0.1"/><circle cx="1196.8988736148276" cy="94.75108200058457" r="24.53394166797807" fill="#10b981" opacity="0.1"/><circle cx="401.6139675532031" cy="96.22947828902397" r="14.00514353885228" fill="#10b981" opacity="0.1"/><circle cx="381.7369867098023" cy="88.46532300340186" r="17.298766118037747" fill="#10b981" opacity="0.1"/><circle cx="739.6390021556726" cy="91.42585403369594" r="23.260909510931924" fill="#10b981" opacity="0.1"/><circle cx="964.2635131869611" cy="102.59231126365194" r="33.407975511254335" fill="#10b981" opacity="0.1"/><circle cx="1105.7695961091667" cy="75.50322271163168" r="23.546277352043035" fill="#10b981" opacity="0.1"/><circle cx="908.0234609540639" cy="335.18112827368896" r="28.327349559367576" fill="#10b981" opacity="0.1"/><circle cx="1139.15052247321" cy="287.482027585429" r="36.76256049286167" fill="#10b981" opacity="0.1"/><circle cx="322.1945130513632" cy="395.7442453545809" r="33.663395095209125" fill="#10b981" opacity="0.1"/><circle cx="926.1062024488638" cy="252.8101126648835" r="45.292264672971214" fill="#10b981" opacity="0.1"/><circle cx="416.306245159285" cy="259.87676638687844" r="29.680991642235313" fill="#10b981" opacity="0.1"/><circle cx="1096.1417508769955" cy="224.40130484283145" r="22.04329406056786" fill="#10b981" opacity="0.1"/><circle cx="1198.6304471516632" cy="153.6334344302304" r="28.84361332966364" fill="#10b981" opacity="0.1"/><circle cx="859.1130722539674" cy="52.84122225048122" r="32.63304817071912" fill="#10b981" opacity="0.1"/><circle cx="132.9841633203614" cy="196.81837263524358" r="13.04328431666363" fill="#10b981" opacity="0.1"/><circle cx="817.8089893866854" cy="307.3315760564583" r="10.198761041101534" fill="#10b981" opacity="0.1"/><circle cx="1139.3944432606077" cy="395.938759281853" r="25.293963341682684" fill="#10b981" opacity="0.1"/><circle cx="698.5331523941568" cy="47.59735555853695" r="30.002901439729612" fill="#10b981" opacity="0.1"/><circle cx="901.2820622439904" cy="228.4975954422407" r="24.29134796388098" fill="#10b981" opacity="0.1"/><circle cx="569.1040201039868" cy="321.14604326561675" r="15.681174531273427" fill="#10b981" opacity="0.1"/><circle cx="90.5250742995122" cy="196.51116510904103" r="38.52231699404001" fill="#10b981" opacity="0.1"/><circle cx="794.9678141279946" cy="319.387670905644" r="42.97860838965789" fill="#10b981" opacity="0.1"/><circle cx="1117.708885155298" cy="28.060463722067652" r="36.63126584775455" fill="#10b981" opacity="0.1"/><circle cx="1178.977009956725" cy="285.1081327235079" r="49.06311955739511" fill="#10b981" opacity="0.1"/><circle cx="998.1584419514547" cy="188.24078918842133" r="17.394286623675725" fill="#10b981" opacity="0.1"/><circle cx="212.8029809668078" cy="367.9411230747064" r="21.78784277435625" fill="#10b981" opacity="0.1"/>
        <text x="600" y="520" font-family="Segoe UI, Arial, sans-serif" font-size="38" font-weight="800" fill="#ffffff" text-anchor="middle">Utilizing CSS Container Queries for Responsive Design in ...</text>
        <text x="600" y="560" font-family="Segoe UI, Arial, sans-serif" font-size="16" font-weight="600" fill="#10b981" text-anchor="middle" style="letter-spacing: 4px; text-transform: uppercase;">UI UX Powerhouse • Specialized Series</text>
    </svg>