<svg width="1200" height="600" viewBox="0 0 1200 600" xmlns="http://www.w3.org/2000/svg">
            <rect width="1200" height="600" fill="#0c4a6e"/><path d="M 468.4482666605618 251.42264060195885 L 455.8016090941237 301.42264060195885 L 452.57719216897385 351.42264060195885" stroke="#7dd3fc" fill="none" opacity="0.4"/>
                    <circle cx="468.4482666605618" cy="251.42264060195885" r="3" fill="#f43f5e"/><path d="M 874.9742612308182 362.71142452023923 L 859.8138400782773 412.71142452023923 L 842.4712589374394 462.71142452023923" stroke="#7dd3fc" fill="none" opacity="0.4"/>
                    <circle cx="874.9742612308182" cy="362.71142452023923" r="3" fill="#f43f5e"/><path d="M 870.1439359909273 47.299649710021185 L 861.1951517614671 97.29964971002119 L 850.0452323862191 147.29964971002119" stroke="#7dd3fc" fill="none" opacity="0.4"/>
                    <circle cx="870.1439359909273" cy="47.299649710021185" r="3" fill="#f43f5e"/><path d="M 365.7555227244302 50.95501339319526 L 380.32187287321904 100.95501339319526 L 400.1365503962006 150.95501339319526" stroke="#7dd3fc" fill="none" opacity="0.4"/>
                    <circle cx="365.7555227244302" cy="50.95501339319526" r="3" fill="#f43f5e"/><path d="M 734.8317367701384 390.05750586984504 L 736.5726050274588 440.05750586984504 L 767.2897099280817 490.05750586984504" stroke="#7dd3fc" fill="none" opacity="0.4"/>
                    <circle cx="734.8317367701384" cy="390.05750586984504" r="3" fill="#f43f5e"/><path d="M 947.0413209608523 44.91781051110593 L 897.1086195509997 94.91781051110593 L 924.2585704629164 144.91781051110593" stroke="#7dd3fc" fill="none" opacity="0.4"/>
                    <circle cx="947.0413209608523" cy="44.91781051110593" r="3" fill="#f43f5e"/><path d="M 384.812466637959 73.86540232619154 L 401.05972221099364 123.86540232619154 L 342.24412782095897 173.86540232619154" stroke="#7dd3fc" fill="none" opacity="0.4"/>
                    <circle cx="384.812466637959" cy="73.86540232619154" r="3" fill="#f43f5e"/><path d="M 899.8259014651921 18.952554628413054 L 871.9000073737334 68.95255462841305 L 949.7466871429424 118.95255462841305" stroke="#7dd3fc" fill="none" opacity="0.4"/>
                    <circle cx="899.8259014651921" cy="18.952554628413054" r="3" fill="#f43f5e"/><path d="M 600.0693053985742 122.77696303717676 L 576.8727212704107 172.77696303717676 L 552.6251489143903 222.77696303717676" stroke="#7dd3fc" fill="none" opacity="0.4"/>
                    <circle cx="600.0693053985742" cy="122.77696303717676" r="3" fill="#f43f5e"/><path d="M 472.97171203222206 272.93051598826423 L 455.1593824553038 322.93051598826423 L 466.7482702838697 372.93051598826423" stroke="#7dd3fc" fill="none" opacity="0.4"/>
                    <circle cx="472.97171203222206" cy="272.93051598826423" r="3" fill="#f43f5e"/>
            <text x="600" y="520" font-family="Segoe UI, Arial, sans-serif" font-size="38" font-weight="800" fill="#ffffff" text-anchor="middle">Utilizing Intersection Observers for Advanced Lazy Loadin...</text>
            <text x="600" y="560" font-family="Segoe UI, Arial, sans-serif" font-size="16" font-weight="600" fill="#7dd3fc" text-anchor="middle" style="letter-spacing: 4px; text-transform: uppercase;">UI UX Powerhouse • Specialized Series</text>
        </svg>