<svg width="1200" height="600" viewBox="0 0 1200 600" xmlns="http://www.w3.org/2000/svg">
        <rect width="1200" height="600" fill="#171717"/><circle cx="155.66953663001186" cy="363.22762017152854" r="20.933020181691973" fill="#f59e0b" opacity="0.1"/><circle cx="765.2167817628651" cy="48.74091195233632" r="25.954316412462504" fill="#f59e0b" opacity="0.1"/><circle cx="439.27691748394864" cy="354.9577591540583" r="24.232023180593387" fill="#f59e0b" opacity="0.1"/><circle cx="657.8720984143729" cy="297.47661250476085" r="19.372520018878276" fill="#f59e0b" opacity="0.1"/><circle cx="422.7985790446837" cy="219.7790662634361" r="15.752731681895966" fill="#f59e0b" opacity="0.1"/><circle cx="848.6936331965808" cy="281.7757753733531" r="17.374796573640197" fill="#f59e0b" opacity="0.1"/><circle cx="554.8875878001127" cy="301.279532346598" r="16.422231007200025" fill="#f59e0b" opacity="0.1"/><circle cx="655.573316362279" cy="48.75755229513743" r="16.60070312260359" fill="#f59e0b" opacity="0.1"/><circle cx="813.9425698318519" cy="131.93218585001887" r="31.738937546770103" fill="#f59e0b" opacity="0.1"/><circle cx="229.06409454699315" cy="312.2544408365684" r="47.83535257420226" fill="#f59e0b" opacity="0.1"/><circle cx="127.62785846971383" cy="167.95548514019174" r="49.70381849081605" fill="#f59e0b" opacity="0.1"/><circle cx="983.4214508280638" cy="259.7414403088351" r="19.845156082810718" fill="#f59e0b" opacity="0.1"/><circle cx="561.304029124949" cy="108.63407801471112" r="36.87143549374014" fill="#f59e0b" opacity="0.1"/><circle cx="410.50888568938717" cy="13.770720677348436" r="29.964555810947786" fill="#f59e0b" opacity="0.1"/><circle cx="391.7300567485654" cy="261.20865739085275" r="18.361421278168564" fill="#f59e0b" opacity="0.1"/><circle cx="1115.8745453511074" cy="159.9474477164904" r="19.69046542923479" fill="#f59e0b" opacity="0.1"/><circle cx="240.77455248407205" cy="146.6521157661191" r="15.675539012627269" fill="#f59e0b" opacity="0.1"/><circle cx="768.8463360551395" cy="361.7188991524017" r="10.314243560860632" fill="#f59e0b" opacity="0.1"/><circle cx="1117.0071971479047" cy="104.83810071309563" r="16.197448048224032" fill="#f59e0b" opacity="0.1"/><circle cx="492.10717680471134" cy="340.12551224786876" r="19.813697497775138" fill="#f59e0b" opacity="0.1"/><circle cx="961.1478510289089" cy="10.285012363465285" r="28.675425510518835" fill="#f59e0b" opacity="0.1"/><circle cx="385.88203143153805" cy="378.83763897480094" r="20.50427878384653" fill="#f59e0b" opacity="0.1"/><circle cx="1067.8197396000542" cy="336.23302903470176" r="42.480419674975565" fill="#f59e0b" opacity="0.1"/><circle cx="995.8617935477378" cy="268.6049920432197" r="49.96195496754808" fill="#f59e0b" opacity="0.1"/><circle cx="960.8233704319446" cy="228.33423097945342" r="16.100515869184164" fill="#f59e0b" opacity="0.1"/><circle cx="575.4604207955708" cy="324.3191644538456" r="18.603592855542956" fill="#f59e0b" opacity="0.1"/><circle cx="1082.43818024348" cy="211.74989125647699" r="31.526068056446093" fill="#f59e0b" opacity="0.1"/><circle cx="102.30545538906881" cy="368.0331321731501" r="35.91168785416812" fill="#f59e0b" opacity="0.1"/><circle cx="242.47090495409793" cy="305.37769000475237" r="24.6876360576789" fill="#f59e0b" opacity="0.1"/><circle cx="802.5853521023237" cy="63.08523488150968" r="41.93144158471114" fill="#f59e0b" opacity="0.1"/>
        <text x="600" y="520" font-family="Segoe UI, Arial, sans-serif" font-size="38" font-weight="800" fill="#ffffff" text-anchor="middle">Utilizing CSS Container Queries for Responsive Component ...</text>
        <text x="600" y="560" font-family="Segoe UI, Arial, sans-serif" font-size="16" font-weight="600" fill="#f59e0b" text-anchor="middle" style="letter-spacing: 4px; text-transform: uppercase;">UI UX Powerhouse • Specialized Series</text>
    </svg>