<svg width="1200" height="600" viewBox="0 0 1200 600" xmlns="http://www.w3.org/2000/svg">
        
            <rect width="1200" height="600" fill="#4c1d95"/>
            <g opacity="0.3">
                <line x1="872.8630038356641" y1="199.73941316864057" x2="628.7798681216373" y2="336.132364316677" stroke="#c084fc" stroke-width="1"/><line x1="872.8630038356641" y1="199.73941316864057" x2="537.8084542673605" y2="238.87093327539333" stroke="#c084fc" stroke-width="1"/><line x1="872.8630038356641" y1="199.73941316864057" x2="305.4798211142156" y2="355.30475074938295" stroke="#c084fc" stroke-width="1"/><line x1="872.8630038356641" y1="199.73941316864057" x2="693.8583509829186" y2="272.7675067572818" stroke="#c084fc" stroke-width="1"/><line x1="872.8630038356641" y1="199.73941316864057" x2="372.36573132327067" y2="282.2630356067748" stroke="#c084fc" stroke-width="1"/><line x1="872.8630038356641" y1="199.73941316864057" x2="381.72399066825164" y2="317.11050554649773" stroke="#c084fc" stroke-width="1"/><line x1="872.8630038356641" y1="199.73941316864057" x2="694.2128663322364" y2="110.27840169135743" stroke="#c084fc" stroke-width="1"/><line x1="628.7798681216373" y1="336.132364316677" x2="537.8084542673605" y2="238.87093327539333" stroke="#c084fc" stroke-width="1"/><line x1="628.7798681216373" y1="336.132364316677" x2="305.4798211142156" y2="355.30475074938295" stroke="#c084fc" stroke-width="1"/><line x1="628.7798681216373" y1="336.132364316677" x2="693.8583509829186" y2="272.7675067572818" stroke="#c084fc" stroke-width="1"/><line x1="628.7798681216373" y1="336.132364316677" x2="372.36573132327067" y2="282.2630356067748" stroke="#c084fc" stroke-width="1"/><line x1="628.7798681216373" y1="336.132364316677" x2="381.72399066825164" y2="317.11050554649773" stroke="#c084fc" stroke-width="1"/><line x1="628.7798681216373" y1="336.132364316677" x2="694.2128663322364" y2="110.27840169135743" stroke="#c084fc" stroke-width="1"/><line x1="537.8084542673605" y1="238.87093327539333" x2="305.4798211142156" y2="355.30475074938295" stroke="#c084fc" stroke-width="1"/><line x1="537.8084542673605" y1="238.87093327539333" x2="693.8583509829186" y2="272.7675067572818" stroke="#c084fc" stroke-width="1"/><line x1="537.8084542673605" y1="238.87093327539333" x2="372.36573132327067" y2="282.2630356067748" stroke="#c084fc" stroke-width="1"/><line x1="537.8084542673605" y1="238.87093327539333" x2="381.72399066825164" y2="317.11050554649773" stroke="#c084fc" stroke-width="1"/><line x1="537.8084542673605" y1="238.87093327539333" x2="694.2128663322364" y2="110.27840169135743" stroke="#c084fc" stroke-width="1"/><line x1="305.4798211142156" y1="355.30475074938295" x2="693.8583509829186" y2="272.7675067572818" stroke="#c084fc" stroke-width="1"/><line x1="305.4798211142156" y1="355.30475074938295" x2="372.36573132327067" y2="282.2630356067748" stroke="#c084fc" stroke-width="1"/><line x1="305.4798211142156" y1="355.30475074938295" x2="381.72399066825164" y2="317.11050554649773" stroke="#c084fc" stroke-width="1"/><line x1="305.4798211142156" y1="355.30475074938295" x2="694.2128663322364" y2="110.27840169135743" stroke="#c084fc" stroke-width="1"/><line x1="693.8583509829186" y1="272.7675067572818" x2="372.36573132327067" y2="282.2630356067748" stroke="#c084fc" stroke-width="1"/><line x1="693.8583509829186" y1="272.7675067572818" x2="381.72399066825164" y2="317.11050554649773" stroke="#c084fc" stroke-width="1"/><line x1="693.8583509829186" y1="272.7675067572818" x2="694.2128663322364" y2="110.27840169135743" stroke="#c084fc" stroke-width="1"/><line x1="372.36573132327067" y1="282.2630356067748" x2="381.72399066825164" y2="317.11050554649773" stroke="#c084fc" stroke-width="1"/><line x1="372.36573132327067" y1="282.2630356067748" x2="694.2128663322364" y2="110.27840169135743" stroke="#c084fc" stroke-width="1"/><line x1="381.72399066825164" y1="317.11050554649773" x2="694.2128663322364" y2="110.27840169135743" stroke="#c084fc" stroke-width="1"/>
            </g>
            <circle cx="872.8630038356641" cy="199.73941316864057" r="6.696387412470358" fill="#c084fc"/><circle cx="628.7798681216373" cy="336.132364316677" r="11.748499949513644" fill="#c084fc"/><circle cx="537.8084542673605" cy="238.87093327539333" r="5.8786969420580135" fill="#c084fc"/><circle cx="305.4798211142156" cy="355.30475074938295" r="9.781700118586741" fill="#c084fc"/><circle cx="693.8583509829186" cy="272.7675067572818" r="8.837566425339901" fill="#c084fc"/><circle cx="372.36573132327067" cy="282.2630356067748" r="9.873260602442315" fill="#c084fc"/><circle cx="381.72399066825164" cy="317.11050554649773" r="10.803675880837545" fill="#c084fc"/><circle cx="694.2128663322364" cy="110.27840169135743" r="7.051879373349948" fill="#c084fc"/>
        
        <text x="600" y="520" font-family="Segoe UI, Arial" font-size="38" font-weight="800" fill="#f8fafc" text-anchor="middle">Utilizing CSS Container Queries to Create Responsive and ...</text>
    </svg>