<svg width="1200" height="600" viewBox="0 0 1200 600" xmlns="http://www.w3.org/2000/svg">
            <rect width="1200" height="600" fill="#1e1b4b"/><path d="M 610.2787622643518 340.94507215013437 L 606.2374672266742 390.94507215013437 L 624.4819746725625 440.94507215013437" stroke="#f43f5e" fill="none" opacity="0.4"/>
                    <circle cx="610.2787622643518" cy="340.94507215013437" r="3" fill="#22d3ee"/><path d="M 15.655355496892298 98.41407168059959 L 16.867667574672396 148.4140716805996 L -21.36727111883374 198.4140716805996" stroke="#f43f5e" fill="none" opacity="0.4"/>
                    <circle cx="15.655355496892298" cy="98.41407168059959" r="3" fill="#22d3ee"/><path d="M 126.34035878581926 97.43696022342192 L 152.03768013470835 147.43696022342192 L 81.84968278928864 197.43696022342192" stroke="#f43f5e" fill="none" opacity="0.4"/>
                    <circle cx="126.34035878581926" cy="97.43696022342192" r="3" fill="#22d3ee"/><path d="M 532.917994897798 342.443881694453 L 495.39854406339145 392.443881694453 L 501.70332623235936 442.443881694453" stroke="#f43f5e" fill="none" opacity="0.4"/>
                    <circle cx="532.917994897798" cy="342.443881694453" r="3" fill="#22d3ee"/><path d="M 190.63839978771284 82.36925511773734 L 168.76652146511333 132.36925511773734 L 146.7791920858872 182.36925511773734" stroke="#f43f5e" fill="none" opacity="0.4"/>
                    <circle cx="190.63839978771284" cy="82.36925511773734" r="3" fill="#22d3ee"/><path d="M 190.03875537673593 287.99351447232766 L 228.40977668724918 337.99351447232766 L 185.3485986153828 387.99351447232766" stroke="#f43f5e" fill="none" opacity="0.4"/>
                    <circle cx="190.03875537673593" cy="287.99351447232766" r="3" fill="#22d3ee"/><path d="M 1082.3565859522205 63.03931790753268 L 1121.6779370803124 113.03931790753268 L 1118.7492298397956 163.03931790753268" stroke="#f43f5e" fill="none" opacity="0.4"/>
                    <circle cx="1082.3565859522205" cy="63.03931790753268" r="3" fill="#22d3ee"/><path d="M 1022.0923533712266 149.15764795368887 L 1049.4043615561168 199.15764795368887 L 1039.4094221837804 249.15764795368887" stroke="#f43f5e" fill="none" opacity="0.4"/>
                    <circle cx="1022.0923533712266" cy="149.15764795368887" r="3" fill="#22d3ee"/><path d="M 471.49930901359767 53.36748674199043 L 434.74662482776694 103.36748674199043 L 454.4104395432669 153.36748674199043" stroke="#f43f5e" fill="none" opacity="0.4"/>
                    <circle cx="471.49930901359767" cy="53.36748674199043" r="3" fill="#22d3ee"/><path d="M 187.2289850631205 300.36174937704345 L 232.10142992446663 350.36174937704345 L 225.8563260952542 400.36174937704345" stroke="#f43f5e" fill="none" opacity="0.4"/>
                    <circle cx="187.2289850631205" cy="300.36174937704345" r="3" fill="#22d3ee"/>
            <text x="600" y="520" font-family="Segoe UI, Arial, sans-serif" font-size="38" font-weight="800" fill="#ffffff" text-anchor="middle">Utilizing the Intersection of CSS Houdini and Variable Fo...</text>
            <text x="600" y="560" font-family="Segoe UI, Arial, sans-serif" font-size="16" font-weight="600" fill="#f43f5e" text-anchor="middle" style="letter-spacing: 4px; text-transform: uppercase;">UI UX Powerhouse • Specialized Series</text>
        </svg>