<svg width="1200" height="600" viewBox="0 0 1200 600" xmlns="http://www.w3.org/2000/svg">
            <rect width="1200" height="600" fill="#0f172a"/><path d="M 824.2478443331493 336.6044350539596 L 821.2725768992414 386.6044350539596 L 855.1169129257687 436.6044350539596" stroke="#38bdf8" fill="none" opacity="0.4"/>
                    <circle cx="824.2478443331493" cy="336.6044350539596" r="3" fill="#f472b6"/><path d="M 680.070308933864 99.77749895224406 L 647.7394170307889 149.77749895224406 L 687.744448649255 199.77749895224406" stroke="#38bdf8" fill="none" opacity="0.4"/>
                    <circle cx="680.070308933864" cy="99.77749895224406" r="3" fill="#f472b6"/><path d="M 977.6688943333284 377.2191732598003 L 945.7830168646524 427.2191732598003 L 931.0159901518091 477.2191732598003" stroke="#38bdf8" fill="none" opacity="0.4"/>
                    <circle cx="977.6688943333284" cy="377.2191732598003" r="3" fill="#f472b6"/><path d="M 1068.1450237785612 29.03282092156587 L 1082.8425267891362 79.03282092156587 L 1117.7566585263776 129.03282092156587" stroke="#38bdf8" fill="none" opacity="0.4"/>
                    <circle cx="1068.1450237785612" cy="29.03282092156587" r="3" fill="#f472b6"/><path d="M 1086.7439037052463 153.82520163075242 L 1061.3092401019458 203.82520163075242 L 1041.9726739070597 253.82520163075242" stroke="#38bdf8" fill="none" opacity="0.4"/>
                    <circle cx="1086.7439037052463" cy="153.82520163075242" r="3" fill="#f472b6"/><path d="M 641.5470457985066 363.1745695531208 L 655.2277952767326 413.1745695531208 L 682.6155507089425 463.1745695531208" stroke="#38bdf8" fill="none" opacity="0.4"/>
                    <circle cx="641.5470457985066" cy="363.1745695531208" r="3" fill="#f472b6"/><path d="M 996.6048745285661 381.91883220169984 L 978.8068141627264 431.91883220169984 L 996.8362170877299 481.91883220169984" stroke="#38bdf8" fill="none" opacity="0.4"/>
                    <circle cx="996.6048745285661" cy="381.91883220169984" r="3" fill="#f472b6"/><path d="M 1082.1016035835783 99.66999287471481 L 1121.1915120642516 149.6699928747148 L 1120.521835163936 199.6699928747148" stroke="#38bdf8" fill="none" opacity="0.4"/>
                    <circle cx="1082.1016035835783" cy="99.66999287471481" r="3" fill="#f472b6"/><path d="M 960.2255542500643 1.6161691903107567 L 944.7082587691511 51.61616919031076 L 1003.096602709229 101.61616919031076" stroke="#38bdf8" fill="none" opacity="0.4"/>
                    <circle cx="960.2255542500643" cy="1.6161691903107567" r="3" fill="#f472b6"/><path d="M 123.69319494791853 103.95557877054671 L 162.46636534315257 153.9555787705467 L 161.8216361893701 203.9555787705467" stroke="#38bdf8" fill="none" opacity="0.4"/>
                    <circle cx="123.69319494791853" cy="103.95557877054671" r="3" fill="#f472b6"/>
            <text x="600" y="520" font-family="Segoe UI, Arial, sans-serif" font-size="38" font-weight="800" fill="#ffffff" text-anchor="middle">UX Research Revolution: How AI is Transforming User Insig...</text>
            <text x="600" y="560" font-family="Segoe UI, Arial, sans-serif" font-size="16" font-weight="600" fill="#38bdf8" text-anchor="middle" style="letter-spacing: 4px; text-transform: uppercase;">UI UX Powerhouse • Specialized Series</text>
        </svg>