<svg width="1200" height="600" viewBox="0 0 1200 600" xmlns="http://www.w3.org/2000/svg">
            <rect width="1200" height="600" fill="#171717"/><rect x="150" y="230.03998441381555" width="60" height="119.96001558618445" fill="#f59e0b" opacity="0.6"/>
                    <rect x="170" y="210.03998441381555" width="60" height="119.96001558618445" fill="#fbbf24" opacity="0.4" transform="skewY(-20)"/><rect x="270" y="214.942747947498" width="60" height="135.057252052502" fill="#f59e0b" opacity="0.6"/>
                    <rect x="290" y="194.942747947498" width="60" height="135.057252052502" fill="#fbbf24" opacity="0.4" transform="skewY(-20)"/><rect x="390" y="179.82848793290032" width="60" height="170.17151206709968" fill="#f59e0b" opacity="0.6"/>
                    <rect x="410" y="159.82848793290032" width="60" height="170.17151206709968" fill="#fbbf24" opacity="0.4" transform="skewY(-20)"/><rect x="510" y="222.36374142757995" width="60" height="127.63625857242005" fill="#f59e0b" opacity="0.6"/>
                    <rect x="530" y="202.36374142757995" width="60" height="127.63625857242005" fill="#fbbf24" opacity="0.4" transform="skewY(-20)"/><rect x="630" y="256.36332897047396" width="60" height="93.63667102952604" fill="#f59e0b" opacity="0.6"/>
                    <rect x="650" y="236.36332897047396" width="60" height="93.63667102952604" fill="#fbbf24" opacity="0.4" transform="skewY(-20)"/><rect x="750" y="260.38350922644895" width="60" height="89.61649077355105" fill="#f59e0b" opacity="0.6"/>
                    <rect x="770" y="240.38350922644895" width="60" height="89.61649077355105" fill="#fbbf24" opacity="0.4" transform="skewY(-20)"/><rect x="870" y="110.20491425961154" width="60" height="239.79508574038846" fill="#f59e0b" opacity="0.6"/>
                    <rect x="890" y="90.20491425961154" width="60" height="239.79508574038846" fill="#fbbf24" opacity="0.4" transform="skewY(-20)"/><rect x="990" y="252.64988600576999" width="60" height="97.35011399423001" fill="#f59e0b" opacity="0.6"/>
                    <rect x="1010" y="232.64988600576999" width="60" height="97.35011399423001" fill="#fbbf24" opacity="0.4" transform="skewY(-20)"/>
            <text x="600" y="520" font-family="Segoe UI, Arial, sans-serif" font-size="38" font-weight="800" fill="#ffffff" text-anchor="middle">Agentic AI: The Virtual Teammate Every Designer Needs</text>
            <text x="600" y="560" font-family="Segoe UI, Arial, sans-serif" font-size="16" font-weight="600" fill="#f59e0b" text-anchor="middle" style="letter-spacing: 4px; text-transform: uppercase;">UI UX Powerhouse • Specialized Series</text>
        </svg>