<svg width="1200" height="600" viewBox="0 0 1200 600" xmlns="http://www.w3.org/2000/svg">
            <rect width="1200" height="600" fill="#171717"/><path d="M 1122.598944969468 97.82554146513576 L 1166.6081272702286 147.82554146513576 L 1155.6668065994018 197.82554146513576" stroke="#f59e0b" fill="none" opacity="0.4"/>
                    <circle cx="1122.598944969468" cy="97.82554146513576" r="3" fill="#ec4899"/><path d="M 329.45522430245546 104.6945713198511 L 307.8112660477018 154.6945713198511 L 378.69574963060586 204.6945713198511" stroke="#f59e0b" fill="none" opacity="0.4"/>
                    <circle cx="329.45522430245546" cy="104.6945713198511" r="3" fill="#ec4899"/><path d="M 548.9107957902888 142.5185208223411 L 519.1277849720791 192.5185208223411 L 569.5822057083177 242.5185208223411" stroke="#f59e0b" fill="none" opacity="0.4"/>
                    <circle cx="548.9107957902888" cy="142.5185208223411" r="3" fill="#ec4899"/><path d="M 611.2393463256012 87.42517524879077 L 581.1978373705642 137.42517524879077 L 656.069619955997 187.42517524879077" stroke="#f59e0b" fill="none" opacity="0.4"/>
                    <circle cx="611.2393463256012" cy="87.42517524879077" r="3" fill="#ec4899"/><path d="M 285.24845055089827 117.87939914211165 L 297.4221545513956 167.87939914211165 L 288.65858498757007 217.87939914211165" stroke="#f59e0b" fill="none" opacity="0.4"/>
                    <circle cx="285.24845055089827" cy="117.87939914211165" r="3" fill="#ec4899"/><path d="M 884.6916044391492 64.16732522775419 L 851.46800025027 114.16732522775419 L 906.7104403137364 164.1673252277542" stroke="#f59e0b" fill="none" opacity="0.4"/>
                    <circle cx="884.6916044391492" cy="64.16732522775419" r="3" fill="#ec4899"/><path d="M 194.25011568964692 119.01397052897664 L 162.1142104350838 169.01397052897664 L 151.96510333898914 219.01397052897664" stroke="#f59e0b" fill="none" opacity="0.4"/>
                    <circle cx="194.25011568964692" cy="119.01397052897664" r="3" fill="#ec4899"/><path d="M 327.0484357170062 12.683375542474096 L 314.6491596364285 62.683375542474096 L 290.24221107083576 112.6833755424741" stroke="#f59e0b" fill="none" opacity="0.4"/>
                    <circle cx="327.0484357170062" cy="12.683375542474096" r="3" fill="#ec4899"/><path d="M 444.49859960659523 389.8338174323726 L 407.7083662901714 439.8338174323726 L 490.54681588668245 489.8338174323726" stroke="#f59e0b" fill="none" opacity="0.4"/>
                    <circle cx="444.49859960659523" cy="389.8338174323726" r="3" fill="#ec4899"/><path d="M 1162.0740419595677 371.2312535571982 L 1179.1152359339321 421.2312535571982 L 1138.2993052683332 471.2312535571982" stroke="#f59e0b" fill="none" opacity="0.4"/>
                    <circle cx="1162.0740419595677" cy="371.2312535571982" r="3" fill="#ec4899"/>
            <text x="600" y="520" font-family="Segoe UI, Arial, sans-serif" font-size="38" font-weight="800" fill="#ffffff" text-anchor="middle">Voice User Interface (VUI) and Conversational Design: Opt...</text>
            <text x="600" y="560" font-family="Segoe UI, Arial, sans-serif" font-size="16" font-weight="600" fill="#f59e0b" text-anchor="middle" style="letter-spacing: 4px; text-transform: uppercase;">UI UX Powerhouse • Specialized Series</text>
        </svg>