<svg width="1200" height="600" viewBox="0 0 1200 600" xmlns="http://www.w3.org/2000/svg">
            <rect width="1200" height="600" fill="#0c4a6e"/><circle cx="191.31773006756703" cy="373.1030446397199" r="26.742128251717077" fill="#7dd3fc" opacity="0.1"/><circle cx="780.5866238290037" cy="352.5109508473179" r="28.00162253777671" fill="#7dd3fc" opacity="0.1"/><circle cx="161.12619933555834" cy="116.48290718840144" r="49.27378702584974" fill="#7dd3fc" opacity="0.1"/><circle cx="16.81920757764601" cy="58.49975266537513" r="20.333595552274346" fill="#7dd3fc" opacity="0.1"/><circle cx="599.882007680533" cy="327.5326505281555" r="18.033795984229073" fill="#7dd3fc" opacity="0.1"/><circle cx="719.756551062892" cy="74.52307947642112" r="18.383267272765806" fill="#7dd3fc" opacity="0.1"/><circle cx="112.39385870067053" cy="397.3032028749003" r="20.82381775659087" fill="#7dd3fc" opacity="0.1"/><circle cx="702.256885474344" cy="343.17749609981547" r="34.96305863478483" fill="#7dd3fc" opacity="0.1"/><circle cx="1089.4636718904621" cy="383.35037006327184" r="21.074296006845543" fill="#7dd3fc" opacity="0.1"/><circle cx="402.60263316849887" cy="369.5093005833769" r="25.672669254272478" fill="#7dd3fc" opacity="0.1"/><circle cx="881.630033453257" cy="367.53687772416015" r="35.770558921321935" fill="#7dd3fc" opacity="0.1"/><circle cx="119.10852447326761" cy="180.64382776665298" r="26.075107497672434" fill="#7dd3fc" opacity="0.1"/><circle cx="780.0958365914994" cy="173.71925186680528" r="35.07179712607467" fill="#7dd3fc" opacity="0.1"/><circle cx="523.4077574379626" cy="212.9215406042931" r="20.18423509764034" fill="#7dd3fc" opacity="0.1"/><circle cx="1152.8075656084638" cy="268.2251848385022" r="14.26670277469384" fill="#7dd3fc" opacity="0.1"/><circle cx="1096.5356090173373" cy="147.63181575326598" r="30.609187063964782" fill="#7dd3fc" opacity="0.1"/><circle cx="682.1879173287016" cy="161.4750233831728" r="46.281206798012136" fill="#7dd3fc" opacity="0.1"/><circle cx="880.051186052151" cy="113.69054587557912" r="36.06528666372242" fill="#7dd3fc" opacity="0.1"/><circle cx="332.2087573556928" cy="14.609347326040734" r="26.953310656208487" fill="#7dd3fc" opacity="0.1"/><circle cx="1144.447197856789" cy="374.1933780751424" r="13.90195731910353" fill="#7dd3fc" opacity="0.1"/><circle cx="721.4400549168204" cy="58.59955528512728" r="23.61188813338231" fill="#7dd3fc" opacity="0.1"/><circle cx="812.1066980504111" cy="135.01844070633524" r="16.37878391542472" fill="#7dd3fc" opacity="0.1"/><circle cx="710.1573601476048" cy="244.95920015033334" r="29.725445448366372" fill="#7dd3fc" opacity="0.1"/><circle cx="1197.4945137066243" cy="326.36469158460386" r="29.344568206724944" fill="#7dd3fc" opacity="0.1"/><circle cx="1075.172342256701" cy="192.16854515689192" r="47.56314471633232" fill="#7dd3fc" opacity="0.1"/><circle cx="808.9546565144701" cy="1.8878212482377421" r="24.256319867272396" fill="#7dd3fc" opacity="0.1"/><circle cx="489.513002102467" cy="368.3586833336449" r="26.524866722684237" fill="#7dd3fc" opacity="0.1"/><circle cx="575.6902425350745" cy="306.3812731201324" r="48.068962846118666" fill="#7dd3fc" opacity="0.1"/><circle cx="345.01927816381794" cy="149.55840971560974" r="43.24628669517551" fill="#7dd3fc" opacity="0.1"/><circle cx="130.96701575886982" cy="319.72869251985685" r="17.78370632971928" fill="#7dd3fc" opacity="0.1"/>
            <text x="600" y="520" font-family="Segoe UI, Arial, sans-serif" font-size="38" font-weight="800" fill="#ffffff" text-anchor="middle">The Impact of Web3 and Blockchain on User Experience: Dec...</text>
            <text x="600" y="560" font-family="Segoe UI, Arial, sans-serif" font-size="16" font-weight="600" fill="#7dd3fc" text-anchor="middle" style="letter-spacing: 4px; text-transform: uppercase;">UI UX Powerhouse • Specialized Series</text>
        </svg>