<?xml version="1.0" standalone="no"?> <!DOCTYPE svg PUBLIC "-//W3C//DTD SVG 1.0//EN" "http://www.w3.org/TR/2001/REC-SVG-20010904/DTD/svg10.dtd" > <svg xmlns="http://www.w3.org/2000/svg" width="100%" height="100%">
<defs >
<font id="KPMG" horiz-adv-x="322" ><font-face
    font-family="KPMG Web"
    units-per-em="1000"
    panose-1="2 11 3 3 3 2 2 4 2 4"
    ascent="698"
    descent="-90"
    alphabetic="0" />
<missing-glyph horiz-adv-x="625" />
<glyph unicode=" " glyph-name="space" horiz-adv-x="132" />
<glyph unicode="!" glyph-name="exclam" horiz-adv-x="102" d="M38 36H64V0H38V36ZM37 678H65L60 97H42L37 678Z" />
<glyph unicode="&quot;" glyph-name="quotedbl" horiz-adv-x="147" d="M54 577H36L32 678H57L54 577ZM111 577H93L90 678H115L111 577Z" />
<glyph unicode="#" glyph-name="numbersign" horiz-adv-x="304" d="M185 248H99L73 0H51L77 248H21V271H79L96 433H39V456H99L122 678H144L121 456H207L230 678H251L228 456H283V433H225L208 271H265V248H206L180 0H159L185 248ZM101 271H187L204 433H118L101 271Z" />
<glyph unicode="$" glyph-name="dollar" horiz-adv-x="324" d="M173 681Q230 678 258 649T287 561V477H263V562Q263 610 240 633T173 660V363L207 329Q229 307 246 289T274 251T291 212T297 165V125Q297 99 290 76T266 36T227 8T172 -4V-50H151V-3Q90 0 59 35T28
125V237H53V125Q53 78 78 50T151 17V350L124 376Q100 399 83 417T55 454T38 492T32 537V564Q32 619 64 649T152 682V718H173V681ZM172 329V17Q222 19 246 50T271 124V163Q271 185 267 203T253 238T228 272T192 310L172 329ZM56 537Q56 495 78 465T140 396L152 384V661Q110
659 83 634T56 564V537Z" />
<glyph unicode="%" glyph-name="percent" horiz-adv-x="426" d="M367 678H389L59 0H36L367 678ZM303 -4Q249 -4 226 28T203 116V165Q203 221 226 253T303 285Q357 285 379 253T402 165V116Q402 60 380 28T303 -4ZM303 17Q346 17 361 43T377 114V167Q377 212 362
238T303 264Q260 264 244 238T228 167V114Q228 69 244 43T303 17ZM124 393Q70 393 47 425T24 513V562Q24 618 47 650T124 682Q178 682 200 650T223 562V513Q223 457 201 425T124 393ZM124 414Q166 414 182 440T198 511V564Q198 609 182 635T124 661Q80 661 65 635T49
564V511Q49 466 64 440T124 414Z" />
<glyph unicode="&amp;" glyph-name="ampersand" horiz-adv-x="361" d="M158 -5Q90 -5 61 33T32 142V244Q32 299 57 326T119 362Q85 371 65 397T44 473V544Q44 616 76 649T168 683Q231 683 259 654T288 552V490H262V553Q262 613 240 637T169 661Q122 661 96 635T70
544V470Q70 425 93 399T167 373H344V350H298V0H274V68Q265 36 238 16T158 -5ZM163 17Q223 17 247 50T273 133V350H165Q114 350 86 324T58 246V142Q58 81 82 49T163 17Z" />
<glyph unicode="&apos;" glyph-name="quotesingle" horiz-adv-x="90" d="M54 577H36L32 678H57L54 577Z" />
<glyph unicode="(" glyph-name="parenleft" horiz-adv-x="176" d="M42 529Q42 573 50 603T73 652T108 682T153 698V677Q110 666 88 635T65 529V78Q65 41 70 16T87 -27T115 -53T153 -69V-90Q129 -85 109 -75T73 -45T50 4T42 78V529Z" />
<glyph unicode=")" glyph-name="parenright" horiz-adv-x="176" d="M134 78Q134 34 126 5T103 -44T68 -74T23 -90V-69Q44 -63 60 -54T88 -27T105 15T111 78V529Q111 603 89 634T23 677V698Q47 693 67 683T103 653T126 603T134 529V78Z" />
<glyph unicode="*" glyph-name="asterisk" horiz-adv-x="207" d="M104 580L65 518L45 532L93 589L21 608L28 630L97 601L92 678H116L110 601L179 630L186 608L114 589L162 532L143 518L104 580Z" />
<glyph unicode="+" glyph-name="plus" horiz-adv-x="347" d="M27 346H162V499H185V346H320V324H185V171H162V324H27V346Z" />
<glyph unicode="," glyph-name="comma" horiz-adv-x="102" d="M67 34L44 -76H25L40 36H67V34Z" />
<glyph unicode="-" glyph-name="hyphen" horiz-adv-x="166" d="M22 326H144V304H22V326Z" />
<glyph unicode="." glyph-name="period" horiz-adv-x="102" d="M38 36H64V0H38V36Z" />
<glyph unicode="/" glyph-name="slash" horiz-adv-x="186" d="M173 698L28 -90H5L150 698H173Z" />
<glyph unicode="0" glyph-name="zero" horiz-adv-x="350" d="M175 17Q205 17 227 27T263 56T285 99T292 150V528Q292 555 285 579T264 622T227 650T175 661Q145 661 123 651T87 622T66 580T59 528V150Q59 123 66 99T87 57T123 28T175 17ZM175 -5Q138 -5 111 7T67
41T41 92T32 153V525Q32 558 40 586T66 636T111 670T175 683Q212 683 239 671T283 637T309 587T318 525V153Q318 121 310 92T284 42T239 8T175 -5Z" />
<glyph unicode="1" glyph-name="one" horiz-adv-x="181" d="M99 636H98L19 541H18V571L105 678H125V0H99V636Z" />
<glyph unicode="2" glyph-name="two" horiz-adv-x="321" d="M31 102Q31 131 36 152T51 192T77 230T113 272L189 356Q221 391 241 426T261 497V558Q261 614 234 637T162 661Q117 661 89 635T60 550V474H34V550Q34 617 68 650T162 683Q222 683 255 654T288 558V495Q288
456 266 419T209 342L130 254Q112 233 98 217T75 185T62 149T57 102V22H289V0H31V102Z" />
<glyph unicode="3" glyph-name="three" horiz-adv-x="335" d="M171 683Q233 683 264 651T296 547V470Q296 422 273 397T214 362Q252 354 277 327T303 244V134Q303 68 272 32T168 -5Q96 -5 63 29T30 133V221H56V132Q56 72 83 45T168 17Q226 17 251 47T277 134V245Q277
296 250 323T171 350H133V372H170Q220 372 245 397T271 469V547Q271 610 245 635T170 661Q119 661 91 634T63 555V487H38V554Q38 616 72 649T171 683Z" />
<glyph unicode="4" glyph-name="four" horiz-adv-x="333" d="M12 174L228 678H258V178H312V157H258V0H232V157H12V174ZM37 178H232V630H231L37 178Z" />
<glyph unicode="5" glyph-name="five" horiz-adv-x="332" d="M172 450Q196 450 219 444T260 421T289 376T300 305V140Q300 71 270 33T166 -5Q97 -5 64 32T30 138V219H56V136Q56 74 84 46T166 17Q226 17 249 49T273 140V305Q273 342 264 366T239 403T205 422T165
427Q147 427 128 421T94 402T69 368T59 316V305H35V678H287V656H58V377H59Q73 413 103 431T172 450Z" />
<glyph unicode="6" glyph-name="six" horiz-adv-x="340" d="M171 -5Q105 -5 69 35T32 155V528Q32 608 71 645T171 683Q231 683 265 650T299 540V491H274V542Q274 605 247 633T172 661Q123 661 91 630T59 531V345H60Q71 377 100 401T178 425Q241 425 275 389T310
273V148Q310 69 274 32T171 -5ZM171 17Q225 17 254 47T284 146V274Q284 343 256 373T173 403Q151 403 131 395T94 371T69 331T59 275V151Q59 84 89 51T171 17Z" />
<glyph unicode="7" glyph-name="seven" horiz-adv-x="290" d="M18 678H264V612L100 0H74L239 616V656H18V678Z" />
<glyph unicode="8" glyph-name="eight" horiz-adv-x="347" d="M173 -5Q98 -5 64 37T30 143V238Q30 289 52 326T124 376Q79 389 63 423T46 506V544Q46 607 76 645T173 683Q241 683 271 645T302 544V506Q302 458 285 424T222 376Q271 363 294 326T317 238V143Q317
79 283 37T173 -5ZM173 17Q204 17 226 26T262 53T283 92T290 142V241Q290 294 262 329T173 365Q112 365 85 330T57 241V142Q57 89 84 53T173 17ZM173 387Q203 387 223 396T255 421T271 458T276 505V544Q276 598 252 629T173 661Q118 661 95 630T71 544V505Q71 480
75 459T92 421T123 396T173 387Z" />
<glyph unicode="9" glyph-name="nine" horiz-adv-x="340" d="M169 683Q235 683 271 643T308 523V147Q308 106 298 77T270 30T226 4T170 -5Q110 -5 75 28T39 138V187H64V136Q64 73 92 45T170 17Q194 17 214 23T250 45T273 84T282 145V333H281Q269 302 240 278T161
253Q99 253 65 289T30 405V530Q30 609 66 646T169 683ZM169 661Q116 661 86 631T56 531V404Q56 335 84 305T167 275Q189 275 210 283T247 307T272 347T282 403V526Q282 594 252 627T169 661Z" />
<glyph unicode=":" glyph-name="colon" horiz-adv-x="102" d="M38 36H64V0H38V36ZM38 310H64V274H38V310Z" />
<glyph unicode=";" glyph-name="semicolon" horiz-adv-x="102" d="M40 36H67V34L44 -76H25L40 36ZM41 310H67V274H41V310Z" />
<glyph unicode="&lt;" glyph-name="less" horiz-adv-x="313" d="M16 335L289 469V446L48 330L289 214V190L16 324V335Z" />
<glyph unicode="=" glyph-name="equal" horiz-adv-x="360" d="M27 290H333V270H27V290ZM27 382H333V362H27V382Z" />
<glyph unicode="&gt;" glyph-name="greater" horiz-adv-x="313" d="M24 190V214L265 330L24 446V469L297 335V324L24 190Z" />
<glyph unicode="?" glyph-name="question" horiz-adv-x="307" d="M123 97V199Q123 224 125 240T132 270T146 297T167 329L211 393Q232 425 240 447T249 500V549Q249 607 226 634T155 661Q107 661 80 636T53 555V482H28V555Q28 621 61 652T155 683Q215 683 245
650T275 548V499Q275 464 265 439T231 380L188 316Q177 300 170 288T157 264T150 236T148 199V97H123ZM122 36H149V0H122V36Z" />
<glyph unicode="@" glyph-name="at" horiz-adv-x="500" d="M397 35Q365 35 351 50T334 95H333Q321 68 301 52T243 35Q199 35 171 62T142 151V426Q142 489 171 516T245 544Q282 544 301 529T331 490H332V540H355V107Q355 76 366 65T399 53Q418 53 430 66T442 112V491Q442
537 428 570T389 624T329 655T252 665Q211 665 176 654T114 620T73 563T58 481V125Q58 32 108 -20T259 -73H412V-90H259Q149 -90 94 -33T38 125V481Q38 531 55 569T101 632T169 669T252 682Q297 682 335 671T401 637T445 577T461 491V113Q461 35 397 35ZM167 151Q167
102 188 79T248 55Q282 55 306 77T330 149V429Q330 480 307 502T250 524Q212 524 190 501T167 426V151Z" />
<glyph unicode="A" glyph-name="A" horiz-adv-x="341" d="M14 0L152 678H187L327 0H300L261 188H78L40 0H14ZM82 211H257L170 641H169L82 211Z" />
<glyph unicode="B" glyph-name="B" horiz-adv-x="317" d="M35 678H148Q212 678 243 649T274 562V457Q274 372 201 354Q246 348 269 321T292 247V116Q292 59 261 30T165 0H35V678ZM163 22Q266 22 266 116V248Q266 294 241 317T161 341H61V22H163ZM61 656V362H150Q248
362 248 456V562Q248 656 146 656H61Z" />
<glyph unicode="C" glyph-name="C" horiz-adv-x="336" d="M174 -5Q135 -5 108 8T64 43T40 95T32 157V521Q32 554 39 583T64 635T108 670T174 683Q214 683 239 673T280 643T301 596T307 534V454H281V536Q281 565 277 588T260 627T228 652T174 661Q142 661 121 650T85
620T65 577T59 524V154Q59 127 65 102T85 58T120 28T174 17Q207 17 227 26T260 53T276 93T281 143V260H307V144Q307 112 301 85T280 38T240 7T174 -5Z" />
<glyph unicode="D" glyph-name="D" horiz-adv-x="343" d="M61 22H156Q191 22 215 33T255 62T277 106T284 158V520Q284 548 277 572T255 615T216 645T156 656H61V22ZM158 678Q199 678 228 665T275 630T301 579T310 517V161Q310 129 302 100T275 48T228 13T158 0H35V678H158Z"
/>
<glyph unicode="E" glyph-name="E" horiz-adv-x="299" d="M35 678H271V656H61V356H214V334H61V22H271V0H35V678Z" />
<glyph unicode="F" glyph-name="F" horiz-adv-x="281" d="M35 678H263V656H61V356H214V334H61V0H35V678Z" />
<glyph unicode="G" glyph-name="G" horiz-adv-x="346" d="M184 334H309V0H286V70Q277 38 250 17T172 -5Q134 -5 108 8T64 43T40 95T32 157V521Q32 554 40 583T65 635T109 670T174 683Q214 683 240 673T281 643T303 596T309 534V474H284V536Q284 565 279 588T262
627T229 652T175 661Q143 661 121 650T86 620T66 577T59 524V154Q59 127 65 102T85 58T120 28T174 17Q205 17 225 26T258 51T276 88T283 136V312H184V334Z" />
<glyph unicode="H" glyph-name="H" horiz-adv-x="337" d="M276 334H61V0H35V678H61V356H276V678H303V0H276V334Z" />
<glyph unicode="I" glyph-name="I" horiz-adv-x="95" d="M35 678H61V0H35V678Z" />
<glyph unicode="J" glyph-name="J" horiz-adv-x="293" d="M261 678V124Q261 64 233 30T142 -5Q79 -5 52 29T25 122V260H51V122Q51 74 72 46T142 17Q191 17 212 45T234 122V678H261Z" />
<glyph unicode="K" glyph-name="K" horiz-adv-x="311" d="M61 341V0H35V678H61V350L273 678H301L87 348L302 0H274L61 341Z" />
<glyph unicode="L" glyph-name="L" horiz-adv-x="264" d="M35 678H61V22H249V0H35V678Z" />
<glyph unicode="M" glyph-name="M" horiz-adv-x="420" d="M359 631H355L218 0H199L62 631H58V0H35V678H76L208 70H209L341 678H386V0H359V631Z" />
<glyph unicode="N" glyph-name="N" horiz-adv-x="332" d="M58 625V0H35V678H66L274 66V678H298V0H270L58 625Z" />
<glyph unicode="O" glyph-name="O" horiz-adv-x="355" d="M177 17Q208 17 231 28T268 58T289 102T296 154V524Q296 552 289 576T268 620T231 650T177 661Q146 661 124 650T87 620T66 577T59 524V154Q59 127 66 102T87 58T123 28T177 17ZM177 -5Q139 -5 112 8T67
43T41 95T32 157V521Q32 554 40 583T66 635T111 670T177 683Q216 683 243 670T288 635T314 584T323 521V157Q323 124 315 95T289 44T244 8T177 -5Z" />
<glyph unicode="P" glyph-name="P" horiz-adv-x="306" d="M35 678H153Q217 678 248 648T279 562V372Q279 316 248 286T153 255H61V0H35V678ZM61 656V277H151Q202 277 227 301T253 370V562Q253 656 151 656H61Z" />
<glyph unicode="Q" glyph-name="Q" horiz-adv-x="355" d="M155 -16V-3Q123 1 100 15T61 50T39 99T32 157V521Q32 554 40 583T66 635T111 670T177 683Q216 683 243 670T288 635T314 584T323 521V157Q323 126 316 99T293 50T253 14T196 -3L332 -34V-56L155 -16ZM177
17Q208 17 231 28T268 57T289 101T296 153V524Q296 552 289 576T268 620T231 650T177 661Q146 661 124 650T87 620T66 577T59 524V153Q59 126 66 101T87 58T123 28T177 17Z" />
<glyph unicode="R" glyph-name="R" horiz-adv-x="309" d="M61 343V0H35V678H152Q217 678 248 648T279 562V450Q279 394 248 364T151 333H95L301 0H272L61 343ZM61 656V355H150Q252 355 252 449V562Q252 656 150 656H61Z" />
<glyph unicode="S" glyph-name="S" horiz-adv-x="323" d="M164 -5Q96 -5 62 31T27 125V237H52V125Q52 75 80 46T164 17Q217 17 243 48T270 124V163Q270 185 266 203T252 238T227 272T190 309L123 375Q99 398 82 417T54 454T37 492T31 537V564Q31 621 65 652T157
683Q285 683 285 561V477H261V562Q261 613 235 637T157 661Q112 661 84 636T55 564V537Q55 495 76 465T138 397L206 331Q228 309 245 290T273 252T290 212T296 165V125Q296 98 288 75T264 34T222 6T164 -5Z" />
<glyph unicode="T" glyph-name="T" horiz-adv-x="300" d="M17 678H283V656H163V0H137V656H17V678Z" />
<glyph unicode="U" glyph-name="U" horiz-adv-x="340" d="M307 678V148Q307 116 300 88T277 40T235 7T170 -5Q132 -5 106 7T63 39T40 88T33 148V678H59V146Q59 119 64 96T83 55T117 27T170 17Q201 17 222 27T257 54T276 95T282 146V678H307Z" />
<glyph unicode="V" glyph-name="V" horiz-adv-x="331" d="M317 678L183 0H150L14 678H41L167 43H168L291 678H317Z" />
<glyph unicode="W" glyph-name="W" horiz-adv-x="487" d="M243 603L144 0H113L17 678H43L130 55H131L232 678H257L358 56H359L445 678H470L375 0H343L244 603H243Z" />
<glyph unicode="X" glyph-name="X" horiz-adv-x="330" d="M146 359L31 678H58L165 381L271 678H298L182 357L312 0H284L163 334L45 0H18L146 359Z" />
<glyph unicode="Y" glyph-name="Y" horiz-adv-x="308" d="M168 258V0H142V258L12 678H39L155 297H156L270 678H296L168 258Z" />
<glyph unicode="Z" glyph-name="Z" horiz-adv-x="301" d="M49 22H271V0H21V22L251 656H42V678H280V656L49 22Z" />
<glyph unicode="[" glyph-name="bracketleft" horiz-adv-x="169" d="M44 698H146V678H68V-70H146V-90H44V698Z" />
<glyph unicode="\" glyph-name="backslash" horiz-adv-x="186" d="M13 698H36L181 -90H158L13 698Z" />
<glyph unicode="]" glyph-name="bracketright" horiz-adv-x="169" d="M23 -70H101V678H23V698H124V-90H23V-70Z" />
<glyph unicode="^" glyph-name="asciicircum" horiz-adv-x="242" d="M115 678H127L219 505H195L121 645L47 505H23L115 678Z" />
<glyph unicode="_" glyph-name="underscore" horiz-adv-x="247" d="M1 -70H246V-90H1V-70Z" />
<glyph unicode="`" glyph-name="grave" horiz-adv-x="406" d="M130 673L275 612V593L130 652V673Z" />
<glyph unicode="a" glyph-name="a" horiz-adv-x="307" d="M250 0V64H249Q238 36 211 16T141 -5Q87 -5 57 25T27 124V172Q27 205 35 226T58 263T94 289T142 313Q203 340 226 358T250 397V443Q250 492 232 521T163 550Q115 550 91 525T66 451V398H41V450Q41 507
72 539T164 572Q226 572 251 538T276 441V0H250ZM146 17Q167 17 185 23T218 43T241 77T250 125V356Q246 351 241 345T224 332T194 315T148 292Q125 281 107 271T77 248T59 217T52 172V125Q52 17 146 17Z" />
<glyph unicode="b" glyph-name="b" d="M35 678H60V499H61Q73 528 100 550T175 572Q230 572 260 541T290 441V126Q290 58 259 27T171 -5Q125 -5 99 15T61 64H60V0H35V678ZM265 440Q265 550 167 550Q125 550 94 523T60 444V119Q62 68 92 43T165 17Q213 17 239 44T265
127V440Z" />
<glyph unicode="c" glyph-name="c" horiz-adv-x="312" d="M286 181V131Q286 -5 163 -5Q100 -5 66 32T32 137V432Q32 500 66 536T162 572Q286 572 286 438V398H260V439Q260 550 162 550Q111 550 84 520T57 434V135Q57 79 84 48T163 17Q261 17 261 129V181H286Z" />
<glyph unicode="d" glyph-name="d" d="M289 0H263V67H262Q251 39 225 17T153 -5Q96 -5 65 26T33 126V441Q33 509 66 540T154 572Q201 572 225 552T262 502H263V678H289V0ZM59 127Q59 17 158 17Q202 17 232 45T263 128V440Q263 494 233 522T160 550Q112 550 86
523T59 440V127Z" />
<glyph unicode="e" glyph-name="e" horiz-adv-x="323" d="M292 181V131Q292 -5 165 -5Q102 -5 67 32T32 137V432Q32 500 66 536T162 572Q225 572 258 537T292 433V294H57V135Q57 79 85 48T165 17Q267 17 267 129V181H292ZM57 315H266V434Q266 490 240 520T162
550Q111 550 84 520T57 434V315Z" />
<glyph unicode="f" glyph-name="f" horiz-adv-x="186" d="M15 567H60V606Q60 644 77 661T136 678H171V658H139Q110 658 98 646T86 605V567H171V547H86V0H60V547H15V567Z" />
<glyph unicode="g" glyph-name="g" d="M288 567V30Q288 -27 258 -61T163 -95Q100 -95 68 -64T36 20V49H61V21Q61 -24 86 -48T163 -73Q215 -73 238 -46T262 27V155H261Q250 128 224 107T152 85Q95 85 64 116T32 215V441Q32 509 65 540T153 572Q200 572 224 552T261
502H262V567H288ZM157 106Q199 106 229 133T262 211V440Q262 494 232 522T158 550Q110 550 84 523T58 440V216Q58 106 157 106Z" />
<glyph unicode="h" glyph-name="h" horiz-adv-x="315" d="M258 442Q258 550 164 550Q124 550 93 524T60 447V0H35V678H60V501H61Q73 530 99 551T171 572Q224 572 253 542T283 443V0H258V442Z" />
<glyph unicode="i" glyph-name="i" horiz-adv-x="95" d="M35 567H60V0H35V567ZM35 678H60V647H35V678Z" />
<glyph unicode="j" glyph-name="j" horiz-adv-x="95" d="M60 567V-30Q60 -61 46 -75T-4 -90H-11V-69H-5Q17 -69 26 -59T35 -29V567H60ZM35 678H60V647H35V678Z" />
<glyph unicode="k" glyph-name="k" horiz-adv-x="276" d="M239 0L60 289V0H35V678H60V295L234 567H261L86 294L267 0H239Z" />
<glyph unicode="l" glyph-name="l" horiz-adv-x="95" d="M35 678H60V0H35V678Z" />
<glyph unicode="m" glyph-name="m" horiz-adv-x="503" d="M240 447Q240 497 219 523T155 550Q117 550 90 525T60 451V0H35V567H60V504H61Q72 531 96 551T162 572Q241 572 260 496H261Q271 528 298 550T367 572Q418 572 444 542T471 448V0H445V447Q445 497 424
523T360 550Q323 550 295 524T265 451V0H240V447Z" />
<glyph unicode="n" glyph-name="n" horiz-adv-x="315" d="M258 442Q258 550 164 550Q124 550 93 524T60 447V0H35V567H60V501H61Q73 530 99 551T171 572Q224 572 253 542T283 443V0H258V442Z" />
<glyph unicode="o" glyph-name="o" horiz-adv-x="324" d="M292 137Q292 69 259 32T162 -5Q100 -5 66 32T32 137V430Q32 498 66 535T162 572Q225 572 258 535T292 430V137ZM162 17Q213 17 240 48T267 135V432Q267 488 240 519T162 550Q111 550 84 519T57 432V135Q57
79 84 48T162 17Z" />
<glyph unicode="p" glyph-name="p" d="M35 567H60V499H61Q73 528 100 550T175 572Q230 572 260 541T290 441V126Q290 58 259 27T171 -5Q125 -5 99 15T61 64H60V-90H35V567ZM265 440Q265 550 167 550Q125 550 94 523T60 444V119Q62 68 92 43T165 17Q213 17 239
44T265 127V440Z" />
<glyph unicode="q" glyph-name="q" d="M288 -90H262V67H261Q250 39 224 17T152 -5Q95 -5 64 26T32 126V441Q32 509 65 540T153 572Q200 572 224 552T261 502H262V567H288V-90ZM58 127Q58 17 157 17Q201 17 231 45T262 128V440Q262 494 232 522T158 550Q110 550
84 523T58 440V127Z" />
<glyph unicode="r" glyph-name="r" horiz-adv-x="188" d="M167 543H163Q122 543 92 517T60 440V0H35V567H60V496H62Q73 525 98 547T167 569V543Z" />
<glyph unicode="s" glyph-name="s" horiz-adv-x="305" d="M276 121Q276 61 246 28T150 -5Q87 -5 57 30T27 124V178H52V124Q52 76 75 47T150 17Q204 17 227 43T251 120V138Q251 155 248 170T237 199T215 227T180 259L113 311Q70 344 51 373T31 442V459Q31 510 59
541T147 572Q268 572 268 448V402H243V449Q243 500 220 525T147 550Q100 550 78 526T56 460V443Q56 411 71 387T127 332L194 280Q218 261 234 245T259 212T272 178T276 139V121Z" />
<glyph unicode="t" glyph-name="t" horiz-adv-x="198" d="M15 567H60V678H86V567H172V547H86V76Q86 46 98 34T142 21H172V0H140Q95 0 78 18T60 77V547H15V567Z" />
<glyph unicode="u" glyph-name="u" horiz-adv-x="315" d="M58 125Q58 17 152 17Q171 17 189 23T221 42T245 74T255 119V567H281V0H255V66H254Q242 35 216 15T144 -5Q91 -5 62 25T32 124V567H58V125Z" />
<glyph unicode="v" glyph-name="v" horiz-adv-x="291" d="M284 567L162 0H130L7 567H33L146 44H147L259 567H284Z" />
<glyph unicode="w" glyph-name="w" horiz-adv-x="456" d="M446 567L351 0H322L228 508L135 0H105L10 567H35L121 56H122L217 567H241L336 56H337L422 567H446Z" />
<glyph unicode="x" glyph-name="x" horiz-adv-x="295" d="M283 567L170 296L285 0H258L151 275L36 0H9L133 297L19 567H46L152 316L257 567H283Z" />
<glyph unicode="y" glyph-name="y" horiz-adv-x="292" d="M285 567L141 -15Q136 -36 130 -50T114 -73T90 -86T55 -90H32V-69H54Q85 -69 97 -56T118 -10L135 58H127L7 567H33L144 97H145L260 567H285Z" />
<glyph unicode="z" glyph-name="z" horiz-adv-x="279" d="M50 21H251V0H23V21L228 546H39V567H255V546L50 21Z" />
<glyph unicode="{" glyph-name="braceleft" horiz-adv-x="216" d="M183 -69Q130 -69 108 -43T92 47L107 222Q108 241 107 256T99 282T78 298T38 304H20V325H38Q63 325 77 331T99 347T107 373T107 408L92 583Q86 646 108 672T183 698H193V678H181Q145 678 128 658T116
585L131 409Q135 374 126 349T80 315Q117 306 126 280T131 220L116 45Q111 -9 127 -28T181 -48H193V-69H183Z" />
<glyph unicode="|" glyph-name="bar" horiz-adv-x="98" d="M60 698V-90H38V698H60Z" />
<glyph unicode="}" glyph-name="braceright" horiz-adv-x="216" d="M23 -48H35Q72 -48 88 -29T100 45L85 220Q82 255 90 280T136 315Q99 324 91 349T85 409L100 585Q104 638 88 658T35 678H23V698H34Q86 698 108 672T124 583L109 408Q107 389 108 374T117 348T138
331T179 325H196V304H179Q153 304 139 299T117 283T109 257T109 222L124 47Q130 -16 108 -42T34 -69H23V-48Z" />
<glyph unicode="~" glyph-name="asciitilde" horiz-adv-x="241" d="M26 288Q27 312 39 328T74 344Q87 344 99 340T122 329T144 319T166 314Q181 314 187 324T195 348H215Q214 324 202 308T167 292Q153 292 142 296T119 307T98 317T75 322Q60 322 54 312T46 288H26Z" />
<glyph unicode="&#xa1;" glyph-name="exclamdown" horiz-adv-x="102" d="M64 552H38V588H64V552ZM42 491H60L65 -90H37L42 491Z" />
<glyph unicode="&#xa2;" glyph-name="cent" horiz-adv-x="312" d="M286 181V131Q286 1 172 -3V-50H151V-3Q93 0 63 36T32 137V432Q32 497 63 532T151 570V615H172V571Q286 565 286 438V398H261V440Q261 546 172 550V16Q261 20 261 129V181H286ZM57 134Q57 82 81
51T151 16V550Q106 547 82 517T57 434V134Z" />
<glyph unicode="&#xa3;" glyph-name="sterling" horiz-adv-x="335" d="M17 337H58V543Q58 618 91 650T184 683Q244 683 275 653T307 556V486H281V556Q281 613 255 637T184 661Q139 661 112 635T84 544V337H232V315H84V22H310V0H58V315H17V337Z" />
<glyph unicode="&#xa5;" glyph-name="yen" horiz-adv-x="323" d="M43 278H149V295L20 678H47L162 330H163L277 678H303L175 295V278H280V259H175V225H280V207H175V0H149V207H43V225H149V259H43V278Z" />
<glyph unicode="&#xa6;" glyph-name="brokenbar" horiz-adv-x="97" d="M38 -90V289H59V-90H38ZM59 698V339H38V698H59Z" />
<glyph unicode="&#xa7;" glyph-name="section" horiz-adv-x="353" d="M29 335Q29 375 52 399T110 434V435Q78 458 69 485T59 549V564Q59 621 87 652T176 683Q239 683 267 650T295 557V514H271V558Q271 606 249 633T176 661Q127 661 106 637T84 564V549Q84 516
93 492T139 445L243 379Q285 352 304 326T324 257Q324 219 301 195T244 161V160Q276 135 289 108T302 44V24Q302 -35 274 -65T179 -95Q116 -95 86 -62T55 30V80H80V29Q80 -19 104 -46T179 -73Q234 -73 255 -50T277 25V42Q277 76 265 101T212 152L110 217Q69 243
49 269T29 335ZM53 338Q53 305 69 284T123 237L225 173Q258 182 279 203T300 255Q300 290 284 311T230 358L128 423H127Q93 412 73 392T53 338Z" />
<glyph unicode="&#xa8;" glyph-name="dieresis" horiz-adv-x="406" d="M154 645H179V614H154V645ZM226 645H251V614H226V645Z" />
<glyph unicode="&#xa9;" glyph-name="copyright" horiz-adv-x="387" d="M359 307Q359 268 349 235T317 177T265 139T194 125Q153 125 122 138T70 176T39 234T28 307V377Q28 416 38 449T70 507T122 545T194 559Q234 559 265 546T317 508T348 450T359 377V307ZM344
377Q344 414 335 445T306 498T259 533T194 546Q156 546 128 534T81 499T53 445T43 377V307Q43 270 52 239T81 186T128 151T194 138Q231 138 259 150T306 185T334 239T344 307V377ZM269 310V284Q269 246 252 224T192 202Q150 202 132 226T114 290V396Q114 437 132
461T192 485Q234 485 251 464T269 404V386H249V406Q249 436 236 451T192 467Q160 467 148 449T135 399V288Q135 257 147 238T192 219Q223 219 236 235T249 283V310H269Z" />
<glyph unicode="&#xaa;" glyph-name="ordfeminine" horiz-adv-x="290" d="M234 200V261H233Q222 234 200 215T135 195Q84 195 56 222T27 312V331Q27 360 35 379T57 413T92 438T136 460Q191 486 212 504T234 543V569Q234 610 218 636T153 663Q105 663 85 641T65
576V532H41V575Q41 626 68 654T154 683Q213 683 235 653T258 568V200H234ZM140 215Q180 215 207 241T234 322V505Q230 500 225 494T210 480T184 463T142 441Q121 431 104 422T75 400T57 371T50 330V313Q50 215 140 215Z" />
<glyph unicode="&#xab;" glyph-name="guillemotleft" horiz-adv-x="209" d="M114 378L52 232L114 86H91L29 232L91 378H114ZM180 378L118 232L180 86H158L95 232L158 378H180Z" />
<glyph unicode="&#xae;" glyph-name="registered" horiz-adv-x="387" d="M359 430Q359 391 349 358T317 300T265 262T194 248Q153 248 122 261T70 299T39 357T28 430V501Q28 540 38 573T70 631T122 668T194 682Q234 682 265 669T317 631T348 574T359 501V430ZM43
430Q43 393 52 362T81 309T128 274T194 261Q231 261 259 273T306 308T334 362T344 430V501Q344 538 335 568T306 621T259 656T194 669Q156 669 128 657T81 622T53 569T43 501V430ZM153 469V334H134V605H199Q264 605 264 547V520Q264 488 248 475T199 462H180L272
334H249L153 469ZM153 589V477H198Q224 477 234 487T244 519V547Q244 566 234 577T198 589H153Z" />
<glyph unicode="&#xaf;" glyph-name="macron" horiz-adv-x="406" d="M130 634H276V615H130V634Z" />
<glyph unicode="&#xb0;" glyph-name="degree" horiz-adv-x="178" d="M21 614Q21 643 40 663T88 683Q117 683 137 663T157 614Q157 587 137 568T88 548Q60 548 41 567T21 614ZM41 614Q41 594 54 580T88 566Q110 566 124 580T138 614Q138 636 124 650T88 665Q68
665 55 651T41 614Z" />
<glyph unicode="&#xb2;" glyph-name="twosuperior" horiz-adv-x="212" d="M30 414Q30 447 39 464T74 501L121 538Q141 554 150 566T159 596V613Q159 663 107 663Q83 663 68 650T52 609V576H31V609Q31 644 51 663T107 682Q142 682 161 665T181 613V596Q181 576
171 560T136 525L88 487Q65 469 58 455T51 416V405H178V387H30V414Z" />
<glyph unicode="&#xb3;" glyph-name="threesuperior" horiz-adv-x="215" d="M107 384Q67 384 48 402T29 455V484H50V454Q50 401 107 401Q138 401 150 414T163 452V489Q163 509 154 521T117 534H88V550H116Q142 550 150 565T159 595V616Q159 665 106 665Q76 665
65 651T53 613V595H33V613Q33 641 49 661T106 682Q144 682 162 665T180 616V595Q180 578 172 563T143 542Q166 538 175 524T184 489V453Q184 421 167 403T107 384Z" />
<glyph unicode="&#xb4;" glyph-name="acute" horiz-adv-x="406" d="M276 652L131 593V612L276 673V652Z" />
<glyph unicode="&#xb6;" glyph-name="paragraph" horiz-adv-x="317" d="M187 0V299H148Q88 299 58 327T27 408V569Q27 622 57 650T148 678H283V0H261V658H209V0H187Z" />
<glyph unicode="&#xb7;" glyph-name="periodcentered" horiz-adv-x="102" d="M38 360H64V323H38V360Z" />
<glyph unicode="&#xb8;" glyph-name="cedilla" horiz-adv-x="406" d="M163 -22Q185 -22 197 -30T210 -55Q210 -74 189 -83T129 -92V-76Q186 -76 186 -55Q186 -39 155 -39H146V0H163V-22Z" />
<glyph unicode="&#xb9;" glyph-name="onesuperior" horiz-adv-x="145" d="M98 678V388H75V647H74L21 590H20V613L79 678H98Z" />
<glyph unicode="&#xba;" glyph-name="ordmasculine" horiz-adv-x="299" d="M268 329Q268 266 238 231T150 195Q93 195 62 230T31 329V549Q31 613 62 648T150 683Q207 683 237 648T268 549V329ZM150 215Q197 215 220 244T244 327V552Q244 604 221 633T150 663Q103
663 79 634T55 552V327Q55 274 79 245T150 215Z" />
<glyph unicode="&#xbb;" glyph-name="guillemotright" horiz-adv-x="209" d="M91 232L29 378H51L114 232L51 86H29L91 232ZM157 232L95 378H117L180 232L117 86H95L157 232Z" />
<glyph unicode="&#xbc;" glyph-name="onequarter" horiz-adv-x="250" d="M25 348H226V332H25V348ZM139 678V388H116V647H115L62 590H61V613L120 678H139ZM32 73L145 290H170V76H201V59H170V0H148V59H32V73ZM53 76H148V258H147L53 76Z" />
<glyph unicode="&#xbd;" glyph-name="onehalf" horiz-adv-x="249" d="M24 348H225V332H24V348ZM138 678V388H115V647H114L61 590H60V613L119 678H138ZM52 27Q52 60 61 77T97 114L143 151Q163 167 172 179T182 209V226Q182 276 129 276Q105 276 90 263T74 222V189H54V222Q54
257 74 275T129 294Q203 294 203 225V208Q203 188 193 172T158 137L110 99Q99 90 92 83T80 68T75 51T73 28V18H200V0H52V27Z" />
<glyph unicode="&#xbe;" glyph-name="threequarters" horiz-adv-x="259" d="M24 348H224V332H24V348ZM34 73L147 290H172V76H203V59H172V0H151V59H34V73ZM151 76V258H150L56 76H151ZM67 484V454Q67 401 123 401Q155 401 167 414T180 452V489Q180 509 170 521T134
534H105V550H133Q159 550 167 565T176 595V616Q176 665 122 665Q93 665 82 651T70 613V595H50V613Q50 641 66 661T123 682Q161 682 178 665T196 616V595Q196 578 188 563T159 542Q182 538 191 524T201 489V453Q201 421 184 403T123 384Q83 384 65 402T46 455V484H67Z"
/>
<glyph unicode="&#xbf;" glyph-name="questiondown" horiz-adv-x="307" d="M184 491V389Q184 364 182 348T175 318T161 291T140 259L96 195Q75 163 67 141T58 88V39Q58 -19 81 -46T152 -73Q200 -73 227 -48T254 33V106H279V33Q279 -33 246 -64T152 -95Q92 -95
62 -62T32 40V89Q32 124 42 149T76 208L119 272Q130 288 137 300T150 324T157 352T159 389V491H184ZM185 552H158V588H185V552Z" />
<glyph unicode="&#xc0;" glyph-name="Agrave" horiz-adv-x="341" d="M14 0L152 678H187L327 0H300L261 188H78L40 0H14ZM82 211H257L170 641H169L82 211ZM349 778L494 717V698L349 757V778Z" />
<glyph unicode="&#xc1;" glyph-name="Aacute" horiz-adv-x="341" d="M14 0L152 678H187L327 0H300L261 188H78L40 0H14ZM82 211H257L170 641H169L82 211ZM508 757L363 698V717L508 778V757Z" />
<glyph unicode="&#xc2;" glyph-name="Acircumflex" horiz-adv-x="341" d="M14 0L152 678H187L327 0H300L261 188H78L40 0H14ZM82 211H257L170 641H169L82 211ZM346 700V718L420 787H433L506 718V700L427 765L346 700Z" />
<glyph unicode="&#xc3;" glyph-name="Atilde" horiz-adv-x="341" d="M14 0L152 678H187L327 0H300L261 188H78L40 0H14ZM82 211H257L170 641H169L82 211ZM463 721Q451 721 442 725T424 735T407 744T389 749Q374 749 368 740T360 717H343Q344 739 355 754T389 769Q400
769 409 765T428 755T445 745T463 740Q477 740 483 750T491 773H509Q508 751 497 736T463 721Z" />
<glyph unicode="&#xc4;" glyph-name="Adieresis" horiz-adv-x="341" d="M14 0L152 678H187L327 0H300L261 188H78L40 0H14ZM82 211H257L170 641H169L82 211ZM378 750H403V719H378V750ZM450 750H475V719H450V750Z" />
<glyph unicode="&#xc5;" glyph-name="Aring" horiz-adv-x="341" d="M14 0L152 678H187L327 0H300L261 188H78L40 0H14ZM82 211H257L170 641H169L82 211ZM371 756Q371 779 386 795T426 812Q451 812 467 796T483 756Q483 732 467 716T426 700Q402 700 387 716T371
756ZM388 756Q388 739 398 727T426 715Q443 715 454 727T466 756Q466 773 455 785T426 797Q409 797 399 785T388 756Z" />
<glyph unicode="&#xc6;" glyph-name="AE" horiz-adv-x="516" d="M12 0L205 678H489V656H287V356H432V334H287V22H489V0H261V188H90L38 0H12ZM97 211H261V656H222L97 211Z" />
<glyph unicode="&#xc7;" glyph-name="Ccedilla" horiz-adv-x="336" d="M134 -76Q191 -76 191 -55Q191 -39 160 -39H151V-3Q119 1 96 15T59 50T39 99T32 157V521Q32 554 39 583T64 635T108 670T174 683Q214 683 239 673T280 643T301 596T307 534V454H281V536Q281
565 277 588T260 627T228 652T174 661Q142 661 121 650T85 620T65 577T59 524V154Q59 127 65 102T85 58T120 28T174 17Q207 17 227 26T260 53T276 93T281 143V260H307V144Q307 112 301 85T280 38T240 7T174 -5H168V-22Q190 -22 202 -30T215 -55Q215 -74 194 -83T134
-92V-76Z" />
<glyph unicode="&#xc8;" glyph-name="Egrave" horiz-adv-x="299" d="M35 678H271V656H61V356H214V334H61V22H271V0H35V678ZM340 778L485 717V698L340 757V778Z" />
<glyph unicode="&#xc9;" glyph-name="Eacute" horiz-adv-x="299" d="M498 757L353 698V717L498 778V757ZM35 678H271V656H61V356H214V334H61V22H271V0H35V678Z" />
<glyph unicode="&#xca;" glyph-name="Ecircumflex" horiz-adv-x="299" d="M337 700V718L411 787H424L497 718V700L418 765L337 700ZM35 678H271V656H61V356H214V334H61V22H271V0H35V678Z" />
<glyph unicode="&#xcb;" glyph-name="Edieresis" horiz-adv-x="299" d="M369 750H394V719H369V750ZM441 750H466V719H441V750ZM35 678H271V656H61V356H214V334H61V22H271V0H35V678Z" />
<glyph unicode="&#xcc;" glyph-name="Igrave" horiz-adv-x="95" d="M35 678H61V0H35V678ZM-29 778L116 717V698L-29 757V778Z" />
<glyph unicode="&#xcd;" glyph-name="Iacute" horiz-adv-x="95" d="M35 678H61V0H35V678ZM130 757L-15 698V717L130 778V757Z" />
<glyph unicode="&#xce;" glyph-name="Icircumflex" horiz-adv-x="95" d="M35 678H61V0H35V678ZM-31 700V717L42 788H55L126 717V700L48 767L-31 700Z" />
<glyph unicode="&#xcf;" glyph-name="Idieresis" horiz-adv-x="95" d="M35 678H61V0H35V678ZM2 750H26V719H2V750ZM70 750H94V719H70V750Z" />
<glyph unicode="&#xd0;" glyph-name="Eth" horiz-adv-x="353" d="M12 356H45V678H168Q209 678 238 665T285 630T311 579T320 517V161Q320 129 312 100T285 48T238 13T168 0H45V334H12V356ZM71 356H203V334H71V22H166Q201 22 225 33T265 62T287 106T294 158V520Q294
548 287 572T265 615T226 645T166 656H71V356Z" />
<glyph unicode="&#xd1;" glyph-name="Ntilde" horiz-adv-x="332" d="M58 625V0H35V678H66L274 66V678H298V0H270L58 625ZM470 721Q458 721 449 725T431 735T414 744T396 749Q381 749 375 740T367 717H350Q351 739 362 754T396 769Q407 769 416 765T435 755T452
745T470 740Q484 740 490 750T498 773H516Q515 751 504 736T470 721Z" />
<glyph unicode="&#xd2;" glyph-name="Ograve" horiz-adv-x="355" d="M177 17Q208 17 231 28T268 58T289 102T296 154V524Q296 552 289 576T268 620T231 650T177 661Q146 661 124 650T87 620T66 577T59 524V154Q59 127 66 102T87 58T123 28T177 17ZM177 -5Q139
-5 112 8T67 43T41 95T32 157V521Q32 554 40 583T66 635T111 670T177 683Q216 683 243 670T288 635T314 584T323 521V157Q323 124 315 95T289 44T244 8T177 -5ZM359 778L504 717V698L359 757V778Z" />
<glyph unicode="&#xd3;" glyph-name="Oacute" horiz-adv-x="355" d="M519 757L374 698V717L519 778V757ZM177 17Q208 17 231 28T268 58T289 102T296 154V524Q296 552 289 576T268 620T231 650T177 661Q146 661 124 650T87 620T66 577T59 524V154Q59 127 66 102T87
58T123 28T177 17ZM177 -5Q139 -5 112 8T67 43T41 95T32 157V521Q32 554 40 583T66 635T111 670T177 683Q216 683 243 670T288 635T314 584T323 521V157Q323 124 315 95T289 44T244 8T177 -5Z" />
<glyph unicode="&#xd4;" glyph-name="Ocircumflex" horiz-adv-x="355" d="M354 700V718L428 787H441L514 718V700L435 765L354 700ZM177 17Q208 17 231 28T268 58T289 102T296 154V524Q296 552 289 576T268 620T231 650T177 661Q146 661 124 650T87 620T66 577T59
524V154Q59 127 66 102T87 58T123 28T177 17ZM177 -5Q139 -5 112 8T67 43T41 95T32 157V521Q32 554 40 583T66 635T111 670T177 683Q216 683 243 670T288 635T314 584T323 521V157Q323 124 315 95T289 44T244 8T177 -5Z" />
<glyph unicode="&#xd5;" glyph-name="Otilde" horiz-adv-x="355" d="M177 17Q208 17 231 28T268 58T289 102T296 154V524Q296 552 289 576T268 620T231 650T177 661Q146 661 124 650T87 620T66 577T59 524V154Q59 127 66 102T87 58T123 28T177 17ZM177 -5Q139
-5 112 8T67 43T41 95T32 157V521Q32 554 40 583T66 635T111 670T177 683Q216 683 243 670T288 635T314 584T323 521V157Q323 124 315 95T289 44T244 8T177 -5ZM471 721Q459 721 450 725T432 735T415 744T397 749Q382 749 376 740T368 717H351Q352 739 363 754T397
769Q408 769 417 765T436 755T453 745T471 740Q485 740 491 750T499 773H517Q516 751 505 736T471 721Z" />
<glyph unicode="&#xd6;" glyph-name="Odieresis" horiz-adv-x="355" d="M387 750H412V719H387V750ZM459 750H484V719H459V750ZM177 17Q208 17 231 28T268 58T289 102T296 154V524Q296 552 289 576T268 620T231 650T177 661Q146 661 124 650T87 620T66 577T59 524V154Q59
127 66 102T87 58T123 28T177 17ZM177 -5Q139 -5 112 8T67 43T41 95T32 157V521Q32 554 40 583T66 635T111 670T177 683Q216 683 243 670T288 635T314 584T323 521V157Q323 124 315 95T289 44T244 8T177 -5Z" />
<glyph unicode="&#xd7;" glyph-name="multiply" horiz-adv-x="327" d="M36 207L149 330L30 460L46 476L164 347L276 470L292 455L178 331L298 201L282 186L163 315L51 192L36 207Z" />
<glyph unicode="&#xd8;" glyph-name="Oslash" horiz-adv-x="355" d="M177 -5Q129 -5 97 15L84 -31H63L80 29Q55 52 44 85T32 157V521Q32 554 40 583T66 635T111 670T177 683Q226 683 259 661L271 702H292L276 648Q300 625 311 592T323 521V157Q323 124 315 95T289
44T244 8T177 -5ZM59 154Q59 125 65 100T87 56L252 637Q223 661 177 661Q146 661 124 650T87 620T66 577T59 524V154ZM177 17Q208 17 231 28T268 58T289 102T296 154V530Q296 556 290 579T269 621L104 39Q132 17 177 17Z" />
<glyph unicode="&#xd9;" glyph-name="Ugrave" horiz-adv-x="340" d="M307 678V148Q307 116 300 88T277 40T235 7T170 -5Q132 -5 106 7T63 39T40 88T33 148V678H59V146Q59 119 64 96T83 55T117 27T170 17Q201 17 222 27T257 54T276 95T282 146V678H307ZM350 778L495
717V698L350 757V778Z" />
<glyph unicode="&#xda;" glyph-name="Uacute" horiz-adv-x="340" d="M508 757L363 698V717L508 778V757ZM307 678V148Q307 116 300 88T277 40T235 7T170 -5Q132 -5 106 7T63 39T40 88T33 148V678H59V146Q59 119 64 96T83 55T117 27T170 17Q201 17 222 27T257 54T276
95T282 146V678H307Z" />
<glyph unicode="&#xdb;" glyph-name="Ucircumflex" horiz-adv-x="340" d="M347 700V718L421 787H434L507 718V700L428 765L347 700ZM307 678V148Q307 116 300 88T277 40T235 7T170 -5Q132 -5 106 7T63 39T40 88T33 148V678H59V146Q59 119 64 96T83 55T117 27T170
17Q201 17 222 27T257 54T276 95T282 146V678H307Z" />
<glyph unicode="&#xdc;" glyph-name="Udieresis" horiz-adv-x="340" d="M378 750H403V719H378V750ZM450 750H475V719H450V750ZM307 678V148Q307 116 300 88T277 40T235 7T170 -5Q132 -5 106 7T63 39T40 88T33 148V678H59V146Q59 119 64 96T83 55T117 27T170 17Q201
17 222 27T257 54T276 95T282 146V678H307Z" />
<glyph unicode="&#xdd;" glyph-name="Yacute" horiz-adv-x="308" d="M168 258V0H142V258L12 678H39L155 297H156L270 678H296L168 258ZM493 757L348 698V717L493 778V757Z" />
<glyph unicode="&#xde;" glyph-name="Thorn" horiz-adv-x="306" d="M35 678H61V552H153Q217 552 248 522T279 436V267Q279 211 248 181T153 150H61V0H35V678ZM61 529V172H151Q253 172 253 266V436Q253 529 151 529H61Z" />
<glyph unicode="&#xdf;" glyph-name="germandbls" horiz-adv-x="309" d="M60 0H35V566Q35 626 66 654T157 683Q211 683 236 665T261 612Q261 584 248 570T209 551Q245 545 261 521T277 449V128Q277 71 250 36T156 0H121V21H154Q206 21 228 50T251 128V451Q251
496 234 518T174 541H129V561H174Q207 561 222 574T237 610Q237 635 219 648T157 661Q109 661 85 640T60 567V0Z" />
<glyph unicode="&#xe0;" glyph-name="agrave" horiz-adv-x="307" d="M250 0V64H249Q238 36 211 16T141 -5Q87 -5 57 25T27 124V172Q27 205 35 226T58 263T94 289T142 313Q203 340 226 358T250 397V443Q250 492 232 521T163 550Q115 550 91 525T66 451V398H41V450Q41
507 72 539T164 572Q226 572 251 538T276 441V0H250ZM146 17Q167 17 185 23T218 43T241 77T250 125V356Q246 351 241 345T224 332T194 315T148 292Q125 281 107 271T77 248T59 217T52 172V125Q52 17 146 17ZM341 673L486 612V593L341 652V673Z" />
<glyph unicode="&#xe1;" glyph-name="aacute" horiz-adv-x="307" d="M250 0V64H249Q238 36 211 16T141 -5Q87 -5 57 25T27 124V172Q27 205 35 226T58 263T94 289T142 313Q203 340 226 358T250 397V443Q250 492 232 521T163 550Q115 550 91 525T66 451V398H41V450Q41
507 72 539T164 572Q226 572 251 538T276 441V0H250ZM146 17Q167 17 185 23T218 43T241 77T250 125V356Q246 351 241 345T224 332T194 315T148 292Q125 281 107 271T77 248T59 217T52 172V125Q52 17 146 17ZM500 652L355 593V612L500 673V652Z" />
<glyph unicode="&#xe2;" glyph-name="acircumflex" horiz-adv-x="307" d="M250 0V64H249Q238 36 211 16T141 -5Q87 -5 57 25T27 124V172Q27 205 35 226T58 263T94 289T142 313Q203 340 226 358T250 397V443Q250 492 232 521T163 550Q115 550 91 525T66 451V398H41V450Q41
507 72 539T164 572Q226 572 251 538T276 441V0H250ZM146 17Q167 17 185 23T218 43T241 77T250 125V356Q246 351 241 345T224 332T194 315T148 292Q125 281 107 271T77 248T59 217T52 172V125Q52 17 146 17ZM338 595V613L412 682H425L498 613V595L419 660L338 595Z"
/>
<glyph unicode="&#xe3;" glyph-name="atilde" horiz-adv-x="307" d="M250 0V64H249Q238 36 211 16T141 -5Q87 -5 57 25T27 124V172Q27 205 35 226T58 263T94 289T142 313Q203 340 226 358T250 397V443Q250 492 232 521T163 550Q115 550 91 525T66 451V398H41V450Q41
507 72 539T164 572Q226 572 251 538T276 441V0H250ZM146 17Q167 17 185 23T218 43T241 77T250 125V356Q246 351 241 345T224 332T194 315T148 292Q125 281 107 271T77 248T59 217T52 172V125Q52 17 146 17ZM456 616Q444 616 435 620T417 630T400 639T382 644Q367
644 361 635T353 612H336Q337 634 348 649T382 664Q393 664 402 660T421 650T438 640T456 635Q470 635 476 645T484 668H502Q501 646 490 631T456 616Z" />
<glyph unicode="&#xe4;" glyph-name="adieresis" horiz-adv-x="307" d="M250 0V64H249Q238 36 211 16T141 -5Q87 -5 57 25T27 124V172Q27 205 35 226T58 263T94 289T142 313Q203 340 226 358T250 397V443Q250 492 232 521T163 550Q115 550 91 525T66 451V398H41V450Q41
507 72 539T164 572Q226 572 251 538T276 441V0H250ZM146 17Q167 17 185 23T218 43T241 77T250 125V356Q246 351 241 345T224 332T194 315T148 292Q125 281 107 271T77 248T59 217T52 172V125Q52 17 146 17ZM370 645H395V614H370V645ZM442 645H467V614H442V645Z"
/>
<glyph unicode="&#xe5;" glyph-name="aring" horiz-adv-x="307" d="M250 0V64H249Q238 36 211 16T141 -5Q87 -5 57 25T27 124V172Q27 205 35 226T58 263T94 289T142 313Q203 340 226 358T250 397V443Q250 492 232 521T163 550Q115 550 91 525T66 451V398H41V450Q41
507 72 539T164 572Q226 572 251 538T276 441V0H250ZM146 17Q167 17 185 23T218 43T241 77T250 125V356Q246 351 241 345T224 332T194 315T148 292Q125 281 107 271T77 248T59 217T52 172V125Q52 17 146 17ZM362 648Q362 671 377 687T417 704Q442 704 458 688T474
648Q474 624 458 608T417 592Q393 592 378 608T362 648ZM379 648Q379 631 389 619T417 607Q434 607 445 619T457 648Q457 665 446 677T417 689Q400 689 390 677T379 648Z" />
<glyph unicode="&#xe6;" glyph-name="ae" horiz-adv-x="542" d="M510 181V131Q510 64 478 30T382 -5Q334 -5 307 16T268 79Q256 40 222 18T144 -5Q89 -5 58 25T27 124V184Q27 314 154 314H259V443Q259 493 240 521T169 550Q121 550 94 525T66 451V398H41V450Q41
507 75 539T169 572Q214 572 238 553T273 499Q301 572 387 572Q449 572 479 537T510 433V293H284V135Q284 79 306 48T382 17Q485 17 485 129V181H510ZM145 16Q166 16 186 23T223 43T249 77T259 125V293H156Q52 293 52 183V125Q52 70 76 43T145 16ZM284 314H485V434Q485
490 461 520T386 550Q335 550 310 520T284 434V314Z" />
<glyph unicode="&#xe7;" glyph-name="ccedilla" horiz-adv-x="312" d="M157 -5V-22Q179 -22 191 -30T204 -55Q204 -74 183 -83T123 -92V-76Q180 -76 180 -55Q180 -39 149 -39H140V-3Q86 3 59 39T32 137V432Q32 500 66 536T162 572Q286 572 286 438V398H260V439Q260
550 162 550Q111 550 84 520T57 434V135Q57 79 84 48T163 17Q261 17 261 129V181H286V131Q286 -4 164 -5H157Z" />
<glyph unicode="&#xe8;" glyph-name="egrave" horiz-adv-x="323" d="M292 181V131Q292 -5 165 -5Q102 -5 67 32T32 137V432Q32 500 66 536T162 572Q225 572 258 537T292 433V294H57V135Q57 79 85 48T165 17Q267 17 267 129V181H292ZM57 315H266V434Q266 490 240
520T162 550Q111 550 84 520T57 434V315ZM343 673L488 612V593L343 652V673Z" />
<glyph unicode="&#xe9;" glyph-name="eacute" horiz-adv-x="323" d="M502 652L357 593V612L502 673V652ZM292 181V131Q292 -5 165 -5Q102 -5 67 32T32 137V432Q32 500 66 536T162 572Q225 572 258 537T292 433V294H57V135Q57 79 85 48T165 17Q267 17 267 129V181H292ZM57
315H266V434Q266 490 240 520T162 550Q111 550 84 520T57 434V315Z" />
<glyph unicode="&#xea;" glyph-name="ecircumflex" horiz-adv-x="323" d="M340 595V613L414 682H427L500 613V595L421 660L340 595ZM292 181V131Q292 -5 165 -5Q102 -5 67 32T32 137V432Q32 500 66 536T162 572Q225 572 258 537T292 433V294H57V135Q57 79 85 48T165
17Q267 17 267 129V181H292ZM57 315H266V434Q266 490 240 520T162 550Q111 550 84 520T57 434V315Z" />
<glyph unicode="&#xeb;" glyph-name="edieresis" horiz-adv-x="323" d="M372 645H397V614H372V645ZM444 645H469V614H444V645ZM292 181V131Q292 -5 165 -5Q102 -5 67 32T32 137V432Q32 500 66 536T162 572Q225 572 258 537T292 433V294H57V135Q57 79 85 48T165
17Q267 17 267 129V181H292ZM57 315H266V434Q266 490 240 520T162 550Q111 550 84 520T57 434V315Z" />
<glyph unicode="&#xec;" glyph-name="igrave" horiz-adv-x="95" d="M35 567H60V0H35V567ZM-8 673L90 612V593L-8 651V673Z" />
<glyph unicode="&#xed;" glyph-name="iacute" horiz-adv-x="95" d="M35 567H60V0H35V567ZM103 651L5 593V612L103 673V651Z" />
<glyph unicode="&#xee;" glyph-name="icircumflex" horiz-adv-x="95" d="M35 567H60V0H35V567ZM-10 595V615L41 682H55L104 615V595L48 660L-10 595Z" />
<glyph unicode="&#xef;" glyph-name="idieresis" horiz-adv-x="95" d="M35 567H60V0H35V567ZM7 645H29V614H7V645ZM65 645H88V614H65V645Z" />
<glyph unicode="&#xf0;" glyph-name="eth" horiz-adv-x="324" d="M78 615L147 639L110 678H139L169 646L233 669V653L180 634L232 581Q262 550 277 514T292 433V137Q292 69 259 32T162 -5Q100 -5 66 32T32 137V430Q32 498 65 534T156 570Q207 570 238 537Q234
543 227 552Q220 562 209 573L158 627L78 599V615ZM162 17Q213 17 240 48T267 135V432Q267 488 241 519T162 550Q111 550 84 519T57 432V135Q57 79 84 48T162 17Z" />
<glyph unicode="&#xf1;" glyph-name="ntilde" horiz-adv-x="315" d="M258 442Q258 550 164 550Q124 550 93 524T60 447V0H35V567H60V501H61Q73 530 99 551T171 572Q224 572 253 542T283 443V0H258V442ZM457 616Q445 616 436 620T418 630T401 639T383 644Q368 644
362 635T354 612H337Q338 634 349 649T383 664Q394 664 403 660T422 650T439 640T457 635Q471 635 477 645T485 668H503Q502 646 491 631T457 616Z" />
<glyph unicode="&#xf2;" glyph-name="ograve" horiz-adv-x="324" d="M292 137Q292 69 259 32T162 -5Q100 -5 66 32T32 137V430Q32 498 66 535T162 572Q225 572 258 535T292 430V137ZM162 17Q213 17 240 48T267 135V432Q267 488 240 519T162 550Q111 550 84 519T57
432V135Q57 79 84 48T162 17ZM342 673L487 612V593L342 652V673Z" />
<glyph unicode="&#xf3;" glyph-name="oacute" horiz-adv-x="324" d="M500 652L355 593V612L500 673V652ZM292 137Q292 69 259 32T162 -5Q100 -5 66 32T32 137V430Q32 498 66 535T162 572Q225 572 258 535T292 430V137ZM162 17Q213 17 240 48T267 135V432Q267 488
240 519T162 550Q111 550 84 519T57 432V135Q57 79 84 48T162 17Z" />
<glyph unicode="&#xf4;" glyph-name="ocircumflex" horiz-adv-x="324" d="M339 595V613L413 682H426L499 613V595L420 660L339 595ZM292 137Q292 69 259 32T162 -5Q100 -5 66 32T32 137V430Q32 498 66 535T162 572Q225 572 258 535T292 430V137ZM162 17Q213 17
240 48T267 135V432Q267 488 240 519T162 550Q111 550 84 519T57 432V135Q57 79 84 48T162 17Z" />
<glyph unicode="&#xf5;" glyph-name="otilde" horiz-adv-x="324" d="M292 137Q292 69 259 32T162 -5Q100 -5 66 32T32 137V430Q32 498 66 535T162 572Q225 572 258 535T292 430V137ZM162 17Q213 17 240 48T267 135V432Q267 488 240 519T162 550Q111 550 84 519T57
432V135Q57 79 84 48T162 17ZM456 616Q444 616 435 620T417 630T400 639T382 644Q367 644 361 635T353 612H336Q337 634 348 649T382 664Q393 664 402 660T421 650T438 640T456 635Q470 635 476 645T484 668H502Q501 646 490 631T456 616Z" />
<glyph unicode="&#xf6;" glyph-name="odieresis" horiz-adv-x="324" d="M370 645H395V614H370V645ZM442 645H467V614H442V645ZM292 137Q292 69 259 32T162 -5Q100 -5 66 32T32 137V430Q32 498 66 535T162 572Q225 572 258 535T292 430V137ZM162 17Q213 17 240
48T267 135V432Q267 488 240 519T162 550Q111 550 84 519T57 432V135Q57 79 84 48T162 17Z" />
<glyph unicode="&#xf7;" glyph-name="divide" horiz-adv-x="347" d="M27 346H320V324H27V346ZM160 243H187V207H160V243ZM160 468H187V432H160V468Z" />
<glyph unicode="&#xf8;" glyph-name="oslash" horiz-adv-x="324" d="M292 137Q292 69 259 32T162 -5Q122 -5 94 10L82 -31H63L78 21Q32 58 32 137V430Q32 498 66 535T162 572Q202 572 231 555L242 592H262L248 544Q269 526 280 497T292 430V137ZM57 135Q57 75
85 46L225 533Q199 550 162 550Q111 550 84 519T57 432V135ZM162 17Q213 17 240 48T267 135V432Q267 488 241 519L100 33Q123 17 162 17Z" />
<glyph unicode="&#xf9;" glyph-name="ugrave" horiz-adv-x="315" d="M58 125Q58 17 152 17Q171 17 189 23T221 42T245 74T255 119V567H281V0H255V66H254Q242 35 216 15T144 -5Q91 -5 62 25T32 124V567H58V125ZM336 673L481 612V593L336 652V673Z" />
<glyph unicode="&#xfa;" glyph-name="uacute" horiz-adv-x="315" d="M494 652L349 593V612L494 673V652ZM58 125Q58 17 152 17Q171 17 189 23T221 42T245 74T255 119V567H281V0H255V66H254Q242 35 216 15T144 -5Q91 -5 62 25T32 124V567H58V125Z" />
<glyph unicode="&#xfb;" glyph-name="ucircumflex" horiz-adv-x="315" d="M332 595V613L406 682H419L492 613V595L413 660L332 595ZM58 125Q58 17 152 17Q171 17 189 23T221 42T245 74T255 119V567H281V0H255V66H254Q242 35 216 15T144 -5Q91 -5 62 25T32 124V567H58V125Z"
/>
<glyph unicode="&#xfc;" glyph-name="udieresis" horiz-adv-x="315" d="M364 645H389V614H364V645ZM436 645H461V614H436V645ZM58 125Q58 17 152 17Q171 17 189 23T221 42T245 74T255 119V567H281V0H255V66H254Q242 35 216 15T144 -5Q91 -5 62 25T32 124V567H58V125Z" />
<glyph unicode="&#xfd;" glyph-name="yacute" horiz-adv-x="292" d="M285 567L141 -15Q136 -36 130 -50T114 -73T90 -86T55 -90H32V-69H54Q85 -69 97 -56T118 -10L135 58H127L7 567H33L144 97H145L260 567H285ZM484 652L339 593V612L484 673V652Z" />
<glyph unicode="&#xfe;" glyph-name="thorn" d="M35 678H60V499H61Q73 528 100 550T175 572Q230 572 260 541T290 441V126Q290 58 259 27T171 -5Q125 -5 99 15T61 64H60V-90H35V678ZM265 440Q265 550 167 550Q125 550 94 523T60 444V119Q62 68 92 43T165 17Q213
17 239 44T265 127V440Z" />
<glyph unicode="&#xff;" glyph-name="ydieresis" horiz-adv-x="292" d="M285 567L141 -15Q136 -36 130 -50T114 -73T90 -86T55 -90H32V-69H54Q85 -69 97 -56T118 -10L135 58H127L7 567H33L144 97H145L260 567H285ZM354 645H379V614H354V645ZM426 645H451V614H426V645Z" />
<glyph unicode="&#x100;" glyph-name="Amacron" horiz-adv-x="341" d="M14 0L152 678H187L327 0H300L261 188H78L40 0H14ZM82 211H257L170 641H169L82 211ZM353 739H499V720H353V739Z" />
<glyph unicode="&#x101;" glyph-name="amacron" horiz-adv-x="307" d="M250 0V64H249Q238 36 211 16T141 -5Q87 -5 57 25T27 124V172Q27 205 35 226T58 263T94 289T142 313Q203 340 226 358T250 397V443Q250 492 232 521T163 550Q115 550 91 525T66 451V398H41V450Q41
507 72 539T164 572Q226 572 251 538T276 441V0H250ZM146 17Q167 17 185 23T218 43T241 77T250 125V356Q246 351 241 345T224 332T194 315T148 292Q125 281 107 271T77 248T59 217T52 172V125Q52 17 146 17ZM345 634H491V615H345V634Z" />
<glyph unicode="&#x102;" glyph-name="Abreve" horiz-adv-x="341" d="M14 0L152 678H187L327 0H300L261 188H78L40 0H14ZM82 211H257L170 641H169L82 211ZM504 779Q503 744 482 723T428 702Q394 702 372 723T349 779H369Q370 752 386 737T428 722Q453 722 468
737T485 779H504Z" />
<glyph unicode="&#x103;" glyph-name="abreve" horiz-adv-x="307" d="M250 0V64H249Q238 36 211 16T141 -5Q87 -5 57 25T27 124V172Q27 205 35 226T58 263T94 289T142 313Q203 340 226 358T250 397V443Q250 492 232 521T163 550Q115 550 91 525T66 451V398H41V450Q41
507 72 539T164 572Q226 572 251 538T276 441V0H250ZM146 17Q167 17 185 23T218 43T241 77T250 125V356Q246 351 241 345T224 332T194 315T148 292Q125 281 107 271T77 248T59 217T52 172V125Q52 17 146 17ZM496 674Q495 639 474 618T420 597Q386 597 364 618T341
674H361Q362 647 378 632T420 617Q445 617 460 632T477 674H496Z" />
<glyph unicode="&#x104;" glyph-name="Aogonek" horiz-adv-x="341" d="M14 0L152 678H187L327 0Q314 -10 303 -22T292 -48Q292 -56 298 -62T322 -69H332V-90H320Q291 -90 280 -80T268 -53Q268 -36 278 -23T300 -1L261 188H78L40 0H14ZM82 211H257L170 641H169L82 211Z" />
<glyph unicode="&#x105;" glyph-name="aogonek" horiz-adv-x="307" d="M276 0Q263 -10 252 -22T241 -48Q241 -56 247 -62T271 -69H281V-90H269Q240 -90 229 -80T217 -53Q217 -36 228 -23T250 -1V64H249Q238 36 211 16T141 -5Q87 -5 57 25T27 124V172Q27 205 35
226T58 263T94 289T142 313Q203 340 226 358T250 397V443Q250 492 232 521T163 550Q115 550 91 525T66 451V398H41V450Q41 507 72 539T164 572Q226 572 251 538T276 441V0ZM146 17Q167 17 185 23T218 43T241 77T250 125V356Q246 351 241 345T224 332T194 315T148
292Q125 281 107 271T77 248T59 217T52 172V125Q52 17 146 17Z" />
<glyph unicode="&#x106;" glyph-name="Cacute" horiz-adv-x="336" d="M511 757L366 698V717L511 778V757ZM174 -5Q135 -5 108 8T64 43T40 95T32 157V521Q32 554 39 583T64 635T108 670T174 683Q214 683 239 673T280 643T301 596T307 534V454H281V536Q281 565 277
588T260 627T228 652T174 661Q142 661 121 650T85 620T65 577T59 524V154Q59 127 65 102T85 58T120 28T174 17Q207 17 227 26T260 53T276 93T281 143V260H307V144Q307 112 301 85T280 38T240 7T174 -5Z" />
<glyph unicode="&#x107;" glyph-name="cacute" horiz-adv-x="312" d="M501 652L356 593V612L501 673V652ZM286 181V131Q286 -5 163 -5Q100 -5 66 32T32 137V432Q32 500 66 536T162 572Q286 572 286 438V398H260V439Q260 550 162 550Q111 550 84 520T57 434V135Q57
79 84 48T163 17Q261 17 261 129V181H286Z" />
<glyph unicode="&#x108;" glyph-name="Ccircumflex" horiz-adv-x="336" d="M349 700V718L423 787H436L509 718V700L430 765L349 700ZM174 -5Q135 -5 108 8T64 43T40 95T32 157V521Q32 554 39 583T64 635T108 670T174 683Q214 683 239 673T280 643T301 596T307
534V454H281V536Q281 565 277 588T260 627T228 652T174 661Q142 661 121 650T85 620T65 577T59 524V154Q59 127 65 102T85 58T120 28T174 17Q207 17 227 26T260 53T276 93T281 143V260H307V144Q307 112 301 85T280 38T240 7T174 -5Z" />
<glyph unicode="&#x109;" glyph-name="ccircumflex" horiz-adv-x="312" d="M339 595V613L413 682H426L499 613V595L420 660L339 595ZM286 181V131Q286 -5 163 -5Q100 -5 66 32T32 137V432Q32 500 66 536T162 572Q286 572 286 438V398H260V439Q260 550 162 550Q111
550 84 520T57 434V135Q57 79 84 48T163 17Q261 17 261 129V181H286Z" />
<glyph unicode="&#x10a;" glyph-name="Cdotaccent" horiz-adv-x="336" d="M174 -5Q135 -5 108 8T64 43T40 95T32 157V521Q32 554 39 583T64 635T108 670T174 683Q214 683 239 673T280 643T301 596T307 534V454H281V536Q281 565 277 588T260 627T228 652T174 661Q142
661 121 650T85 620T65 577T59 524V154Q59 127 65 102T85 58T120 28T174 17Q207 17 227 26T260 53T276 93T281 143V260H307V144Q307 112 301 85T280 38T240 7T174 -5ZM417 750H443V719H417V750Z" />
<glyph unicode="&#x10b;" glyph-name="cdotaccent" horiz-adv-x="312" d="M286 181V131Q286 -5 163 -5Q100 -5 66 32T32 137V432Q32 500 66 536T162 572Q286 572 286 438V398H260V439Q260 550 162 550Q111 550 84 520T57 434V135Q57 79 84 48T163 17Q261 17 261
129V181H286ZM407 678H433V647H407V678Z" />
<glyph unicode="&#x10c;" glyph-name="Ccaron" horiz-adv-x="336" d="M509 789V770L435 702H422L349 770V789L428 724L509 789ZM174 -5Q135 -5 108 8T64 43T40 95T32 157V521Q32 554 39 583T64 635T108 670T174 683Q214 683 239 673T280 643T301 596T307 534V454H281V536Q281
565 277 588T260 627T228 652T174 661Q142 661 121 650T85 620T65 577T59 524V154Q59 127 65 102T85 58T120 28T174 17Q207 17 227 26T260 53T276 93T281 143V260H307V144Q307 112 301 85T280 38T240 7T174 -5Z" />
<glyph unicode="&#x10d;" glyph-name="ccaron" horiz-adv-x="312" d="M499 684V665L425 597H412L339 665V684L418 619L499 684ZM286 181V131Q286 -5 163 -5Q100 -5 66 32T32 137V432Q32 500 66 536T162 572Q286 572 286 438V398H260V439Q260 550 162 550Q111 550
84 520T57 434V135Q57 79 84 48T163 17Q261 17 261 129V181H286Z" />
<glyph unicode="&#x10e;" glyph-name="Dcaron" horiz-adv-x="343" d="M493 789V770L419 702H406L333 770V789L412 724L493 789ZM61 22H156Q191 22 215 33T255 62T277 106T284 158V520Q284 548 277 572T255 615T216 645T156 656H61V22ZM158 678Q199 678 228 665T275
630T301 579T310 517V161Q310 129 302 100T275 48T228 13T158 0H35V678H158Z" />
<glyph unicode="&#x10f;" glyph-name="dcaron" d="M336 676L328 587H311L315 678H336V676ZM289 0H263V67H262Q251 39 225 17T153 -5Q96 -5 65 26T33 126V441Q33 509 66 540T154 572Q201 572 225 552T262 502H263V678H289V0ZM59 127Q59 17 158 17Q202 17 232 45T263
128V440Q263 494 233 522T160 550Q112 550 86 523T59 440V127Z" />
<glyph unicode="&#x110;" glyph-name="Dcroat" horiz-adv-x="353" d="M12 356H45V678H168Q209 678 238 665T285 630T311 579T320 517V161Q320 129 312 100T285 48T238 13T168 0H45V334H12V356ZM71 356H203V334H71V22H166Q201 22 225 33T265 62T287 106T294 158V520Q294
548 287 572T265 615T226 645T166 656H71V356Z" />
<glyph unicode="&#x111;" glyph-name="dcroat" d="M289 631H324V613H289V0H263V67H262Q251 39 225 17T153 -5Q96 -5 65 26T33 126V441Q33 509 66 540T154 572Q201 572 225 552T262 502H263V613H154V631H263V678H289V631ZM59 127Q59 17 158 17Q202 17 232 45T263
128V440Q263 494 233 522T160 550Q112 550 86 523T59 440V127Z" />
<glyph unicode="&#x112;" glyph-name="Emacron" horiz-adv-x="299" d="M35 678H271V656H61V356H214V334H61V22H271V0H35V678ZM344 739H490V720H344V739Z" />
<glyph unicode="&#x113;" glyph-name="emacron" horiz-adv-x="323" d="M292 181V131Q292 -5 165 -5Q102 -5 67 32T32 137V432Q32 500 66 536T162 572Q225 572 258 537T292 433V294H57V135Q57 79 85 48T165 17Q267 17 267 129V181H292ZM57 315H266V434Q266 490
240 520T162 550Q111 550 84 520T57 434V315ZM347 634H493V615H347V634Z" />
<glyph unicode="&#x114;" glyph-name="Ebreve" horiz-adv-x="299" d="M35 678H271V656H61V356H214V334H61V22H271V0H35V678ZM495 779Q494 744 473 723T419 702Q385 702 363 723T340 779H360Q361 752 377 737T419 722Q444 722 459 737T476 779H495Z" />
<glyph unicode="&#x115;" glyph-name="ebreve" horiz-adv-x="323" d="M292 181V131Q292 -5 165 -5Q102 -5 67 32T32 137V432Q32 500 66 536T162 572Q225 572 258 537T292 433V294H57V135Q57 79 85 48T165 17Q267 17 267 129V181H292ZM57 315H266V434Q266 490 240
520T162 550Q111 550 84 520T57 434V315ZM498 674Q497 639 476 618T422 597Q388 597 366 618T343 674H363Q364 647 380 632T422 617Q447 617 462 632T479 674H498Z" />
<glyph unicode="&#x116;" glyph-name="Edotaccent" horiz-adv-x="299" d="M35 678H271V656H61V356H214V334H61V22H271V0H35V678ZM405 750H431V719H405V750Z" />
<glyph unicode="&#x117;" glyph-name="edotaccent" horiz-adv-x="323" d="M292 181V131Q292 -5 165 -5Q102 -5 67 32T32 137V432Q32 500 66 536T162 572Q225 572 258 537T292 433V294H57V135Q57 79 85 48T165 17Q267 17 267 129V181H292ZM57 315H266V434Q266 490
240 520T162 550Q111 550 84 520T57 434V315ZM408 678H434V647H408V678Z" />
<glyph unicode="&#x118;" glyph-name="Eogonek" horiz-adv-x="299" d="M35 678H271V656H61V356H214V334H61V22H271V0H238Q225 -10 214 -22T203 -48Q203 -56 209 -62T233 -69H243V-90H231Q202 -90 191 -80T179 -53Q179 -35 190 -22T212 0H35V678Z" />
<glyph unicode="&#x119;" glyph-name="eogonek" horiz-adv-x="323" d="M213 -90Q184 -90 173 -80T161 -53Q161 -35 172 -22T194 -2Q186 -4 180 -4T165 -5Q102 -5 67 32T32 137V432Q32 500 66 536T162 572Q225 572 258 537T292 433V294H57V135Q57 79 85 48T165
17Q267 17 267 129V181H292V131Q292 87 278 59T239 13Q231 7 222 0T204 -14T191 -30T185 -48Q185 -56 191 -62T215 -69H225V-90H213ZM57 315H266V434Q266 490 240 520T162 550Q111 550 84 520T57 434V315Z" />
<glyph unicode="&#x11a;" glyph-name="Ecaron" horiz-adv-x="299" d="M497 789V770L423 702H410L337 770V789L416 724L497 789ZM35 678H271V656H61V356H214V334H61V22H271V0H35V678Z" />
<glyph unicode="&#x11b;" glyph-name="ecaron" horiz-adv-x="323" d="M500 684V665L426 597H413L340 665V684L419 619L500 684ZM292 181V131Q292 -5 165 -5Q102 -5 67 32T32 137V432Q32 500 66 536T162 572Q225 572 258 537T292 433V294H57V135Q57 79 85 48T165
17Q267 17 267 129V181H292ZM57 315H266V434Q266 490 240 520T162 550Q111 550 84 520T57 434V315Z" />
<glyph unicode="&#x11c;" glyph-name="Gcircumflex" horiz-adv-x="346" d="M349 700V718L423 787H436L509 718V700L430 765L349 700ZM184 334H309V0H286V70Q277 38 250 17T172 -5Q134 -5 108 8T64 43T40 95T32 157V521Q32 554 40 583T65 635T109 670T174 683Q214
683 240 673T281 643T303 596T309 534V474H284V536Q284 565 279 588T262 627T229 652T175 661Q143 661 121 650T86 620T66 577T59 524V154Q59 127 65 102T85 58T120 28T174 17Q205 17 225 26T258 51T276 88T283 136V312H184V334Z" />
<glyph unicode="&#x11d;" glyph-name="gcircumflex" d="M341 595V613L415 682H428L501 613V595L422 660L341 595ZM288 567V30Q288 -27 258 -61T163 -95Q100 -95 68 -64T36 20V49H61V21Q61 -24 86 -48T163 -73Q215 -73 238 -46T262 27V155H261Q250 128 224 107T152
85Q95 85 64 116T32 215V441Q32 509 65 540T153 572Q200 572 224 552T261 502H262V567H288ZM157 106Q199 106 229 133T262 211V440Q262 494 232 522T158 550Q110 550 84 523T58 440V216Q58 106 157 106Z" />
<glyph unicode="&#x11e;" glyph-name="Gbreve" horiz-adv-x="346" d="M184 334H309V0H286V70Q277 38 250 17T172 -5Q134 -5 108 8T64 43T40 95T32 157V521Q32 554 40 583T65 635T109 670T174 683Q214 683 240 673T281 643T303 596T309 534V474H284V536Q284 565
279 588T262 627T229 652T175 661Q143 661 121 650T86 620T66 577T59 524V154Q59 127 65 102T85 58T120 28T174 17Q205 17 225 26T258 51T276 88T283 136V312H184V334ZM506 779Q505 744 484 723T430 702Q396 702 374 723T351 779H371Q372 752 388 737T430 722Q455
722 470 737T487 779H506Z" />
<glyph unicode="&#x11f;" glyph-name="gbreve" d="M288 567V30Q288 -27 258 -61T163 -95Q100 -95 68 -64T36 20V49H61V21Q61 -24 86 -48T163 -73Q215 -73 238 -46T262 27V155H261Q250 128 224 107T152 85Q95 85 64 116T32 215V441Q32 509 65 540T153 572Q200 572
224 552T261 502H262V567H288ZM157 106Q199 106 229 133T262 211V440Q262 494 232 522T158 550Q110 550 84 523T58 440V216Q58 106 157 106ZM499 674Q498 639 477 618T423 597Q389 597 367 618T344 674H364Q365 647 381 632T423 617Q448 617 463 632T480 674H499Z"
/>
<glyph unicode="&#x120;" glyph-name="Gdotaccent" horiz-adv-x="346" d="M184 334H309V0H286V70Q277 38 250 17T172 -5Q134 -5 108 8T64 43T40 95T32 157V521Q32 554 40 583T65 635T109 670T174 683Q214 683 240 673T281 643T303 596T309 534V474H284V536Q284
565 279 588T262 627T229 652T175 661Q143 661 121 650T86 620T66 577T59 524V154Q59 127 65 102T85 58T120 28T174 17Q205 17 225 26T258 51T276 88T283 136V312H184V334ZM417 750H443V719H417V750Z" />
<glyph unicode="&#x121;" glyph-name="gdotaccent" d="M288 567V30Q288 -27 258 -61T163 -95Q100 -95 68 -64T36 20V49H61V21Q61 -24 86 -48T163 -73Q215 -73 238 -46T262 27V155H261Q250 128 224 107T152 85Q95 85 64 116T32 215V441Q32 509 65 540T153 572Q200
572 224 552T261 502H262V567H288ZM157 106Q199 106 229 133T262 211V440Q262 494 232 522T158 550Q110 550 84 523T58 440V216Q58 106 157 106ZM409 678H435V647H409V678Z" />
<glyph unicode="&#x122;" glyph-name="Gcommaaccent" horiz-adv-x="346" d="M443 -23L426 -90H406L418 -21H443V-23ZM184 334H309V0H286V70Q277 38 250 17T172 -5Q134 -5 108 8T64 43T40 95T32 157V521Q32 554 40 583T65 635T109 670T174 683Q214 683 240 673T281
643T303 596T309 534V474H284V536Q284 565 279 588T262 627T229 652T175 661Q143 661 121 650T86 620T66 577T59 524V154Q59 127 65 102T85 58T120 28T174 17Q205 17 225 26T258 51T276 88T283 136V312H184V334Z" />
<glyph unicode="&#x123;" glyph-name="gcommaaccent" d="M408 609L425 675H444L432 606H408V609ZM288 567V30Q288 -27 258 -61T163 -95Q100 -95 68 -64T36 20V49H61V21Q61 -24 86 -48T163 -73Q215 -73 238 -46T262 27V155H261Q250 128 224 107T152 85Q95 85 64
116T32 215V441Q32 509 65 540T153 572Q200 572 224 552T261 502H262V567H288ZM157 106Q199 106 229 133T262 211V440Q262 494 232 522T158 550Q110 550 84 523T58 440V216Q58 106 157 106Z" />
<glyph unicode="&#x124;" glyph-name="Hcircumflex" horiz-adv-x="337" d="M345 700V718L419 787H432L505 718V700L426 765L345 700ZM276 334H61V0H35V678H61V356H276V678H303V0H276V334Z" />
<glyph unicode="&#x125;" glyph-name="hcircumflex" horiz-adv-x="315" d="M333 700V718L407 787H420L493 718V700L414 765L333 700ZM258 442Q258 550 164 550Q124 550 93 524T60 447V0H35V678H60V501H61Q73 530 99 551T171 572Q224 572 253 542T283 443V0H258V442Z" />
<glyph unicode="&#x126;" glyph-name="Hbar" horiz-adv-x="337" d="M1 503H35V678H61V503H276V678H303V503H338V483H303V0H276V334H61V0H35V483H1V503ZM61 356H276V483H61V356Z" />
<glyph unicode="&#x127;" glyph-name="hbar" horiz-adv-x="315" d="M35 613H-1V631H35V678H60V631H170V613H60V501H61Q73 530 99 551T171 572Q224 572 253 542T283 443V0H258V442Q258 550 164 550Q124 550 93 524T60 447V0H35V613Z" />
<glyph unicode="&#x128;" glyph-name="Itilde" horiz-adv-x="95" d="M35 678H61V0H35V678ZM86 727Q74 727 65 731T47 741T30 750T12 755Q-3 755 -9 746T-17 723H-34Q-33 745 -22 760T12 775Q23 775 32 771T51 761T68 751T86 746Q100 746 106 756T114 779H132Q131
757 120 742T86 727Z" />
<glyph unicode="&#x129;" glyph-name="itilde" horiz-adv-x="95" d="M35 567H60V0H35V567ZM82 616Q72 616 63 620T45 630T29 640T14 645Q4 645 0 636T-5 612H-23Q-22 636 -13 650T13 664Q23 664 32 660T50 650T66 640T81 635Q91 635 95 644T100 668H117Q115 616 82 616Z" />
<glyph unicode="&#x12a;" glyph-name="Imacron" horiz-adv-x="95" d="M35 678H61V0H35V678ZM-5 739H100V721H-5V739Z" />
<glyph unicode="&#x12b;" glyph-name="imacron" horiz-adv-x="95" d="M-1 634H97V615H-1V634ZM35 567H60V0H35V567Z" />
<glyph unicode="&#x12c;" glyph-name="Ibreve" horiz-adv-x="95" d="M35 678H61V0H35V678ZM126 785Q125 750 104 729T50 708Q16 708 -6 729T-29 785H-9Q-8 758 8 743T50 728Q75 728 90 743T107 785H126Z" />
<glyph unicode="&#x12d;" glyph-name="ibreve" horiz-adv-x="95" d="M35 567H60V0H35V567ZM49 597Q22 597 5 616T-12 674H6Q7 644 18 630T49 616Q67 616 77 630T89 674H106Q106 636 91 617T49 597Z" />
<glyph unicode="&#x12e;" glyph-name="Iogonek" horiz-adv-x="95" d="M61 0Q48 -10 37 -22T26 -48Q26 -56 32 -62T56 -69H66V-90H54Q25 -90 14 -80T2 -53Q2 -36 13 -22T35 0V678H61V0Z" />
<glyph unicode="&#x12f;" glyph-name="iogonek" horiz-adv-x="95" d="M60 0Q47 -10 36 -22T25 -48Q25 -56 31 -62T55 -69H65V-90H53Q24 -90 13 -80T1 -53Q1 -35 12 -22T35 -1V567H60V0ZM35 678H60V647H35V678Z" />
<glyph unicode="&#x130;" glyph-name="Idotaccent" horiz-adv-x="95" d="M35 678H61V0H35V678ZM36 750H62V719H36V750Z" />
<glyph unicode="&#x131;" glyph-name="dotlessi" horiz-adv-x="95" d="M35 567H60V0H35V567Z" />
<glyph unicode="&#x132;" glyph-name="IJ" horiz-adv-x="385" d="M35 678H61V0H35V678ZM353 678V124Q353 64 325 30T234 -5Q171 -5 144 29T117 122V260H143V122Q143 74 164 46T234 17Q283 17 304 45T326 122V678H353Z" />
<glyph unicode="&#x133;" glyph-name="ij" horiz-adv-x="95" d="M35 567H60V0H35V567ZM35 678H60V647H35V678ZM148 567V-30Q148 -61 134 -75T84 -90H77V-69H83Q105 -69 114 -59T123 -29V567H148ZM123 678H148V647H123V678Z" />
<glyph unicode="&#x134;" glyph-name="Jcircumflex" horiz-adv-x="293" d="M168 700V718L242 787H255L328 718V700L249 765L168 700ZM261 678V124Q261 64 233 30T142 -5Q79 -5 52 29T25 122V260H51V122Q51 74 72 46T142 17Q191 17 212 45T234 122V678H261Z" />
<glyph unicode="&#x135;" glyph-name="jcircumflex" horiz-adv-x="95" d="M-10 595V615L41 682H55L104 615V595L48 660L-10 595ZM60 567V-30Q60 -61 46 -75T-4 -90H-11V-69H-5Q17 -69 26 -59T35 -29V567H60Z" />
<glyph unicode="&#x136;" glyph-name="Kcommaaccent" horiz-adv-x="311" d="M434 -23L417 -90H397L409 -21H434V-23ZM61 341V0H35V678H61V350L273 678H301L87 348L302 0H274L61 341Z" />
<glyph unicode="&#x137;" glyph-name="kcommaaccent" horiz-adv-x="276" d="M414 -23L397 -90H377L389 -21H414V-23ZM239 0L60 289V0H35V678H60V295L234 567H261L86 294L267 0H239Z" />
<glyph unicode="&#x139;" glyph-name="Lacute" horiz-adv-x="264" d="M133 757L-12 698V717L133 778V757ZM35 678H61V22H249V0H35V678Z" />
<glyph unicode="&#x13a;" glyph-name="lacute" horiz-adv-x="95" d="M104 757L6 699V718L104 779V757ZM35 678H60V0H35V678Z" />
<glyph unicode="&#x13b;" glyph-name="Lcommaaccent" horiz-adv-x="264" d="M406 -23L389 -90H369L381 -21H406V-23ZM35 678H61V22H249V0H35V678Z" />
<glyph unicode="&#x13c;" glyph-name="lcommaaccent" horiz-adv-x="95" d="M60 -23L43 -90H23L35 -21H60V-23ZM35 678H60V0H35V678Z" />
<glyph unicode="&#x13d;" glyph-name="Lcaron" horiz-adv-x="264" d="M35 678H61V22H249V0H35V678ZM162 676L153 579H135L139 678H162V676Z" />
<glyph unicode="&#x13e;" glyph-name="lcaron" horiz-adv-x="95" d="M364 676L356 587H339L343 678H364V676ZM35 678H60V0H35V678Z" />
<glyph unicode="&#x13f;" glyph-name="Ldot" horiz-adv-x="264" d="M35 678H61V22H249V0H35V678ZM168 356H194V319H168V356Z" />
<glyph unicode="&#x140;" glyph-name="ldot" horiz-adv-x="134" d="M35 678H60V0H35V678ZM98 360H124V323H98V360Z" />
<glyph unicode="&#x141;" glyph-name="Lslash" horiz-adv-x="280" d="M51 274L15 257V280L51 297V678H77V310L209 375V351L77 287V22H265V0H51V274Z" />
<glyph unicode="&#x142;" glyph-name="lslash" horiz-adv-x="105" d="M6 356L40 387V678H65V410L102 445V419L65 384V0H40V361L6 330V356Z" />
<glyph unicode="&#x143;" glyph-name="Nacute" horiz-adv-x="332" d="M514 757L369 698V717L514 778V757ZM58 625V0H35V678H66L274 66V678H298V0H270L58 625Z" />
<glyph unicode="&#x144;" glyph-name="nacute" horiz-adv-x="315" d="M501 652L356 593V612L501 673V652ZM258 442Q258 550 164 550Q124 550 93 524T60 447V0H35V567H60V501H61Q73 530 99 551T171 572Q224 572 253 542T283 443V0H258V442Z" />
<glyph unicode="&#x145;" glyph-name="Ncommaaccent" horiz-adv-x="332" d="M428 -23L411 -90H391L403 -21H428V-23ZM58 625V0H35V678H66L274 66V678H298V0H270L58 625Z" />
<glyph unicode="&#x146;" glyph-name="ncommaaccent" horiz-adv-x="315" d="M429 -23L412 -90H392L404 -21H429V-23ZM258 442Q258 550 164 550Q124 550 93 524T60 447V0H35V567H60V501H61Q73 530 99 551T171 572Q224 572 253 542T283 443V0H258V442Z" />
<glyph unicode="&#x147;" glyph-name="Ncaron" horiz-adv-x="332" d="M512 789V770L438 702H425L352 770V789L431 724L512 789ZM58 625V0H35V678H66L274 66V678H298V0H270L58 625Z" />
<glyph unicode="&#x148;" glyph-name="ncaron" horiz-adv-x="315" d="M499 684V665L425 597H412L339 665V684L418 619L499 684ZM258 442Q258 550 164 550Q124 550 93 524T60 447V0H35V567H60V501H61Q73 530 99 551T171 572Q224 572 253 542T283 443V0H258V442Z" />
<glyph unicode="&#x14a;" glyph-name="Eng" horiz-adv-x="332" d="M223 -69Q250 -69 261 -58T272 -24V0L58 624V0H35V678H66L274 72V678H298V-24Q298 -58 281 -74T224 -90H204V-69H223Z" />
<glyph unicode="&#x14b;" glyph-name="eng" horiz-adv-x="315" d="M204 -69H210Q237 -69 247 -59T258 -26V442Q258 550 164 550Q144 550 125 543T92 523T69 489T60 442V0H35V567H60V501H61Q73 530 99 551T171 572Q224 572 253 542T283 443V-27Q283 -59 267 -74T212
-90H204V-69Z" />
<glyph unicode="&#x14c;" glyph-name="Omacron" horiz-adv-x="355" d="M361 739H507V720H361V739ZM177 17Q208 17 231 28T268 58T289 102T296 154V524Q296 552 289 576T268 620T231 650T177 661Q146 661 124 650T87 620T66 577T59 524V154Q59 127 66 102T87 58T123
28T177 17ZM177 -5Q139 -5 112 8T67 43T41 95T32 157V521Q32 554 40 583T66 635T111 670T177 683Q216 683 243 670T288 635T314 584T323 521V157Q323 124 315 95T289 44T244 8T177 -5Z" />
<glyph unicode="&#x14d;" glyph-name="omacron" horiz-adv-x="324" d="M346 634H492V615H346V634ZM292 137Q292 69 259 32T162 -5Q100 -5 66 32T32 137V430Q32 498 66 535T162 572Q225 572 258 535T292 430V137ZM162 17Q213 17 240 48T267 135V432Q267 488 240
519T162 550Q111 550 84 519T57 432V135Q57 79 84 48T162 17Z" />
<glyph unicode="&#x14e;" glyph-name="Obreve" horiz-adv-x="355" d="M177 17Q208 17 231 28T268 58T289 102T296 154V524Q296 552 289 576T268 620T231 650T177 661Q146 661 124 650T87 620T66 577T59 524V154Q59 127 66 102T87 58T123 28T177 17ZM177 -5Q139
-5 112 8T67 43T41 95T32 157V521Q32 554 40 583T66 635T111 670T177 683Q216 683 243 670T288 635T314 584T323 521V157Q323 124 315 95T289 44T244 8T177 -5ZM511 785Q510 750 489 729T435 708Q401 708 379 729T356 785H376Q377 758 393 743T435 728Q460 728
475 743T492 785H511Z" />
<glyph unicode="&#x14f;" glyph-name="obreve" horiz-adv-x="324" d="M292 137Q292 69 259 32T162 -5Q100 -5 66 32T32 137V430Q32 498 66 535T162 572Q225 572 258 535T292 430V137ZM162 17Q213 17 240 48T267 135V432Q267 488 240 519T162 550Q111 550 84 519T57
432V135Q57 79 84 48T162 17ZM497 674Q496 639 475 618T421 597Q387 597 365 618T342 674H362Q363 647 379 632T421 617Q446 617 461 632T478 674H497Z" />
<glyph unicode="&#x150;" glyph-name="Ohungarumlaut" horiz-adv-x="355" d="M452 787L409 700H389L428 787H452ZM520 787L477 700H457L496 787H520ZM177 17Q208 17 231 28T268 58T289 102T296 154V524Q296 552 289 576T268 620T231 650T177 661Q146 661 124 650T87
620T66 577T59 524V154Q59 127 66 102T87 58T123 28T177 17ZM177 -5Q139 -5 112 8T67 43T41 95T32 157V521Q32 554 40 583T66 635T111 670T177 683Q216 683 243 670T288 635T314 584T323 521V157Q323 124 315 95T289 44T244 8T177 -5Z" />
<glyph unicode="&#x151;" glyph-name="ohungarumlaut" horiz-adv-x="324" d="M436 682L393 595H373L412 682H436ZM504 682L461 595H441L480 682H504ZM292 137Q292 69 259 32T162 -5Q100 -5 66 32T32 137V430Q32 498 66 535T162 572Q225 572 258 535T292 430V137ZM162
17Q213 17 240 48T267 135V432Q267 488 240 519T162 550Q111 550 84 519T57 432V135Q57 79 84 48T162 17Z" />
<glyph unicode="&#x152;" glyph-name="OE" horiz-adv-x="561" d="M174 -5Q137 -5 110 8T66 43T41 95T32 157V521Q32 554 40 583T66 635T111 670T176 683Q225 683 254 660T297 599V678H534V656H323V356H476V334H323V22H534V0H297V79Q284 42 255 19T174 -5ZM177
17Q208 17 231 28T268 58T290 102T297 154V524Q297 552 290 576T269 620T231 650T177 661Q146 661 124 650T87 620T66 577T59 524V154Q59 127 66 102T87 58T123 28T177 17Z" />
<glyph unicode="&#x153;" glyph-name="oe" horiz-adv-x="558" d="M162 -5Q100 -5 66 32T32 137V430Q32 498 66 535T162 572Q253 572 279 492Q304 572 397 572Q460 572 493 537T527 433V294H292V135Q292 79 320 48T400 17Q502 17 502 129V181H527V131Q527 -5 400
-5Q352 -5 322 16T279 76Q253 -5 162 -5ZM162 17Q213 17 240 48T267 135V432Q267 488 240 519T162 550Q111 550 84 519T57 432V135Q57 79 84 48T162 17ZM292 315H501V434Q501 490 475 520T397 550Q346 550 319 520T292 434V315Z" />
<glyph unicode="&#x154;" glyph-name="Racute" horiz-adv-x="309" d="M486 757L341 698V717L486 778V757ZM61 343V0H35V678H152Q217 678 248 648T279 562V450Q279 394 248 364T151 333H95L301 0H272L61 343ZM61 656V355H150Q252 355 252 449V562Q252 656 150 656H61Z" />
<glyph unicode="&#x155;" glyph-name="racute" horiz-adv-x="188" d="M443 652L298 593V612L443 673V652ZM167 543H163Q122 543 92 517T60 440V0H35V567H60V496H62Q73 525 98 547T167 569V543Z" />
<glyph unicode="&#x156;" glyph-name="Rcommaaccent" horiz-adv-x="309" d="M428 -23L411 -90H391L403 -21H428V-23ZM61 343V0H35V678H152Q217 678 248 648T279 562V450Q279 394 248 364T151 333H95L301 0H272L61 343ZM61 656V355H150Q252 355 252 449V562Q252
656 150 656H61Z" />
<glyph unicode="&#x157;" glyph-name="rcommaaccent" horiz-adv-x="188" d="M59 -23L42 -90H22L34 -21H59V-23ZM167 543H163Q122 543 92 517T60 440V0H35V567H60V496H62Q73 525 98 547T167 569V543Z" />
<glyph unicode="&#x158;" glyph-name="Rcaron" horiz-adv-x="309" d="M487 789V770L413 702H400L327 770V789L406 724L487 789ZM61 343V0H35V678H152Q217 678 248 648T279 562V450Q279 394 248 364T151 333H95L301 0H272L61 343ZM61 656V355H150Q252 355 252 449V562Q252
656 150 656H61Z" />
<glyph unicode="&#x159;" glyph-name="rcaron" horiz-adv-x="188" d="M437 684V665L363 597H350L277 665V684L356 619L437 684ZM167 543H163Q122 543 92 517T60 440V0H35V567H60V496H62Q73 525 98 547T167 569V543Z" />
<glyph unicode="&#x15a;" glyph-name="Sacute" horiz-adv-x="323" d="M499 757L354 698V717L499 778V757ZM164 -5Q96 -5 62 31T27 125V237H52V125Q52 75 80 46T164 17Q217 17 243 48T270 124V163Q270 185 266 203T252 238T227 272T190 309L123 375Q99 398 82 417T54
454T37 492T31 537V564Q31 621 65 652T157 683Q285 683 285 561V477H261V562Q261 613 235 637T157 661Q112 661 84 636T55 564V537Q55 495 76 465T138 397L206 331Q228 309 245 290T273 252T290 212T296 165V125Q296 98 288 75T264 34T222 6T164 -5Z" />
<glyph unicode="&#x15b;" glyph-name="sacute" horiz-adv-x="305" d="M490 652L345 593V612L490 673V652ZM276 121Q276 61 246 28T150 -5Q87 -5 57 30T27 124V178H52V124Q52 76 75 47T150 17Q204 17 227 43T251 120V138Q251 155 248 170T237 199T215 227T180 259L113
311Q70 344 51 373T31 442V459Q31 510 59 541T147 572Q268 572 268 448V402H243V449Q243 500 220 525T147 550Q100 550 78 526T56 460V443Q56 411 71 387T127 332L194 280Q218 261 234 245T259 212T272 178T276 139V121Z" />
<glyph unicode="&#x15c;" glyph-name="Scircumflex" horiz-adv-x="323" d="M337 700V718L411 787H424L497 718V700L418 765L337 700ZM164 -5Q96 -5 62 31T27 125V237H52V125Q52 75 80 46T164 17Q217 17 243 48T270 124V163Q270 185 266 203T252 238T227 272T190
309L123 375Q99 398 82 417T54 454T37 492T31 537V564Q31 621 65 652T157 683Q285 683 285 561V477H261V562Q261 613 235 637T157 661Q112 661 84 636T55 564V537Q55 495 76 465T138 397L206 331Q228 309 245 290T273 252T290 212T296 165V125Q296 98 288 75T264
34T222 6T164 -5Z" />
<glyph unicode="&#x15d;" glyph-name="scircumflex" horiz-adv-x="305" d="M328 595V613L402 682H415L488 613V595L409 660L328 595ZM276 121Q276 61 246 28T150 -5Q87 -5 57 30T27 124V178H52V124Q52 76 75 47T150 17Q204 17 227 43T251 120V138Q251 155 248
170T237 199T215 227T180 259L113 311Q70 344 51 373T31 442V459Q31 510 59 541T147 572Q268 572 268 448V402H243V449Q243 500 220 525T147 550Q100 550 78 526T56 460V443Q56 411 71 387T127 332L194 280Q218 261 234 245T259 212T272 178T276 139V121Z" />
<glyph unicode="&#x15e;" glyph-name="Scedilla" horiz-adv-x="323" d="M140 -39V-3Q83 2 55 36T27 125V237H52V125Q52 75 80 46T164 17Q217 17 243 48T270 124V163Q270 185 266 203T252 238T227 272T190 309L123 375Q99 398 82 417T54 454T37 492T31 537V564Q31
621 65 652T157 683Q285 683 285 561V477H261V562Q261 613 235 637T157 661Q112 661 84 636T55 564V537Q55 495 76 465T138 397L206 331Q228 309 245 290T273 252T290 212T296 165V125Q296 71 264 34T164 -5H157V-22Q179 -22 191 -30T204 -55Q204 -74 183 -83T123
-92V-76Q180 -76 180 -55Q180 -39 149 -39H140Z" />
<glyph unicode="&#x15f;" glyph-name="scedilla" horiz-adv-x="305" d="M148 -5V-22Q170 -22 182 -30T195 -55Q195 -74 174 -83T114 -92V-76Q171 -76 171 -55Q171 -39 140 -39H131V-3Q77 2 52 36T27 124V178H52V124Q52 76 75 47T150 17Q204 17 227 43T251 120V138Q251
155 248 170T237 199T215 227T180 259L113 311Q70 344 51 373T31 442V459Q31 510 59 541T147 572Q268 572 268 448V402H243V449Q243 500 220 525T147 550Q100 550 78 526T56 460V443Q56 411 71 387T127 332L194 280Q218 261 234 245T259 212T272 178T276 139V121Q276
61 247 29T152 -5H148Z" />
<glyph unicode="&#x160;" glyph-name="Scaron" horiz-adv-x="323" d="M497 789V770L423 702H410L337 770V789L416 724L497 789ZM164 -5Q96 -5 62 31T27 125V237H52V125Q52 75 80 46T164 17Q217 17 243 48T270 124V163Q270 185 266 203T252 238T227 272T190 309L123
375Q99 398 82 417T54 454T37 492T31 537V564Q31 621 65 652T157 683Q285 683 285 561V477H261V562Q261 613 235 637T157 661Q112 661 84 636T55 564V537Q55 495 76 465T138 397L206 331Q228 309 245 290T273 252T290 212T296 165V125Q296 98 288 75T264 34T222
6T164 -5Z" />
<glyph unicode="&#x161;" glyph-name="scaron" horiz-adv-x="305" d="M488 684V665L414 597H401L328 665V684L407 619L488 684ZM276 121Q276 61 246 28T150 -5Q87 -5 57 30T27 124V178H52V124Q52 76 75 47T150 17Q204 17 227 43T251 120V138Q251 155 248 170T237
199T215 227T180 259L113 311Q70 344 51 373T31 442V459Q31 510 59 541T147 572Q268 572 268 448V402H243V449Q243 500 220 525T147 550Q100 550 78 526T56 460V443Q56 411 71 387T127 332L194 280Q218 261 234 245T259 212T272 178T276 139V121Z" />
<glyph unicode="&#x162;" glyph-name="Tcommaaccent" horiz-adv-x="300" d="M419 -23L402 -90H382L394 -21H419V-23ZM17 678H283V656H163V0H137V656H17V678Z" />
<glyph unicode="&#x163;" glyph-name="tcommaaccent" horiz-adv-x="198" d="M379 -23L362 -90H342L354 -21H379V-23ZM15 567H60V678H86V567H172V547H86V76Q86 46 98 34T142 21H172V0H140Q95 0 78 18T60 77V547H15V567Z" />
<glyph unicode="&#x164;" glyph-name="Tcaron" horiz-adv-x="300" d="M486 789V770L412 702H399L326 770V789L405 724L486 789ZM17 678H283V656H163V0H137V656H17V678Z" />
<glyph unicode="&#x165;" glyph-name="tcaron" horiz-adv-x="198" d="M412 676L404 587H387L391 678H412V676ZM15 567H60V678H86V567H172V547H86V76Q86 46 98 34T142 21H172V0H140Q95 0 78 18T60 77V547H15V567Z" />
<glyph unicode="&#x166;" glyph-name="Tbar" horiz-adv-x="300" d="M17 678H283V656H163V456H244V436H163V0H137V436H56V456H137V656H17V678Z" />
<glyph unicode="&#x167;" glyph-name="tbar" horiz-adv-x="198" d="M86 678V567H172V547H86V452H172V434H86V76Q86 46 98 34T142 21H172V0H140Q95 0 78 18T60 77V434H15V452H60V547H15V567H60V678H86Z" />
<glyph unicode="&#x168;" glyph-name="Utilde" horiz-adv-x="340" d="M307 678V148Q307 116 300 88T277 40T235 7T170 -5Q132 -5 106 7T63 39T40 88T33 148V678H59V146Q59 119 64 96T83 55T117 27T170 17Q201 17 222 27T257 54T276 95T282 146V678H307ZM464 727Q452
727 443 731T425 741T408 750T390 755Q375 755 369 746T361 723H344Q345 745 356 760T390 775Q401 775 410 771T429 761T446 751T464 746Q478 746 484 756T492 779H510Q509 757 498 742T464 727Z" />
<glyph unicode="&#x169;" glyph-name="utilde" horiz-adv-x="315" d="M58 125Q58 17 152 17Q171 17 189 23T221 42T245 74T255 119V567H281V0H255V66H254Q242 35 216 15T144 -5Q91 -5 62 25T32 124V567H58V125ZM452 616Q440 616 431 620T413 630T396 639T378 644Q363
644 357 635T349 612H332Q333 634 344 649T378 664Q389 664 398 660T417 650T434 640T452 635Q466 635 472 645T480 668H498Q497 646 486 631T452 616Z" />
<glyph unicode="&#x16a;" glyph-name="Umacron" horiz-adv-x="340" d="M307 678V148Q307 116 300 88T277 40T235 7T170 -5Q132 -5 106 7T63 39T40 88T33 148V678H59V146Q59 119 64 96T83 55T117 27T170 17Q201 17 222 27T257 54T276 95T282 146V678H307ZM354 739H500V720H354V739Z"
/>
<glyph unicode="&#x16b;" glyph-name="umacron" horiz-adv-x="315" d="M58 125Q58 17 152 17Q171 17 189 23T221 42T245 74T255 119V567H281V0H255V66H254Q242 35 216 15T144 -5Q91 -5 62 25T32 124V567H58V125ZM339 634H485V615H339V634Z" />
<glyph unicode="&#x16c;" glyph-name="Ubreve" horiz-adv-x="340" d="M307 678V148Q307 116 300 88T277 40T235 7T170 -5Q132 -5 106 7T63 39T40 88T33 148V678H59V146Q59 119 64 96T83 55T117 27T170 17Q201 17 222 27T257 54T276 95T282 146V678H307ZM504 779Q503
744 482 723T428 702Q394 702 372 723T349 779H369Q370 752 386 737T428 722Q453 722 468 737T485 779H504Z" />
<glyph unicode="&#x16d;" glyph-name="ubreve" horiz-adv-x="315" d="M58 125Q58 17 152 17Q171 17 189 23T221 42T245 74T255 119V567H281V0H255V66H254Q242 35 216 15T144 -5Q91 -5 62 25T32 124V567H58V125ZM490 674Q489 639 468 618T414 597Q380 597 358 618T335
674H355Q356 647 372 632T414 617Q439 617 454 632T471 674H490Z" />
<glyph unicode="&#x16e;" glyph-name="Uring" horiz-adv-x="340" d="M371 728Q371 751 386 767T426 784Q451 784 467 768T483 728Q483 704 467 688T426 672Q402 672 387 688T371 728ZM388 728Q388 711 398 699T426 687Q443 687 454 699T466 728Q466 745 455 757T426
769Q409 769 399 757T388 728ZM307 678V148Q307 116 300 88T277 40T235 7T170 -5Q132 -5 106 7T63 39T40 88T33 148V678H59V146Q59 119 64 96T83 55T117 27T170 17Q201 17 222 27T257 54T276 95T282 146V678H307Z" />
<glyph unicode="&#x16f;" glyph-name="uring" horiz-adv-x="315" d="M357 648Q357 671 372 687T412 704Q437 704 453 688T469 648Q469 624 453 608T412 592Q388 592 373 608T357 648ZM374 648Q374 631 384 619T412 607Q429 607 440 619T452 648Q452 665 441 677T412
689Q395 689 385 677T374 648ZM58 125Q58 17 152 17Q171 17 189 23T221 42T245 74T255 119V567H281V0H255V66H254Q242 35 216 15T144 -5Q91 -5 62 25T32 124V567H58V125Z" />
<glyph unicode="&#x170;" glyph-name="Uhungarumlaut" horiz-adv-x="340" d="M307 678V148Q307 116 300 88T277 40T235 7T170 -5Q132 -5 106 7T63 39T40 88T33 148V678H59V146Q59 119 64 96T83 55T117 27T170 17Q201 17 222 27T257 54T276 95T282 146V678H307ZM444
787L401 700H381L420 787H444ZM512 787L469 700H449L488 787H512Z" />
<glyph unicode="&#x171;" glyph-name="uhungarumlaut" horiz-adv-x="315" d="M58 125Q58 17 152 17Q171 17 189 23T221 42T245 74T255 119V567H281V0H255V66H254Q242 35 216 15T144 -5Q91 -5 62 25T32 124V567H58V125ZM430 682L387 595H367L406 682H430ZM498 682L455
595H435L474 682H498Z" />
<glyph unicode="&#x172;" glyph-name="Uogonek" horiz-adv-x="340" d="M307 678V148Q307 97 290 60T230 6Q221 3 211 -2T193 -14T178 -29T172 -48Q172 -56 178 -62T203 -69H212V-90H200Q171 -90 160 -80T148 -53Q148 -39 157 -26T178 -5H170Q132 -5 106 7T63 39T40
88T33 148V678H59V146Q59 119 64 96T83 55T117 27T170 17Q201 17 222 27T257 54T276 95T282 146V678H307Z" />
<glyph unicode="&#x173;" glyph-name="uogonek" horiz-adv-x="315" d="M281 0Q268 -10 257 -22T246 -48Q246 -56 252 -62T276 -69H286V-90H274Q245 -90 234 -80T222 -53Q222 -36 233 -23T255 -1V66H254Q242 35 216 15T144 -5Q91 -5 62 25T32 124V567H58V125Q58
17 152 17Q172 17 190 23T223 43T246 77T255 125V567H281V0Z" />
<glyph unicode="&#x174;" glyph-name="Wcircumflex" horiz-adv-x="487" d="M163 706V724L237 793H250L323 724V706L244 771L163 706ZM243 603L144 0H113L17 678H43L130 55H131L232 678H257L358 56H359L445 678H470L375 0H343L244 603H243Z" />
<glyph unicode="&#x175;" glyph-name="wcircumflex" horiz-adv-x="456" d="M147 595V613L221 682H234L307 613V595L228 660L147 595ZM446 567L351 0H322L228 508L135 0H105L10 567H35L121 56H122L217 567H241L336 56H337L422 567H446Z" />
<glyph unicode="&#x176;" glyph-name="Ycircumflex" horiz-adv-x="308" d="M168 258V0H142V258L12 678H39L155 297H156L270 678H296L168 258ZM331 706V724L405 793H418L491 724V706L412 771L331 706Z" />
<glyph unicode="&#x177;" glyph-name="ycircumflex" horiz-adv-x="292" d="M285 567L141 -15Q136 -36 130 -50T114 -73T90 -86T55 -90H32V-69H54Q85 -69 97 -56T118 -10L135 58H127L7 567H33L144 97H145L260 567H285ZM323 595V613L397 682H410L483 613V595L404
660L323 595Z" />
<glyph unicode="&#x178;" glyph-name="Ydieresis" horiz-adv-x="308" d="M168 258V0H142V258L12 678H39L155 297H156L270 678H296L168 258ZM363 750H388V719H363V750ZM435 750H460V719H435V750Z" />
<glyph unicode="&#x179;" glyph-name="Zacute" horiz-adv-x="301" d="M500 757L355 698V717L500 778V757ZM49 22H271V0H21V22L251 656H42V678H280V656L49 22Z" />
<glyph unicode="&#x17a;" glyph-name="zacute" horiz-adv-x="279" d="M487 652L342 593V612L487 673V652ZM50 21H251V0H23V21L228 546H39V567H255V546L50 21Z" />
<glyph unicode="&#x17b;" glyph-name="Zdotaccent" horiz-adv-x="301" d="M49 22H271V0H21V22L251 656H42V678H280V656L49 22ZM406 775H432V744H406V775Z" />
<glyph unicode="&#x17c;" glyph-name="zdotaccent" horiz-adv-x="279" d="M50 21H251V0H23V21L228 546H39V567H255V546L50 21ZM393 678H419V647H393V678Z" />
<glyph unicode="&#x17d;" glyph-name="Zcaron" horiz-adv-x="301" d="M498 789V770L424 702H411L338 770V789L417 724L498 789ZM49 22H271V0H21V22L251 656H42V678H280V656L49 22Z" />
<glyph unicode="&#x17e;" glyph-name="zcaron" horiz-adv-x="279" d="M485 684V665L411 597H398L325 665V684L404 619L485 684ZM50 21H251V0H23V21L228 546H39V567H255V546L50 21Z" />
<glyph unicode="&#x192;" glyph-name="florin" horiz-adv-x="230" d="M17 421H77L86 597Q88 639 107 658T171 678H202V657H172Q140 657 127 643T111 595L102 421H202V400H101L76 -90H51L76 400H17V421Z" />
<glyph unicode="&#x218;" glyph-name="Scommaaccent" horiz-adv-x="323" d="M431 -23L414 -90H394L406 -21H431V-23ZM164 -5Q96 -5 62 31T27 125V237H52V125Q52 75 80 46T164 17Q217 17 243 48T270 124V163Q270 185 266 203T252 238T227 272T190 309L123 375Q99
398 82 417T54 454T37 492T31 537V564Q31 621 65 652T157 683Q285 683 285 561V477H261V562Q261 613 235 637T157 661Q112 661 84 636T55 564V537Q55 495 76 465T138 397L206 331Q228 309 245 290T273 252T290 212T296 165V125Q296 98 288 75T264 34T222 6T164
-5Z" />
<glyph unicode="&#x219;" glyph-name="scommaaccent" horiz-adv-x="305" d="M422 -23L405 -90H385L397 -21H422V-23ZM276 121Q276 61 246 28T150 -5Q87 -5 57 30T27 124V178H52V124Q52 76 75 47T150 17Q204 17 227 43T251 120V138Q251 155 248 170T237 199T215
227T180 259L113 311Q70 344 51 373T31 442V459Q31 510 59 541T147 572Q268 572 268 448V402H243V449Q243 500 220 525T147 550Q100 550 78 526T56 460V443Q56 411 71 387T127 332L194 280Q218 261 234 245T259 212T272 178T276 139V121Z" />
<glyph unicode="&#x21a;" glyph-name="uni021A" horiz-adv-x="300" d="M419 -23L402 -90H382L394 -21H419V-23ZM17 678H283V656H163V0H137V656H17V678Z" />
<glyph unicode="&#x21b;" glyph-name="uni021B" horiz-adv-x="198" d="M379 -23L362 -90H342L354 -21H379V-23ZM15 567H60V678H86V567H172V547H86V76Q86 46 98 34T142 21H172V0H140Q95 0 78 18T60 77V547H15V567Z" />
<glyph unicode="&#x237;" glyph-name="uni0237" horiz-adv-x="95" d="M60 567V-30Q60 -61 46 -75T-4 -90H-11V-69H-5Q17 -69 26 -59T35 -29V567H60Z" />
<glyph unicode="&#x2c6;" glyph-name="circumflex" horiz-adv-x="406" d="M123 595V613L197 682H210L283 613V595L204 660L123 595Z" />
<glyph unicode="&#x2c7;" glyph-name="caron" horiz-adv-x="406" d="M283 684V665L209 597H196L123 665V684L202 619L283 684Z" />
<glyph unicode="&#x2d8;" glyph-name="breve" horiz-adv-x="406" d="M280 674Q279 639 258 618T204 597Q170 597 148 618T125 674H145Q146 647 162 632T204 617Q229 617 244 632T261 674H280Z" />
<glyph unicode="&#x2d9;" glyph-name="dotaccent" horiz-adv-x="406" d="M190 678H216V647H190V678Z" />
<glyph unicode="&#x2da;" glyph-name="ring" horiz-adv-x="406" d="M147 648Q147 671 162 687T202 704Q227 704 243 688T259 648Q259 624 243 608T202 592Q178 592 163 608T147 648ZM164 648Q164 631 174 619T202 607Q219 607 230 619T242 648Q242 665 231 677T202
689Q185 689 175 677T164 648Z" />
<glyph unicode="&#x2db;" glyph-name="ogonek" horiz-adv-x="406" d="M213 0Q200 -10 189 -22T178 -48Q178 -56 184 -62T208 -69H218V-90H206Q177 -90 166 -80T154 -53Q154 -33 168 -20T192 0H213Z" />
<glyph unicode="&#x2dc;" glyph-name="tilde" horiz-adv-x="406" d="M239 616Q227 616 218 620T200 630T183 639T165 644Q150 644 144 635T136 612H119Q120 634 131 649T165 664Q176 664 185 660T204 650T221 640T239 635Q253 635 259 645T267 668H285Q284 646
273 631T239 616Z" />
<glyph unicode="&#x2dd;" glyph-name="hungarumlaut" horiz-adv-x="406" d="M222 682L179 595H159L198 682H222ZM290 682L247 595H227L266 682H290Z" />
</font>
</defs>
</svg>
