<?xml version="1.0" standalone="no"?> <!DOCTYPE svg PUBLIC "-//W3C//DTD SVG 1.0//EN" "http://www.w3.org/TR/2001/REC-SVG-20010904/DTD/svg10.dtd" > <svg xmlns="http://www.w3.org/2000/svg" width="100%" height="100%">
<defs >
<font id="KPMG" horiz-adv-x="313" ><font-face
    font-family="KPMG Web"
    units-per-em="1000"
    panose-1="2 11 2 3 3 2 2 4 2 4"
    ascent="698"
    descent="-90"
    alphabetic="0" />
<missing-glyph horiz-adv-x="625" />
<glyph unicode=" " glyph-name="space" horiz-adv-x="140" />
<glyph unicode="!" glyph-name="exclam" horiz-adv-x="87" d="M39 22H48V0H39V22ZM39 678H48L47 88H40L39 678Z" />
<glyph unicode="&quot;" glyph-name="quotedbl" horiz-adv-x="121" d="M42 587H35L34 678H43L42 587ZM86 587H79L78 678H87L86 587Z" />
<glyph unicode="#" glyph-name="numbersign" horiz-adv-x="291" d="M184 255H87L61 0H53L79 255H21V263H80L99 440H39V448H100L124 678H132L108 448H205L229 678H237L213 448H270V440H212L193 263H252V255H192L166 0H158L184 255ZM88 263H185L204 440H107L88 263Z" />
<glyph unicode="$" glyph-name="dollar" horiz-adv-x="315" d="M162 -50H154V-4Q94 -2 62 32T30 121V237H38V121Q38 69 67 38T154 4V356L126 383Q103 405 86 424T57 461T40 498T34 541V569Q34 624 68 653T154 682V718H162V682Q218 680 247 653T276 567V477H268V567Q268
621 241 646T162 674V359L198 324Q220 302 236 284T264 247T281 208T287 161V120Q287 95 280 73T256 33T217 6T162 -4V-50ZM162 348V4Q191 4 213 13T249 38T271 75T279 120V161Q279 184 274 203T259 241T232 277T193 318L162 348ZM42 541Q42 518 48 499T65 463T93
428T131 389L154 366V674Q105 674 74 647T42 569V541Z" />
<glyph unicode="%" glyph-name="percent" horiz-adv-x="395" d="M363 678L41 0H32L354 678H363ZM280 -3Q229 -3 208 28T187 114V167Q187 222 208 253T280 284Q331 284 351 253T372 167V114Q372 59 352 28T280 -3ZM280 5Q328 5 345 34T363 114V167Q363 217 346
246T280 276Q232 276 214 247T196 167V114Q196 64 214 35T280 5ZM116 394Q65 394 44 425T23 511V564Q23 619 44 650T116 681Q167 681 187 650T208 564V511Q208 456 188 425T116 394ZM116 402Q164 402 181 431T199 511V564Q199 614 182 643T116 673Q68 673 50 644T32
564V511Q32 461 50 432T116 402Z" />
<glyph unicode="&amp;" glyph-name="ampersand" horiz-adv-x="354" d="M287 358V0H278V77Q270 40 241 18T158 -4Q89 -4 61 33T33 141V243Q33 299 60 326T125 362Q90 370 68 396T46 473V547Q46 619 76 650T164 682Q221 682 249 655T278 558V493H269V558Q269 623
243 648T164 674Q114 674 85 646T55 547V473Q55 424 80 395T160 366H337V358H287ZM158 4Q191 4 213 13T250 39T270 79T278 129V358H160Q105 358 74 329T42 243V141Q42 74 68 39T158 4Z" />
<glyph unicode="&apos;" glyph-name="quotesingle" horiz-adv-x="77" d="M42 587H35L34 678H43L42 587Z" />
<glyph unicode="(" glyph-name="parenleft" horiz-adv-x="162" d="M42 534Q42 577 49 606T69 653T100 682T139 698V690Q118 684 102 674T75 646T57 601T51 534V73Q51 33 57 6T74 -38T102 -66T139 -82V-90Q118 -84 100 -75T70 -47T50 0T42 73V534Z" />
<glyph unicode=")" glyph-name="parenright" horiz-adv-x="162" d="M120 73Q120 29 113 1T93 -46T62 -74T23 -90V-82Q44 -76 60 -66T87 -39T105 6T111 73V534Q111 574 105 601T88 646T60 674T23 690V698Q44 692 62 682T92 654T112 606T120 534V73Z" />
<glyph unicode="*" glyph-name="asterisk" horiz-adv-x="189" d="M95 592L53 535L46 540L89 597L21 620L23 628L91 604L90 678H99L98 604L166 628L168 620L100 597L143 540L136 535L95 592Z" />
<glyph unicode="+" glyph-name="plus" horiz-adv-x="343" d="M27 339H167V499H176V339H316V331H176V171H167V331H27V339Z" />
<glyph unicode="," glyph-name="comma" horiz-adv-x="87" d="M50 21L33 -80H25L41 22H50V21Z" />
<glyph unicode="-" glyph-name="hyphen" horiz-adv-x="159" d="M22 319H137V311H22V319Z" />
<glyph unicode="." glyph-name="period" horiz-adv-x="87" d="M39 22H48V0H39V22Z" />
<glyph unicode="/" glyph-name="slash" horiz-adv-x="172" d="M159 698L14 -90H5L150 698H159Z" />
<glyph unicode="0" glyph-name="zero" horiz-adv-x="342" d="M171 4Q204 4 228 15T269 47T292 93T300 149V529Q300 559 293 585T269 631T229 662T171 674Q138 674 114 663T73 632T50 586T42 529V149Q42 119 49 93T73 47T113 16T171 4ZM171 -4Q135 -4 109 8T66
41T41 90T33 149V529Q33 560 41 588T66 637T109 670T171 682Q207 682 233 670T276 637T301 588T309 529V149Q309 118 301 90T276 41T233 8T171 -4Z" />
<glyph unicode="1" glyph-name="one" horiz-adv-x="165" d="M100 678H107V0H98V660H97L18 562H17V574L100 678Z" />
<glyph unicode="2" glyph-name="two" horiz-adv-x="314" d="M32 97Q32 127 37 148T52 188T78 224T114 265L192 353Q224 389 247 426T271 499V561Q271 621 241 647T159 674Q109 674 77 645T44 552V477H35V552Q35 618 69 650T159 682Q216 682 248 654T280 561V499Q280
462 256 424T200 349L122 261Q101 238 86 220T61 185T46 147T41 97V8H283V0H32V97Z" />
<glyph unicode="3" glyph-name="three" horiz-adv-x="328" d="M168 682Q226 682 257 652T288 550V470Q288 420 264 395T205 362Q224 358 240 350T269 327T288 292T295 243V131Q295 66 266 31T166 -4Q97 -4 64 28T31 128V215H40V128Q40 62 71 33T166 4Q231 4 258
36T286 131V243Q286 299 256 328T170 358H134V366H170Q224 366 251 393T279 470V550Q279 619 250 646T168 674Q112 674 80 645T48 561V493H39V561Q39 621 74 651T168 682Z" />
<glyph unicode="4" glyph-name="four" horiz-adv-x="321" d="M11 173L232 678H245V174H301V166H245V0H236V166H11V173ZM21 174H236V663H235L21 174Z" />
<glyph unicode="5" glyph-name="five" horiz-adv-x="323" d="M162 447Q185 447 208 441T249 419T278 375T290 304V139Q290 70 262 33T162 -4Q30 -4 30 133V215H39V133Q39 65 71 35T162 4Q229 4 255 39T281 139V304Q281 346 271 372T243 413T204 433T161 439Q141
439 121 433T83 412T55 374T44 317V307H35V678H278V670H43V365H44Q57 406 89 426T162 447Z" />
<glyph unicode="6" glyph-name="six" horiz-adv-x="331" d="M167 -4Q106 -4 70 34T33 151V533Q33 573 43 601T72 647T115 673T167 682Q193 682 215 675T254 652T280 609T289 545V493H280V545Q280 615 250 644T167 674Q141 674 119 666T79 641T52 598T42 533V333H43Q49
350 59 366T85 395T122 416T169 424Q230 424 265 389T300 275V145Q300 66 265 31T167 -4ZM167 4Q224 4 257 36T291 145V275Q291 350 259 383T169 416Q145 416 123 408T82 382T53 338T42 275V151Q42 76 76 40T167 4Z" />
<glyph unicode="7" glyph-name="seven" horiz-adv-x="283" d="M19 678H257V623L90 0H81L249 625V670H19V678Z" />
<glyph unicode="8" glyph-name="eight" horiz-adv-x="338" d="M169 -4Q97 -4 64 36T31 138V237Q31 290 55 328T134 376Q83 386 65 422T47 508V548Q47 608 75 645T169 682Q234 682 262 645T291 548V508Q291 459 273 423T203 376Q257 366 282 328T307 237V138Q307
77 274 37T169 -4ZM169 4Q236 4 267 42T298 138V237Q298 296 267 334T169 372Q102 372 71 334T40 237V138Q40 80 71 42T169 4ZM169 380Q202 380 224 390T259 417T277 458T282 508V548Q282 605 256 639T169 674Q109 674 83 640T56 548V508Q56 481 61 458T79 418T114
390T169 380Z" />
<glyph unicode="9" glyph-name="nine" horiz-adv-x="331" d="M164 682Q225 682 261 644T298 527V142Q298 100 288 72T259 27T217 3T166 -4Q140 -4 117 3T77 26T50 69T40 133V185H49V133Q49 63 81 34T166 4Q192 4 214 10T253 33T279 75T289 142V345H288Q282 328
272 312T245 282T209 262T162 254Q101 254 66 289T31 403V533Q31 612 66 647T164 682ZM164 674Q107 674 74 642T40 533V403Q40 328 72 295T162 262Q186 262 208 270T249 296T278 340T289 403V527Q289 602 255 638T164 674Z" />
<glyph unicode=":" glyph-name="colon" horiz-adv-x="87" d="M39 22H48V0H39V22ZM39 302H48V280H39V302Z" />
<glyph unicode=";" glyph-name="semicolon" horiz-adv-x="87" d="M50 21L33 -80H25L41 22H50V21ZM42 302H51V280H42V302Z" />
<glyph unicode="&lt;" glyph-name="less" horiz-adv-x="310" d="M14 330L287 464V455L29 329L287 203V194L14 328V330Z" />
<glyph unicode="=" glyph-name="equal" horiz-adv-x="358" d="M27 289H331V281H27V289ZM27 373H331V365H27V373Z" />
<glyph unicode="&gt;" glyph-name="greater" horiz-adv-x="310" d="M296 328L23 194V203L281 329L23 455V464L296 330V328Z" />
<glyph unicode="?" glyph-name="question" horiz-adv-x="299" d="M127 88V195Q127 220 129 236T136 265T149 292T171 325L215 389Q238 423 247 447T257 503V551Q257 614 232 644T152 674Q99 674 69 646T38 558V487H29V558Q29 623 62 652T152 682Q266 682 266 551V503Q266
468 256 443T222 384L178 320Q166 303 158 291T145 265T138 235T136 195V88H127ZM127 22H136V0H127V22Z" />
<glyph unicode="@" glyph-name="at" horiz-adv-x="493" d="M394 35Q365 35 353 51T338 99H337Q326 70 305 53T244 35Q199 35 172 62T144 153V426Q144 489 172 516T246 544Q284 544 305 528T337 482H338V540H347V105Q347 70 359 57T394 43Q416 43 429 57T443 111V490Q443
539 429 573T390 630T328 662T249 673Q207 673 171 661T108 625T66 565T50 479V127Q50 30 100 -26T256 -82H407V-90H256Q146 -90 94 -32T41 127V479Q41 529 57 567T101 630T167 668T249 681Q294 681 331 670T395 636T437 576T452 490V111Q452 71 438 53T394 35ZM153
153Q153 96 177 70T244 43Q263 43 280 49T310 68T330 101T338 150V430Q338 458 331 478T311 511T282 530T246 536Q204 536 179 510T153 426V153Z" />
<glyph unicode="A" glyph-name="A" horiz-adv-x="327" d="M15 0L155 678H170L312 0H303L260 202H65L24 0H15ZM67 210H259L163 671H162L67 210Z" />
<glyph unicode="B" glyph-name="B" horiz-adv-x="304" d="M36 678H139Q199 678 229 650T260 569V454Q260 369 186 351Q232 346 255 319T278 245V109Q278 56 248 28T157 0H36V678ZM157 8Q213 8 241 34T269 109V245Q269 294 242 320T155 346H45V8H157ZM45 670V353H144Q196
353 223 379T251 454V569Q251 618 223 644T139 670H45Z" />
<glyph unicode="C" glyph-name="C" horiz-adv-x="327" d="M169 -4Q132 -4 106 9T64 43T41 93T33 153V525Q33 556 40 584T64 635T106 669T169 682Q208 682 232 672T271 643T291 598T297 538V457H288V538Q288 569 283 594T265 637T228 664T169 674Q134 674 110 662T71
630T49 582T42 525V153Q42 123 49 96T71 49T110 16T169 4Q205 4 228 14T264 43T283 87T288 141V257H297V141Q297 110 292 84T272 38T233 7T169 -4Z" />
<glyph unicode="D" glyph-name="D" horiz-adv-x="332" d="M45 8H149Q187 8 214 20T258 52T282 100T290 157V521Q290 551 283 578T258 625T214 658T149 670H45V8ZM149 678Q189 678 217 666T264 631T290 581T299 521V157Q299 126 291 98T264 48T218 13T149 0H36V678H149Z" />
<glyph unicode="E" glyph-name="E" horiz-adv-x="294" d="M36 678H266V670H45V349H206V341H45V8H266V0H36V678Z" />
<glyph unicode="F" glyph-name="F" horiz-adv-x="276" d="M36 678H256V670H45V349H206V341H45V0H36V678Z" />
<glyph unicode="G" glyph-name="G" horiz-adv-x="333" d="M180 324H297V0H288V77Q280 40 252 18T169 -4Q132 -4 106 9T64 43T41 93T33 153V525Q33 556 40 584T64 635T106 669T169 682Q208 682 232 672T271 643T291 598T297 538V477H288V538Q288 569 283 594T265
637T228 664T169 674Q134 674 110 662T71 630T49 582T42 525V153Q42 123 49 96T71 49T110 16T169 4Q203 4 225 13T261 39T281 79T288 129V316H180V324Z" />
<glyph unicode="H" glyph-name="H" horiz-adv-x="326" d="M281 341H45V0H36V678H45V349H281V678H290V0H281V341Z" />
<glyph unicode="I" glyph-name="I" horiz-adv-x="81" d="M36 678H45V0H36V678Z" />
<glyph unicode="J" glyph-name="J" horiz-adv-x="280" d="M247 678V118Q247 61 220 29T136 -4Q79 -4 52 28T25 118V257H34V118Q34 67 58 36T136 4Q190 4 214 35T238 118V678H247Z" />
<glyph unicode="K" glyph-name="K" horiz-adv-x="296" d="M45 341V0H36V678H45V347L275 678H285L53 344L287 0H277L45 341Z" />
<glyph unicode="L" glyph-name="L" horiz-adv-x="258" d="M36 678H45V8H243V0H36V678Z" />
<glyph unicode="M" glyph-name="M" horiz-adv-x="410" d="M365 669H361L210 0H199L49 669H45V0H36V678H56L204 21H205L354 678H374V0H365V669Z" />
<glyph unicode="N" glyph-name="N" horiz-adv-x="321" d="M45 667V0H36V678H51L276 19V678H285V0H273L45 667Z" />
<glyph unicode="O" glyph-name="O" horiz-adv-x="346" d="M173 4Q207 4 232 16T273 48T296 96T304 153V525Q304 555 297 582T273 629T232 662T173 674Q138 674 114 662T73 630T50 582T42 525V153Q42 123 49 96T73 49T113 16T173 4ZM173 -4Q136 -4 110 9T66 43T41
93T33 153V525Q33 556 41 584T66 635T109 669T173 682Q210 682 236 670T280 635T305 585T313 525V153Q313 122 305 94T280 44T237 9T173 -4Z" />
<glyph unicode="P" glyph-name="P" horiz-adv-x="293" d="M36 678H144Q204 678 234 650T265 569V369Q265 316 235 288T144 260H45V0H36V678ZM45 670V268H144Q200 268 228 294T256 369V569Q256 618 228 644T144 670H45Z" />
<glyph unicode="Q" glyph-name="Q" horiz-adv-x="346" d="M154 -10V-3Q122 0 99 14T62 49T40 97T33 153V525Q33 556 41 584T66 635T109 669T173 682Q210 682 236 670T280 635T305 585T313 525V153Q313 122 305 94T280 44T237 9T173 -4H166L324 -41V-50L154 -10ZM173
4Q207 4 232 16T273 48T296 96T304 153V525Q304 555 297 582T273 629T232 662T173 674Q138 674 114 662T73 630T50 582T42 525V153Q42 123 49 96T73 49T113 16T173 4Z" />
<glyph unicode="R" glyph-name="R" horiz-adv-x="296" d="M45 343V0H36V678H144Q204 678 234 650T265 569V450Q265 397 235 369T144 341H56L287 0H277L45 343ZM45 670V349H144Q200 349 228 375T256 450V569Q256 618 228 644T144 670H45Z" />
<glyph unicode="S" glyph-name="S" d="M160 -4Q96 -4 62 30T28 121V237H37V121Q37 67 68 36T160 4Q189 4 211 13T247 38T269 75T276 120V161Q276 184 272 203T257 241T230 277T191 318L124 383Q101 405 84 424T55 461T38 498T32 541V569Q32 624 66 653T152 682Q212
682 243 655T274 567V477H265V567Q265 623 236 648T152 674Q103 674 72 647T41 569V541Q41 518 46 500T63 464T91 429T129 390L196 325Q218 303 234 285T262 247T279 208T285 161V120Q285 95 278 73T254 33T215 6T160 -4Z" />
<glyph unicode="T" glyph-name="T" horiz-adv-x="293" d="M17 678H276V670H151V0H142V670H17V678Z" />
<glyph unicode="U" glyph-name="U" horiz-adv-x="330" d="M296 678V145Q296 114 290 87T268 40T227 8T165 -4Q128 -4 103 7T63 39T41 87T34 145V678H43V145Q43 115 49 90T69 45T107 15T165 4Q199 4 222 15T260 45T281 89T287 145V678H296Z" />
<glyph unicode="V" glyph-name="V" horiz-adv-x="317" d="M302 678L167 0H152L15 678H24L159 9H160L293 678H302Z" />
<glyph unicode="W" glyph-name="W" horiz-adv-x="475" d="M237 646L131 0H116L18 678H27L123 11H124L233 678H242L353 11H354L448 678H457L361 0H346L238 646H237Z" />
<glyph unicode="X" glyph-name="X" horiz-adv-x="317" d="M19 0L151 359L32 678H42L158 367L273 678H283L164 358L298 0H288L157 349L29 0H19Z" />
<glyph unicode="Y" glyph-name="Y" horiz-adv-x="293" d="M152 258V0H143V258L13 678H22L147 273H148L271 678H280L152 258Z" />
<glyph unicode="Z" glyph-name="Z" horiz-adv-x="293" d="M31 8H263V0H21V8L262 670H43V678H272V670L31 8Z" />
<glyph unicode="[" glyph-name="bracketleft" horiz-adv-x="155" d="M132 690H54V-82H132V-90H45V698H132V690Z" />
<glyph unicode="\" glyph-name="backslash" horiz-adv-x="172" d="M22 698L167 -90H158L13 698H22Z" />
<glyph unicode="]" glyph-name="bracketright" horiz-adv-x="155" d="M23 698H110V-90H23V-82H101V690H23V698Z" />
<glyph unicode="^" glyph-name="asciicircum" horiz-adv-x="230" d="M197 511L115 667L33 511H24L112 678H118L206 511H197Z" />
<glyph unicode="_" glyph-name="underscore" horiz-adv-x="239" d="M1 -82H238V-90H1V-82Z" />
<glyph unicode="`" glyph-name="grave" horiz-adv-x="406" d="M134 669L273 601V593L134 660V669Z" />
<glyph unicode="a" glyph-name="a" horiz-adv-x="296" d="M254 0V72H253Q242 40 214 18T140 -4Q88 -4 58 26T28 122V171Q28 203 36 224T58 260T94 286T141 309Q204 337 229 356T254 396V446Q254 500 234 531T159 563Q106 563 79 535T51 456V403H42V456Q42 511
72 541T159 571Q217 571 240 539T263 446V0H254ZM140 4Q161 4 181 11T218 33T244 70T254 122V371Q250 365 244 359T226 344T194 326T143 301Q117 289 98 278T65 253T44 220T37 171V122Q37 62 64 33T140 4Z" />
<glyph unicode="b" glyph-name="b" horiz-adv-x="312" d="M36 678H45V493H46Q57 525 86 548T163 571Q218 571 248 540T279 443V124Q279 58 248 27T161 -4Q113 -4 85 17T46 70H45V0H36V678ZM270 443Q270 503 243 533T163 563Q140 563 120 556T83 534T56 499T45
449V114Q46 86 55 65T81 31T117 11T161 4Q213 4 241 34T270 124V443Z" />
<glyph unicode="c" glyph-name="c" horiz-adv-x="302" d="M274 173V126Q274 -4 158 -4Q98 -4 66 31T33 132V437Q33 503 66 537T157 571Q215 571 244 540T274 443V403H265V443Q265 563 157 563Q102 563 72 530T42 437V132Q42 72 71 38T158 4Q265 4 265 126V173H274Z" />
<glyph unicode="d" glyph-name="d" horiz-adv-x="312" d="M278 0H269V74H268Q257 42 230 19T154 -4Q99 -4 67 27T35 124V443Q35 509 68 540T156 571Q204 571 230 549T268 495H269V678H278V0ZM44 124Q44 64 73 34T154 4Q176 4 196 11T232 33T258 68T269 118V445Q269
475 260 497T236 533T200 555T156 563Q104 563 74 533T44 443V124Z" />
<glyph unicode="e" glyph-name="e" horiz-adv-x="314" d="M281 173V126Q281 60 250 28T160 -4Q100 -4 67 31T33 132V437Q33 503 66 537T157 571Q215 571 248 537T281 437V300H42V132Q42 72 72 38T160 4Q272 4 272 126V173H281ZM42 308H272V437Q272 497 242 530T157
563Q102 563 72 530T42 437V308Z" />
<glyph unicode="f" glyph-name="f" horiz-adv-x="175" d="M15 567H61V610Q61 646 77 662T131 678H160V670H131Q98 670 84 657T70 610V567H160V559H70V0H61V559H15V567Z" />
<glyph unicode="g" glyph-name="g" horiz-adv-x="312" d="M276 567V22Q276 -32 248 -63T159 -94Q100 -94 69 -65T38 16V47H47V16Q47 -32 75 -59T159 -86Q216 -86 241 -56T267 22V162H266Q255 130 228 107T152 84Q97 84 65 115T33 212V443Q33 509 66 540T154 571Q202
571 228 549T266 495H267V567H276ZM42 212Q42 152 71 122T152 92Q174 92 194 99T230 121T256 156T267 206V445Q267 475 258 497T234 533T198 555T154 563Q102 563 72 533T42 443V212Z" />
<glyph unicode="h" glyph-name="h" horiz-adv-x="304" d="M262 445Q262 505 235 534T159 563Q138 563 118 556T82 535T56 500T45 451V0H36V678H45V495H46Q57 527 85 549T159 571Q211 571 241 541T271 445V0H262V445Z" />
<glyph unicode="i" glyph-name="i" horiz-adv-x="81" d="M36 567H45V0H36V567ZM36 678H45V658H36V678Z" />
<glyph unicode="j" glyph-name="j" horiz-adv-x="81" d="M45 567V-37Q45 -63 33 -76T-7 -90H-13V-82H-7Q16 -82 26 -71T36 -37V567H45ZM36 678H45V658H36V678Z" />
<glyph unicode="k" glyph-name="k" horiz-adv-x="260" d="M240 0L45 288V0H36V678H45V291L234 567H244L54 290L250 0H240Z" />
<glyph unicode="l" glyph-name="l" horiz-adv-x="81" d="M36 678H45V0H36V678Z" />
<glyph unicode="m" glyph-name="m" horiz-adv-x="490" d="M242 451Q242 505 219 534T149 563Q129 563 111 556T79 536T55 502T45 456V0H36V567H45V500H46Q57 528 82 549T149 571Q189 571 214 551T247 490H248Q258 525 285 548T355 571Q404 571 430 541T457 451V0H448V451Q448
505 425 534T355 563Q335 563 317 556T284 534T260 499T251 451V0H242V451Z" />
<glyph unicode="n" glyph-name="n" horiz-adv-x="304" d="M262 445Q262 505 235 534T159 563Q138 563 118 556T82 535T56 500T45 451V0H36V567H45V495H46Q57 527 85 549T159 571Q211 571 241 541T271 445V0H262V445Z" />
<glyph unicode="o" glyph-name="o" horiz-adv-x="314" d="M281 132Q281 66 248 31T157 -4Q99 -4 66 31T33 132V435Q33 501 66 536T157 571Q215 571 248 536T281 435V132ZM157 4Q212 4 242 38T272 132V435Q272 495 242 529T157 563Q102 563 72 529T42 435V132Q42
72 72 38T157 4Z" />
<glyph unicode="p" glyph-name="p" horiz-adv-x="312" d="M36 567H45V493H46Q57 525 86 548T163 571Q218 571 248 540T279 443V124Q279 58 248 27T161 -4Q113 -4 85 17T46 70H45V-90H36V567ZM270 443Q270 503 243 533T163 563Q140 563 120 556T83 534T56 499T45
449V114Q46 86 55 65T81 31T117 11T161 4Q213 4 241 34T270 124V443Z" />
<glyph unicode="q" glyph-name="q" horiz-adv-x="312" d="M276 -90H267V74H266Q255 42 228 19T152 -4Q97 -4 65 27T33 124V443Q33 509 66 540T154 571Q202 571 228 549T266 495H267V567H276V-90ZM42 124Q42 64 71 34T152 4Q174 4 194 11T230 33T256 68T267 118V445Q267
475 258 497T234 533T198 555T154 563Q102 563 72 533T42 443V124Z" />
<glyph unicode="r" glyph-name="r" horiz-adv-x="177" d="M155 561H154Q134 561 115 554T81 533T56 498T45 450V0H36V567H45V495H46Q57 526 84 547T155 569V561Z" />
<glyph unicode="s" glyph-name="s" horiz-adv-x="296" d="M266 117Q266 59 238 28T145 -4Q85 -4 57 30T28 120V173H37V120Q37 69 62 37T145 4Q205 4 231 33T257 117V135Q257 171 242 200T184 263L112 319Q70 351 51 379T32 446V464Q32 512 59 541T141 571Q257
571 257 453V403H248V453Q248 563 141 563Q90 563 66 536T41 464V446Q41 429 45 414T57 385T80 357T116 327L188 271Q234 235 250 204T266 135V117Z" />
<glyph unicode="t" glyph-name="t" horiz-adv-x="187" d="M15 567H61V678H70V567H160V559H70V68Q70 35 84 22T131 8H160V0H131Q93 0 77 16T61 68V559H15V567Z" />
<glyph unicode="u" glyph-name="u" horiz-adv-x="304" d="M42 122Q42 62 69 33T145 4Q166 4 186 11T223 33T249 70T259 122V567H268V0H259V72H258Q247 40 219 18T145 -4Q93 -4 63 26T33 122V567H42V122Z" />
<glyph unicode="v" glyph-name="v" horiz-adv-x="280" d="M273 567L148 0H133L7 567H16L140 9H141L264 567H273Z" />
<glyph unicode="w" glyph-name="w" horiz-adv-x="448" d="M438 567L341 0H326L224 549L123 0H108L10 567H19L115 15H116L218 567H230L333 15H334L429 567H438Z" />
<glyph unicode="x" glyph-name="x" horiz-adv-x="282" d="M272 567L153 296L272 0H262L146 287L20 0H10L139 296L20 567H30L146 304L262 567H272Z" />
<glyph unicode="y" glyph-name="y" horiz-adv-x="282" d="M275 567L125 -19Q120 -39 114 -52T100 -74T80 -86T48 -90H28V-82H48Q81 -82 94 -68T116 -18L136 59H131L7 567H16L138 70H139L266 567H275Z" />
<glyph unicode="z" glyph-name="z" horiz-adv-x="272" d="M33 8H244V0H23V8L239 559H40V567H249V559L33 8Z" />
<glyph unicode="{" glyph-name="braceleft" horiz-adv-x="207" d="M72 317Q91 312 101 304T117 283T122 256T121 225L106 44Q104 15 107 -4T119 -35T142 -51T176 -56H184V-64H176Q131 -64 112 -40T97 44L112 225Q113 245 112 261T104 288T82 306T39 313H20V321H39Q66
321 81 327T104 345T112 373T112 409L97 590Q92 650 111 674T176 698H184V690H176Q137 690 119 669T106 590L121 409Q122 393 122 378T117 351T102 330T72 317Z" />
<glyph unicode="|" glyph-name="bar" horiz-adv-x="85" d="M47 698V-90H38V698H47Z" />
<glyph unicode="}" glyph-name="braceright" horiz-adv-x="207" d="M135 317Q116 321 106 330T90 351T85 378T86 409L101 590Q105 648 88 669T31 690H23V698H31Q76 698 95 674T110 590L95 409Q93 389 94 373T103 346T125 328T168 321H187V313H168Q141 313 126
307T103 289T95 261T95 225L110 44Q115 -16 96 -40T31 -64H23V-56H31Q50 -56 64 -52T88 -36T100 -5T101 44L86 225Q84 241 84 256T90 283T105 303T135 317Z" />
<glyph unicode="~" glyph-name="asciitilde" horiz-adv-x="235" d="M70 339Q84 339 95 334T118 323T141 312T165 307Q182 307 189 318T198 344H206Q205 325 195 312T165 299Q151 299 140 304T117 315T94 326T70 331Q53 331 46 320T37 294H29Q30 313 40 326T70 339Z" />
<glyph unicode="&#xa1;" glyph-name="exclamdown" horiz-adv-x="87" d="M48 566H39V588H48V566ZM48 -90H39L40 500H47L48 -90Z" />
<glyph unicode="&#xa2;" glyph-name="cent" horiz-adv-x="302" d="M274 173V126Q274 -3 160 -4V-50H152V-4Q95 -2 64 32T33 132V437Q33 502 64 535T152 571V613H160V571Q217 570 245 540T274 443V403H265V443Q265 562 160 563V4Q265 4 265 126V173H274ZM42 132Q42
73 70 40T152 4V563Q99 561 71 529T42 437V132Z" />
<glyph unicode="&#xa3;" glyph-name="sterling" horiz-adv-x="328" d="M18 331H60V546Q60 619 91 650T180 682Q236 682 267 654T298 560V487H289V560Q289 622 260 648T180 674Q129 674 99 645T69 546V331H223V323H69V8H303V0H60V323H18V331Z" />
<glyph unicode="&#xa5;" glyph-name="yen" horiz-adv-x="311" d="M44 267H152V294L22 678H31L156 309H157L280 678H289L161 294V267H267V259H161V224H267V216H161V0H152V216H44V224H152V259H44V267Z" />
<glyph unicode="&#xa6;" glyph-name="brokenbar" horiz-adv-x="85" d="M38 -90V291H47V-90H38ZM47 698V339H38V698H47Z" />
<glyph unicode="&#xa7;" glyph-name="section" horiz-adv-x="340" d="M30 341Q30 379 53 402T111 437Q77 462 68 488T59 550V567Q59 623 85 652T170 682Q230 682 256 650T282 562V516H273V562Q273 613 250 643T170 674Q116 674 92 648T68 567V550Q68 514 78 488T128
436L229 371Q271 344 290 318T310 250Q310 215 287 191T229 158V157Q265 131 277 103T289 40V20Q289 -38 263 -66T173 -94Q113 -94 84 -63T55 25V76H64V25Q64 -26 90 -56T173 -86Q233 -86 256 -61T280 20V40Q280 76 267 104T212 159L111 224Q70 250 50 276T30 341ZM215
167L222 162Q258 173 279 195T301 250Q301 288 284 312T226 363L125 428Q123 429 122 430T118 432Q80 420 60 398T39 341Q39 306 56 282T114 232L215 167Z" />
<glyph unicode="&#xa8;" glyph-name="dieresis" horiz-adv-x="406" d="M168 638H177V618H168V638ZM228 638H237V618H228V638Z" />
<glyph unicode="&#xa9;" glyph-name="copyright" horiz-adv-x="374" d="M347 305Q347 267 337 235T306 179T256 142T187 129Q148 129 118 142T68 178T37 234T27 305V381Q27 419 37 451T67 507T118 544T187 557Q226 557 256 544T306 508T336 452T347 381V305ZM338
381Q338 418 329 448T300 501T253 536T187 549Q149 549 121 537T74 502T46 449T36 381V305Q36 268 45 238T74 185T121 150T187 137Q224 137 252 149T300 184T328 237T338 305V381ZM259 307V284Q259 246 243 225T184 204Q143 204 126 228T109 291V398Q109 438 126
461T184 485Q226 485 242 465T259 407V390H250V407Q250 442 235 459T184 477Q147 477 133 456T118 398V291Q118 256 132 234T184 212Q220 212 235 230T250 284V307H259Z" />
<glyph unicode="&#xaa;" glyph-name="ordfeminine" horiz-adv-x="283" d="M241 202V274H240Q229 242 205 220T136 198Q84 198 56 225T28 313V329Q28 357 36 376T58 410T93 435T137 457Q194 484 217 504T241 544V572Q241 594 237 613T223 646T196 667T151 675Q98
675 75 651T52 580V537H43V580Q43 629 69 656T151 683Q209 683 229 653T250 572V202H241ZM136 206Q179 206 210 235T241 324V519Q237 513 232 507T215 492T186 473T139 449Q116 438 97 428T65 404T44 373T37 329V313Q37 257 62 232T136 206Z" />
<glyph unicode="&#xab;" glyph-name="guillemotleft" horiz-adv-x="186" d="M103 378L39 232L103 86H94L30 232L94 378H103ZM156 378L92 232L156 86H147L83 232L147 378H156Z" />
<glyph unicode="&#xae;" glyph-name="registered" horiz-adv-x="374" d="M347 429Q347 391 337 359T306 303T256 266T187 253Q148 253 118 266T68 302T37 358T27 429V505Q27 543 37 575T67 631T118 668T187 681Q226 681 256 668T306 632T336 576T347 505V429ZM338
505Q338 542 329 572T300 625T253 660T187 673Q149 673 121 661T74 626T46 573T36 505V429Q36 392 45 362T74 309T121 274T187 261Q224 261 252 273T300 308T328 361T338 429V505ZM140 472V338H131V606H191Q253 606 253 551V524Q253 492 238 480T191 468H154L261
338H250L140 472ZM140 598V476H191Q221 476 232 488T244 524V551Q244 572 233 585T191 598H140Z" />
<glyph unicode="&#xaf;" glyph-name="macron" horiz-adv-x="406" d="M135 626H271V618H135V626Z" />
<glyph unicode="&#xb0;" glyph-name="degree" horiz-adv-x="173" d="M22 617Q22 645 40 664T85 683Q113 683 132 664T151 617Q151 591 132 573T85 554Q59 554 41 572T22 617ZM31 617Q31 594 46 578T85 562Q109 562 125 578T142 617Q142 642 126 658T85 675Q62
675 47 659T31 617Z" />
<glyph unicode="&#xb2;" glyph-name="twosuperior" horiz-adv-x="209" d="M176 386H30V407Q30 439 39 456T75 494L125 534Q147 552 158 566T169 599V615Q169 643 154 658T107 674Q78 674 60 658T41 611V576H32V611Q32 646 53 664T107 682Q141 682 159 665T178
615V599Q178 579 167 564T131 528L81 488Q55 468 47 452T39 407V394H176V386Z" />
<glyph unicode="&#xb3;" glyph-name="threesuperior" horiz-adv-x="213" d="M39 480V451Q39 390 106 390Q143 390 158 405T173 449V488Q173 510 162 523T121 538H90V546H121Q149 546 158 563T168 596V618Q168 674 105 674Q70 674 57 657T43 615V597H34V615Q34
643 49 662T105 682Q177 682 177 618V596Q177 579 169 564T139 542Q163 537 172 523T182 488V449Q182 418 165 400T106 382Q68 382 49 400T30 451V480H39Z" />
<glyph unicode="&#xb4;" glyph-name="acute" horiz-adv-x="406" d="M272 660L133 593V601L272 669V660Z" />
<glyph unicode="&#xb6;" glyph-name="paragraph" horiz-adv-x="305" d="M196 0V300H149Q89 300 59 328T28 409V569Q28 622 58 650T149 678H269V0H260V670H205V0H196Z" />
<glyph unicode="&#xb7;" glyph-name="periodcentered" horiz-adv-x="87" d="M39 352H48V330H39V352Z" />
<glyph unicode="&#xb8;" glyph-name="cedilla" horiz-adv-x="406" d="M156 -25Q179 -25 192 -32T205 -56Q205 -74 185 -82T129 -90V-82Q158 -82 177 -76T196 -56Q196 -44 185 -39T157 -33H148V0H156V-25Z" />
<glyph unicode="&#xb9;" glyph-name="onesuperior" horiz-adv-x="137" d="M89 678V386H80V662H79L22 598H21V609L82 678H89Z" />
<glyph unicode="&#xba;" glyph-name="ordmasculine" horiz-adv-x="294" d="M261 329Q261 266 231 232T147 198Q93 198 63 232T33 329V552Q33 615 63 649T147 683Q201 683 231 649T261 552V329ZM147 206Q198 206 225 238T252 329V552Q252 610 225 642T147 675Q96
675 69 643T42 552V329Q42 271 69 239T147 206Z" />
<glyph unicode="&#xbb;" glyph-name="guillemotright" horiz-adv-x="186" d="M92 378L156 232L92 86H83L147 232L83 378H92ZM39 378L103 232L39 86H30L94 232L30 378H39Z" />
<glyph unicode="&#xbc;" glyph-name="onequarter" horiz-adv-x="245" d="M24 344H221V336H24V344ZM130 678V386H121V662H120L63 598H62V609L123 678H130ZM33 70L150 292H163V72H196V64H163V0H154V64H33V70ZM44 72H154V280H153L44 72Z" />
<glyph unicode="&#xbd;" glyph-name="onehalf" horiz-adv-x="245" d="M24 344H221V336H24V344ZM130 678V386H121V662H120L63 598H62V609L123 678H130ZM198 0H52V21Q52 53 61 70T97 108L147 148Q169 166 180 180T191 213V229Q191 257 176 272T129 288Q100 288 82
272T63 225V190H54V225Q54 260 75 278T129 296Q163 296 181 279T200 229V213Q200 193 189 178T153 142L103 102Q77 82 69 66T61 21V8H198V0Z" />
<glyph unicode="&#xbe;" glyph-name="threequarters" horiz-adv-x="259" d="M24 344H221V336H24V344ZM37 70L154 292H167V72H200V64H167V0H158V64H37V70ZM48 72H158V280H157L48 72ZM55 480V451Q55 390 122 390Q159 390 174 405T189 449V488Q189 510 178 523T137
538H106V546H137Q165 546 174 563T184 596V618Q184 674 121 674Q86 674 73 657T59 615V597H50V615Q50 643 65 662T121 682Q193 682 193 618V596Q193 579 185 564T155 542Q179 537 188 523T198 488V449Q198 418 181 400T122 382Q84 382 65 400T46 451V480H55Z" />
<glyph unicode="&#xbf;" glyph-name="questiondown" horiz-adv-x="299" d="M172 500V393Q172 368 170 352T163 322T150 295T128 263L84 199Q61 165 52 141T42 85V37Q42 -26 67 -56T147 -86Q200 -86 230 -58T261 30V101H270V30Q270 -35 237 -64T147 -94Q33 -94
33 37V85Q33 120 43 145T77 204L121 268Q133 285 141 297T154 323T161 353T163 393V500H172ZM172 566H163V588H172V566Z" />
<glyph unicode="&#xc0;" glyph-name="Agrave" horiz-adv-x="327" d="M15 0L155 678H170L312 0H303L260 202H65L24 0H15ZM67 210H259L163 671H162L67 210ZM345 774L484 706V698L345 765V774Z" />
<glyph unicode="&#xc1;" glyph-name="Aacute" horiz-adv-x="327" d="M15 0L155 678H170L312 0H303L260 202H65L24 0H15ZM67 210H259L163 671H162L67 210ZM499 765L360 698V706L499 774V765Z" />
<glyph unicode="&#xc2;" glyph-name="Acircumflex" horiz-adv-x="327" d="M15 0L155 678H170L312 0H303L260 202H65L24 0H15ZM67 210H259L163 671H162L67 210ZM342 700V709L417 783H423L496 709V700L420 774L342 700Z" />
<glyph unicode="&#xc3;" glyph-name="Atilde" horiz-adv-x="327" d="M15 0L155 678H170L312 0H303L260 202H65L24 0H15ZM67 210H259L163 671H162L67 210ZM382 765Q393 765 402 760T421 749T438 738T457 733Q474 733 481 744T490 770H498Q497 751 487 738T457 725Q446
725 437 730T418 741T401 752T382 757Q365 757 358 746T349 720H341Q342 739 352 752T382 765Z" />
<glyph unicode="&#xc4;" glyph-name="Adieresis" horiz-adv-x="327" d="M15 0L155 678H170L312 0H303L260 202H65L24 0H15ZM67 210H259L163 671H162L67 210ZM385 743H394V723H385V743ZM445 743H454V723H445V743Z" />
<glyph unicode="&#xc5;" glyph-name="Aring" horiz-adv-x="327" d="M15 0L155 678H170L312 0H303L260 202H65L24 0H15ZM67 210H259L163 671H162L67 210ZM368 754Q368 776 382 791T419 807Q442 807 457 792T472 754Q472 732 457 717T419 702Q397 702 383 717T368
754ZM377 754Q377 735 389 723T419 710Q438 710 450 722T463 754Q463 773 451 786T419 799Q401 799 389 786T377 754Z" />
<glyph unicode="&#xc6;" glyph-name="AE" horiz-adv-x="509" d="M12 0L209 678H481V670H270V349H421V341H270V8H481V0H261V202H79L21 0H12ZM82 210H261V670H215L82 210Z" />
<glyph unicode="&#xc7;" glyph-name="Ccedilla" horiz-adv-x="327" d="M158 -4V-25Q181 -25 194 -32T207 -56Q207 -74 187 -82T131 -90V-82Q160 -82 179 -76T198 -56Q198 -44 187 -39T159 -33H150V-3Q118 0 96 14T60 49T40 97T33 153V525Q33 556 40 584T64 635T106
669T169 682Q208 682 232 672T271 643T291 598T297 538V457H288V538Q288 569 283 594T265 637T228 664T169 674Q134 674 110 662T71 630T49 582T42 525V153Q42 123 49 96T71 49T110 16T169 4Q205 4 228 14T264 43T283 87T288 141V257H297V141Q297 110 292 84T272
38T233 7T169 -4H158Z" />
<glyph unicode="&#xc8;" glyph-name="Egrave" horiz-adv-x="294" d="M36 678H266V670H45V349H206V341H45V8H266V0H36V678ZM340 774L479 706V698L340 765V774Z" />
<glyph unicode="&#xc9;" glyph-name="Eacute" horiz-adv-x="294" d="M494 765L355 698V706L494 774V765ZM36 678H266V670H45V349H206V341H45V8H266V0H36V678Z" />
<glyph unicode="&#xca;" glyph-name="Ecircumflex" horiz-adv-x="294" d="M337 700V709L412 783H418L491 709V700L415 774L337 700ZM36 678H266V670H45V349H206V341H45V8H266V0H36V678Z" />
<glyph unicode="&#xcb;" glyph-name="Edieresis" horiz-adv-x="294" d="M380 743H389V723H380V743ZM440 743H449V723H440V743ZM36 678H266V670H45V349H206V341H45V8H266V0H36V678Z" />
<glyph unicode="&#xcc;" glyph-name="Igrave" horiz-adv-x="81" d="M36 678H45V0H36V678ZM-34 774L105 706V698L-34 765V774Z" />
<glyph unicode="&#xcd;" glyph-name="Iacute" horiz-adv-x="81" d="M36 678H45V0H36V678ZM120 765L-19 698V706L120 774V765Z" />
<glyph unicode="&#xce;" glyph-name="Icircumflex" horiz-adv-x="81" d="M36 678H45V0H36V678ZM-37 700V709L38 783H44L117 709V700L41 774L-37 700Z" />
<glyph unicode="&#xcf;" glyph-name="Idieresis" horiz-adv-x="81" d="M36 678H45V0H36V678ZM6 743H15V723H6V743ZM66 743H75V723H66V743Z" />
<glyph unicode="&#xd0;" glyph-name="Eth" horiz-adv-x="344" d="M15 349H48V678H161Q201 678 229 666T276 631T302 581T311 521V157Q311 126 303 98T276 48T230 13T161 0H48V341H15V349ZM57 349H200V341H57V8H161Q199 8 226 20T270 52T294 100T302 157V521Q302
551 295 578T270 625T226 658T161 670H57V349Z" />
<glyph unicode="&#xd1;" glyph-name="Ntilde" horiz-adv-x="321" d="M45 667V0H36V678H51L276 19V678H285V0H273L45 667ZM389 765Q400 765 409 760T428 749T445 738T464 733Q481 733 488 744T497 770H505Q504 751 494 738T464 725Q453 725 444 730T425 741T408
752T389 757Q372 757 365 746T356 720H348Q349 739 359 752T389 765Z" />
<glyph unicode="&#xd2;" glyph-name="Ograve" horiz-adv-x="346" d="M173 4Q207 4 232 16T273 48T296 96T304 153V525Q304 555 297 582T273 629T232 662T173 674Q138 674 114 662T73 630T50 582T42 525V153Q42 123 49 96T73 49T113 16T173 4ZM173 -4Q136 -4 110
9T66 43T41 93T33 153V525Q33 556 41 584T66 635T109 669T173 682Q210 682 236 670T280 635T305 585T313 525V153Q313 122 305 94T280 44T237 9T173 -4ZM355 774L494 706V698L355 765V774Z" />
<glyph unicode="&#xd3;" glyph-name="Oacute" horiz-adv-x="346" d="M509 765L370 698V706L509 774V765ZM173 4Q207 4 232 16T273 48T296 96T304 153V525Q304 555 297 582T273 629T232 662T173 674Q138 674 114 662T73 630T50 582T42 525V153Q42 123 49 96T73
49T113 16T173 4ZM173 -4Q136 -4 110 9T66 43T41 93T33 153V525Q33 556 41 584T66 635T109 669T173 682Q210 682 236 670T280 635T305 585T313 525V153Q313 122 305 94T280 44T237 9T173 -4Z" />
<glyph unicode="&#xd4;" glyph-name="Ocircumflex" horiz-adv-x="346" d="M352 700V709L427 783H433L506 709V700L430 774L352 700ZM173 4Q207 4 232 16T273 48T296 96T304 153V525Q304 555 297 582T273 629T232 662T173 674Q138 674 114 662T73 630T50 582T42
525V153Q42 123 49 96T73 49T113 16T173 4ZM173 -4Q136 -4 110 9T66 43T41 93T33 153V525Q33 556 41 584T66 635T109 669T173 682Q210 682 236 670T280 635T305 585T313 525V153Q313 122 305 94T280 44T237 9T173 -4Z" />
<glyph unicode="&#xd5;" glyph-name="Otilde" horiz-adv-x="346" d="M173 4Q207 4 232 16T273 48T296 96T304 153V525Q304 555 297 582T273 629T232 662T173 674Q138 674 114 662T73 630T50 582T42 525V153Q42 123 49 96T73 49T113 16T173 4ZM173 -4Q136 -4 110
9T66 43T41 93T33 153V525Q33 556 41 584T66 635T109 669T173 682Q210 682 236 670T280 635T305 585T313 525V153Q313 122 305 94T280 44T237 9T173 -4ZM392 765Q403 765 412 760T431 749T448 738T467 733Q484 733 491 744T500 770H508Q507 751 497 738T467 725Q456
725 447 730T428 741T411 752T392 757Q375 757 368 746T359 720H351Q352 739 362 752T392 765Z" />
<glyph unicode="&#xd6;" glyph-name="Odieresis" horiz-adv-x="346" d="M395 743H404V723H395V743ZM455 743H464V723H455V743ZM173 4Q207 4 232 16T273 48T296 96T304 153V525Q304 555 297 582T273 629T232 662T173 674Q138 674 114 662T73 630T50 582T42 525V153Q42
123 49 96T73 49T113 16T173 4ZM173 -4Q136 -4 110 9T66 43T41 93T33 153V525Q33 556 41 584T66 635T109 669T173 682Q210 682 236 670T280 635T305 585T313 525V153Q313 122 305 94T280 44T237 9T173 -4Z" />
<glyph unicode="&#xd7;" glyph-name="multiply" horiz-adv-x="322" d="M38 199L155 329L31 467L37 473L161 335L278 466L284 460L166 329L291 192L285 186L161 323L44 193L38 199Z" />
<glyph unicode="&#xd8;" glyph-name="Oslash" horiz-adv-x="346" d="M173 -4Q126 -4 95 16L82 -34H73L87 22Q58 43 46 78T33 153V525Q33 556 41 584T66 635T109 669T173 682Q220 682 253 660L264 703H273L260 655Q288 633 300 599T313 525V153Q313 122 305 94T280
44T237 9T173 -4ZM173 674Q138 674 114 662T73 630T50 582T42 525V153Q42 116 53 84T90 31L250 651Q235 662 216 668T173 674ZM173 4Q207 4 232 16T273 48T296 96T304 153V525Q304 561 293 593T258 645L97 25Q129 4 173 4Z" />
<glyph unicode="&#xd9;" glyph-name="Ugrave" horiz-adv-x="330" d="M296 678V145Q296 114 290 87T268 40T227 8T165 -4Q128 -4 103 7T63 39T41 87T34 145V678H43V145Q43 115 49 90T69 45T107 15T165 4Q199 4 222 15T260 45T281 89T287 145V678H296ZM347 774L486
706V698L347 765V774Z" />
<glyph unicode="&#xda;" glyph-name="Uacute" horiz-adv-x="330" d="M501 765L362 698V706L501 774V765ZM296 678V145Q296 114 290 87T268 40T227 8T165 -4Q128 -4 103 7T63 39T41 87T34 145V678H43V145Q43 115 49 90T69 45T107 15T165 4Q199 4 222 15T260 45T281
89T287 145V678H296Z" />
<glyph unicode="&#xdb;" glyph-name="Ucircumflex" horiz-adv-x="330" d="M344 700V709L419 783H425L498 709V700L422 774L344 700ZM296 678V145Q296 114 290 87T268 40T227 8T165 -4Q128 -4 103 7T63 39T41 87T34 145V678H43V145Q43 115 49 90T69 45T107 15T165
4Q199 4 222 15T260 45T281 89T287 145V678H296Z" />
<glyph unicode="&#xdc;" glyph-name="Udieresis" horiz-adv-x="330" d="M387 743H396V723H387V743ZM447 743H456V723H447V743ZM296 678V145Q296 114 290 87T268 40T227 8T165 -4Q128 -4 103 7T63 39T41 87T34 145V678H43V145Q43 115 49 90T69 45T107 15T165 4Q199
4 222 15T260 45T281 89T287 145V678H296Z" />
<glyph unicode="&#xdd;" glyph-name="Yacute" horiz-adv-x="293" d="M152 258V0H143V258L13 678H22L147 273H148L271 678H280L152 258ZM484 765L345 698V706L484 774V765Z" />
<glyph unicode="&#xde;" glyph-name="Thorn" horiz-adv-x="293" d="M36 678H45V548H144Q204 548 234 520T265 439V263Q265 210 235 182T144 154H45V0H36V678ZM45 540V162H144Q200 162 228 188T256 263V439Q256 488 228 514T144 540H45Z" />
<glyph unicode="&#xdf;" glyph-name="germandbls" horiz-adv-x="296" d="M45 0H36V573Q36 631 66 656T150 682Q201 682 224 667T247 619Q247 592 234 580T196 563Q231 558 247 534T263 463V124Q263 70 238 35T148 0H112V8H148Q205 8 229 40T254 124V463Q254 511
235 535T172 559H122V567H173Q208 567 223 581T238 619Q238 646 219 660T150 674Q99 674 72 651T45 573V0Z" />
<glyph unicode="&#xe0;" glyph-name="agrave" horiz-adv-x="296" d="M254 0V72H253Q242 40 214 18T140 -4Q88 -4 58 26T28 122V171Q28 203 36 224T58 260T94 286T141 309Q204 337 229 356T254 396V446Q254 500 234 531T159 563Q106 563 79 535T51 456V403H42V456Q42
511 72 541T159 571Q217 571 240 539T263 446V0H254ZM140 4Q161 4 181 11T218 33T244 70T254 122V371Q250 365 244 359T226 344T194 326T143 301Q117 289 98 278T65 253T44 220T37 171V122Q37 62 64 33T140 4ZM338 669L477 601V593L338 660V669Z" />
<glyph unicode="&#xe1;" glyph-name="aacute" horiz-adv-x="296" d="M254 0V72H253Q242 40 214 18T140 -4Q88 -4 58 26T28 122V171Q28 203 36 224T58 260T94 286T141 309Q204 337 229 356T254 396V446Q254 500 234 531T159 563Q106 563 79 535T51 456V403H42V456Q42
511 72 541T159 571Q217 571 240 539T263 446V0H254ZM140 4Q161 4 181 11T218 33T244 70T254 122V371Q250 365 244 359T226 344T194 326T143 301Q117 289 98 278T65 253T44 220T37 171V122Q37 62 64 33T140 4ZM492 660L353 593V601L492 669V660Z" />
<glyph unicode="&#xe2;" glyph-name="acircumflex" horiz-adv-x="296" d="M254 0V72H253Q242 40 214 18T140 -4Q88 -4 58 26T28 122V171Q28 203 36 224T58 260T94 286T141 309Q204 337 229 356T254 396V446Q254 500 234 531T159 563Q106 563 79 535T51 456V403H42V456Q42
511 72 541T159 571Q217 571 240 539T263 446V0H254ZM140 4Q161 4 181 11T218 33T244 70T254 122V371Q250 365 244 359T226 344T194 326T143 301Q117 289 98 278T65 253T44 220T37 171V122Q37 62 64 33T140 4ZM335 595V604L410 678H416L489 604V595L413 669L335
595Z" />
<glyph unicode="&#xe3;" glyph-name="atilde" horiz-adv-x="296" d="M254 0V72H253Q242 40 214 18T140 -4Q88 -4 58 26T28 122V171Q28 203 36 224T58 260T94 286T141 309Q204 337 229 356T254 396V446Q254 500 234 531T159 563Q106 563 79 535T51 456V403H42V456Q42
511 72 541T159 571Q217 571 240 539T263 446V0H254ZM140 4Q161 4 181 11T218 33T244 70T254 122V371Q250 365 244 359T226 344T194 326T143 301Q117 289 98 278T65 253T44 220T37 171V122Q37 62 64 33T140 4ZM375 660Q386 660 395 655T414 644T431 633T450 628Q467
628 474 639T483 665H491Q490 646 480 633T450 620Q439 620 430 625T411 636T394 647T375 652Q358 652 351 641T342 615H334Q335 634 345 647T375 660Z" />
<glyph unicode="&#xe4;" glyph-name="adieresis" horiz-adv-x="296" d="M254 0V72H253Q242 40 214 18T140 -4Q88 -4 58 26T28 122V171Q28 203 36 224T58 260T94 286T141 309Q204 337 229 356T254 396V446Q254 500 234 531T159 563Q106 563 79 535T51 456V403H42V456Q42
511 72 541T159 571Q217 571 240 539T263 446V0H254ZM140 4Q161 4 181 11T218 33T244 70T254 122V371Q250 365 244 359T226 344T194 326T143 301Q117 289 98 278T65 253T44 220T37 171V122Q37 62 64 33T140 4ZM378 638H387V618H378V638ZM438 638H447V618H438V638Z"
/>
<glyph unicode="&#xe5;" glyph-name="aring" horiz-adv-x="296" d="M254 0V72H253Q242 40 214 18T140 -4Q88 -4 58 26T28 122V171Q28 203 36 224T58 260T94 286T141 309Q204 337 229 356T254 396V446Q254 500 234 531T159 563Q106 563 79 535T51 456V403H42V456Q42
511 72 541T159 571Q217 571 240 539T263 446V0H254ZM140 4Q161 4 181 11T218 33T244 70T254 122V371Q250 365 244 359T226 344T194 326T143 301Q117 289 98 278T65 253T44 220T37 171V122Q37 62 64 33T140 4ZM360 644Q360 666 374 681T411 697Q434 697 449 682T464
644Q464 622 449 607T411 592Q389 592 375 607T360 644ZM369 644Q369 625 381 613T411 600Q430 600 442 612T455 644Q455 663 443 676T411 689Q393 689 381 676T369 644Z" />
<glyph unicode="&#xe6;" glyph-name="ae" horiz-adv-x="535" d="M502 173V126Q502 60 470 28T378 -4Q329 -4 303 19T268 88H267Q255 46 219 21T137 -4Q85 -4 57 26T28 122V181Q28 245 59 276T151 308H264V446Q264 500 243 531T166 563Q113 563 82 535T51 456V403H42V456Q42
511 76 541T166 571Q214 571 238 548T269 482Q289 571 385 571Q502 571 502 437V300H273V132Q273 72 297 38T378 4Q433 4 463 33T493 126V173H502ZM137 4Q158 4 180 11T221 33T252 70T264 122V300H150Q93 300 65 270T37 181V122Q37 4 137 4ZM273 308H493V437Q493
497 467 530T385 563Q330 563 302 530T273 437V308Z" />
<glyph unicode="&#xe7;" glyph-name="ccedilla" horiz-adv-x="302" d="M274 173V126Q274 -4 158 -4H145V-25Q165 -25 178 -32T192 -56Q192 -74 172 -82T116 -90V-82Q145 -82 164 -76T183 -56Q183 -44 172 -39T146 -33H137V-3Q86 3 60 37T33 132V437Q33 503 66
537T157 571Q215 571 244 540T274 443V403H265V443Q265 563 157 563Q102 563 72 530T42 437V132Q42 72 71 38T158 4Q265 4 265 126V173H274Z" />
<glyph unicode="&#xe8;" glyph-name="egrave" horiz-adv-x="314" d="M281 173V126Q281 60 250 28T160 -4Q100 -4 67 31T33 132V437Q33 503 66 537T157 571Q215 571 248 537T281 437V300H42V132Q42 72 72 38T160 4Q272 4 272 126V173H281ZM42 308H272V437Q272 497
242 530T157 563Q102 563 72 530T42 437V308ZM340 669L479 601V593L340 660V669Z" />
<glyph unicode="&#xe9;" glyph-name="eacute" horiz-adv-x="314" d="M281 173V126Q281 60 250 28T160 -4Q100 -4 67 31T33 132V437Q33 503 66 537T157 571Q215 571 248 537T281 437V300H42V132Q42 72 72 38T160 4Q272 4 272 126V173H281ZM42 308H272V437Q272 497
242 530T157 563Q102 563 72 530T42 437V308ZM494 660L355 593V601L494 669V660Z" />
<glyph unicode="&#xea;" glyph-name="ecircumflex" horiz-adv-x="314" d="M281 173V126Q281 60 250 28T160 -4Q100 -4 67 31T33 132V437Q33 503 66 537T157 571Q215 571 248 537T281 437V300H42V132Q42 72 72 38T160 4Q272 4 272 126V173H281ZM42 308H272V437Q272
497 242 530T157 563Q102 563 72 530T42 437V308ZM337 595V604L412 678H418L491 604V595L415 669L337 595Z" />
<glyph unicode="&#xeb;" glyph-name="edieresis" horiz-adv-x="314" d="M281 173V126Q281 60 250 28T160 -4Q100 -4 67 31T33 132V437Q33 503 66 537T157 571Q215 571 248 537T281 437V300H42V132Q42 72 72 38T160 4Q272 4 272 126V173H281ZM42 308H272V437Q272
497 242 530T157 563Q102 563 72 530T42 437V308ZM380 638H389V618H380V638ZM440 638H449V618H440V638Z" />
<glyph unicode="&#xec;" glyph-name="igrave" horiz-adv-x="81" d="M36 567H45V0H36V567ZM-11 669L77 602V593L-11 659V669Z" />
<glyph unicode="&#xed;" glyph-name="iacute" horiz-adv-x="81" d="M36 567H45V0H36V567ZM92 659L4 593V602L92 669V659Z" />
<glyph unicode="&#xee;" glyph-name="icircumflex" horiz-adv-x="81" d="M36 567H45V0H36V567ZM-12 595V607L38 678H44L92 607V595L41 668L-12 595Z" />
<glyph unicode="&#xef;" glyph-name="idieresis" horiz-adv-x="81" d="M36 567H45V0H36V567ZM11 638H20V618H11V638ZM61 638H70V618H61V638Z" />
<glyph unicode="&#xf0;" glyph-name="eth" horiz-adv-x="314" d="M81 614L152 640L115 678H127L161 643L222 666V658L167 637L224 580Q252 551 266 516T281 435V132Q281 66 248 31T157 -4Q99 -4 66 31T33 132V435Q33 501 66 536T157 571Q185 571 209 562T250 532Q246
540 239 550T217 575L158 634L81 606V614ZM157 4Q212 4 242 38T272 132V435Q272 495 244 529T157 563Q102 563 72 529T42 435V132Q42 72 72 38T157 4Z" />
<glyph unicode="&#xf1;" glyph-name="ntilde" horiz-adv-x="304" d="M262 445Q262 505 235 534T159 563Q138 563 118 556T82 535T56 500T45 451V0H36V567H45V495H46Q57 527 85 549T159 571Q211 571 241 541T271 445V0H262V445ZM376 660Q387 660 396 655T415 644T432
633T451 628Q468 628 475 639T484 665H492Q491 646 481 633T451 620Q440 620 431 625T412 636T395 647T376 652Q359 652 352 641T343 615H335Q336 634 346 647T376 660Z" />
<glyph unicode="&#xf2;" glyph-name="ograve" horiz-adv-x="314" d="M281 132Q281 66 248 31T157 -4Q99 -4 66 31T33 132V435Q33 501 66 536T157 571Q215 571 248 536T281 435V132ZM157 4Q212 4 242 38T272 132V435Q272 495 242 529T157 563Q102 563 72 529T42
435V132Q42 72 72 38T157 4ZM339 669L478 601V593L339 660V669Z" />
<glyph unicode="&#xf3;" glyph-name="oacute" horiz-adv-x="314" d="M493 660L354 593V601L493 669V660ZM281 132Q281 66 248 31T157 -4Q99 -4 66 31T33 132V435Q33 501 66 536T157 571Q215 571 248 536T281 435V132ZM157 4Q212 4 242 38T272 132V435Q272 495
242 529T157 563Q102 563 72 529T42 435V132Q42 72 72 38T157 4Z" />
<glyph unicode="&#xf4;" glyph-name="ocircumflex" horiz-adv-x="314" d="M336 595V604L411 678H417L490 604V595L414 669L336 595ZM281 132Q281 66 248 31T157 -4Q99 -4 66 31T33 132V435Q33 501 66 536T157 571Q215 571 248 536T281 435V132ZM157 4Q212 4 242
38T272 132V435Q272 495 242 529T157 563Q102 563 72 529T42 435V132Q42 72 72 38T157 4Z" />
<glyph unicode="&#xf5;" glyph-name="otilde" horiz-adv-x="314" d="M281 132Q281 66 248 31T157 -4Q99 -4 66 31T33 132V435Q33 501 66 536T157 571Q215 571 248 536T281 435V132ZM157 4Q212 4 242 38T272 132V435Q272 495 242 529T157 563Q102 563 72 529T42
435V132Q42 72 72 38T157 4ZM376 660Q387 660 396 655T415 644T432 633T451 628Q468 628 475 639T484 665H492Q491 646 481 633T451 620Q440 620 431 625T412 636T395 647T376 652Q359 652 352 641T343 615H335Q336 634 346 647T376 660Z" />
<glyph unicode="&#xf6;" glyph-name="odieresis" horiz-adv-x="314" d="M379 638H388V618H379V638ZM439 638H448V618H439V638ZM281 132Q281 66 248 31T157 -4Q99 -4 66 31T33 132V435Q33 501 66 536T157 571Q215 571 248 536T281 435V132ZM157 4Q212 4 242 38T272
132V435Q272 495 242 529T157 563Q102 563 72 529T42 435V132Q42 72 72 38T157 4Z" />
<glyph unicode="&#xf7;" glyph-name="divide" horiz-adv-x="343" d="M27 339H316V331H27V339ZM167 240H176V218H167V240ZM167 460H176V438H167V460Z" />
<glyph unicode="&#xf8;" glyph-name="oslash" horiz-adv-x="314" d="M281 132Q281 66 248 31T157 -4Q120 -4 92 10L81 -34H72L84 15Q33 49 33 132V435Q33 501 66 536T157 571Q193 571 223 555L233 593H242L231 550Q281 516 281 435V132ZM42 132Q42 58 87 24L221
546Q193 563 157 563Q102 563 72 529T42 435V132ZM157 4Q212 4 242 38T272 132V435Q272 471 261 497T228 541L95 19Q120 4 157 4Z" />
<glyph unicode="&#xf9;" glyph-name="ugrave" horiz-adv-x="304" d="M42 122Q42 62 69 33T145 4Q166 4 186 11T223 33T249 70T259 122V567H268V0H259V72H258Q247 40 219 18T145 -4Q93 -4 63 26T33 122V567H42V122ZM332 669L471 601V593L332 660V669Z" />
<glyph unicode="&#xfa;" glyph-name="uacute" horiz-adv-x="304" d="M486 660L347 593V601L486 669V660ZM42 122Q42 62 69 33T145 4Q166 4 186 11T223 33T249 70T259 122V567H268V0H259V72H258Q247 40 219 18T145 -4Q93 -4 63 26T33 122V567H42V122Z" />
<glyph unicode="&#xfb;" glyph-name="ucircumflex" horiz-adv-x="304" d="M329 595V604L404 678H410L483 604V595L407 669L329 595ZM42 122Q42 62 69 33T145 4Q166 4 186 11T223 33T249 70T259 122V567H268V0H259V72H258Q247 40 219 18T145 -4Q93 -4 63 26T33
122V567H42V122Z" />
<glyph unicode="&#xfc;" glyph-name="udieresis" horiz-adv-x="304" d="M372 638H381V618H372V638ZM432 638H441V618H432V638ZM42 122Q42 62 69 33T145 4Q166 4 186 11T223 33T249 70T259 122V567H268V0H259V72H258Q247 40 219 18T145 -4Q93 -4 63 26T33 122V567H42V122Z" />
<glyph unicode="&#xfd;" glyph-name="yacute" horiz-adv-x="282" d="M275 567L125 -19Q120 -39 114 -52T100 -74T80 -86T48 -90H28V-82H48Q81 -82 94 -68T116 -18L136 59H131L7 567H16L138 70H139L266 567H275ZM476 660L337 593V601L476 669V660Z" />
<glyph unicode="&#xfe;" glyph-name="thorn" horiz-adv-x="312" d="M36 678H45V493H46Q57 525 86 548T163 571Q218 571 248 540T279 443V124Q279 58 248 27T161 -4Q113 -4 85 17T46 70H45V-90H36V678ZM270 443Q270 503 243 533T163 563Q140 563 120 556T83 534T56
499T45 449V114Q46 86 55 65T81 31T117 11T161 4Q213 4 241 34T270 124V443Z" />
<glyph unicode="&#xff;" glyph-name="ydieresis" horiz-adv-x="282" d="M275 567L125 -19Q120 -39 114 -52T100 -74T80 -86T48 -90H28V-82H48Q81 -82 94 -68T116 -18L136 59H131L7 567H16L138 70H139L266 567H275ZM362 638H371V618H362V638ZM422 638H431V618H422V638Z" />
<glyph unicode="&#x100;" glyph-name="Amacron" horiz-adv-x="327" d="M15 0L155 678H170L312 0H303L260 202H65L24 0H15ZM67 210H259L163 671H162L67 210ZM95 731H231V723H95V731Z" />
<glyph unicode="&#x101;" glyph-name="amacron" horiz-adv-x="296" d="M254 0V72H253Q242 40 214 18T140 -4Q88 -4 58 26T28 122V171Q28 203 36 224T58 260T94 286T141 309Q204 337 229 356T254 396V446Q254 500 234 531T159 563Q106 563 79 535T51 456V403H42V456Q42
511 72 541T159 571Q217 571 240 539T263 446V0H254ZM140 4Q161 4 181 11T218 33T244 70T254 122V371Q250 365 244 359T226 344T194 326T143 301Q117 289 98 278T65 253T44 220T37 171V122Q37 62 64 33T140 4ZM344 626H480V618H344V626Z" />
<glyph unicode="&#x102;" glyph-name="Abreve" horiz-adv-x="327" d="M15 0L155 678H170L312 0H303L260 202H65L24 0H15ZM67 210H259L163 671H162L67 210ZM237 776Q237 742 217 723T165 703Q133 703 112 722T90 776H98Q99 745 117 728T165 711Q193 711 210 728T229
776H237Z" />
<glyph unicode="&#x103;" glyph-name="abreve" horiz-adv-x="296" d="M254 0V72H253Q242 40 214 18T140 -4Q88 -4 58 26T28 122V171Q28 203 36 224T58 260T94 286T141 309Q204 337 229 356T254 396V446Q254 500 234 531T159 563Q106 563 79 535T51 456V403H42V456Q42
511 72 541T159 571Q217 571 240 539T263 446V0H254ZM140 4Q161 4 181 11T218 33T244 70T254 122V371Q250 365 244 359T226 344T194 326T143 301Q117 289 98 278T65 253T44 220T37 171V122Q37 62 64 33T140 4ZM486 671Q486 637 466 618T414 598Q382 598 361 617T339
671H347Q348 640 366 623T414 606Q442 606 459 623T478 671H486Z" />
<glyph unicode="&#x104;" glyph-name="Aogonek" horiz-adv-x="327" d="M260 202H65L24 0H15L155 678H170L312 0Q298 -11 285 -24T272 -55Q272 -65 280 -73T311 -82H320V-90H311Q285 -90 274 -80T263 -55Q263 -35 277 -21T303 2L260 202ZM67 210H259L163 671H162L67 210Z" />
<glyph unicode="&#x105;" glyph-name="aogonek" horiz-adv-x="296" d="M254 72H253Q242 40 214 18T140 -4Q88 -4 58 26T28 122V171Q28 203 36 224T58 260T94 286T141 309Q204 337 229 356T254 396V446Q254 500 234 531T159 563Q106 563 79 535T51 456V403H42V456Q42
511 72 541T159 571Q217 571 240 539T263 446V0Q249 -11 236 -24T223 -55Q223 -65 231 -73T262 -82H271V-90H262Q236 -90 225 -80T214 -55Q214 -35 228 -21T254 2V72ZM140 4Q161 4 181 11T218 33T244 70T254 122V371Q250 365 244 359T226 344T194 326T143 301Q117
289 98 278T65 253T44 220T37 171V122Q37 62 64 33T140 4Z" />
<glyph unicode="&#x106;" glyph-name="Cacute" horiz-adv-x="327" d="M504 765L365 698V706L504 774V765ZM169 -4Q132 -4 106 9T64 43T41 93T33 153V525Q33 556 40 584T64 635T106 669T169 682Q208 682 232 672T271 643T291 598T297 538V457H288V538Q288 569 283
594T265 637T228 664T169 674Q134 674 110 662T71 630T49 582T42 525V153Q42 123 49 96T71 49T110 16T169 4Q205 4 228 14T264 43T283 87T288 141V257H297V141Q297 110 292 84T272 38T233 7T169 -4Z" />
<glyph unicode="&#x107;" glyph-name="cacute" horiz-adv-x="302" d="M493 660L354 593V601L493 669V660ZM274 173V126Q274 -4 158 -4Q98 -4 66 31T33 132V437Q33 503 66 537T157 571Q215 571 244 540T274 443V403H265V443Q265 563 157 563Q102 563 72 530T42
437V132Q42 72 71 38T158 4Q265 4 265 126V173H274Z" />
<glyph unicode="&#x108;" glyph-name="Ccircumflex" horiz-adv-x="327" d="M347 700V709L422 783H428L501 709V700L425 774L347 700ZM169 -4Q132 -4 106 9T64 43T41 93T33 153V525Q33 556 40 584T64 635T106 669T169 682Q208 682 232 672T271 643T291 598T297
538V457H288V538Q288 569 283 594T265 637T228 664T169 674Q134 674 110 662T71 630T49 582T42 525V153Q42 123 49 96T71 49T110 16T169 4Q205 4 228 14T264 43T283 87T288 141V257H297V141Q297 110 292 84T272 38T233 7T169 -4Z" />
<glyph unicode="&#x109;" glyph-name="ccircumflex" horiz-adv-x="302" d="M336 595V604L411 678H417L490 604V595L414 669L336 595ZM274 173V126Q274 -4 158 -4Q98 -4 66 31T33 132V437Q33 503 66 537T157 571Q215 571 244 540T274 443V403H265V443Q265 563 157
563Q102 563 72 530T42 437V132Q42 72 71 38T158 4Q265 4 265 126V173H274Z" />
<glyph unicode="&#x10a;" glyph-name="Cdotaccent" horiz-adv-x="327" d="M169 -4Q132 -4 106 9T64 43T41 93T33 153V525Q33 556 40 584T64 635T106 669T169 682Q208 682 232 672T271 643T291 598T297 538V457H288V538Q288 569 283 594T265 637T228 664T169 674Q134
674 110 662T71 630T49 582T42 525V153Q42 123 49 96T71 49T110 16T169 4Q205 4 228 14T264 43T283 87T288 141V257H297V141Q297 110 292 84T272 38T233 7T169 -4ZM420 743H429V723H420V743Z" />
<glyph unicode="&#x10b;" glyph-name="cdotaccent" horiz-adv-x="302" d="M274 173V126Q274 -4 158 -4Q98 -4 66 31T33 132V437Q33 503 66 537T157 571Q215 571 244 540T274 443V403H265V443Q265 563 157 563Q102 563 72 530T42 437V132Q42 72 71 38T158 4Q265
4 265 126V173H274ZM409 678H418V658H409V678Z" />
<glyph unicode="&#x10c;" glyph-name="Ccaron" horiz-adv-x="327" d="M501 786V777L426 703H420L347 777V786L423 712L501 786ZM169 -4Q132 -4 106 9T64 43T41 93T33 153V525Q33 556 40 584T64 635T106 669T169 682Q208 682 232 672T271 643T291 598T297 538V457H288V538Q288
569 283 594T265 637T228 664T169 674Q134 674 110 662T71 630T49 582T42 525V153Q42 123 49 96T71 49T110 16T169 4Q205 4 228 14T264 43T283 87T288 141V257H297V141Q297 110 292 84T272 38T233 7T169 -4Z" />
<glyph unicode="&#x10d;" glyph-name="ccaron" horiz-adv-x="302" d="M490 681V672L415 598H409L336 672V681L412 607L490 681ZM274 173V126Q274 -4 158 -4Q98 -4 66 31T33 132V437Q33 503 66 537T157 571Q215 571 244 540T274 443V403H265V443Q265 563 157 563Q102
563 72 530T42 437V132Q42 72 71 38T158 4Q265 4 265 126V173H274Z" />
<glyph unicode="&#x10e;" glyph-name="Dcaron" horiz-adv-x="332" d="M484 786V777L409 703H403L330 777V786L406 712L484 786ZM45 8H149Q187 8 214 20T258 52T282 100T290 157V521Q290 551 283 578T258 625T214 658T149 670H45V8ZM149 678Q189 678 217 666T264
631T290 581T299 521V157Q299 126 291 98T264 48T218 13T149 0H36V678H149Z" />
<glyph unicode="&#x10f;" glyph-name="dcaron" horiz-adv-x="312" d="M314 677L309 587H301L305 678H314V677ZM278 0H269V74H268Q257 42 230 19T154 -4Q99 -4 67 27T35 124V443Q35 509 68 540T156 571Q204 571 230 549T268 495H269V678H278V0ZM44 124Q44 64 73
34T154 4Q176 4 196 11T232 33T258 68T269 118V445Q269 475 260 497T236 533T200 555T156 563Q104 563 74 533T44 443V124Z" />
<glyph unicode="&#x110;" glyph-name="Dcroat" horiz-adv-x="344" d="M15 349H48V678H161Q201 678 229 666T276 631T302 581T311 521V157Q311 126 303 98T276 48T230 13T161 0H48V341H15V349ZM57 349H200V341H57V8H161Q199 8 226 20T270 52T294 100T302 157V521Q302
551 295 578T270 625T226 658T161 670H57V349Z" />
<glyph unicode="&#x111;" glyph-name="dcroat" horiz-adv-x="312" d="M278 626H315V618H278V0H269V74H268Q257 42 230 19T154 -4Q99 -4 67 27T35 124V443Q35 509 68 540T156 571Q204 571 230 549T268 495H269V618H154V626H269V678H278V626ZM44 124Q44 64 73 34T154
4Q177 4 198 11T234 34T259 71T269 124V451Q267 507 234 535T156 563Q104 563 74 533T44 443V124Z" />
<glyph unicode="&#x112;" glyph-name="Emacron" horiz-adv-x="294" d="M36 678H266V670H45V349H206V341H45V8H266V0H36V678ZM346 731H482V723H346V731Z" />
<glyph unicode="&#x113;" glyph-name="emacron" horiz-adv-x="314" d="M281 173V126Q281 60 250 28T160 -4Q100 -4 67 31T33 132V437Q33 503 66 537T157 571Q215 571 248 537T281 437V300H42V132Q42 72 72 38T160 4Q272 4 272 126V173H281ZM42 308H272V437Q272
497 242 530T157 563Q102 563 72 530T42 437V308ZM90 626H226V618H90V626Z" />
<glyph unicode="&#x114;" glyph-name="Ebreve" horiz-adv-x="294" d="M36 678H266V670H45V349H206V341H45V8H266V0H36V678ZM488 776Q488 742 468 723T416 703Q384 703 363 722T341 776H349Q350 745 368 728T416 711Q444 711 461 728T480 776H488Z" />
<glyph unicode="&#x115;" glyph-name="ebreve" horiz-adv-x="314" d="M281 173V126Q281 60 250 28T160 -4Q100 -4 67 31T33 132V437Q33 503 66 537T157 571Q215 571 248 537T281 437V300H42V132Q42 72 72 38T160 4Q272 4 272 126V173H281ZM42 308H272V437Q272
497 242 530T157 563Q102 563 72 530T42 437V308ZM232 671Q232 637 212 618T160 598Q128 598 107 617T85 671H93Q94 640 112 623T160 606Q188 606 205 623T224 671H232Z" />
<glyph unicode="&#x116;" glyph-name="Edotaccent" horiz-adv-x="294" d="M36 678H266V670H45V349H206V341H45V8H266V0H36V678ZM410 743H419V723H410V743Z" />
<glyph unicode="&#x117;" glyph-name="edotaccent" horiz-adv-x="314" d="M281 173V126Q281 60 250 28T160 -4Q100 -4 67 31T33 132V437Q33 503 66 537T157 571Q215 571 248 537T281 437V300H42V132Q42 72 72 38T160 4Q272 4 272 126V173H281ZM42 308H272V437Q272
497 242 530T157 563Q102 563 72 530T42 437V308ZM154 678H163V658H154V678Z" />
<glyph unicode="&#x118;" glyph-name="Eogonek" horiz-adv-x="294" d="M36 678H266V670H45V349H206V341H45V8H266V0H228Q213 -11 200 -24T187 -55Q187 -65 195 -73T226 -82H235V-90H226Q200 -90 189 -80T178 -55Q178 -35 192 -22T217 0H36V678Z" />
<glyph unicode="&#x119;" glyph-name="eogonek" horiz-adv-x="314" d="M157 -55Q157 -35 170 -22T195 0Q178 -4 160 -4Q100 -4 67 31T33 132V437Q33 503 66 537T157 571Q215 571 248 537T281 437V300H42V132Q42 72 72 38T160 4Q272 4 272 126V173H281V126Q281
81 267 53T227 11Q218 6 208 -1T188 -16T173 -35T166 -55Q166 -65 174 -73T205 -82H214V-90H205Q179 -90 168 -80T157 -55ZM42 308H272V437Q272 497 242 530T157 563Q102 563 72 530T42 437V308Z" />
<glyph unicode="&#x11a;" glyph-name="Ecaron" horiz-adv-x="294" d="M491 786V777L416 703H410L337 777V786L413 712L491 786ZM36 678H266V670H45V349H206V341H45V8H266V0H36V678Z" />
<glyph unicode="&#x11b;" glyph-name="ecaron" horiz-adv-x="314" d="M281 173V126Q281 60 250 28T160 -4Q100 -4 67 31T33 132V437Q33 503 66 537T157 571Q215 571 248 537T281 437V300H42V132Q42 72 72 38T160 4Q272 4 272 126V173H281ZM42 308H272V437Q272
497 242 530T157 563Q102 563 72 530T42 437V308ZM235 681V672L160 598H154L81 672V681L157 607L235 681Z" />
<glyph unicode="&#x11c;" glyph-name="Gcircumflex" horiz-adv-x="333" d="M346 700V709L421 783H427L500 709V700L424 774L346 700ZM180 324H297V0H288V77Q280 40 252 18T169 -4Q132 -4 106 9T64 43T41 93T33 153V525Q33 556 40 584T64 635T106 669T169 682Q208
682 232 672T271 643T291 598T297 538V477H288V538Q288 569 283 594T265 637T228 664T169 674Q134 674 110 662T71 630T49 582T42 525V153Q42 123 49 96T71 49T110 16T169 4Q203 4 225 13T261 39T281 79T288 129V316H180V324Z" />
<glyph unicode="&#x11d;" glyph-name="gcircumflex" horiz-adv-x="312" d="M338 595V604L413 678H419L492 604V595L416 669L338 595ZM276 567V22Q276 -32 248 -63T159 -94Q100 -94 69 -65T38 16V47H47V16Q47 -32 75 -59T159 -86Q216 -86 241 -56T267 22V162H266Q255
130 228 107T152 84Q97 84 65 115T33 212V443Q33 509 66 540T154 571Q202 571 228 549T266 495H267V567H276ZM42 212Q42 152 71 122T152 92Q174 92 194 99T230 121T256 156T267 206V445Q267 475 258 497T234 533T198 555T154 563Q102 563 72 533T42 443V212Z" />
<glyph unicode="&#x11e;" glyph-name="Gbreve" horiz-adv-x="333" d="M180 324H297V0H288V77Q280 40 252 18T169 -4Q132 -4 106 9T64 43T41 93T33 153V525Q33 556 40 584T64 635T106 669T169 682Q208 682 232 672T271 643T291 598T297 538V477H288V538Q288 569
283 594T265 637T228 664T169 674Q134 674 110 662T71 630T49 582T42 525V153Q42 123 49 96T71 49T110 16T169 4Q203 4 225 13T261 39T281 79T288 129V316H180V324ZM497 776Q497 742 477 723T425 703Q393 703 372 722T350 776H358Q359 745 377 728T425 711Q453
711 470 728T489 776H497Z" />
<glyph unicode="&#x11f;" glyph-name="gbreve" horiz-adv-x="312" d="M276 567V22Q276 -32 248 -63T159 -94Q100 -94 69 -65T38 16V47H47V16Q47 -32 75 -59T159 -86Q216 -86 241 -56T267 22V162H266Q255 130 228 107T152 84Q97 84 65 115T33 212V443Q33 509 66
540T154 571Q202 571 228 549T266 495H267V567H276ZM42 212Q42 152 71 122T152 92Q174 92 194 99T230 121T256 156T267 206V445Q267 475 258 497T234 533T198 555T154 563Q102 563 72 533T42 443V212ZM489 671Q489 637 469 618T417 598Q385 598 364 617T342 671H350Q351
640 369 623T417 606Q445 606 462 623T481 671H489Z" />
<glyph unicode="&#x120;" glyph-name="Gdotaccent" horiz-adv-x="333" d="M180 324H297V0H288V77Q280 40 252 18T169 -4Q132 -4 106 9T64 43T41 93T33 153V525Q33 556 40 584T64 635T106 669T169 682Q208 682 232 672T271 643T291 598T297 538V477H288V538Q288
569 283 594T265 637T228 664T169 674Q134 674 110 662T71 630T49 582T42 525V153Q42 123 49 96T71 49T110 16T169 4Q203 4 225 13T261 39T281 79T288 129V316H180V324ZM419 743H428V723H419V743Z" />
<glyph unicode="&#x121;" glyph-name="gdotaccent" horiz-adv-x="312" d="M276 567V22Q276 -32 248 -63T159 -94Q100 -94 69 -65T38 16V47H47V16Q47 -32 75 -59T159 -86Q216 -86 241 -56T267 22V162H266Q255 130 228 107T152 84Q97 84 65 115T33 212V443Q33 509
66 540T154 571Q202 571 228 549T266 495H267V567H276ZM42 212Q42 152 71 122T152 92Q174 92 194 99T230 121T256 156T267 206V445Q267 475 258 497T234 533T198 555T154 563Q102 563 72 533T42 443V212ZM411 678H420V658H411V678Z" />
<glyph unicode="&#x122;" glyph-name="Gcommaaccent" horiz-adv-x="333" d="M429 -22L415 -90H407L420 -21H429V-22ZM180 324H297V0H288V77Q280 40 252 18T169 -4Q132 -4 106 9T64 43T41 93T33 153V525Q33 556 40 584T64 635T106 669T169 682Q208 682 232 672T271
643T291 598T297 538V477H288V538Q288 569 283 594T265 637T228 664T169 674Q134 674 110 662T71 630T49 582T42 525V153Q42 123 49 96T71 49T110 16T169 4Q203 4 225 13T261 39T281 79T288 129V316H180V324Z" />
<glyph unicode="&#x123;" glyph-name="gcommaaccent" horiz-adv-x="312" d="M410 610L424 678H432L419 609H410V610ZM276 567V22Q276 -32 248 -63T159 -94Q100 -94 69 -65T38 16V47H47V16Q47 -32 75 -59T159 -86Q216 -86 241 -56T267 22V162H266Q255 130 228 107T152
84Q97 84 65 115T33 212V443Q33 509 66 540T154 571Q202 571 228 549T266 495H267V567H276ZM42 212Q42 152 71 122T152 92Q174 92 194 99T230 121T256 156T267 206V445Q267 475 258 497T234 533T198 555T154 563Q102 563 72 533T42 443V212Z" />
<glyph unicode="&#x124;" glyph-name="Hcircumflex" horiz-adv-x="326" d="M342 700V709L417 783H423L496 709V700L420 774L342 700ZM281 341H45V0H36V678H45V349H281V678H290V0H281V341Z" />
<glyph unicode="&#x125;" glyph-name="hcircumflex" horiz-adv-x="304" d="M330 700V709L405 783H411L484 709V700L408 774L330 700ZM262 445Q262 505 235 534T159 563Q138 563 118 556T82 535T56 500T45 451V0H36V678H45V495H46Q57 527 85 549T159 571Q211 571
241 541T271 445V0H262V445Z" />
<glyph unicode="&#x126;" glyph-name="Hbar" horiz-adv-x="326" d="M1 491H36V678H45V491H281V678H290V491H326V483H290V0H281V341H45V0H36V483H1V491ZM45 349H281V483H45V349Z" />
<glyph unicode="&#x127;" glyph-name="hbar" horiz-adv-x="304" d="M36 618H-1V626H36V678H45V626H160V618H45V495H46Q57 527 85 549T159 571Q211 571 241 541T271 445V0H262V445Q262 505 235 534T159 563Q138 563 118 556T82 535T56 500T45 451V0H36V618Z" />
<glyph unicode="&#x128;" glyph-name="Itilde" horiz-adv-x="81" d="M36 678H45V0H36V678ZM3 771Q14 771 23 766T42 755T59 744T78 739Q95 739 102 750T111 776H119Q118 757 108 744T78 731Q67 731 58 736T39 747T22 758T3 763Q-14 763 -21 752T-30 726H-38Q-37
745 -27 758T3 771Z" />
<glyph unicode="&#x129;" glyph-name="itilde" horiz-adv-x="81" d="M36 567H45V0H36V567ZM6 660Q15 660 24 655T42 644T59 633T75 628Q86 628 90 638T96 665H104Q103 644 96 632T75 620Q66 620 57 625T39 636T22 647T6 652Q-5 652 -9 642T-15 615H-23Q-22 636
-15 648T6 660Z" />
<glyph unicode="&#x12a;" glyph-name="Imacron" horiz-adv-x="81" d="M36 678H45V0H36V678ZM-8 731H88V723H-8V731Z" />
<glyph unicode="&#x12b;" glyph-name="imacron" horiz-adv-x="81" d="M-2 626H84V618H-2V626ZM36 567H45V0H36V567Z" />
<glyph unicode="&#x12c;" glyph-name="Ibreve" horiz-adv-x="81" d="M36 678H45V0H36V678ZM114 782Q114 748 94 729T42 709Q10 709 -11 728T-33 782H-25Q-24 751 -6 734T42 717Q70 717 87 734T106 782H114Z" />
<glyph unicode="&#x12d;" glyph-name="ibreve" horiz-adv-x="81" d="M36 567H45V0H36V567ZM94 671Q94 634 80 616T42 598Q19 598 3 616T-13 671H-5Q-4 637 8 622T42 606Q85 606 86 671H94Z" />
<glyph unicode="&#x12e;" glyph-name="Iogonek" horiz-adv-x="81" d="M36 678H45V0Q31 -11 18 -24T5 -55Q5 -65 13 -73T44 -82H53V-90H44Q18 -90 7 -80T-4 -55Q-4 -35 10 -21T36 2V678Z" />
<glyph unicode="&#x12f;" glyph-name="iogonek" horiz-adv-x="81" d="M36 567H45V0Q30 -11 17 -24T4 -55Q4 -65 12 -73T43 -82H52V-90H43Q17 -90 6 -80T-5 -55Q-5 -35 10 -21T36 2V567ZM36 678H45V658H36V678Z" />
<glyph unicode="&#x130;" glyph-name="Idotaccent" horiz-adv-x="81" d="M36 678H45V0H36V678ZM36 743H45V723H36V743Z" />
<glyph unicode="&#x131;" glyph-name="dotlessi" horiz-adv-x="81" d="M36 567H45V0H36V567Z" />
<glyph unicode="&#x132;" glyph-name="IJ" horiz-adv-x="358" d="M36 678H45V0H36V678ZM325 678V118Q325 61 298 29T214 -4Q157 -4 130 28T103 118V257H112V118Q112 67 136 36T214 4Q268 4 292 35T316 118V678H325Z" />
<glyph unicode="&#x133;" glyph-name="ij" horiz-adv-x="81" d="M36 567H45V0H36V567ZM36 678H45V658H36V678ZM120 567V-37Q120 -63 108 -76T68 -90H62V-82H68Q91 -82 101 -71T111 -37V567H120ZM111 678H120V658H111V678Z" />
<glyph unicode="&#x134;" glyph-name="Jcircumflex" horiz-adv-x="280" d="M166 700V709L241 783H247L320 709V700L244 774L166 700ZM247 678V118Q247 61 220 29T136 -4Q79 -4 52 28T25 118V257H34V118Q34 67 58 36T136 4Q190 4 214 35T238 118V678H247Z" />
<glyph unicode="&#x135;" glyph-name="jcircumflex" horiz-adv-x="81" d="M-12 595V607L38 678H44L92 607V595L41 668L-12 595ZM45 567V-37Q45 -63 33 -76T-7 -90H-13V-82H-7Q16 -82 26 -71T36 -37V567H45Z" />
<glyph unicode="&#x136;" glyph-name="Kcommaaccent" horiz-adv-x="296" d="M420 -22L406 -90H398L411 -21H420V-22ZM45 341V0H36V678H45V347L275 678H285L53 344L287 0H277L45 341Z" />
<glyph unicode="&#x137;" glyph-name="kcommaaccent" horiz-adv-x="260" d="M399 -22L385 -90H377L390 -21H399V-22ZM240 0L45 288V0H36V678H45V291L234 567H244L54 290L250 0H240Z" />
<glyph unicode="&#x139;" glyph-name="Lacute" horiz-adv-x="258" d="M122 765L-17 698V706L122 774V765ZM36 678H45V8H243V0H36V678Z" />
<glyph unicode="&#x13a;" glyph-name="lacute" horiz-adv-x="81" d="M92 764L4 698V707L92 774V764ZM36 678H45V0H36V678Z" />
<glyph unicode="&#x13b;" glyph-name="Lcommaaccent" horiz-adv-x="258" d="M395 -22L381 -90H373L386 -21H395V-22ZM36 678H45V8H243V0H36V678Z" />
<glyph unicode="&#x13c;" glyph-name="lcommaaccent" horiz-adv-x="81" d="M46 -22L32 -90H24L37 -21H46V-22ZM36 678H45V0H36V678Z" />
<glyph unicode="&#x13d;" glyph-name="Lcaron" horiz-adv-x="258" d="M36 678H45V8H243V0H36V678ZM141 677L136 587H128L132 678H141V677Z" />
<glyph unicode="&#x13e;" glyph-name="lcaron" horiz-adv-x="81" d="M81 677L76 587H68L72 678H81V677ZM36 678H45V0H36V678Z" />
<glyph unicode="&#x13f;" glyph-name="Ldot" horiz-adv-x="258" d="M36 678H45V8H243V0H36V678ZM166 601H175V579H166V601Z" />
<glyph unicode="&#x140;" glyph-name="ldot" horiz-adv-x="102" d="M36 678H45V0H36V678ZM84 352H93V330H84V352Z" />
<glyph unicode="&#x141;" glyph-name="Lslash" horiz-adv-x="276" d="M54 282L16 264V273L54 291V678H63V296L202 364V355L63 287V8H261V0H54V282Z" />
<glyph unicode="&#x142;" glyph-name="lslash" horiz-adv-x="89" d="M40 376L5 343V353L40 386V678H49V395L87 432V422L49 385V0H40V376Z" />
<glyph unicode="&#x143;" glyph-name="Nacute" horiz-adv-x="321" d="M506 765L367 698V706L506 774V765ZM45 667V0H36V678H51L276 19V678H285V0H273L45 667Z" />
<glyph unicode="&#x144;" glyph-name="nacute" horiz-adv-x="304" d="M493 660L354 593V601L493 669V660ZM262 445Q262 505 235 534T159 563Q138 563 118 556T82 535T56 500T45 451V0H36V567H45V495H46Q57 527 85 549T159 571Q211 571 241 541T271 445V0H262V445Z" />
<glyph unicode="&#x145;" glyph-name="Ncommaaccent" horiz-adv-x="321" d="M414 -22L400 -90H392L405 -21H414V-22ZM45 667V0H36V678H51L276 19V678H285V0H273L45 667Z" />
<glyph unicode="&#x146;" glyph-name="ncommaaccent" horiz-adv-x="304" d="M417 -22L403 -90H395L408 -21H417V-22ZM262 445Q262 505 235 534T159 563Q138 563 118 556T82 535T56 500T45 451V0H36V567H45V495H46Q57 527 85 549T159 571Q211 571 241 541T271 445V0H262V445Z"
/>
<glyph unicode="&#x147;" glyph-name="Ncaron" horiz-adv-x="321" d="M503 786V777L428 703H422L349 777V786L425 712L503 786ZM45 667V0H36V678H51L276 19V678H285V0H273L45 667Z" />
<glyph unicode="&#x148;" glyph-name="ncaron" horiz-adv-x="304" d="M490 681V672L415 598H409L336 672V681L412 607L490 681ZM262 445Q262 505 235 534T159 563Q138 563 118 556T82 535T56 500T45 451V0H36V567H45V495H46Q57 527 85 549T159 571Q211 571 241
541T271 445V0H262V445Z" />
<glyph unicode="&#x14a;" glyph-name="Eng" horiz-adv-x="321" d="M221 -82Q252 -82 264 -70T276 -32V0L45 666V0H36V678H51L276 28V678H285V-32Q285 -61 271 -75T221 -90H205V-82H221Z" />
<glyph unicode="&#x14b;" glyph-name="eng" horiz-adv-x="304" d="M36 567H45V495H46Q57 527 85 549T159 571Q211 571 241 541T271 445V-32Q271 -61 257 -75T207 -90H201V-82H207Q238 -82 250 -70T262 -32V445Q262 505 235 534T159 563Q138 563 118 556T81 534T55
497T45 445V0H36V567Z" />
<glyph unicode="&#x14c;" glyph-name="Omacron" horiz-adv-x="346" d="M361 731H497V723H361V731ZM173 4Q207 4 232 16T273 48T296 96T304 153V525Q304 555 297 582T273 629T232 662T173 674Q138 674 114 662T73 630T50 582T42 525V153Q42 123 49 96T73 49T113
16T173 4ZM173 -4Q136 -4 110 9T66 43T41 93T33 153V525Q33 556 41 584T66 635T109 669T173 682Q210 682 236 670T280 635T305 585T313 525V153Q313 122 305 94T280 44T237 9T173 -4Z" />
<glyph unicode="&#x14d;" glyph-name="omacron" horiz-adv-x="314" d="M345 626H481V618H345V626ZM281 132Q281 66 248 31T157 -4Q99 -4 66 31T33 132V435Q33 501 66 536T157 571Q215 571 248 536T281 435V132ZM157 4Q212 4 242 38T272 132V435Q272 495 242 529T157
563Q102 563 72 529T42 435V132Q42 72 72 38T157 4Z" />
<glyph unicode="&#x14e;" glyph-name="Obreve" horiz-adv-x="346" d="M173 4Q207 4 232 16T273 48T296 96T304 153V525Q304 555 297 582T273 629T232 662T173 674Q138 674 114 662T73 630T50 582T42 525V153Q42 123 49 96T73 49T113 16T173 4ZM173 -4Q136 -4 110
9T66 43T41 93T33 153V525Q33 556 41 584T66 635T109 669T173 682Q210 682 236 670T280 635T305 585T313 525V153Q313 122 305 94T280 44T237 9T173 -4ZM503 782Q503 748 483 729T431 709Q399 709 378 728T356 782H364Q365 751 383 734T431 717Q459 717 476 734T495
782H503Z" />
<glyph unicode="&#x14f;" glyph-name="obreve" horiz-adv-x="314" d="M281 132Q281 66 248 31T157 -4Q99 -4 66 31T33 132V435Q33 501 66 536T157 571Q215 571 248 536T281 435V132ZM157 4Q212 4 242 38T272 132V435Q272 495 242 529T157 563Q102 563 72 529T42
435V132Q42 72 72 38T157 4ZM487 671Q487 637 467 618T415 598Q383 598 362 617T340 671H348Q349 640 367 623T415 606Q443 606 460 623T479 671H487Z" />
<glyph unicode="&#x150;" glyph-name="Ohungarumlaut" horiz-adv-x="346" d="M447 783L401 700H392L437 783H447ZM507 783L461 700H452L497 783H507ZM173 4Q207 4 232 16T273 48T296 96T304 153V525Q304 555 297 582T273 629T232 662T173 674Q138 674 114 662T73
630T50 582T42 525V153Q42 123 49 96T73 49T113 16T173 4ZM173 -4Q136 -4 110 9T66 43T41 93T33 153V525Q33 556 41 584T66 635T109 669T173 682Q210 682 236 670T280 635T305 585T313 525V153Q313 122 305 94T280 44T237 9T173 -4Z" />
<glyph unicode="&#x151;" glyph-name="ohungarumlaut" horiz-adv-x="314" d="M431 678L385 595H376L421 678H431ZM491 678L445 595H436L481 678H491ZM281 132Q281 66 248 31T157 -4Q99 -4 66 31T33 132V435Q33 501 66 536T157 571Q215 571 248 536T281 435V132ZM157
4Q212 4 242 38T272 132V435Q272 495 242 529T157 563Q102 563 72 529T42 435V132Q42 72 72 38T157 4Z" />
<glyph unicode="&#x152;" glyph-name="OE" horiz-adv-x="562" d="M173 -4Q136 -4 110 9T66 43T41 93T33 153V525Q33 556 41 584T66 635T109 669T173 682Q230 682 261 654T304 583V678H534V670H313V349H474V341H313V8H534V0H304V95Q293 52 262 24T173 -4ZM173 4Q207
4 232 16T273 48T296 96T304 153V525Q304 555 297 582T273 629T232 662T173 674Q138 674 114 662T73 630T50 582T42 525V153Q42 123 49 96T73 49T113 16T173 4Z" />
<glyph unicode="&#x153;" glyph-name="oe" horiz-adv-x="553" d="M520 173V126Q520 60 489 28T399 -4Q348 -4 316 21T276 98Q268 47 238 22T157 -4Q99 -4 66 31T33 132V435Q33 501 66 536T157 571Q207 571 237 545T276 470Q284 520 314 545T396 571Q454 571 487
537T520 437V300H281V132Q281 72 311 38T399 4Q511 4 511 126V173H520ZM157 4Q212 4 242 38T272 132V435Q272 495 242 529T157 563Q102 563 72 529T42 435V132Q42 72 72 38T157 4ZM281 308H511V437Q511 497 481 530T396 563Q341 563 311 530T281 437V308Z" />
<glyph unicode="&#x154;" glyph-name="Racute" horiz-adv-x="296" d="M477 765L338 698V706L477 774V765ZM45 343V0H36V678H144Q204 678 234 650T265 569V450Q265 397 235 369T144 341H56L287 0H277L45 343ZM45 670V349H144Q200 349 228 375T256 450V569Q256 618
228 644T144 670H45Z" />
<glyph unicode="&#x155;" glyph-name="racute" horiz-adv-x="177" d="M434 660L295 593V601L434 669V660ZM155 561H154Q134 561 115 554T81 533T56 498T45 450V0H36V567H45V495H46Q57 526 84 547T155 569V561Z" />
<glyph unicode="&#x156;" glyph-name="Rcommaaccent" horiz-adv-x="296" d="M413 -22L399 -90H391L404 -21H413V-22ZM45 343V0H36V678H144Q204 678 234 650T265 569V450Q265 397 235 369T144 341H56L287 0H277L45 343ZM45 670V349H144Q200 349 228 375T256 450V569Q256
618 228 644T144 670H45Z" />
<glyph unicode="&#x157;" glyph-name="rcommaaccent" horiz-adv-x="177" d="M45 -22L31 -90H23L36 -21H45V-22ZM155 561H154Q134 561 115 554T81 533T56 498T45 450V0H36V567H45V495H46Q57 526 84 547T155 569V561Z" />
<glyph unicode="&#x158;" glyph-name="Rcaron" horiz-adv-x="296" d="M477 786V777L402 703H396L323 777V786L399 712L477 786ZM45 343V0H36V678H144Q204 678 234 650T265 569V450Q265 397 235 369T144 341H56L287 0H277L45 343ZM45 670V349H144Q200 349 228 375T256
450V569Q256 618 228 644T144 670H45Z" />
<glyph unicode="&#x159;" glyph-name="rcaron" horiz-adv-x="177" d="M426 681V672L351 598H345L272 672V681L348 607L426 681ZM155 561H154Q134 561 115 554T81 533T56 498T45 450V0H36V567H45V495H46Q57 526 84 547T155 569V561Z" />
<glyph unicode="&#x15a;" glyph-name="Sacute" d="M492 765L353 698V706L492 774V765ZM160 -4Q96 -4 62 30T28 121V237H37V121Q37 67 68 36T160 4Q189 4 211 13T247 38T269 75T276 120V161Q276 184 272 203T257 241T230 277T191 318L124 383Q101 405 84 424T55
461T38 498T32 541V569Q32 624 66 653T152 682Q212 682 243 655T274 567V477H265V567Q265 623 236 648T152 674Q103 674 72 647T41 569V541Q41 518 46 500T63 464T91 429T129 390L196 325Q218 303 234 285T262 247T279 208T285 161V120Q285 95 278 73T254 33T215
6T160 -4Z" />
<glyph unicode="&#x15b;" glyph-name="sacute" horiz-adv-x="296" d="M483 660L344 593V601L483 669V660ZM266 117Q266 59 238 28T145 -4Q85 -4 57 30T28 120V173H37V120Q37 69 62 37T145 4Q205 4 231 33T257 117V135Q257 171 242 200T184 263L112 319Q70 351
51 379T32 446V464Q32 512 59 541T141 571Q257 571 257 453V403H248V453Q248 563 141 563Q90 563 66 536T41 464V446Q41 429 45 414T57 385T80 357T116 327L188 271Q234 235 250 204T266 135V117Z" />
<glyph unicode="&#x15c;" glyph-name="Scircumflex" d="M335 700V709L410 783H416L489 709V700L413 774L335 700ZM160 -4Q96 -4 62 30T28 121V237H37V121Q37 67 68 36T160 4Q189 4 211 13T247 38T269 75T276 120V161Q276 184 272 203T257 241T230 277T191 318L124
383Q101 405 84 424T55 461T38 498T32 541V569Q32 624 66 653T152 682Q212 682 243 655T274 567V477H265V567Q265 623 236 648T152 674Q103 674 72 647T41 569V541Q41 518 46 500T63 464T91 429T129 390L196 325Q218 303 234 285T262 247T279 208T285 161V120Q285
95 278 73T254 33T215 6T160 -4Z" />
<glyph unicode="&#x15d;" glyph-name="scircumflex" horiz-adv-x="296" d="M326 595V604L401 678H407L480 604V595L404 669L326 595ZM266 117Q266 59 238 28T145 -4Q85 -4 57 30T28 120V173H37V120Q37 69 62 37T145 4Q205 4 231 33T257 117V135Q257 171 242 200T184
263L112 319Q70 351 51 379T32 446V464Q32 512 59 541T141 571Q257 571 257 453V403H248V453Q248 563 141 563Q90 563 66 536T41 464V446Q41 429 45 414T57 385T80 357T116 327L188 271Q234 235 250 204T266 135V117Z" />
<glyph unicode="&#x15e;" glyph-name="Scedilla" d="M148 -4V-25Q195 -25 195 -56Q195 -74 175 -82T119 -90V-82Q148 -82 167 -76T186 -56Q186 -33 149 -33H140V-3Q86 2 57 35T28 121V237H36V121Q36 67 68 36T160 4Q189 4 211 13T247 38T269 75T277 120V161Q277
184 272 203T257 241T230 277T191 318L124 383Q101 405 84 424T55 461T38 498T32 541V569Q32 624 66 653T152 682Q212 682 243 655T274 567V477H266V567Q266 623 237 648T152 674Q103 674 72 647T40 569V541Q40 518 46 500T63 464T91 429T129 390L196 325Q218 303
234 285T262 247T279 208T285 161V120Q285 95 278 73T254 33T215 6T160 -4H148Z" />
<glyph unicode="&#x15f;" glyph-name="scedilla" horiz-adv-x="296" d="M266 117Q266 59 238 28T145 -4H138V-25Q161 -25 174 -32T187 -56Q187 -74 167 -82T111 -90V-82Q140 -82 159 -76T178 -56Q178 -44 167 -39T139 -33H130V-3Q78 1 53 34T28 120V173H37V120Q37
69 62 37T145 4Q205 4 231 33T257 117V135Q257 171 242 200T184 263L112 319Q70 351 51 379T32 446V464Q32 512 59 541T141 571Q257 571 257 453V403H248V453Q248 563 141 563Q90 563 66 536T41 464V446Q41 429 45 414T57 385T80 357T116 327L188 271Q234 235 250
204T266 135V117Z" />
<glyph unicode="&#x160;" glyph-name="Scaron" d="M489 786V777L414 703H408L335 777V786L411 712L489 786ZM160 -4Q96 -4 62 30T28 121V237H37V121Q37 67 68 36T160 4Q189 4 211 13T247 38T269 75T276 120V161Q276 184 272 203T257 241T230 277T191 318L124 383Q101
405 84 424T55 461T38 498T32 541V569Q32 624 66 653T152 682Q212 682 243 655T274 567V477H265V567Q265 623 236 648T152 674Q103 674 72 647T41 569V541Q41 518 46 500T63 464T91 429T129 390L196 325Q218 303 234 285T262 247T279 208T285 161V120Q285 95 278
73T254 33T215 6T160 -4Z" />
<glyph unicode="&#x161;" glyph-name="scaron" horiz-adv-x="296" d="M480 681V672L405 598H399L326 672V681L402 607L480 681ZM266 117Q266 59 238 28T145 -4Q85 -4 57 30T28 120V173H37V120Q37 69 62 37T145 4Q205 4 231 33T257 117V135Q257 171 242 200T184
263L112 319Q70 351 51 379T32 446V464Q32 512 59 541T141 571Q257 571 257 453V403H248V453Q248 563 141 563Q90 563 66 536T41 464V446Q41 429 45 414T57 385T80 357T116 327L188 271Q234 235 250 204T266 135V117Z" />
<glyph unicode="&#x162;" glyph-name="Tcommaaccent" horiz-adv-x="293" d="M408 -22L394 -90H386L399 -21H408V-22ZM17 678H276V670H151V0H142V670H17V678Z" />
<glyph unicode="&#x163;" glyph-name="tcommaaccent" horiz-adv-x="187" d="M365 -22L351 -90H343L356 -21H365V-22ZM15 567H61V678H70V567H160V559H70V68Q70 35 84 22T131 8H160V0H131Q93 0 77 16T61 68V559H15V567Z" />
<glyph unicode="&#x164;" glyph-name="Tcaron" horiz-adv-x="293" d="M479 786V777L404 703H398L325 777V786L401 712L479 786ZM17 678H276V670H151V0H142V670H17V678Z" />
<glyph unicode="&#x165;" glyph-name="tcaron" horiz-adv-x="187" d="M389 677L384 587H376L380 678H389V677ZM15 567H61V678H70V567H160V559H70V68Q70 35 84 22T131 8H160V0H131Q93 0 77 16T61 68V559H15V567Z" />
<glyph unicode="&#x166;" glyph-name="Tbar" horiz-adv-x="293" d="M17 678H276V670H151V456H235V448H151V0H142V448H59V456H142V670H17V678Z" />
<glyph unicode="&#x167;" glyph-name="tbar" horiz-adv-x="187" d="M70 678V567H160V559H70V457H160V449H70V68Q70 35 84 22T131 8H160V0H131Q93 0 77 16T61 68V449H15V457H61V559H15V567H61V678H70Z" />
<glyph unicode="&#x168;" glyph-name="Utilde" horiz-adv-x="330" d="M296 678V145Q296 114 290 87T268 40T227 8T165 -4Q128 -4 103 7T63 39T41 87T34 145V678H43V145Q43 115 49 90T69 45T107 15T165 4Q199 4 222 15T260 45T281 89T287 145V678H296ZM384 771Q395
771 404 766T423 755T440 744T459 739Q476 739 483 750T492 776H500Q499 757 489 744T459 731Q448 731 439 736T420 747T403 758T384 763Q367 763 360 752T351 726H343Q344 745 354 758T384 771Z" />
<glyph unicode="&#x169;" glyph-name="utilde" horiz-adv-x="304" d="M42 122Q42 62 69 33T145 4Q166 4 186 11T223 33T249 70T259 122V567H268V0H259V72H258Q247 40 219 18T145 -4Q93 -4 63 26T33 122V567H42V122ZM371 660Q382 660 391 655T410 644T427 633T446
628Q463 628 470 639T479 665H487Q486 646 476 633T446 620Q435 620 426 625T407 636T390 647T371 652Q354 652 347 641T338 615H330Q331 634 341 647T371 660Z" />
<glyph unicode="&#x16a;" glyph-name="Umacron" horiz-adv-x="330" d="M296 678V145Q296 114 290 87T268 40T227 8T165 -4Q128 -4 103 7T63 39T41 87T34 145V678H43V145Q43 115 49 90T69 45T107 15T165 4Q199 4 222 15T260 45T281 89T287 145V678H296ZM353 731H489V723H353V731Z"
/>
<glyph unicode="&#x16b;" glyph-name="umacron" horiz-adv-x="304" d="M42 122Q42 62 69 33T145 4Q166 4 186 11T223 33T249 70T259 122V567H268V0H259V72H258Q247 40 219 18T145 -4Q93 -4 63 26T33 122V567H42V122ZM338 626H474V618H338V626Z" />
<glyph unicode="&#x16c;" glyph-name="Ubreve" horiz-adv-x="330" d="M296 678V145Q296 114 290 87T268 40T227 8T165 -4Q128 -4 103 7T63 39T41 87T34 145V678H43V145Q43 115 49 90T69 45T107 15T165 4Q199 4 222 15T260 45T281 89T287 145V678H296ZM495 776Q495
742 475 723T423 703Q391 703 370 722T348 776H356Q357 745 375 728T423 711Q451 711 468 728T487 776H495Z" />
<glyph unicode="&#x16d;" glyph-name="ubreve" horiz-adv-x="304" d="M42 122Q42 62 69 33T145 4Q166 4 186 11T223 33T249 70T259 122V567H268V0H259V72H258Q247 40 219 18T145 -4Q93 -4 63 26T33 122V567H42V122ZM480 671Q480 637 460 618T408 598Q376 598 355
617T333 671H341Q342 640 360 623T408 606Q436 606 453 623T472 671H480Z" />
<glyph unicode="&#x16e;" glyph-name="Uring" horiz-adv-x="330" d="M369 723Q369 745 383 760T420 776Q443 776 458 761T473 723Q473 701 458 686T420 671Q398 671 384 686T369 723ZM378 723Q378 704 390 692T420 679Q439 679 451 691T464 723Q464 742 452 755T420
768Q402 768 390 755T378 723ZM296 678V145Q296 114 290 87T268 40T227 8T165 -4Q128 -4 103 7T63 39T41 87T34 145V678H43V145Q43 115 49 90T69 45T107 15T165 4Q199 4 222 15T260 45T281 89T287 145V678H296Z" />
<glyph unicode="&#x16f;" glyph-name="uring" horiz-adv-x="304" d="M354 644Q354 666 368 681T405 697Q428 697 443 682T458 644Q458 622 443 607T405 592Q383 592 369 607T354 644ZM363 644Q363 625 375 613T405 600Q424 600 436 612T449 644Q449 663 437 676T405
689Q387 689 375 676T363 644ZM42 122Q42 62 69 33T145 4Q166 4 186 11T223 33T249 70T259 122V567H268V0H259V72H258Q247 40 219 18T145 -4Q93 -4 63 26T33 122V567H42V122Z" />
<glyph unicode="&#x170;" glyph-name="Uhungarumlaut" horiz-adv-x="330" d="M296 678V145Q296 114 290 87T268 40T227 8T165 -4Q128 -4 103 7T63 39T41 87T34 145V678H43V145Q43 115 49 90T69 45T107 15T165 4Q199 4 222 15T260 45T281 89T287 145V678H296ZM439
783L393 700H384L429 783H439ZM499 783L453 700H444L489 783H499Z" />
<glyph unicode="&#x171;" glyph-name="uhungarumlaut" horiz-adv-x="304" d="M42 122Q42 62 69 33T145 4Q166 4 186 11T223 33T249 70T259 122V567H268V0H259V72H258Q247 40 219 18T145 -4Q93 -4 63 26T33 122V567H42V122ZM424 678L378 595H369L414 678H424ZM484
678L438 595H429L474 678H484Z" />
<glyph unicode="&#x172;" glyph-name="Uogonek" horiz-adv-x="330" d="M296 678V145Q296 92 277 54T212 2Q202 -1 192 -6T173 -19T159 -36T153 -55Q153 -65 161 -73T192 -82H201V-90H192Q166 -90 155 -80T144 -55Q144 -37 157 -24T184 -3Q178 -4 173 -4H165Q128
-4 103 7T63 39T41 87T34 145V678H43V145Q43 115 49 90T69 45T107 15T165 4Q199 4 222 15T260 45T281 89T287 145V678H296Z" />
<glyph unicode="&#x173;" glyph-name="uogonek" horiz-adv-x="304" d="M42 122Q42 62 69 33T145 4Q166 4 186 11T223 33T249 70T259 122V567H268V0Q253 -11 240 -24T227 -55Q227 -65 235 -73T266 -82H275V-90H266Q240 -90 229 -80T218 -55Q218 -35 233 -21T259
1V72H258Q247 40 219 18T145 -4Q93 -4 63 26T33 122V567H42V122Z" />
<glyph unicode="&#x174;" glyph-name="Wcircumflex" horiz-adv-x="475" d="M160 706V715L235 789H241L314 715V706L238 780L160 706ZM237 646L131 0H116L18 678H27L123 11H124L233 678H242L353 11H354L448 678H457L361 0H346L238 646H237Z" />
<glyph unicode="&#x175;" glyph-name="wcircumflex" horiz-adv-x="448" d="M147 595V604L222 678H228L301 604V595L225 669L147 595ZM438 567L341 0H326L224 549L123 0H108L10 567H19L115 15H116L218 567H230L333 15H334L429 567H438Z" />
<glyph unicode="&#x176;" glyph-name="Ycircumflex" horiz-adv-x="293" d="M152 258V0H143V258L13 678H22L147 273H148L271 678H280L152 258ZM326 706V715L401 789H407L480 715V706L404 780L326 706Z" />
<glyph unicode="&#x177;" glyph-name="ycircumflex" horiz-adv-x="282" d="M275 567L125 -19Q120 -39 114 -52T100 -74T80 -86T48 -90H28V-82H48Q81 -82 94 -68T116 -18L136 59H131L7 567H16L138 70H139L266 567H275ZM320 595V604L395 678H401L474 604V595L398
669L320 595Z" />
<glyph unicode="&#x178;" glyph-name="Ydieresis" horiz-adv-x="293" d="M152 258V0H143V258L13 678H22L147 273H148L271 678H280L152 258ZM370 743H379V723H370V743ZM430 743H439V723H430V743Z" />
<glyph unicode="&#x179;" glyph-name="Zacute" horiz-adv-x="293" d="M494 765L355 698V706L494 774V765ZM31 8H263V0H21V8L262 670H43V678H272V670L31 8Z" />
<glyph unicode="&#x17a;" glyph-name="zacute" horiz-adv-x="272" d="M483 660L344 593V601L483 669V660ZM33 8H244V0H23V8L239 559H40V567H249V559L33 8Z" />
<glyph unicode="&#x17b;" glyph-name="Zdotaccent" horiz-adv-x="293" d="M31 8H263V0H21V8L262 670H43V678H272V670L31 8ZM410 783H419V763H410V783Z" />
<glyph unicode="&#x17c;" glyph-name="zdotaccent" horiz-adv-x="272" d="M33 8H244V0H23V8L239 559H40V567H249V559L33 8ZM399 678H408V658H399V678Z" />
<glyph unicode="&#x17d;" glyph-name="Zcaron" horiz-adv-x="293" d="M491 786V777L416 703H410L337 777V786L413 712L491 786ZM31 8H263V0H21V8L262 670H43V678H272V670L31 8Z" />
<glyph unicode="&#x17e;" glyph-name="zcaron" horiz-adv-x="272" d="M480 681V672L405 598H399L326 672V681L402 607L480 681ZM33 8H244V0H23V8L239 559H40V567H249V559L33 8Z" />
<glyph unicode="&#x192;" glyph-name="florin" horiz-adv-x="223" d="M17 417H78L87 600Q89 641 106 659T167 678H194V670H167Q129 670 114 654T96 600L86 417H194V409H86L61 -90H52L77 409H17V417Z" />
<glyph unicode="&#x218;" glyph-name="Scommaaccent" d="M418 -22L404 -90H396L409 -21H418V-22ZM160 -4Q96 -4 62 30T28 121V237H37V121Q37 67 68 36T160 4Q189 4 211 13T247 38T269 75T276 120V161Q276 184 272 203T257 241T230 277T191 318L124 383Q101 405
84 424T55 461T38 498T32 541V569Q32 624 66 653T152 682Q212 682 243 655T274 567V477H265V567Q265 623 236 648T152 674Q103 674 72 647T41 569V541Q41 518 46 500T63 464T91 429T129 390L196 325Q218 303 234 285T262 247T279 208T285 161V120Q285 95 278 73T254
33T215 6T160 -4Z" />
<glyph unicode="&#x219;" glyph-name="scommaaccent" horiz-adv-x="296" d="M409 -22L395 -90H387L400 -21H409V-22ZM266 117Q266 59 238 28T145 -4Q85 -4 57 30T28 120V173H37V120Q37 69 62 37T145 4Q205 4 231 33T257 117V135Q257 171 242 200T184 263L112 319Q70
351 51 379T32 446V464Q32 512 59 541T141 571Q257 571 257 453V403H248V453Q248 563 141 563Q90 563 66 536T41 464V446Q41 429 45 414T57 385T80 357T116 327L188 271Q234 235 250 204T266 135V117Z" />
<glyph unicode="&#x21a;" glyph-name="uni021A" horiz-adv-x="293" d="M408 -22L394 -90H386L399 -21H408V-22ZM17 678H276V670H151V0H142V670H17V678Z" />
<glyph unicode="&#x21b;" glyph-name="uni021B" horiz-adv-x="187" d="M365 -22L351 -90H343L356 -21H365V-22ZM15 567H61V678H70V567H160V559H70V68Q70 35 84 22T131 8H160V0H131Q93 0 77 16T61 68V559H15V567Z" />
<glyph unicode="&#x237;" glyph-name="uni0237" horiz-adv-x="81" d="M45 567V-37Q45 -63 33 -76T-7 -90H-13V-82H-7Q16 -82 26 -71T36 -37V567H45Z" />
<glyph unicode="&#x2c6;" glyph-name="circumflex" horiz-adv-x="406" d="M126 595V604L201 678H207L280 604V595L204 669L126 595Z" />
<glyph unicode="&#x2c7;" glyph-name="caron" horiz-adv-x="406" d="M280 681V672L205 598H199L126 672V681L202 607L280 681Z" />
<glyph unicode="&#x2d8;" glyph-name="breve" horiz-adv-x="406" d="M276 671Q276 637 256 618T204 598Q172 598 151 617T129 671H137Q138 640 156 623T204 606Q232 606 249 623T268 671H276Z" />
<glyph unicode="&#x2d9;" glyph-name="dotaccent" horiz-adv-x="406" d="M198 678H207V658H198V678Z" />
<glyph unicode="&#x2da;" glyph-name="ring" horiz-adv-x="406" d="M151 644Q151 666 165 681T202 697Q225 697 240 682T255 644Q255 622 240 607T202 592Q180 592 166 607T151 644ZM160 644Q160 625 172 613T202 600Q221 600 233 612T246 644Q246 663 234 676T202
689Q184 689 172 676T160 644Z" />
<glyph unicode="&#x2db;" glyph-name="ogonek" horiz-adv-x="406" d="M207 0Q192 -11 179 -24T166 -55Q166 -65 174 -73T205 -82H214V-90H205Q179 -90 168 -80T157 -55Q157 -35 171 -22T197 0H207Z" />
<glyph unicode="&#x2dc;" glyph-name="tilde" horiz-adv-x="406" d="M164 660Q175 660 184 655T203 644T220 633T239 628Q256 628 263 639T272 665H280Q279 646 269 633T239 620Q228 620 219 625T200 636T183 647T164 652Q147 652 140 641T131 615H123Q124 634
134 647T164 660Z" />
<glyph unicode="&#x2dd;" glyph-name="hungarumlaut" horiz-adv-x="406" d="M219 678L173 595H164L209 678H219ZM279 678L233 595H224L269 678H279Z" />
</font>
</defs>
</svg>
