<?xml version="1.0" standalone="no"?> <!DOCTYPE svg PUBLIC "-//W3C//DTD SVG 1.0//EN" "http://www.w3.org/TR/2001/REC-SVG-20010904/DTD/svg10.dtd" > <svg xmlns="http://www.w3.org/2000/svg" width="100%" height="100%">
<defs >
<font id="KPMG" horiz-adv-x="322" ><font-face
    font-family="KPMG Web"
    units-per-em="1000"
    panose-1="2 11 3 3 3 2 2 11 2 4"
    ascent="698"
    descent="-90"
    alphabetic="0" />
<missing-glyph horiz-adv-x="625" />
<glyph unicode=" " glyph-name="space" horiz-adv-x="132" />
<glyph unicode="!" glyph-name="exclam" horiz-adv-x="102" d="M11 34H37L34 0H8L11 34ZM79 678H106L39 97H22L79 678Z" />
<glyph unicode="&quot;" glyph-name="quotedbl" horiz-adv-x="148" d="M73 678H98L84 577H65L73 678ZM131 678H157L142 577H124L131 678Z" />
<glyph unicode="#" glyph-name="numbersign" horiz-adv-x="297" d="M180 248H93L50 0H29L72 248H14L16 271H76L105 433H45L48 456H109L148 678H169L130 456H217L256 678H277L238 456H295L293 433H234L206 271H264L261 248H202L159 0H137L180 248ZM97 271H184L213
433H126L97 271Z" />
<glyph unicode="$" glyph-name="dollar" horiz-adv-x="324" d="M133 375Q91 422 73 460T60 548L63 573Q69 629 104 656T193 683L197 718H218L214 682Q268 677 295 643T316 553L308 477H283L291 555Q296 602 275 628T211 660L180 363L210 330Q230 307 245 286T269
244T282 201T283 151L280 115Q275 61 242 28T142 -5H140L136 -50H115L120 -4Q61 2 34 40T12 135L23 237H47L37 134Q32 87 53 56T122 18L158 347L133 375ZM143 17Q197 17 223 45T254 117L257 153Q262 197 247 232T193 311L176 331L143 17ZM84 545Q82 523 85 505T96
468T118 432T150 394L161 380L191 661Q147 660 120 639T87 570L84 545Z" />
<glyph unicode="%" glyph-name="percent" horiz-adv-x="424" d="M407 678H430L29 0H6L407 678ZM138 393Q84 393 62 426T46 516L52 569Q58 624 85 653T159 682Q213 682 234 649T250 559L245 506Q239 452 213 423T138 393ZM139 414Q177 414 195 437T219 505L225
562Q230 607 216 634T159 661Q121 661 102 638T77 570L71 513Q66 468 81 441T139 414ZM277 -4Q223 -4 201 29T185 119L190 172Q196 227 223 256T298 285Q352 285 373 252T389 162L383 109Q377 55 351 26T277 -4ZM277 17Q316 17 334 40T358 108L364 165Q369 210
354 237T297 264Q259 264 240 241T215 173L209 116Q204 71 219 44T277 17Z" />
<glyph unicode="&amp;" glyph-name="ampersand" horiz-adv-x="361" d="M136 -5Q66 -5 37 35T16 148L27 249Q33 305 61 329T130 362Q94 370 77 399T64 478L71 552Q78 621 112 652T204 683Q267 683 295 651T316 543L310 490H285L290 543Q297 609 275 635T204 661Q157
661 130 636T97 551L89 475Q84 429 103 401T173 373H352L349 350H303L267 0H243L250 65Q239 37 213 16T136 -5ZM140 17Q171 17 192 26T227 52T246 91T256 138L278 350H172Q122 350 90 327T53 251L42 146Q36 84 58 51T140 17Z" />
<glyph unicode="&apos;" glyph-name="quotesingle" horiz-adv-x="88" d="M73 678H98L84 577H65L73 678Z" />
<glyph unicode="(" glyph-name="parenleft" horiz-adv-x="175" d="M112 -90Q88 -84 69 -73T37 -43T19 7T19 83L67 539Q72 583 82 612T109 658T147 685T195 698L193 677Q171 673 154 665T124 641T103 601T91 539L43 83Q39 45 42 19T54 -25T78 -53T114 -69L112 -90Z" />
<glyph unicode=")" glyph-name="parenright" horiz-adv-x="175" d="M-15 -69Q7 -65 24 -57T54 -33T75 7T87 69L135 525Q139 563 136 589T124 633T100 661T64 677L66 698Q90 692 109 681T141 651T158 601T159 525L111 69Q106 25 96 -4T69 -50T31 -77T-17 -90L-15 -69Z" />
<glyph unicode="*" glyph-name="asterisk" horiz-adv-x="208" d="M136 579L90 520L73 536L125 589L56 615L65 637L130 602L132 678H156L145 601L214 625L219 602L147 588L189 527L168 515L136 579Z" />
<glyph unicode="+" glyph-name="plus" horiz-adv-x="347" d="M32 346H168L184 499H207L191 346H326L324 324H188L172 171H149L165 324H30L32 346Z" />
<glyph unicode="," glyph-name="comma" horiz-adv-x="101" d="M14 34H40V32L7 -76H-12L14 34Z" />
<glyph unicode="-" glyph-name="hyphen" horiz-adv-x="166" d="M25 326H148L146 304H23L25 326Z" />
<glyph unicode="." glyph-name="period" horiz-adv-x="101" d="M11 34H37L34 0H8L11 34Z" />
<glyph unicode="/" glyph-name="slash" horiz-adv-x="186" d="M193 698H216L-10 -90H-34L193 698Z" />
<glyph unicode="0" glyph-name="zero" horiz-adv-x="349" d="M153 17Q184 17 206 27T242 55T265 96T276 145L315 516Q318 546 314 572T297 618T262 649T208 661Q178 661 156 651T118 624T95 583T84 533L45 162Q42 133 46 107T64 60T99 29T153 17ZM153 -5Q113 -5
86 8T43 45T22 100T20 167L58 531Q61 563 71 590T100 638T146 671T209 683Q248 683 275 670T318 633T339 578T341 511L303 147Q300 116 290 89T261 40T217 7T153 -5Z" />
<glyph unicode="1" glyph-name="one" horiz-adv-x="181" d="M136 635H135L46 542H45L48 573L146 678H166L95 0H69L136 635Z" />
<glyph unicode="2" glyph-name="two" horiz-adv-x="321" d="M12 99Q15 129 22 151T42 192T71 230T111 272L195 357Q231 392 255 426T283 496L289 553Q295 609 268 635T197 661Q151 661 121 635T86 551L78 474H53L61 554Q68 620 103 651T198 683Q259 683 290 650T315
552L309 494Q304 456 280 420T214 341L129 255Q107 233 91 216T64 181T46 145T37 99L29 22H261L260 0H1L12 99Z" />
<glyph unicode="3" glyph-name="three" horiz-adv-x="335" d="M144 -5Q72 -5 39 31T13 135L22 221H47L38 135Q26 17 144 17Q204 17 229 45T260 129L272 237Q277 289 254 319T180 350H139L142 372H178Q279 372 289 463L297 538Q304 602 279 631T201 661Q148 661
122 636T90 563L82 487H57L65 563Q71 619 104 651T202 683Q268 683 299 646T322 537L314 464Q309 415 284 392T220 362Q258 354 280 322T297 234L286 128Q283 96 274 72T249 30T207 4T144 -5Z" />
<glyph unicode="4" glyph-name="four" horiz-adv-x="335" d="M222 157H-1L1 174L270 678H302L249 178H303L301 157H247L231 0H205L222 157ZM224 178L272 635H271L28 178H224Z" />
<glyph unicode="5" glyph-name="five" horiz-adv-x="332" d="M144 -5Q72 -5 40 34T15 146L23 219H48L40 142Q33 78 61 48T144 17Q201 17 226 49T258 136L275 299Q279 336 272 361T252 400T219 421T180 427Q159 427 139 421T103 402T76 367T62 315L61 305H37L76
678H325L323 656H97L68 377H69Q85 415 116 432T186 450Q210 450 233 443T272 418T297 371T301 298L284 135Q277 69 244 32T144 -5Z" />
<glyph unicode="6" glyph-name="six" horiz-adv-x="340" d="M150 -5Q83 -5 48 38T20 165L60 540Q68 612 104 647T202 683Q264 683 298 649T325 539L320 491H296L301 539Q308 604 279 632T201 661Q151 661 122 632T86 540L66 349H67Q84 385 114 405T190 425Q251
425 284 387T309 264L297 143Q289 65 253 30T150 -5ZM151 17Q205 17 234 46T271 143L284 268Q292 338 265 370T183 403Q134 403 100 373T58 275L46 160Q38 89 68 53T151 17Z" />
<glyph unicode="7" glyph-name="seven" horiz-adv-x="298" d="M59 678H313L307 613L72 0H45L282 618L286 656H57L59 678Z" />
<glyph unicode="8" glyph-name="eight" horiz-adv-x="347" d="M148 -5Q108 -5 82 7T39 41T18 91T16 152L26 244Q31 297 57 332T138 378Q91 392 78 428T70 515L74 549Q80 612 113 647T210 683Q244 683 268 673T306 643T325 596T327 537L324 503Q319 453 298 419T226
375Q251 369 268 356T296 323T309 280T310 230L300 138Q293 74 257 35T148 -5ZM148 17Q208 17 238 50T274 138L284 234Q287 261 283 285T266 327T232 355T179 365Q118 365 88 332T52 245L42 149Q39 122 43 98T59 56T93 28T148 17ZM186 387Q216 387 236 396T269
420T288 456T298 501L302 538Q308 595 287 628T209 661Q157 661 131 632T99 549L95 511Q92 486 94 464T107 424T136 397T186 387Z" />
<glyph unicode="9" glyph-name="nine" horiz-adv-x="340" d="M147 -5Q117 -5 93 3T51 28T26 73T22 139L27 187H51L46 139Q43 106 49 83T69 45T103 24T148 17Q202 17 230 47T265 138L285 329H284Q267 293 237 273T163 253Q101 253 67 291T42 414L54 535Q62 613
99 648T201 683Q269 683 304 640T331 513L292 138Q277 -5 147 -5ZM168 275Q217 275 251 305T293 404L305 520Q313 591 284 626T200 661Q146 661 117 632T80 535L67 410Q59 339 86 307T168 275Z" />
<glyph unicode=":" glyph-name="colon" horiz-adv-x="101" d="M11 34H37L34 0H8L11 34ZM40 310H66L63 275H36L40 310Z" />
<glyph unicode=";" glyph-name="semicolon" horiz-adv-x="101" d="M14 34H40V32L7 -76H-12L14 34ZM42 310H69L65 275H39L42 310Z" />
<glyph unicode="&lt;" glyph-name="less" horiz-adv-x="313" d="M19 324L21 335L308 469L305 445L52 329L281 214L278 190L19 324Z" />
<glyph unicode="=" glyph-name="equal" horiz-adv-x="360" d="M27 290H333L331 270H25L27 290ZM37 382H343L341 362H35L37 382Z" />
<glyph unicode="&gt;" glyph-name="greater" horiz-adv-x="313" d="M17 214L269 330L41 446L43 469L302 335L301 324L14 190L17 214Z" />
<glyph unicode="?" glyph-name="question" horiz-adv-x="307" d="M116 205Q118 227 121 242T131 270T148 297T173 330L224 394Q249 425 260 446T274 498L279 547Q286 605 262 633T189 661Q140 661 115 633T83 553L76 482H50L58 553Q65 616 98 649T189 683Q250
683 281 649T305 544L300 495Q298 477 294 463T283 436T267 410T244 381L192 317Q179 301 170 289T155 265T146 239T140 205L129 97H104L116 205ZM96 34H123L119 0H93L96 34Z" />
<glyph unicode="@" glyph-name="at" horiz-adv-x="498" d="M226 -90Q113 -90 62 -32T22 129L59 486Q65 537 84 574T132 635T199 670T281 682Q327 682 366 671T432 635T473 574T482 484L442 106Q438 72 424 54T377 35Q344 35 330 52T315 96H314Q303 70 281 53T222
35Q176 35 149 64T129 158L157 427Q164 490 194 517T266 544Q303 544 323 528T352 487H353L359 540H382L337 111Q334 80 345 67T378 53Q397 53 408 65T423 106L463 485Q468 533 457 567T420 623T359 655T280 665Q239 665 205 655T144 623T100 567T78 485L41 129Q31
32 76 -20T227 -73H374L372 -90H226ZM226 55Q260 55 285 76T315 147L344 425Q349 476 327 500T272 524Q234 524 211 500T182 424L154 156Q149 106 168 81T226 55Z" />
<glyph unicode="A" glyph-name="A" horiz-adv-x="341" d="M190 678H226L296 0H270L251 188H67L10 0H-16L190 678ZM74 211H248L205 641H204L74 211Z" />
<glyph unicode="B" glyph-name="B" horiz-adv-x="314" d="M76 678H185Q253 678 279 646T300 552L288 446Q283 401 263 380T205 350Q295 338 285 237L271 103Q265 49 234 25T139 0H5L76 678ZM138 22Q190 22 215 42T245 104L259 239Q264 287 243 313T165 339H66L32
22H138ZM157 360Q206 360 232 380T263 445L275 554Q280 604 258 630T182 656H99L68 360H157Z" />
<glyph unicode="C" glyph-name="C" horiz-adv-x="336" d="M153 -5Q112 -5 85 8T42 45T21 100T20 167L58 531Q61 565 71 593T98 641T142 672T206 683Q245 683 271 672T311 640T329 592T330 530L322 454H296L304 531Q307 559 304 583T290 624T259 651T206 661Q145
661 118 626T84 533L46 162Q43 132 46 106T63 60T98 29T154 17Q185 17 205 25T238 49T257 87T266 136L279 260H305L292 136Q288 104 280 78T256 34T215 5T153 -5Z" />
<glyph unicode="D" glyph-name="D" horiz-adv-x="343" d="M132 22Q200 22 232 58T269 150L307 512Q310 542 307 568T290 613T253 644T192 656H99L32 22H132ZM76 678H196Q240 678 268 665T312 628T332 574T333 507L296 151Q293 119 282 91T252 43T203 12T134 0H5L76 678Z" />
<glyph unicode="E" glyph-name="E" horiz-adv-x="299" d="M76 678H309L306 656H99L68 356H221L218 334H66L33 22H243L241 0H5L76 678Z" />
<glyph unicode="F" glyph-name="F" horiz-adv-x="281" d="M76 678H304L301 656H99L68 356H221L219 334H66L31 0H5L76 678Z" />
<glyph unicode="G" glyph-name="G" horiz-adv-x="344" d="M145 -5Q107 -5 82 9T41 46T21 101T20 167L58 531Q61 563 70 590T98 638T143 671T207 683Q248 683 274 672T313 640T330 592T330 529L324 474H299L306 532Q309 560 307 584T293 625T261 651T206 661Q176
661 154 651T118 624T95 583T84 533L46 162Q43 133 46 107T62 61T96 29T150 17Q180 17 201 26T237 53T258 93T268 144L285 309H186L188 331H312L278 0H254L262 69Q249 38 223 17T145 -5Z" />
<glyph unicode="H" glyph-name="H" horiz-adv-x="337" d="M281 334H66L31 0H5L76 678H102L68 356H283L317 678H344L273 0H246L281 334Z" />
<glyph unicode="I" glyph-name="I" horiz-adv-x="95" d="M76 678H102L31 0H5L76 678Z" />
<glyph unicode="J" glyph-name="J" horiz-adv-x="295" d="M120 -5Q55 -5 30 32T11 129L25 260H50L36 128Q31 77 51 47T120 17Q167 17 190 41T219 111L278 678H304L245 112Q238 54 209 25T120 -5Z" />
<glyph unicode="K" glyph-name="K" horiz-adv-x="311" d="M67 343L31 0H5L76 678H102L68 353L313 678H342L93 347L272 0H244L67 343Z" />
<glyph unicode="L" glyph-name="L" horiz-adv-x="262" d="M76 678H102L33 22H215L213 0H5L76 678Z" />
<glyph unicode="M" glyph-name="M" horiz-adv-x="420" d="M76 678H118L184 67H185L382 678H427L356 0H330L396 635H392L188 0H167L98 635H95L28 0H5L76 678Z" />
<glyph unicode="N" glyph-name="N" horiz-adv-x="332" d="M76 678H108L250 65L314 678H338L267 0H240L94 630L28 0H5L76 678Z" />
<glyph unicode="O" glyph-name="O" horiz-adv-x="355" d="M156 17Q187 17 209 27T247 55T270 96T281 145L320 516Q323 546 319 572T302 618T266 649T210 661Q180 661 158 651T120 624T96 583T84 533L46 162Q43 132 47 106T64 60T100 29T156 17ZM156 -5Q116 -5
89 8T45 45T22 100T20 167L58 531Q61 562 71 590T100 638T146 671T211 683Q251 683 278 670T322 633T344 578T346 511L308 147Q305 116 295 89T267 40T221 7T156 -5Z" />
<glyph unicode="P" glyph-name="P" horiz-adv-x="306" d="M76 678H191Q256 678 284 646T307 556L287 365Q281 310 250 283T156 255H57L31 0H5L76 678ZM155 277Q206 277 230 298T260 365L280 558Q285 606 263 631T188 656H99L60 277H155Z" />
<glyph unicode="Q" glyph-name="Q" horiz-adv-x="355" d="M292 -56L119 -15L120 0Q90 6 70 21T37 58T21 108T20 167L58 531Q61 562 71 590T100 638T146 671T211 683Q251 683 278 670T322 633T344 578T346 511L308 147Q305 118 296 91T269 44T227 10T166 -4L294
-34L292 -56ZM156 17Q187 17 209 27T247 55T270 95T281 144L320 516Q323 546 319 572T302 618T266 649T210 661Q180 661 158 651T120 624T96 583T84 533L45 160Q42 131 46 105T64 60T100 29T156 17Z" />
<glyph unicode="R" glyph-name="R" horiz-adv-x="309" d="M67 342L31 0H5L76 678H191Q319 678 305 557L294 443Q288 388 257 361T163 333H100L272 0H244L67 342ZM161 355Q213 355 237 376T267 443L279 558Q284 608 263 632T189 656H99L68 355H161Z" />
<glyph unicode="S" glyph-name="S" horiz-adv-x="323" d="M141 -5Q72 -5 38 34T11 135L21 237H47L36 134Q31 83 57 50T142 17Q196 17 221 45T252 117L256 153Q261 197 246 231T192 309L132 377Q111 401 96 421T72 460T59 500T58 545L61 572Q67 628 102 655T192
683Q257 683 289 649T315 553L306 477H281L289 555Q294 607 268 634T192 661Q147 661 119 640T86 571L83 545Q81 524 84 506T95 470T118 435T150 396L210 329Q230 306 245 286T269 244T281 201T282 151L278 116Q273 62 240 29T141 -5Z" />
<glyph unicode="T" glyph-name="T" horiz-adv-x="302" d="M55 678H328L326 656H202L134 0H108L176 656H53L55 678Z" />
<glyph unicode="U" glyph-name="U" horiz-adv-x="340" d="M148 -5Q109 -5 83 7T41 40T20 91T19 157L74 678H100L45 153Q42 123 46 98T62 55T95 27T149 17Q179 17 200 26T234 50T255 88T266 136L323 678H348L291 137Q288 106 279 80T253 35T210 6T148 -5Z" />
<glyph unicode="V" glyph-name="V" horiz-adv-x="331" d="M55 678H81L139 42H140L332 678H358L151 0H119L55 678Z" />
<glyph unicode="W" glyph-name="W" horiz-adv-x="487" d="M58 678H84L106 53H107L274 678H298L335 53H336L487 678H511L346 0H315L279 608H278L115 0H83L58 678Z" />
<glyph unicode="X" glyph-name="X" horiz-adv-x="331" d="M153 360L72 678H98L174 380L313 678H339L189 356L282 0H256L168 335L15 0H-12L153 360Z" />
<glyph unicode="Y" glyph-name="Y" horiz-adv-x="311" d="M141 258L55 678H82L157 298H158L312 678H338L167 259L140 0H114L141 258Z" />
<glyph unicode="Z" glyph-name="Z" horiz-adv-x="304" d="M-7 22L290 656H81L84 678H321L319 656L21 22H243L241 0H-9L-7 22Z" />
<glyph unicode="[" glyph-name="bracketleft" horiz-adv-x="169" d="M87 698H189L187 678H109L30 -70H108L106 -90H4L87 698Z" />
<glyph unicode="\" glyph-name="backslash" horiz-adv-x="186" d="M55 698H78L142 -90H119L55 698Z" />
<glyph unicode="]" glyph-name="bracketright" horiz-adv-x="169" d="M-15 -70H63L142 678H64L66 698H167L84 -90H-17L-15 -70Z" />
<glyph unicode="^" glyph-name="asciicircum" horiz-adv-x="242" d="M154 678H166L242 505H218L157 646L69 505H46L154 678Z" />
<glyph unicode="_" glyph-name="underscore" horiz-adv-x="246" d="M-36 -70H208L206 -90H-38L-36 -70Z" />
<glyph unicode="`" glyph-name="grave" horiz-adv-x="406" d="M168 652L170 673L309 611L307 593L168 652Z" />
<glyph unicode="a" glyph-name="a" horiz-adv-x="307" d="M116 -5Q62 -5 32 27T10 128L15 175Q18 208 28 229T55 265T94 291T144 314Q208 340 233 358T261 398L265 441Q271 494 253 522T183 550Q135 550 112 525T83 451L78 398H53L58 452Q65 509 95 540T183 572Q246
572 272 538T290 441L245 0H219L226 62H224Q211 35 185 15T116 -5ZM121 17Q141 17 160 23T194 43T219 76T232 122L256 354Q252 349 246 344T228 331T197 315T149 293Q124 282 105 272T72 250T51 220T40 176L35 128Q29 71 52 44T121 17Z" />
<glyph unicode="b" glyph-name="b" horiz-adv-x="321" d="M144 -5Q98 -5 72 16T38 67H37L30 0H5L76 678H101L82 496H83Q97 526 123 549T197 572Q251 572 281 539T305 436L272 121Q265 55 232 25T144 -5ZM138 17Q237 17 247 123L280 437Q285 492 261 521T189 550Q144
550 113 519T74 425L44 131Q38 75 65 46T138 17Z" />
<glyph unicode="c" glyph-name="c" horiz-adv-x="310" d="M136 -5Q72 -5 41 34T16 142L47 434Q55 502 90 537T185 572Q249 572 278 537T299 436L295 398H270L274 437Q279 492 258 521T184 550Q85 550 73 435L41 137Q35 80 60 49T137 17Q186 17 212 41T243 120L249
181H274L268 120Q255 -5 136 -5Z" />
<glyph unicode="d" glyph-name="d" horiz-adv-x="321" d="M126 -5Q72 -5 41 28T16 131L49 446Q56 512 91 542T177 572Q223 572 249 551T283 500H284L302 678H327L257 0H232L239 71H238Q226 42 200 19T126 -5ZM132 16Q177 16 208 48T246 142L277 436Q283 491 255
520T183 550Q136 550 108 524T74 444L42 130Q36 75 60 46T132 16Z" />
<glyph unicode="e" glyph-name="e" d="M141 -5Q76 -5 43 34T17 142L48 436Q55 503 90 537T187 572Q250 572 281 535T304 428L290 294H58L42 140Q35 80 62 49T142 17Q192 17 217 44T248 131L253 181H278L273 130Q265 60 234 28T141 -5ZM267 315L279 429Q285 488
261 519T186 550Q85 550 73 436L60 315H267Z" />
<glyph unicode="f" glyph-name="f" horiz-adv-x="186" d="M44 567H89L94 609Q98 647 115 662T174 678H212L210 658H177Q147 658 135 647T119 607L115 567H200L198 547H113L56 0H30L87 547H42L44 567Z" />
<glyph unicode="g" glyph-name="g" d="M142 106Q187 106 218 138T256 232L277 436Q283 491 255 520T183 550Q137 550 108 524T74 444L51 219Q45 165 69 136T142 106ZM130 -95Q67 -95 35 -63T8 30L10 49H35L33 30Q28 -22 53 -47T130 -73Q178 -73 203 -48T234 20L249
161H248Q235 131 208 108T134 85Q81 85 50 118T25 220L49 446Q56 512 91 542T177 572Q223 572 249 551T283 500H284L291 567H316L259 20Q254 -34 222 -64T130 -95Z" />
<glyph unicode="h" glyph-name="h" horiz-adv-x="314" d="M76 678H101L82 497H83Q89 510 99 523T123 548T155 565T197 572Q249 572 277 537T298 430L253 0H228L273 431Q279 489 258 519T189 550Q141 550 111 515T74 425L30 0H5L76 678Z" />
<glyph unicode="i" glyph-name="i" horiz-adv-x="95" d="M64 567H89L30 0H5L64 567ZM76 678H101L98 647H72L76 678Z" />
<glyph unicode="j" glyph-name="j" horiz-adv-x="95" d="M-48 -69H-37Q-16 -69 -9 -60T1 -30L64 567H89L27 -31Q23 -63 10 -76T-35 -90H-50L-48 -69ZM76 678H101L98 647H72L76 678Z" />
<glyph unicode="k" glyph-name="k" horiz-adv-x="276" d="M61 297L30 0H5L76 678H101L61 302L263 567H290L87 298L237 0H210L61 297Z" />
<glyph unicode="l" glyph-name="l" horiz-adv-x="95" d="M76 678H101L30 0H5L76 678Z" />
<glyph unicode="m" glyph-name="m" horiz-adv-x="502" d="M64 567H89L82 498H83Q89 511 98 524T120 548T150 565T189 572Q230 572 252 550T280 489H281Q293 521 321 546T394 572Q446 572 469 538T486 438L440 0H415L461 439Q466 490 449 520T386 550Q344 550 315
518T280 434L235 0H210L255 439Q261 493 243 521T181 550Q135 550 108 515T74 426L30 0H5L64 567Z" />
<glyph unicode="n" glyph-name="n" horiz-adv-x="314" d="M64 567H89L82 497H83Q89 510 99 523T123 548T155 565T197 572Q249 572 277 537T298 430L253 0H228L273 431Q279 489 258 519T189 550Q141 550 111 515T74 425L30 0H5L64 567Z" />
<glyph unicode="o" glyph-name="o" horiz-adv-x="324" d="M138 -5Q74 -5 42 34T17 142L48 434Q55 502 90 537T185 572Q249 572 281 533T306 425L275 132Q268 64 233 30T138 -5ZM138 17Q237 17 249 131L281 429Q287 486 262 518T185 550Q85 550 73 435L42 137Q35
80 61 49T138 17Z" />
<glyph unicode="p" glyph-name="p" horiz-adv-x="321" d="M64 567H89L82 496H83Q97 526 123 549T197 572Q251 572 281 539T305 436L272 121Q265 55 232 25T144 -5Q98 -5 72 16T38 67H37L21 -90H-4L64 567ZM138 17Q237 17 247 123L280 437Q285 492 261 521T189
550Q144 550 113 519T74 425L44 131Q38 75 65 46T138 17Z" />
<glyph unicode="q" glyph-name="q" horiz-adv-x="321" d="M239 71H238Q226 42 200 19T126 -5Q72 -5 41 28T16 131L49 446Q56 512 91 542T177 572Q223 572 249 551T283 500H284L291 567H316L247 -90H222L239 71ZM132 16Q177 16 208 48T246 142L277 436Q283 491
255 520T183 550Q136 550 108 524T74 444L42 130Q36 75 60 46T132 16Z" />
<glyph unicode="r" glyph-name="r" horiz-adv-x="188" d="M64 567H89L82 494H83Q95 524 124 546T196 569L193 543H189Q147 543 114 515T75 431L30 0H5L64 567Z" />
<glyph unicode="s" glyph-name="s" horiz-adv-x="296" d="M125 -5Q59 -5 29 30T6 124L12 178H36L30 123Q25 74 48 46T125 17Q178 17 200 43T227 116L229 134Q233 171 222 198T171 260L108 313Q70 346 54 377T43 451L45 469Q50 516 80 544T167 572Q227 572 256
542T279 450L274 402H249L254 450Q259 502 237 526T167 550Q120 550 97 528T69 467L67 449Q63 416 75 390T126 331L188 278Q210 260 223 243T244 208T254 173T254 133L252 115Q245 58 218 27T125 -5Z" />
<glyph unicode="t" glyph-name="t" horiz-adv-x="198" d="M44 567H89L101 678H127L115 567H201L199 547H113L64 85Q61 55 70 38T114 21H143L142 0H112Q64 0 49 22T39 87L87 547H42L44 567Z" />
<glyph unicode="u" glyph-name="u" horiz-adv-x="317" d="M122 -5Q69 -5 39 27T16 137L61 567H86L41 136Q34 71 58 44T127 17Q176 17 204 52T239 142L284 567H309L250 0H225L232 69H231Q218 42 193 19T122 -5Z" />
<glyph unicode="v" glyph-name="v" horiz-adv-x="291" d="M36 567H62L117 39H118L288 567H314L129 0H97L36 567Z" />
<glyph unicode="w" glyph-name="w" horiz-adv-x="456" d="M39 567H64L95 52H96L246 567H270L309 52H310L451 567H475L318 0H290L252 512L102 0H73L39 567Z" />
<glyph unicode="x" glyph-name="x" horiz-adv-x="295" d="M134 298L48 567H74L155 315L286 567H312L171 295L255 0H229L150 278L6 0H-20L134 298Z" />
<glyph unicode="y" glyph-name="y" horiz-adv-x="292" d="M-5 -69H20Q36 -69 46 -67T62 -58T73 -43T83 -19L111 58H103L36 567H61L123 96H124L289 567H315L106 -25Q100 -43 94 -55T78 -75T55 -86T21 -90H-8L-5 -69Z" />
<glyph unicode="z" glyph-name="z" horiz-adv-x="279" d="M-6 21L255 546H67L69 567H285L283 546L22 21H222L221 0H-7L-6 21Z" />
<glyph unicode="{" glyph-name="braceleft" horiz-adv-x="210" d="M140 -69Q89 -69 68 -40T61 51L102 223Q111 260 101 282T42 304H24L26 325H42Q68 325 83 331T107 349T118 375T121 409L116 590Q114 650 137 674T212 698H230L228 678H211Q174 678 157 661T141
592L145 410Q147 374 135 349T84 315Q119 306 126 280T126 220L85 47Q72 -5 88 -26T142 -48H151L149 -69H140Z" />
<glyph unicode="|" glyph-name="bar" horiz-adv-x="98" d="M81 698H103L20 -90H-2L81 698Z" />
<glyph unicode="}" glyph-name="braceright" horiz-adv-x="210" d="M-13 -49H3Q40 -49 57 -31T74 37L69 219Q68 255 80 280T131 314Q95 323 88 349T89 409L130 582Q142 634 126 656T73 678H63L65 698H74Q125 698 146 669T154 578L112 406Q104 369 114 347T173
325H191L189 304H173Q147 304 131 298T107 281T96 254T93 221L98 40Q100 -20 77 -44T3 -69H-15L-13 -49Z" />
<glyph unicode="~" glyph-name="asciitilde" horiz-adv-x="240" d="M25 288Q28 313 41 328T77 344Q90 344 102 340T125 329T146 319T168 314Q183 314 190 324T200 348H220Q218 323 205 308T168 292Q155 292 144 296T121 307T99 317T77 322Q62 322 55 312T46 288H25Z" />
<glyph unicode="&#xa1;" glyph-name="exclamdown" horiz-adv-x="102" d="M69 588H96L92 554H66L69 588ZM64 491H81L25 -90H-3L64 491Z" />
<glyph unicode="&#xa2;" glyph-name="cent" horiz-adv-x="310" d="M121 -4Q64 0 37 38T16 142L47 434Q55 500 89 535T181 572L186 615H207L202 571Q313 560 299 436L295 398H270L274 437Q283 540 200 549L143 17Q189 19 213 43T244 120L250 181H275L269 120Q256
-2 141 -5L136 -50H116L121 -4ZM41 137Q35 83 56 53T123 17L179 550Q85 547 73 435L41 137Z" />
<glyph unicode="&#xa3;" glyph-name="sterling" horiz-adv-x="335" d="M22 337H63L84 544Q92 618 127 650T220 683Q279 683 309 651T332 551L325 486H299L306 553Q311 609 289 635T220 661Q175 661 147 634T110 544L88 337H237L234 315H86L56 22H282L280 0H28L60
315H19L22 337Z" />
<glyph unicode="&#xa5;" glyph-name="yen" horiz-adv-x="323" d="M43 278H148L150 295L61 678H88L166 330H167L318 678H344L176 295L174 278H280L278 259H172L169 225H274L272 207H167L145 0H119L141 207H35L37 225H143L146 259H41L43 278Z" />
<glyph unicode="&#xa6;" glyph-name="brokenbar" horiz-adv-x="97" d="M37 289H59L19 -90H-2L37 289ZM81 698H102L64 339H43L81 698Z" />
<glyph unicode="&#xa7;" glyph-name="section" horiz-adv-x="352" d="M149 -95Q82 -95 52 -61T28 33L33 80H57L52 32Q47 -17 69 -45T149 -73Q176 -73 194 -67T223 -48T240 -18T248 20L249 37Q253 72 244 99T199 151L102 217Q66 242 50 268T34 327Q34 373 58 398T123
437V438Q96 462 89 490T86 554L88 569Q100 683 212 683Q275 683 301 651T323 561L318 514H294L299 562Q304 608 284 634T212 661Q163 661 140 638T112 568L111 553Q107 519 115 493T155 443L251 379Q287 354 304 329T321 269Q321 221 296 197T230 159V158Q262 132
270 103T275 35L273 18Q268 -34 241 -64T149 -95ZM212 171Q250 183 273 203T297 266Q297 294 283 315T237 359L139 425Q100 413 79 392T58 329Q58 303 71 281T116 237L212 171Z" />
<glyph unicode="&#xa8;" glyph-name="dieresis" horiz-adv-x="406" d="M192 645H217L213 614H189L192 645ZM264 645H288L285 614H260L264 645Z" />
<glyph unicode="&#xa9;" glyph-name="copyright" horiz-adv-x="385" d="M186 202Q143 202 126 228T112 295L123 400Q128 441 148 463T205 485Q246 485 263 464T276 405L274 386H254L256 406Q258 435 247 451T205 467Q176 467 162 450T144 401L132 292Q129 261
141 240T186 219Q216 219 229 236T245 279L248 310H269L265 278Q261 244 244 223T186 202ZM184 139Q222 139 250 151T297 184T328 234T343 300L350 370Q354 408 348 440T324 495T278 532T210 546Q134 546 96 501T51 385L44 314Q40 277 46 245T70 190T116 153T184
139ZM184 126Q142 126 111 140T60 180T33 239T29 314L37 385Q41 423 53 455T87 510T139 547T210 560Q252 560 283 546T333 506T361 445T365 370L357 300Q349 222 307 174T184 126Z" />
<glyph unicode="&#xaa;" glyph-name="ordfeminine" horiz-adv-x="290" d="M130 195Q79 195 52 225T30 316L33 340Q36 369 45 387T70 418T105 439T152 459Q211 484 234 501T260 537L263 562Q268 611 251 637T186 663Q141 663 120 639T93 572L89 532H65L70 574Q75
624 103 653T187 683Q246 683 269 652T287 561L249 200H225L231 257H230Q219 232 194 214T130 195ZM134 215Q172 215 202 240T237 314L257 500L246 489Q240 483 229 476T201 461T156 440Q132 429 115 422T85 404T65 379T56 339L54 315Q48 263 70 239T134 215Z"
/>
<glyph unicode="&#xab;" glyph-name="guillemotleft" horiz-adv-x="208" d="M23 233L101 378H123L45 231L93 86H70L23 233ZM88 232L167 378H189L111 230L158 86H136L88 232Z" />
<glyph unicode="&#xae;" glyph-name="registered" horiz-adv-x="385" d="M199 248Q157 248 126 262T75 302T48 362T44 437L52 507Q56 546 68 578T102 633T154 669T226 682Q268 682 299 668T349 628T376 568T380 493L373 423Q369 384 357 352T323 297T270 261T199
248ZM199 261Q275 261 312 306T358 423L365 493Q369 530 363 562T339 618T293 655T225 669Q149 669 112 624T67 507L59 437Q55 399 61 367T85 312T131 275T199 261ZM172 467L158 334H138L166 605H231Q263 605 278 589T290 543L287 514Q284 486 268 475T220 464H196L278
334H255L172 467ZM220 479Q243 479 254 487T267 514L270 545Q272 564 263 576T229 589H184L173 479H220Z" />
<glyph unicode="&#xaf;" glyph-name="macron" horiz-adv-x="406" d="M166 634H311L309 615H164L166 634Z" />
<glyph unicode="&#xb0;" glyph-name="degree" horiz-adv-x="179" d="M119 548Q91 548 72 567T52 614Q52 643 71 663T119 683Q148 683 168 663T188 614Q188 587 168 568T119 548ZM119 566Q141 566 155 580T169 614Q169 636 155 650T119 665Q99 665 86 651T72 614Q72
594 85 580T119 566Z" />
<glyph unicode="&#xb2;" glyph-name="twosuperior" horiz-adv-x="211" d="M42 418Q45 447 56 465T95 504L146 540Q169 557 179 569T191 601L192 611Q194 637 182 651T143 665Q119 665 103 652T84 611L81 577H60L64 612Q68 647 89 664T143 682Q180 682 198 663T213
609L212 600Q210 573 197 559T160 527L108 489Q83 472 74 457T63 417L62 406H190L188 388H39L42 418Z" />
<glyph unicode="&#xb3;" glyph-name="threesuperior" horiz-adv-x="214" d="M121 384Q79 384 61 403T46 455L49 484H70L67 455Q64 429 76 415T121 401Q152 401 165 414T180 451L183 487Q185 507 177 520T142 534H113L115 550H142Q168 550 178 563T191 592L193
614Q195 639 183 652T142 665Q113 665 101 651T86 613L84 595H64L66 613Q70 642 87 662T142 682Q181 682 198 664T213 613L211 592Q209 575 200 561T168 542Q191 537 199 522T205 485L201 449Q198 420 181 402T121 384Z" />
<glyph unicode="&#xb4;" glyph-name="acute" horiz-adv-x="406" d="M165 612L317 673L314 651L163 593L165 612Z" />
<glyph unicode="&#xb6;" glyph-name="paragraph" horiz-adv-x="319" d="M190 299H154Q96 299 66 329T40 414L57 576Q63 629 92 653T176 678H325L254 0H232L301 658H249L181 0H159L190 299Z" />
<glyph unicode="&#xb7;" glyph-name="periodcentered" horiz-adv-x="101" d="M45 359H71L68 324H41L45 359Z" />
<glyph unicode="&#xb8;" glyph-name="cedilla" horiz-adv-x="406" d="M94 -76Q116 -76 135 -73T155 -55Q155 -39 123 -39H113L118 0H135L132 -22Q155 -22 167 -31T179 -54Q179 -77 154 -84T92 -92L94 -76Z" />
<glyph unicode="&#xb9;" glyph-name="onesuperior" horiz-adv-x="141" d="M112 647H111L51 589H50L54 613L119 678H138L107 388H85L112 647Z" />
<glyph unicode="&#xba;" glyph-name="ordmasculine" horiz-adv-x="299" d="M147 195Q89 195 59 232T35 332L59 556Q66 619 98 651T184 683Q242 683 272 646T295 546L271 322Q264 260 233 228T147 195ZM147 215Q236 215 247 321L271 549Q277 602 254 632T184 663Q94
663 83 557L59 328Q53 275 77 245T147 215Z" />
<glyph unicode="&#xbb;" glyph-name="guillemotright" horiz-adv-x="208" d="M150 233L103 378H125L173 231L95 86H73L150 233ZM85 234L38 378H60L108 232L29 86H6L85 234Z" />
<glyph unicode="&#xbc;" glyph-name="onequarter" horiz-adv-x="249" d="M124 59H7L9 73L144 290H170L148 76H178L176 59H146L140 0H118L124 59ZM152 647H151L91 589H90L93 613L159 678H178L147 388H124L152 647ZM127 76L145 258H144L30 76H127ZM30 348H231L230
332H29L30 348Z" />
<glyph unicode="&#xbd;" glyph-name="onehalf" horiz-adv-x="249" d="M31 348H232L230 332H29L31 348ZM152 647H151L92 589H91L94 613L160 678H178L147 388H125L152 647ZM25 30Q26 45 29 56T39 77T54 96T78 115L128 152Q151 169 161 181T174 213L175 222Q180 276
125 276Q101 276 86 264T67 223L63 189H43L47 224Q51 259 72 276T126 294Q163 294 181 275T196 221L195 212Q192 185 179 171T142 139L90 101Q66 83 57 68T46 28L45 18H173L171 0H22L25 30Z" />
<glyph unicode="&#xbe;" glyph-name="threequarters" horiz-adv-x="259" d="M138 384Q96 384 78 403T63 455L66 484H87L84 455Q81 429 93 415T138 401Q170 401 182 414T197 451L201 487Q203 507 195 520T159 534H130L132 550H159Q185 550 195 563T208 592L210
614Q212 639 200 652T159 665Q130 665 118 651T104 613L102 595H81L83 613Q87 642 104 662T159 682Q198 682 215 664T230 613L228 592Q226 575 217 561T185 542Q208 537 216 522T222 485L218 449Q215 420 198 402T138 384ZM128 59H10L12 73L148 290H173L152 76H181L180
59H149L143 0H122L128 59ZM130 76L149 258H148L34 76H130ZM31 348H230L229 332H29L31 348Z" />
<glyph unicode="&#xbf;" glyph-name="questiondown" horiz-adv-x="307" d="M119 -95Q58 -95 27 -61T3 44L8 93Q10 111 14 125T25 152T41 178T64 207L116 271Q129 287 138 299T153 323T162 349T168 383L180 491H204L193 383Q191 361 188 346T178 318T161 291T135
258L84 194Q60 163 49 142T34 90L29 41Q22 -17 46 -45T120 -73Q168 -73 194 -45T225 35L232 106H258L251 35Q244 -28 211 -61T119 -95ZM189 588H215L212 554H186L189 588Z" />
<glyph unicode="&#xc0;" glyph-name="Agrave" horiz-adv-x="341" d="M190 678H226L296 0H270L251 188H67L10 0H-16L190 678ZM74 211H248L205 641H204L74 211ZM389 757L391 778L530 716L528 698L389 757Z" />
<glyph unicode="&#xc1;" glyph-name="Aacute" horiz-adv-x="341" d="M190 678H226L296 0H270L251 188H67L10 0H-16L190 678ZM74 211H248L205 641H204L74 211ZM405 717L557 778L554 756L403 698L405 717Z" />
<glyph unicode="&#xc2;" glyph-name="Acircumflex" horiz-adv-x="341" d="M190 678H226L296 0H270L251 188H67L10 0H-16L190 678ZM74 211H248L205 641H204L74 211ZM389 719L468 787H482L549 718L547 700L474 765L387 700L389 719Z" />
<glyph unicode="&#xc3;" glyph-name="Atilde" horiz-adv-x="341" d="M190 678H226L296 0H270L251 188H67L10 0H-16L190 678ZM74 211H248L205 641H204L74 211ZM382 717Q384 739 396 754T431 769Q442 769 451 765T470 755T488 745T506 740Q520 740 526 750T535 773H553Q551
750 539 736T504 721Q493 721 484 725T465 735T447 744T429 749Q415 749 408 740T399 717H382Z" />
<glyph unicode="&#xc4;" glyph-name="Adieresis" horiz-adv-x="341" d="M190 678H226L296 0H270L251 188H67L10 0H-16L190 678ZM74 211H248L205 641H204L74 211ZM425 750H450L446 719H422L425 750ZM497 750H521L518 719H493L497 750Z" />
<glyph unicode="&#xc5;" glyph-name="Aring" horiz-adv-x="341" d="M190 678H226L296 0H270L251 188H67L10 0H-16L190 678ZM74 211H248L205 641H204L74 211ZM469 702Q446 702 430 718T414 758Q414 781 430 797T469 814Q494 814 510 798T526 758Q526 734 510 718T469
702ZM469 717Q486 717 497 729T509 758Q509 775 498 787T469 799Q452 799 442 787T431 758Q431 741 441 729T469 717Z" />
<glyph unicode="&#xc6;" glyph-name="AE" horiz-adv-x="519" d="M252 188H83L10 0H-15L247 678H528L525 656H327L296 356H440L438 334H294L261 22H463L461 0H233L252 188ZM92 211H255L301 656H264L92 211Z" />
<glyph unicode="&#xc7;" glyph-name="Ccedilla" horiz-adv-x="336" d="M98 -76Q120 -76 139 -73T159 -55Q159 -39 127 -39H117L122 -2Q90 3 69 18T36 55T21 106T20 167L58 531Q61 565 71 593T98 641T142 672T206 683Q245 683 271 672T311 640T329 592T330 530L322
454H296L304 531Q307 559 304 583T290 624T259 651T206 661Q145 661 118 626T84 533L46 162Q43 132 46 106T63 60T98 29T154 17Q185 17 205 25T238 49T257 87T266 136L279 260H305L292 136Q288 104 280 78T256 34T215 5T153 -5H138L136 -22Q159 -22 171 -31T183
-54Q183 -77 158 -84T96 -92L98 -76Z" />
<glyph unicode="&#xc8;" glyph-name="Egrave" horiz-adv-x="299" d="M76 678H309L306 656H99L68 356H221L218 334H66L33 22H243L241 0H5L76 678ZM375 757L377 778L516 716L514 698L375 757Z" />
<glyph unicode="&#xc9;" glyph-name="Eacute" horiz-adv-x="299" d="M392 717L544 778L541 756L390 698L392 717ZM76 678H309L306 656H99L68 356H221L218 334H66L33 22H243L241 0H5L76 678Z" />
<glyph unicode="&#xca;" glyph-name="Ecircumflex" horiz-adv-x="299" d="M370 719L449 787H463L530 718L528 700L455 765L368 700L370 719ZM76 678H309L306 656H99L68 356H221L218 334H66L33 22H243L241 0H5L76 678Z" />
<glyph unicode="&#xcb;" glyph-name="Edieresis" horiz-adv-x="299" d="M406 750H431L427 719H403L406 750ZM478 750H502L499 719H474L478 750ZM76 678H309L306 656H99L68 356H221L218 334H66L33 22H243L241 0H5L76 678Z" />
<glyph unicode="&#xcc;" glyph-name="Igrave" horiz-adv-x="95" d="M76 678H102L31 0H5L76 678ZM18 757L20 778L159 716L157 698L18 757Z" />
<glyph unicode="&#xcd;" glyph-name="Iacute" horiz-adv-x="95" d="M76 678H102L31 0H5L76 678ZM36 717L188 778L185 756L34 698L36 717Z" />
<glyph unicode="&#xce;" glyph-name="Icircumflex" horiz-adv-x="95" d="M76 678H102L31 0H5L76 678ZM13 719L92 787H106L173 718L171 700L98 765L11 700L13 719Z" />
<glyph unicode="&#xcf;" glyph-name="Idieresis" horiz-adv-x="95" d="M76 678H102L31 0H5L76 678ZM49 750H74L70 719H46L49 750ZM121 750H145L142 719H117L121 750Z" />
<glyph unicode="&#xd0;" glyph-name="Eth" horiz-adv-x="353" d="M19 356H52L86 678H207Q250 678 278 665T322 628T342 574T343 507L306 151Q303 119 292 91T262 43T213 12T144 0H15L50 334H17L19 356ZM142 22Q210 22 242 58T279 150L317 512Q320 542 317 568T300
613T264 644T203 656H110L78 356H209L207 334H76L43 22H142Z" />
<glyph unicode="&#xd1;" glyph-name="Ntilde" horiz-adv-x="332" d="M76 678H108L250 65L314 678H338L267 0H240L94 630L28 0H5L76 678ZM387 717Q389 739 401 754T436 769Q447 769 456 765T475 755T493 745T511 740Q525 740 531 750T540 773H558Q556 750 544 736T509
721Q498 721 489 725T470 735T452 744T434 749Q420 749 413 740T404 717H387Z" />
<glyph unicode="&#xd2;" glyph-name="Ograve" horiz-adv-x="355" d="M156 17Q187 17 209 27T247 55T270 96T281 145L320 516Q323 546 319 572T302 618T266 649T210 661Q180 661 158 651T120 624T96 583T84 533L46 162Q43 132 47 106T64 60T100 29T156 17ZM156
-5Q116 -5 89 8T45 45T22 100T20 167L58 531Q61 562 71 590T100 638T146 671T211 683Q251 683 278 670T322 633T344 578T346 511L308 147Q305 116 295 89T267 40T221 7T156 -5ZM401 757L403 778L542 716L540 698L401 757Z" />
<glyph unicode="&#xd3;" glyph-name="Oacute" horiz-adv-x="355" d="M419 717L571 778L568 756L417 698L419 717ZM156 17Q187 17 209 27T247 55T270 96T281 145L320 516Q323 546 319 572T302 618T266 649T210 661Q180 661 158 651T120 624T96 583T84 533L46 162Q43
132 47 106T64 60T100 29T156 17ZM156 -5Q116 -5 89 8T45 45T22 100T20 167L58 531Q61 562 71 590T100 638T146 671T211 683Q251 683 278 670T322 633T344 578T346 511L308 147Q305 116 295 89T267 40T221 7T156 -5Z" />
<glyph unicode="&#xd4;" glyph-name="Ocircumflex" horiz-adv-x="355" d="M397 719L476 787H490L557 718L555 700L482 765L395 700L397 719ZM156 17Q187 17 209 27T247 55T270 96T281 145L320 516Q323 546 319 572T302 618T266 649T210 661Q180 661 158 651T120
624T96 583T84 533L46 162Q43 132 47 106T64 60T100 29T156 17ZM156 -5Q116 -5 89 8T45 45T22 100T20 167L58 531Q61 562 71 590T100 638T146 671T211 683Q251 683 278 670T322 633T344 578T346 511L308 147Q305 116 295 89T267 40T221 7T156 -5Z" />
<glyph unicode="&#xd5;" glyph-name="Otilde" horiz-adv-x="355" d="M156 17Q187 17 209 27T247 55T270 96T281 145L320 516Q323 546 319 572T302 618T266 649T210 661Q180 661 158 651T120 624T96 583T84 533L46 162Q43 132 47 106T64 60T100 29T156 17ZM156
-5Q116 -5 89 8T45 45T22 100T20 167L58 531Q61 562 71 590T100 638T146 671T211 683Q251 683 278 670T322 633T344 578T346 511L308 147Q305 116 295 89T267 40T221 7T156 -5ZM390 717Q392 739 404 754T439 769Q450 769 459 765T478 755T496 745T514 740Q528 740
534 750T543 773H561Q559 750 547 736T512 721Q501 721 492 725T473 735T455 744T437 749Q423 749 416 740T407 717H390Z" />
<glyph unicode="&#xd6;" glyph-name="Odieresis" horiz-adv-x="355" d="M433 750H458L454 719H430L433 750ZM505 750H529L526 719H501L505 750ZM156 17Q187 17 209 27T247 55T270 96T281 145L320 516Q323 546 319 572T302 618T266 649T210 661Q180 661 158 651T120
624T96 583T84 533L46 162Q43 132 47 106T64 60T100 29T156 17ZM156 -5Q116 -5 89 8T45 45T22 100T20 167L58 531Q61 562 71 590T100 638T146 671T211 683Q251 683 278 670T322 633T344 578T346 511L308 147Q305 116 295 89T267 40T221 7T156 -5Z" />
<glyph unicode="&#xd7;" glyph-name="multiply" horiz-adv-x="327" d="M27 206L153 331L49 460L65 476L169 347L295 470L309 455L182 331L288 201L271 186L166 315L41 192L27 206Z" />
<glyph unicode="&#xd8;" glyph-name="Oslash" horiz-adv-x="355" d="M57 30Q33 54 24 89T20 167L58 531Q61 562 71 590T100 638T146 671T211 683Q237 683 257 677T294 660L310 702H330L309 648Q333 625 342 589T346 511L308 147Q305 116 295 89T267 40T221 7T156
-5Q106 -5 73 17L55 -31H34L57 30ZM46 162Q42 130 46 103T66 55L286 638Q272 649 254 655T210 661Q180 661 158 651T120 624T96 583T84 533L46 162ZM156 17Q187 17 209 27T247 55T270 96T281 145L320 516Q323 548 319 575T300 622L81 39Q109 17 156 17Z" />
<glyph unicode="&#xd9;" glyph-name="Ugrave" horiz-adv-x="340" d="M148 -5Q109 -5 83 7T41 40T20 91T19 157L74 678H100L45 153Q42 123 46 98T62 55T95 27T149 17Q179 17 200 26T234 50T255 88T266 136L323 678H348L291 137Q288 106 279 80T253 35T210 6T148
-5ZM395 757L397 778L536 716L534 698L395 757Z" />
<glyph unicode="&#xda;" glyph-name="Uacute" horiz-adv-x="340" d="M413 717L565 778L562 756L411 698L413 717ZM148 -5Q109 -5 83 7T41 40T20 91T19 157L74 678H100L45 153Q42 123 46 98T62 55T95 27T149 17Q179 17 200 26T234 50T255 88T266 136L323 678H348L291
137Q288 106 279 80T253 35T210 6T148 -5Z" />
<glyph unicode="&#xdb;" glyph-name="Ucircumflex" horiz-adv-x="340" d="M390 719L469 787H483L550 718L548 700L475 765L388 700L390 719ZM148 -5Q109 -5 83 7T41 40T20 91T19 157L74 678H100L45 153Q42 123 46 98T62 55T95 27T149 17Q179 17 200 26T234 50T255
88T266 136L323 678H348L291 137Q288 106 279 80T253 35T210 6T148 -5Z" />
<glyph unicode="&#xdc;" glyph-name="Udieresis" horiz-adv-x="340" d="M427 750H452L448 719H424L427 750ZM499 750H523L520 719H495L499 750ZM148 -5Q109 -5 83 7T41 40T20 91T19 157L74 678H100L45 153Q42 123 46 98T62 55T95 27T149 17Q179 17 200 26T234
50T255 88T266 136L323 678H348L291 137Q288 106 279 80T253 35T210 6T148 -5Z" />
<glyph unicode="&#xdd;" glyph-name="Yacute" horiz-adv-x="311" d="M148 258L62 678H89L164 298H165L319 678H345L174 259L147 0H121L148 258ZM407 717L559 778L556 756L405 698L407 717Z" />
<glyph unicode="&#xde;" glyph-name="Thorn" horiz-adv-x="306" d="M76 678H102L88 552H177Q243 552 271 520T293 430L276 265Q269 208 240 179T148 150H47L31 0H5L76 678ZM146 172Q198 172 221 194T249 265L267 431Q278 529 175 529H86L49 172H146Z" />
<glyph unicode="&#xdf;" glyph-name="germandbls" horiz-adv-x="308" d="M65 575Q71 630 103 656T193 683Q246 683 269 664T293 615Q293 562 238 551Q304 538 294 445L259 118Q253 57 226 29T135 0H90L92 21H134Q185 21 207 45T234 120L268 447Q273 492 259 516T200
541H155L158 561H198Q225 561 247 571T269 613Q269 636 251 648T192 661Q146 661 121 641T90 574L30 0H5L65 575Z" />
<glyph unicode="&#xe0;" glyph-name="agrave" horiz-adv-x="307" d="M116 -5Q62 -5 32 27T10 128L15 175Q18 208 28 229T55 265T94 291T144 314Q208 340 233 358T261 398L265 441Q271 494 253 522T183 550Q135 550 112 525T83 451L78 398H53L58 452Q65 509 95
540T183 572Q246 572 272 538T290 441L245 0H219L226 62H224Q211 35 185 15T116 -5ZM121 17Q141 17 160 23T194 43T219 76T232 122L256 354Q252 349 246 344T228 331T197 315T149 293Q124 282 105 272T72 250T51 220T40 176L35 128Q29 71 52 44T121 17ZM371 652L373
673L512 611L510 593L371 652Z" />
<glyph unicode="&#xe1;" glyph-name="aacute" horiz-adv-x="307" d="M116 -5Q62 -5 32 27T10 128L15 175Q18 208 28 229T55 265T94 291T144 314Q208 340 233 358T261 398L265 441Q271 494 253 522T183 550Q135 550 112 525T83 451L78 398H53L58 452Q65 509 95
540T183 572Q246 572 272 538T290 441L245 0H219L226 62H224Q211 35 185 15T116 -5ZM121 17Q141 17 160 23T194 43T219 76T232 122L256 354Q252 349 246 344T228 331T197 315T149 293Q124 282 105 272T72 250T51 220T40 176L35 128Q29 71 52 44T121 17ZM389 612L541
673L538 651L387 593L389 612Z" />
<glyph unicode="&#xe2;" glyph-name="acircumflex" horiz-adv-x="307" d="M116 -5Q62 -5 32 27T10 128L15 175Q18 208 28 229T55 265T94 291T144 314Q208 340 233 358T261 398L265 441Q271 494 253 522T183 550Q135 550 112 525T83 451L78 398H53L58 452Q65 509
95 540T183 572Q246 572 272 538T290 441L245 0H219L226 62H224Q211 35 185 15T116 -5ZM121 17Q141 17 160 23T194 43T219 76T232 122L256 354Q252 349 246 344T228 331T197 315T149 293Q124 282 105 272T72 250T51 220T40 176L35 128Q29 71 52 44T121 17ZM367
614L446 682H460L527 613L525 595L452 660L365 595L367 614Z" />
<glyph unicode="&#xe3;" glyph-name="atilde" horiz-adv-x="307" d="M116 -5Q62 -5 32 27T10 128L15 175Q18 208 28 229T55 265T94 291T144 314Q208 340 233 358T261 398L265 441Q271 494 253 522T183 550Q135 550 112 525T83 451L78 398H53L58 452Q65 509 95
540T183 572Q246 572 272 538T290 441L245 0H219L226 62H224Q211 35 185 15T116 -5ZM121 17Q141 17 160 23T194 43T219 76T232 122L256 354Q252 349 246 344T228 331T197 315T149 293Q124 282 105 272T72 250T51 220T40 176L35 128Q29 71 52 44T121 17ZM361 612Q363
634 375 649T410 664Q421 664 430 660T449 650T467 640T485 635Q499 635 505 645T514 668H532Q530 645 518 631T483 616Q472 616 463 620T444 630T426 639T408 644Q394 644 387 635T378 612H361Z" />
<glyph unicode="&#xe4;" glyph-name="adieresis" horiz-adv-x="307" d="M116 -5Q62 -5 32 27T10 128L15 175Q18 208 28 229T55 265T94 291T144 314Q208 340 233 358T261 398L265 441Q271 494 253 522T183 550Q135 550 112 525T83 451L78 398H53L58 452Q65 509
95 540T183 572Q246 572 272 538T290 441L245 0H219L226 62H224Q211 35 185 15T116 -5ZM121 17Q141 17 160 23T194 43T219 76T232 122L256 354Q252 349 246 344T228 331T197 315T149 293Q124 282 105 272T72 250T51 220T40 176L35 128Q29 71 52 44T121 17ZM402
645H427L423 614H399L402 645ZM474 645H498L495 614H470L474 645Z" />
<glyph unicode="&#xe5;" glyph-name="aring" horiz-adv-x="307" d="M116 -5Q62 -5 32 27T10 128L15 175Q18 208 28 229T55 265T94 291T144 314Q208 340 233 358T261 398L265 441Q271 494 253 522T183 550Q135 550 112 525T83 451L78 398H53L58 452Q65 509 95 540T183
572Q246 572 272 538T290 441L245 0H219L226 62H224Q211 35 185 15T116 -5ZM121 17Q141 17 160 23T194 43T219 76T232 122L256 354Q252 349 246 344T228 331T197 315T149 293Q124 282 105 272T72 250T51 220T40 176L35 128Q29 71 52 44T121 17ZM448 592Q425 592
409 608T393 648Q393 671 409 687T448 704Q473 704 489 688T505 648Q505 624 489 608T448 592ZM448 607Q465 607 476 619T488 648Q488 665 477 677T448 689Q431 689 421 677T410 648Q410 631 420 619T448 607Z" />
<glyph unicode="&#xe6;" glyph-name="ae" horiz-adv-x="541" d="M358 -5Q310 -5 281 17T243 81H242Q231 41 201 18T126 -5Q67 -5 35 30T11 134L17 192Q24 258 55 286T149 314H255L269 445Q274 496 255 523T184 550Q136 550 112 525T82 451L77 398H52L57 452Q64
510 96 541T185 572Q230 572 255 554T288 501Q320 572 403 572Q466 572 496 535T519 428L505 293H278L262 137Q255 80 281 49T359 17Q410 17 433 44T464 131L469 181H494L488 130Q480 60 450 28T358 -5ZM131 16Q172 16 200 43T235 127L253 293H151Q99 293 73 269T41
190L36 134Q30 77 54 47T131 16ZM483 314L495 431Q501 488 477 519T402 550Q351 550 325 522T293 437L280 314H483Z" />
<glyph unicode="&#xe7;" glyph-name="ccedilla" horiz-adv-x="310" d="M87 -76Q109 -76 128 -73T148 -55Q148 -39 116 -39H106L111 -3Q60 4 35 41T16 142L47 434Q55 502 90 537T185 572Q249 572 278 537T299 436L295 398H270L274 437Q279 492 258 521T184 550Q85
550 73 435L41 137Q35 80 60 49T137 17Q186 17 212 41T243 120L249 181H274L268 120Q255 -5 136 -5H127L125 -22Q148 -22 160 -31T172 -54Q172 -77 147 -84T85 -92L87 -76Z" />
<glyph unicode="&#xe8;" glyph-name="egrave" d="M141 -5Q76 -5 43 34T17 142L48 436Q55 503 90 537T187 572Q250 572 281 535T304 428L290 294H58L42 140Q35 80 62 49T142 17Q192 17 217 44T248 131L253 181H278L273 130Q265 60 234 28T141 -5ZM267 315L279 429Q285
488 261 519T186 550Q85 550 73 436L60 315H267ZM371 652L373 673L512 611L510 593L371 652Z" />
<glyph unicode="&#xe9;" glyph-name="eacute" d="M389 612L541 673L538 651L387 593L389 612ZM141 -5Q76 -5 43 34T17 142L48 436Q55 503 90 537T187 572Q250 572 281 535T304 428L290 294H58L42 140Q35 80 62 49T142 17Q192 17 217 44T248 131L253 181H278L273
130Q265 60 234 28T141 -5ZM267 315L279 429Q285 488 261 519T186 550Q85 550 73 436L60 315H267Z" />
<glyph unicode="&#xea;" glyph-name="ecircumflex" d="M367 614L446 682H460L527 613L525 595L452 660L365 595L367 614ZM141 -5Q76 -5 43 34T17 142L48 436Q55 503 90 537T187 572Q250 572 281 535T304 428L290 294H58L42 140Q35 80 62 49T142 17Q192 17 217
44T248 131L253 181H278L273 130Q265 60 234 28T141 -5ZM267 315L279 429Q285 488 261 519T186 550Q85 550 73 436L60 315H267Z" />
<glyph unicode="&#xeb;" glyph-name="edieresis" d="M402 645H427L423 614H399L402 645ZM474 645H498L495 614H470L474 645ZM141 -5Q76 -5 43 34T17 142L48 436Q55 503 90 537T187 572Q250 572 281 535T304 428L290 294H58L42 140Q35 80 62 49T142 17Q192 17 217
44T248 131L253 181H278L273 130Q265 60 234 28T141 -5ZM267 315L279 429Q285 488 261 519T186 550Q85 550 73 436L60 315H267Z" />
<glyph unicode="&#xec;" glyph-name="igrave" horiz-adv-x="95" d="M30 651L32 673L124 611L122 593L30 651ZM64 567H89L30 0H5L64 567Z" />
<glyph unicode="&#xed;" glyph-name="iacute" horiz-adv-x="95" d="M40 613L144 673L141 651L37 593L40 613ZM64 567H89L30 0H5L64 567Z" />
<glyph unicode="&#xee;" glyph-name="icircumflex" horiz-adv-x="95" d="M24 615L82 682H96L138 615L136 595L88 660L22 595L24 615ZM64 567H89L30 0H5L64 567Z" />
<glyph unicode="&#xef;" glyph-name="idieresis" horiz-adv-x="95" d="M44 645H65L62 614H41L44 645ZM103 645H124L121 614H100L103 645ZM64 567H89L30 0H5L64 567Z" />
<glyph unicode="&#xf0;" glyph-name="eth" horiz-adv-x="324" d="M107 615L176 638L140 678H169L198 646L267 669L265 652L210 633L253 587Q284 555 297 517T306 426L275 132Q268 64 233 30T138 -5Q74 -5 42 34T17 142L48 434Q55 502 89 536T180 570Q206 570 228
561T267 528Q260 545 233 577L188 626L105 598L107 615ZM138 17Q237 17 249 131L281 429Q286 485 262 517T185 550Q85 550 73 435L42 137Q35 80 61 49T138 17Z" />
<glyph unicode="&#xf1;" glyph-name="ntilde" horiz-adv-x="314" d="M64 567H89L82 497H83Q89 510 99 523T123 548T155 565T197 572Q249 572 277 537T298 430L253 0H228L273 431Q279 489 258 519T189 550Q141 550 111 515T74 425L30 0H5L64 567ZM359 612Q361 634
373 649T408 664Q419 664 428 660T447 650T465 640T483 635Q497 635 503 645T512 668H530Q528 645 516 631T481 616Q470 616 461 620T442 630T424 639T406 644Q392 644 385 635T376 612H359Z" />
<glyph unicode="&#xf2;" glyph-name="ograve" horiz-adv-x="324" d="M138 -5Q74 -5 42 34T17 142L48 434Q55 502 90 537T185 572Q249 572 281 533T306 425L275 132Q268 64 233 30T138 -5ZM138 17Q237 17 249 131L281 429Q287 486 262 518T185 550Q85 550 73 435L42
137Q35 80 61 49T138 17ZM377 652L379 673L518 611L516 593L377 652Z" />
<glyph unicode="&#xf3;" glyph-name="oacute" horiz-adv-x="324" d="M389 612L541 673L538 651L387 593L389 612ZM138 -5Q74 -5 42 34T17 142L48 434Q55 502 90 537T185 572Q249 572 281 533T306 425L275 132Q268 64 233 30T138 -5ZM138 17Q237 17 249 131L281
429Q287 486 262 518T185 550Q85 550 73 435L42 137Q35 80 61 49T138 17Z" />
<glyph unicode="&#xf4;" glyph-name="ocircumflex" horiz-adv-x="324" d="M369 614L448 682H462L529 613L527 595L454 660L367 595L369 614ZM138 -5Q74 -5 42 34T17 142L48 434Q55 502 90 537T185 572Q249 572 281 533T306 425L275 132Q268 64 233 30T138 -5ZM138
17Q237 17 249 131L281 429Q287 486 262 518T185 550Q85 550 73 435L42 137Q35 80 61 49T138 17Z" />
<glyph unicode="&#xf5;" glyph-name="otilde" horiz-adv-x="324" d="M138 -5Q74 -5 42 34T17 142L48 434Q55 502 90 537T185 572Q249 572 281 533T306 425L275 132Q268 64 233 30T138 -5ZM138 17Q237 17 249 131L281 429Q287 486 262 518T185 550Q85 550 73 435L42
137Q35 80 61 49T138 17ZM366 612Q368 634 380 649T415 664Q426 664 435 660T454 650T472 640T490 635Q504 635 510 645T519 668H537Q535 645 523 631T488 616Q477 616 468 620T449 630T431 639T413 644Q399 644 392 635T383 612H366Z" />
<glyph unicode="&#xf6;" glyph-name="odieresis" horiz-adv-x="324" d="M408 645H433L429 614H405L408 645ZM480 645H504L501 614H476L480 645ZM138 -5Q74 -5 42 34T17 142L48 434Q55 502 90 537T185 572Q249 572 281 533T306 425L275 132Q268 64 233 30T138 -5ZM138
17Q237 17 249 131L281 429Q287 486 262 518T185 550Q85 550 73 435L42 137Q35 80 61 49T138 17Z" />
<glyph unicode="&#xf7;" glyph-name="divide" horiz-adv-x="347" d="M32 346H326L324 324H30L32 346ZM155 242H181L178 208H151L155 242ZM179 467H205L202 433H175L179 467Z" />
<glyph unicode="&#xf8;" glyph-name="oslash" horiz-adv-x="324" d="M52 23Q8 62 17 142L48 434Q55 502 90 537T185 572Q226 572 255 554L270 592H290L271 542Q313 503 306 425L275 132Q268 64 233 30T138 -5Q97 -5 68 12L52 -31H32L52 23ZM42 137Q34 78 61 47L247
532Q223 550 185 550Q85 550 73 435L42 137ZM138 17Q237 17 249 131L281 429Q287 485 262 518L76 33Q99 17 138 17Z" />
<glyph unicode="&#xf9;" glyph-name="ugrave" horiz-adv-x="317" d="M122 -5Q69 -5 39 27T16 137L61 567H86L41 136Q34 71 58 44T127 17Q176 17 204 52T239 142L284 567H309L250 0H225L232 69H231Q218 42 193 19T122 -5ZM369 652L371 673L510 611L508 593L369 652Z" />
<glyph unicode="&#xfa;" glyph-name="uacute" horiz-adv-x="317" d="M381 612L533 673L530 651L379 593L381 612ZM122 -5Q69 -5 39 27T16 137L61 567H86L41 136Q34 71 58 44T127 17Q176 17 204 52T239 142L284 567H309L250 0H225L232 69H231Q218 42 193 19T122 -5Z" />
<glyph unicode="&#xfb;" glyph-name="ucircumflex" horiz-adv-x="317" d="M364 614L443 682H457L524 613L522 595L449 660L362 595L364 614ZM122 -5Q69 -5 39 27T16 137L61 567H86L41 136Q34 71 58 44T127 17Q176 17 204 52T239 142L284 567H309L250 0H225L232
69H231Q218 42 193 19T122 -5Z" />
<glyph unicode="&#xfc;" glyph-name="udieresis" horiz-adv-x="317" d="M400 645H425L421 614H397L400 645ZM472 645H496L493 614H468L472 645ZM122 -5Q69 -5 39 27T16 137L61 567H86L41 136Q34 71 58 44T127 17Q176 17 204 52T239 142L284 567H309L250 0H225L232
69H231Q218 42 193 19T122 -5Z" />
<glyph unicode="&#xfd;" glyph-name="yacute" horiz-adv-x="292" d="M-5 -69H20Q36 -69 46 -67T62 -58T73 -43T83 -19L111 58H103L36 567H61L123 96H124L289 567H315L106 -25Q100 -43 94 -55T78 -75T55 -86T21 -90H-8L-5 -69ZM377 612L529 673L526 651L375 593L377 612Z" />
<glyph unicode="&#xfe;" glyph-name="thorn" horiz-adv-x="321" d="M76 678H101L82 496H83Q97 526 123 549T197 572Q251 572 281 539T305 436L272 121Q265 55 232 25T144 -5Q98 -5 72 16T38 67H37L21 -90H-4L76 678ZM138 17Q237 17 247 123L280 437Q285 492 261
521T189 550Q144 550 113 519T74 425L44 131Q38 75 65 46T138 17Z" />
<glyph unicode="&#xff;" glyph-name="ydieresis" horiz-adv-x="292" d="M-5 -69H20Q36 -69 46 -67T62 -58T73 -43T83 -19L111 58H103L36 567H61L123 96H124L289 567H315L106 -25Q100 -43 94 -55T78 -75T55 -86T21 -90H-8L-5 -69ZM389 645H414L410 614H386L389
645ZM461 645H485L482 614H457L461 645Z" />
<glyph unicode="&#x100;" glyph-name="Amacron" horiz-adv-x="341" d="M190 678H226L296 0H270L251 188H67L10 0H-16L190 678ZM74 211H248L205 641H204L74 211ZM399 739H544L542 720H397L399 739Z" />
<glyph unicode="&#x101;" glyph-name="amacron" horiz-adv-x="307" d="M116 -5Q62 -5 32 27T10 128L15 175Q18 208 28 229T55 265T94 291T144 314Q208 340 233 358T261 398L265 441Q271 494 253 522T183 550Q135 550 112 525T83 451L78 398H53L58 452Q65 509 95
540T183 572Q246 572 272 538T290 441L245 0H219L226 62H224Q211 35 185 15T116 -5ZM121 17Q141 17 160 23T194 43T219 76T232 122L256 354Q252 349 246 344T228 331T197 315T149 293Q124 282 105 272T72 250T51 220T40 176L35 128Q29 71 52 44T121 17ZM377 634H522L520
615H375L377 634Z" />
<glyph unicode="&#x102;" glyph-name="Abreve" horiz-adv-x="341" d="M190 678H226L296 0H270L251 188H67L10 0H-16L190 678ZM74 211H248L205 641H204L74 211ZM473 702Q439 702 418 723T399 779H418Q417 752 432 737T473 722Q498 722 514 736T534 779H553Q549
741 527 722T473 702Z" />
<glyph unicode="&#x103;" glyph-name="abreve" horiz-adv-x="307" d="M116 -5Q62 -5 32 27T10 128L15 175Q18 208 28 229T55 265T94 291T144 314Q208 340 233 358T261 398L265 441Q271 494 253 522T183 550Q135 550 112 525T83 451L78 398H53L58 452Q65 509 95
540T183 572Q246 572 272 538T290 441L245 0H219L226 62H224Q211 35 185 15T116 -5ZM121 17Q141 17 160 23T194 43T219 76T232 122L256 354Q252 349 246 344T228 331T197 315T149 293Q124 282 105 272T72 250T51 220T40 176L35 128Q29 71 52 44T121 17ZM450 597Q416
597 395 618T376 674H395Q394 647 409 632T450 617Q475 617 491 631T511 674H530Q526 636 504 617T450 597Z" />
<glyph unicode="&#x104;" glyph-name="Aogonek" horiz-adv-x="341" d="M282 -90Q256 -90 245 -80T233 -53Q233 -34 244 -22T270 0L251 188H67L10 0H-16L190 678H226L296 0Q284 -9 271 -21T258 -49Q258 -57 263 -63T285 -69H295L292 -90H282ZM248 211L205 641H204L73
211H248Z" />
<glyph unicode="&#x105;" glyph-name="aogonek" horiz-adv-x="307" d="M245 0Q233 -9 220 -21T207 -49Q207 -57 212 -63T234 -69H244L241 -90H231Q205 -90 194 -80T182 -53Q182 -34 193 -22T219 0L226 62H224Q211 35 185 15T116 -5Q62 -5 32 27T10 128L15 175Q18
208 28 229T55 265T94 291T144 314Q208 340 233 358T261 398L265 441Q271 494 253 522T183 550Q135 550 112 525T83 451L78 398H53L58 452Q65 509 95 540T183 572Q246 572 272 538T290 441L245 0ZM121 17Q141 17 160 23T194 43T219 76T232 122L256 354Q252 349
246 344T228 331T197 315T149 293Q124 282 105 272T72 250T51 220T40 176L35 128Q29 71 52 44T121 17Z" />
<glyph unicode="&#x106;" glyph-name="Cacute" horiz-adv-x="336" d="M407 717L559 778L556 756L405 698L407 717ZM153 -5Q112 -5 85 8T42 45T21 100T20 167L58 531Q61 565 71 593T98 641T142 672T206 683Q245 683 271 672T311 640T329 592T330 530L322 454H296L304
531Q307 559 304 583T290 624T259 651T206 661Q145 661 118 626T84 533L46 162Q43 132 46 106T63 60T98 29T154 17Q185 17 205 25T238 49T257 87T266 136L279 260H305L292 136Q288 104 280 78T256 34T215 5T153 -5Z" />
<glyph unicode="&#x107;" glyph-name="cacute" horiz-adv-x="310" d="M389 612L541 673L538 651L387 593L389 612ZM136 -5Q72 -5 41 34T16 142L47 434Q55 502 90 537T185 572Q249 572 278 537T299 436L295 398H270L274 437Q279 492 258 521T184 550Q85 550 73
435L41 137Q35 80 60 49T137 17Q186 17 212 41T243 120L249 181H274L268 120Q255 -5 136 -5Z" />
<glyph unicode="&#x108;" glyph-name="Ccircumflex" horiz-adv-x="336" d="M390 719L469 787H483L550 718L548 700L475 765L388 700L390 719ZM153 -5Q112 -5 85 8T42 45T21 100T20 167L58 531Q61 565 71 593T98 641T142 672T206 683Q245 683 271 672T311 640T329
592T330 530L322 454H296L304 531Q307 559 304 583T290 624T259 651T206 661Q145 661 118 626T84 533L46 162Q43 132 46 106T63 60T98 29T154 17Q185 17 205 25T238 49T257 87T266 136L279 260H305L292 136Q288 104 280 78T256 34T215 5T153 -5Z" />
<glyph unicode="&#x109;" glyph-name="ccircumflex" horiz-adv-x="310" d="M369 614L448 682H462L529 613L527 595L454 660L367 595L369 614ZM136 -5Q72 -5 41 34T16 142L47 434Q55 502 90 537T185 572Q249 572 278 537T299 436L295 398H270L274 437Q279 492 258
521T184 550Q85 550 73 435L41 137Q35 80 60 49T137 17Q186 17 212 41T243 120L249 181H274L268 120Q255 -5 136 -5Z" />
<glyph unicode="&#x10a;" glyph-name="Cdotaccent" horiz-adv-x="336" d="M153 -5Q112 -5 85 8T42 45T21 100T20 167L58 531Q61 565 71 593T98 641T142 672T206 683Q245 683 271 672T311 640T329 592T330 530L322 454H296L304 531Q307 559 304 583T290 624T259
651T206 661Q145 661 118 626T84 533L46 162Q43 132 46 106T63 60T98 29T154 17Q185 17 205 25T238 49T257 87T266 136L279 260H305L292 136Q288 104 280 78T256 34T215 5T153 -5ZM457 750H483L480 719H454L457 750Z" />
<glyph unicode="&#x10b;" glyph-name="cdotaccent" horiz-adv-x="310" d="M136 -5Q72 -5 41 34T16 142L47 434Q55 502 90 537T185 572Q249 572 278 537T299 436L295 398H270L274 437Q279 492 258 521T184 550Q85 550 73 435L41 137Q35 80 60 49T137 17Q186 17
212 41T243 120L249 181H274L268 120Q255 -5 136 -5ZM441 678H467L464 647H438L441 678Z" />
<glyph unicode="&#x10c;" glyph-name="Ccaron" horiz-adv-x="336" d="M394 770L396 789L469 724L557 789L555 770L475 702H461L394 770ZM153 -5Q112 -5 85 8T42 45T21 100T20 167L58 531Q61 565 71 593T98 641T142 672T206 683Q245 683 271 672T311 640T329 592T330
530L322 454H296L304 531Q307 559 304 583T290 624T259 651T206 661Q145 661 118 626T84 533L46 162Q43 132 46 106T63 60T98 29T154 17Q185 17 205 25T238 49T257 87T266 136L279 260H305L292 136Q288 104 280 78T256 34T215 5T153 -5Z" />
<glyph unicode="&#x10d;" glyph-name="ccaron" horiz-adv-x="310" d="M373 665L375 684L448 619L536 684L534 665L454 597H440L373 665ZM136 -5Q72 -5 41 34T16 142L47 434Q55 502 90 537T185 572Q249 572 278 537T299 436L295 398H270L274 437Q279 492 258 521T184
550Q85 550 73 435L41 137Q35 80 60 49T137 17Q186 17 212 41T243 120L249 181H274L268 120Q255 -5 136 -5Z" />
<glyph unicode="&#x10e;" glyph-name="Dcaron" horiz-adv-x="343" d="M376 770L378 789L451 724L539 789L537 770L457 702H443L376 770ZM132 22Q200 22 232 58T269 150L307 512Q310 542 307 568T290 613T253 644T192 656H99L32 22H132ZM76 678H196Q240 678 268
665T312 628T332 574T333 507L296 151Q293 119 282 91T252 43T203 12T134 0H5L76 678Z" />
<glyph unicode="&#x10f;" glyph-name="dcaron" horiz-adv-x="321" d="M355 678H377V676L359 587H342L355 678ZM126 -5Q72 -5 41 28T16 131L49 446Q56 512 91 542T177 572Q223 572 249 551T283 500H284L302 678H327L257 0H232L239 71H238Q226 42 200 19T126 -5ZM132
16Q177 16 208 48T246 142L277 436Q283 491 255 520T183 550Q136 550 108 524T74 444L42 130Q36 75 60 46T132 16Z" />
<glyph unicode="&#x110;" glyph-name="Dcroat" horiz-adv-x="353" d="M19 356H52L86 678H207Q250 678 278 665T322 628T342 574T343 507L306 151Q303 119 292 91T262 43T213 12T144 0H15L50 334H17L19 356ZM142 22Q210 22 242 58T279 150L317 512Q320 542 317
568T300 613T264 644T203 656H110L78 356H209L207 334H76L43 22H142Z" />
<glyph unicode="&#x111;" glyph-name="dcroat" horiz-adv-x="321" d="M190 631H297L302 678H327L322 631H360L358 614H320L257 0H232L239 71H238Q226 42 200 19T126 -5Q72 -5 41 28T16 131L49 446Q56 512 91 542T177 572Q223 572 249 551T283 500H284L295 614H188L190
631ZM132 16Q177 16 208 48T246 142L277 436Q283 491 255 520T183 550Q136 550 108 524T74 444L42 130Q36 75 60 46T132 16Z" />
<glyph unicode="&#x112;" glyph-name="Emacron" horiz-adv-x="299" d="M76 678H309L306 656H99L68 356H221L218 334H66L33 22H243L241 0H5L76 678ZM380 739H525L523 720H378L380 739Z" />
<glyph unicode="&#x113;" glyph-name="emacron" d="M141 -5Q76 -5 43 34T17 142L48 436Q55 503 90 537T187 572Q250 572 281 535T304 428L290 294H58L42 140Q35 80 62 49T142 17Q192 17 217 44T248 131L253 181H278L273 130Q265 60 234 28T141 -5ZM267 315L279
429Q285 488 261 519T186 550Q85 550 73 436L60 315H267ZM377 634H522L520 615H375L377 634Z" />
<glyph unicode="&#x114;" glyph-name="Ebreve" horiz-adv-x="299" d="M76 678H309L306 656H99L68 356H221L218 334H66L33 22H243L241 0H5L76 678ZM454 702Q420 702 399 723T380 779H399Q398 752 413 737T454 722Q479 722 495 736T515 779H534Q530 741 508 722T454 702Z" />
<glyph unicode="&#x115;" glyph-name="ebreve" d="M141 -5Q76 -5 43 34T17 142L48 436Q55 503 90 537T187 572Q250 572 281 535T304 428L290 294H58L42 140Q35 80 62 49T142 17Q192 17 217 44T248 131L253 181H278L273 130Q265 60 234 28T141 -5ZM267 315L279
429Q285 488 261 519T186 550Q85 550 73 436L60 315H267ZM450 597Q416 597 395 618T376 674H395Q394 647 409 632T450 617Q475 617 491 631T511 674H530Q526 636 504 617T450 597Z" />
<glyph unicode="&#x116;" glyph-name="Edotaccent" horiz-adv-x="299" d="M76 678H309L306 656H99L68 356H221L218 334H66L33 22H243L241 0H5L76 678ZM441 750H467L464 719H438L441 750Z" />
<glyph unicode="&#x117;" glyph-name="edotaccent" d="M141 -5Q76 -5 43 34T17 142L48 436Q55 503 90 537T187 572Q250 572 281 535T304 428L290 294H58L42 140Q35 80 62 49T142 17Q192 17 217 44T248 131L253 181H278L273 130Q265 60 234 28T141 -5ZM267 315L279
429Q285 488 261 519T186 550Q85 550 73 436L60 315H267ZM441 678H467L464 647H438L441 678Z" />
<glyph unicode="&#x118;" glyph-name="Eogonek" horiz-adv-x="299" d="M5 0L76 678H309L306 656H99L68 356H221L218 334H66L33 22H243L241 0H217Q205 -9 192 -21T179 -49Q179 -57 184 -63T206 -69H216L213 -90H203Q177 -90 166 -80T154 -53Q154 -34 165 -22T191 0H5Z" />
<glyph unicode="&#x119;" glyph-name="eogonek" d="M130 -53Q130 -37 138 -26T162 -4Q155 -5 150 -5H141Q76 -5 43 34T17 142L48 436Q55 503 90 537T187 572Q250 572 281 535T304 428L290 294H58L42 140Q35 80 62 49T142 17Q192 17 217 44T248 131L253 181H278L273
130Q264 46 218 15Q210 9 199 3T178 -12T162 -29T155 -49Q155 -57 160 -63T182 -69H192L189 -90H179Q153 -90 142 -80T130 -53ZM267 315L279 429Q285 488 261 519T186 550Q85 550 73 436L60 315H267Z" />
<glyph unicode="&#x11a;" glyph-name="Ecaron" horiz-adv-x="299" d="M375 770L377 789L450 724L538 789L536 770L456 702H442L375 770ZM76 678H309L306 656H99L68 356H221L218 334H66L33 22H243L241 0H5L76 678Z" />
<glyph unicode="&#x11b;" glyph-name="ecaron" d="M370 665L372 684L445 619L533 684L531 665L451 597H437L370 665ZM141 -5Q76 -5 43 34T17 142L48 436Q55 503 90 537T187 572Q250 572 281 535T304 428L290 294H58L42 140Q35 80 62 49T142 17Q192 17 217 44T248
131L253 181H278L273 130Q265 60 234 28T141 -5ZM267 315L279 429Q285 488 261 519T186 550Q85 550 73 436L60 315H267Z" />
<glyph unicode="&#x11c;" glyph-name="Gcircumflex" horiz-adv-x="344" d="M391 719L470 787H484L551 718L549 700L476 765L389 700L391 719ZM145 -5Q107 -5 82 9T41 46T21 101T20 167L58 531Q61 563 70 590T98 638T143 671T207 683Q248 683 274 672T313 640T330
592T330 529L324 474H299L306 532Q309 560 307 584T293 625T261 651T206 661Q176 661 154 651T118 624T95 583T84 533L46 162Q43 133 46 107T62 61T96 29T150 17Q180 17 201 26T237 53T258 93T268 144L285 309H186L188 331H312L278 0H254L262 69Q249 38 223 17T145
-5Z" />
<glyph unicode="&#x11d;" glyph-name="gcircumflex" d="M363 614L442 682H456L523 613L521 595L448 660L361 595L363 614ZM142 106Q187 106 218 138T256 232L277 436Q283 491 255 520T183 550Q137 550 108 524T74 444L51 219Q45 165 69 136T142 106ZM130 -95Q67
-95 35 -63T8 30L10 49H35L33 30Q28 -22 53 -47T130 -73Q178 -73 203 -48T234 20L249 161H248Q235 131 208 108T134 85Q81 85 50 118T25 220L49 446Q56 512 91 542T177 572Q223 572 249 551T283 500H284L291 567H316L259 20Q254 -34 222 -64T130 -95Z" />
<glyph unicode="&#x11e;" glyph-name="Gbreve" horiz-adv-x="344" d="M145 -5Q107 -5 82 9T41 46T21 101T20 167L58 531Q61 563 70 590T98 638T143 671T207 683Q248 683 274 672T313 640T330 592T330 529L324 474H299L306 532Q309 560 307 584T293 625T261 651T206
661Q176 661 154 651T118 624T95 583T84 533L46 162Q43 133 46 107T62 61T96 29T150 17Q180 17 201 26T237 53T258 93T268 144L285 309H186L188 331H312L278 0H254L262 69Q249 38 223 17T145 -5ZM473 702Q439 702 418 723T399 779H418Q417 752 432 737T473 722Q498
722 514 736T534 779H553Q549 741 527 722T473 702Z" />
<glyph unicode="&#x11f;" glyph-name="gbreve" d="M142 106Q187 106 218 138T256 232L277 436Q283 491 255 520T183 550Q137 550 108 524T74 444L51 219Q45 165 69 136T142 106ZM130 -95Q67 -95 35 -63T8 30L10 49H35L33 30Q28 -22 53 -47T130 -73Q178 -73 203
-48T234 20L249 161H248Q235 131 208 108T134 85Q81 85 50 118T25 220L49 446Q56 512 91 542T177 572Q223 572 249 551T283 500H284L291 567H316L259 20Q254 -34 222 -64T130 -95ZM446 597Q412 597 391 618T372 674H391Q390 647 405 632T446 617Q471 617 487 631T507
674H526Q522 636 500 617T446 597Z" />
<glyph unicode="&#x120;" glyph-name="Gdotaccent" horiz-adv-x="344" d="M145 -5Q107 -5 82 9T41 46T21 101T20 167L58 531Q61 563 70 590T98 638T143 671T207 683Q248 683 274 672T313 640T330 592T330 529L324 474H299L306 532Q309 560 307 584T293 625T261
651T206 661Q176 661 154 651T118 624T95 583T84 533L46 162Q43 133 46 107T62 61T96 29T150 17Q180 17 201 26T237 53T258 93T268 144L285 309H186L188 331H312L278 0H254L262 69Q249 38 223 17T145 -5ZM461 750H487L484 719H458L461 750Z" />
<glyph unicode="&#x121;" glyph-name="gdotaccent" d="M142 106Q187 106 218 138T256 232L277 436Q283 491 255 520T183 550Q137 550 108 524T74 444L51 219Q45 165 69 136T142 106ZM130 -95Q67 -95 35 -63T8 30L10 49H35L33 30Q28 -22 53 -47T130 -73Q178 -73
203 -48T234 20L249 161H248Q235 131 208 108T134 85Q81 85 50 118T25 220L49 446Q56 512 91 542T177 572Q223 572 249 551T283 500H284L291 567H316L259 20Q254 -34 222 -64T130 -95ZM437 678H463L460 647H434L437 678Z" />
<glyph unicode="&#x122;" glyph-name="Gcommaaccent" horiz-adv-x="344" d="M379 -18H404V-20L382 -90H363L379 -18ZM145 -5Q107 -5 82 9T41 46T21 101T20 167L58 531Q61 563 70 590T98 638T143 671T207 683Q248 683 274 672T313 640T330 592T330 529L324 474H299L306
532Q309 560 307 584T293 625T261 651T206 661Q176 661 154 651T118 624T95 583T84 533L46 162Q43 133 46 107T62 61T96 29T150 17Q180 17 201 26T237 53T258 93T268 144L285 309H186L188 331H312L278 0H254L262 69Q249 38 223 17T145 -5Z" />
<glyph unicode="&#x123;" glyph-name="gcommaaccent" d="M433 605L454 675H474L457 603H433V605ZM142 106Q187 106 218 138T256 232L277 436Q283 491 255 520T183 550Q137 550 108 524T74 444L51 219Q45 165 69 136T142 106ZM130 -95Q67 -95 35 -63T8 30L10 49H35L33
30Q28 -22 53 -47T130 -73Q178 -73 203 -48T234 20L249 161H248Q235 131 208 108T134 85Q81 85 50 118T25 220L49 446Q56 512 91 542T177 572Q223 572 249 551T283 500H284L291 567H316L259 20Q254 -34 222 -64T130 -95Z" />
<glyph unicode="&#x124;" glyph-name="Hcircumflex" horiz-adv-x="337" d="M390 719L469 787H483L550 718L548 700L475 765L388 700L390 719ZM281 334H66L31 0H5L76 678H102L68 356H283L317 678H344L273 0H246L281 334Z" />
<glyph unicode="&#x125;" glyph-name="hcircumflex" horiz-adv-x="314" d="M381 719L460 787H474L541 718L539 700L466 765L379 700L381 719ZM76 678H101L82 497H83Q89 510 99 523T123 548T155 565T197 572Q249 572 277 537T298 430L253 0H228L273 431Q279 489
258 519T189 550Q141 550 111 515T74 425L30 0H5L76 678Z" />
<glyph unicode="&#x126;" glyph-name="Hbar" horiz-adv-x="337" d="M23 503H57L76 678H102L83 503H298L317 678H344L325 503H360L358 483H323L273 0H246L281 334H66L31 0H5L55 483H21L23 503ZM68 356H283L296 483H81L68 356Z" />
<glyph unicode="&#x127;" glyph-name="hbar" horiz-adv-x="314" d="M35 631H71L76 678H101L96 631H206L203 614H94L82 497H83Q89 510 99 523T123 548T155 565T197 572Q249 572 277 537T298 430L253 0H228L273 431Q279 489 258 519T189 550Q141 550 111 515T74
425L30 0H5L69 614H33L35 631Z" />
<glyph unicode="&#x128;" glyph-name="Itilde" horiz-adv-x="95" d="M76 678H102L31 0H5L76 678ZM11 722Q13 744 25 759T60 774Q71 774 80 770T99 760T117 750T135 745Q149 745 155 755T164 778H182Q180 755 168 741T133 726Q122 726 113 730T94 740T76 749T58
754Q44 754 37 745T28 722H11Z" />
<glyph unicode="&#x129;" glyph-name="itilde" horiz-adv-x="95" d="M11 612Q14 638 25 651T52 664Q61 664 70 660T87 650T102 640T116 635Q136 635 139 668H156Q151 616 116 616Q107 616 98 620T81 630T66 640T52 645Q42 645 36 636T28 612H11ZM64 567H89L30
0H5L64 567Z" />
<glyph unicode="&#x12a;" glyph-name="Imacron" horiz-adv-x="95" d="M76 678H102L31 0H5L76 678ZM23 739H168L166 720H21L23 739Z" />
<glyph unicode="&#x12b;" glyph-name="imacron" horiz-adv-x="95" d="M35 634H132L130 615H33L35 634ZM64 567H89L30 0H5L64 567Z" />
<glyph unicode="&#x12c;" glyph-name="Ibreve" horiz-adv-x="95" d="M76 678H102L31 0H5L76 678ZM97 707Q63 707 42 728T23 784H42Q41 757 56 742T97 727Q122 727 138 741T158 784H177Q173 746 151 727T97 707Z" />
<glyph unicode="&#x12d;" glyph-name="ibreve" horiz-adv-x="95" d="M84 597Q57 597 41 617T28 674H47Q44 645 54 631T85 616Q103 616 114 629T129 674H147Q144 635 127 616T84 597ZM64 567H89L30 0H5L64 567Z" />
<glyph unicode="&#x12e;" glyph-name="Iogonek" horiz-adv-x="95" d="M31 0Q19 -9 6 -21T-7 -49Q-7 -57 -2 -63T20 -69H30L27 -90H17Q-9 -90 -20 -80T-32 -53Q-32 -34 -21 -22T5 0L76 678H102L31 0Z" />
<glyph unicode="&#x12f;" glyph-name="iogonek" horiz-adv-x="95" d="M76 678H101L98 647H72L76 678ZM64 567H89L30 0Q18 -9 5 -21T-8 -49Q-8 -57 -3 -63T19 -69H29L26 -90H16Q-10 -90 -21 -80T-33 -53Q-33 -34 -21 -22T5 0L64 567Z" />
<glyph unicode="&#x130;" glyph-name="Idotaccent" horiz-adv-x="95" d="M76 678H102L31 0H5L76 678ZM84 750H110L107 719H81L84 750Z" />
<glyph unicode="&#x131;" glyph-name="dotlessi" horiz-adv-x="95" d="M64 567H89L30 0H5L64 567Z" />
<glyph unicode="&#x132;" glyph-name="IJ" horiz-adv-x="383" d="M76 678H102L31 0H5L76 678ZM207 -5Q142 -5 117 32T98 129L112 260H137L123 128Q118 77 138 47T207 17Q254 17 277 41T306 111L365 678H391L332 112Q325 54 296 25T207 -5Z" />
<glyph unicode="&#x133;" glyph-name="ij" horiz-adv-x="95" d="M64 567H89L30 0H5L64 567ZM76 678H101L98 647H72L76 678ZM40 -69H51Q72 -69 79 -60T89 -30L152 567H177L115 -31Q111 -63 98 -76T53 -90H38L40 -69ZM164 678H189L186 647H160L164 678Z" />
<glyph unicode="&#x134;" glyph-name="Jcircumflex" horiz-adv-x="295" d="M215 719L294 787H308L375 718L373 700L300 765L213 700L215 719ZM120 -5Q55 -5 30 32T11 129L25 260H50L36 128Q31 77 51 47T120 17Q167 17 190 41T219 111L278 678H304L245 112Q238
54 209 25T120 -5Z" />
<glyph unicode="&#x135;" glyph-name="jcircumflex" horiz-adv-x="95" d="M24 615L82 682H96L138 615L136 595L88 660L22 595L24 615ZM-48 -69H-37Q-16 -69 -9 -60T1 -30L64 567H89L27 -31Q23 -63 10 -76T-35 -90H-50L-48 -69Z" />
<glyph unicode="&#x136;" glyph-name="Kcommaaccent" horiz-adv-x="311" d="M371 -18H396V-20L374 -90H355L371 -18ZM67 343L31 0H5L76 678H102L68 353L313 678H342L93 347L272 0H244L67 343Z" />
<glyph unicode="&#x137;" glyph-name="kcommaaccent" horiz-adv-x="276" d="M354 -18H379V-20L357 -90H338L354 -18ZM61 297L30 0H5L76 678H101L61 302L263 567H290L87 298L237 0H210L61 297Z" />
<glyph unicode="&#x139;" glyph-name="Lacute" horiz-adv-x="262" d="M300 717L452 778L449 756L298 698L300 717ZM76 678H102L33 22H215L213 0H5L76 678Z" />
<glyph unicode="&#x13a;" glyph-name="lacute" horiz-adv-x="95" d="M41 717L193 778L190 756L39 698L41 717ZM76 678H101L30 0H5L76 678Z" />
<glyph unicode="&#x13b;" glyph-name="Lcommaaccent" horiz-adv-x="264" d="M350 -18H375V-20L353 -90H334L350 -18ZM76 678H102L33 22H215L213 0H5L76 678Z" />
<glyph unicode="&#x13c;" glyph-name="lcommaaccent" horiz-adv-x="95" d="M2 -18H27V-20L5 -90H-14L2 -18ZM76 678H101L30 0H5L76 678Z" />
<glyph unicode="&#x13d;" glyph-name="Lcaron" horiz-adv-x="262" d="M76 678H102L33 22H215L213 0H5L76 678ZM181 678H204V676L185 579H166L181 678Z" />
<glyph unicode="&#x13e;" glyph-name="lcaron" horiz-adv-x="95" d="M384 678H406V676L388 587H371L384 678ZM76 678H101L30 0H5L76 678Z" />
<glyph unicode="&#x13f;" glyph-name="Ldot" horiz-adv-x="264" d="M76 678H102L33 22H215L213 0H5L76 678ZM173 355H199L196 320H169L173 355Z" />
<glyph unicode="&#x140;" glyph-name="ldot" horiz-adv-x="134" d="M76 678H101L30 0H5L76 678ZM105 359H131L128 324H101L105 359Z" />
<glyph unicode="&#x141;" glyph-name="Lslash" horiz-adv-x="275" d="M7 277L46 296L86 678H112L73 309L212 376L210 352L71 285L43 22H226L224 0H15L43 271L5 253L7 277Z" />
<glyph unicode="&#x142;" glyph-name="lslash" horiz-adv-x="102" d="M13 356L49 387L80 678H105L77 411L118 446L115 420L74 385L34 0H9L47 361L10 330L13 356Z" />
<glyph unicode="&#x143;" glyph-name="Nacute" horiz-adv-x="332" d="M411 717L563 778L560 756L409 698L411 717ZM76 678H108L250 65L314 678H338L267 0H240L94 630L28 0H5L76 678Z" />
<glyph unicode="&#x144;" glyph-name="nacute" horiz-adv-x="314" d="M380 612L532 673L529 651L378 593L380 612ZM64 567H89L82 497H83Q89 510 99 523T123 548T155 565T197 572Q249 572 277 537T298 430L253 0H228L273 431Q279 489 258 519T189 550Q141 550 111
515T74 425L30 0H5L64 567Z" />
<glyph unicode="&#x145;" glyph-name="Ncommaaccent" horiz-adv-x="332" d="M376 -18H401V-20L379 -90H360L376 -18ZM76 678H108L250 65L314 678H338L267 0H240L94 630L28 0H5L76 678Z" />
<glyph unicode="&#x146;" glyph-name="ncommaaccent" horiz-adv-x="314" d="M374 -18H399V-20L377 -90H358L374 -18ZM64 567H89L82 497H83Q89 510 99 523T123 548T155 565T197 572Q249 572 277 537T298 430L253 0H228L273 431Q279 489 258 519T189 550Q141 550
111 515T74 425L30 0H5L64 567Z" />
<glyph unicode="&#x147;" glyph-name="Ncaron" horiz-adv-x="332" d="M393 770L395 789L468 724L556 789L554 770L474 702H460L393 770ZM76 678H108L250 65L314 678H338L267 0H240L94 630L28 0H5L76 678Z" />
<glyph unicode="&#x148;" glyph-name="ncaron" horiz-adv-x="314" d="M370 665L372 684L445 619L533 684L531 665L451 597H437L370 665ZM64 567H89L82 497H83Q89 510 99 523T123 548T155 565T197 572Q249 572 277 537T298 430L253 0H228L273 431Q279 489 258 519T189
550Q141 550 111 515T74 425L30 0H5L64 567Z" />
<glyph unicode="&#x14a;" glyph-name="Eng" horiz-adv-x="332" d="M166 -69H184Q213 -69 225 -59T239 -29L241 -3L94 630L28 0H5L76 678H108L250 65L314 678H338L264 -31Q261 -60 243 -75T185 -90H164L166 -69Z" />
<glyph unicode="&#x14b;" glyph-name="eng" horiz-adv-x="314" d="M175 -69H186Q207 -69 214 -60T224 -30L273 431Q279 489 258 519T189 550Q141 550 111 515T74 425L30 0H5L64 567H89L82 497H83Q89 510 99 523T123 548T155 565T197 572Q249 572 277 537T298 430L250
-31Q246 -63 233 -76T188 -90H173L175 -69Z" />
<glyph unicode="&#x14c;" glyph-name="Omacron" horiz-adv-x="355" d="M406 739H551L549 720H404L406 739ZM156 17Q187 17 209 27T247 55T270 96T281 145L320 516Q323 546 319 572T302 618T266 649T210 661Q180 661 158 651T120 624T96 583T84 533L46 162Q43 132
47 106T64 60T100 29T156 17ZM156 -5Q116 -5 89 8T45 45T22 100T20 167L58 531Q61 562 71 590T100 638T146 671T211 683Q251 683 278 670T322 633T344 578T346 511L308 147Q305 116 295 89T267 40T221 7T156 -5Z" />
<glyph unicode="&#x14d;" glyph-name="omacron" horiz-adv-x="324" d="M382 634H527L525 615H380L382 634ZM138 -5Q74 -5 42 34T17 142L48 434Q55 502 90 537T185 572Q249 572 281 533T306 425L275 132Q268 64 233 30T138 -5ZM138 17Q237 17 249 131L281 429Q287
486 262 518T185 550Q85 550 73 435L42 137Q35 80 61 49T138 17Z" />
<glyph unicode="&#x14e;" glyph-name="Obreve" horiz-adv-x="355" d="M156 17Q187 17 209 27T247 55T270 96T281 145L320 516Q323 546 319 572T302 618T266 649T210 661Q180 661 158 651T120 624T96 583T84 533L46 162Q43 132 47 106T64 60T100 29T156 17ZM156
-5Q116 -5 89 8T45 45T22 100T20 167L58 531Q61 562 71 590T100 638T146 671T211 683Q251 683 278 670T322 633T344 578T346 511L308 147Q305 116 295 89T267 40T221 7T156 -5ZM483 707Q449 707 428 728T409 784H428Q427 757 442 742T483 727Q508 727 524 741T544
784H563Q559 746 537 727T483 707Z" />
<glyph unicode="&#x14f;" glyph-name="obreve" horiz-adv-x="324" d="M138 -5Q74 -5 42 34T17 142L48 434Q55 502 90 537T185 572Q249 572 281 533T306 425L275 132Q268 64 233 30T138 -5ZM138 17Q237 17 249 131L281 429Q287 486 262 518T185 550Q85 550 73 435L42
137Q35 80 61 49T138 17ZM456 597Q422 597 401 618T382 674H401Q400 647 415 632T456 617Q481 617 497 631T517 674H536Q532 636 510 617T456 597Z" />
<glyph unicode="&#x150;" glyph-name="Ohungarumlaut" horiz-adv-x="355" d="M475 787H499L452 700H432L475 787ZM543 787H567L520 700H500L543 787ZM156 17Q187 17 209 27T247 55T270 96T281 145L320 516Q323 546 319 572T302 618T266 649T210 661Q180 661 158
651T120 624T96 583T84 533L46 162Q43 132 47 106T64 60T100 29T156 17ZM156 -5Q116 -5 89 8T45 45T22 100T20 167L58 531Q61 562 71 590T100 638T146 671T211 683Q251 683 278 670T322 633T344 578T346 511L308 147Q305 116 295 89T267 40T221 7T156 -5Z" />
<glyph unicode="&#x151;" glyph-name="ohungarumlaut" horiz-adv-x="324" d="M450 682H474L427 595H407L450 682ZM518 682H542L495 595H475L518 682ZM138 -5Q74 -5 42 34T17 142L48 434Q55 502 90 537T185 572Q249 572 281 533T306 425L275 132Q268 64 233 30T138
-5ZM138 17Q237 17 249 131L281 429Q287 486 262 518T185 550Q85 550 73 435L42 137Q35 80 61 49T138 17Z" />
<glyph unicode="&#x152;" glyph-name="OE" horiz-adv-x="561" d="M153 -5Q114 -5 87 8T44 45T22 100T20 167L58 531Q61 563 72 590T101 638T147 671T211 683Q266 683 293 658T330 595L338 678H570L568 656H362L331 356H483L480 334H328L296 22H505L503 0H267L275
73Q261 41 234 18T153 -5ZM157 17Q218 17 247 54T282 147L321 516Q328 580 302 620T212 661Q181 661 159 651T120 624T96 583T84 533L45 162Q42 132 47 106T65 60T101 29T157 17Z" />
<glyph unicode="&#x153;" glyph-name="oe" horiz-adv-x="556" d="M137 -5Q74 -5 42 34T17 142L48 434Q55 502 90 537T184 572Q231 572 259 551T298 489Q329 572 421 572Q484 572 515 535T538 428L524 294H292L276 140Q269 80 295 49T375 17Q426 17 451 44T482
131L487 181H512L507 130Q499 60 468 28T375 -5Q328 -5 299 16T259 78Q229 -5 137 -5ZM138 17Q237 17 249 131L281 429Q287 486 262 518T185 550Q85 550 73 435L42 137Q35 80 61 49T138 17ZM501 315L513 429Q519 488 495 519T420 550Q321 550 307 436L294 315H501Z"
/>
<glyph unicode="&#x154;" glyph-name="Racute" horiz-adv-x="309" d="M389 717L541 778L538 756L387 698L389 717ZM67 342L31 0H5L76 678H191Q319 678 305 557L294 443Q288 388 257 361T163 333H100L272 0H244L67 342ZM161 355Q213 355 237 376T267 443L279 558Q284
608 263 632T189 656H99L68 355H161Z" />
<glyph unicode="&#x155;" glyph-name="racute" horiz-adv-x="188" d="M332 612L484 673L481 651L330 593L332 612ZM64 567H89L82 494H83Q95 524 124 546T196 569L193 543H189Q147 543 114 515T75 431L30 0H5L64 567Z" />
<glyph unicode="&#x156;" glyph-name="Rcommaaccent" horiz-adv-x="309" d="M376 -18H401V-20L379 -90H360L376 -18ZM67 342L31 0H5L76 678H191Q319 678 305 557L294 443Q288 388 257 361T163 333H100L272 0H244L67 342ZM161 355Q213 355 237 376T267 443L279
558Q284 608 263 632T189 656H99L68 355H161Z" />
<glyph unicode="&#x157;" glyph-name="rcommaaccent" horiz-adv-x="188" d="M3 -18H28V-20L6 -90H-13L3 -18ZM64 567H89L82 494H83Q95 524 124 546T196 569L193 543H189Q147 543 114 515T75 431L30 0H5L64 567Z" />
<glyph unicode="&#x158;" glyph-name="Rcaron" horiz-adv-x="309" d="M371 770L373 789L446 724L534 789L532 770L452 702H438L371 770ZM67 342L31 0H5L76 678H191Q319 678 305 557L294 443Q288 388 257 361T163 333H100L272 0H244L67 342ZM161 355Q213 355 237
376T267 443L279 558Q284 608 263 632T189 656H99L68 355H161Z" />
<glyph unicode="&#x159;" glyph-name="rcaron" horiz-adv-x="188" d="M314 665L316 684L389 619L477 684L475 665L395 597H381L314 665ZM64 567H89L82 494H83Q95 524 124 546T196 569L193 543H189Q147 543 114 515T75 431L30 0H5L64 567Z" />
<glyph unicode="&#x15a;" glyph-name="Sacute" horiz-adv-x="323" d="M397 717L549 778L546 756L395 698L397 717ZM141 -5Q72 -5 38 34T11 135L21 237H47L36 134Q31 83 57 50T142 17Q196 17 221 45T252 117L256 153Q261 197 246 231T192 309L132 377Q111 401 96
421T72 460T59 500T58 545L61 572Q67 628 102 655T192 683Q257 683 289 649T315 553L306 477H281L289 555Q294 607 268 634T192 661Q147 661 119 640T86 571L83 545Q81 524 84 506T95 470T118 435T150 396L210 329Q230 306 245 286T269 244T281 201T282 151L278
116Q273 62 240 29T141 -5Z" />
<glyph unicode="&#x15b;" glyph-name="sacute" horiz-adv-x="296" d="M370 612L522 673L519 651L368 593L370 612ZM125 -5Q59 -5 29 30T6 124L12 178H36L30 123Q25 74 48 46T125 17Q178 17 200 43T227 116L229 134Q233 171 222 198T171 260L108 313Q70 346 54
377T43 451L45 469Q50 516 80 544T167 572Q227 572 256 542T279 450L274 402H249L254 450Q259 502 237 526T167 550Q120 550 97 528T69 467L67 449Q63 416 75 390T126 331L188 278Q210 260 223 243T244 208T254 173T254 133L252 115Q245 58 218 27T125 -5Z" />
<glyph unicode="&#x15c;" glyph-name="Scircumflex" horiz-adv-x="323" d="M374 719L453 787H467L534 718L532 700L459 765L372 700L374 719ZM141 -5Q72 -5 38 34T11 135L21 237H47L36 134Q31 83 57 50T142 17Q196 17 221 45T252 117L256 153Q261 197 246 231T192
309L132 377Q111 401 96 421T72 460T59 500T58 545L61 572Q67 628 102 655T192 683Q257 683 289 649T315 553L306 477H281L289 555Q294 607 268 634T192 661Q147 661 119 640T86 571L83 545Q81 524 84 506T95 470T118 435T150 396L210 329Q230 306 245 286T269
244T281 201T282 151L278 116Q273 62 240 29T141 -5Z" />
<glyph unicode="&#x15d;" glyph-name="scircumflex" horiz-adv-x="296" d="M354 614L433 682H447L514 613L512 595L439 660L352 595L354 614ZM125 -5Q59 -5 29 30T6 124L12 178H36L30 123Q25 74 48 46T125 17Q178 17 200 43T227 116L229 134Q233 171 222 198T171
260L108 313Q70 346 54 377T43 451L45 469Q50 516 80 544T167 572Q227 572 256 542T279 450L274 402H249L254 450Q259 502 237 526T167 550Q120 550 97 528T69 467L67 449Q63 416 75 390T126 331L188 278Q210 260 223 243T244 208T254 173T254 133L252 115Q245
58 218 27T125 -5Z" />
<glyph unicode="&#x15e;" glyph-name="Scedilla" horiz-adv-x="323" d="M89 -76Q111 -76 130 -73T150 -55Q150 -39 118 -39H108L113 -3Q59 5 32 42T11 135L21 237H47L36 134Q31 83 57 50T142 17Q196 17 221 45T252 117L256 153Q261 197 246 231T192 309L132 377Q111
401 96 421T72 460T59 500T58 545L61 572Q67 628 102 655T192 683Q257 683 289 649T315 553L306 477H281L289 555Q294 607 268 634T192 661Q147 661 119 640T86 571L83 545Q81 524 84 506T95 470T118 435T150 396L210 329Q230 306 245 286T269 244T281 201T282
151L278 116Q273 62 240 29T141 -5H129L127 -22Q150 -22 162 -31T174 -54Q174 -77 149 -84T87 -92L89 -76Z" />
<glyph unicode="&#x15f;" glyph-name="scedilla" horiz-adv-x="296" d="M79 -76Q101 -76 120 -73T140 -55Q140 -39 108 -39H98L102 -4Q48 2 24 36T6 124L12 178H36L30 123Q25 74 48 46T125 17Q178 17 200 43T227 116L229 134Q233 171 222 198T171 260L108 313Q70
346 54 377T43 451L45 469Q50 516 80 544T167 572Q227 572 256 542T279 450L274 402H249L254 450Q259 502 237 526T167 550Q120 550 97 528T69 467L67 449Q63 416 75 390T126 331L188 278Q210 260 223 243T244 208T254 173T254 133L252 115Q245 58 218 27T125 -5H119L117
-22Q140 -22 152 -31T164 -54Q164 -77 139 -84T77 -92L79 -76Z" />
<glyph unicode="&#x160;" glyph-name="Scaron" horiz-adv-x="323" d="M379 770L381 789L454 724L542 789L540 770L460 702H446L379 770ZM141 -5Q72 -5 38 34T11 135L21 237H47L36 134Q31 83 57 50T142 17Q196 17 221 45T252 117L256 153Q261 197 246 231T192 309L132
377Q111 401 96 421T72 460T59 500T58 545L61 572Q67 628 102 655T192 683Q257 683 289 649T315 553L306 477H281L289 555Q294 607 268 634T192 661Q147 661 119 640T86 571L83 545Q81 524 84 506T95 470T118 435T150 396L210 329Q230 306 245 286T269 244T281
201T282 151L278 116Q273 62 240 29T141 -5Z" />
<glyph unicode="&#x161;" glyph-name="scaron" horiz-adv-x="296" d="M358 665L360 684L433 619L521 684L519 665L439 597H425L358 665ZM125 -5Q59 -5 29 30T6 124L12 178H36L30 123Q25 74 48 46T125 17Q178 17 200 43T227 116L229 134Q233 171 222 198T171 260L108
313Q70 346 54 377T43 451L45 469Q50 516 80 544T167 572Q227 572 256 542T279 450L274 402H249L254 450Q259 502 237 526T167 550Q120 550 97 528T69 467L67 449Q63 416 75 390T126 331L188 278Q210 260 223 243T244 208T254 173T254 133L252 115Q245 58 218 27T125
-5Z" />
<glyph unicode="&#x162;" glyph-name="Tcommaaccent" horiz-adv-x="300" d="M361 -18H386V-20L364 -90H345L361 -18ZM55 678H328L326 656H202L134 0H108L176 656H53L55 678Z" />
<glyph unicode="&#x163;" glyph-name="tcommaaccent" horiz-adv-x="198" d="M328 -18H353V-20L331 -90H312L328 -18ZM44 567H89L101 678H127L115 567H201L199 547H113L64 85Q61 55 70 38T114 21H143L142 0H112Q64 0 49 22T39 87L87 547H42L44 567Z" />
<glyph unicode="&#x164;" glyph-name="Tcaron" horiz-adv-x="302" d="M375 770L377 789L450 724L538 789L536 770L456 702H442L375 770ZM55 678H328L326 656H202L134 0H108L176 656H53L55 678Z" />
<glyph unicode="&#x165;" glyph-name="tcaron" horiz-adv-x="198" d="M431 678H453V676L435 587H418L431 678ZM44 567H89L101 678H127L115 567H201L199 547H113L64 85Q61 55 70 38T114 21H143L142 0H112Q64 0 49 22T39 87L87 547H42L44 567Z" />
<glyph unicode="&#x166;" glyph-name="Tbar" horiz-adv-x="302" d="M55 678H328L326 656H202L182 456H263L261 436H180L134 0H108L153 436H74L76 456H155L176 656H53L55 678Z" />
<glyph unicode="&#x167;" glyph-name="tbar" horiz-adv-x="198" d="M44 567H89L101 678H127L115 567H201L199 547H113L103 452H189L188 434H101L64 85Q61 55 70 38T114 21H143L142 0H112Q64 0 49 22T39 87L75 434H30L32 452H77L87 547H42L44 567Z" />
<glyph unicode="&#x168;" glyph-name="Utilde" horiz-adv-x="340" d="M148 -5Q109 -5 83 7T41 40T20 91T19 157L74 678H100L45 153Q42 123 46 98T62 55T95 27T149 17Q179 17 200 26T234 50T255 88T266 136L323 678H348L291 137Q288 106 279 80T253 35T210 6T148
-5ZM391 722Q393 744 405 759T440 774Q451 774 460 770T479 760T497 750T515 745Q529 745 535 755T544 778H562Q560 755 548 741T513 726Q502 726 493 730T474 740T456 749T438 754Q424 754 417 745T408 722H391Z" />
<glyph unicode="&#x169;" glyph-name="utilde" horiz-adv-x="317" d="M122 -5Q69 -5 39 27T16 137L61 567H86L41 136Q34 71 58 44T127 17Q176 17 204 52T239 142L284 567H309L250 0H225L232 69H231Q218 42 193 19T122 -5ZM364 612Q366 634 378 649T413 664Q424
664 433 660T452 650T470 640T488 635Q502 635 508 645T517 668H535Q533 645 521 631T486 616Q475 616 466 620T447 630T429 639T411 644Q397 644 390 635T381 612H364Z" />
<glyph unicode="&#x16a;" glyph-name="Umacron" horiz-adv-x="340" d="M148 -5Q109 -5 83 7T41 40T20 91T19 157L74 678H100L45 153Q42 123 46 98T62 55T95 27T149 17Q179 17 200 26T234 50T255 88T266 136L323 678H348L291 137Q288 106 279 80T253 35T210 6T148
-5ZM400 739H545L543 720H398L400 739Z" />
<glyph unicode="&#x16b;" glyph-name="umacron" horiz-adv-x="317" d="M122 -5Q69 -5 39 27T16 137L61 567H86L41 136Q34 71 58 44T127 17Q176 17 204 52T239 142L284 567H309L250 0H225L232 69H231Q218 42 193 19T122 -5ZM374 634H519L517 615H372L374 634Z" />
<glyph unicode="&#x16c;" glyph-name="Ubreve" horiz-adv-x="340" d="M148 -5Q109 -5 83 7T41 40T20 91T19 157L74 678H100L45 153Q42 123 46 98T62 55T95 27T149 17Q179 17 200 26T234 50T255 88T266 136L323 678H348L291 137Q288 106 279 80T253 35T210 6T148
-5ZM473 702Q439 702 418 723T399 779H418Q417 752 432 737T473 722Q498 722 514 736T534 779H553Q549 741 527 722T473 702Z" />
<glyph unicode="&#x16d;" glyph-name="ubreve" horiz-adv-x="317" d="M122 -5Q69 -5 39 27T16 137L61 567H86L41 136Q34 71 58 44T127 17Q176 17 204 52T239 142L284 567H309L250 0H225L232 69H231Q218 42 193 19T122 -5ZM447 597Q413 597 392 618T373 674H392Q391
647 406 632T447 617Q472 617 488 631T508 674H527Q523 636 501 617T447 597Z" />
<glyph unicode="&#x16e;" glyph-name="Uring" horiz-adv-x="340" d="M471 672Q448 672 432 688T416 728Q416 751 432 767T471 784Q496 784 512 768T528 728Q528 704 512 688T471 672ZM471 687Q488 687 499 699T511 728Q511 745 500 757T471 769Q454 769 444 757T433
728Q433 711 443 699T471 687ZM148 -5Q109 -5 83 7T41 40T20 91T19 157L74 678H100L45 153Q42 123 46 98T62 55T95 27T149 17Q179 17 200 26T234 50T255 88T266 136L323 678H348L291 137Q288 106 279 80T253 35T210 6T148 -5Z" />
<glyph unicode="&#x16f;" glyph-name="uring" horiz-adv-x="317" d="M446 592Q423 592 407 608T391 648Q391 671 407 687T446 704Q471 704 487 688T503 648Q503 624 487 608T446 592ZM446 607Q463 607 474 619T486 648Q486 665 475 677T446 689Q429 689 419 677T408
648Q408 631 418 619T446 607ZM122 -5Q69 -5 39 27T16 137L61 567H86L41 136Q34 71 58 44T127 17Q176 17 204 52T239 142L284 567H309L250 0H225L232 69H231Q218 42 193 19T122 -5Z" />
<glyph unicode="&#x170;" glyph-name="Uhungarumlaut" horiz-adv-x="340" d="M148 -5Q109 -5 83 7T41 40T20 91T19 157L74 678H100L45 153Q42 123 46 98T62 55T95 27T149 17Q179 17 200 26T234 50T255 88T266 136L323 678H348L291 137Q288 106 279 80T253 35T210
6T148 -5ZM469 787H493L446 700H426L469 787ZM537 787H561L514 700H494L537 787Z" />
<glyph unicode="&#x171;" glyph-name="uhungarumlaut" horiz-adv-x="317" d="M122 -5Q69 -5 39 27T16 137L61 567H86L41 136Q34 71 58 44T127 17Q176 17 204 52T239 142L284 567H309L250 0H225L232 69H231Q218 42 193 19T122 -5ZM443 682H467L420 595H400L443
682ZM511 682H535L488 595H468L511 682Z" />
<glyph unicode="&#x172;" glyph-name="Uogonek" horiz-adv-x="340" d="M176 -90Q150 -90 139 -79T128 -53Q128 -34 138 -24T160 -5H148Q109 -5 83 7T41 40T20 91T19 157L74 678H100L45 153Q42 123 46 98T62 55T95 27T149 17Q179 17 200 26T234 50T255 88T266 136L323
678H348L291 137Q286 89 268 55T210 6Q191 -2 172 -16T153 -48Q153 -57 158 -63T179 -69H190L187 -90H176Z" />
<glyph unicode="&#x173;" glyph-name="uogonek" horiz-adv-x="317" d="M232 69H231Q218 42 193 19T122 -5Q69 -5 39 27T16 137L61 567H86L41 136Q34 71 58 44T127 17Q176 17 204 52T239 142L284 567H309L250 0Q238 -9 225 -21T212 -49Q212 -57 217 -63T239 -69H249L246
-90H236Q210 -90 199 -80T187 -53Q187 -34 198 -22T225 0L232 69Z" />
<glyph unicode="&#x174;" glyph-name="Wcircumflex" horiz-adv-x="487" d="M208 724L287 792H301L368 723L366 705L293 770L206 705L208 724ZM58 678H84L106 53H107L274 678H298L335 53H336L487 678H511L346 0H315L279 608H278L115 0H83L58 678Z" />
<glyph unicode="&#x175;" glyph-name="wcircumflex" horiz-adv-x="456" d="M181 614L260 682H274L341 613L339 595L266 660L179 595L181 614ZM39 567H64L95 52H96L246 567H270L309 52H310L451 567H475L318 0H290L252 512L102 0H73L39 567Z" />
<glyph unicode="&#x176;" glyph-name="Ycircumflex" horiz-adv-x="311" d="M141 258L55 678H82L157 298H158L312 678H338L167 259L140 0H114L141 258ZM377 724L456 792H470L537 723L535 705L462 770L375 705L377 724Z" />
<glyph unicode="&#x177;" glyph-name="ycircumflex" horiz-adv-x="292" d="M-5 -69H20Q36 -69 46 -67T62 -58T73 -43T83 -19L111 58H103L36 567H61L123 96H124L289 567H315L106 -25Q100 -43 94 -55T78 -75T55 -86T21 -90H-8L-5 -69ZM357 614L436 682H450L517 613L515
595L442 660L355 595L357 614Z" />
<glyph unicode="&#x178;" glyph-name="Ydieresis" horiz-adv-x="311" d="M141 258L55 678H82L157 298H158L312 678H338L167 259L140 0H114L141 258ZM412 750H437L433 719H409L412 750ZM484 750H508L505 719H480L484 750Z" />
<glyph unicode="&#x179;" glyph-name="Zacute" horiz-adv-x="304" d="M401 717L553 778L550 756L399 698L401 717ZM-7 22L290 656H81L84 678H321L319 656L21 22H243L241 0H-9L-7 22Z" />
<glyph unicode="&#x17a;" glyph-name="zacute" horiz-adv-x="279" d="M378 612L530 673L527 651L376 593L378 612ZM-6 21L255 546H67L69 567H285L283 546L22 21H222L221 0H-7L-6 21Z" />
<glyph unicode="&#x17b;" glyph-name="Zdotaccent" horiz-adv-x="304" d="M-7 22L290 656H81L84 678H321L319 656L21 22H243L241 0H-9L-7 22ZM450 750H476L473 719H447L450 750Z" />
<glyph unicode="&#x17c;" glyph-name="zdotaccent" horiz-adv-x="279" d="M-6 21L255 546H67L69 567H285L283 546L22 21H222L221 0H-7L-6 21ZM429 678H455L452 647H426L429 678Z" />
<glyph unicode="&#x17d;" glyph-name="Zcaron" horiz-adv-x="304" d="M383 770L385 789L458 724L546 789L544 770L464 702H450L383 770ZM-7 22L290 656H81L84 678H321L319 656L21 22H243L241 0H-9L-7 22Z" />
<glyph unicode="&#x17e;" glyph-name="zcaron" horiz-adv-x="279" d="M359 665L361 684L434 619L522 684L520 665L440 597H426L359 665ZM-6 21L255 546H67L69 567H285L283 546L22 21H222L221 0H-7L-6 21Z" />
<glyph unicode="&#x192;" glyph-name="florin" horiz-adv-x="230" d="M31 421H91L118 600Q124 642 145 660T211 678H244L241 657H213Q178 657 164 644T144 598L118 421H216L214 400H115L42 -90H17L88 400H29L31 421Z" />
<glyph unicode="&#x218;" glyph-name="Scommaaccent" horiz-adv-x="323" d="M373 -18H398V-20L376 -90H357L373 -18ZM141 -5Q72 -5 38 34T11 135L21 237H47L36 134Q31 83 57 50T142 17Q196 17 221 45T252 117L256 153Q261 197 246 231T192 309L132 377Q111 401
96 421T72 460T59 500T58 545L61 572Q67 628 102 655T192 683Q257 683 289 649T315 553L306 477H281L289 555Q294 607 268 634T192 661Q147 661 119 640T86 571L83 545Q81 524 84 506T95 470T118 435T150 396L210 329Q230 306 245 286T269 244T281 201T282 151L278
116Q273 62 240 29T141 -5Z" />
<glyph unicode="&#x219;" glyph-name="scommaaccent" horiz-adv-x="296" d="M357 -18H382V-20L360 -90H341L357 -18ZM125 -5Q59 -5 29 30T6 124L12 178H36L30 123Q25 74 48 46T125 17Q178 17 200 43T227 116L229 134Q233 171 222 198T171 260L108 313Q70 346 54
377T43 451L45 469Q50 516 80 544T167 572Q227 572 256 542T279 450L274 402H249L254 450Q259 502 237 526T167 550Q120 550 97 528T69 467L67 449Q63 416 75 390T126 331L188 278Q210 260 223 243T244 208T254 173T254 133L252 115Q245 58 218 27T125 -5Z" />
<glyph unicode="&#x21a;" glyph-name="uni021A" horiz-adv-x="300" d="M361 -18H386V-20L364 -90H345L361 -18ZM55 678H328L326 656H202L134 0H108L176 656H53L55 678Z" />
<glyph unicode="&#x21b;" glyph-name="uni021B" horiz-adv-x="198" d="M328 -18H353V-20L331 -90H312L328 -18ZM44 567H89L101 678H127L115 567H201L199 547H113L64 85Q61 55 70 38T114 21H143L142 0H112Q64 0 49 22T39 87L87 547H42L44 567Z" />
<glyph unicode="&#x237;" glyph-name="uni0237" horiz-adv-x="95" d="M-48 -69H-37Q-16 -69 -9 -60T1 -30L64 567H89L27 -31Q23 -63 10 -76T-35 -90H-50L-48 -69Z" />
<glyph unicode="&#x2c6;" glyph-name="circumflex" horiz-adv-x="406" d="M157 614L236 682H250L317 613L315 595L242 660L155 595L157 614Z" />
<glyph unicode="&#x2c7;" glyph-name="caron" horiz-adv-x="406" d="M162 665L164 684L237 619L325 684L323 665L243 597H229L162 665Z" />
<glyph unicode="&#x2d8;" glyph-name="breve" horiz-adv-x="406" d="M240 597Q206 597 185 618T166 674H185Q184 647 199 632T240 617Q265 617 281 631T301 674H320Q316 636 294 617T240 597Z" />
<glyph unicode="&#x2d9;" glyph-name="dotaccent" horiz-adv-x="406" d="M230 678H256L253 647H227L230 678Z" />
<glyph unicode="&#x2da;" glyph-name="ring" horiz-adv-x="406" d="M239 592Q216 592 200 608T184 648Q184 671 200 687T239 704Q264 704 280 688T296 648Q296 624 280 608T239 592ZM239 607Q256 607 267 619T279 648Q279 665 268 677T239 689Q222 689 212 677T201
648Q201 631 211 619T239 607Z" />
<glyph unicode="&#x2db;" glyph-name="ogonek" horiz-adv-x="406" d="M170 -90Q144 -90 133 -81T121 -55Q121 -35 135 -23T163 0H185Q172 -10 159 -22T145 -49Q145 -57 150 -63T173 -69H182L180 -90H170Z" />
<glyph unicode="&#x2dc;" glyph-name="tilde" horiz-adv-x="406" d="M153 612Q155 634 167 649T202 664Q213 664 222 660T241 650T259 640T277 635Q291 635 297 645T306 668H324Q322 645 310 631T275 616Q264 616 255 620T236 630T218 639T200 644Q186 644 179
635T170 612H153Z" />
<glyph unicode="&#x2dd;" glyph-name="hungarumlaut" horiz-adv-x="406" d="M234 682H258L211 595H191L234 682ZM302 682H326L279 595H259L302 682Z" />
</font>
</defs>
</svg>
