<svg xmlns="http://www.w3.org/2000/svg" xmlns:xlink="http://www.w3.org/1999/xlink" width="900" height="900" viewBox="0 0 900 900">
  <defs>
    <polygon id="primesvg-a" points="0 .646 900.354 .646 900.354 901 0 901"/>
    <polygon id="primesvg-c" points="0 900.354 900.354 900.354 900.354 0 0 0"/>
  </defs>
  <g fill="none" fill-rule="evenodd">
    <g transform="translate(0 -.646)">
      <mask id="primesvg-b" fill="#fff">
        <use xlink:href="#primesvg-a"/>
      </mask>
      <path fill="#A59A9A" d="M450.1768,901 C698.8028,901 900.3538,699.449 900.3538,450.824 C900.3538,202.197 698.8028,0.646 450.1768,0.646 C201.5508,0.646 -0.0002,202.197 -0.0002,450.824 C-0.0002,699.449 201.5508,901 450.1768,901" mask="url(#primesvg-b)"/>
    </g>
    <path fill="#FEFEFE" d="M336.8295 385.6309C336.6325 381.6819 336.5285 377.7079 336.5285 373.7109 336.5285 288.3079 382.0655 213.5519 450.1765 172.3689 414.7215 150.9319 373.1545 138.5839 328.6995 138.5839 198.8435 138.5839 93.5735 243.8519 93.5735 373.7109 93.5735 462.4619 142.7635 539.7019 215.3525 579.7239 219.5335 496.0079 267.5115 423.8509 336.8295 385.6309M806.7808 373.7106C806.7808 243.8516 701.5098 138.5836 571.6548 138.5836 527.1998 138.5836 485.6318 150.9316 450.1768 172.3686 518.2888 213.5516 563.8258 288.3076 563.8258 373.7106 563.8258 377.7086 563.7218 381.6816 563.5248 385.6306 632.8418 423.8506 680.8198 496.0076 685.0018 579.7246 757.5898 539.7016 806.7808 462.4616 806.7808 373.7106"/>
    <path fill="#E1DDDD" d="M336.528,373.7106 C336.528,377.7086 336.632,381.6816 336.829,385.6306 C370.448,367.0946 409.072,356.5206 450.177,356.5206 C491.281,356.5206 529.906,367.0946 563.524,385.6306 C563.722,381.6816 563.826,377.7086 563.826,373.7106 C563.826,288.3076 518.288,213.5516 450.177,172.3686 C382.066,213.5516 336.528,288.3076 336.528,373.7106"/>
    <path fill="#FEFEFE" d="M450.1769,575.0494 C414.7219,596.4864 373.1549,608.8344 328.6999,608.8344 C287.5949,608.8344 248.9709,598.2604 215.3519,579.7244 C215.1549,583.6744 215.0509,587.6484 215.0509,591.6474 C215.0509,721.5024 320.3209,826.7704 450.1769,826.7704 C580.0329,826.7704 685.3029,721.5024 685.3029,591.6474 C685.3029,587.6484 685.1989,583.6744 685.0019,579.7244 C651.3829,598.2604 612.7589,608.8344 571.6549,608.8344 C527.1989,608.8344 485.6319,596.4864 450.1769,575.0494"/>
    <path fill="#E1DDDD" d="M450.1769,575.0494 C385.2539,535.7944 340.8449,466.0364 336.8299,385.6304 C267.5119,423.8504 219.5339,496.0084 215.3519,579.7244 C248.9709,598.2604 287.5949,608.8344 328.6999,608.8344 C373.1549,608.8344 414.7219,596.4864 450.1769,575.0494"/>
    <path fill="#E1DDDD" d="M563.5244,385.6306 C559.5094,466.0366 515.1004,535.7946 450.1764,575.0496 C485.6324,596.4866 527.1994,608.8336 571.6544,608.8336 C612.7584,608.8336 651.3834,598.2606 685.0014,579.7246 C680.8204,496.0076 632.8424,423.8506 563.5244,385.6306"/>
    <path fill="#96192D" d="M336.8295,385.6309 C340.8445,466.0369 385.2545,535.7949 450.1765,575.0499 C515.1005,535.7949 559.5095,466.0369 563.5245,385.6309 C529.9055,367.0949 491.2815,356.5209 450.1765,356.5209 C409.0725,356.5209 370.4485,367.0949 336.8295,385.6309"/>
    <path fill="#FEFEFE" d="M400.0847,456.7045 C406.2877,456.7045 409.6137,453.4535 409.6137,448.4275 C409.6137,443.3645 406.2877,440.1135 400.0477,440.1135 L389.3787,440.1135 L389.3787,466.2705 L394.5917,466.2705 L394.5917,456.7045 L400.0847,456.7045 Z M399.9537,444.9155 C402.7937,444.9155 404.2697,446.0925 404.2697,448.4275 C404.2697,450.7815 402.7937,451.9405 399.9537,451.9405 L394.5917,451.9405 L394.5917,444.9155 L399.9537,444.9155 Z M415.2747,440.1135 L415.2747,466.2705 L420.4867,466.2705 L420.4867,455.8635 L422.0187,455.8635 L429.6417,466.2705 L435.9577,466.2705 L427.9047,455.7885 C432.9307,455.3035 435.9197,452.3695 435.9197,448.0725 C435.9197,443.0655 432.5757,440.1135 426.3347,440.1135 L415.2747,440.1135 Z M426.2417,444.9155 C429.0067,444.9155 430.5577,445.9055 430.5577,448.0725 C430.5577,450.2775 429.0817,451.3235 426.2417,451.3235 L420.4867,451.3235 L420.4867,444.9155 L426.2417,444.9155 Z M442.3767,466.2705 L447.5897,466.2705 L447.5897,440.1135 L442.3767,440.1135 L442.3767,466.2705 Z M484.1947,440.1135 L476.5527,440.1135 L469.7707,457.7695 L462.9697,440.1135 L455.3277,440.1135 L455.3277,466.2705 L460.5407,466.2705 L460.5407,446.6715 L467.0057,463.7485 L472.5177,463.7485 L478.9817,446.5215 L478.9817,466.2705 L484.1947,466.2705 L484.1947,440.1135 Z M511.5737,461.4875 L497.2427,461.4875 L497.2427,455.4715 L510.7697,455.4715 L510.7697,450.6885 L497.2427,450.6885 L497.2427,444.8965 L511.4237,444.8965 L511.4237,440.1135 L492.0297,440.1135 L492.0297,466.2705 L511.5737,466.2705 L511.5737,461.4875 Z"/>
    <path fill="#96192D" d="M400.1364 746.0573L384.5024 746.0573 384.5024 747.7733 397.7254 747.7733 384.2804 765.3603 384.2804 766.7653 400.1954 766.7653 400.1954 765.0493 386.6764 765.0493 400.1364 747.4473 400.1364 746.0573zM416.6524 752.8463L414.9814 752.8463 414.9814 755.5233C413.8564 753.7933 411.9934 752.6243 409.4634 752.6243 405.5584 752.6243 402.5114 755.6713 402.5114 759.8133 402.5114 763.9553 405.5584 766.9873 409.4634 766.9873 411.9934 766.9873 413.8564 765.8333 414.9814 764.0883L414.9814 766.7653 416.6524 766.7653 416.6524 752.8463zM409.6564 754.2073C412.8064 754.2073 415.0694 756.6183 415.0694 759.8133 415.0694 763.0083 412.8064 765.4043 409.6564 765.4043 406.4904 765.4043 404.2274 762.9493 404.2274 759.8133 404.2274 756.6623 406.4614 754.2073 409.6564 754.2073zM423.2614 745.4653L421.5744 745.4653 421.5744 766.7653 423.2614 766.7653 423.2614 758.8373C423.2614 756.1003 425.3024 754.2223 427.9204 754.2223 430.7604 754.2223 432.3874 755.9383 432.3874 758.7483L432.3874 766.7653 434.0734 766.7653 434.0734 758.2303C434.0734 754.7843 431.7064 752.6243 428.2164 752.6243 426.3084 752.6243 424.3554 753.4233 423.2614 755.2573L423.2614 745.4653zM445.5274 752.6243C443.6054 752.6243 441.6524 753.4233 440.5584 755.2873L440.5584 752.8463 438.8864 752.8463 438.8864 766.7653 440.5724 766.7653 440.5724 758.8373C440.5724 756.1003 442.6134 754.2223 445.2324 754.2223 448.0714 754.2223 449.6994 755.9383 449.6994 758.7483L449.6994 766.7653 451.3854 766.7653 451.3854 758.2303C451.3854 754.7843 449.0184 752.6243 445.5274 752.6243zM469.3534 752.8463L467.6824 752.8463 467.6824 755.5233C466.5584 753.7933 464.6944 752.6243 462.1654 752.6243 458.2604 752.6243 455.2134 755.6713 455.2134 759.8133 455.2134 763.9553 458.2604 766.9873 462.1654 766.9873 464.6944 766.9873 466.5584 765.8333 467.6824 764.0883L467.6824 766.7653 469.3534 766.7653 469.3534 752.8463zM462.3574 754.2073C465.5084 754.2073 467.7714 756.6183 467.7714 759.8133 467.7714 763.0083 465.5084 765.4043 462.3574 765.4043 459.1924 765.4043 456.9294 762.9493 456.9294 759.8133 456.9294 756.6623 459.1624 754.2073 462.3574 754.2073zM480.2224 752.6103C478.3884 752.6103 476.8354 753.5863 475.9324 755.2133L475.9324 752.8463 474.2764 752.8463 474.2764 766.7653 475.9474 766.7653 475.9474 758.9113C475.9474 756.1003 477.6044 754.2223 479.9264 754.2223 480.7694 754.2223 481.7164 754.4143 482.3964 754.7843L482.8254 753.1423C482.0714 752.7723 481.2134 752.6103 480.2224 752.6103zM497.2734 752.8463L485.6774 752.8463 485.6774 754.3853 495.0994 754.3853 485.3814 765.5373 485.3814 766.7653 497.3914 766.7653 497.3914 765.2413 487.6294 765.2413 497.2734 754.0893 497.2734 752.8463zM511.3694 752.8463L504.9504 752.8463 504.9504 748.3053 503.2634 748.3053 503.2634 752.8463 500.0684 752.8463 500.0684 754.3853 503.2634 754.3853 503.2634 762.0023C503.2634 765.3753 505.0094 766.9873 507.9084 766.9873 509.5794 766.9873 510.9554 766.4253 511.9464 765.5963L511.1474 764.3393C510.3344 764.9903 509.2394 765.4043 508.0414 765.4043 506.1924 765.4043 504.9504 764.3243 504.9504 761.9723L504.9504 754.3853 511.3694 754.3853 511.3694 752.8463zM422.5643 718.371C420.0493 718.371 418.1863 719.525 417.0763 721.241L417.0763 711.212 415.3903 711.212 415.3903 732.512 417.0763 732.512 417.0763 729.864C418.1863 731.594 420.0493 732.733 422.5643 732.733 426.4843 732.733 429.5313 729.701 429.5313 725.56 429.5313 721.418 426.4843 718.371 422.5643 718.371zM422.3723 719.954C425.5523 719.954 427.8003 722.409 427.8003 725.56 427.8003 728.695 425.5813 731.151 422.3723 731.151 419.2363 731.151 416.9583 728.755 416.9583 725.56 416.9583 722.365 419.2363 719.954 422.3723 719.954zM439.4853 718.371C435.5663 718.371 432.5923 721.359 432.5923 725.56 432.5923 729.805 435.5213 732.733 439.5893 732.733 441.6003 732.733 443.5383 732.23 445.2983 730.441L444.3963 729.287C443.1683 730.5 441.6303 731.269 439.6923 731.269 436.8383 731.269 434.5603 729.405 434.3083 726.166L445.9793 726.166C445.9933 725.959 446.0083 725.722 446.0083 725.471 445.9643 721.314 443.1983 718.371 439.4853 718.371zM439.4563 719.865C442.0743 719.865 444.0413 721.832 444.2923 724.716L434.3383 724.716C434.6633 721.891 436.6303 719.865 439.4563 719.865zM449.9013 732.512L451.5873 732.512 451.5873 718.593 449.9013 718.593 449.9013 732.512zM450.7443 712.366C450.0643 712.366 449.5463 712.913 449.5463 713.593 449.5463 714.274 450.0643 714.792 450.7443 714.792 451.4243 714.792 451.9573 714.274 451.9573 713.593 451.9573 712.913 451.4243 712.366 450.7443 712.366zM473.9573 718.371C471.7983 718.371 469.5943 719.332 468.5593 721.61 467.7303 719.569 465.7483 718.371 463.1453 718.371 461.2223 718.371 459.2703 719.17 458.1753 721.033L458.1753 718.593 456.5043 718.593 456.5043 732.512 458.1903 732.512 458.1903 724.583C458.1903 721.847 460.2313 719.968 462.8493 719.968 465.6893 719.968 467.3163 721.684 467.3163 724.495L467.3163 732.512 469.0023 732.512 469.0023 724.583C469.0023 721.847 471.0433 719.968 473.6623 719.968 476.5013 719.968 478.1433 721.684 478.1433 724.495L478.1433 732.512 479.8303 732.512 479.8303 723.977C479.8303 720.531 477.4483 718.371 473.9573 718.371z"/>
    <mask id="primesvg-d" fill="#fff">
      <use xlink:href="#primesvg-c"/>
    </mask>
    <path fill="#96192D" d="M393.265 698.258L397.126 698.258 397.126 676.958 393.265 676.958 393.265 698.258zM407.402 683.54C403.113 683.54 400.154 686.617 400.154 691.128 400.154 695.64 403.201 698.628 407.595 698.628 410.005 698.628 412.076 697.947 413.703 696.453L411.44 693.968C410.405 694.841 409.059 695.344 407.816 695.344 405.997 695.344 404.547 694.442 404.133 692.371L414.295 692.371C414.339 692.046 414.369 691.513 414.369 691.069 414.354 686.602 411.529 683.54 407.402 683.54zM407.373 686.869C409.029 686.869 410.139 687.904 410.494 689.738L404.148 689.738C404.488 687.963 405.553 686.869 407.373 686.869zM417.312 698.258L421.173 698.258 421.173 683.925 417.312 683.925 417.312 698.258zM419.22 676.751C417.83 676.751 416.765 677.846 416.765 679.236 416.765 680.627 417.83 681.692 419.22 681.692 420.611 681.692 421.69 680.627 421.69 679.236 421.69 677.846 420.611 676.751 419.22 676.751zM436.555 684.916C434.647 683.984 432.857 683.555 430.565 683.555 426.793 683.555 424.515 685.301 424.515 688.244 424.515 690.685 426.157 692.134 429.47 692.593L430.639 692.756C432.295 692.992 433.02 693.377 433.02 694.072 433.02 694.915 432.162 695.418 430.373 695.418 428.213 695.418 426.719 694.826 425.491 694.013L423.968 696.941C425.832 698.258 428.391 698.628 430.343 698.628 434.499 698.628 436.925 696.72 436.925 693.761 436.925 691.336 435.195 689.945 432.088 689.472L430.816 689.28C429.515 689.087 428.479 688.88 428.479 688.052 428.479 687.268 429.219 686.75 430.683 686.75 432.295 686.765 434.115 687.357 435.254 687.919L436.555 684.916zM450.343 683.925L445.152 683.925 445.152 679.665 441.291 679.665 441.291 683.925 438.525 683.925 438.525 687.357 441.291 687.357 441.291 692.903C441.291 696.616 443.111 698.628 446.66 698.628 448.702 698.628 450.151 697.977 451.408 697.119L449.988 694.102C449.205 694.575 448.214 695.033 447.296 695.033 446.098 695.033 445.152 694.383 445.152 692.593L445.152 687.357 450.343 687.357 450.343 683.925zM466.818 683.925L462.972 683.925 462.972 691.809C462.972 694.102 461.7 695.033 460.043 695.033 458.372 695.033 457.115 694.102 457.115 691.809L457.115 683.925 453.254 683.925 453.254 692.149C453.254 696.675 456.449 698.628 460.043 698.628 463.623 698.628 466.818 696.675 466.818 692.149L466.818 683.925zM478.523 683.54C476.896 683.54 475.329 684.088 474.308 685.611L474.308 683.925 470.551 683.925 470.551 698.258 474.411 698.258 474.411 690.404C474.411 688.244 475.787 687.164 477.444 687.164 479.204 687.164 480.239 688.303 480.239 690.374L480.239 698.258 484.1 698.258 484.1 689.132C484.1 685.804 481.778 683.54 478.523 683.54zM493.569 683.54C490.078 683.54 486.972 686.454 486.972 690.862 486.972 695.255 490.078 698.169 493.569 698.169 495.551 698.169 497 697.43 497.977 696.231L497.977 697.237C497.977 699.707 496.291 701.039 493.894 701.039 492.179 701.039 490.596 700.521 489.161 699.574L487.785 702.725C489.398 703.864 491.794 704.455 494.057 704.455 498.79 704.455 501.793 701.675 501.793 697.075L501.793 683.925 498.006 683.925 498.006 685.523C497.03 684.31 495.566 683.54 493.569 683.54zM494.545 687.09C496.69 687.09 498.139 688.717 498.139 690.862 498.139 692.992 496.69 694.619 494.545 694.619 492.341 694.619 490.936 692.933 490.936 690.862 490.936 688.777 492.341 687.09 494.545 687.09zM397.7759 643.2963L393.6489 643.2963 393.6489 664.0043 397.7759 664.0043 397.7759 655.4843 407.7449 655.4843 407.7449 664.0043 411.8719 664.0043 411.8719 643.2963 407.7449 643.2963 407.7449 651.6383 397.7759 651.6383 397.7759 643.2963zM423.0659 649.2873C418.6139 649.2873 415.3299 652.5113 415.3299 656.8303 415.3299 661.1493 418.6139 664.3743 423.0659 664.3743 427.5329 664.3743 430.8319 661.1493 430.8319 656.8303 430.8319 652.5113 427.5329 649.2873 423.0659 649.2873zM423.0659 652.8813C425.2399 652.8813 426.8819 654.5083 426.8819 656.8303 426.8819 659.1523 425.2399 660.7793 423.0659 660.7793 420.8919 660.7793 419.2649 659.1523 419.2649 656.8303 419.2649 654.5083 420.8919 652.8813 423.0659 652.8813zM419.8419 642.9413C418.4509 642.9413 417.3859 644.0363 417.3859 645.4263 417.3859 646.8163 418.4509 647.8813 419.8419 647.8813 421.2319 647.8813 422.3269 646.8163 422.3269 645.4263 422.3269 644.0363 421.2319 642.9413 419.8419 642.9413zM426.2169 642.9413C424.8259 642.9413 423.7609 644.0363 423.7609 645.4263 423.7609 646.8163 424.8259 647.8813 426.2169 647.8813 427.6069 647.8813 428.7019 646.8163 428.7019 645.4263 428.7019 644.0363 427.6069 642.9413 426.2169 642.9413zM440.5729 649.2873C436.0019 649.2873 432.9409 652.4963 432.9409 656.8303 432.9409 661.1793 436.0019 664.3743 440.5729 664.3743 442.9689 664.3743 444.9809 663.4123 446.3269 661.6823L443.5759 659.3303C442.7619 660.2173 441.6969 660.7793 440.4549 660.7793 438.4579 660.7793 436.8749 659.2263 436.8749 656.8303 436.8749 654.4493 438.4729 652.8813 440.4689 652.8813 441.7269 652.8813 442.6589 653.3843 443.5309 654.3163L446.3119 651.9933C444.9959 650.2633 442.9689 649.2873 440.5729 649.2873zM452.6099 642.6903L448.7489 642.6903 448.7489 664.0043 452.6099 664.0043 452.6099 656.1503C452.6099 653.9903 453.9859 652.9103 455.6419 652.9103 457.4019 652.9103 458.4379 654.0493 458.4379 656.1203L458.4379 664.0043 462.2979 664.0043 462.2979 654.8783C462.2979 651.5503 459.9759 649.2873 456.7219 649.2873 455.1539 649.2873 453.6309 649.7893 452.6099 651.2093L452.6099 642.6903zM477.5859 650.6623C475.6779 649.7303 473.8879 649.3013 471.5959 649.3013 467.8239 649.3013 465.5459 651.0473 465.5459 653.9903 465.5459 656.4313 467.1879 657.8803 470.5009 658.3393L471.6699 658.5023C473.3259 658.7383 474.0509 659.1233 474.0509 659.8183 474.0509 660.6613 473.1929 661.1643 471.4039 661.1643 469.2439 661.1643 467.7499 660.5723 466.5219 659.7593L464.9989 662.6873C466.8629 664.0043 469.4209 664.3743 471.3739 664.3743 475.5299 664.3743 477.9559 662.4663 477.9559 659.5073 477.9559 657.0823 476.2249 655.6913 473.1189 655.2183L471.8469 655.0263C470.5459 654.8333 469.5099 654.6263 469.5099 653.7983 469.5099 653.0143 470.2499 652.4963 471.7139 652.4963 473.3259 652.5113 475.1459 653.1033 476.2849 653.6653L477.5859 650.6623zM491.3739 649.6713L486.1829 649.6713 486.1829 645.4113 482.3219 645.4113 482.3219 649.6713 479.5559 649.6713 479.5559 653.1033 482.3219 653.1033 482.3219 658.6493C482.3219 662.3623 484.1409 664.3743 487.6909 664.3743 489.7329 664.3743 491.1819 663.7233 492.4389 662.8653L491.0189 659.8483C490.2349 660.3213 489.2439 660.7793 488.3269 660.7793 487.1289 660.7793 486.1829 660.1293 486.1829 658.3393L486.1829 653.1033 491.3739 653.1033 491.3739 649.6713zM493.3769 657.8213L502.1189 657.8213 502.1189 654.4493 493.3769 654.4493 493.3769 657.8213zM218.6954 356.536L216.4764 356.536 207.7794 377.244 209.6574 377.244 212.1724 371.194 222.9404 371.194 225.4554 377.244 227.3924 377.244 218.6954 356.536zM217.5564 358.296L222.2154 369.478 212.8974 369.478 217.5564 358.296zM236.5034 363.089C234.6694 363.089 233.1164 364.065 232.2144 365.692L232.2144 363.325 230.5574 363.325 230.5574 377.244 232.2294 377.244 232.2294 369.39C232.2294 366.579 233.8854 364.701 236.2084 364.701 237.0514 364.701 237.9974 364.893 238.6784 365.263L239.1074 363.621C238.3524 363.251 237.4944 363.089 236.5034 363.089zM253.5554 363.325L241.9584 363.325 241.9584 364.864 251.3804 364.864 241.6634 376.016 241.6634 377.244 253.6734 377.244 253.6734 375.72 243.9114 375.72 253.5554 364.568 253.5554 363.325zM267.6514 363.325L261.2314 363.325 261.2314 358.784 259.5454 358.784 259.5454 363.325 256.3504 363.325 256.3504 364.864 259.5454 364.864 259.5454 372.481C259.5454 375.854 261.2904 377.466 264.1894 377.466 265.8614 377.466 267.2364 376.904 268.2284 376.075L267.4294 374.818C266.6154 375.469 265.5214 375.883 264.3234 375.883 262.4744 375.883 261.2314 374.803 261.2314 372.451L261.2314 364.864 267.6514 364.864 267.6514 363.325zM213.0835 328.8497C210.5685 328.8497 208.7055 330.0037 207.5955 331.7197L207.5955 321.6907 205.9095 321.6907 205.9095 342.9907 207.5955 342.9907 207.5955 340.3427C208.7055 342.0727 210.5685 343.2117 213.0835 343.2117 217.0035 343.2117 220.0505 340.1797 220.0505 336.0387 220.0505 331.8967 217.0035 328.8497 213.0835 328.8497zM212.8915 330.4327C216.0715 330.4327 218.3195 332.8877 218.3195 336.0387 218.3195 339.1737 216.1005 341.6297 212.8915 341.6297 209.7555 341.6297 207.4775 339.2327 207.4775 336.0387 207.4775 332.8437 209.7555 330.4327 212.8915 330.4327zM230.0045 328.8497C226.0855 328.8497 223.1115 331.8377 223.1115 336.0387 223.1115 340.2837 226.0405 343.2117 230.1085 343.2117 232.1195 343.2117 234.0575 342.7087 235.8175 340.9197L234.9155 339.7657C233.6875 340.9787 232.1495 341.7477 230.2115 341.7477 227.3575 341.7477 225.0795 339.8837 224.8275 336.6447L236.4985 336.6447C236.5125 336.4377 236.5275 336.2007 236.5275 335.9497 236.4835 331.7927 233.7175 328.8497 230.0045 328.8497zM229.9755 330.3437C232.5935 330.3437 234.5605 332.3107 234.8115 335.1947L224.8575 335.1947C225.1825 332.3697 227.1495 330.3437 229.9755 330.3437zM240.4205 342.9907L242.1065 342.9907 242.1065 329.0717 240.4205 329.0717 240.4205 342.9907zM241.2635 322.8447C240.5835 322.8447 240.0655 323.3917 240.0655 324.0717 240.0655 324.7527 240.5835 325.2697 241.2635 325.2697 241.9435 325.2697 242.4765 324.7527 242.4765 324.0717 242.4765 323.3917 241.9435 322.8447 241.2635 322.8447zM264.4765 328.8497C262.3175 328.8497 260.1135 329.8107 259.0785 332.0887 258.2495 330.0477 256.2675 328.8497 253.6645 328.8497 251.7415 328.8497 249.7895 329.6487 248.6945 331.5117L248.6945 329.0717 247.0235 329.0717 247.0235 342.9907 248.7095 342.9907 248.7095 335.0617C248.7095 332.3257 250.7505 330.4467 253.3685 330.4467 256.2085 330.4467 257.8355 332.1627 257.8355 334.9737L257.8355 342.9907 259.5215 342.9907 259.5215 335.0617C259.5215 332.3257 261.5625 330.4467 264.1815 330.4467 267.0205 330.4467 268.6625 332.1627 268.6625 334.9737L268.6625 342.9907 270.3495 342.9907 270.3495 334.4557C270.3495 331.0097 267.9675 328.8497 264.4765 328.8497zM183.784 308.737L187.645 308.737 187.645 287.437 183.784 287.437 183.784 308.737zM197.921 294.019C193.632 294.019 190.674 297.096 190.674 301.607 190.674 306.119 193.721 309.106 198.114 309.106 200.525 309.106 202.595 308.426 204.223 306.932L201.959 304.447C200.924 305.32 199.578 305.823 198.336 305.823 196.516 305.823 195.067 304.92 194.652 302.85L204.814 302.85C204.859 302.524 204.888 301.992 204.888 301.548 204.873 297.081 202.048 294.019 197.921 294.019zM197.892 297.347C199.548 297.347 200.658 298.383 201.013 300.217L194.667 300.217C195.007 298.442 196.072 297.347 197.892 297.347zM207.831 308.737L211.692 308.737 211.692 294.404 207.831 294.404 207.831 308.737zM209.739 287.23C208.349 287.23 207.284 288.325 207.284 289.715 207.284 291.105 208.349 292.17 209.739 292.17 211.13 292.17 212.21 291.105 212.21 289.715 212.21 288.325 211.13 287.23 209.739 287.23zM227.074 295.395C225.166 294.463 223.377 294.034 221.084 294.034 217.312 294.034 215.034 295.779 215.034 298.723 215.034 301.163 216.676 302.613 219.989 303.071L221.158 303.234C222.815 303.471 223.539 303.855 223.539 304.551 223.539 305.394 222.681 305.897 220.892 305.897 218.732 305.897 217.238 305.305 216.011 304.491L214.487 307.42C216.351 308.737 218.91 309.106 220.862 309.106 225.018 309.106 227.444 307.198 227.444 304.24 227.444 301.814 225.714 300.424 222.607 299.95L221.335 299.758C220.034 299.566 218.998 299.359 218.998 298.531 218.998 297.747 219.738 297.229 221.202 297.229 222.815 297.244 224.634 297.835 225.773 298.397L227.074 295.395zM240.863 294.404L235.671 294.404 235.671 290.144 231.81 290.144 231.81 294.404 229.044 294.404 229.044 297.835 231.81 297.835 231.81 303.382C231.81 307.095 233.63 309.106 237.18 309.106 239.221 309.106 240.67 308.456 241.928 307.598L240.508 304.58C239.724 305.054 238.733 305.512 237.816 305.512 236.618 305.512 235.671 304.861 235.671 303.071L235.671 297.835 240.863 297.835 240.863 294.404zM257.337 294.404L253.491 294.404 253.491 302.288C253.491 304.58 252.219 305.512 250.563 305.512 248.891 305.512 247.634 304.58 247.634 302.288L247.634 294.404 243.773 294.404 243.773 302.628C243.773 307.154 246.968 309.106 250.563 309.106 254.142 309.106 257.337 307.154 257.337 302.628L257.337 294.404zM269.043 294.019C267.416 294.019 265.848 294.566 264.827 296.09L264.827 294.404 261.07 294.404 261.07 308.737 264.931 308.737 264.931 300.882C264.931 298.723 266.306 297.643 267.963 297.643 269.723 297.643 270.758 298.782 270.758 300.853L270.758 308.737 274.619 308.737 274.619 299.61C274.619 296.282 272.297 294.019 269.043 294.019zM284.088 294.019C280.597 294.019 277.491 296.933 277.491 301.341 277.491 305.734 280.597 308.648 284.088 308.648 286.07 308.648 287.52 307.908 288.496 306.71L288.496 307.716C288.496 310.186 286.81 311.517 284.413 311.517 282.698 311.517 281.115 311 279.68 310.053L278.305 313.204C279.917 314.343 282.313 314.934 284.576 314.934 289.309 314.934 292.312 312.153 292.312 307.553L292.312 294.404 288.525 294.404 288.525 296.001C287.549 294.788 286.085 294.019 284.088 294.019zM285.064 297.569C287.209 297.569 288.659 299.196 288.659 301.341 288.659 303.471 287.209 305.098 285.064 305.098 282.86 305.098 281.455 303.412 281.455 301.341 281.455 299.255 282.86 297.569 285.064 297.569zM188.2951 253.775L184.1681 253.775 184.1681 274.483 188.2951 274.483 188.2951 265.963 198.2641 265.963 198.2641 274.483 202.3911 274.483 202.3911 253.775 198.2641 253.775 198.2641 262.117 188.2951 262.117 188.2951 253.775zM213.5851 259.766C209.1331 259.766 205.8491 262.99 205.8491 267.309 205.8491 271.628 209.1331 274.853 213.5851 274.853 218.0521 274.853 221.3511 271.628 221.3511 267.309 221.3511 262.99 218.0521 259.766 213.5851 259.766zM213.5851 263.36C215.7591 263.36 217.4011 264.987 217.4011 267.309 217.4011 269.631 215.7591 271.258 213.5851 271.258 211.4111 271.258 209.7841 269.631 209.7841 267.309 209.7841 264.987 211.4111 263.36 213.5851 263.36zM210.3611 253.42C208.9701 253.42 207.9051 254.515 207.9051 255.905 207.9051 257.295 208.9701 258.36 210.3611 258.36 211.7511 258.36 212.8461 257.295 212.8461 255.905 212.8461 254.515 211.7511 253.42 210.3611 253.42zM216.7361 253.42C215.3451 253.42 214.2801 254.515 214.2801 255.905 214.2801 257.295 215.3451 258.36 216.7361 258.36 218.1261 258.36 219.2211 257.295 219.2211 255.905 219.2211 254.515 218.1261 253.42 216.7361 253.42zM231.0921 259.766C226.5211 259.766 223.4601 262.975 223.4601 267.309 223.4601 271.658 226.5211 274.853 231.0921 274.853 233.4881 274.853 235.5001 273.891 236.8461 272.161L234.0951 269.809C233.2811 270.696 232.2161 271.258 230.9741 271.258 228.9771 271.258 227.3941 269.705 227.3941 267.309 227.3941 264.928 228.9921 263.36 230.9881 263.36 232.2461 263.36 233.1781 263.863 234.0501 264.795L236.8311 262.472C235.5151 260.742 233.4881 259.766 231.0921 259.766zM243.1291 253.169L239.2681 253.169 239.2681 274.483 243.1291 274.483 243.1291 266.629C243.1291 264.469 244.5051 263.389 246.1611 263.389 247.9211 263.389 248.9571 264.528 248.9571 266.599L248.9571 274.483 252.8171 274.483 252.8171 265.357C252.8171 262.029 250.4951 259.766 247.2411 259.766 245.6731 259.766 244.1501 260.268 243.1291 261.688L243.1291 253.169zM268.1051 261.141C266.1971 260.209 264.4071 259.78 262.1151 259.78 258.3431 259.78 256.0651 261.526 256.0651 264.469 256.0651 266.91 257.7071 268.359 261.0201 268.818L262.1891 268.981C263.8451 269.217 264.5701 269.602 264.5701 270.297 264.5701 271.14 263.7121 271.643 261.9231 271.643 259.7631 271.643 258.2691 271.051 257.0411 270.238L255.5181 273.166C257.3821 274.483 259.9401 274.853 261.8931 274.853 266.0491 274.853 268.4751 272.945 268.4751 269.986 268.4751 267.561 266.7441 266.17 263.6381 265.697L262.3661 265.505C261.0651 265.312 260.0291 265.105 260.0291 264.277 260.0291 263.493 260.7691 262.975 262.2331 262.975 263.8451 262.99 265.6651 263.582 266.8041 264.144L268.1051 261.141zM281.8931 260.15L276.7021 260.15 276.7021 255.89 272.8411 255.89 272.8411 260.15 270.0751 260.15 270.0751 263.582 272.8411 263.582 272.8411 269.128C272.8411 272.841 274.6601 274.853 278.2101 274.853 280.2521 274.853 281.7011 274.202 282.9581 273.344L281.5381 270.327C280.7541 270.8 279.7631 271.258 278.8461 271.258 277.6481 271.258 276.7021 270.608 276.7021 268.818L276.7021 263.582 281.8931 263.582 281.8931 260.15zM283.8961 268.3L292.6381 268.3 292.6381 264.928 283.8961 264.928 283.8961 268.3zM648.0296 355.9443L646.3436 355.9443 646.3436 377.2443 648.0296 377.2443 648.0296 369.3153C648.0296 366.5793 650.0706 364.7003 652.6886 364.7003 655.5286 364.7003 657.1556 366.4163 657.1556 369.2273L657.1556 377.2443 658.8416 377.2443 658.8416 368.7093C658.8416 365.2633 656.4756 363.1033 652.9846 363.1033 651.0766 363.1033 649.1246 363.9023 648.0296 365.7363L648.0296 355.9443zM676.8106 363.3253L675.1396 363.3253 675.1396 366.0023C674.0146 364.2723 672.1516 363.1033 669.6216 363.1033 665.7166 363.1033 662.6696 366.1503 662.6696 370.2923 662.6696 374.4333 665.7166 377.4653 669.6216 377.4653 672.1516 377.4653 674.0146 376.3123 675.1396 374.5663L675.1396 377.2443 676.8106 377.2443 676.8106 363.3253zM669.8146 364.6863C672.9646 364.6863 675.2276 367.0973 675.2276 370.2923 675.2276 373.4873 672.9646 375.8833 669.8146 375.8833 666.6486 375.8833 664.3856 373.4273 664.3856 370.2923 664.3856 367.1413 666.6196 364.6863 669.8146 364.6863zM694.0746 363.3253L692.3886 363.3253 692.3886 371.3423C692.3886 374.3303 690.4956 375.8833 687.8326 375.8833 685.1556 375.8833 683.2776 374.3303 683.2776 371.3423L683.2776 363.3253 681.5906 363.3253 681.5906 371.4903C681.5906 375.4393 684.4016 377.4653 687.8326 377.4653 691.2496 377.4653 694.0746 375.4393 694.0746 371.4903L694.0746 363.3253zM708.7476 364.6713C707.4906 363.7693 705.4936 363.1033 703.2896 363.1033 700.0796 363.1033 697.8756 364.6273 697.8756 367.1853 697.8756 369.1683 699.2366 370.5433 702.3876 370.8983L704.1766 371.0903C706.3216 371.3273 707.3866 372.1113 707.3866 373.3983 707.3866 375.1433 705.6556 376.0013 703.1416 376.0013 700.7456 376.0013 699.2666 375.2763 698.1866 374.4333L697.4026 375.6903C699.0146 376.9183 701.1006 377.4653 703.1266 377.4653 706.7066 377.4653 709.1176 375.9273 709.1176 373.2943 709.1176 371.0903 707.4456 369.8923 704.5466 369.5523L702.7716 369.3453C700.6266 369.0943 699.6066 368.3843 699.6066 367.0973 699.6066 365.5293 701.1296 364.5823 703.3046 364.5823 705.2566 364.5823 707.0756 365.3073 708.0226 365.9733L708.7476 364.6713zM594.654 342.991L596.34 342.991 596.34 329.072 594.654 329.072 594.654 342.991zM595.497 322.844C594.817 322.844 594.299 323.392 594.299 324.072 594.299 324.752 594.817 325.27 595.497 325.27 596.178 325.27 596.71 324.752 596.71 324.072 596.71 323.392 596.178 322.844 595.497 322.844zM618.711 328.85C616.551 328.85 614.347 329.811 613.312 332.089 612.483 330.048 610.501 328.85 607.898 328.85 605.975 328.85 604.023 329.648 602.928 331.512L602.928 329.072 601.257 329.072 601.257 342.99 602.943 342.99 602.943 335.062C602.943 332.326 604.984 330.447 607.602 330.447 610.442 330.447 612.069 332.163 612.069 334.973L612.069 342.99 613.755 342.99 613.755 335.062C613.755 332.326 615.797 330.447 618.415 330.447 621.255 330.447 622.896 332.163 622.896 334.973L622.896 342.99 624.583 342.99 624.583 334.456C624.583 331.009 622.201 328.85 618.711 328.85zM652.213 342.99L654.668 342.99 644.063 332.474 654.047 322.282 651.71 322.282 642.613 331.719 639.847 331.719 639.847 322.282 638.043 322.282 638.043 342.99 639.847 342.99 639.847 333.435 642.584 333.435 652.213 342.99zM663.744 328.835C661.91 328.835 660.357 329.811 659.454 331.438L659.454 329.072 657.798 329.072 657.798 342.99 659.469 342.99 659.469 335.136C659.469 332.326 661.126 330.447 663.448 330.447 664.291 330.447 665.238 330.639 665.918 331.009L666.347 329.367C665.593 328.998 664.735 328.835 663.744 328.835zM682.094 329.072L680.422 329.072 680.422 331.749C679.298 330.018 677.435 328.85 674.905 328.85 671 328.85 667.953 331.897 667.953 336.038 667.953 340.18 671 343.212 674.905 343.212 677.435 343.212 679.298 342.058 680.422 340.313L680.422 342.99 682.094 342.99 682.094 329.072zM675.098 330.432C678.248 330.432 680.511 332.843 680.511 336.038 680.511 339.233 678.248 341.629 675.098 341.629 671.932 341.629 669.669 339.174 669.669 336.038 669.669 332.888 671.903 330.432 675.098 330.432zM693.658 328.85C691.735 328.85 689.782 329.648 688.688 331.512L688.688 329.072 687.016 329.072 687.016 342.99 688.702 342.99 688.702 335.062C688.702 332.326 690.744 330.447 693.362 330.447 696.202 330.447 697.829 332.163 697.829 334.973L697.829 342.99 699.515 342.99 699.515 334.456C699.515 331.009 697.148 328.85 693.658 328.85zM706.014 321.691L704.328 321.691 704.328 342.99 706.014 342.99 706.014 336.467 708.277 336.467 714.238 342.99 716.383 342.99 709.638 335.639 716.265 329.072 714.135 329.072 708.277 334.944 706.014 334.944 706.014 321.691zM724.491 328.85C720.572 328.85 717.599 331.838 717.599 336.038 717.599 340.283 720.527 343.212 724.595 343.212 726.607 343.212 728.544 342.709 730.304 340.919L729.402 339.766C728.174 340.979 726.636 341.748 724.698 341.748 721.844 341.748 719.566 339.884 719.314 336.645L730.985 336.645C731 336.438 731.014 336.201 731.014 335.95 730.97 331.793 728.204 328.85 724.491 328.85zM724.462 330.344C727.08 330.344 729.047 332.311 729.299 335.195L719.344 335.195C719.669 332.37 721.637 330.344 724.462 330.344zM741.602 328.85C739.679 328.85 737.726 329.648 736.632 331.512L736.632 329.072 734.96 329.072 734.96 342.99 736.646 342.99 736.646 335.062C736.646 332.326 738.688 330.447 741.306 330.447 744.146 330.447 745.773 332.163 745.773 334.973L745.773 342.99 747.459 342.99 747.459 334.456C747.459 331.009 745.092 328.85 741.602 328.85zM751.976 335.964L759.993 335.964 759.993 334.441 751.976 334.441 751.976 335.964zM622.793 308.737L626.654 308.737 626.654 287.437 622.793 287.437 622.793 308.737zM636.931 294.019C632.641 294.019 629.683 297.096 629.683 301.607 629.683 306.119 632.73 309.106 637.123 309.106 639.534 309.106 641.605 308.426 643.232 306.932L640.969 304.447C639.933 305.32 638.587 305.823 637.345 305.823 635.526 305.823 634.076 304.92 633.662 302.85L643.823 302.85C643.868 302.524 643.897 301.992 643.897 301.548 643.883 297.081 641.058 294.019 636.931 294.019zM636.901 297.347C638.558 297.347 639.667 298.383 640.022 300.217L633.677 300.217C634.017 298.442 635.082 297.347 636.901 297.347zM646.84 308.737L650.701 308.737 650.701 294.404 646.84 294.404 646.84 308.737zM648.749 287.23C647.358 287.23 646.293 288.325 646.293 289.715 646.293 291.105 647.358 292.17 648.749 292.17 650.139 292.17 651.219 291.105 651.219 289.715 651.219 288.325 650.139 287.23 648.749 287.23zM666.084 295.395C664.176 294.463 662.386 294.034 660.093 294.034 656.322 294.034 654.044 295.779 654.044 298.723 654.044 301.163 655.686 302.613 658.999 303.071L660.167 303.234C661.824 303.471 662.549 303.855 662.549 304.551 662.549 305.394 661.691 305.897 659.901 305.897 657.742 305.897 656.248 305.305 655.02 304.491L653.496 307.42C655.36 308.737 657.919 309.106 659.871 309.106 664.028 309.106 666.454 307.198 666.454 304.24 666.454 301.814 664.723 300.424 661.617 299.95L660.345 299.758C659.043 299.566 658.008 299.359 658.008 298.531 658.008 297.747 658.747 297.229 660.212 297.229 661.824 297.244 663.643 297.835 664.782 298.397L666.084 295.395zM679.872 294.404L674.68 294.404 674.68 290.144 670.82 290.144 670.82 294.404 668.054 294.404 668.054 297.835 670.82 297.835 670.82 303.382C670.82 307.095 672.639 309.106 676.189 309.106 678.23 309.106 679.68 308.456 680.937 307.598L679.517 304.58C678.733 305.054 677.742 305.512 676.825 305.512 675.627 305.512 674.68 304.861 674.68 303.071L674.68 297.835 679.872 297.835 679.872 294.404zM696.346 294.404L692.501 294.404 692.501 302.288C692.501 304.58 691.229 305.512 689.572 305.512 687.901 305.512 686.643 304.58 686.643 302.288L686.643 294.404 682.783 294.404 682.783 302.628C682.783 307.154 685.978 309.106 689.572 309.106 693.151 309.106 696.346 307.154 696.346 302.628L696.346 294.404zM708.052 294.019C706.425 294.019 704.857 294.566 703.836 296.09L703.836 294.404 700.079 294.404 700.079 308.737 703.94 308.737 703.94 300.882C703.94 298.723 705.316 297.643 706.972 297.643 708.732 297.643 709.768 298.782 709.768 300.853L709.768 308.737 713.628 308.737 713.628 299.61C713.628 296.282 711.306 294.019 708.052 294.019zM723.097 294.019C719.607 294.019 716.5 296.933 716.5 301.341 716.5 305.734 719.607 308.648 723.097 308.648 725.079 308.648 726.529 307.908 727.505 306.71L727.505 307.716C727.505 310.186 725.819 311.517 723.423 311.517 721.707 311.517 720.124 311 718.69 310.053L717.314 313.204C718.926 314.343 721.322 314.934 723.586 314.934 728.319 314.934 731.321 312.153 731.321 307.553L731.321 294.404 727.535 294.404 727.535 296.001C726.559 294.788 725.094 294.019 723.097 294.019zM724.074 297.569C726.218 297.569 727.668 299.196 727.668 301.341 727.668 303.471 726.218 305.098 724.074 305.098 721.87 305.098 720.465 303.412 720.465 301.341 720.465 299.255 721.87 297.569 724.074 297.569zM627.3044 253.775L623.1774 253.775 623.1774 274.483 627.3044 274.483 627.3044 265.963 637.2734 265.963 637.2734 274.483 641.4004 274.483 641.4004 253.775 637.2734 253.775 637.2734 262.117 627.3044 262.117 627.3044 253.775zM652.5944 259.766C648.1424 259.766 644.8584 262.99 644.8584 267.309 644.8584 271.628 648.1424 274.853 652.5944 274.853 657.0614 274.853 660.3604 271.628 660.3604 267.309 660.3604 262.99 657.0614 259.766 652.5944 259.766zM652.5944 263.36C654.7684 263.36 656.4104 264.987 656.4104 267.309 656.4104 269.631 654.7684 271.258 652.5944 271.258 650.4204 271.258 648.7934 269.631 648.7934 267.309 648.7934 264.987 650.4204 263.36 652.5944 263.36zM649.3704 253.42C647.9794 253.42 646.9144 254.515 646.9144 255.905 646.9144 257.295 647.9794 258.36 649.3704 258.36 650.7604 258.36 651.8554 257.295 651.8554 255.905 651.8554 254.515 650.7604 253.42 649.3704 253.42zM655.7454 253.42C654.3544 253.42 653.2894 254.515 653.2894 255.905 653.2894 257.295 654.3544 258.36 655.7454 258.36 657.1354 258.36 658.2304 257.295 658.2304 255.905 658.2304 254.515 657.1354 253.42 655.7454 253.42zM670.1014 259.766C665.5304 259.766 662.4694 262.975 662.4694 267.309 662.4694 271.658 665.5304 274.853 670.1014 274.853 672.4974 274.853 674.5094 273.891 675.8554 272.161L673.1044 269.809C672.2904 270.696 671.2254 271.258 669.9834 271.258 667.9864 271.258 666.4034 269.705 666.4034 267.309 666.4034 264.928 668.0014 263.36 669.9974 263.36 671.2554 263.36 672.1874 263.863 673.0594 264.795L675.8404 262.472C674.5244 260.742 672.4974 259.766 670.1014 259.766zM682.1384 253.169L678.2774 253.169 678.2774 274.483 682.1384 274.483 682.1384 266.629C682.1384 264.469 683.5144 263.389 685.1704 263.389 686.9304 263.389 687.9664 264.528 687.9664 266.599L687.9664 274.483 691.8264 274.483 691.8264 265.357C691.8264 262.029 689.5044 259.766 686.2504 259.766 684.6824 259.766 683.1594 260.268 682.1384 261.688L682.1384 253.169zM707.1144 261.141C705.2064 260.209 703.4164 259.78 701.1244 259.78 697.3524 259.78 695.0744 261.526 695.0744 264.469 695.0744 266.91 696.7164 268.359 700.0294 268.818L701.1984 268.981C702.8544 269.217 703.5794 269.602 703.5794 270.297 703.5794 271.14 702.7214 271.643 700.9324 271.643 698.7724 271.643 697.2784 271.051 696.0504 270.238L694.5274 273.166C696.3914 274.483 698.9504 274.853 700.9024 274.853 705.0584 274.853 707.4844 272.945 707.4844 269.986 707.4844 267.561 705.7534 266.17 702.6474 265.697L701.3754 265.505C700.0744 265.312 699.0384 265.105 699.0384 264.277 699.0384 263.493 699.7784 262.975 701.2424 262.975 702.8544 262.99 704.6744 263.582 705.8134 264.144L707.1144 261.141zM720.9024 260.15L715.7114 260.15 715.7114 255.89 711.8504 255.89 711.8504 260.15 709.0844 260.15 709.0844 263.582 711.8504 263.582 711.8504 269.128C711.8504 272.841 713.6694 274.853 717.2194 274.853 719.2614 274.853 720.7104 274.202 721.9674 273.344L720.5474 270.327C719.7634 270.8 718.7734 271.258 717.8554 271.258 716.6574 271.258 715.7114 270.608 715.7114 268.818L715.7114 263.582 720.9024 263.582 720.9024 260.15zM722.9054 268.3L731.6474 268.3 731.6474 264.928 722.9054 264.928 722.9054 268.3z" mask="url(#primesvg-d)"/>
    <path fill="#FEFEFE" d="M667.8945 757.2792L663.4075 761.3372 668.8015 775.3052 655.4325 768.5502 650.9455 772.6082 664.8355 787.9662 667.8965 785.1982 657.4885 773.6902 670.3525 780.2842 673.5895 777.3572 668.2365 763.8102 678.7245 775.4052 681.7845 772.6372 667.8945 757.2792zM679.2155 754.5832C676.1485 757.5812 676.1825 761.8492 679.3365 765.0762 682.4895 768.3022 686.7575 768.3092 689.8985 765.2382 691.6235 763.5532 692.6285 761.6192 692.7475 759.4132L689.3925 759.2182C689.2615 760.5662 688.6505 761.8662 687.7625 762.7352 686.4615 764.0072 684.7935 764.3752 683.0505 763.1832L690.3175 756.0802C690.1215 755.8172 689.7705 755.4152 689.4605 755.0982 686.3275 751.9142 682.1675 751.6992 679.2155 754.5832zM681.5205 756.9842C682.7055 755.8262 684.2225 755.7912 685.7585 756.8552L681.2205 761.2902C680.2235 759.7832 680.2195 758.2562 681.5205 756.9842zM683.8935 740.5702L681.2235 743.3582 696.6185 758.0992 699.2885 755.3112 693.6155 749.8792C692.0555 748.3852 692.2275 746.6452 693.3735 745.4492 694.5905 744.1772 696.1295 744.2172 697.6245 745.6492L703.3195 751.1022 705.9895 748.3132 699.3975 742.0012C696.9935 739.7002 693.7525 739.8122 691.5025 742.1622 690.4185 743.2952 689.7275 744.7432 690.0475 746.4622L683.8935 740.5702zM702.8745 729.9032C701.6925 731.2082 701.2185 732.6342 701.6105 734.2072L700.4485 733.1542 697.9355 735.9272 708.5575 745.5512 711.1495 742.6902 705.3615 737.4462C703.7835 736.0162 703.7965 734.3712 704.9975 733.0452 705.5245 732.4642 706.2715 731.9032 706.9065 731.6212L704.4555 728.6212C703.9555 728.8872 703.4305 729.2892 702.8745 729.9032zM713.3075 718.9662L711.7385 720.7972 722.4085 729.9412 723.9775 728.1102 713.3075 718.9662zM707.4435 715.5582C706.8175 716.2882 706.9095 717.3402 707.6505 717.9752 708.3805 718.6012 709.4125 718.5112 710.0375 717.7812 710.6635 717.0512 710.6135 715.9952 709.8835 715.3702 709.1425 714.7342 708.0685 714.8282 707.4435 715.5582zM720.3345 710.0382C719.3025 711.2962 718.5725 713.0502 719.0655 714.9462L717.6475 713.7832 716.1285 715.6372 726.9975 724.5432 728.5255 722.6782 722.4275 717.6812C720.4025 716.0222 720.4015 713.5732 721.8355 711.8232 723.3825 709.9352 725.4605 709.8022 727.4625 711.4432L733.6065 716.4772 735.1445 714.6012 728.3945 709.0692C725.7855 706.9322 722.5275 707.3602 720.3345 710.0382zM730.8265 696.6982C729.8375 697.9902 729.1665 699.7672 729.7225 701.6452L728.2655 700.5302 726.8095 702.4332 737.9665 710.9742 739.4325 709.0602 733.1725 704.2682C731.0935 702.6762 731.0115 700.2292 732.3865 698.4322 733.8705 696.4942 735.9435 696.2932 737.9985 697.8662L744.3055 702.6942 745.7805 700.7682 738.8505 695.4632C736.1725 693.4132 732.9305 693.9492 730.8265 696.6982zM740.5575 683.5142C738.0815 686.9802 738.8055 691.3872 742.1995 693.8122 745.5945 696.2362 749.9975 695.4912 752.4735 692.0252 754.9495 688.5582 754.2345 684.1392 750.8405 681.7152 747.4455 679.2912 743.0335 680.0472 740.5575 683.5142zM742.4115 684.8382C744.0445 682.5512 747.0005 682.0262 749.3955 683.7372 751.7915 685.4482 752.2655 688.4232 750.6325 690.7102 748.9905 693.0092 746.0305 693.5122 743.6355 691.8012 741.2405 690.0912 740.7695 687.1372 742.4115 684.8382zM753.7805 664.7982L752.3515 666.9202 759.3385 677.3322 747.0715 674.7602 745.6015 676.9442 760.5735 679.8932 762.1595 677.5382 753.7805 664.7982zM761.9625 651.9002L760.6635 653.9492 762.2625 654.9632C760.5445 655.1872 758.9405 656.1142 757.7605 657.9762 755.6465 661.3112 756.5975 665.5572 760.1825 667.8302 763.7675 670.1032 768.0135 669.1522 770.1285 665.8162 771.3085 663.9552 771.4625 662.1092 770.9445 660.4672L772.5315 661.4732 773.8305 659.4242 761.9625 651.9002zM759.8345 658.9582C761.3555 656.5592 764.2535 656.0502 766.6765 657.5862 769.1125 659.1302 769.8875 661.9692 768.3675 664.3672 766.8225 666.8032 763.8665 667.2402 761.5055 665.7442 759.1445 664.2472 758.2665 661.4312 759.8345 658.9582zM769.0905 639.9492L766.0695 645.0192 762.2835 642.7622 761.0415 644.8462 764.8275 647.1022 763.2905 649.6822 765.1835 650.8102 766.7215 648.2312 772.6425 651.7592C775.7175 653.5922 778.0845 652.8842 779.6445 650.2672 780.5305 648.7802 780.7285 647.2632 780.6075 645.9342L778.4615 645.9812C778.5235 646.9472 778.3365 648.0412 777.8065 648.9302 777.0265 650.2392 775.6625 650.7352 773.8455 649.6532L767.9625 646.1472 770.9845 641.0772 769.0905 639.9492zM771.9475 634.9222L770.7475 637.0142 782.9365 644.0062 784.1365 641.9152 771.9475 634.9222zM765.5505 632.6682C765.0715 633.5022 765.3585 634.5192 766.2045 635.0042 767.0385 635.4832 768.0355 635.2022 768.5135 634.3682 768.9925 633.5342 768.7465 632.5062 767.9125 632.0282 767.0655 631.5422 766.0285 631.8342 765.5505 632.6682zM780.1945 619.9482L778.9705 622.1952 786.9035 631.9052 774.4495 630.4952 773.1905 632.8072 788.3735 634.3402 789.7315 631.8462 780.1945 619.9482zM783.5085 612.8112C781.6755 616.4092 783.0145 620.3952 786.8635 622.3552 790.7645 624.3422 794.7305 623.0422 796.6235 619.3262 797.5635 617.4802 798.0015 615.5122 797.3435 613.2192L795.2835 613.6132C795.6625 615.1512 795.5515 616.7712 794.8055 618.2342 793.7115 620.3822 791.5135 621.5372 788.7625 620.5172L793.7775 610.6722C793.5475 610.5382 793.2705 610.3642 792.9935 610.2232 789.1445 608.2952 785.2475 609.3972 783.5085 612.8112zM785.3995 613.8242C786.4335 611.7942 788.5885 611.0832 790.9365 611.9472L787.0365 619.6052C785.0685 618.1872 784.2715 616.0382 785.3995 613.8242zM808.3895 588.1112L803.4765 598.9092 786.8765 591.3562 785.7985 593.7262 804.6475 602.3012 810.6375 589.1342 808.3895 588.1112zM800.9855 575.0432C799.3505 578.9772 801.0455 583.1092 804.8975 584.7102 808.7495 586.3112 812.8735 584.5972 814.5075 580.6632 816.1425 576.7292 814.4535 572.5832 810.6015 570.9832 806.7495 569.3822 802.6205 571.1102 800.9855 575.0432zM803.0885 575.9182C804.1675 573.3222 806.9305 572.1482 809.6485 573.2772 812.3665 574.4072 813.4965 577.1992 812.4185 579.7942 811.3335 582.4032 808.5635 583.5582 805.8455 582.4292 803.1275 581.2992 802.0045 578.5262 803.0885 575.9182zM794.5605 575.6252C794.1915 576.5132 794.6045 577.4862 795.4925 577.8552 796.3945 578.2292 797.3475 577.8242 797.7165 576.9362 798.0855 576.0492 797.7055 575.0742 796.8035 574.6992 795.9155 574.3302 794.9295 574.7372 794.5605 575.6252zM796.8595 570.0932C796.4855 570.9952 796.9035 571.9542 797.7915 572.3232 798.6925 572.6972 799.6405 572.3062 800.0145 571.4052 800.3835 570.5172 800.0035 569.5422 799.1025 569.1672 798.2145 568.7982 797.2285 569.2062 796.8595 570.0932zM810.2315 555.8652C808.8745 556.8022 807.5965 558.4822 806.8015 560.5542 805.5785 563.7442 806.2975 566.4122 808.8105 567.3762 810.7995 568.1392 812.6715 567.2252 814.1585 564.4212L814.9205 562.9712C815.8245 561.2742 816.7605 560.6512 817.7275 561.0212 819.0255 561.5192 819.2215 563.1152 818.3955 565.2702 817.5535 567.4662 816.4145 568.5342 815.2785 569.2232L816.5615 570.9192C818.5215 569.6912 819.7455 567.6572 820.3645 566.0412 821.7365 562.4642 820.9795 559.6072 818.4795 558.6482 816.3115 557.8172 814.5075 559.0102 813.0645 561.6572L812.2885 563.1022C811.4855 564.6162 810.6365 565.3832 809.5875 564.9812 808.3995 564.5252 808.0845 563.0742 808.7735 561.2782 809.4355 559.5522 810.7255 558.1302 811.6095 557.5182L810.2315 555.8652zM814.4775 540.2282L813.6715 542.5162 821.1635 545.1552C823.8695 546.1082 824.5045 548.1352 823.7475 550.2832 822.9865 552.4462 821.2215 553.6282 818.5145 552.6742L811.0225 550.0352 810.2165 552.3232 817.9185 555.0362C821.9225 556.4462 824.7575 554.2302 825.8825 551.0352 826.9975 547.8682 826.1825 544.3512 822.1785 542.9402L814.4775 540.2282zM817.5995 529.5652C817.1095 531.1172 817.0845 533.0162 818.2465 534.5932L816.4975 534.0412 815.7765 536.3262 829.1775 540.5532 829.9025 538.2542 822.3845 535.8822C819.8875 535.0952 818.9755 532.8222 819.6565 530.6642 820.3905 528.3362 822.2715 527.4402 824.7395 528.2192L832.3145 530.6082 833.0445 528.2952 824.7215 525.6702C821.5055 524.6552 818.6405 526.2642 817.5995 529.5652zM822.1655 514.2622C821.1025 518.0662 823.1155 521.7462 827.2325 522.8962 831.3635 524.0512 834.9925 521.9472 836.0555 518.1432 836.6405 516.0492 836.2585 514.2842 835.2485 512.8962L836.4445 513.2302C839.4505 514.0702 840.5435 516.4792 839.7315 519.3852 839.2425 521.1382 838.2085 522.5842 836.9205 523.6222L838.5185 525.1592C840.0155 524.0872 841.2655 522.0872 841.8545 519.9782 843.0485 515.7052 841.3715 512.0882 836.9975 510.8662L824.4045 507.3472 823.7515 509.6842 825.5895 510.1972C824.0065 510.8612 822.7505 512.1682 822.1655 514.2622zM824.4345 514.6052C825.1875 511.9122 827.7675 510.5912 830.4605 511.3432 833.1675 512.0992 834.6895 514.5672 833.9365 517.2592 833.1605 520.0372 830.5325 521.2542 827.8975 520.5172 825.2905 519.7892 823.6585 517.3832 824.4345 514.6052zM826.6515 497.2642C825.6945 501.1872 827.9145 504.7582 832.1105 505.7822 836.3635 506.8202 839.9245 504.6432 840.9135 500.5912 841.4045 498.5792 841.3785 496.5632 840.2115 494.4822L838.2965 495.3392C839.0185 496.7492 839.2825 498.3512 838.8935 499.9462 838.3215 502.2882 836.4475 503.9172 833.5365 503.5572L836.1555 492.8222C835.8995 492.7452 835.5905 492.6392 835.2895 492.5652 831.1005 491.5742 827.5595 493.5422 826.6515 497.2642zM828.7255 497.8152C829.2645 495.6022 831.1995 494.4152 833.6835 494.7162L831.6465 503.0652C829.4065 502.1382 828.1365 500.2292 828.7255 497.8152zM830.4475 480.6842C830.1065 482.2752 830.2595 484.1692 831.5635 485.6292L829.7705 485.2442 829.2675 487.5862 843.0055 490.5382 843.5125 488.1812 835.8045 486.5252C833.2445 485.9752 832.1235 483.7982 832.5995 481.5852 833.1125 479.1992 834.8995 478.1312 837.4305 478.6752L845.1965 480.3432 845.7065 477.9722 837.1735 476.1382C833.8765 475.4302 831.1755 477.3002 830.4475 480.6842zM251.5502 92.7053L245.8782 94.8103 245.7072 109.7823 235.7972 98.5513 230.1252 100.6563 237.3292 120.0703 241.1982 118.6343 235.8002 104.0873 245.3022 114.9813 249.3932 113.4633 249.4462 98.8973 254.8852 113.5553 258.7542 112.1193 251.5502 92.7053zM264.4872 94.8773C260.4082 96.2033 258.5462 100.0443 259.9412 104.3343 261.3372 108.6243 265.1582 110.5233 269.3362 109.1643 271.6292 108.4193 273.3882 107.1313 274.4732 105.2073L271.5522 103.5443C270.8372 104.6943 269.7132 105.5893 268.5312 105.9733 266.8012 106.5363 265.1442 106.1263 264.1092 104.2853L273.7732 101.1423C273.7142 100.8193 273.5782 100.3033 273.4412 99.8813 272.0452 95.6383 268.4112 93.6003 264.4872 94.8773zM265.4882 98.0513C267.0632 97.5383 268.4392 98.1803 269.3442 99.8143L263.3092 101.7773C263.0842 99.9843 263.7582 98.6133 265.4882 98.0513zM276.3002 84.3373L272.5942 85.4193 278.5672 105.8803 282.2732 104.7983 280.0722 97.2583C279.4672 95.1853 280.4852 93.7633 282.0752 93.2993 283.7652 92.8063 285.0782 93.6093 285.6582 95.5973L287.8672 103.1653 291.5732 102.0833 289.0162 93.3223C288.0832 90.1283 285.2202 88.6063 282.0962 89.5183 280.5912 89.9573 279.2692 90.8673 278.6882 92.5163L276.3002 84.3373zM299.0602 84.9313C297.3562 85.3733 296.1762 86.3053 295.6412 87.8353L295.2472 86.3173 291.6252 87.2563 295.2232 101.1303 298.9602 100.1613 296.9992 92.6013C296.4652 90.5403 297.3782 89.1723 299.1112 88.7233 299.8702 88.5263 300.8022 88.4673 301.4882 88.5803L301.0852 84.7273C300.5212 84.6743 299.8612 84.7233 299.0602 84.9313zM318.1372 80.8003C314.1912 81.6563 311.9502 85.2153 312.8662 89.4363 313.7942 93.7143 317.3092 95.9643 321.3862 95.0793 323.4092 94.6403 325.2112 93.7353 326.5722 91.7753L324.9632 90.4293C324.0112 91.6953 322.6862 92.6333 321.0822 92.9813 318.7262 93.4923 316.4412 92.5203 315.4912 89.7443L326.2892 87.4023C326.2472 87.1383 326.2072 86.8143 326.1412 86.5103 325.2002 82.3103 321.8812 79.9883 318.1372 80.8003zM318.5482 82.9063C320.7742 82.4233 322.6882 83.6423 323.5042 86.0083L315.1062 87.8303C314.9592 85.4103 316.1202 83.4323 318.5482 82.9063zM334.9762 77.3493C333.3362 77.6713 332.0472 78.7073 331.3542 80.2453L330.9982 78.4313 328.6612 78.8893 331.3652 92.6783 333.7312 92.2143 332.2252 84.5363C331.7272 81.9963 332.8922 80.0943 334.9962 79.6813 335.7802 79.5283 336.7462 79.5343 337.4682 79.7553L337.5902 77.3043C336.7872 77.1303 335.9632 77.1563 334.9762 77.3493zM341.8552 69.0423L339.4812 69.4583 343.1612 90.4383 345.5362 90.0213 341.8552 69.0423zM353.9872 74.0763C349.9972 74.6953 347.5482 78.1133 348.2092 82.3813 348.8802 86.7073 352.2542 89.1633 356.3762 88.5243 358.4222 88.2073 360.2752 87.4113 361.7502 85.5363L360.2252 84.0963C359.2002 85.3033 357.8212 86.1603 356.1982 86.4113 353.8162 86.7813 351.5932 85.6733 350.8112 82.8463L361.7302 81.1543C361.7042 80.8883 361.6832 80.5623 361.6352 80.2553 360.9472 76.0063 357.7732 73.4903 353.9872 74.0763zM354.2722 76.2023C356.5232 75.8543 358.3612 77.1853 359.0332 79.5963L350.541199 80.9123C350.5402 78.4873 351.8162 76.5833 354.2722 76.2023zM372.0112 71.5323C369.8102 71.8073 368.2862 72.8613 367.3632 74.3023L366.2352 65.2463 363.8422 65.5443 366.4752 86.6803 368.8682 86.3823 368.6362 84.5183C369.8852 85.6893 371.6202 86.3383 373.8212 86.0633 377.7262 85.5773 380.4132 82.1423 379.8882 77.9293 379.3642 73.7173 375.9162 71.0463 372.0112 71.5323zM372.0142 73.8273C374.8622 73.4733 377.0772 75.4623 377.4232 78.2373 377.7682 81.0113 376.1542 83.4923 373.2632 83.8523 370.4452 84.2043 368.2092 82.2913 367.8532 79.4293 367.4982 76.5813 369.1962 74.1793 372.0142 73.8273zM390.4802 69.4893C388.2712 69.6973 386.7172 70.7063 385.7512 72.1193L384.8932 63.0333 382.4932 63.2603 384.4952 84.4653 386.8952 84.2393 386.7192 82.3683C387.9322 83.5763 389.6472 84.2763 391.8562 84.0673 395.7732 83.6973 398.5622 80.3443 398.1632 76.1173 397.7642 71.8913 394.3972 69.1193 390.4802 69.4893zM390.4142 71.7833C393.2712 71.5133 395.4262 73.5683 395.6892 76.3513 395.9522 79.1343 394.2652 81.5673 391.3642 81.8413 388.5362 82.1083 386.3592 80.1293 386.0882 77.2583 385.8182 74.4013 387.5872 72.0503 390.4142 71.7833zM415.1072 67.9033L412.6862 68.0593 412.8082 69.9483C411.6152 68.6913 409.9212 67.9413 407.7222 68.0833 403.7812 68.3373 400.9092 71.6053 401.1822 75.8413 401.4552 80.0783 404.7242 82.9503 408.6652 82.6963 410.8642 82.5543 412.4472 81.5923 413.4702 80.2073L413.5902 82.0813 416.0112 81.9253 415.1072 67.9033zM408.1492 70.3383C410.9832 70.1553 413.1012 72.1973 413.2862 75.0613 413.4712 77.9393 411.6332 80.2363 408.7992 80.4193 405.9212 80.6053 403.8272 78.4723 403.6472 75.6823 403.4672 72.8933 405.2272 70.5263 408.1492 70.3383zM426.5632 67.0823C424.8932 67.1573 423.4652 67.9913 422.5512 69.4083L422.4682 67.5613 420.0892 67.6673 420.7162 81.7053 423.1242 81.5983 422.7752 73.7813C422.6602 71.1953 424.0942 69.4873 426.2372 69.3923 427.0352 69.3563 427.9892 69.5063 428.6702 69.8313L429.1552 67.4263C428.3872 67.1343 427.5682 67.0383 426.5632 67.0823zM438.1292 66.7693C434.0912 66.8293 431.1932 69.8753 431.2572 74.1933 431.3222 78.5713 434.3242 81.4703 438.4942 81.4083 440.5652 81.3783 442.5102 80.8463 444.2312 79.1933L442.9192 77.5563C441.7372 78.6093 440.2522 79.2673 438.6112 79.2913 436.2002 79.3273 434.1532 77.9223 433.7692 75.0143L444.8172 74.8503C444.8282 74.5833 444.8532 74.2583 444.8482 73.9473 444.7542 69.6443 441.9592 66.7123 438.1292 66.7693zM438.1162 68.9143C440.3942 68.8803 442.0302 70.4533 442.3622 72.9343L433.7702 73.0613C434.1042 70.6603 435.6322 68.9513 438.1162 68.9143zM455.3152 66.6783C453.6442 66.6693 452.1762 67.4313 451.1932 68.8023L451.2022 66.9533 448.8212 66.9413 448.7512 80.9933 451.1622 81.0053 451.2012 73.1803C451.2142 70.5923 452.7302 68.9573 454.8752 68.9683 455.6742 68.9723 456.6202 69.1693 457.2832 69.5273L457.8872 67.1493C457.1342 66.8203 456.3212 66.6823 455.3152 66.6783zM483.2882 81.8683L486.8342 82.0263 477.0502 71.0183 487.1222 61.3113 483.7532 61.1603 474.9562 69.8443 472.5622 69.7373 472.9662 60.6793 470.3652 60.5633 469.4422 81.2503 472.0432 81.3663 472.4522 72.1903 474.8172 72.2953 483.2882 81.8683zM502.2042 69.0793L499.7852 68.8993 499.1962 76.8203C498.9822 79.6823 497.1922 80.8243 494.9202 80.6553 492.6342 80.4853 491.0322 79.0903 491.2452 76.2283L491.8352 68.3073 489.4162 68.1273 488.8092 76.2703C488.4942 80.5033 491.3742 82.6603 494.7522 82.9123 498.1002 83.1613 501.2832 81.4553 501.5982 77.2223L502.2042 69.0793zM514.1732 69.9133C512.5542 69.7443 510.6882 70.1003 509.3762 71.5543L509.5672 69.7303 507.1842 69.4813 505.7242 83.4573 508.1222 83.7073 508.9412 75.8663C509.2132 73.2623 511.2572 71.9143 513.5082 72.1493 515.9352 72.4033 517.1892 74.0653 516.9202 76.6403L516.0952 84.5403 518.5082 84.7923 519.4142 76.1123C519.7652 72.7583 517.6152 70.2733 514.1732 69.9133zM531.0052 71.8693C527.0912 71.3423 523.6312 73.9803 523.0652 78.1873 522.4982 82.3953 525.1372 85.8543 529.0512 86.3813 531.2352 86.6763 532.9772 86.0443 534.2522 84.8883L534.0012 86.7503 536.4052 87.0733 539.2482 65.9643 536.8442 65.6413 535.6242 74.7003C534.7022 73.2333 533.1892 72.1633 531.0052 71.8693zM530.9802 74.1643C533.7942 74.5433 535.4682 76.9623 535.0852 79.8063 534.7002 82.6653 532.4462 84.5553 529.6312 84.1763 526.7732 83.7913 525.1402 81.2883 525.5132 78.5173 525.8862 75.7473 528.0772 73.7733 530.9802 74.1643zM549.4182 74.5593C545.4342 73.9003 542.0412 76.3833 541.3372 80.6453 540.6232 84.9643 543.0622 88.3513 547.1782 89.0303 549.2212 89.3683 551.2292 89.1903 553.2172 87.8693L552.2172 86.0253C550.8662 86.8513 549.2882 87.2353 547.6692 86.9683 545.2902 86.5753 543.5242 84.8293 543.6642 81.8983L554.5652 83.6993C554.6232 83.4393 554.7052 83.1233 554.7562 82.8163 555.4282 78.5653 553.1982 75.1833 549.4182 74.5593zM549.0252 76.6673C551.2732 77.0393 552.6032 78.8783 552.4902 81.3773L544.0112 79.9773C544.7662 77.6733 546.5732 76.2623 549.0252 76.6673zM566.8412 77.6303C565.2422 77.3333 563.3532 77.5393 561.9302 78.8843L562.2642 77.0813 559.9092 76.6433 557.3432 90.4593 559.7132 90.8993 561.1532 83.1483C561.6312 80.5743 563.7762 79.3933 566.0012 79.8063 568.4002 80.2523 569.5182 82.0093 569.0462 84.5543L567.5952 92.3633 569.9802 92.8063 571.5742 84.2263C572.1902 80.9103 570.2442 78.2623 566.8412 77.6303zM584.3462 81.2623C582.7562 80.9173 580.8622 81.0663 579.3992 82.3683L579.7872 80.5763 577.4462 80.0683 574.4672 93.8003 576.8232 94.3123 578.4942 86.6073C579.0492 84.0483 581.2292 82.9323 583.4412 83.4123 585.8262 83.9293 586.8902 85.7193 586.3422 88.2493L584.6582 96.0113 587.0282 96.5253 588.8782 87.9973C589.5932 84.7013 587.7282 81.9963 584.3462 81.2623zM607.1062 87.0603L604.7522 86.4753 602.8352 94.1833C602.1432 96.9683 600.1852 97.7923 597.9752 97.2423 595.7502 96.6893 594.4062 95.0443 595.0982 92.2603L597.0152 84.5513 594.6612 83.9663 592.6912 91.8893C591.6662 96.0093 594.1412 98.6213 597.4292 99.4393 600.6872 100.2493 604.1122 99.1043 605.1362 94.9843L607.1062 87.0603zM621.2062 91.0363L615.5242 89.4403 616.7162 85.1963 614.3812 84.5403 613.1882 88.7833 610.2982 87.9713 609.7022 90.0933 612.5922 90.9053 610.7282 97.5413C609.7592 100.9873 611.0592 103.0883 613.9922 103.9133 615.6582 104.3813 617.1752 104.1773 618.4272 103.7143L617.8222 101.6553C616.9052 101.9663 615.8012 102.0703 614.8042 101.7903 613.3372 101.3783 612.5032 100.1913 613.0752 98.1553L614.9282 91.5613 620.6092 93.1583 621.2062 91.0363zM636.0482 95.6203L624.9712 92.1413 624.3102 94.2443 632.4252 96.7923 621.0482 103.7933 620.5212 105.4723 631.9652 109.0663 632.6212 106.9773 624.2392 104.3453 635.5212 97.2993 636.0482 95.6203zM645.3442 98.4063C641.5172 97.1183 637.7702 99.0253 636.3922 103.1183 634.9952 107.2683 636.8602 111.0013 640.8142 112.3323 642.7762 112.9923 644.7872 113.1383 646.9602 112.1533L646.2692 110.1723C644.8032 110.7723 643.1852 110.8983 641.6292 110.3743 639.3442 109.6053 637.8812 107.5993 638.4882 104.7293L648.9602 108.2533C649.0582 108.0053 649.1902 107.7063 649.2892 107.4123 650.6342 103.3233 648.9752 99.6283 645.3442 98.4063zM644.6182 100.4243C646.7772 101.1513 647.7952 103.1793 647.2832 105.6293L639.1382 102.8883C640.2532 100.7353 642.2632 99.6323 644.6182 100.4243zM662.1402 104.4383C660.6142 103.8723 658.7182 103.7523 657.0862 104.8353L657.7242 103.1153 655.4772 102.2813 650.5892 115.4553 652.8492 116.2943 655.5922 108.9033C656.5032 106.4483 658.8182 105.6513 660.9402 106.4383 663.2282 107.2873 664.0292 109.2103 663.1292 111.6363L660.3652 119.0833 662.6392 119.9273 665.6762 111.7453C666.8492 108.5843 665.3852 105.6423 662.1402 104.4383zM67.0445 419.6576L66.6395 413.6216 52.3325 409.2006 65.9185 402.8926 65.5135 396.8566 44.8515 398.2436 45.1285 402.3616 60.6095 401.3216 47.4635 407.3336 47.7555 411.6876 61.7055 415.8796 46.1065 416.9276 46.3835 421.0456 67.0445 419.6576zM62.1865 430.2046C61.7325 425.9396 58.3595 423.3236 53.8735 423.8016 49.3875 424.2796 46.7395 427.6266 47.2045 431.9946 47.4605 434.3916 48.3565 436.3786 50.0145 437.8386L52.2455 435.3246C51.2675 434.3876 50.6255 433.1026 50.4935 431.8676 50.3005 430.0586 51.0445 428.5216 53.0595 427.8896L54.1365 437.9946C54.4645 438.0036 54.9975 437.9766 55.4385 437.9296 59.8785 437.4416 62.6245 434.3086 62.1865 430.2046zM58.8745 430.5276C59.0495 432.1756 58.1375 433.3876 56.3515 433.9356L55.6795 427.6256C57.4805 427.7756 58.6815 428.7186 58.8745 430.5276zM70.3425 442.5436L69.8055 438.7206 48.6985 441.6856 49.2355 445.5086 57.0135 444.4156C59.1515 444.1156 60.4125 445.3276 60.6435 446.9686 60.8875 448.7116 59.9045 449.8946 57.8535 450.1826L50.0465 451.2796 50.5835 455.1026 59.6205 453.8336C62.9165 453.3706 64.8345 450.7556 64.3815 447.5336 64.1635 445.9806 63.4535 444.5416 61.9055 443.7286L70.3425 442.5436zM67.0245 464.0416C66.7315 462.3066 65.9045 461.0506 64.4265 460.3856L65.9725 460.1246 65.3495 456.4346 51.2165 458.8216 51.8595 462.6286 59.5605 461.3276C61.6605 460.9726 62.9445 462.0006 63.2425 463.7656 63.3735 464.5386 63.3505 465.4726 63.1795 466.1466L67.0535 466.0776C67.1545 465.5206 67.1625 464.8586 67.0245 464.0416zM78.3235 489.5826L75.0325 474.2686 72.6175 474.7876 75.1815 486.7176 56.7285 478.0806 54.7615 478.5036 58.0835 493.9626 60.4985 493.4436 57.9035 481.3686 76.3565 490.0056 78.3235 489.5826zM75.6065 506.1156L75.0185 503.7616 67.3115 505.6876C64.5275 506.3826 62.8815 505.0406 62.3295 502.8306 61.7735 500.6066 62.5955 498.6486 65.3795 497.9526L73.0855 496.0276 72.4975 493.6736 64.5765 495.6526C60.4575 496.6816 59.3125 500.0936 60.1335 503.3796 60.9475 506.6376 63.5665 509.1236 67.6845 508.0946L75.6065 506.1156zM78.3555 520.4596C78.8785 518.8956 78.8915 516.7846 78.2825 514.6516 77.3445 511.3656 75.1675 509.6646 72.5785 510.4026 70.5305 510.9876 69.5835 512.8416 70.0775 515.9776L70.3395 517.5946C70.6355 519.4946 70.2615 520.5546 69.2655 520.8386 67.9285 521.2206 66.8135 520.0616 66.1805 517.8426 65.5345 515.5816 65.8035 514.0436 66.2975 512.8106L64.2535 512.2246C63.4245 514.3846 63.6675 516.7456 64.1425 518.4096 65.1935 522.0936 67.5155 523.9226 70.0895 523.1876 72.3225 522.5506 73.0485 520.5126 72.6125 517.5306L72.3655 515.9086C72.0975 514.2166 72.3155 513.0926 73.3965 512.7846 74.6195 512.4356 75.7435 513.4066 76.2705 515.2556 76.7785 517.0336 76.6005 518.9456 76.2615 519.9656L78.3555 520.4596zM84.5725 536.3116L83.8425 533.9986 82.0365 534.5676C82.9725 533.1096 83.2965 531.2856 82.6335 529.1836 81.4455 525.4176 77.5865 523.4086 73.5375 524.6856 69.4895 525.9626 67.4805 529.8226 68.6685 533.5886 69.3315 535.6906 70.6435 536.9986 72.2335 537.6606L70.4415 538.2256 71.1715 540.5386 84.5725 536.3116zM80.5465 530.1366C81.4005 532.8456 79.9235 535.3896 77.1865 536.2526 74.4355 537.1206 71.7655 535.8846 70.9115 533.1756 70.0435 530.4256 71.6145 527.8826 74.2805 527.0416 76.9465 526.2006 79.6655 527.3436 80.5465 530.1366zM89.1055 549.4686L87.1755 543.8916 91.3405 542.4496 90.5475 540.1576 86.3825 541.5986 85.4005 538.7616 83.3175 539.4826 84.2995 542.3196 77.7855 544.5736C74.4025 545.7446 73.4185 548.0106 74.4145 550.8896 74.9805 552.5256 76.0135 553.6546 77.1075 554.4186L78.4545 552.7476C77.6755 552.1716 76.9595 551.3236 76.6215 550.3456 76.1225 548.9056 76.6215 547.5436 78.6205 546.8516L85.0925 544.6126 87.0225 550.1896 89.1055 549.4686zM94.2615 563.2566L90.1635 552.3926 88.1015 553.1706 91.1035 561.1276 78.5745 556.4956 76.9275 557.1166 81.1615 568.3406 83.2095 567.5676 80.1085 559.3476 92.6155 563.8776 94.2615 563.2566zM93.5915 575.3016L90.4865 567.5906 88.4555 568.4076 91.5605 576.1186 93.5915 575.3016zM95.2995 595.6166L90.5665 584.7396 107.2895 577.4626 106.2515 575.0756 87.2625 583.3376 93.0345 596.6026 95.2995 595.6166zM109.8165 598.5126C108.0835 594.8646 104.1085 593.4946 100.2075 595.3476 96.2525 597.2266 94.8635 601.1616 96.6535 604.9296 97.5415 606.7996 98.8335 608.3476 101.0525 609.2266L101.9965 607.3526C100.5475 606.7146 99.3315 605.6386 98.6275 604.1556 97.5925 601.9776 98.0185 599.5316 100.5045 597.9736L105.2465 607.9546C105.4935 607.8536 105.7995 607.7406 106.0805 607.6076 109.9555 605.7336 111.4605 601.9726 109.8165 598.5126zM107.8605 599.3926C108.8375 601.4496 108.0865 603.5916 105.9685 604.9256L102.2815 597.1626C104.6045 596.4686 106.7935 597.1476 107.8605 599.3926zM115.0275 609.8866L113.9565 607.7266 101.3665 613.9656 102.4365 616.1266 115.0275 609.8866zM120.4595 605.8246C120.0325 604.9636 119.0285 604.6356 118.1535 605.0696 117.2915 605.4956 116.9705 606.4806 117.3975 607.3416 117.8245 608.2036 118.8155 608.5706 119.6775 608.1436 120.5515 607.7106 120.8865 606.6866 120.4595 605.8246zM120.8175 623.7876C121.0125 622.1496 120.5965 620.0806 119.5675 618.1146 117.9835 615.0876 115.5065 613.8626 113.1215 615.1106 111.2335 616.0986 110.6825 618.1066 111.8025 621.0766L112.3865 622.6076C113.0615 624.4076 112.9105 625.5216 111.9925 626.0026 110.7615 626.6466 109.4345 625.7386 108.3645 623.6946 107.2735 621.6106 107.2245 620.0496 107.4585 618.7426L105.3385 618.5826C104.9645 620.8656 105.6805 623.1286 106.4835 624.6616 108.2595 628.0556 110.9045 629.3766 113.2765 628.1356 115.3335 627.0586 115.6315 624.9156 114.5995 622.0836L114.0285 620.5456C113.4235 618.9426 113.4085 617.7986 114.4045 617.2776 115.5315 616.6876 116.8285 617.4106 117.7205 619.1146 118.5775 620.7526 118.7915 622.6606 118.6665 623.7286L120.8175 623.7876zM128.4455 635.0646L125.5935 629.8976 129.4535 627.7676 128.2815 625.6436 124.4215 627.7736 122.9715 625.1446 121.0415 626.2096 122.4925 628.8386 116.4575 632.1686C113.3235 633.8986 112.7395 636.2986 114.2115 638.9666 115.0475 640.4816 116.2575 641.4186 117.4655 641.9856L118.5085 640.1096C117.6425 639.6746 116.7935 638.9606 116.2925 638.0546 115.5565 636.7206 115.8165 635.2936 117.6685 634.2716L123.6645 630.9626 126.5155 636.1296 128.4455 635.0646zM136.3225 648.4976L135.0915 646.4076 128.2465 650.4356C125.7735 651.8906 123.8145 651.0696 122.6585 649.1066 121.4965 647.1306 121.7295 645.0196 124.2025 643.5646L131.0485 639.5356 129.8185 637.4456 122.7815 641.5866C119.1225 643.7396 118.9905 647.3356 120.7085 650.2546 122.4115 653.1486 125.6265 654.7916 129.2855 652.6386L136.3225 648.4976zM142.4565 657.7606C141.5855 656.3866 140.1485 655.1426 138.1945 655.0156L139.7435 654.0336 138.4605 652.0096 126.5925 659.5336 127.8835 661.5696 134.5425 657.3486C136.7535 655.9466 139.0785 656.7146 140.2905 658.6256 141.5975 660.6866 141.0705 662.7016 138.8845 664.0876L132.1765 668.3406 133.4755 670.3896 140.8455 665.7166C143.6935 663.9116 144.3095 660.6836 142.4565 657.7606zM151.2365 671.1936C149.0305 667.9176 144.9245 667.0626 141.3785 669.4506 137.8205 671.8466 137.0685 675.9726 139.2745 679.2486 140.4885 681.0526 142.0805 681.9066 143.7915 682.0376L142.7615 682.7316C140.1725 684.4756 137.6295 683.7446 135.9445 681.2416 134.9275 679.7326 134.4975 678.0076 134.5435 676.3536L132.3375 676.5736C132.1815 678.4076 132.8935 680.6566 134.1165 682.4726 136.5945 686.1536 140.4355 687.2226 144.2015 684.6866L155.0475 677.3826 153.6925 675.3706 152.1105 676.4366C152.6315 674.8016 152.4515 672.9966 151.2365 671.1936zM149.5045 672.6986C151.0655 675.0176 150.3975 677.8396 148.0785 679.4006 145.7475 680.9706 142.8825 680.5286 141.3205 678.2096 139.7095 675.8176 140.4885 673.0276 142.7585 671.4996 145.0035 669.9876 147.8935 670.3066 149.5045 672.6986zM161.3015 685.6086C158.9365 682.3356 154.7785 681.7086 151.2785 684.2386 147.7295 686.8026 147.0765 690.9246 149.5195 694.3056 150.7325 695.9836 152.2835 697.2716 154.6245 697.7336L155.2135 695.7196C153.6725 695.3556 152.2825 694.5166 151.3205 693.1866 149.9085 691.2326 149.8845 688.7496 152.0465 686.7666L158.5185 695.7226C158.7425 695.5786 159.0245 695.4116 159.2755 695.2296 162.7475 692.6846 163.5455 688.7136 161.3015 685.6086zM159.5375 686.8286C160.8715 688.6746 160.5205 690.9176 158.6805 692.6126L153.6465 685.6476C155.8055 684.5436 158.0815 684.8146 159.5375 686.8286zM171.4735 699.2416C170.4845 697.9496 168.9445 696.8376 166.9865 696.8836L168.4425 695.7686 166.9865 693.8656 155.8285 702.4076 157.2935 704.3216 163.5535 699.5296C165.6325 697.9376 168.0165 698.4976 169.3925 700.2946 170.8755 702.2326 170.5295 704.2856 168.4735 705.8596L162.1665 710.6876 163.6415 712.6136 170.5715 707.3086C173.2485 705.2586 173.5775 701.9896 171.4735 699.2416zM181.5695 734.3136L182.0815 727.3026 188.1825 726.5906 187.8685 724.3056 182.2475 724.9446 182.6985 718.7576C185.1965 719.3666 187.6895 719.7856 189.5035 718.2656 191.5785 716.5276 191.6445 713.6346 189.6305 711.2316 187.5975 708.8056 184.6115 708.4896 182.5935 710.1806 181.0405 711.4826 180.6485 713.0646 180.4125 715.8686 177.8905 715.2996 175.2695 715.0056 173.2525 716.6966 170.7465 718.7966 170.7205 721.8286 173.0765 724.6406 174.9485 726.8736 177.2715 727.4356 179.6125 727.4426L179.3175 731.6266 181.5695 734.3136zM174.9175 723.2906C173.5785 721.6916 173.5975 719.8036 174.9925 718.6356 176.3295 717.5146 178.2145 717.6906 180.2635 718.1546L179.7845 725.1366C177.7015 725.1846 176.1715 724.7866 174.9175 723.2906zM184.1525 712.2716C185.3315 711.2836 186.7995 711.4236 187.8725 712.7046 188.9555 713.9966 188.8935 715.4186 187.7715 716.3596 186.6605 717.2906 184.8605 716.9846 182.8455 716.4926 183.0395 713.9376 183.2455 713.0316 184.1525 712.2716zM210.9615 738.6236C210.6225 736.2756 209.6775 733.9056 207.5565 731.6166 204.5905 728.4146 200.5405 727.3286 197.6105 730.0426 195.0165 732.4446 195.7055 735.5166 197.7235 738.3046L198.8565 739.8766C200.7545 742.5136 201.2575 744.4066 199.8475 745.7126 198.1325 747.3016 195.5615 746.3756 193.4605 744.1076 191.6715 742.1766 190.6225 739.4986 190.5595 737.6016L188.0755 737.9676C188.2055 740.5676 189.6485 743.6266 191.6485 745.7866 194.6945 749.0746 198.8215 750.3526 201.8495 747.5476 204.5295 745.0656 203.5305 741.8976 201.4635 739.0346L200.3895 737.5486C198.5615 735.0086 198.1905 733.1946 199.5685 731.9176 201.2075 730.3996 203.6735 731.0596 205.7335 733.2836 207.3625 735.0416 208.1955 737.0726 208.5055 739.0836L210.9615 738.6236zM214.7055 748.7096C211.8645 745.8396 207.6595 745.8596 204.5905 748.8986 201.4785 751.9786 201.4675 756.1516 204.4015 759.1156 205.8585 760.5876 207.5895 761.6216 209.9735 761.7176L210.2455 759.6376C208.6675 759.5146 207.1645 758.8996 206.0095 757.7336 204.3135 756.0196 203.9075 753.5696 205.7385 751.2786L213.5115 759.1316C213.7115 758.9546 213.9635 758.7466 214.1845 758.5276 217.2225 755.4786 217.4005 751.4326 214.7055 748.7096zM213.1495 750.1866C214.7525 751.8056 214.7505 754.0756 213.1925 756.0336L207.1475 749.9256C209.1105 748.5026 211.4015 748.4206 213.1495 750.1866zM226.4945 760.2626C225.2865 759.1076 223.6965 758.6516 222.0405 758.9706L223.3175 757.6346 221.5965 755.9886 211.8865 766.1456 213.6295 767.8116 219.0365 762.1566C220.8245 760.2856 223.0505 760.1406 224.6005 761.6226 225.1775 762.1746 225.7295 762.9676 225.9645 763.6846L228.0385 762.3716C227.7175 761.6156 227.2215 760.9576 226.4945 760.2626zM240.0865 773.1526L238.1885 771.4356 226.8895 776.8726 231.1785 765.0956 229.2265 763.3296 224.1785 777.7316 226.2855 779.6366 240.0865 773.1526zM243.8485 776.4016L242.0345 774.8136 232.7825 785.3906 234.5975 786.9776 243.8485 776.4016zM247.3165 770.5716C246.5935 769.9386 245.5395 770.0196 244.8975 770.7546 244.2645 771.4786 244.3435 772.5106 245.0675 773.1436 245.7905 773.7766 246.8475 773.7376 247.4805 773.0136 248.1225 772.2786 248.0405 771.2046 247.3165 770.5716zM252.1805 783.0736C248.8445 780.2846 244.5655 780.8126 241.8895 784.0126 239.2135 787.2126 239.4505 791.5176 242.7865 794.3076 244.3865 795.6456 246.3095 796.2506 248.2055 795.9666L248.1315 793.7256C246.7755 793.8256 245.3385 793.4916 244.1925 792.5336 242.1165 790.7966 241.8965 787.8556 243.7845 785.5976 245.6725 783.3396 248.5975 783.0466 250.6735 784.7836 251.8195 785.7416 252.3685 786.9526 252.5175 788.3886L254.7625 788.1256C254.7275 786.2076 253.7805 784.4116 252.1805 783.0736zM262.9565 791.7766C259.7885 789.2736 255.6175 789.8046 252.9395 793.1926 250.2245 796.6286 250.7205 800.7716 253.9935 803.3576 255.6185 804.6416 257.4625 805.4576 259.8405 805.2636L259.8575 803.1656C258.2755 803.2356 256.7095 802.8076 255.4215 801.7896 253.5295 800.2956 252.8295 797.9136 254.3685 795.4156L263.0385 802.2666C263.2145 802.0666 263.4395 801.8296 263.6325 801.5856 266.2775 798.1906 265.9625 794.1516 262.9565 791.7766zM261.5915 793.4326C263.3795 794.8446 263.6535 797.0976 262.3455 799.2306L255.6025 793.9026C257.3785 792.2516 259.6425 791.8916 261.5915 793.4326zM278.3165 805.3056C277.7745 803.7486 276.4945 802.0696 274.7085 800.7526 271.9585 798.7246 269.1955 798.7086 267.5975 800.8756 266.3335 802.5896 266.7175 804.6366 269.0245 806.8166L270.2205 807.9366C271.6155 809.2596 271.9675 810.3276 271.3535 811.1606 270.5285 812.2796 268.9375 812.0446 267.0805 810.6756 265.1875 809.2796 264.4605 807.8976 264.0975 806.6196L262.1215 807.4056C262.7845 809.6216 264.4205 811.3416 265.8135 812.3686 268.8965 814.6426 271.8525 814.6716 273.4415 812.5166 274.8195 810.6476 274.1485 808.5906 271.9805 806.4966L270.7945 805.3646C269.5475 804.1876 269.0335 803.1656 269.7005 802.2606 270.4555 801.2366 271.9385 801.3196 273.4865 802.4606 274.9745 803.5576 276.0025 805.1796 276.3565 806.1946L278.3165 805.3056z" mask="url(#primesvg-d)"/>
  </g>
</svg>
